<svg xmlns="http://www.w3.org/2000/svg" fill="none" viewBox="0 0 500 250"><path fill="#fff" d="M210.463 31.288l1.141-6.241h2.379L211.871 35h-2.488l-1.333-5.674L206.744 35h-2.481l-2.119-9.953h2.385l1.142 6.241 1.367-6.241h2.037l1.388 6.241zM218.174 35.137c-1.135 0-2.053-.337-2.755-1.012-.702-.679-1.053-1.56-1.053-2.645v-.192c0-.756.139-1.424.417-2.003a3.079 3.079 0 011.231-1.34c.537-.319 1.175-.478 1.914-.478 1.039 0 1.859.323 2.461.97.601.643.902 1.54.902 2.694v.895h-4.58c.082.415.262.74.54.978.278.237.638.355 1.08.355.729 0 1.299-.255 1.709-.765l1.053 1.244c-.287.396-.695.713-1.224.95a4.133 4.133 0 01-1.695.349zm-.26-5.893c-.674 0-1.075.447-1.203 1.34h2.324v-.178c.009-.369-.084-.654-.28-.854-.196-.205-.476-.308-.841-.308zM224.654 35h-2.31V24.5h2.31V35zM229.207 33.36c.324 0 .574-.087.752-.26.178-.178.264-.424.26-.739h2.16c0 .812-.292 1.477-.875 1.996-.579.52-1.326.78-2.242.78-1.076 0-1.923-.337-2.543-1.012-.62-.675-.93-1.609-.93-2.803v-.095c0-.748.137-1.406.41-1.976a3.007 3.007 0 011.197-1.32c.519-.31 1.134-.464 1.845-.464.962 0 1.725.266 2.29.8.565.533.848 1.255.848 2.167h-2.16c0-.383-.094-.677-.281-.882-.186-.205-.437-.308-.751-.308-.597 0-.946.38-1.046 1.142a8.033 8.033 0 00-.048.998c0 .743.089 1.258.266 1.545.178.287.461.43.848.43zM233.062 31.233c0-.738.144-1.394.431-1.968a3.08 3.08 0 011.237-1.333c.538-.31 1.169-.465 1.894-.465 1.107 0 1.98.344 2.618 1.032.638.684.957 1.616.957 2.796v.082c0 1.153-.321 2.069-.964 2.748-.638.675-1.504 1.012-2.597 1.012-1.053 0-1.898-.315-2.536-.944-.638-.633-.983-1.49-1.033-2.57l-.007-.39zm2.304.144c0 .683.107 1.185.322 1.504.214.319.53.478.95.478.82 0 1.239-.63 1.258-1.893v-.233c0-1.326-.424-1.989-1.272-1.989-.77 0-1.187.572-1.251 1.716l-.007.417zM243.392 27.604l.075.868c.524-.67 1.228-1.005 2.112-1.005.934 0 1.566.371 1.894 1.114.501-.743 1.226-1.114 2.173-1.114 1.5 0 2.27.907 2.311 2.72V35h-2.311v-4.669c0-.378-.063-.654-.191-.827-.128-.173-.36-.26-.697-.26-.456 0-.795.203-1.019.608l.007.096V35h-2.31v-4.655c0-.388-.062-.668-.185-.841-.123-.173-.358-.26-.704-.26-.442 0-.779.203-1.012.608V35h-2.304v-7.396h2.161zM256.852 35.137c-1.135 0-2.053-.337-2.755-1.012-.702-.679-1.053-1.56-1.053-2.645v-.192c0-.756.139-1.424.417-2.003a3.077 3.077 0 011.23-1.34c.538-.319 1.176-.478 1.914-.478 1.04 0 1.86.323 2.461.97.602.643.903 1.54.903 2.694v.895h-4.58c.082.415.262.74.54.978.278.237.638.355 1.08.355.729 0 1.299-.255 1.709-.765l1.053 1.244c-.288.396-.695.713-1.224.95a4.133 4.133 0 01-1.695.349zm-.26-5.893c-.675 0-1.076.447-1.203 1.34h2.324v-.178c.009-.369-.084-.654-.28-.854-.196-.205-.477-.308-.841-.308zM271.255 31.363c0 1.212-.251 2.145-.752 2.796-.501.652-1.208.978-2.119.978-.752 0-1.358-.299-1.819-.896l-.095.759h-2.065V24.5h2.304v3.698c.428-.487.982-.731 1.661-.731.921 0 1.632.33 2.133.991.501.66.752 1.59.752 2.79v.115zm-2.311-.143c0-.711-.095-1.217-.287-1.518-.187-.305-.476-.458-.868-.458-.519 0-.879.198-1.08.595v2.94c.196.391.561.587 1.094.587.542 0 .886-.264 1.032-.793.073-.26.109-.71.109-1.353zM276.443 35c-.082-.15-.155-.371-.218-.663-.424.533-1.017.8-1.778.8-.697 0-1.289-.21-1.777-.63a2.022 2.022 0 01-.732-1.592c0-.802.297-1.408.889-1.818.593-.41 1.454-.616 2.584-.616h.711v-.39c0-.678-.294-1.018-.882-1.018-.547 0-.82.27-.82.807h-2.304c0-.716.303-1.297.909-1.743.611-.447 1.388-.67 2.331-.67.944 0 1.689.23 2.236.69.547.46.827 1.092.841 1.894v3.274c.009.68.114 1.199.314 1.559V35h-2.304zm-1.442-1.504c.287 0 .524-.061.711-.184.191-.123.328-.262.41-.417v-1.183h-.67c-.802 0-1.203.36-1.203 1.08 0 .21.071.38.212.513a.774.774 0 00.54.191zM282.842 33.36c.323 0 .574-.087.752-.26.177-.178.264-.424.26-.739h2.16c0 .812-.292 1.477-.875 1.996-.579.52-1.327.78-2.243.78-1.075 0-1.923-.337-2.542-1.012-.62-.675-.93-1.609-.93-2.803v-.095c0-.748.137-1.406.41-1.976a3.01 3.01 0 011.196-1.32c.52-.31 1.135-.464 1.846-.464.962 0 1.725.266 2.29.8.565.533.848 1.255.848 2.167h-2.16c0-.383-.094-.677-.281-.882-.187-.205-.437-.308-.752-.308-.597 0-.945.38-1.046 1.142a8.068 8.068 0 00-.047.998c0 .743.088 1.258.266 1.545.178.287.46.43.848.43zM289.958 32.245l-.649.65V35h-2.304V24.493h2.304v5.578l.232-.307 1.736-2.16h2.762l-2.591 3.041L294.21 35h-2.639l-1.613-2.755zM296.931 31.849h-1.867l-.293-6.802h2.454l-.294 6.802zm-2.229 2.119c0-.338.121-.613.362-.827.247-.22.552-.328.916-.328.365 0 .668.109.91.328.246.214.369.49.369.827 0 .337-.123.615-.369.834-.242.214-.545.321-.91.321-.364 0-.669-.107-.916-.321a1.077 1.077 0 01-.362-.834z"/><rect width="53.829" height="13.693" fill="#FFD43B" rx="6.847" transform="matrix(1 0 0 -1 300 205.693)"/><rect width="34.055" height="2.724" fill="#141517" rx="1.362" transform="matrix(1 0 0 -1 310.197 200.13)"/><rect width="212" height="20" x="142" y="162" fill="#373A40" rx="2"/><rect width="85" height="4" x="148" y="170" fill="#5C5F66" rx="2"/><path fill="#fff" d="M144.434 155.008l1.308-2.696h1.094l-1.906 3.594V158h-.992v-2.094l-1.911-3.594h1.098l1.309 2.696zM146.926 155.848c0-.414.082-.787.246-1.118a1.78 1.78 0 01.691-.765c.297-.18.638-.27 1.024-.27.57 0 1.032.184 1.386.551.357.367.55.854.579 1.461l.003.223c0 .416-.08.789-.242 1.117a1.766 1.766 0 01-.687.762 1.96 1.96 0 01-1.031.269c-.597 0-1.075-.198-1.434-.594-.357-.398-.535-.928-.535-1.589v-.047zm.949.082c0 .435.09.776.27 1.023.179.245.429.367.75.367.32 0 .569-.125.746-.375.179-.25.269-.616.269-1.097 0-.427-.092-.766-.277-1.016a.874.874 0 00-.746-.375.873.873 0 00-.739.371c-.182.245-.273.612-.273 1.102zM154.219 157.586c-.279.328-.675.492-1.188.492-.458 0-.806-.134-1.043-.402-.234-.268-.351-.656-.351-1.164v-2.739h.949v2.727c0 .536.223.805.668.805.461 0 .772-.166.934-.496v-3.036h.949V158h-.895l-.023-.414zM158.316 154.641a2.329 2.329 0 00-.386-.032c-.435 0-.728.167-.879.5V158h-.949v-4.227h.906l.023.473c.229-.367.547-.551.953-.551.136 0 .248.019.336.055l-.004.891zM162.77 158.078c-.602 0-1.09-.189-1.465-.566-.373-.38-.559-.886-.559-1.516v-.117c0-.422.081-.798.242-1.129.164-.333.394-.592.688-.777a1.81 1.81 0 01.984-.278c.576 0 1.02.184 1.332.551.315.367.473.887.473 1.559v.383h-2.762c.029.348.145.624.348.828.206.203.463.304.773.304.435 0 .789-.175 1.063-.527l.511.488a1.716 1.716 0 01-.679.59 2.126 2.126 0 01-.949.207zm-.114-3.621a.808.808 0 00-.633.273c-.158.183-.26.437-.304.762h1.808v-.07c-.02-.318-.105-.557-.254-.719-.148-.164-.354-.246-.617-.246zM166.098 153.773l.027.442c.297-.347.703-.52 1.219-.52.565 0 .952.216 1.16.649.307-.433.739-.649 1.297-.649.466 0 .812.129 1.039.387.229.258.346.638.351 1.141V158h-.949v-2.75c0-.268-.058-.465-.176-.59-.117-.125-.311-.187-.582-.187a.792.792 0 00-.531.175.918.918 0 00-.285.454l.004 2.898h-.949v-2.781c-.013-.498-.267-.746-.762-.746-.38 0-.65.155-.809.465V158h-.949v-4.227h.895zM174.691 158a1.483 1.483 0 01-.109-.395 1.474 1.474 0 01-1.109.473c-.425 0-.771-.121-1.039-.363a1.16 1.16 0 01-.403-.899c0-.45.167-.795.5-1.035.336-.242.815-.363 1.438-.363h.582v-.277c0-.219-.061-.394-.184-.524-.122-.133-.308-.199-.558-.199a.832.832 0 00-.532.164.497.497 0 00-.207.41h-.949c0-.232.077-.448.231-.648.153-.203.362-.362.625-.477.265-.114.561-.172.886-.172.495 0 .89.125 1.184.375.294.248.445.597.453 1.047v1.906c0 .381.053.684.16.911V158h-.969zm-1.043-.684c.188 0 .364-.045.528-.136a.917.917 0 00.375-.368v-.796h-.512c-.351 0-.616.061-.793.183a.597.597 0 00-.266.52c0 .182.06.328.18.437.123.107.285.16.488.16zM177.504 158h-.949v-4.227h.949V158zm-1.008-5.324c0-.146.046-.267.137-.364.094-.096.226-.144.398-.144.172 0 .305.048.399.144.093.097.14.218.14.364a.496.496 0 01-.14.359c-.094.094-.227.141-.399.141-.172 0-.304-.047-.398-.141a.502.502 0 01-.137-.359zM179.551 158h-.949v-6h.949v6z"/><rect width="212" height="20" x="142" y="122" fill="#373A40" rx="2"/><rect width="85" height="4" x="148" y="130" fill="#5C5F66" rx="2"/><path fill="#fff" d="M144.434 115.008l1.308-2.696h1.094l-1.906 3.594V118h-.992v-2.094l-1.911-3.594h1.098l1.309 2.696zM146.926 115.848c0-.414.082-.787.246-1.118a1.78 1.78 0 01.691-.765c.297-.18.638-.27 1.024-.27.57 0 1.032.184 1.386.551.357.367.55.854.579 1.461l.003.223c0 .416-.08.789-.242 1.117a1.766 1.766 0 01-.687.762 1.96 1.96 0 01-1.031.269c-.597 0-1.075-.198-1.434-.594-.357-.398-.535-.928-.535-1.589v-.047zm.949.082c0 .435.09.776.27 1.023.179.245.429.367.75.367.32 0 .569-.125.746-.375.179-.25.269-.616.269-1.097 0-.427-.092-.766-.277-1.016a.874.874 0 00-.746-.375.873.873 0 00-.739.371c-.182.245-.273.612-.273 1.102zM154.219 117.586c-.279.328-.675.492-1.188.492-.458 0-.806-.134-1.043-.402-.234-.268-.351-.656-.351-1.164v-2.739h.949v2.727c0 .536.223.805.668.805.461 0 .772-.166.934-.496v-3.036h.949V118h-.895l-.023-.414zM158.316 114.641a2.329 2.329 0 00-.386-.032c-.435 0-.728.167-.879.5V118h-.949v-4.227h.906l.023.473c.229-.367.547-.551.953-.551.136 0 .248.019.336.055l-.004.891zM164.609 115.93c0 .653-.148 1.175-.445 1.566-.297.388-.695.582-1.195.582-.464 0-.835-.152-1.114-.457v2.004h-.949v-5.852h.875l.039.43c.279-.338.658-.508 1.137-.508.516 0 .919.193 1.211.578.294.383.441.916.441 1.598v.059zm-.945-.082c0-.422-.085-.757-.254-1.004-.167-.248-.406-.371-.719-.371-.388 0-.666.16-.836.48v1.875c.172.328.454.492.844.492a.814.814 0 00.707-.363c.172-.245.258-.615.258-1.109zM167.941 118a1.483 1.483 0 01-.109-.395 1.474 1.474 0 01-1.109.473c-.425 0-.771-.121-1.039-.363a1.16 1.16 0 01-.403-.899c0-.45.167-.795.5-1.035.336-.242.815-.363 1.438-.363h.582v-.277c0-.219-.061-.394-.184-.524-.122-.133-.308-.199-.558-.199a.832.832 0 00-.532.164.497.497 0 00-.207.41h-.949c0-.232.077-.448.231-.648.153-.203.362-.362.625-.477.265-.114.561-.172.886-.172.495 0 .89.125 1.184.375.294.248.445.597.453 1.047v1.906c0 .381.053.684.16.911V118h-.969zm-1.043-.684c.188 0 .364-.045.528-.136a.917.917 0 00.375-.368v-.796h-.512c-.351 0-.616.061-.793.183a.597.597 0 00-.266.52c0 .182.06.328.18.437.123.107.285.16.488.16zM172.113 116.852c0-.17-.07-.299-.211-.387-.138-.089-.368-.167-.691-.235a3.54 3.54 0 01-.809-.257c-.474-.23-.711-.562-.711-.996 0-.365.154-.67.461-.915.308-.244.698-.367 1.172-.367.505 0 .913.125 1.223.375.312.25.469.575.469.973h-.95a.578.578 0 00-.203-.453c-.135-.123-.315-.184-.539-.184a.848.848 0 00-.512.145.457.457 0 00-.195.387c0 .145.061.259.184.339.122.081.37.163.742.246.372.081.664.179.875.293.214.112.371.248.473.407.104.159.156.351.156.578 0 .38-.158.689-.473.926-.315.234-.728.351-1.238.351-.346 0-.655-.062-.926-.187a1.522 1.522 0 01-.633-.516 1.22 1.22 0 01-.226-.707h.922a.674.674 0 00.254.52c.156.119.363.179.621.179.25 0 .44-.047.57-.14a.448.448 0 00.195-.375zM176.246 116.852c0-.17-.07-.299-.211-.387-.138-.089-.368-.167-.691-.235a3.54 3.54 0 01-.809-.257c-.474-.23-.711-.562-.711-.996 0-.365.154-.67.461-.915.307-.244.698-.367 1.172-.367.505 0 .913.125 1.223.375.312.25.468.575.468.973h-.949a.578.578 0 00-.203-.453c-.135-.123-.315-.184-.539-.184a.848.848 0 00-.512.145.457.457 0 00-.195.387c0 .145.061.259.184.339.122.081.369.163.742.246.372.081.664.179.875.293.213.112.371.248.472.407.105.159.157.351.157.578 0 .38-.158.689-.473.926-.315.234-.728.351-1.238.351-.347 0-.655-.062-.926-.187a1.522 1.522 0 01-.633-.516 1.22 1.22 0 01-.226-.707h.921a.678.678 0 00.254.52c.157.119.364.179.621.179.25 0 .441-.047.571-.14a.448.448 0 00.195-.375zM181.723 116.691l.672-2.918h.925L182.168 118h-.781l-.907-2.902-.89 2.902h-.781l-1.157-4.227h.926l.684 2.887.867-2.887h.715l.879 2.918zM183.777 115.848c0-.414.082-.787.246-1.118.165-.333.395-.588.692-.765.297-.18.638-.27 1.023-.27.571 0 1.033.184 1.387.551.357.367.549.854.578 1.461l.004.223c0 .416-.081.789-.242 1.117a1.762 1.762 0 01-.688.762c-.297.179-.64.269-1.031.269-.596 0-1.074-.198-1.434-.594-.356-.398-.535-.928-.535-1.589v-.047zm.95.082c0 .435.089.776.269 1.023.18.245.43.367.75.367s.569-.125.746-.375c.18-.25.27-.616.27-1.097 0-.427-.093-.766-.278-1.016a.874.874 0 00-.746-.375.87.87 0 00-.738.371c-.182.245-.273.612-.273 1.102zM190.723 114.641a2.332 2.332 0 00-.387-.032c-.435 0-.728.167-.879.5V118h-.949v-4.227h.906l.024.473c.229-.367.546-.551.953-.551a.9.9 0 01.336.055l-.004.891zM191.066 115.855c0-.651.151-1.173.454-1.566a1.45 1.45 0 011.214-.594c.448 0 .81.157 1.086.469V112h.95v6h-.86l-.047-.438c-.284.344-.662.516-1.136.516a1.45 1.45 0 01-1.204-.598c-.304-.398-.457-.94-.457-1.625zm.95.083c0 .429.082.765.246 1.007a.81.81 0 00.707.36c.388 0 .672-.173.851-.52v-1.805c-.174-.338-.455-.507-.843-.507a.807.807 0 00-.711.367c-.167.242-.25.608-.25 1.098z"/><rect width="102" height="18" x="142" y="81" fill="#373A40" rx="9"/><rect width="69" height="4" x="167" y="88" fill="#5C5F66" rx="2"/><path fill="#4285F4" d="M156.995 90.093c0-.41-.034-.708-.107-1.018H152.1v1.849h2.81c-.057.46-.363 1.151-1.043 1.616l-.009.062 1.514 1.146.105.01c.963-.869 1.518-2.148 1.518-3.665z"/><path fill="#34A853" d="M152.1 94.966c1.376 0 2.532-.443 3.377-1.207l-1.61-1.218c-.43.293-1.008.498-1.767.498a3.064 3.064 0 01-2.902-2.07l-.059.004-1.574 1.19-.021.056a5.11 5.11 0 004.556 2.747z"/><path fill="#FBBC05" d="M149.198 90.968a3.021 3.021 0 01-.169-.985c0-.344.062-.676.164-.986l-.003-.066-1.594-1.21-.052.025a4.89 4.89 0 00-.544 2.237c0 .802.198 1.56.544 2.236l1.654-1.25z"/><path fill="#EB4335" d="M152.1 86.927c.957 0 1.603.404 1.971.742l1.44-1.373c-.884-.803-2.035-1.296-3.411-1.296a5.11 5.11 0 00-4.556 2.746l1.649 1.251a3.075 3.075 0 012.907-2.07z"/><rect width="102" height="18" x="252" y="81" fill="#373A40" rx="9"/><rect width="69" height="4" x="277" y="88" fill="#5C5F66" rx="2"/><path fill="#55ACEE" d="M268 86.974c-.405.16-.84.268-1.296.317.466-.25.824-.643.992-1.112-.436.23-.919.397-1.433.487a2.39 2.39 0 00-1.647-.635c-1.247 0-2.257.9-2.257 2.01 0 .158.02.312.058.459-1.875-.084-3.538-.884-4.651-2.1a1.84 1.84 0 00-.306 1.01c0 .698.399 1.313 1.004 1.674a2.46 2.46 0 01-1.022-.252v.025c0 .974.778 1.787 1.81 1.972a2.516 2.516 0 01-1.019.034c.287.799 1.121 1.38 2.108 1.396a4.89 4.89 0 01-2.803.86c-.182 0-.361-.009-.538-.027.999.57 2.185.903 3.459.903 4.151 0 6.421-3.063 6.421-5.72a5.61 5.61 0 00-.006-.26 4.35 4.35 0 001.126-1.04z"/></svg>
