<svg xmlns="http://www.w3.org/2000/svg" fill="none" viewBox="0 0 500 250"><rect width="169" height="186" x="64.5" y="32.5" fill="#141517" stroke="#25262B" rx="4.5"/><rect width="107.698" height="6" x="74" y="165" fill="#3B3D42" rx="3"/><rect width="47" height="6" x="74" y="192" fill="#3B3D42" rx="3"/><rect width="149" height="6" x="74" y="154" fill="#3B3D42" rx="3"/><rect width="149" height="6" x="74" y="143" fill="#3B3D42" rx="3"/><rect width="47" height="19.95" x="176" y="185.025" fill="#FFD43B" rx="9.975"/><rect width="29.735" height="3.968" x="184.904" y="193.13" fill="#141517" rx="1.984"/><path fill="#25262B" d="M65 37a4 4 0 014-4h160a4 4 0 014 4v88H65V37z"/><path fill="#373A40" fill-rule="evenodd" d="M127.4 51h42.667a6.4 6.4 0 016.4 6.4v42.667a6.4 6.4 0 01-6.4 6.4H127.4a6.4 6.4 0 01-6.4-6.4V57.4a6.4 6.4 0 016.4-6.4zm0 4.267a2.133 2.133 0 00-2.133 2.133v25.018l7.175-7.176a1.921 1.921 0 012.762.048l15.123 16.201 11.982-11.982a1.92 1.92 0 012.715 0l7.176 7.176V57.4a2.133 2.133 0 00-2.133-2.133H127.4zm-2.133 44.8V87.849l8.486-8.486 15.113 16.19 6.016 6.647H127.4a2.133 2.133 0 01-2.133-2.133zm44.8 2.133h-10.006l-7.132-7.88 10.738-10.738 8.533 8.533v7.952a2.133 2.133 0 01-2.133 2.133zm-24.964-32a3.63 3.63 0 117.261.001 3.63 3.63 0 01-7.261-.001zm3.63-7.47a7.47 7.47 0 100 14.94 7.47 7.47 0 000-14.94z" clip-rule="evenodd"/><rect width="169" height="186" x="265.5" y="31.5" fill="#141517" stroke="#25262B" rx="4.5"/><rect width="107.698" height="6" x="275" y="164" fill="#3B3D42" rx="3"/><rect width="149" height="6" x="275" y="153" fill="#3B3D42" rx="3"/><rect width="149" height="6" x="275" y="142" fill="#3B3D42" rx="3"/><rect width="42" height="19.95" x="382" y="184.025" fill="#FFD43B" rx="9.975"/><rect width="26.571" height="3.968" x="389.957" y="192.13" fill="#141517" rx="1.984"/><rect width="44" height="19.95" x="334" y="184" fill="#2C2E33" rx="9.975"/><rect width="27.837" height="3.968" x="342.335" y="192.105" fill="#141517" rx="1.984"/><path fill="#25262B" d="M266 36a4 4 0 014-4h160a4 4 0 014 4v88H266V36z"/><path fill="#373A40" fill-rule="evenodd" d="M338.328 59.787c3.7-.313 7.665-.52 11.672-.52 4.007 0 7.972.207 11.671.52 4.455.377 7.338.632 9.543 1.152 2.007.474 3.126 1.1 4.09 2.086.105.108.254.27.353.384.85.984 1.409 2.21 1.726 4.531.341 2.487.35 5.733.35 10.633 0 4.844-.009 8.044-.349 10.498-.317 2.284-.872 3.502-1.731 4.494a9.496 9.496 0 01-.353.384c-.976.998-2.087 1.617-4.044 2.081-2.162.512-4.982.759-9.361 1.123-3.705.31-7.732.514-11.895.514-4.163 0-8.19-.205-11.895-.514-4.379-.364-7.199-.61-9.361-1.123-1.957-.464-3.068-1.083-4.044-2.08a9.496 9.496 0 01-.353-.385c-.859-.992-1.414-2.21-1.731-4.494-.34-2.454-.349-5.654-.349-10.498 0-4.9.009-8.146.35-10.633.318-2.322.876-3.547 1.726-4.53.099-.115.248-.277.353-.385.964-.986 2.083-1.612 4.09-2.086 2.205-.52 5.088-.775 9.542-1.152zM318 78.573c0-9.566 0-14.349 3.115-17.953.155-.18.363-.406.529-.577 3.329-3.407 7.661-3.774 16.325-4.507C341.762 55.214 345.85 55 350 55s8.238.215 12.032.536c8.663.733 12.995 1.1 16.324 4.507.166.17.374.397.529.577C382 64.224 382 69.007 382 78.573c0 9.452 0 14.177-3.12 17.783a13.25 13.25 0 01-.531.577c-3.334 3.408-7.59 3.763-16.1 4.473-3.802.316-7.949.527-12.249.527-4.3 0-8.447-.211-12.249-.527-8.511-.71-12.766-1.065-16.101-4.473a13.888 13.888 0 01-.53-.577C318 92.75 318 88.025 318 78.573zm22.4-9.14c0-.77.79-1.286 1.495-.977l20.598 9.034c.851.373.851 1.58 0 1.954l-20.598 9.034a1.067 1.067 0 01-1.495-.977V69.433z" clip-rule="evenodd"/></svg>
