<svg xmlns="http://www.w3.org/2000/svg" fill="none" viewBox="0 0 500 250"><path fill="#fff" d="M165.021 31.035h-3.87V35h-2.399v-9.953h6.658v1.852h-4.259v2.29h3.87v1.846zM170.599 29.689l-.759-.055c-.725 0-1.19.228-1.395.683V35h-2.303v-7.396h2.16l.075.95c.387-.725.927-1.087 1.62-1.087.246 0 .46.027.643.082l-.041 2.14zM174.871 35.137c-1.135 0-2.053-.337-2.755-1.012-.702-.679-1.053-1.56-1.053-2.645v-.192c0-.756.139-1.424.417-2.003a3.079 3.079 0 011.231-1.34c.538-.319 1.176-.478 1.914-.478 1.039 0 1.859.323 2.461.97.602.643.902 1.54.902 2.694v.895h-4.58c.082.415.262.74.54.978.278.237.638.355 1.08.355.729 0 1.299-.255 1.709-.765l1.053 1.244c-.287.396-.695.713-1.224.95a4.133 4.133 0 01-1.695.349zm-.26-5.893c-.674 0-1.075.447-1.203 1.34h2.324v-.178c.01-.369-.084-.654-.28-.854-.196-.205-.476-.308-.841-.308zM178.631 31.227c0-1.176.255-2.097.765-2.762.511-.666 1.215-.998 2.113-.998.756 0 1.362.31 1.818.93l.164-.793h1.996v10.24h-2.31v-3.46c-.442.502-1.003.753-1.682.753-.875 0-1.572-.337-2.092-1.012-.515-.679-.772-1.645-.772-2.898zm2.304.143c0 1.326.382 1.99 1.148 1.99.529 0 .893-.201 1.094-.602v-2.926c-.192-.392-.552-.588-1.08-.588-.716 0-1.101.572-1.156 1.716l-.006.41zM191.202 34.2c-.487.624-1.146.937-1.975.937-.812 0-1.427-.235-1.846-.704-.415-.474-.622-1.153-.622-2.038v-4.792h2.303v4.806c0 .634.308.95.923.95.529 0 .905-.189 1.128-.567v-5.189h2.318V35h-2.16l-.069-.8zM198.277 35.137c-1.134 0-2.053-.337-2.755-1.012-.701-.679-1.052-1.56-1.052-2.645v-.192c0-.756.139-1.424.417-2.003a3.07 3.07 0 011.23-1.34c.538-.319 1.176-.478 1.914-.478 1.039 0 1.86.323 2.461.97.602.643.903 1.54.903 2.694v.895h-4.581c.082.415.262.74.54.978.278.237.639.355 1.081.355.729 0 1.298-.255 1.709-.765l1.052 1.244c-.287.396-.695.713-1.223.95a4.138 4.138 0 01-1.696.349zm-.259-5.893c-.675 0-1.076.447-1.204 1.34h2.325v-.178c.009-.369-.085-.654-.281-.854-.196-.205-.476-.308-.84-.308zM204.443 27.604l.076.868c.51-.67 1.214-1.005 2.112-1.005.77 0 1.344.23 1.723.69.382.46.581 1.153.594 2.078V35h-2.31v-4.669c0-.374-.076-.647-.226-.82-.15-.178-.424-.267-.82-.267-.451 0-.786.178-1.005.533V35h-2.304v-7.396h2.16zM212.913 25.765v1.838h1.217v1.6h-1.217v3.384c0 .278.05.472.15.581.101.11.299.164.595.164.228 0 .419-.014.574-.041v1.648a4.246 4.246 0 01-1.298.198c-.793 0-1.379-.187-1.757-.56-.378-.374-.568-.942-.568-1.703v-3.67h-.943v-1.6h.943v-1.84h2.304zM217.473 35h-2.311V24.5h2.311V35zM221.854 31.773l1.231-4.17h2.468l-3.015 8.634-.13.315c-.428.957-1.185 1.435-2.269 1.435-.301 0-.618-.045-.951-.136v-1.648h.301c.324 0 .57-.048.739-.143.173-.092.3-.258.382-.5l.185-.492-2.57-7.464h2.461l1.168 4.17zM235.403 33.14h-3.288l-.574 1.86h-2.563l3.65-9.953h2.256L238.562 35h-2.578l-.581-1.86zm-2.714-1.852h2.14l-1.073-3.452-1.067 3.452zM243.06 32.922c0-.196-.103-.353-.308-.472-.205-.118-.595-.241-1.169-.369-.574-.128-1.048-.294-1.422-.499-.374-.21-.658-.463-.854-.759a1.803 1.803 0 01-.294-1.018c0-.68.28-1.238.841-1.675.56-.442 1.294-.663 2.201-.663.975 0 1.759.22 2.351.663.593.442.889 1.023.889 1.743h-2.311c0-.592-.312-.889-.936-.889a.92.92 0 00-.609.205.615.615 0 00-.246.5c0 .205.101.37.301.498.201.128.52.233.957.315.442.082.83.18 1.162.294 1.112.383 1.668 1.069 1.668 2.057 0 .675-.301 1.224-.902 1.648-.597.424-1.372.636-2.324.636-.634 0-1.199-.114-1.696-.342-.496-.228-.884-.538-1.162-.93-.278-.392-.417-.804-.417-1.237h2.154c.009.342.123.592.341.752.219.155.499.232.841.232.315 0 .549-.064.704-.191a.608.608 0 00.24-.5zM249.335 32.245l-.649.65V35h-2.304V24.493h2.304v5.578l.232-.307 1.736-2.16h2.762l-2.591 3.041L253.587 35h-2.639l-1.613-2.755zM257.463 35.137c-1.135 0-2.053-.337-2.755-1.012-.702-.679-1.053-1.56-1.053-2.645v-.192c0-.756.139-1.424.417-2.003a3.079 3.079 0 011.231-1.34c.537-.319 1.176-.478 1.914-.478 1.039 0 1.859.323 2.461.97.601.643.902 1.54.902 2.694v.895H256c.082.415.262.74.54.978.278.237.638.355 1.08.355.729 0 1.299-.255 1.709-.765l1.053 1.244c-.287.396-.695.713-1.224.95a4.133 4.133 0 01-1.695.349zm-.26-5.893c-.674 0-1.075.447-1.203 1.34h2.324v-.178c.009-.369-.084-.654-.28-.854-.196-.205-.476-.308-.841-.308zM261.223 31.247c0-1.171.253-2.094.758-2.768.506-.675 1.213-1.012 2.12-1.012.66 0 1.216.26 1.668.78V24.5h2.31V35h-2.071l-.116-.793c-.474.62-1.076.93-1.805.93-.88 0-1.577-.337-2.092-1.012-.515-.675-.772-1.634-.772-2.878zm2.303.144c0 1.312.383 1.968 1.149 1.968.51 0 .875-.214 1.094-.642V29.9c-.21-.437-.57-.656-1.081-.656-.71 0-1.096.574-1.155 1.723l-.007.424zM281.423 30.229c0 .92-.153 1.724-.458 2.413-.305.683-.727 1.232-1.265 1.647l1.607 1.271-1.484 1.258-2.139-1.722a4.46 4.46 0 01-.602.04c-.848 0-1.6-.195-2.256-.587-.656-.392-1.169-.953-1.538-1.682-.364-.729-.554-1.567-.567-2.515v-.527c0-.98.177-1.841.533-2.584.36-.743.87-1.317 1.531-1.722.666-.406 1.427-.609 2.283-.609.843 0 1.595.2 2.256.602.661.4 1.174.973 1.538 1.715.369.739.556 1.587.561 2.543v.459zm-2.441-.418c0-.988-.166-1.738-.499-2.248-.328-.515-.799-.773-1.415-.773-.633 0-1.109.253-1.428.759-.319.506-.481 1.246-.486 2.221v.459c0 .98.162 1.731.486 2.255.323.52.804.78 1.442.78.611 0 1.078-.258 1.401-.773.329-.515.495-1.255.499-2.221v-.459zM286.946 34.2c-.487.624-1.146.937-1.975.937-.811 0-1.427-.235-1.846-.704-.415-.474-.622-1.153-.622-2.038v-4.792h2.304v4.806c0 .634.307.95.922.95.529 0 .905-.189 1.128-.567v-5.189h2.318V35h-2.16l-.069-.8zM294.021 35.137c-1.134 0-2.053-.337-2.754-1.012-.702-.679-1.053-1.56-1.053-2.645v-.192c0-.756.139-1.424.417-2.003a3.077 3.077 0 011.23-1.34c.538-.319 1.176-.478 1.914-.478 1.039 0 1.86.323 2.461.97.602.643.903 1.54.903 2.694v.895h-4.58c.082.415.262.74.54.978.278.237.638.355 1.08.355.729 0 1.299-.255 1.709-.765l1.052 1.244c-.287.396-.695.713-1.223.95a4.135 4.135 0 01-1.696.349zm-.259-5.893c-.675 0-1.076.447-1.203 1.34h2.324v-.178c.009-.369-.084-.654-.28-.854-.196-.205-.477-.308-.841-.308zM301.944 32.922c0-.196-.102-.353-.307-.472-.205-.118-.595-.241-1.169-.369-.574-.128-1.048-.294-1.422-.499-.374-.21-.659-.463-.855-.759a1.803 1.803 0 01-.294-1.018c0-.68.281-1.238.841-1.675.561-.442 1.295-.663 2.201-.663.976 0 1.76.22 2.352.663.592.442.889 1.023.889 1.743h-2.311c0-.592-.312-.889-.936-.889a.919.919 0 00-.609.205.615.615 0 00-.246.5c0 .205.1.37.301.498.2.128.519.233.957.315.442.082.829.18 1.162.294 1.112.383 1.668 1.069 1.668 2.057 0 .675-.301 1.224-.902 1.648-.597.424-1.372.636-2.325.636-.633 0-1.198-.114-1.695-.342-.497-.228-.884-.538-1.162-.93-.278-.392-.417-.804-.417-1.237h2.153c.009.342.123.592.342.752.219.155.499.232.841.232.314 0 .549-.064.704-.191a.607.607 0 00.239-.5zM307.933 25.765v1.838h1.216v1.6h-1.216v3.384c0 .278.05.472.15.581.1.11.299.164.595.164.228 0 .419-.014.574-.041v1.648a4.257 4.257 0 01-1.299.198c-.793 0-1.378-.187-1.757-.56-.378-.374-.567-.942-.567-1.703v-3.67h-.943v-1.6h.943v-1.84h2.304zM312.492 35h-2.31v-7.396h2.31V35zm-2.447-9.304c0-.328.118-.597.355-.806.237-.21.545-.315.923-.315s.686.105.923.315c.237.21.356.478.356.806 0 .328-.119.597-.356.807-.237.21-.545.314-.923.314s-.686-.104-.923-.314a1.028 1.028 0 01-.355-.807zM313.627 31.233c0-.738.144-1.394.431-1.968a3.074 3.074 0 011.237-1.333c.538-.31 1.169-.465 1.893-.465 1.108 0 1.981.344 2.619 1.032.638.684.957 1.616.957 2.796v.082c0 1.153-.322 2.069-.964 2.748-.638.675-1.504 1.012-2.598 1.012-1.053 0-1.898-.315-2.536-.944-.638-.633-.982-1.49-1.032-2.57l-.007-.39zm2.304.144c0 .683.107 1.185.321 1.504.214.319.531.478.95.478.82 0 1.24-.63 1.258-1.893v-.233c0-1.326-.424-1.989-1.272-1.989-.77 0-1.187.572-1.25 1.716l-.007.417zM323.895 27.604l.075.868c.51-.67 1.214-1.005 2.112-1.005.77 0 1.344.23 1.723.69.383.46.581 1.153.594 2.078V35h-2.31v-4.669c0-.374-.075-.647-.226-.82-.15-.178-.424-.267-.82-.267-.451 0-.786.178-1.005.533V35h-2.304v-7.396h2.161zM333.554 32.922c0-.196-.103-.353-.308-.472-.205-.118-.595-.241-1.169-.369-.574-.128-1.048-.294-1.422-.499-.373-.21-.658-.463-.854-.759a1.803 1.803 0 01-.294-1.018c0-.68.28-1.238.841-1.675.56-.442 1.294-.663 2.201-.663.975 0 1.759.22 2.351.663.593.442.889 1.023.889 1.743h-2.31c0-.592-.313-.889-.937-.889a.916.916 0 00-.608.205.615.615 0 00-.246.5c0 .205.1.37.3.498.201.128.52.233.957.315.442.082.83.18 1.162.294 1.112.383 1.668 1.069 1.668 2.057 0 .675-.3 1.224-.902 1.648-.597.424-1.372.636-2.324.636-.634 0-1.199-.114-1.695-.342-.497-.228-.885-.538-1.163-.93s-.417-.804-.417-1.237h2.154c.009.342.123.592.342.752.218.155.499.232.84.232.315 0 .55-.064.704-.191a.608.608 0 00.24-.5z"/><rect width="371" height="72" x="64" y="65" fill="#373A40" rx="6"/><rect width="53.829" height="13.693" fill="#FFD43B" rx="6.847" transform="matrix(1 0 0 -1 73 130.693)"/><rect width="34.055" height="2.724" fill="#141517" rx="1.362" transform="matrix(1 0 0 -1 83.198 125.13)"/><rect width="313" height="4" x="73" y="94" fill="#5C5F66" rx="2"/><rect width="186" height="4" x="73" y="102" fill="#5C5F66" rx="2"/><path fill="#9D9FA4" fill-rule="evenodd" d="M427.962 73.245a.499.499 0 10-.707-.707l-3.005 3.005-3.005-3.005a.5.5 0 10-.707.707l3.005 3.005-3.005 3.005a.5.5 0 00.707.707l3.005-3.005 3.005 3.005a.5.5 0 00.707-.707l-3.005-3.005 3.005-3.005z" clip-rule="evenodd"/><rect width="218" height="4" x="73" y="74" fill="#5C5F66" rx="2"/><rect width="371" height="24" x="64" y="144" fill="#373A40" rx="6"/><rect width="301" height="4" x="71" y="154" fill="#5C5F66" rx="2"/><path fill="#9D9FA4" fill-rule="evenodd" d="M424.925 151.675a.5.5 0 10-1 0v4.25h-4.25a.499.499 0 100 1h4.25v4.25a.5.5 0 101 0v-4.25h4.25a.5.5 0 000-1h-4.25v-4.25z" clip-rule="evenodd"/><rect width="371" height="24" x="64" y="175" fill="#373A40" rx="6"/><rect width="220" height="4" x="71" y="185" fill="#5C5F66" rx="2"/><path fill="#9D9FA4" fill-rule="evenodd" d="M424.925 182.675a.5.5 0 10-1 0v4.25h-4.25a.499.499 0 100 1h4.25v4.25a.5.5 0 101 0v-4.25h4.25a.5.5 0 000-1h-4.25v-4.25z" clip-rule="evenodd"/><rect width="371" height="24" x="64" y="206" fill="#373A40" rx="6"/><rect width="261" height="4" x="71" y="216" fill="#5C5F66" rx="2"/><path fill="#9D9FA4" fill-rule="evenodd" d="M424.925 213.675a.5.5 0 10-1 0v4.25h-4.25a.499.499 0 100 1h4.25v4.25a.5.5 0 101 0v-4.25h4.25a.5.5 0 000-1h-4.25v-4.25z" clip-rule="evenodd"/></svg>
