<svg xmlns="http://www.w3.org/2000/svg" fill="none" viewBox="0 0 500 250"><rect width="368" height="34.473" x="66" y="47" fill="#fff" stroke="#E7ECF1" rx="4"/><rect width="134" height="6" x="78" y="62" fill="#F1F3F5" rx="3"/><path fill="#262626" d="M71.853 34.191H68.35v2.625h4.095V38h-5.578v-8.531h5.537v1.195H68.35v2.355h3.504v1.172zM74.853 31.66l.041.662c.446-.52 1.055-.779 1.829-.779.847 0 1.427.324 1.74.973.46-.649 1.11-.973 1.945-.973.7 0 1.219.193 1.559.58.344.387.52.957.527 1.711V38H81.07v-4.125c0-.402-.088-.697-.263-.885-.176-.187-.467-.281-.873-.281-.325 0-.59.088-.797.264a1.366 1.366 0 00-.428.68L78.715 38H77.29v-4.172c-.02-.746-.4-1.119-1.143-1.119-.57 0-.974.232-1.212.697V38h-1.424v-6.34h1.341zM87.744 38c-.062-.121-.117-.318-.164-.592a2.216 2.216 0 01-1.664.71c-.637 0-1.156-.183-1.559-.546a1.744 1.744 0 01-.603-1.347c0-.676.25-1.194.75-1.553.504-.363 1.223-.545 2.156-.545h.873v-.416c0-.328-.092-.59-.275-.785-.184-.2-.463-.299-.838-.299-.324 0-.59.082-.797.246a.745.745 0 00-.31.615h-1.424c0-.347.115-.672.345-.972.23-.305.543-.543.938-.715a3.324 3.324 0 011.33-.258c.742 0 1.334.188 1.775.563.442.37.668.894.68 1.57v2.86c0 .57.08 1.024.24 1.364v.1h-1.453zm-1.564-1.025c.28 0 .545-.069.79-.206.25-.136.438-.32.563-.55v-1.196h-.767c-.528 0-.924.092-1.19.276a.892.892 0 00-.398.78c0 .273.09.491.27.655.183.16.427.24.732.24zM91.963 38h-1.424v-6.34h1.424V38zm-1.512-7.986c0-.22.069-.4.205-.545.14-.145.34-.217.598-.217.258 0 .457.072.598.217a.75.75 0 01.21.545c0 .215-.07.394-.21.539-.141.14-.34.21-.598.21-.258 0-.457-.07-.598-.21a.754.754 0 01-.205-.54zM95.033 38H93.61v-9h1.424v9zM68.35 105.83V109h-1.483v-8.531h3.264c.953 0 1.709.248 2.267.744.563.496.844 1.152.844 1.969 0 .836-.275 1.486-.826 1.951-.547.465-1.314.697-2.303.697H68.35zm0-1.189h1.78c.528 0 .93-.123 1.208-.37.277-.25.416-.609.416-1.078 0-.461-.14-.828-.422-1.101-.281-.278-.668-.42-1.16-.428H68.35v2.977zM78.123 109c-.063-.121-.117-.318-.164-.592a2.215 2.215 0 01-1.664.709c-.637 0-1.156-.181-1.559-.545a1.742 1.742 0 01-.603-1.347c0-.676.25-1.194.75-1.553.504-.363 1.223-.545 2.156-.545h.873v-.416c0-.328-.092-.59-.275-.785-.184-.199-.463-.299-.838-.299-.324 0-.59.082-.797.246a.744.744 0 00-.31.615h-1.424c0-.347.115-.672.345-.972.23-.305.543-.543.938-.715a3.322 3.322 0 011.33-.258c.742 0 1.334.187 1.775.562.442.372.668.895.68 1.571v2.859c0 .57.08 1.026.24 1.365v.1h-1.453zm-1.564-1.025c.28 0 .544-.069.79-.205.25-.137.438-.321.563-.551v-1.196h-.768c-.527 0-.923.092-1.189.276a.89.89 0 00-.398.779c0 .274.09.492.27.656.183.161.427.241.732.241zM84.38 107.277a.644.644 0 00-.316-.58c-.207-.133-.552-.25-1.037-.351a5.38 5.38 0 01-1.213-.387c-.71-.344-1.066-.842-1.066-1.494 0-.547.23-1.004.691-1.371.461-.367 1.047-.551 1.758-.551.758 0 1.37.187 1.834.562.469.375.703.862.703 1.459h-1.423c0-.273-.102-.5-.305-.679-.203-.184-.473-.276-.809-.276-.312 0-.568.073-.767.217a.686.686 0 00-.293.58c0 .219.091.389.275.51.184.121.555.244 1.113.369.559.121.996.268 1.313.44.32.168.556.371.709.609.156.238.234.527.234.867 0 .57-.236 1.033-.709 1.389-.472.351-1.091.527-1.857.527-.52 0-.983-.094-1.389-.281a2.283 2.283 0 01-.949-.774 1.828 1.828 0 01-.34-1.06h1.383c.02.336.146.596.38.779.235.18.546.27.932.27.375 0 .66-.071.856-.211a.67.67 0 00.293-.563zM90.58 107.277a.644.644 0 00-.316-.58c-.207-.133-.553-.25-1.037-.351a5.38 5.38 0 01-1.213-.387c-.711-.344-1.067-.842-1.067-1.494 0-.547.23-1.004.692-1.371.46-.367 1.047-.551 1.758-.551.757 0 1.369.187 1.834.562.468.375.703.862.703 1.459H90.51c0-.273-.102-.5-.305-.679-.203-.184-.473-.276-.808-.276-.313 0-.569.073-.768.217a.686.686 0 00-.293.58c0 .219.092.389.275.51.184.121.555.244 1.114.369.558.121.996.268 1.312.44.32.168.557.371.71.609.155.238.234.527.234.867 0 .57-.237 1.033-.71 1.389-.472.351-1.091.527-1.857.527-.52 0-.982-.094-1.389-.281a2.283 2.283 0 01-.949-.774 1.828 1.828 0 01-.34-1.06h1.383c.02.336.147.596.381.779.234.18.545.27.932.27.375 0 .66-.071.855-.211a.67.67 0 00.293-.563zM98.795 107.037l1.008-4.377h1.388L99.463 109H98.29l-1.36-4.354L95.597 109h-1.172l-1.735-6.34h1.39l1.025 4.33 1.3-4.33h1.073l1.318 4.377zM101.877 105.771c0-.621.123-1.179.369-1.675.246-.5.592-.883 1.037-1.149.446-.269.957-.404 1.535-.404.856 0 1.549.275 2.08.826.536.551.825 1.281.868 2.192l.005.334c0 .625-.121 1.183-.363 1.675a2.643 2.643 0 01-1.031 1.143c-.445.269-.961.404-1.547.404-.894 0-1.611-.297-2.15-.89-.535-.598-.803-1.393-.803-2.385v-.071zm1.424.124c0 .652.135 1.164.404 1.535.27.367.645.55 1.125.55.481 0 .854-.187 1.119-.562.27-.375.405-.924.405-1.647 0-.64-.139-1.148-.416-1.523a1.313 1.313 0 00-1.12-.562c-.464 0-.834.185-1.107.556-.273.367-.41.918-.41 1.653zM112.295 103.961a3.556 3.556 0 00-.58-.047c-.653 0-1.092.25-1.319.75V109h-1.423v-6.34h1.359l.035.709c.344-.551.821-.826 1.43-.826.203 0 .371.027.504.082l-.006 1.336zM112.811 105.783c0-.976.226-1.76.679-2.349.453-.594 1.061-.891 1.822-.891.672 0 1.215.234 1.629.703V100h1.424v9h-1.289l-.07-.656c-.426.515-.994.773-1.705.773-.742 0-1.344-.299-1.805-.896-.457-.598-.685-1.41-.685-2.438zm1.423.123c0 .645.123 1.149.37 1.512.25.359.603.539 1.06.539.582 0 1.008-.26 1.277-.779v-2.707c-.261-.508-.683-.762-1.265-.762-.461 0-.817.184-1.067.551-.25.363-.375.912-.375 1.646z"/><rect width="368" height="34.473" x="66" y="118" fill="#fff" stroke="#E7ECF1" rx="4"/><rect width="97" height="6" x="78" y="133" fill="#F1F3F5" rx="3"/><rect width="126.689" height="32" x="307" y="187" fill="#15AABF" rx="16"/><rect width="80.15" height="6.365" x="331" y="200" fill="#fff" rx="3.183"/><rect width="80" height="6" x="66" y="200" fill="#E3E3E4" rx="3"/></svg>
