<svg xmlns="http://www.w3.org/2000/svg" fill="none" viewBox="0 0 500 250"><path fill="#373A40" d="M64 67c0-6.075 4.925-11 11-11h349c6.075 0 11 4.925 11 11v116c0 6.075-4.925 11-11 11H75c-6.075 0-11-4.925-11-11V67z"/><path fill="#5C5F66" fill-rule="evenodd" d="M104.462 84h63.076A9.462 9.462 0 01177 93.462v63.076a9.462 9.462 0 01-9.462 9.462h-63.076A9.462 9.462 0 0195 156.538V93.461A9.462 9.462 0 01104.462 84zm0 6.308a3.154 3.154 0 00-3.154 3.153v36.986l10.608-10.608a2.84 2.84 0 014.082.07l22.358 23.952 17.714-17.714a2.837 2.837 0 014.014 0l10.608 10.608V93.462a3.154 3.154 0 00-3.154-3.154h-63.076zm-3.154 66.23v-18.062l12.545-12.545 22.343 23.935 8.894 9.826h-40.628a3.154 3.154 0 01-3.154-3.154zm66.23 3.154h-14.791l-10.544-11.65 15.874-15.874 12.615 12.615v11.755a3.154 3.154 0 01-3.154 3.154zm-36.904-47.307a5.366 5.366 0 1110.733-.001 5.366 5.366 0 01-10.733.001zM136 101.341c-6.099 0-11.043 4.945-11.043 11.044s4.944 11.043 11.043 11.043c6.099 0 11.043-4.944 11.043-11.043 0-6.099-4.944-11.044-11.043-11.044z" clip-rule="evenodd"/><path fill="#fff" d="M211.9 95.77c-.369.41-.909.74-1.62.99-.711.251-1.49.377-2.338.377-1.303 0-2.344-.399-3.124-1.197-.779-.797-1.196-1.907-1.251-3.329l-.006-.861c0-.98.173-1.834.519-2.564.346-.733.841-1.296 1.483-1.688.648-.396 1.395-.595 2.243-.595 1.239 0 2.201.285 2.884.855.689.565 1.09 1.41 1.204 2.536h-2.311c-.082-.556-.26-.953-.533-1.19-.274-.236-.661-.355-1.162-.355-.602 0-1.067.255-1.395.766-.328.51-.494 1.24-.499 2.187v.602c0 .993.169 1.74.506 2.242.342.497.877.745 1.606.745.625 0 1.09-.139 1.395-.417v-1.545h-1.668v-1.647h4.067v4.087zM212.898 93.233c0-.738.144-1.394.431-1.968a3.08 3.08 0 011.237-1.333c.538-.31 1.169-.465 1.894-.465 1.107 0 1.98.344 2.618 1.032.638.684.957 1.616.957 2.796v.082c0 1.153-.321 2.069-.964 2.748-.638.674-1.504 1.012-2.597 1.012-1.053 0-1.898-.315-2.536-.944-.639-.633-.983-1.49-1.033-2.57l-.007-.39zm2.304.144c0 .684.107 1.185.321 1.504.215.319.531.478.951.478.82 0 1.239-.63 1.257-1.893v-.233c0-1.326-.423-1.989-1.271-1.989-.77 0-1.187.572-1.251 1.716l-.007.417zM220.76 93.233c0-.738.143-1.394.43-1.968.288-.58.7-1.023 1.238-1.333.537-.31 1.169-.465 1.893-.465 1.108 0 1.98.344 2.618 1.032.638.684.957 1.616.957 2.796v.082c0 1.153-.321 2.069-.963 2.748-.638.674-1.504 1.012-2.598 1.012-1.053 0-1.898-.315-2.536-.944-.638-.633-.982-1.49-1.032-2.57l-.007-.39zm2.303.144c0 .684.108 1.185.322 1.504.214.319.531.478.95.478.82 0 1.24-.63 1.258-1.893v-.233c0-1.326-.424-1.989-1.272-1.989-.77 0-1.187.572-1.251 1.716l-.007.417zM228.621 93.247c0-1.171.253-2.094.759-2.769.506-.674 1.212-1.011 2.119-1.011.661 0 1.217.26 1.668.78V86.5h2.311V97h-2.072l-.116-.793c-.474.62-1.075.93-1.805.93-.879 0-1.576-.338-2.091-1.012-.515-.674-.773-1.634-.773-2.878zm2.304.144c0 1.312.383 1.968 1.148 1.968.511 0 .875-.214 1.094-.642V91.9c-.21-.437-.57-.656-1.08-.656-.711 0-1.096.574-1.155 1.723l-.007.424zM240.659 94.922c0-.196-.102-.353-.307-.472-.206-.118-.595-.241-1.169-.369-.575-.127-1.049-.294-1.422-.499-.374-.21-.659-.462-.855-.759a1.803 1.803 0 01-.294-1.018c0-.68.281-1.238.841-1.675.561-.442 1.294-.663 2.201-.663.976 0 1.759.22 2.352.663.592.442.889 1.023.889 1.743h-2.311c0-.592-.312-.889-.937-.889a.918.918 0 00-.608.206.615.615 0 00-.246.499c0 .205.1.37.301.499.2.127.519.232.957.314.442.082.829.18 1.162.294 1.112.383 1.668 1.069 1.668 2.057 0 .675-.301 1.224-.902 1.648-.597.424-1.372.636-2.325.636-.633 0-1.198-.114-1.695-.342-.497-.228-.884-.538-1.162-.93-.278-.392-.417-.804-.417-1.237h2.153c.009.342.123.592.342.752.219.155.499.232.841.232.314 0 .549-.063.704-.191a.61.61 0 00.239-.5zM247.16 93.233c0-.738.144-1.394.431-1.968a3.074 3.074 0 011.237-1.333c.538-.31 1.169-.465 1.894-.465 1.107 0 1.98.344 2.618 1.032.638.684.957 1.616.957 2.796v.082c0 1.153-.321 2.069-.964 2.748-.638.674-1.504 1.012-2.598 1.012-1.052 0-1.898-.315-2.536-.944-.638-.633-.982-1.49-1.032-2.57l-.007-.39zm2.304.144c0 .684.107 1.185.321 1.504.214.319.531.478.95.478.821 0 1.24-.63 1.258-1.893v-.233c0-1.326-.424-1.989-1.271-1.989-.771 0-1.187.572-1.251 1.716l-.007.417zM257.428 89.603l.075.869c.51-.67 1.214-1.005 2.112-1.005.77 0 1.345.23 1.723.69.383.46.581 1.153.595 2.078V97h-2.311v-4.669c0-.374-.075-.647-.226-.82-.15-.178-.423-.267-.82-.267-.451 0-.786.178-1.005.533V97h-2.303v-7.397h2.16zM270.573 94.922c0-.196-.102-.353-.307-.472-.205-.118-.595-.241-1.169-.369-.575-.127-1.048-.294-1.422-.499-.374-.21-.659-.462-.855-.759a1.803 1.803 0 01-.294-1.018c0-.68.281-1.238.841-1.675.561-.442 1.294-.663 2.201-.663.976 0 1.759.22 2.352.663.592.442.889 1.023.889 1.743h-2.311c0-.592-.312-.889-.936-.889a.919.919 0 00-.609.206.615.615 0 00-.246.499c0 .205.1.37.301.499.2.127.519.232.957.314.442.082.829.18 1.162.294 1.112.383 1.668 1.069 1.668 2.057 0 .675-.301 1.224-.902 1.648-.597.424-1.372.636-2.325.636-.633 0-1.198-.114-1.695-.342-.497-.228-.884-.538-1.162-.93-.278-.392-.417-.804-.417-1.237h2.153c.009.342.123.592.342.752.219.155.499.232.841.232.314 0 .549-.063.704-.191a.61.61 0 00.239-.5zM278.045 97c-.082-.15-.155-.371-.219-.663-.424.533-1.016.8-1.777.8-.697 0-1.29-.21-1.778-.63a2.024 2.024 0 01-.731-1.592c0-.802.296-1.408.889-1.818.592-.41 1.453-.616 2.584-.616h.711v-.39c0-.678-.294-1.018-.882-1.018-.547 0-.821.27-.821.807h-2.303c0-.716.303-1.297.909-1.743.611-.447 1.388-.67 2.331-.67.943 0 1.688.23 2.235.69.547.46.828 1.092.841 1.894v3.274c.009.68.114 1.199.315 1.559V97h-2.304zm-1.442-1.504c.287 0 .524-.061.71-.184.192-.123.329-.263.411-.418v-1.182h-.67c-.802 0-1.203.36-1.203 1.08 0 .21.07.38.211.513a.778.778 0 00.541.191zM283.746 97h-2.31V86.5h2.31V97zM288.75 97.137c-1.135 0-2.053-.338-2.755-1.012-.702-.679-1.053-1.56-1.053-2.645v-.192c0-.756.139-1.424.417-2.003a3.079 3.079 0 011.231-1.34c.538-.319 1.176-.478 1.914-.478 1.039 0 1.859.323 2.461.97.601.643.902 1.54.902 2.694v.895h-4.58c.082.415.262.74.54.978.278.237.638.355 1.08.355.729 0 1.299-.255 1.709-.765l1.053 1.244c-.287.396-.695.713-1.224.95a4.133 4.133 0 01-1.695.349zm-.26-5.893c-.674 0-1.075.447-1.203 1.34h2.324v-.178c.009-.369-.084-.654-.28-.854-.196-.205-.476-.308-.841-.308zM295.087 93.849h-1.866l-.294-6.802h2.454l-.294 6.802zm-2.229 2.119c0-.338.121-.613.363-.827.246-.22.551-.329.916-.329.364 0 .667.11.909.329.246.214.369.49.369.827 0 .337-.123.615-.369.834-.242.214-.545.321-.909.321-.365 0-.67-.107-.916-.321a1.075 1.075 0 01-.363-.834z"/><path fill="#5C5F66" d="M203 115a2 2 0 012-2h190a2 2 0 110 4H205a2 2 0 01-2-2zM203 122a2 2 0 012-2h190a2 2 0 110 4H205a2 2 0 01-2-2zM203 129a2 2 0 012-2h103a2 2 0 110 4H205a2 2 0 01-2-2z"/><rect width="86.483" height="22" fill="#FFD43B" rx="11" transform="matrix(1 0 0 -1 203 166)"/><rect width="54.714" height="4.376" fill="#141517" rx="2.188" transform="matrix(1 0 0 -1 219.383 157.062)"/></svg>
