<svg xmlns="http://www.w3.org/2000/svg" fill="none" viewBox="0 0 500 250"><rect width="370" height="170" x="64.5" y="40.5" fill="#373A40" stroke="#575C67" stroke-dasharray="3 5" stroke-linecap="square" stroke-linejoin="round" rx="5.5"/><path fill="#5C5F66" d="M139 135a7 7 0 017-7h207a7 7 0 110 14H146a7 7 0 01-7-7zM153 155.5a2.5 2.5 0 012.5-2.5h188a2.5 2.5 0 110 5h-188a2.5 2.5 0 01-2.5-2.5zM153 165.5a2.5 2.5 0 012.5-2.5h188a2.5 2.5 0 110 5h-188a2.5 2.5 0 01-2.5-2.5zM194 175.5a2.5 2.5 0 012.5-2.5h106a2.5 2.5 0 110 5h-106a2.5 2.5 0 01-2.5-2.5z"/><path fill="#5C5F66" fill-rule="evenodd" d="M250.315 52.885a1.86 1.86 0 00-2.63 0l-12.4 12.4a1.86 1.86 0 002.63 2.63l9.225-9.224v28.575a1.86 1.86 0 003.72 0V58.691l9.225 9.225a1.86 1.86 0 102.63-2.63l-12.4-12.4zm-21.982 36.448c1.142 0 2.067.925 2.067 2.067v6.2a4.12 4.12 0 004.118 4.133h28.954A4.129 4.129 0 00267.6 97.6v-6.2a2.067 2.067 0 114.133 0v6.2c0 4.563-3.694 8.267-8.261 8.267h-28.954c-4.572 0-8.251-3.708-8.251-8.267v-6.2c0-1.142.925-2.067 2.066-2.067z" clip-rule="evenodd"/><rect width="203.517" height="22" fill="#FFD43B" rx="11" transform="matrix(1 0 0 -1 147.483 221)"/><rect width="128.756" height="4.376" fill="#141517" rx="2.188" transform="matrix(1 0 0 -1 186.037 212.062)"/></svg>
