<svg xmlns="http://www.w3.org/2000/svg" fill="none" viewBox="0 0 500 250"><g clip-path="url(#a)"><path fill="#fff" d="M64 0h371v32c0 7.18-5.82 13-13 13H77c-7.18 0-13-5.82-13-13V0z"/><path fill="#15AABF" d="M101.44 22.5c0-4.694-3.904-8.5-8.72-8.5-4.816 0-8.72 3.806-8.72 8.5s3.904 8.5 8.72 8.5c4.816 0 8.72-3.806 8.72-8.5z"/><path fill="#fff" d="M91.096 18.49a.637.637 0 00.138.904c1.016.734 1.599 1.856 1.599 3.079s-.583 2.345-1.599 3.079a.63.63 0 00-.138.904.66.66 0 00.31.223.682.682 0 00.619-.09c.313-.226.599-.484.854-.77h1.882c.366 0 .663-.29.663-.647a.655.655 0 00-.663-.646h-1.039c.29-.648.44-1.347.438-2.053a4.993 4.993 0 00-.438-2.054h1.04a.655.655 0 00.663-.646.655.655 0 00-.664-.646h-1.88a5.33 5.33 0 00-.856-.771.672.672 0 00-.492-.12.67.67 0 00-.436.254z"/><path fill="#fff" fill-rule="evenodd" d="M90.048 22.28a.948.948 0 01.28-.697.985.985 0 01.703-.291 1 1 0 01.704.29.947.947 0 01-.017 1.364.994.994 0 01-1.374 0 .956.956 0 01-.296-.666z" clip-rule="evenodd"/><path fill="#000" d="M115.375 27.208c.213 0 .411-.045.593-.136.182-.09.273-.222.273-.394v-8.083c0-.31-.089-.528-.266-.653a1.02 1.02 0 00-.6-.188c-.205 0-.383.022-.534.065a.882.882 0 00-.407.259c-.12.129-.26.319-.42.569l-1.64 2.897-1.627-2.897a2.711 2.711 0 00-.407-.57.97.97 0 00-.413-.258 1.943 1.943 0 00-.54-.065c-.213 0-.411.063-.594.188-.182.125-.273.343-.273.653v8.083c0 .172.091.304.273.394.183.09.381.136.594.136.222 0 .422-.045.6-.136.178-.09.267-.222.267-.394v-5.665l1.533 2.794a.657.657 0 00.574.336.731.731 0 00.32-.078.72.72 0 00.28-.258l1.547-2.69v5.56c0 .173.091.305.273.395.182.09.38.136.594.136zm3.696.117c.463 0 .856-.104 1.181-.31.324-.208.606-.445.846-.712v.375c0 .146.074.271.22.375a.94.94 0 00.554.155c.24 0 .44-.052.6-.155.16-.104.24-.229.24-.375v-3.169c0-.44-.096-.849-.287-1.228-.191-.38-.495-.69-.913-.931-.418-.242-.974-.363-1.667-.363-.311 0-.631.04-.96.117a2.754 2.754 0 00-.834.33c-.227.142-.34.304-.34.485 0 .19.051.375.153.556.103.18.247.271.434.271a.545.545 0 00.32-.103c.098-.07.238-.136.42-.2.182-.065.442-.098.78-.098.302 0 .536.06.7.181.165.121.285.272.36.453.075.177.113.366.114.556v.168h-.547c-.614 0-1.154.056-1.62.169-.467.112-.832.306-1.094.581-.262.276-.393.66-.393 1.151 0 .587.171 1.02.513 1.3.342.28.749.42 1.22.42zm.694-1.242a.765.765 0 01-.5-.168c-.138-.112-.207-.29-.207-.53 0-.242.082-.42.247-.537.164-.116.38-.192.646-.226.279-.036.56-.053.841-.052h.2v.271c0 .207-.065.406-.194.595a1.65 1.65 0 01-.473.466c-.187.12-.374.18-.56.18zm9.052 1.125c.222 0 .422-.045.6-.136.178-.09.266-.222.266-.394v-3.065c0-.483-.104-.923-.313-1.32a2.596 2.596 0 00-.833-.95 1.989 1.989 0 00-1.147-.355c-.445 0-.82.1-1.127.303-.307.203-.527.43-.66.68v-.389c0-.155-.074-.28-.22-.375a.975.975 0 00-.54-.142c-.249 0-.454.048-.614.142-.16.095-.24.22-.24.375v5.096c0 .13.08.25.24.362.16.112.365.168.614.168.24 0 .444-.056.613-.168.169-.112.254-.233.254-.362v-3.065c0-.242.053-.448.16-.62a1.128 1.128 0 01.933-.544c.213 0 .409.058.587.174.178.117.318.261.42.434.101.169.154.36.153.556v3.065c0 .172.094.304.28.394.187.09.378.136.574.136zm5.101 0c.249 0 .433-.073.553-.22a.74.74 0 000-.97c-.12-.146-.304-.22-.553-.22h-.52c-.276 0-.469-.051-.58-.155-.112-.103-.167-.28-.167-.53v-2.832h1.573a.36.36 0 00.327-.188.793.793 0 00.113-.42.793.793 0 00-.113-.42.36.36 0 00-.327-.188h-1.573v-2.224c0-.155-.091-.28-.274-.375a1.264 1.264 0 00-1.166 0c-.187.095-.28.22-.28.375v6.272c0 .724.211 1.254.633 1.59.422.337 1.033.505 1.834.505h.52zm2.481-7.514a.938.938 0 00.66-.252c.182-.168.273-.356.273-.563a.74.74 0 00-.273-.575.967.967 0 00-.66-.24c-.258 0-.48.08-.667.24a.732.732 0 00-.28.576c0 .206.093.394.28.562a.964.964 0 00.667.252zm0 7.514c.24 0 .444-.056.613-.168.169-.112.254-.233.254-.362v-5.096c0-.155-.085-.28-.254-.375a1.23 1.23 0 00-.613-.142c-.249 0-.453.048-.613.142-.16.095-.241.22-.241.375v5.096c0 .13.081.25.241.362.16.112.364.168.613.168zm7.017 0c.222 0 .422-.045.6-.136.178-.09.267-.222.267-.394v-3.065c0-.483-.105-.923-.314-1.32a2.587 2.587 0 00-.833-.95 1.989 1.989 0 00-1.147-.355c-.445 0-.82.1-1.127.303-.307.203-.527.43-.66.68v-.389c0-.155-.073-.28-.22-.375a.975.975 0 00-.54-.142c-.249 0-.453.048-.614.142-.16.095-.24.22-.24.375v5.096c0 .13.08.25.24.362.161.112.365.168.614.168.24 0 .444-.056.613-.168.169-.112.254-.233.254-.362v-3.065c0-.242.053-.448.16-.62a1.128 1.128 0 01.933-.544c.214 0 .409.058.587.174.178.117.318.261.42.434.101.169.154.36.153.556v3.065c0 .172.094.304.28.394.187.09.378.136.574.136zm5.128.117c.48 0 .895-.059 1.246-.175.352-.116.623-.259.814-.427.191-.168.287-.325.287-.472a.756.756 0 00-.08-.304.903.903 0 00-.227-.304.507.507 0 00-.347-.13.842.842 0 00-.4.117c-.142.078-.311.16-.507.246-.195.086-.44.13-.733.13-.462 0-.838-.115-1.127-.343a1.09 1.09 0 01-.433-.9v-.193h2.707c.204 0 .402-.02.593-.058a.786.786 0 00.474-.298c.124-.16.186-.424.186-.795 0-.483-.129-.905-.386-1.268a2.698 2.698 0 00-1.007-.853 3.013 3.013 0 00-1.367-.31c-.542 0-1.034.118-1.474.355-.44.237-.791.552-1.053.944a2.27 2.27 0 00-.394 1.287v1.1c0 .525.138.989.414 1.39.275.4.655.71 1.14.93.484.22 1.042.33 1.674.33zm.44-3.738h-1.947v-.362a.88.88 0 01.166-.537c.111-.15.256-.267.434-.349.178-.082.369-.123.573-.123.214 0 .409.043.587.13.178.086.32.206.427.361.106.156.16.332.16.53 0 .139-.029.231-.087.279-.058.047-.162.071-.313.071z"/><rect width="48" height="5" x="250" y="20" fill="#E7ECF1" rx="2.5"/><rect width="48" height="5" x="306" y="20" fill="#E7ECF1" rx="2.5"/><rect width="48" height="5" x="362" y="20" fill="#E7ECF1" rx="2.5"/><rect width="370" height="200" x="65" y="65" fill="#fff" rx="13"/></g><defs><clipPath id="a"><path fill="#fff" d="M0 0h500v250H0z"/></clipPath></defs></svg>
