<svg xmlns="http://www.w3.org/2000/svg" fill="none" viewBox="0 0 500 250"><rect width="371" height="144" x="64" y="47" fill="#fff" rx="11"/><path fill="#DEE2E6" d="M165.204 80.897c.433-2.29-1.074-4.522-3.397-4.728a43.001 43.001 0 1010.891 2.42c-2.192-.796-4.502.586-5.08 2.845-.579 2.26.797 4.535 2.969 5.385a34.556 34.556 0 11-10.354-2.302c2.327.15 4.537-1.328 4.971-3.62z"/><path fill="#15AABF" d="M190.204 140.431c1.985 1.321 4.686.791 5.801-1.317a43 43 0 00-38.853-63.106c-2.383.047-4.073 2.22-3.787 4.588.286 2.367 2.44 4.025 4.824 4.038a34.37 34.37 0 0134.172 34.973 34.375 34.375 0 01-3.591 14.698c-1.062 2.134-.551 4.805 1.434 6.126z"/><rect width="150" height="11" x="233" y="90" fill="#DEE2E6" rx="5.5"/><rect width="88" height="11" x="233" y="107" fill="#DEE2E6" rx="5.5"/><path fill="#000" d="M233.246 140.742l.782-6.539h7.48v2.303h-5.071l-.29 2.54a3.48 3.48 0 01.826-.325 3.837 3.837 0 011.011-.141c1.271 0 2.247.378 2.926 1.134.686.75 1.029 1.805 1.029 3.164 0 .82-.185 1.564-.554 2.232a3.76 3.76 0 01-1.538 1.53c-.662.357-1.445.536-2.347.536a5.277 5.277 0 01-2.259-.492c-.703-.334-1.254-.788-1.652-1.363a3.333 3.333 0 01-.589-1.96h2.971c.029.469.179.841.448 1.117.27.275.624.413 1.064.413.996 0 1.494-.739 1.494-2.215 0-1.365-.61-2.048-1.828-2.048-.692 0-1.207.223-1.547.668l-2.356-.554zM252.38 141.771c0 1.728-.39 3.061-1.169 3.999-.773.937-1.866 1.406-3.278 1.406-1.424 0-2.526-.472-3.305-1.415-.779-.944-1.169-2.274-1.169-3.99v-2.338c0-1.729.387-3.062 1.16-3.999.78-.938 1.878-1.407 3.296-1.407s2.517.472 3.296 1.415c.779.944 1.169 2.277 1.169 3.999v2.33zm-2.962-2.716c0-.92-.12-1.606-.36-2.057-.24-.457-.621-.686-1.143-.686-.51 0-.882.211-1.116.633-.229.422-.352 1.061-.369 1.916v3.27c0 .955.12 1.655.36 2.1.24.44.621.66 1.143.66.504 0 .876-.214 1.116-.642.24-.434.363-1.11.369-2.03v-3.164zM262.804 141.771c0 1.728-.39 3.061-1.169 3.999-.774.937-1.866 1.406-3.278 1.406-1.424 0-2.526-.472-3.305-1.415-.779-.944-1.169-2.274-1.169-3.99v-2.338c0-1.729.387-3.062 1.16-3.999.779-.938 1.878-1.407 3.296-1.407s2.517.472 3.296 1.415c.779.944 1.169 2.277 1.169 3.999v2.33zm-2.962-2.716c0-.92-.12-1.606-.36-2.057-.241-.457-.622-.686-1.143-.686-.51 0-.882.211-1.116.633-.229.422-.352 1.061-.369 1.916v3.27c0 .955.12 1.655.36 2.1.24.44.621.66 1.143.66.503 0 .876-.214 1.116-.642.24-.434.363-1.11.369-2.03v-3.164zM271.531 139.362h1.398c1.107 0 1.661-.542 1.661-1.626 0-.422-.132-.764-.396-1.028-.263-.27-.635-.404-1.116-.404-.392 0-.735.114-1.028.342-.287.229-.431.513-.431.853h-2.962c0-.674.188-1.274.563-1.802.375-.527.893-.937 1.556-1.23a5.311 5.311 0 012.197-.448c1.424 0 2.543.325 3.357.975.815.651 1.222 1.544 1.222 2.681 0 .551-.17 1.072-.51 1.564-.334.487-.823.882-1.468 1.187.68.246 1.213.621 1.6 1.125.387.498.58 1.116.58 1.854 0 1.143-.439 2.057-1.318 2.742-.879.686-2.034 1.029-3.463 1.029a5.743 5.743 0 01-2.338-.475c-.715-.322-1.257-.764-1.626-1.327a3.473 3.473 0 01-.554-1.934h2.98c0 .393.158.733.474 1.02.317.287.706.431 1.169.431.522 0 .938-.144 1.248-.431.311-.293.466-.665.466-1.116 0-.645-.161-1.102-.483-1.371-.323-.27-.768-.405-1.336-.405h-1.442v-2.206zM288.143 135.785L283.361 147h-3.128l4.79-10.512h-6.1v-2.285h9.22v1.582zM296.237 147h-2.97v-9.457l-2.918.853v-2.25l5.616-1.943h.272V147z"/></svg>
