<svg xmlns="http://www.w3.org/2000/svg" fill="none" viewBox="0 0 500 250"><rect width="80" height="80" x="64" y="33" fill="#373A40" rx="40"/><path fill="#5C5F66" fill-rule="evenodd" d="M104 50.917c-6.673 0-12.083 5.41-12.083 12.083 0 5.51 3.687 10.158 8.729 11.612-3.98.485-7.394 1.892-9.966 4.427-3.273 3.226-4.93 8.028-4.93 14.294a1.583 1.583 0 103.167 0c0-5.733 1.51-9.598 3.986-12.039 2.481-2.445 6.186-3.71 11.097-3.71s8.615 1.265 11.097 3.71c2.477 2.441 3.986 6.306 3.986 12.04a1.583 1.583 0 003.167 0c0-6.267-1.657-11.07-4.93-14.295-2.572-2.534-5.986-3.942-9.966-4.427 5.042-1.454 8.729-6.102 8.729-11.612 0-6.673-5.41-12.083-12.083-12.083zM95.083 63A8.917 8.917 0 01104 54.083a8.917 8.917 0 110 17.834A8.917 8.917 0 0195.083 63z" clip-rule="evenodd"/><path fill="#5C5F66" d="M172 52a7 7 0 017-7h249a7 7 0 110 14H179a7 7 0 01-7-7zM172 73a7 7 0 017-7h249a7 7 0 110 14H179a7 7 0 01-7-7zM172 94a7 7 0 017-7h147a7 7 0 110 14H179a7 7 0 01-7-7z"/><rect width="80" height="80" x="64" y="137" fill="#373A40" rx="40"/><path fill="#5C5F66" fill-rule="evenodd" d="M104 154.917c-6.673 0-12.083 5.41-12.083 12.083 0 5.51 3.687 10.158 8.729 11.612-3.98.485-7.394 1.893-9.966 4.427-3.273 3.226-4.93 8.028-4.93 14.294a1.583 1.583 0 103.167 0c0-5.733 1.51-9.598 3.986-12.039 2.481-2.445 6.186-3.711 11.097-3.711s8.615 1.266 11.097 3.711c2.477 2.441 3.986 6.306 3.986 12.039a1.583 1.583 0 103.167 0c0-6.266-1.657-11.068-4.93-14.294-2.572-2.534-5.986-3.942-9.966-4.427 5.042-1.454 8.729-6.102 8.729-11.612 0-6.673-5.41-12.083-12.083-12.083zM95.083 167a8.917 8.917 0 1117.835 0 8.917 8.917 0 01-17.835 0z" clip-rule="evenodd"/><path fill="#5C5F66" d="M172 156a7 7 0 017-7h249a7 7 0 110 14H179a7 7 0 01-7-7zM172 177a7 7 0 017-7h249a7 7 0 110 14H179a7 7 0 01-7-7zM172 198a7 7 0 017-7h147a7 7 0 110 14H179a7 7 0 01-7-7z"/></svg>
