<svg xmlns="http://www.w3.org/2000/svg" fill="none" viewBox="0 0 609 502"><path fill="#CFE6F4" d="M541.929 479.172c-30.294-23.019-82.109-80.135-13.876-169.796 84.379-110.878-16.673-156.367-113.533-151.619-77.925 3.82-165.624-94.147-253.108-76.637C45.295 104.36 120.691 204.354 41.959 258.228-25.185 304.173 3.643 444.165 91.03 479.172H541.93z"/><path fill="#CFE6F4" d="M596.611 275.842c-.468-16.441-15.784-22.818-26.007-10.916-5.865 6.828-11.456 16.623-12.503 29.722-2.34 29.314 23.307 20.821 32.89 5.125 4.088-6.693 5.857-15.62 5.62-23.931M314.4 75.314c-16.161-3.057-25.667 10.542-16.224 23.074 5.416 7.189 13.791 14.744 26.363 18.566 28.136 8.554 25.321-18.316 12.037-31.033-5.665-5.424-14.007-9.06-22.176-10.607zM47.283 225.96c6.467-15.126-4.766-27.335-19.037-20.812-8.187 3.741-17.368 10.29-23.808 21.745-14.411 25.635 12.434 28.671 27.713 18.437 6.517-4.364 11.864-11.726 15.132-19.37zM581.836 483.652c0 10.072-124.024 18.237-277.013 18.237-152.991 0-277.015-8.165-277.015-18.237 0-10.069 124.024-18.235 277.015-18.235 152.989 0 277.013 8.166 277.013 18.235"/><path fill="#3A65B9" d="M574.371 334.043c-16.96 16.954 1.958 18.392-10.487 31.197-11.343 11.671-28.081.311-26.967 28.815.243 6.236-4.294 10.862-10.661 13.232-10.476 3.898-20.725.293-27.036-6.874a23.6 23.6 0 01-1.459-1.81c-4.789-6.538-6.537-15.398-2.988-24.179 2.88-7.124 7.98-14.133 17.02-16.928 21.206-6.555 9.435-34.64 27.359-35.872 21.615-1.488 22.391-9.416 37.731-20.104 16.261-11.329 20.476 9.548-2.512 32.523"/><path fill="#3751AB" d="M566.767 324.78c-.474.488-39.8 41.034-67.547 75.633a23.616 23.616 0 01-1.459-1.811c27.823-34.618 66.903-74.916 67.379-75.405a1.135 1.135 0 011.627 1.583z"/><path fill="#3F77C4" d="M578.725 390.642c-26.572 15.643-3.485 23.524-23.098 35.455-17.879 10.875-35.056-8.655-42.85 27.186-1.704 7.839-8.844 12.137-17.529 13.037-14.296 1.478-25.892-6.31-31.443-17.263a30.973 30.973 0 01-1.23-2.722c-3.859-9.682-3.18-21.271 4.065-31.06 5.88-7.942 14.487-15.025 26.637-15.59 28.507-1.329 22.9-40.081 45.608-35.844 27.386 5.109 30.903-4.509 53.44-12.872 23.891-8.869 22.412 18.476-13.6 39.673"/><path fill="#3A65B9" d="M572.244 376.664c-.748.454-62.757 38.261-108.439 72.393a30.973 30.973 0 01-1.23-2.722c45.781-34.134 107.402-71.71 108.153-72.165a1.46 1.46 0 011.516 2.494M60.5 140.354c9.117 22.18-8.894 16.218-2.345 32.829 5.97 15.14 25.793 11.107 13.78 36.982-2.627 5.66-.222 11.678 4.739 16.318 8.164 7.633 19.01 8.255 27.597 4.075.697-.334 1.38-.705 2.044-1.109 6.938-4.185 11.965-11.688 12.074-21.159.088-7.684-1.917-16.118-9.181-22.179-17.043-14.22 4.643-35.601-11.423-43.645-19.372-9.704-17.033-17.317-27.07-33.091-10.64-16.722-22.572.919-10.215 30.979"/><path fill="#3751AB" d="M71.087 134.736c.249.633 20.913 53.204 33.184 95.823.697-.335 1.38-.706 2.044-1.11-12.334-42.666-32.867-94.912-33.118-95.546a1.135 1.135 0 00-2.11.833z"/><path fill="#3F77C4" d="M34.537 198.293c19.229 24.104-5.15 23.216 8.906 41.368 12.812 16.544 35.834 4.441 30.305 40.7-1.21 7.933 3.922 14.497 11.715 18.443 12.823 6.488 26.437 3.357 35.534-4.888a31.471 31.471 0 002.123-2.106c7.063-7.662 10.571-18.729 7.3-30.46-2.653-9.518-8.161-19.209-19.307-24.08-26.15-11.428-7.066-45.617-29.788-49.773-27.404-5.015-27.252-15.255-45.313-31.12-19.145-16.819-27.535 9.249-1.475 41.916"/><path fill="#3A65B9" d="M45.587 187.553c.535.692 44.941 58.16 75.41 106.363a31.471 31.471 0 002.123-2.106c-30.562-48.237-74.69-105.353-75.227-106.045a1.46 1.46 0 10-2.306 1.788z"/><path fill="#3F77C4" d="M164.228 177.309c7.745-5.304 27.147 7.78 37.291 23.667l-8.999-25.211c-3.257-2.825-8.96-6.789-17.871-9.948-13.858-4.91-27.748-12.605-19.986-17.918 7.272-4.982 24.814 6.248 35.329 20.786l-11.557-32.376c-2.15-1.653-5.422-3.662-10.099-5.318-8.732-3.096-17.487-7.946-12.595-11.295 4.244-2.905 14.039 2.947 20.728 11.105l-3.746-10.493c-1.714-3.049-4.15-7.405-7.99-11.379-8.897-9.205-15.624-19.56-8.762-21.061 6.868-1.501 18.109 16.537 19.877 32.835l1.928 5.4c-1.497-11.854 2.765-26.207 8.708-26.714 5.907-.505 2.203 8.79-2.597 16.716-3.654 6.034-4.663 10.822-4.932 13.299l9.104 25.504c-2.316-18.779 4.433-41.425 13.837-42.229 9.371-.802 3.493 13.948-4.121 26.525-5.755 9.504-7.376 17.064-7.819 21.019l10.917 30.584c-1.936-18.558 4.702-41.079 13.96-41.152 7.138-.056 4.952 10.021-3.573 24.248-5.793 9.668-7.647 18.349-8.239 22.922l5.143 14.406c-.861.609-1.757.928-2.648.944l-2.045-5.732c-2.891-2.796-8.912-7.547-19.256-11.214-13.858-4.912-27.747-12.605-19.987-17.92M96.07 390.972c-7.946 5-3.652 28.001 6.893 43.625l-19.556-18.28c-1.298-4.11-2.668-10.918-2.024-20.35 1.002-14.668-.536-30.472-8.497-25.464-7.461 4.693-4.132 25.254 5.029 40.682L52.8 387.709c-.663-2.629-1.205-6.43-.867-11.38.632-9.245-.338-19.204-5.354-16.048-4.355 2.74-2.878 14.055 1.949 23.435l-8.14-7.609c-2.116-2.783-5.145-6.751-7.264-11.855-4.91-11.823-11.738-22.112-15.843-16.412-4.108 5.705 7.976 23.191 22.228 31.293l4.188 3.915c-10.283-6.085-25.146-7.881-27.975-2.629-2.811 5.218 7.191 5.514 16.372 4.262 6.989-.954 11.782.023 14.163.76l19.784 18.492c-16.31-9.59-39.774-12.4-44.25-4.089-4.461 8.28 11.41 8.749 25.977 6.761 11.01-1.501 18.59.016 22.395 1.183l23.723 22.175c-16.257-9.154-39.562-12.015-43.31-3.548-2.888 6.525 7.228 8.526 23.67 6.36 11.175-1.472 19.878.278 24.31 1.552l11.174 10.445c.901-.548 1.549-1.244 1.918-2.053l-4.446-4.158c-1.416-3.762-3.383-11.176-2.635-22.126 1.001-14.668-.537-30.471-8.498-25.463"/><path fill="#F7941D" d="M497.115 184.857v292.971H72.99V184.857h424.125z"/><path fill="#F36D21" d="M497.101 184.868v18.781L285.053 391.596 72.99 203.649v-18.781l212.049 188.59 212.062-188.59z"/><path fill="#F36D21" d="M244.193 336.474L85.273 477.828H72.99v-7.468l162.067-144.151 9.136 10.265M497.115 471.352v6.476h-13.396L324.8 336.474l9.135-10.265 163.18 145.143"/><path fill="#F0B93A" d="M72.977 184.856L285.04 373.46l212.063-188.604H72.977z"/><path fill="#F49477" d="M380.103 158.47l5.412 11.58-11.44.178-4.415-10.538 10.443-1.22"/><path fill="#3F77C4" d="M381.913 169.327s2.348-3.158 4.216-3.022c1.866.135 16.262 11.58 21.194 12.526 4.932.945 4.476 5.969 2.41 5.969-5.944 0-38.748.056-38.748.056s-.99-11.735.266-15.235c1.254-3.498 6.805.534 10.662-.294"/><path fill="#fff" d="M389.869 177.313a.691.691 0 01-.797-1.004c.063-.11 1.568-2.727 3.596-3.748 2.696-1.363 4.801.163 4.889.228a.691.691 0 11-.824 1.108c-.057-.04-1.522-1.068-3.442-.103-1.652.834-3.006 3.176-3.019 3.2a.693.693 0 01-.403.319"/><path fill="#fff" d="M387.811 175.368a.69.69 0 01-.799-1.004c.064-.111 1.571-2.727 3.597-3.749 2.699-1.363 4.8.162 4.888.228a.69.69 0 11-.824 1.109c-.057-.041-1.522-1.069-3.442-.103-1.659.836-3.004 3.175-3.018 3.199a.693.693 0 01-.402.32M392.661 178.892a.694.694 0 01-.8-1.003c.064-.112 1.571-2.728 3.599-3.749 2.699-1.364 4.8.161 4.889.228.306.226.37.66.142.965a.69.69 0 01-.966.143c-.057-.04-1.524-1.07-3.442-.103-1.662.836-3.006 3.176-3.019 3.199a.695.695 0 01-.403.32z"/><path fill="#343054" d="M383.361 162.245l-5.066 1.654-2.819.166-4.841.284c-6.399-5.061-23.66-20.289-27.023-29.268 0 0-22.208 51.643-52.912 51.643-1.992 0 3.272-25.697 8.277-31.041 0 0 28.302-52.746 46.65-47.148 8.216 2.509 16.526 14.469 37.734 53.71"/><path fill="#1E1D33" d="M378.295 163.898l-2.819.167c-18.835-14.261-27.559-26.339-31.576-34.075-.139-.268-.364-.356-.516-.352-.132.003-.227.076-.288.23-9.019 21.23-19.843 33.972-27.335 40.926-8.164 7.576-14.137 10.074-14.384 10.179l-.346-.843-.344-.84c.057-.025 5.984-2.516 13.926-9.91 7.336-6.827 17.944-19.347 26.811-40.226.337-.802 1.048-1.301 1.891-1.333.908-.037 1.76.487 2.2 1.331 4.049 7.801 13.02 20.128 32.78 34.746"/><path fill="#4C4685" d="M365.556 160.896c.805 1.506 2.191 3.636 3.515 4.665 0 0 10.845-.501 16.12-3.151l-2.368-5.513s-8.632 3.151-17.267 3.999"/><path fill="#3A65B9" d="M379.751 86.861c-15.423 6.281-27.75 9.44-38.239 10.74l-.021-.004c-.135.004-2.604.206-3.554.167-2.825-.097-6.652-.737-10.526-2.548-2.762-1.29-6.706-4.621-10.831-8.593-5.109-4.93-10.496-10.845-14.223-15.07-2.898-3.282-4.794-5.546-4.794-5.546 2.572-3.827 8.268-7.307 13.225-9.17 0 0 10.344 17.225 26.016 25.684.852.466 1.724.895 2.607 1.294 3.57-.58 13.23-1.02 17.42-1.318 11.353-.806 20.622-2.776 20.622-2.776l2.298 7.14"/><path fill="#F49477" d="M377.063 79.153s2.146-5.425 5.069-6.973c2.92-1.548 11.236-6.999 13.011-5.368 1.776 1.632 1.408 9.464-6.047 16.01-4.748 4.171-9.532 3.994-9.532 3.994l-2.501-7.663"/><path fill="#1E1D33" d="M395.675 71.796L383.401 83.26c-.461.433-1.294.559-1.864.283l-7.521-3.638c-.233-.114-.387-.277-.452-.46l-.017-.06-.37-1.258 1.995-.757 19.311-7.335 1.046-.395.392 1.33.031.09.004.033c.044.234-.049.487-.281.702"/><path fill="#252334" d="M394.483 70.036l-19.311 7.335 10.921-10.204c.46-.431 1.295-.56 1.86-.285l6.53 3.154"/><path fill="#343054" d="M381.164 82.27l-7.527-3.64c-.566-.274-.654-.845-.193-1.274l12.273-11.468c.462-.43 1.294-.555 1.862-.28l7.525 3.638c.567.275.653.845.195 1.275l-12.275 11.467c-.46.43-1.293.555-1.86.281"/><path fill="#4E4E8A" d="M382.759 80.359c-.242 0-.479-.047-.682-.144l-5.83-2.82c-.568-.275-.655-.844-.195-1.275l9.545-8.918c.296-.275.746-.426 1.179-.426.241 0 .479.047.683.145l5.829 2.819c.568.275.655.845.193 1.275l-9.545 8.918c-.295.276-.744.425-1.177.425z"/><path fill="#252334" d="M395.961 71.092l-.005.002-.004-.033.009.03z"/><path fill="#F49477" d="M381.921 69.436s1.748.272 1.927 1.776c.179 1.502-1.448.904-2.493.574-1.048-.33-1.99 0-2.132.171-.458.539-.379-2.966 2.698-2.521M389.737 77.599s2.743-4.51 4.847-6.973c1.4-1.64 2.115.74 1.157 2.4-.96 1.66-2.85 5.04-6.004 4.573"/><path fill="#3F77C4" d="M261.919 158.887l-6.08-39.196-.36-2.324.041-1.75 1.356-55.528 15.405-5.206.826-.28 3.458-1.172 2.743-.926 16.265 2.239 2.648.364.932.128 11.638 1.601c.108 36.812-3.426 44.764 3.376 74.708 3.425 11.295-9.138 51.295-52.248 27.342"/><path fill="#3A65B9" d="M270.58 148.859l.003-.002c12.18-3.401 21.066-11.808 26.376-18.261 5.742-6.98 8.661-13.256 8.69-13.319a.608.608 0 00-1.106-.509c-.028.061-2.895 6.22-8.544 13.08-5.196 6.309-13.88 14.525-25.744 17.837a.61.61 0 00.325 1.174M284.427 149.513c10.582-2.905 19.481-11.832 19.884-12.241a.61.61 0 00-.867-.855c-.104.106-10.575 10.606-21.897 12.488a.603.603 0 00-.5.7.61.61 0 00.7.502 26.758 26.758 0 002.68-.594M276.937 71.216c10.576-2.932 19.451-11.881 19.854-12.292a.607.607 0 00-.008-.86.61.61 0 00-.862.008c-.104.105-10.548 10.632-21.865 12.543a.61.61 0 00.201 1.201 26.66 26.66 0 002.68-.6"/><path fill="#F49477" d="M369.74 260.331l4.259 9.48-8.734 3.757-5.08-9.792 9.555-3.445"/><path fill="#3F77C4" d="M372.091 269.611s.894-3.832 2.66-4.455c1.764-.621 19.533 4.123 24.433 3.02 4.9-1.103 5.471 2.608 5.384 4.671-.089 2.062-36.351 15.07-36.351 15.07s-5.536-10.068-5.784-13.778c-.245-3.71 6.454-2.228 9.658-4.528"/><path fill="#fff" d="M382.577 273.753a.691.691 0 01-.52.162.694.694 0 01-.613-.762c.013-.125.349-3.125 1.801-4.872 1.928-2.326 4.464-1.768 4.572-1.744a.692.692 0 01.518.828.69.69 0 01-.83.518c-.069-.015-1.822-.372-3.198 1.281-1.182 1.423-1.487 4.111-1.49 4.139a.676.676 0 01-.24.45"/><path fill="#fff" d="M379.912 272.795a.69.69 0 01-1.133-.602c.013-.128.35-3.128 1.801-4.874 1.929-2.328 4.464-1.768 4.572-1.743a.688.688 0 01.516.829.687.687 0 01-.828.515c-.071-.013-1.824-.372-3.199 1.281-1.186 1.431-1.486 4.111-1.489 4.139a.69.69 0 01-.24.455zM385.765 274.086a.681.681 0 01-.518.162.694.694 0 01-.614-.762c.014-.126.35-3.126 1.8-4.873 1.93-2.328 4.467-1.769 4.574-1.744a.691.691 0 01-.312 1.345c-.07-.014-1.826-.372-3.199 1.282-1.187 1.428-1.485 4.11-1.488 4.138a.688.688 0 01-.243.452"/><path fill="#343054" d="M371.939 262.169c-.906 1.028-3.7 2.588-6.747 3.952a60.6 60.6 0 01-1.679.723c-.989.406-1.972.778-2.894 1.094 0 0-20.718-38.186-28.668-65.877 0 0-70.127-8.659-72.555-33.219a13.203 13.203 0 01-.011-2.524c.207-2.341 1.018-4.813 2.534-7.429 1.6-2.756 25.6-.069 38.568 3.569 0 0 35.153 13.695 48.15 27.803 6.579 7.14 23.302 71.908 23.302 71.908"/><path fill="#1E1D33" d="M365.192 266.121a60.6 60.6 0 01-1.679.723c-10.478-17.34-25.026-57.854-28.269-67.578a1.924 1.924 0 00-1.472-1.28c-34.071-6.405-53.701-15.341-64.172-21.709-4.613-2.807-7.907-5.367-10.204-7.435a13.203 13.203 0 01-.011-2.524c2.228 2.179 5.827 5.182 11.367 8.53 10.336 6.249 29.716 15.028 63.357 21.353a3.749 3.749 0 012.862 2.491c3.242 9.732 17.849 50.426 28.221 67.429"/><path fill="#4C4685" d="M356.877 263.937l3.308 5.291s8.239-1.423 13.814-7.059l-2.06-4.727s-10.022 4.94-15.062 6.495z"/><path fill="#F49477" d="M245.267 173.384s4.773 6.471 4.378 9.819c-.393 3.349-4.714 9.658-8.169 9.962-3.453.304 3.969-8.108 2.217-7.836-2.12.328-16.433 12.071-19.453 12.071-3.02 0 3.553-5.457 6.115-6.837 0 0-6.771 3.029-8.348 4.605-1.575 1.576-2.72-1.804 5.16-6.597 0 0-7.228 4.101-7.72 4.168-1.608.213 2.978-5.163 6.928-7.108 0 0-5.794 2.821-6.383 2.833-.815.017.933-1.879 5.232-4.261 3.869-2.144 10.207-11.99 10.207-11.99l9.836 1.171"/><path fill="#3A65B9" d="M256.875 60.09s-16.063 30.852-19.72 63.123l-1.724 49s1.652 3.492 9.836 1.171l7.917-48.995 6.067-22.417s2.757-27.588-2.376-41.881z"/><path fill="#343054" d="M306.208 26.732c-1.705 9.653-10.913 16.094-20.567 14.388-9.652-1.706-16.093-10.915-14.388-20.567 1.707-9.652 10.915-16.095 20.568-14.388 9.652 1.707 16.095 10.915 14.387 20.567z"/><path fill="#343054" d="M306.476 23.548s5.192-.49 5.388-5.41c.167-4.188-5.104-2.386-4.116-5.506.987-3.121 2.439-5.86-1.553-7.39-3.494-1.338-3.992 1.13-8.104-3.305-4.859-5.238-10.906 3.835-15.964 3.246-7.46-.871-9.131 3.14-10.448 6.353-1.316 3.212 1.112 6.057 1.112 6.057l33.685 5.955"/><path fill="#F36156" d="M302.408 31.104s3.421-3.201 4.94.215c1.519 3.416-2.985 11.917-7.636 8.825l2.696-9.04z"/><path fill="#F04147" d="M301.305 37.552a.43.43 0 00.464-.237c1.274-2.646 4.358-3.266 4.387-3.271a.431.431 0 00.344-.505.432.432 0 00-.504-.346c-.144.028-3.54.7-5.005 3.745a.431.431 0 00.202.578l.112.036"/><path fill="#F04147" d="M304.464 36.664l.241-.026a.434.434 0 00.232-.566c-.016-.036-.388-.906-1.37-1.572a.433.433 0 00-.486.716c.76.516 1.056 1.184 1.058 1.19.06.14.185.234.325.258"/><path fill="#F49477" d="M279.345 44.43l-1.584 8.965s2.988 4.602 6.548 5.551c3.556.955 6.512-2.947 6.512-2.947l1.524-8.622-13-2.948"/><path fill="#F36156" d="M279.345 44.43l-.702 3.977c1.949 3.12 6.14 4.556 12.682 4.74l1.02-5.77-13-2.948"/><path fill="#F49477" d="M273.964 19.733c-.451 3.514-.888 7.93-.84 11.53.013.898.056 1.75.135 2.52.718 6.938 3.436 19.102 17.481 16.718 6.204-1.05 10.057-7.072 12.431-13.47 1.61-4.343 2.536-8.858 3.05-12.11a9.503 9.503 0 00-3.341-8.804c-7.017-5.798-15.537-5.605-21.323-4.481a9.474 9.474 0 00-7.593 8.097"/><path fill="#343054" d="M295.56 31.1c-.169.957.187 1.82.795 1.928.609.108 1.238-.581 1.408-1.539.169-.957-.187-1.82-.795-1.928-.608-.106-1.24.582-1.408 1.539zM282.659 28.82c-.17.956.186 1.819.796 1.928.608.107 1.238-.582 1.406-1.539.17-.957-.186-1.82-.794-1.928-.608-.108-1.239.582-1.408 1.539zM301.185 26.607s-4.265-2.623-8.066-1.722l.005 1.69s3.976-.176 7.473 1.882c.367-.714.75-1.02.588-1.85zM280.2 22.897s4.907-1.001 8.168 1.148l-.585 1.587s-3.672-1.53-7.664-.795c-.1-.797-.354-1.216.081-1.94"/><path fill="#F36156" d="M288.251 36.84c-.719-.127-1.382-.534-1.484-.598a.432.432 0 01-.135-.595.431.431 0 01.596-.137c.357.224 1.237.632 1.68.464.085-.033.207-.105.28-.36.416-1.46.891-6.517.896-6.567a.43.43 0 01.469-.391.43.43 0 01.391.47c-.02.212-.487 5.19-.924 6.726-.165.578-.528.825-.804.93-.301.115-.639.115-.965.058"/><path fill="#fff" d="M293.148 40.393c-.657 1.69-2.384 4.707-6.281 4.019-3.907-.69-4.482-3.83-4.5-5.925l10.781 1.906z"/><path fill="#F36156" d="M286.527 46.644c-1.103-.195-1.939-.919-1.974-.95a.433.433 0 11.57-.65c.006.007.694.596 1.554.748.788.14 1.623-.18 1.63-.181a.431.431 0 11.32.802c-.043.018-1.06.415-2.1.23"/><path fill="#343054" d="M302.344 34.023c.632-1.7 1.351-3.911 1.324-5.114-.051-2.13-1.54-3.64-.621-5.521.92-1.89-.8-4.393-2.283-5.019-1.479-.63-5.22-.5-8.472-2.812-3.104-2.21-9.197-2.1-10.541-.096-1.628 2.43-.091 2.956-3.764 5.243-1.463.912-.487 4.124-.611 6.079-.06.9-.123 1.332-.324 2.273l-.099.479-3.793-.671c.108-3.047.448-6.367.803-9.132a9.474 9.474 0 017.594-8.095c5.787-1.125 14.304-1.321 21.324 4.48a9.502 9.502 0 013.339 8.804c-.407 2.579-1.073 5.954-2.137 9.41l-1.739-.308"/><path fill="#F49477" d="M274.552 30.8c.187-.99.292-1.995.292-3.003-.001-1.377-.175-2.659-1.444-3.457-1.02-.643-2.193-.859-3.249.233-2.598 2.688-1.984 12.592 3.445 11.282l.956-5.055"/><path fill="#F36156" d="M273.111 32.917a.436.436 0 01-.274-.445c.288-2.923-2.022-5.054-2.046-5.075a.434.434 0 01.58-.642c.108.097 2.66 2.437 2.328 5.802a.433.433 0 01-.474.387l-.114-.027"/><path fill="#F36156" d="M270.875 30.516l-.194-.15a.432.432 0 01.098-.603c.032-.023.802-.571 1.988-.63a.433.433 0 01.041.864c-.917.046-1.517.463-1.523.467a.429.429 0 01-.41.052z"/><path fill="#F49477" d="M474.891 235.742s-5.843 11.082-12.72 19.86c-2.031 2.59-4.147 4.979-6.236 6.822-3.382 2.992-6.68 4.556-9.366 3.229-9.962-4.92-32.17-44.079-32.17-44.079l5.468-6.356s9.885 11.183 17.113 17.876a1286.506 1286.506 0 0011.793 10.786 256.17 256.17 0 002.928-4.48 452.128 452.128 0 003.364-5.332c8.324-13.39 18.348-28.035 18.348-28.035l1.478 29.709z"/><path fill="#F49477" d="M421.317 219.064s2.255-3.703 1.383-7.017c-.871-3.315-1.719-10.808-5.34-10.604-1.323.073.609 3.204-.277 6.104 0 0-3.879-1.868-6.475-3.787-2.283-1.687-7.011-4.427-9.209-5.679-.603-.342-1.3.315-.951.906.564.956 1.944 2.382 5.132 4.378 0 0-7.921-4.436-9.248-3.461-1.328.975 8.68 6.343 8.68 6.343s-8.081-3.267-8.743-2.071c-.402.728 7.523 5.383 7.523 5.383s-7.872-2.43-6.411-.587c.426.537 15.379 7.304 18.495 15.161 0 0 4.357-2.386 5.441-5.069"/><path fill="#F36156" d="M462.171 255.603c-2.031 2.589-4.147 4.978-6.236 6.821l-4.234-23.024a452.128 452.128 0 003.364-5.332l7.106 21.535"/><path fill="#3F77C4" d="M473.715 205.001l-21.055 30.367 6.701 27.056 16.52-26.355s3.094-17.633-2.166-31.068"/><path fill="#F49477" d="M484.52 464.83v9.587l8.949-.141.584-10.159-9.533.713z"/><path fill="#343054" d="M507.241 324.765c-.062 1.139-.372 6.609-.841 14.237-1.261 20.956-3.62 58.194-5.004 66.56-1.421 8.583-.779 36.73-.321 51.463.073 2.505-.903 4.782-2.534 6.452a9.413 9.413 0 01-2.076 1.587 9.259 9.259 0 01-4.497 1.162h-6.821c-5.14 0-9.268-4.165-9.107-9.201.383-12.457.852-35.18-.037-52.735-.854-16.706.382-46.269 1.334-64.696h.012c.384-7.36.718-12.929.852-15.204l29.04.375z"/><path fill="#1E1D33" d="M478.201 324.39l29.04.375c-.062 1.139-.372 6.609-.841 14.237-9.861 1.187-20.129 1.683-29.051.592.384-7.36.718-12.929.852-15.204z"/><path fill="#1E1D33" d="M498.429 430.749c.255 9.423.519 19.164.346 27.017-.048 2.205-.127 4.09-.231 5.706a8.85 8.85 0 01-2.084 1.589c.167-1.875.296-4.275.364-7.336.169-7.808-.093-17.525-.348-26.925-.312-11.487-.605-22.338.033-26.958 1.394-10.108 4.51-64.905 5.327-79.534l1.953.086c-.817 14.62-3.942 69.528-5.346 79.703-.616 4.467-.322 15.245-.014 26.652z"/><path fill="#3F77C4" d="M486.813 474.059s-1.852-2.554-3.372-2.479c-1.518.073-13.42 8.934-17.445 9.6-4.024.667-3.311 3.573-2.611 5.068.702 1.493 31.983.13 31.983.13s1.063-9.089.104-11.899c-.956-2.806-5.539.306-8.659-.42z"/><path fill="#fff" d="M480.205 480.277c.142.045.3.035.439-.039a.544.544 0 00.228-.745c-.049-.089-1.227-2.198-2.856-3.048-2.167-1.132-3.904.045-3.977.096a.543.543 0 00-.132.767.568.568 0 00.782.13c.048-.03 1.256-.824 2.799-.021 1.328.692 2.385 2.58 2.396 2.6a.56.56 0 00.321.26"/><path fill="#fff" d="M481.913 478.765c.14.044.299.036.44-.04a.543.543 0 00.228-.745c-.05-.09-1.226-2.199-2.857-3.048-2.168-1.131-3.904.045-3.976.096a.544.544 0 00-.133.768.57.57 0 00.782.129c.048-.03 1.256-.825 2.799-.021 1.333.694 2.387 2.58 2.396 2.6a.565.565 0 00.321.261M477.909 481.485c.14.046.299.036.44-.038a.547.547 0 00.227-.747c-.049-.088-1.227-2.197-2.856-3.047-2.169-1.132-3.904.044-3.976.096a.543.543 0 00-.135.767c.18.248.53.306.784.129.047-.031 1.256-.824 2.8-.02 1.334.694 2.384 2.58 2.394 2.599.072.131.189.22.322.261"/><path fill="#F49477" d="M528.105 464.83l.964 9.571 7.986-.125.584-10.159-9.534.713z"/><path fill="#343054" d="M544.545 404.29c-.889 17.555-.42 40.278-.037 52.735.148 5.036-3.967 9.201-9.107 9.201h-6.82a9.313 9.313 0 01-4.189-.993 8.727 8.727 0 01-2.064-1.453c-1.829-1.683-2.941-4.091-2.855-6.755.458-14.733 1.1-42.88-.321-51.463-1.408-8.512-3.831-46.888-5.077-67.626-.41-6.924-.694-11.875-.768-13.098l29.089.375c.085 1.477.221 3.753.383 6.635.938 16.584 2.754 53.109 1.766 72.442"/><path fill="#1E1D33" d="M542.779 331.848c-5.474 1.464-16.336 4.152-28.704 6.088-.41-6.924-.694-11.875-.768-13.098l29.089.375c.085 1.477.221 3.753.383 6.635"/><path fill="#1E1D33" d="M524.021 457.725c.067 3.155.204 5.604.374 7.503a8.92 8.92 0 01-2.071-1.443 128.868 128.868 0 01-.257-6.018c-.17-7.854.094-17.595.349-27.018.308-11.406.599-22.185-.017-26.652-1.403-10.178-4.53-65.116-5.343-79.714l1.951-.087c.816 14.609 3.932 69.436 5.329 79.547.637 4.62.343 15.47.032 26.957-.253 9.4-.516 19.117-.347 26.925"/><path fill="#3F77C4" d="M532.183 472.929s4.072-1.064 5.197-1.043c1.127.023 8.669 8.286 11.209 8.773 4.606.882 4.613 7.927 1.81 8.278-8.107 1.013-21.976-2.342-21.976-2.342s-1.278-9.042-.723-11.879c.555-2.837 2.217-.952 4.483-1.787"/><path fill="#fff" d="M538.896 480.646a.576.576 0 01-.435-.078.546.546 0 01-.154-.764c.058-.084 1.437-2.074 3.141-2.767 2.267-.923 3.881.411 3.949.468.235.199.26.547.058.776a.568.568 0 01-.792.056c-.044-.035-1.17-.937-2.786-.283-1.388.565-2.625 2.346-2.637 2.363a.546.546 0 01-.344.229"/><path fill="#fff" d="M537.342 478.981a.56.56 0 01-.433-.08.542.542 0 01-.154-.763c.057-.085 1.436-2.074 3.14-2.766 2.269-.924 3.881.409 3.949.468a.54.54 0 01.057.774.568.568 0 01-.792.058c-.044-.036-1.17-.939-2.784-.284-1.394.567-2.625 2.345-2.637 2.362a.557.557 0 01-.346.231M541.064 482.065a.568.568 0 01-.435-.081.544.544 0 01-.153-.763c.057-.084 1.436-2.075 3.14-2.767 2.269-.925 3.881.41 3.949.467.235.2.26.548.057.776a.568.568 0 01-.792.057c-.044-.035-1.17-.938-2.785-.282-1.395.565-2.625 2.344-2.636 2.363a.576.576 0 01-.345.23"/><path fill="#3F77C4" d="M548.997 327.704c-26.272 6.479-52.513 6.496-78.726 0-.138-9.595-.276-47.963.48-79.454.013-.62.03-1.236.046-1.849.006-.305.015-.609.023-.908v-.049c.011-.393.019-.78.033-1.168.56-20.768 1.539-37.728 3.214-39.993l.002-.003c3.912-5.265 23.57-13.675 29.01-17.431.453.715 3.128 4.687 6.634 4.98 3.85.333 7.271-4.104 7.271-4.104v-.839c5.463 3.752 23.272 11.535 27.18 16.786 4.273 5.754 5.015 107.684 4.833 124.032"/><path fill="#3A65B9" d="M478.759 233.465c-2.255 2.988-5.55 9.757-7.028 12.887-.203.428-.37.789-.496 1.064-.167.357-.262.565-.268.581l-.216.253c.013-.62.03-1.235.046-1.849.006-.305.015-.609.023-.908v-.049c.303-.639.661-1.387 1.061-2.208 1.682-3.435 4.082-8.067 5.899-10.478a.62.62 0 01.852-.125c.271.196.324.57.127.832M529.065 210.288h-.02c-10.439-.325-18.493-4.581-23.412-8.093-5.328-3.804-8.155-7.483-8.272-7.639a.589.589 0 01.124-.833.619.619 0 01.852.121c.112.147 11.376 14.648 30.747 15.252.336.011.6.287.589.615a.604.604 0 01-.608.577zM493.896 307.685a.605.605 0 01-.607-.557.602.602 0 01.568-.635c17.127-1.1 27.344-9.604 32.899-16.543 6.04-7.545 8.044-14.934 8.063-15.009a.61.61 0 01.741-.427.596.596 0 01.437.727c-.081.308-2.072 7.668-8.252 15.405-5.71 7.148-16.209 15.907-33.809 17.038l-.04.001"/><path fill="#3A65B9" d="M503.092 297.028a.606.606 0 01-.587-.442.593.593 0 01.428-.729c14.884-3.941 17.758-16.12 17.784-16.242a.607.607 0 01.723-.457c.328.07.536.386.467.707-.03.135-.751 3.312-3.415 7.029-2.452 3.422-7.087 7.954-15.241 10.114l-.159.02"/><path fill="#F49477" d="M568.276 326.649c-.373 5.219-3.572 9.096-3.587 12.531-.017 3.438-4.066 1.189-2.192-5.598 1.872-6.785-.905-13.353-2.389-13.292-1.485.064.472 7.648-1.088 10.168-1.559 2.516-2.737-2.77-4.105-6.044-1.42-3.397-.626-10.442.661-15.406 1.285-4.96-5.028-36.434-4.201-45.303l-2.279-11.505-1.332-6.711-.248-7.005 12.169-4.724a1675.8 1675.8 0 011.394 6.925c.204 1.035.405 2.071.605 3.104 1.627 8.389 3.089 16.647 3.684 21.945 1.645 14.655-1.055 44.543-1.055 44.543s4.315 11.48 3.963 16.372"/><path fill="#F36156" d="M561.684 243.789c-2.745 3.072-7.131 6.983-12.588 8.411l-1.332-6.711-.248-7.005 12.169-4.724a1675.8 1675.8 0 011.394 6.925c.204 1.035.405 2.071.605 3.104"/><path fill="#3F77C4" d="M565.063 237.147s-1.452 1.686-3.986 3.537c-3.066 2.253-7.725 4.757-13.298 4.805-.674-19.416-1.664-35.822-3.107-40.638 2.568 3.105 14.899 18.397 20.391 32.296z"/><path fill="#3A65B9" d="M539.427 231.516c2.254 2.986 5.549 9.756 7.028 12.885l.496 1.064c.168.357.261.565.268.581.1.224.322.355.557.355h.012c-.007-.304-.016-.608-.025-.909.18 0 .36 0 .533-.007-.083-.176-.28-.604-.563-1.209-.357-.76-.849-1.804-1.429-2.99-1.68-3.437-4.081-8.069-5.897-10.477a.618.618 0 00-.852-.125.587.587 0 00-.128.832"/><path fill="#343054" d="M528.425 155.666c0 10.516-6.608 17.764-17.341 17.764-10.736 0-18.217-7.792-18.217-18.309 0-10.517 6.356-18.485 17.092-18.485 12.873 0 18.466 8.513 18.466 19.03z"/><path fill="#F36156" d="M526.015 160.194s2.982-3.896 5.2-.674c2.217 3.221-.918 12.737-6.348 10.414l1.148-9.74z"/><path fill="#F04147" d="M526.053 166.993c.2 0 .384-.129.442-.328.841-2.937 3.948-4.128 3.978-4.14a.449.449 0 00.267-.58.463.463 0 00-.592-.261c-.144.054-3.567 1.356-4.537 4.738a.449.449 0 00.317.554l.125.017"/><path fill="#F04147" d="M529.189 165.513l.247-.07a.447.447 0 00.139-.622c-.024-.035-.574-.856-1.723-1.36a.46.46 0 00-.605.227.443.443 0 00.23.593c.888.39 1.322 1.02 1.326 1.027a.46.46 0 00.386.205"/><path fill="#F36156" d="M495.279 160.194s-2.983-3.896-5.2-.674c-2.218 3.221.917 12.737 6.346 10.414l-1.146-9.74z"/><path fill="#F04147" d="M495.24 166.993a.456.456 0 01-.441-.328c-.842-2.937-3.948-4.128-3.98-4.14a.45.45 0 01-.266-.58.462.462 0 01.591-.261c.145.054 3.568 1.356 4.539 4.738a.45.45 0 01-.319.554l-.124.017"/><path fill="#F04147" d="M492.104 165.513l-.247-.07a.446.446 0 01-.138-.622c.024-.035.573-.856 1.722-1.36a.46.46 0 01.606.227.445.445 0 01-.231.593c-.889.39-1.321 1.02-1.325 1.027a.462.462 0 01-.387.205"/><path fill="#F49477" d="M503.305 178.005v9.463s2.88 4.819 6.776 5.147c3.891.332 7.348-4.15 7.348-4.15v-9.796l-14.124-.664"/><path fill="#F36156" d="M503.305 178.005v4.199c2.614 2.841 7.256 3.55 14.124 2.557v-6.092l-14.124-.664"/><path fill="#F49477" d="M527.609 159.893c-.145 2.005-.386 4.123-.784 6.231-1.294 6.974-4.21 13.834-10.497 16.036-14.231 4.978-19.316-6.98-21.351-13.951a30.38 30.38 0 01-.601-2.555c-.323-1.661-.573-3.514-.769-5.381a120.138 120.138 0 01-.483-6.569c-.209-4.243 2.383-8.136 6.435-9.664 5.834-2.198 14.7-3.934 23.101.733 3.104 1.719 5.049 4.912 5.119 8.404a75.02 75.02 0 01-.17 6.716z"/><path fill="#343054" d="M518.193 175.014v.004h-.004c-.629.591-1.272 1.086-1.91 1.422-3.606 1.91-3.998 1.62-5.419 1.682-1.451.067-3.447-.352-5.476-1.46-.629-.349-1.572-1.018-2.603-1.942 0 0-1.462-4.899 7.827-3.671 9.312-1.568 7.74 3.009 7.585 3.965zm7.654-14.741c-.48.857-3.147 8.919-3.888 10.048-1.683-3.627-9.802-.991-9.802-.991-.51.16-1.038.246-1.572.246-.514 0-1.03-.082-1.526-.234l-.042-.012s-8.213-2.524-9.832 1.276c-.752-1.125-3.068-9.033-3.5-10.333h-2.078c.196 1.867.446 3.72.769 5.381.179.92.379 1.782.601 2.555 2.035 6.971 7.12 18.929 21.351 13.951 6.287-2.202 9.203-9.062 10.497-16.036.398-2.108.639-4.226.784-6.231l-1.762.38"/><path fill="#343054" d="M516.75 161.429c0 1.011.531 1.83 1.186 1.83.656 0 1.188-.819 1.188-1.83 0-1.01-.532-1.829-1.188-1.829-.655 0-1.186.819-1.186 1.829M502.76 161.392c0 1.009.532 1.829 1.188 1.829.655 0 1.187-.82 1.187-1.829 0-1.011-.532-1.829-1.187-1.829-.656 0-1.188.818-1.188 1.829zM522.643 156.264s-4.547-1.76-8.048-.279l.35 1.908s5.139-.425 7.728.603c.232-.735.266-1.477-.03-2.232zM500.029 156.264s4.548-1.76 8.05-.279l-.351 1.908s-5.14-.425-7.728.603c-.232-.735-.265-1.477.029-2.232"/><path fill="#F36156" d="M510.487 168.508c-.774 0-1.542-.295-1.66-.343a.444.444 0 01-.251-.585.46.46 0 01.597-.247c.414.165 1.41.423 1.84.169.083-.048.198-.144.227-.418.165-1.57-.273-6.831-.277-6.884a.45.45 0 01.418-.484.452.452 0 01.495.41c.019.22.451 5.399.276 7.051-.067.623-.4.94-.668 1.099-.292.17-.645.232-.997.232"/><path fill="#fff" d="M516.751 171.802c-.376 1.848-1.622 5.25-5.822 5.25-4.209 0-5.389-3.108-5.794-5.25h11.616z"/><path fill="#343054" d="M493.607 160.274h2.08c-.23-2.046-.559-5.649 1.156-6.164 5.417-1.63-1.604-5.382.842-7.252 2.446-1.874 8.532-1.072 12.766-1.206 4.258-.135 11.105-.076 12.766.301 1.666.373.754 3.083.143 5.183-.615 2.094 2.041 4.414 2.487 6.586.126.623.101 1.548-.002 2.552h1.735c.205-2.642.235-5.104.197-7.097-.068-3.493-2.013-6.685-5.116-8.407-8.401-4.665-17.265-2.926-23.101-.728-4.052 1.524-6.644 5.422-6.437 9.66.097 2.016.249 4.307.484 6.572"/><path fill="#fff" d="M188.707 390.551H83.154c1.744-10.588 10.143-18.283 19.933-18.251l32.842.096 32.844-.096c9.79-.032 18.19 7.663 19.934 18.251z"/><path fill="#fff" d="M97.207 487.448h-5.751v-98.413h5.751v98.413M180.404 487.448h-5.751v-98.413h5.751v98.413z"/><path fill="#CFE6F4" d="M174.653 422.156H97.207v-5.546h77.446v5.546z"/><path fill="#3A65B9" d="M110.088 258.072s-17.629 23.511-19.974 44.012c-1.656 14.481 19.974 36.12 19.974 36.12l7.451-3.708-7.428-16.747c-2.643-8.157-5.897-11.381-3.494-19.61l5.38-11.6-1.909-28.467M165.639 257.717s17.398 25.068 18.84 45.655c1.242 17.749-20.058 34.832-20.058 34.832l-6.152-3.063 8.52-16.92c2.643-8.156 3.899-13.074.295-21.949l-4.572-9.733 3.127-28.822z"/><path fill="#3F77C4" d="M113.679 311.613l-11.685 37.172s50.59 6.453 66.062 2.277l-7.859-40.485 5.442-52.86c-7.572-3.191-15.599-5.229-23.795-5.82-11.964-.865-19.521 1.109-31.756 6.175l3.591 53.541"/><path fill="#3A65B9" d="M126.327 269.28c11.16-1.308 21.544-8.975 22.016-9.327a.624.624 0 00-.746-.999c-.122.091-12.341 9.106-24.094 9.266a.618.618 0 00-.614.632c.004.342.287.62.631.614a27.75 27.75 0 002.807-.186"/><path fill="#F49477" d="M135.319 468.433l.912 8.207 8.729.2.732-6.811-10.373-1.596z"/><path fill="#1E1D33" d="M133.949 338.305s-22.605-1.243-30.262 5.021c-7.656 6.264-6.117 24.242 1.684 29.15 7.8 4.908 21.096 14.552 21.096 14.552l8.457 84.081 11.176.379s10.297-84.46 5.076-100.818c-5.22-16.357-17.227-32.365-17.227-32.365"/><path fill="#343054" d="M147.131 467.317c.608 1.964.318 3.868-.288 5.759l-12.859-.285a14.802 14.802 0 01-.249-5.642l13.396.168"/><path fill="#fff" d="M165.939 337.669h-59.322l-5.481-32.058a4.545 4.545 0 014.48-5.311h61.324a4.545 4.545 0 014.48 5.311l-5.481 32.058z"/><path fill="#CFE6F4" d="M161.168 344.64h-49.721a4.829 4.829 0 01-4.83-4.828v-2.143h59.38v2.143a4.828 4.828 0 01-4.829 4.828zM141.563 320.305a5.152 5.152 0 11-10.304.002 5.152 5.152 0 0110.304-.002z"/><path fill="#F49477" d="M98.242 445.349l-1.935 8.123 7.833 1.548 3.192-7.254-9.09-2.417"/><path fill="#343054" d="M145.433 336.913s-15.138-5.221-24.013 5.741c-8.875 10.963-23.736 103.506-23.736 103.506l10.188 4.204 32.749-82.187s26.67 15.22 29.9-6.417c2.556-17.12-25.088-24.847-25.088-24.847"/><path fill="#4C4685" d="M110.18 446.123c-.037 2.122-.935 3.896-2.14 5.555l-12.522-4.428c.16-1.984.699-3.849 1.574-5.612l13.088 4.485"/><path fill="#3F77C4" d="M102.284 452.136s-4.748-2.41-6.146-2.684c-1.397-.276-12.94 7.912-16.209 7.833-5.93-.145-7.829 8.563-4.458 9.747 9.748 3.428 27.791 3.002 27.791 3.002s4.007-10.832 4.082-14.487c.076-3.655-2.484-1.773-5.06-3.411"/><path fill="#fff" d="M91.915 459.873c.17.077.371.089.558.017a.687.687 0 00.395-.902c-.049-.12-1.218-2.95-3.139-4.262-2.555-1.752-4.908-.534-5.007-.481a.685.685 0 00-.28.943c.189.338.62.464.964.283.065-.034 1.698-.847 3.518.395 1.566 1.071 2.616 3.606 2.626 3.63a.713.713 0 00.365.377"/><path fill="#fff" d="M94.282 458.232c.17.076.37.088.558.017a.688.688 0 00.394-.902c-.048-.121-1.217-2.95-3.138-4.263-2.557-1.752-4.908-.536-5.007-.483a.686.686 0 00-.28.944c.189.339.62.465.965.281.064-.031 1.698-.845 3.517.398 1.573 1.076 2.615 3.604 2.626 3.631.07.173.205.304.365.377M88.855 461.042c.17.079.37.091.558.019a.689.689 0 00.394-.904c-.049-.12-1.217-2.948-3.138-4.261-2.557-1.754-4.908-.535-5.007-.482a.685.685 0 00-.28.943.72.72 0 00.965.281c.063-.031 1.698-.845 3.518.398 1.571 1.076 2.615 3.604 2.625 3.629.07.175.205.306.365.377z"/><path fill="#3F77C4" d="M139.597 476.297s4.86-1.475 6.219-1.501c1.357-.027 10.84 9.58 13.924 10.048 5.595.849 5.932 9.342 2.569 9.896-9.725 1.601-26.601-1.793-26.601-1.793s-1.965-10.839-1.429-14.286c.536-3.447 2.628-1.252 5.318-2.364"/><path fill="#fff" d="M148.053 485.285a.695.695 0 01-.528-.076.657.657 0 01-.22-.913c.066-.104 1.634-2.567 3.655-3.483 2.691-1.22 4.699.313 4.783.38.293.227.34.645.106.932a.686.686 0 01-.952.105c-.054-.041-1.453-1.077-3.37-.21-1.648.744-3.055 2.951-3.068 2.972a.679.679 0 01-.406.293"/><path fill="#fff" d="M146.103 483.35a.685.685 0 01-.527-.076.655.655 0 01-.221-.913c.065-.105 1.633-2.568 3.654-3.483 2.694-1.221 4.699.312 4.784.378.292.228.34.646.106.933a.686.686 0 01-.952.106c-.055-.042-1.455-1.078-3.371-.211-1.655.748-3.053 2.949-3.068 2.972a.674.674 0 01-.405.294zM150.733 486.893a.682.682 0 01-.526-.077.656.656 0 01-.222-.913c.067-.105 1.634-2.567 3.655-3.483 2.693-1.222 4.699.313 4.784.378.292.23.339.647.105.934a.686.686 0 01-.952.104c-.054-.04-1.454-1.076-3.37-.211-1.655.749-3.055 2.952-3.068 2.973a.682.682 0 01-.406.295"/><path fill="#343054" d="M152.795 205.053s7.194 11.142 6.405 22.75c-.788 11.606 1.061 25.004-9.325 24.416-10.386-.59-28.91 4.164-34.799-4.876-5.887-9.04 37.719-42.29 37.719-42.29"/><path fill="#1C1A2C" d="M155.461 225.541s1.867 16.824-6.116 21.456c-7.984 4.632-13.761-.539-13.761-.539s16.828-23.45 19.877-20.917z"/><path fill="#F36156" d="M122.3 225.462s-2.867-3.821-4.997-.661c-2.132 3.161.881 12.496 6.1 10.217l-1.103-9.556z"/><path fill="#F04147" d="M122.264 232.133a.442.442 0 01-.425-.322c-.81-2.882-3.795-4.05-3.824-4.062a.44.44 0 11.312-.824c.14.052 3.429 1.33 4.361 4.648a.442.442 0 01-.305.544l-.119.016"/><path fill="#F04147" d="M119.249 230.681l-.238-.071a.442.442 0 01-.132-.609c.022-.033.55-.839 1.656-1.333a.44.44 0 01.36.804c-.855.382-1.271 1.001-1.275 1.006a.437.437 0 01-.371.203"/><path fill="#F36156" d="M151.841 225.462s2.867-3.821 4.999-.661c2.132 3.161-.883 12.496-6.101 10.217l1.102-9.556z"/><path fill="#F04147" d="M151.879 232.133a.44.44 0 00.424-.322c.809-2.882 3.794-4.05 3.825-4.062a.44.44 0 00-.313-.824c-.139.052-3.43 1.33-4.362 4.648a.442.442 0 00.306.544l.12.016"/><path fill="#F04147" d="M154.892 230.681l.239-.071a.44.44 0 00.132-.609c-.022-.033-.55-.839-1.655-1.333a.44.44 0 10-.36.804c.855.382 1.269 1.001 1.273 1.006a.44.44 0 00.371.203"/><path fill="#F49477" d="M144.127 242.936v9.282s-2.768 4.728-6.512 5.05c-3.74.326-7.063-4.071-7.063-4.071v-9.609l13.575-.652"/><path fill="#F36156" d="M144.127 242.936v4.118c-2.512 2.788-6.972 3.775-13.574 2.802l-.001-6.268 13.575-.652z"/><path fill="#F49477" d="M153.915 219.095c-.172 3.608-.516 8.118-1.204 11.726-.172.9-.367 1.747-.583 2.506-1.953 6.84-6.84 18.57-20.519 13.684-6.042-2.156-8.842-8.887-10.09-15.731-.848-4.648-.975-9.345-.914-12.701a9.69 9.69 0 014.918-8.247c8.074-4.577 16.594-2.871 22.204-.715a9.664 9.664 0 016.188 9.478"/><path fill="#343054" d="M131.047 226.896c0 .992-.511 1.794-1.142 1.794-.629 0-1.14-.802-1.14-1.794 0-.991.511-1.794 1.14-1.794.631 0 1.142.803 1.142 1.794zM145.133 226.896c0 .992-.51 1.794-1.141 1.794-.629 0-1.14-.802-1.14-1.794 0-.991.511-1.794 1.14-1.794.631 0 1.141.803 1.141 1.794zM127.647 220.927c.948-.268 2.861-.726 4.88-.732a.85.85 0 01.844.994l-.003.012a.845.845 0 01-.872.694c-1.373-.064-4.98.129-6.683.82-.034-.298.142-.62.388-.908.376-.436.891-.724 1.446-.88M146.077 220.963c-.948-.268-2.861-.726-4.88-.731a.848.848 0 00-.844.993l.003.014a.845.845 0 00.872.693c1.373-.064 4.98.129 6.683.818.033-.296-.142-.619-.39-.907-.374-.435-.89-.724-1.444-.88"/><path fill="#F36156" d="M137.224 234.195c-.337 0-.676-.06-.959-.23-.257-.154-.578-.466-.641-1.076-.168-1.621.247-6.701.265-6.917a.44.44 0 11.879.072c-.004.052-.427 5.215-.267 6.755.028.266.138.362.218.409.413.248 1.369-.005 1.768-.167a.439.439 0 01.574.242.443.443 0 01-.241.576c-.113.046-.852.336-1.596.336z"/><path fill="#fff" d="M131.624 236.978c.333 1.678 1.441 4.764 5.175 4.764 3.741 0 4.79-2.82 5.152-4.764h-10.327z"/><path fill="#F36156" d="M136.745 244.316c-1.078 0-2.029-.58-2.069-.605a.441.441 0 01.463-.751c.008.005.784.475 1.606.475.89 0 1.686-.472 1.694-.476a.44.44 0 01.456.754c-.04.026-1.008.603-2.15.603"/><path fill="#343054" d="M155.691 218.376c-.143.401-.536.659-1.063.813.039.974-.064 2.143-.159 3.264-.545 6.375-2.152 7.494-2.516 5.918-.24-1.047-.225-7.05-.11-9.007-1.259-.084-2.335-.293-2.335-.293l-1.479-6.188-.517 6.112c-2.217.77-7.392-.466-7.392-.466l-1.735-6.098-1.074 5.869c-3.326 1.619-7.483.54-7.483.54l-.955-6.329-2.206 6.329s-7.095 2.547-7.172 0c-.048-1.481 1.037-5.652 1.954-8.884.999-3.525 3.315-6.503 6.446-8.181 8.801-4.724 18.109-2.212 21.302-.304 6.771 4.041 6.494 16.905 6.494 16.905"/><path fill="#343054" d="M123.403 205.524s-5.842 6.948-7.764 19.356c-1.922 12.409-4.583 21.578 2.894 25.676 8.094 4.433 7.394-4.662 7.276-7.134-.116-2.472-7.001-9.228-2.406-28.258 1.484-6.144 0-9.64 0-9.64z"/><path fill="#1C1A2C" d="M122.037 231.167v.014c.003.092.01.586.046 1.358.017.478.046 1.061.09 1.724.275 4.18 1.088 11.4 3.478 13.904.942.99 2.761 1.488 4.902 1.689v-3.285c-2.256-1.071-4.016-2.83-5.378-4.994-.843-1.825-2.295-4.681-2.975-9.172l-.163-1.238"/><path fill="#fff" d="M154.02 235.227a1.033 1.033 0 11-2.066.002 1.033 1.033 0 012.066-.002z"/><path fill="#F7941D" d="M465.332 146.25h-25.344a3.522 3.522 0 01-3.521-3.524v-25.342a3.522 3.522 0 013.521-3.523h25.344a3.523 3.523 0 013.524 3.523v25.342a3.524 3.524 0 01-3.524 3.524z"/><path fill="#F0B93A" d="M463.689 130.056a10.98 10.98 0 01-2.525 7.021 11.004 11.004 0 01-8.504 4.007 11.008 11.008 0 01-8.503-4.006 10.988 10.988 0 01-2.524-7.022c0-6.092 4.938-11.028 11.027-11.028 6.091 0 11.029 4.936 11.029 11.028"/><path fill="#fff" d="M461.164 137.077a11.004 11.004 0 01-8.504 4.007 11.008 11.008 0 01-8.503-4.006l.148-.293a3.89 3.89 0 012.334-1.961c1.794-.548 3.461-1.103 4.394-2.707-1.136-.535-1.894-1.605-2.212-2.36-1.248.267-2.144-2.043-1.477-2.655.253-.232.512-.297.737-.284.206-2.348 2.176-4.446 4.579-4.446 2.403 0 4.375 2.098 4.581 4.446.226-.013.483.052.735.284.668.612-.228 2.922-1.476 2.655-.272.843-1.208 1.859-2.052 2.215.935 1.604 2.439 2.304 4.236 2.852.507.153.969.408 1.365.742.398.334.728.747.967 1.219l.148.292"/><path fill="#F7941D" d="M44.5 318.476H19.156a3.522 3.522 0 01-3.523-3.521v-25.344a3.523 3.523 0 013.523-3.523H44.5a3.523 3.523 0 013.522 3.523v25.344a3.521 3.521 0 01-3.522 3.521z"/><path fill="#fff" d="M31.826 300.761a2.993 2.993 0 11.001-5.986 2.993 2.993 0 010 5.986zm.487-9.217a7.092 7.092 0 00-7.576 7.072c0 1.32.361 2.556.992 3.616.938 1.58 1.906 3.144 2.797 4.752l3.36 6.053 5.122-9.241c.301-.542.626-1.066.939-1.599a7.013 7.013 0 00.97-3.755c-.086-3.63-2.981-6.66-6.604-6.898"/><path fill="#3F77C4" d="M576.687 169.109a4.967 4.967 0 004.961-4.962 4.968 4.968 0 00-4.961-4.962 4.969 4.969 0 00-4.963 4.962 4.968 4.968 0 004.963 4.962zm0-12.192c3.986 0 7.23 3.243 7.23 7.23 0 3.988-3.244 7.23-7.23 7.23-3.988 0-7.231-3.242-7.231-7.23 0-3.987 3.243-7.23 7.231-7.23z"/><path fill="#F7941D" d="M550.658 143.744a4.968 4.968 0 004.962-4.963 4.967 4.967 0 00-4.962-4.961 4.967 4.967 0 00-4.962 4.961 4.967 4.967 0 004.962 4.963zm0-12.192c3.986 0 7.23 3.244 7.23 7.229 0 3.988-3.244 7.231-7.23 7.231s-7.23-3.243-7.23-7.231c0-3.985 3.244-7.229 7.23-7.229z"/><path fill="#3F77C4" d="M541.725 108.057c.627 0 1.135.508 1.135 1.135v5.001a1.135 1.135 0 11-2.269 0v-5.001c0-.627.508-1.135 1.134-1.135zM541.725 99.305c.627 0 1.135.508 1.135 1.135v5.001a1.134 1.134 0 01-2.269 0v-5.001c0-.627.508-1.135 1.134-1.135zM534.706 106.182h4.492a1.134 1.134 0 110 2.268h-4.492a1.134 1.134 0 010-2.268zM544.252 106.182h4.495a1.134 1.134 0 010 2.268h-4.495a1.134 1.134 0 010-2.268z"/><path fill="#F7941D" d="M581.648 136.083c.627 0 1.135.507 1.135 1.134v5.001a1.135 1.135 0 01-2.268 0v-5.001c0-.627.508-1.134 1.133-1.134zM581.648 127.331c.627 0 1.135.506 1.135 1.133v5.001a1.135 1.135 0 11-2.268 0v-5.001c0-.627.508-1.133 1.133-1.133zM574.628 134.207h4.493c.627 0 1.133.508 1.133 1.134 0 .627-.506 1.134-1.133 1.134h-4.493a1.134 1.134 0 110-2.268zM584.176 134.207h4.492a1.135 1.135 0 110 2.268h-4.492a1.133 1.133 0 110-2.268z"/><path fill="#3F77C4" d="M128.94 66.862a4.968 4.968 0 00-4.963 4.963 4.967 4.967 0 004.963 4.962 4.967 4.967 0 004.961-4.962 4.968 4.968 0 00-4.961-4.963zm0-2.267c3.985 0 7.229 3.243 7.229 7.23 0 3.987-3.244 7.23-7.229 7.23-3.988 0-7.231-3.243-7.231-7.23 0-3.987 3.243-7.23 7.231-7.23z"/><path fill="#F7941D" d="M102.607 42.981a4.967 4.967 0 00-4.962 4.961 4.968 4.968 0 004.962 4.963 4.968 4.968 0 004.962-4.963 4.967 4.967 0 00-4.962-4.96zm0-2.268c3.986 0 7.23 3.243 7.23 7.23 0 3.986-3.244 7.23-7.23 7.23-3.987 0-7.23-3.244-7.23-7.23 0-3.987 3.243-7.23 7.23-7.23z"/><path fill="#3F77C4" d="M93.07 82.041c0 .626.507 1.134 1.134 1.134h5.001a1.134 1.134 0 000-2.268h-5.001c-.627 0-1.134.508-1.134 1.134zM84.317 82.041c0 .626.508 1.134 1.134 1.134h5.002a1.134 1.134 0 000-2.268H85.45c-.626 0-1.134.508-1.134 1.134zM91.194 75.02v4.493a1.134 1.134 0 002.269 0V75.02a1.135 1.135 0 00-2.27 0zM91.194 84.568v4.493a1.134 1.134 0 002.269 0v-4.493a1.135 1.135 0 00-2.27 0z"/><path fill="#F7941D" d="M146.031 42.981c0 .627.508 1.133 1.134 1.133h5.002a1.133 1.133 0 100-2.267h-5.002c-.626 0-1.134.508-1.134 1.134zM137.279 42.981c0 .627.508 1.133 1.134 1.133h5.002a1.133 1.133 0 000-2.267h-5.002c-.626 0-1.134.508-1.134 1.134zM144.156 35.961v4.492a1.134 1.134 0 102.268 0v-4.492a1.135 1.135 0 00-2.268 0zM144.156 45.508V50a1.134 1.134 0 102.268 0v-4.493a1.134 1.134 0 00-2.268 0z"/><path fill="#CFE6F4" d="M447.511 77.885c.152.036.314.037.476-.001 1.717-.423 2.712-.594 2.721-.596.521-.088.865-.555.771-1.043-.094-.488-.591-.812-1.111-.724-.043.007-1.068.183-2.865.624-.512.127-.818.618-.684 1.098a.931.931 0 00.692.642M391.94 119.042a85.853 85.853 0 00-2.551 4.702c-.198.394-.665.59-1.1.486l-.174-.058c-.476-.212-.682-.747-.456-1.196a86.665 86.665 0 012.604-4.798c.253-.434.832-.594 1.298-.356.464.239.634.786.379 1.22M387.14 128.581a91.576 91.576 0 00-1.948 4.952c-.163.447-.661.698-1.141.583l-.074-.02c-.5-.159-.768-.668-.598-1.139a93.084 93.084 0 011.986-5.046c.198-.46.756-.683 1.246-.498.489.184.726.707.529 1.168zM379.029 154.885c-.462-.109-.774-.529-.713-.985.245-1.787.533-3.575.857-5.313.091-.488.587-.815 1.108-.73.527.088.868.551.778 1.039a110.655 110.655 0 00-.844 5.233c-.068.492-.547.84-1.071.776l-.115-.02M382.871 137.473c.509.135.806.63.664 1.108a98.248 98.248 0 00-1.374 5.127c-.116.484-.628.788-1.142.68l-.027-.007c-.5-.118-.811-.592-.697-1.068a103.298 103.298 0 011.398-5.216c.139-.47.654-.748 1.155-.628l.023.004M394.793 114.498a.987.987 0 01-1.042.391l-.278-.112c-.445-.265-.58-.82-.297-1.24a85.746 85.746 0 013.219-4.46c.309-.403.908-.492 1.336-.2a.862.862 0 01.213 1.253 83.529 83.529 0 00-3.151 4.368M442.619 79.413a92.996 92.996 0 00-5.264 1.864 1.012 1.012 0 01-.6.041.944.944 0 01-.65-.528c-.201-.458.031-.984.519-1.173A96.153 96.153 0 01442 77.713c.5-.16 1.044.09 1.215.559.17.47-.095.98-.596 1.141M427.224 85.876c-.223.116-.473.14-.701.087a.959.959 0 01-.602-.434c-.256-.433-.092-.98.371-1.222 1.664-.871 3.377-1.709 5.092-2.487.476-.215 1.047-.03 1.277.417.231.447.031.984-.445 1.2a98.789 98.789 0 00-4.992 2.439M409.081 98.279a1.003 1.003 0 01-1.352-.042.859.859 0 01.044-1.27 91.32 91.32 0 014.311-3.558 1 1 0 011.347.12.863.863 0 01-.128 1.266 88.844 88.844 0 00-4.222 3.484zM417.747 91.56a1.008 1.008 0 01-.799.145.957.957 0 01-.537-.343c-.312-.4-.216-.962.21-1.254a95.665 95.665 0 014.743-3.036c.445-.267 1.037-.144 1.321.273.286.419.155.974-.29 1.24a93.72 93.72 0 00-4.648 2.975M401.384 105.961a.996.996 0 01-.972.298.986.986 0 01-.376-.178.862.862 0 01-.125-1.265 87.095 87.095 0 013.796-4.041 1.001 1.001 0 011.353-.039c.385.34.404.908.041 1.269a86.09 86.09 0 00-3.717 3.956"/><path fill="#3F77C4" d="M448.463 71.806l-1.935-14.969 50.713 7.273-48.778 7.697z"/><path fill="#3A65B9" d="M497.241 64.11l-46.848 11.507-.124.032-2.353 2.698.547-6.54 48.778-7.698"/><path fill="#3751AB" d="M447.916 78.347l4.211-.052-1.858-2.646-2.353 2.698z"/><path fill="#3F77C4" d="M456.164 74.2l-5.896 1.45 9.591 13.654 37.382-25.194-41.077 10.09z"/></svg>
