<svg xmlns="http://www.w3.org/2000/svg" fill="none" viewBox="0 0 1081 650"><g clip-path="url(#a)"><path fill="#F3F2F1" d="M649.035 605.586a1577.943 1577.943 0 00-184.945-1.362l-2.815 1.177c25.916 15.708 58.638 11.537 88.679 15.542 18.105 2.415 35.738 7.961 53.943 9.433 18.205 1.473 37.988-1.824 51.108-14.525 1.389-1.345 2.771-2.993 2.724-4.925-.094-3.75-4.948-5.091-8.694-5.34zM980.49 623.12c-5.783-3.358-12.725-3.895-19.399-4.355-12.197-.838-24.394-1.678-36.591-2.518-9.987-.686-20.218-1.35-29.834 1.433-9.615 2.783-18.653 9.76-21.01 19.487l-.065.318c17.342 3.558 34.764 7.127 52.44 8.049 17.679.924 35.767-.897 52.084-7.764 3.431-1.442 7.254-3.797 7.411-7.516.13-3.059-2.388-5.596-5.036-7.134M275.359 603.51c-5.785-3.359-12.725-3.896-19.399-4.355l-36.592-2.518c-9.986-.686-20.217-1.35-29.834 1.431-9.616 2.783-18.652 9.761-21.011 19.487l-.063.318c17.342 3.558 34.762 7.128 52.44 8.051 17.679.922 35.766-.898 52.082-7.764 3.433-1.444 7.256-3.798 7.413-7.516.13-3.061-2.387-5.596-5.036-7.134"/><path fill="#DADBD8" d="M90.025 246.879l-13.115 4.022s3.378 11.01-8.007 14.715c-5.91 1.926-10.187-1.022-12.353-3.62-2.517-3.016-3.287-7.099-2.324-10.905 1.099-4.349 4.952-9.177 14.269-10.33l-9.07-29.564-12.968 3.977 5.312 17.318s-16.746 10.277-10.599 30.316c5.883 19.172 24.447 18.351 31.809 16.095 5.63-1.728 24.39-8.968 17.046-32.024M40.661 196.843l13.161-4.036 3.77 12.289-13.161 4.036-3.77-12.289zM353.951 468.938l-7.395 2.265s1.904 6.209-4.515 8.299c-3.334 1.085-5.745-.577-6.968-2.042-1.418-1.702-1.852-4.002-1.31-6.149.621-2.452 2.793-5.175 8.047-5.825l-5.115-16.672-7.313 2.242 2.995 9.766s-9.443 5.796-5.976 17.095c3.317 10.813 13.786 10.35 17.937 9.076 3.175-.971 13.753-5.056 9.613-18.055M326.114 440.72l7.421-2.276 2.127 6.93-7.422 2.275-2.126-6.929zM959.367 15.163l7.726-.389s-.327-6.484 6.408-6.94c3.499-.236 5.431 1.964 6.256 3.684.96 1.996.817 4.334-.235 6.283-1.202 2.227-3.974 4.334-9.227 3.679l.877 17.416 7.64-.386-.514-10.2s10.575-3.309 9.98-15.114C987.709 1.902 977.446-.21 973.11.006c-3.318.168-14.575 1.538-13.743 15.157zM979.45 49.333l-7.754.39-.365-7.238 7.752-.392.367 7.24M314.957 20.578l7.728-.39s-.327-6.485 6.407-6.94c3.498-.237 5.43 1.964 6.256 3.684.959 1.997.817 4.335-.236 6.283-1.201 2.227-3.974 4.334-9.227 3.678l.877 17.416 7.639-.383-.513-10.202s10.575-3.31 9.98-15.114C343.3 7.316 333.037 5.203 328.699 5.42c-3.315.168-14.573 1.538-13.742 15.158M335.04 54.747l-7.754.39-.364-7.239 7.754-.39.364 7.24z"/><path fill="#E7E8E5" d="M1061.19 143.337l-11.67 7.21s6.06 9.796-4.02 16.262c-5.23 3.36-10.11 1.59-12.87-.375-3.19-2.28-4.97-6.034-5.01-9.961-.03-4.486 2.47-10.131 11.19-13.606l-16.26-26.304-11.54 7.131 9.53 15.408s-13.6 14.181-2.58 32.01c10.55 17.059 28.3 11.567 34.85 7.52 5.01-3.096 21.32-14.85 8.38-35.295M1000.76 107.428l11.71-7.237 6.76 10.935-11.71 7.234-6.76-10.932"/><path fill="#FAFAF9" d="M349.718 247.607l8.382 6.162s5.176-7.036 12.583-1.786c3.848 2.728 3.988 6.664 3.387 9.157-.698 2.898-2.835 5.214-5.589 6.35-3.147 1.299-7.828 1.139-12.747-4.009l-13.898 18.897 8.29 6.095 8.141-11.071s13.836 5.542 23.256-7.268c9.015-12.256.114-23.184-4.592-26.642-3.599-2.646-16.499-10.786-27.213 4.115M341.585 300.295l-8.412-6.185 5.776-7.855 8.413 6.183-5.777 7.857M795.306 32.51l8.383 6.16s5.176-7.036 12.583-1.786c3.848 2.728 3.988 6.664 3.387 9.157-.698 2.898-2.835 5.214-5.59 6.35-3.144 1.299-7.827 1.139-12.746-4.01l-13.9 18.9 8.29 6.092 8.143-11.07s13.836 5.542 23.258-7.268c9.011-12.256.112-23.184-4.594-26.642-3.599-2.646-16.499-10.786-27.214 4.116zM787.174 85.196l-8.414-6.184 5.778-7.855 8.413 6.183-5.777 7.856z"/><path fill="#17282F" d="M1054.65 586.609c0 .223-231.968.402-518.044.402-286.176 0-518.091-.179-518.091-.402 0-.221 231.915-.401 518.091-.401 286.076 0 518.044.18 518.044.401z"/><path fill="#FA5252" d="M390.843 356.922v43.611h-98.917v186.114h-47.924V156.682h170.802v43.61H291.926v156.63h98.917zM467.788 458.888h95.848l-48.538-248.152-47.31 248.152zm-6.144 41.153l-16.588 86.608h-44.237l82.328-429.967h69.43l82.328 429.967h-47.923l-16.588-86.608h-108.75zM702.887 258.034v227.267c0 39.312 16.586 62.038 50.994 62.038 35.019 0 50.995-22.726 50.995-62.038V258.034c0-38.699-15.976-62.04-50.995-62.04-34.408 0-50.994 23.341-50.994 62.04zm149.912 2.456v222.353c0 26.412-5.529 49.754-16.589 66.953 4.914 10.442 12.902 13.513 26.419 13.513h6.145v42.382h-7.988c-27.033 0-44.851-9.828-54.681-27.641-13.518 7.986-31.336 12.899-52.224 12.899-65.742 0-98.304-42.997-98.304-108.106V260.49c0-65.724 32.562-108.107 98.304-108.107 66.354 0 98.918 42.383 98.918 108.107z"/><path fill="#E03131" d="M272.524 586.647h19.401V400.783h-19.401v185.864zM390.843 400.533h-19.401v-43.361h-98.918V244.899c5.789-6.158 10.114-10.882 10.114-10.882l-1.429-1.283c5.684-7.805 10.162-14.926 10.162-14.926l-15.139-4.293-3.708 2.448v-15.421h19.402v156.38h98.917v43.611zM414.804 200.292h-19.4v-43.36H245.881c-.018-.083-.035-.168-.054-.25h168.977v43.61M620.571 542.427a23.379 23.379 0 00-.748-.644c-3.308-2.626-7.328-4.404-11.587-5.531-2.13-.587-4.368-.843-6.625-.954-2.061 0-4.153.109-6.215.504l-72.595-379.12h-39.654 69.431L626.279 541.6l-5.708.827M420.544 586.649h-5.262l1.116-5.828a72.41 72.41 0 004.146 5.828zm32.685-42.671c-6.146-1.793-11.73-2.558-16.702-2.558-4.935 0-9.271.753-12.966 2.006l8.309-43.385h29.774l-8.415 43.937M533.861 458.888h-95.847l47.31-248.152 15.077 77.087-32.613 171.065h66.073M868.774 605.691h-7.988c-22.127 0-38.08-6.584-48.532-18.741-.195-.225-.384-.452-.574-.68a52.747 52.747 0 01-5.575-8.22c-13.518 7.986-31.336 12.899-52.224 12.899-11.697 0-22.34-1.36-31.94-3.964a103.72 103.72 0 01-2.622-.751c-42.601-12.826-63.742-50.931-63.742-103.391V260.49c0-65.724 32.562-108.107 98.304-108.107 46.562 0 76.487 20.874 90.195 56.034-10.292 23.306-29.379 76.985-27.699 85.045 1.569 7.533 18.128 20.874 27.827 27.681v.004c.002.321.091 18.453 4.153 27.557 1.094 2.453 2.613 4.802 4.442 7.038v127.101c0 26.412-5.529 49.754-16.589 66.953 4.914 10.442 12.902 13.513 26.419 13.513h6.145v42.382zm-165.887-120.39c0 39.312 16.586 62.038 50.994 62.038 35.019 0 50.995-22.726 50.995-62.038V258.034c0-38.699-15.976-62.04-50.995-62.04-34.408 0-50.994 23.341-50.994 62.04v227.267z"/><path fill="#FA5252" d="M438.014 458.888h95.847l-48.537-248.152-47.31 248.152zm-6.144 41.153l-16.588 86.608h-44.236l82.327-429.967h69.428l82.332 429.967H557.21l-16.591-86.608H431.87zM371.442 357.172v43.611h-98.918v186.115h-47.923V156.932h170.803v43.61h-122.88v156.63h98.918zM673.111 257.622v227.267c0 39.312 16.588 62.038 50.994 62.038 35.021 0 50.996-22.726 50.996-62.038V257.622c0-38.697-15.975-62.038-50.996-62.038-34.406 0-50.994 23.341-50.994 62.038zm149.913 2.457v222.352c0 26.413-5.529 49.756-16.588 66.955 4.914 10.44 12.902 13.512 26.418 13.512H839v42.381h-7.988c-27.033 0-44.853-9.828-54.683-27.639-13.516 7.984-31.334 12.899-52.224 12.899-65.74 0-98.302-42.999-98.302-108.108V260.079c0-65.723 32.562-108.106 98.302-108.106 66.355 0 98.919 42.383 98.919 108.106"/><path fill="#F3F2F1" d="M663.486 109.443H425.03c-13.502 0-24.446-10.941-24.446-24.438 0-13.498 10.944-24.44 24.446-24.44h238.456c13.502 0 24.447 10.942 24.447 24.44 0 13.497-10.945 24.438-24.447 24.438"/><path fill="#FA5252" d="M425.03 60.565c-13.502 0-24.446 10.942-24.446 24.44 0 13.497 10.944 24.438 24.446 24.438h42.09V60.565h-42.09z"/><path fill="#fff" d="M430.587 74.227c-5.316 0-9.64 4.322-9.64 9.636 0 5.314 4.324 9.636 9.64 9.636 5.314 0 9.639-4.322 9.639-9.636 0-5.314-4.325-9.636-9.639-9.636zm0 20.428c-5.953 0-10.796-4.842-10.796-10.792 0-5.952 4.843-10.792 10.796-10.792 5.953 0 10.795 4.84 10.795 10.792 0 5.95-4.842 10.792-10.795 10.792z"/><path fill="#fff" d="M446.978 96.603l-8.298-6.546.717-.908 8.296 6.548-.715.906"/><path fill="#17282F" d="M663.486 109.443s.552-.053 1.623-.123c.538-.011 1.201-.085 1.984-.233l1.272-.205c.445-.117.923-.241 1.429-.372 2.01-.549 4.473-1.461 7.017-3.17a23.93 23.93 0 007.271-7.509c1.104-1.653 1.891-3.61 2.603-5.683.592-2.115 1.016-4.394 1.039-6.806-.012-2.404-.294-4.92-1.059-7.421a24.863 24.863 0 00-3.659-7.21c-3.29-4.52-8.535-8.21-14.806-9.425-3.117-.666-6.436-.407-9.829-.452l-10.439.014-222.886.117c-5.343.062-10.675 1.785-14.806 5.114-4.156 3.256-7.225 7.86-8.471 12.928-1.346 5.044-.877 10.464 1.048 15.209 2.007 4.714 5.454 8.8 9.813 11.364 2.16 1.291 4.498 2.308 6.948 2.829 2.451.561 4.916.7 7.453.646 5.036.002 10.024.003 14.96.006 9.872.003 19.535.01 28.965.013l100.206.086 67.554.128 18.367.075 4.775.04c1.078.014 1.628.04 1.628.04s-.55.028-1.628.042l-4.775.04c-4.218.017-10.404.042-18.367.076-15.968.029-39.043.074-67.554.126l-100.206.086-28.965.014-14.96.005c-2.499.058-5.122-.082-7.629-.661-2.531-.538-4.947-1.585-7.179-2.918-4.502-2.646-8.063-6.86-10.14-11.732-1.993-4.905-2.474-10.5-1.088-15.713 1.289-5.238 4.458-9.997 8.75-13.361 4.268-3.437 9.782-5.223 15.301-5.283 87.029.045 165.827.086 222.886.117 3.566.005 7.047.008 10.439.014 3.372.056 6.723-.199 9.928.49 6.403 1.26 11.737 5.044 15.071 9.661a25.293 25.293 0 013.693 7.353c.768 2.547 1.044 5.107 1.044 7.548-.036 2.449-.478 4.762-1.089 6.904-.733 2.1-1.543 4.078-2.669 5.745a24.143 24.143 0 01-7.407 7.544c-2.582 1.703-5.076 2.6-7.108 3.125-.51.127-.99.245-1.44.358-.459.066-.885.126-1.282.185-.79.134-1.457.197-1.997.195-1.077.04-1.629.04-1.629.04"/><path fill="#fff" d="M154.784 30.272H65.91v86.102h30.494l15.363 17.107 12.684-17.107h30.333V30.272"/><path fill="#17282F" d="M154.784 30.272s.022.511.032 1.536c.01 1.053.02 2.574.036 4.55.017 4.03.045 9.904.078 17.388.036 15.076.09 36.628.155 62.626l.001.302h-.302l-30.333.03.266-.133-12.673 17.115-.251.339-.282-.314c-4.897-5.449-10.081-11.218-15.37-17.101l.263.115c-7.15.002-14.7.003-22.36.003h-8.49v-.356l.052-86.1v-.305l.304.001c26.731.063 48.977.119 64.564.156 7.739.034 13.821.061 17.997.078 2.049.017 3.626.028 4.718.036 1.063.01 1.595.034 1.595.034s-.578.023-1.661.035l-4.777.034-18.067.08-64.369.156.304-.305.051 86.1-.355-.354h8.135c7.659 0 15.209.001 22.36.003h.157l.105.115 15.357 17.116-.533.024 12.694-17.1.099-.134h.167l30.333.03-.302.3.156-62.435.077-17.456.035-4.607c.011-1.046.034-1.602.034-1.602"/><path fill="#FA5252" d="M95.737 62.547h7.899s0-6.63 6.892-6.749c3.578-.061 5.435 2.282 6.188 4.078.876 2.085.611 4.461-.562 6.395-1.34 2.209-4.276 4.215-9.598 3.278v17.804h7.809V76.925s10.955-2.831 10.955-14.9c0-11.547-10.359-14.228-14.792-14.228-3.39 0-14.94.818-14.791 14.75M114.46 98.422h-7.926v-7.4h7.926v7.4z"/><path fill="#33535F" d="M945.509 316.279c14.133 7.319 24.969 19.92 32.763 33.794 7.792 13.876 12.814 29.101 17.789 44.214l4.349 77.953c-16.441-27.968-29.639-60.847-33.206-93.092l10.943-.976c-7.337-1.119-13.496-6.434-17.414-12.737-3.918-6.3-5.935-13.568-7.905-20.723 4.451.663 8.902 1.324 13.351 1.985-10.454-6.977-18.034-18.131-20.67-30.418"/><path fill="#20353D" d="M1000.41 472.24c-16.44-27.968-29.639-60.847-33.206-93.092l10.943-.976c-4.431-.675-8.432-2.882-11.769-5.911-.2-5.704-.603-11.303-1.073-16.368.225-.27.432-.532.618-.786 3.203-4.329 4.395-10.477 4.09-17.617 3.058 3.986 5.81 8.222 8.259 12.583 7.792 13.876 12.815 29.101 17.789 44.214l4.349 77.953"/><path fill="#33535F" d="M1002.85 490.507s35.69-42.712 35.28-83.484h-14.42s15.66-10.298 14.42-16.063c-1.24-5.765-1.65-27.593-1.65-27.593l-13.18 3.293s9.89-4.942 11.12-12.766c1.24-7.826-2.88-44.068-2.88-44.068s-16.07 16.886-21.01 34.183c-4.94 17.299-17.921 37.478-14.11 90.195 3.81 52.718 6.43 56.303 6.43 56.303M984.752 494.538s-38.669-25.755-47.26-58.624l11.592-3.155s-14.845-4.851-15.11-9.758c-.266-4.909-4.712-22.546-4.712-22.546l11.321-.235s-9.03-1.81-11.737-7.831c-2.706-6.023-7.325-36.062-7.325-36.062s16.611 10.063 24.37 22.888c7.76 12.825 22.609 26.213 31.081 69.43 8.474 43.215 7.78 45.893 7.78 45.893"/><path fill="#17282F" d="M1021.79 347.065c.01.003-.01.158-.06.458-.06.344-.14.781-.24 1.332-.24 1.22-.57 2.925-.99 5.093-.46 2.21-.99 4.916-1.57 8.064-.6 3.146-1.31 6.723-2 10.692-1.46 7.928-3.02 17.398-4.64 27.928-1.57 10.54-3.16 22.147-4.58 34.36-1.4 12.222-2.51 23.887-3.38 34.51-.83 10.624-1.47 20.2-1.86 28.252-.23 4.023-.36 7.666-.5 10.865-.15 3.2-.24 5.955-.31 8.208-.08 2.208-.14 3.944-.19 5.187-.03.557-.05 1-.07 1.35-.02.302-.04.459-.05.459-.01-.001-.03-.157-.03-.461 0-.349-.01-.794-.01-1.351.01-1.244.02-2.982.04-5.192.02-2.256.07-5.013.17-8.216.1-3.2.19-6.848.39-10.876.31-8.059.9-17.647 1.68-28.284a967.01 967.01 0 013.32-34.542 992.013 992.013 0 014.65-34.38c1.66-10.533 3.28-20 4.82-27.918.72-3.967 1.47-7.539 2.1-10.678.63-3.143 1.21-5.84 1.71-8.04.49-2.156.87-3.853 1.15-5.066.13-.541.23-.974.31-1.313.08-.294.12-.444.14-.441"/><path fill="#33535F" d="M1007.8 516.66s32.66-37.052 42.8-59.45l-7.65-3.27c5.55.917 11.23-1.469 15.54-5.091 4.3-3.62 7.46-8.383 10.56-13.076l-10.09-1.703c9.17-2.573 17.26-8.832 22.04-17.067-11.9 1.957-22.67 8.493-31.54 16.661-7.19 6.615-13.27 14.295-19.12 22.142a75.65 75.65 0 00-7.42 12.201c-5.49 11.344-15.14 35.045-15.12 48.653"/><path fill="#17282F" d="M936.977 377.893c.014-.004.086.111.219.344.149.277.336.619.567 1.045.512.981 1.218 2.333 2.112 4.05 1.83 3.518 4.384 8.661 7.448 15.058 6.134 12.789 14.134 30.698 21.951 50.888 7.806 20.204 13.938 38.835 18.005 52.423 2.038 6.796 3.61 12.317 4.623 16.151l1.162 4.416c.114.471.208.849.282 1.154.059.261.083.397.069.401-.012.004-.063-.124-.147-.379l-.361-1.132a3906.91 3906.91 0 00-1.306-4.374c-1.105-3.808-2.759-9.302-4.865-16.069-4.202-13.537-10.414-32.119-18.209-52.303-7.811-20.168-15.717-38.091-21.718-50.934-2.996-6.424-5.47-11.6-7.215-15.16-.837-1.745-1.496-3.121-1.976-4.118l-.496-1.079c-.108-.246-.157-.376-.145-.382M1005.03 532.538c-.06-.006.01-.962.19-2.686.16-1.724.51-4.21 1.05-7.265 1.06-6.107 3.09-14.469 6.42-23.336 3.36-8.865 7.37-16.484 10.61-21.767 1.62-2.644 3-4.74 4.02-6.142 1.01-1.41 1.58-2.173 1.63-2.141.04.031-.45.854-1.37 2.313-.94 1.454-2.24 3.589-3.79 6.26-3.11 5.335-7.01 12.947-10.34 21.759-3.32 8.816-5.43 17.104-6.63 23.159-.6 3.028-1.03 5.493-1.29 7.202-.27 1.709-.45 2.65-.5 2.644z"/><path fill="#FA5252" d="M961.929 538.402h71.491v-14.579h-71.491v14.579zM1026.61 538.402l-7.74 49.038h-43.195l-7.208-49.038h58.143z"/><path fill="#17282F" d="M966.313 538.402c0-.222 13.525-.402 30.203-.402 16.684 0 30.204.18 30.204.402 0 .221-13.52.402-30.204.402-16.678 0-30.203-.181-30.203-.402z"/><path fill="#33535F" d="M83.715 460.372c16.239-16.616 41.681-23.597 64.128-17.596-19.499 13.07-41.411 20.074-64.886 20.267M105.466 383.369c-2.672-18.893 4.672-40.146 18.821-53.877.466 18.724-7.44 39.794-18.821 53.877zM94.151 419.057c10.083-19.268 26.634-35.08 46.343-44.277-5.906 21.753-24.516 39.548-46.516 44.478M91.81 425.943c11.413.319 22.963-.082 34.001-3.001 11.038-2.922 21.61-8.533 28.955-17.272-22.203.024-44.355 6.785-62.787 19.162M97.603 403.261c-5.793-21.708-15.353-36.724-32.42-48.888-1.29 10.561 1.306 21.555 7.187 30.424s14.998 15.541 25.233 18.464zM54.52 440.697c-.3-12.614 7.833-25.01 19.525-29.76-.948 11.209-9.756 24.177-19.526 29.76zM49.066 422.395c-1.297-18.132-14.184-34.91-31.374-40.842 3.942 18.14 14.434 33.242 31.374 40.842zM57.284 454.877c-4.026-5.758-10.594-9.338-17.39-11.115-6.796-1.778-13.897-1.935-20.921-2.082 9.476 10.423 23.702 16.347 37.776 15.729M65.441 501.147c-12.661-3.909-26.772-2.898-38.749 2.774C14.718 509.591 4.996 519.867 0 532.137c23.772-4.508 47.23-15.064 65.441-30.99zM91.531 485.064c-3.948 11.672-3.19 25.776 5.588 35.834 3.572-11.974 1.46-25.512-5.588-35.834zM106.951 478.582c1.099 15.005 10.695 29.1 24.255 35.625.672.324 1.453.635 2.144.351 1.07-.434 1.168-1.894 1.035-3.041-1.719-14.952-12.799-29.411-27.434-32.935zM117.024 477.067c6.677 7.214 16.416 11.498 26.247 11.547 9.83.049 19.612-4.133 26.362-11.279-16.723-1.829-36.018-3.05-52.609-.268"/><path fill="#17282F" d="M119.527 343.416c.011.005-.041.171-.153.49l-.509 1.415-2.017 5.412c-.901 2.343-1.939 5.231-3.141 8.584l-1.938 5.368c-.66 1.909-1.356 3.928-2.087 6.047-2.963 8.465-6.253 18.627-9.805 29.94a1213.052 1213.052 0 00-10.752 37.046 1123.886 1123.886 0 00-9.388 37.424c-2.607 11.569-4.848 22.011-6.467 30.834l-1.186 6.284-.956 5.625c-.606 3.512-1.125 6.536-1.473 9.019l-.877 5.71-.244 1.482c-.059.334-.094.504-.105.502-.011-.001.003-.174.04-.511l.181-1.492c.179-1.342.433-3.265.759-5.728.31-2.49.794-5.522 1.366-9.04l.908-5.636 1.143-6.298c1.563-8.838 3.76-19.298 6.337-30.882a1042.011 1042.011 0 019.345-37.461 1119.484 1119.484 0 0110.806-37.054c3.586-11.308 6.921-21.461 9.94-29.914l2.132-6.035 1.985-5.352c1.235-3.344 2.308-6.221 3.244-8.55.914-2.308 1.63-4.111 2.13-5.372l.569-1.392c.131-.311.204-.47.213-.465"/><path fill="#17282F" d="M27.674 391.237c.008-.006.105.085.288.272l.8.841c.698.743 1.71 1.856 2.973 3.326 2.524 2.936 6.087 7.289 9.846 13.124 3.76 5.817 7.612 13.227 10.295 22.019 2.758 8.767 4.47 18.73 6.175 29.142 3.4 20.848 7.573 39.516 10.592 53.022l3.622 15.987.964 4.353.236 1.136c.049.255.069.388.059.391-.011.003-.052-.125-.123-.377-.075-.288-.173-.655-.296-1.121l-1.081-4.324c-.913-3.807-2.216-9.242-3.82-15.943-3.134-13.481-7.38-32.152-10.784-53.018-1.705-10.416-3.394-20.347-6.106-29.073-2.637-8.748-6.42-16.124-10.115-21.952-3.693-5.841-7.193-10.225-9.654-13.206a188.093 188.093 0 00-2.879-3.4l-.752-.883c-.167-.202-.248-.308-.24-.316M122.02 476.356c.001.023-.206.059-.602.11-.469.054-1.041.117-1.731.191-.385.038-.803.08-1.251.123-.46.069-.954.143-1.479.224-1.061.157-2.271.311-3.59.605-.664.133-1.357.268-2.076.412-.715.182-1.457.368-2.223.562-1.548.352-3.147.917-4.852 1.432-3.362 1.179-6.982 2.694-10.59 4.663-3.594 1.997-6.776 4.3-9.493 6.595-1.319 1.192-2.59 2.31-3.643 3.495-1.126 1.115-2.038 2.274-2.881 3.325-.89 1.016-1.509 2.07-2.134 2.939-.636.865-1.093 1.668-1.462 2.326l-.887 1.496c-.21.339-.329.513-.349.504-.02-.009.061-.202.234-.562l.785-1.562c.338-.679.767-1.503 1.378-2.396.602-.894 1.201-1.975 2.076-3.02.829-1.079 1.732-2.267 2.853-3.412 1.047-1.213 2.319-2.358 3.643-3.577 2.727-2.347 5.937-4.69 9.57-6.709 3.646-1.992 7.311-3.506 10.712-4.663 1.725-.504 3.344-1.057 4.909-1.387l2.25-.53 2.099-.376c1.332-.265 2.554-.392 3.626-.515.53-.062 1.027-.119 1.492-.171.453-.025.874-.046 1.262-.068.696-.027 1.272-.052 1.744-.072.4-.009.61-.005.61.018M126.783 391.638c.029.034-.402.444-1.205 1.159l-3.442 2.987a1059.85 1059.85 0 01-11.511 9.662 1084.122 1084.122 0 01-11.634 9.523c-1.432 1.132-2.63 2.082-3.57 2.828-.853.656-1.337 1.001-1.365.967-.027-.034.404-.447 1.208-1.162l3.443-2.985c2.924-2.501 6.992-5.918 11.509-9.662 4.517-3.745 8.629-7.106 11.627-9.517l3.573-2.829c.852-.657 1.338-1.005 1.367-.971M130.894 413.753c.05.169-8.73 2.912-19.609 6.127-10.883 3.213-19.743 5.681-19.793 5.513-.05-.172 8.728-2.913 19.611-6.128 10.879-3.213 19.741-5.68 19.791-5.512zM98.472 404.949c-.038.023-.36-.427-.906-1.259-.618-.944-1.393-2.123-2.315-3.526a206.116 206.116 0 00-8.045-11.335 219.18 219.18 0 00-8.817-10.749 7486.375 7486.375 0 00-2.78-3.172c-.655-.75-1.002-1.182-.97-1.211.031-.032.44.34 1.152 1.04.715.697 1.719 1.735 2.935 3.039a149.101 149.101 0 018.988 10.664c3.308 4.332 6.048 8.441 7.918 11.479.936 1.521 1.667 2.764 2.147 3.641.482.872.731 1.365.693 1.389M67.979 417.223c.076.054-.748 1.326-2.06 3.388a193.231 193.231 0 00-4.935 8.164 195.252 195.252 0 00-4.5 8.415c-1.102 2.18-1.773 3.538-1.859 3.501-.076-.034.45-1.458 1.451-3.696 1.001-2.239 2.501-5.281 4.352-8.536 1.853-3.253 3.702-6.096 5.115-8.1 1.412-2.006 2.37-3.183 2.436-3.136"/><path fill="#17282F" d="M57.546 455.479c-.045.088-1.72-.73-4.462-1.963a137.709 137.709 0 00-10.895-4.363 138.637 138.637 0 00-11.24-3.384c-2.913-.746-4.732-1.15-4.714-1.245.009-.045.474.007 1.308.137.835.125 2.035.35 3.51.669 2.951.633 6.993 1.698 11.348 3.219 4.35 1.524 8.174 3.213 10.876 4.557 1.352.672 2.432 1.242 3.163 1.666.732.419 1.127.669 1.106.707zM65.76 501.216c.004.023-.182.085-.541.183-.435.109-.956.244-1.58.404-1.482.34-3.453.795-5.842 1.347-4.922 1.143-11.78 2.573-19.072 5.031-7.295 2.483-13.552 5.641-17.796 8.359a68.166 68.166 0 00-4.902 3.412c-1.124.857-1.736 1.345-1.769 1.307-.014-.017.12-.159.392-.416.277-.25.67-.636 1.22-1.085 1.075-.925 2.702-2.184 4.812-3.597 4.21-2.837 10.494-6.086 17.833-8.584 7.352-2.48 14.237-3.837 19.187-4.87 2.407-.47 4.392-.858 5.884-1.148 1.39-.26 2.164-.386 2.174-.343M95.46 512.489c-.174.026-1.22-6.132-2.335-13.75-1.115-7.624-1.877-13.82-1.702-13.847.174-.024 1.22 6.132 2.335 13.753 1.115 7.619 1.877 13.819 1.702 13.844M126.382 501.263c-.074.056-1.114-1.229-2.786-3.307a481.229 481.229 0 00-6.604-8.061 478.005 478.005 0 00-6.806-7.894c-1.76-2.005-2.847-3.248-2.78-3.313.032-.031.346.242.885.758a77.356 77.356 0 012.228 2.25 165.312 165.312 0 016.963 7.789 166.952 166.952 0 016.472 8.194 71.506 71.506 0 011.833 2.583c.418.619.63.977.595 1.001"/><path fill="#FA5252" d="M44.55 529.935v15.276h3.82l13.582 42.854H92.07l13.157-42.43 5.093-.424v-15.276H44.55z"/><path fill="#17282F" d="M107.774 545.635c0 .175-13.3.32-29.701.32-16.407 0-29.703-.145-29.703-.32 0-.176 13.296-.319 29.703-.319 16.402 0 29.701.143 29.701.319zM129.435 447.379c.008.043-.68.227-1.93.521-1.357.327-3.137.755-5.287 1.275a225.48 225.48 0 00-17.209 5.005 224.893 224.893 0 00-16.742 6.411c-2.025.886-3.703 1.618-4.982 2.179-1.174.521-1.834.789-1.853.749-.02-.038.603-.384 1.746-.975 1.14-.595 2.815-1.407 4.906-2.368 4.179-1.921 10.06-4.359 16.72-6.602 6.66-2.234 12.818-3.846 17.31-4.84 2.246-.498 4.072-.862 5.341-1.077 1.267-.221 1.972-.321 1.98-.278"/><path fill="#FAFAF9" d="M97.774 569.434c0 .177-9.33.32-20.838.32-11.51 0-20.84-.143-20.84-.32 0-.178 9.33-.319 20.84-.319 11.508 0 20.838.141 20.838.319zM98.946 565.89c0 .178-9.888.321-22.083.321-12.199 0-22.085-.143-22.085-.321 0-.177 9.886-.319 22.085-.319 12.195 0 22.083.142 22.083.319z"/><path fill="#C35959" d="M909.976 602.35l.672-17.034 29.693-1.116-.452 20.843-10.797 6.512-19.116-9.205"/><path fill="#33535F" d="M940.536 601.164l-.01 1.953s32.964 13.605 33.256 19.884l-65.706-.966 1.214-21.845c9.702 4.667 19.919 5.328 31.246.974z"/><path fill="#A6B7B9" d="M916.424 612.279c-1.129 0-2.244-.847-2.483-1.968-.259-1.205.51-2.521 1.656-2.956h-.002c.242-.125.509-.182.783-.182 1.053 0 2.218.832 2.55 1.823.418 1.252-.714 2.919-1.996 3.225a2.237 2.237 0 01-.508.058z"/><path fill="#FBFBFA" d="M973.782 623.001l-65.706-.966 65.706.966c-.04-.862-.7-1.866-1.805-2.954.833.543 2.045 1.584 1.805 2.954zm-65.706-.966l.291-5.253-.291 5.253z"/><path fill="#A6B7B9" d="M973.782 623.001l-65.706-.966.293-5.253 62.868 2.849s.322.147.74.416c1.105 1.088 1.765 2.092 1.805 2.954"/><path fill="#17282F" d="M940.751 603.305c-.014.32-1.62.441-3.216 1.45-1.618.966-2.452 2.344-2.747 2.213-.294-.068.213-1.977 2.163-3.165 1.941-1.202 3.875-.79 3.8-.498zM947.603 606.255c.069.312-1.331.838-2.439 2.179-1.15 1.308-1.446 2.77-1.765 2.75-.302.048-.496-1.835.916-3.476 1.395-1.652 3.284-1.759 3.288-1.453zM951.395 614.56c-.293.064-.716-1.546.134-3.291.837-1.75 2.361-2.421 2.494-2.151.176.265-.812 1.194-1.488 2.635-.709 1.427-.82 2.779-1.14 2.807"/><path fill="#C35959" d="M870.271 564.325l.468 50.971 23.507-1.69 5.159-49.659-29.134.378z"/><path fill="#33535F" d="M895.049 603.599s-16.524 11.473-24.555 1.591l-2.082 4.8-9.339 34.194c-.606 2.214.467 4.651 2.659 5.481 1.687.64 3.544.275 4.814-.906 6.794-6.318 31.666-29.686 31.413-32.845l-.113-8.393c-.023-1.739-1.13-3.291-2.797-3.922"/><path fill="#fff" d="M863.527 650c-.321 0-.643-.034-.961-.102.286.053.572.079.856.079a4.582 4.582 0 003.125-1.218 901.76 901.76 0 0011.046-10.454l.066.013a1034.186 1034.186 0 01-10.98 10.443 4.616 4.616 0 01-3.152 1.239z"/><path fill="#FBFBFA" d="M877.659 638.318l-.066-.013c6.994-6.741 14.949-14.673 18.493-19.165-2.34 3.014-7.646 8.756-18.427 19.178z"/><path fill="#fff" d="M897.618 616.935a4.07 4.07 0 00.159-.316c-.038.107-.08.209-.126.309l-.033.007z"/><path fill="#FBFBFA" d="M896.539 618.551c.472-.626.837-1.17 1.079-1.617l.033-.006c-.269.58-.672 1.065-1.112 1.623z"/><path fill="#fff" d="M897.959 615.829l-.039-2.787.047-.048-.005 1.834c.035.371.031.702-.003 1.001z"/><path fill="#A6B7B9" d="M863.422 649.977c-.284 0-.571-.026-.856-.079l-.021-.005 35.375-36.851.039 2.788a3.644 3.644 0 01-.182.79 4.448 4.448 0 01-.159.315c-.242.446-.607.991-1.079 1.616-.082.107-.166.213-.25.325l-.203.264c-3.544 4.492-11.5 12.424-18.493 19.165a892.853 892.853 0 01-11.047 10.454 4.578 4.578 0 01-3.124 1.218M894.224 612.185c-.874 0-1.76-.413-2.231-1.138-.673-1.043-.396-2.543.554-3.345.376-.398.94-.575 1.532-.575.851 0 1.76.367 2.258.972.845 1.028.341 2.984-.786 3.711a2.435 2.435 0 01-1.327.375"/><path fill="#17282F" d="M872.739 631.014c-.252.118-1.249-2.15-3.888-3.374-2.604-1.3-5.059-.695-5.115-.962-.038-.106.526-.441 1.565-.582 1.031-.146 2.534-.002 3.982.692 1.445.698 2.474 1.774 2.982 2.66.517.891.583 1.529.474 1.566M869.563 636.799c-.213.188-1.635-1.222-3.932-1.866-2.283-.697-4.267-.284-4.338-.553-.128-.221 2.013-1.135 4.618-.358 2.615.751 3.883 2.661 3.652 2.777M878.644 623.598c-.208.205-2.386-1.973-5.865-3.281-3.463-1.361-6.581-1.219-6.589-1.507-.072-.231 3.231-.828 6.946.624 3.729 1.413 5.724 4.044 5.508 4.164zM879.41 613.193c-.118.26-2.571-.743-5.763-.862-3.193-.16-5.728.624-5.823.356-.121-.213 2.436-1.468 5.866-1.305 3.431.135 5.862 1.61 5.72 1.811"/><path fill="#17282F" d="M871.826 612.241c-.055-.009-.044-.598.248-1.619.292-1.012.888-2.473 2.115-3.978.621-.705 1.306-1.633 2.632-1.972.659-.176 1.543.097 1.953.753.41.641.439 1.369.327 2.046-.56 2.692-3.437 4.874-6.63 4.701-3.194-.229-5.701-2.481-6.496-5.037-.159-.652-.205-1.426.269-2.084.472-.665 1.414-.794 2.021-.576 1.261.422 1.943 1.297 2.601 1.975a12.623 12.623 0 012.354 3.842c.376.991.445 1.577.391 1.589-.176.085-.706-2.287-3.257-4.981-.652-.632-1.392-1.416-2.311-1.667-.447-.126-.871-.022-1.102.307-.233.313-.242.864-.095 1.38.684 2.096 2.981 4.151 5.683 4.305 2.69.172 5.217-1.751 5.688-3.913.105-.521.062-1.074-.166-1.437-.225-.357-.64-.519-1.072-.431-.914.18-1.654.971-2.261 1.629-2.436 2.792-2.705 5.245-2.892 5.168M948.458 304.514l.507 5.618 13.715 24.586s6.134 36.943 2.88 61.562c-4.039 30.544-9.242 74.749-11.085 95.919-1.089 12.518-12.146 104.962-12.146 104.962l-33.475-.323s1.765-100.568 2.202-119.472c.339-14.827-.853-78.77-.853-78.77l-1.427-84.892 42.098-10.597-2.416 1.407"/><path fill="#17282F" d="M899.5 598.463l10.601-205.953 6.259-79.432-47.247-12.495-1.694 9.811s-17.258 42.563-16.676 55.05c1.631 34.995 5.986 124.762 5.986 124.762l10.858 107.573 31.913.684"/><path fill="#33535F" d="M911.962 320.085c-.03-.001-.071.267-.127.779-.055.608-.121 1.35-.198 2.244-.15 1.947-.316 4.772-.463 8.264-.305 6.983-.515 16.635-.675 27.293l-.43 27.291-.198 8.267c-.016.895-.03 1.639-.043 2.248 0 .515.013.787.042.789.029.002.071-.267.125-.778l.2-2.243c.148-1.951.316-4.774.463-8.264.305-6.985.513-16.636.672-27.298l.431-27.286c.081-3.394.147-6.186.198-8.27l.043-2.248c.001-.515-.012-.786-.04-.788M857.98 339.318c-.017.054.426.224 1.249.483.41.138.916.283 1.522.391.601.114 1.282.285 2.053.345 1.532.211 3.383.25 5.424.097a30.515 30.515 0 006.515-1.35 30.48 30.48 0 006.016-2.841c1.723-1.107 3.18-2.25 4.276-3.342.581-.511 1.022-1.058 1.432-1.51.42-.448.735-.872.979-1.228.501-.701.754-1.102.708-1.137-.125-.096-1.249 1.439-3.517 3.444-1.123 1.011-2.578 2.077-4.277 3.119a32.696 32.696 0 01-5.881 2.706 32.903 32.903 0 01-6.323 1.377c-1.984.191-3.788.212-5.295.08-3.017-.236-4.84-.786-4.881-.634M944.304 323.41c-.085.04.37 1.266 1.507 3.042 1.127 1.772 3.014 4.042 5.559 6.027 2.553 1.977 5.221 3.244 7.217 3.899 2 .662 3.301.801 3.319.707.094-.259-5.064-1.353-10.026-5.263-5.013-3.839-7.35-8.57-7.576-8.412M923.039 506.11c.048.097 1.642-.573 4.131-1.842 2.487-1.265 5.859-3.15 9.445-5.451 3.585-2.305 6.701-4.585 8.887-6.322 2.185-1.737 3.459-2.905 3.391-2.992-.076-.092-1.475.913-3.744 2.52a235.1 235.1 0 01-8.984 6.095 233.09 233.09 0 01-9.277 5.634c-2.406 1.395-3.903 2.249-3.849 2.358"/><path fill="#FAFAF9" d="M887.289 177.16l37.731-2.951 14.57 10.503-9.113 86.837 12.065 42.566h-67.533l-8.695-78.256 20.975-58.699"/><path fill="#33535F" d="M844.204 321.143c-9.699-6.807-26.258-20.149-27.827-27.681-2.065-9.91 27.255-88.764 33.036-95.369 5.782-6.607 33.079-19.385 33.079-19.385l1.527-2.482c1.651-2.681 4.125-8.086 7.276-8.086l.449 3.771.582 8.199c.726 4.252 3.925 23.805 7.515 33.936a89.3 89.3 0 015.13 29.014c.288 30.582.796 97.271-.154 106.137-1.239 11.559-6.385 33.965-6.385 33.965s-40.675-13.393-50.075-34.459c-4.099-9.184-4.153-27.56-4.153-27.56M1002.58 275.442S983.744 222.535 977.917 206c-5.116-14.512-16.025-17.95-16.025-17.95l-25.72-9.644c-1.031-3.952-5.93-7.268-9.708-8.332l-2.44-1.077-2.815 3.7s5.852 5.305 6.678 10.672c.462 3.019 2.193 15.037-.347 22.93-2.631 8.176-4.12 16.669-4.483 25.249-.749 17.678-1.558 46.98.69 57.372 3.304 15.275 13.361 89.237 13.361 89.237s23.093-15.316 28.815-23.05c6.846-9.253 4.501-26.797-1.995-44.616-.308-.849-.232-.421-.117.007.116.432.273.862.117-.007.673.299 1.346.548 2.017.702 13.536 3.115 18.123 6.384 31.862-5.341 13.743-11.726 4.773-30.41 4.773-30.41"/><path fill="#17282F" d="M882.358 190.515c.027.113-1.833.611-4.777 1.583a92.16 92.16 0 00-11.216 4.539 92.225 92.225 0 00-10.496 6.018c-2.585 1.715-4.125 2.869-4.196 2.78-.031-.04.32-.37.985-.936.661-.57 1.657-1.347 2.919-2.264 2.524-1.835 6.182-4.156 10.472-6.247 4.294-2.082 8.378-3.526 11.38-4.377 1.502-.427 2.729-.73 3.584-.898.856-.173 1.334-.245 1.345-.198M963.75 201.788c-.068.084-1.201-.75-3.071-2.034a89.627 89.627 0 00-7.521-4.648 89.596 89.596 0 00-7.963-3.846c-2.084-.888-3.399-1.395-3.365-1.498.029-.085 1.403.251 3.551 1.023 2.151.771 5.063 2.013 8.125 3.688 3.057 1.681 5.669 3.47 7.474 4.87 1.805 1.398 2.827 2.376 2.77 2.445zM885.659 313.009c.05.003.034.531-.038 1.493a9.977 9.977 0 01-.238 1.74c-.14.669-.248 1.449-.533 2.265-.244.829-.526 1.736-.951 2.662-.356.957-.9 1.9-1.437 2.912a29.771 29.771 0 01-4.559 5.864 29.72 29.72 0 01-5.966 4.434c-1.022.516-1.979 1.037-2.943 1.373-.937.404-1.848.667-2.684.892-.823.27-1.604.358-2.276.486-.674.139-1.263.182-1.745.197-.962.053-1.492.057-1.494.008-.015-.157 2.127-.201 5.374-1.181.81-.251 1.692-.534 2.597-.955.933-.35 1.856-.882 2.846-1.399a31.162 31.162 0 005.786-4.369 31.087 31.087 0 004.492-5.687c.538-.979 1.09-1.891 1.462-2.814.439-.895.741-1.771 1.011-2.574 1.05-3.225 1.138-5.366 1.296-5.347M853.341 219.095c-.196.043-1.215-3.95-2.279-8.917-1.065-4.968-1.768-9.028-1.573-9.069.194-.042 1.214 3.95 2.278 8.918 1.063 4.967 1.768 9.028 1.574 9.068zM970.23 199.135c.167.154-2.691 3.008-5.071 7.304-2.418 4.279-3.355 8.205-3.572 8.145-.088-.02.032-1.028.475-2.603.442-1.575 1.247-3.706 2.468-5.893 1.225-2.184 2.619-3.987 3.732-5.186 1.111-1.202 1.906-1.832 1.968-1.767M991.97 275.775c-.04.03-.555-.509-1.454-1.508a38.578 38.578 0 00-1.665-1.79c-.666-.68-1.393-1.488-2.276-2.298-1.707-1.683-3.856-3.565-6.342-5.523a82.582 82.582 0 00-8.534-5.75 82.7 82.7 0 00-9.239-4.533c-2.939-1.18-5.641-2.106-7.95-2.747-1.144-.361-2.206-.589-3.128-.829a38.344 38.344 0 00-2.381-.551c-1.315-.28-2.038-.459-2.032-.508.008-.049.748.035 2.083.233.669.09 1.482.221 2.417.433.937.203 2.013.397 3.175.73 2.343.583 5.086 1.466 8.064 2.623a76.441 76.441 0 019.353 4.525 76.425 76.425 0 018.582 5.853c2.486 2.005 4.618 3.942 6.291 5.683.868.84 1.574 1.677 2.216 2.386a28.192 28.192 0 011.58 1.881c.836 1.059 1.278 1.659 1.24 1.69"/><path fill="#17282F" d="M959.632 225.655c.199-.023 1.107 6.33 2.032 14.188.922 7.861 1.511 14.248 1.312 14.273-.197.023-1.105-6.328-2.029-14.189-.923-7.858-1.512-14.249-1.315-14.272M964.198 310.606c-.026.042-.638-.32-1.725-1.012-1.063-.723-2.613-1.769-4.365-3.275-1.747-1.503-3.754-3.429-5.537-5.932-1.81-2.476-3.382-5.498-4.56-8.827a50.911 50.911 0 01-1.488-4.928c-.382-1.637-.582-3.218-.881-4.693-.552-2.945-1.611-5.492-3.196-7.106-1.53-1.655-3.206-2.509-4.334-3.082-1.169-.501-1.827-.777-1.81-.829.012-.043.701.143 1.922.571 1.178.504 2.938 1.303 4.594 2.989 1.709 1.642 2.881 4.332 3.474 7.323.321 1.498.54 3.081.919 4.66a51.821 51.821 0 001.48 4.851c1.159 3.278 2.677 6.239 4.421 8.686 1.715 2.469 3.648 4.4 5.332 5.933 1.689 1.538 3.181 2.64 4.193 3.429 1.029.76 1.59 1.201 1.561 1.242"/><path fill="#C35959" d="M868.867 310.286s-15.025 6.458-10.13 14.387c3.367 5.454 10.324 10.343 10.324 10.343 7.026-4.032 11.963-8.25 15.393-16.035l-15.587-8.695z"/><path fill="#17282F" d="M844.204 321.143c.039-.057.971.678 2.93 1.612a24.466 24.466 0 008.978 2.197l-.222.187c.39-2.696 1.666-5.69 3.894-8.348 2.232-2.659 5.267-5.043 8.956-6.8l-.028.014c.839-.519 1.62-1.314 2.186-2.222.53-.912 1.064-2 .896-3.007-.204-1.048-.862-2.039-1.637-2.914a16.837 16.837 0 00-2.658-2.41l-.038-.029-.027-.031c-1.407-1.652-2.776-3.443-3.937-5.411-1.145-1.974-2.246-3.959-3.67-5.791-.601-.791-1.225-1.537-1.862-2.304-.634-.783-1.198-1.586-1.756-2.388a149.949 149.949 0 01-3.168-4.8l-.046-.076-.008-.084c-.254-3.497-.45-6.881-.308-10.165l.546-9.305.948-15.511c.287-4.322.516-7.805.681-10.28.09-1.155.162-2.072.214-2.761.058-.629.098-.957.121-.956.02.002.023.332.009.962-.023.69-.056 1.61-.094 2.769l-.472 10.292c-.222 4.396-.488 9.638-.789 15.52l-.493 9.305c-.124 3.215.081 6.605.343 10.071l-.053-.159a153.817 153.817 0 003.158 4.77c.553.792 1.118 1.592 1.725 2.339.621.751 1.27 1.526 1.878 2.324 1.45 1.864 2.592 3.926 3.71 5.861 1.139 1.931 2.469 3.683 3.858 5.323l-.065-.058c1.027.764 1.954 1.59 2.772 2.528.811.93 1.538 1.985 1.785 3.257a3.677 3.677 0 01-.225 1.874 8.569 8.569 0 01-.78 1.598c-.638.994-1.438 1.821-2.435 2.432l-.004.001-.023.013c-3.571 1.672-6.6 4.005-8.786 6.565-2.195 2.569-3.462 5.447-3.882 8.058l-.034.2-.189-.014c-4.07-.274-7.12-1.448-9.072-2.424-.974-.501-1.688-.955-2.149-1.29-.459-.336-.69-.517-.678-.534"/><path fill="#17282F" d="M853.304 279.277c-.03.118-.984-.087-2.528-.118-1.54-.037-3.685.196-5.883 1.022-2.195.836-3.955 2.082-5.084 3.13-1.136 1.046-1.714 1.832-1.815 1.763-.065-.041.368-.942 1.456-2.124 1.078-1.182 2.884-2.566 5.189-3.444 2.308-.868 4.577-1.028 6.166-.856 1.598.165 2.522.553 2.499.627M896.689 336.839c.06.117-1.096.242-1.808 1.639-.327.663-.517 1.623-.131 2.488.357.872 1.41 1.434 2.526 1.382 1.118-.049 2.113-.707 2.389-1.609.304-.897.028-1.834-.359-2.464-.837-1.327-1.999-1.345-1.951-1.467-.002-.033.265-.103.733.014.464.109 1.112.468 1.639 1.166.499.688.919 1.771.569 2.956-.327 1.208-1.634 2.079-2.988 2.124-1.35.081-2.731-.668-3.169-1.842-.456-1.148-.139-2.264.296-2.994.461-.745 1.073-1.161 1.526-1.312.455-.16.726-.115.728-.081zM899.038 316.84c.058.119-1.098.242-1.808 1.641-.329.661-.518 1.621-.133 2.486.358.872 1.411 1.438 2.527 1.382 1.116-.047 2.113-.707 2.389-1.607.305-.898.028-1.835-.359-2.464-.837-1.327-2-1.346-1.952-1.467-.001-.034.265-.104.734.014.465.109 1.113.467 1.639 1.165.501.687.918 1.772.57 2.955-.328 1.21-1.636 2.081-2.989 2.124-1.35.082-2.73-.666-3.169-1.84-.455-1.147-.138-2.265.297-2.994.461-.745 1.071-1.161 1.523-1.313.456-.159.729-.114.731-.082"/><path fill="#20353D" d="M833.774 287.803c-.641 0-1.26-.194-1.711-.646-1.049-1.057-.649-2.848.037-4.172 1.844-3.558 5.303-6.241 9.212-7.141.999-.23 2.021-.342 3.046-.342 2.981 0 5.967.954 8.361 2.737l-.576-.338 1.079 1.082.085.131c-.094.002-.19.003-.284.006-.385-.149-1.151-.359-2.218-.47a11.05 11.05 0 00-1.195-.061c-1.438 0-3.194.248-4.971.917-2.305.878-4.111 2.262-5.189 3.444-1.088 1.182-1.521 2.083-1.457 2.123.005.004.01.005.016.005.134 0 .711-.764 1.8-1.768 1.129-1.047 2.889-2.293 5.084-3.129a16.153 16.153 0 015.883-1.022c.312.006.602.02.864.035-5.067.436-9.978 2.612-13.679 6.104-.837.79-1.638 1.66-2.676 2.156a3.545 3.545 0 01-1.511.349z"/><path fill="#0F191D" d="M853.307 279.114l-.085-.131.133.131h-.048M838.009 285.078c-.006 0-.011-.001-.015-.005-.065-.04.368-.941 1.456-2.123 1.078-1.182 2.884-2.566 5.189-3.444a14.329 14.329 0 014.971-.917c.429 0 .83.021 1.195.061 1.067.111 1.833.321 2.218.47-.462.009-.923.036-1.383.074a22.5 22.5 0 00-1.183-.038c-1.51 0-3.513.254-5.564 1.025-2.195.836-3.955 2.082-5.084 3.129-1.089 1.004-1.666 1.768-1.8 1.768z"/><path fill="#20353D" d="M959.774 313.323c-1.742 0-3.379-.837-4.823-1.818-7.544-5.124-11.399-14.314-12.69-23.342-.555-3.885-1.083-8.446-4.478-10.42-1.432-.834-3.066-1.004-4.746-1.004-.573 0-1.153.02-1.731.04-.58.02-1.158.039-1.73.039-.148 0-.296 0-.444-.003-2.938-.062-6.46-3.209-6.64-6.143 2.344-.132 4.444-.214 6.332-.214 3.7 0 6.592.31 8.925 1.137l.363.156c1.128.573 2.804 1.427 4.334 3.082 1.585 1.614 2.644 4.161 3.196 7.106.299 1.475.499 3.056.881 4.693a51.193 51.193 0 001.488 4.928c1.178 3.329 2.75 6.351 4.56 8.827.253.355.51.697.769 1.028.86 1.244 1.853 2.367 3.01 3.311a44.654 44.654 0 001.758 1.593c1.753 1.506 3.302 2.552 4.365 3.275.361.228.668.422.921.576l.388.332c-.372 1.715-2.22 2.81-3.975 2.82l-.033.001zm-9.875-18.986a39.034 39.034 0 01-1.208-3.021 51.821 51.821 0 01-1.48-4.851c-.327-1.359-.535-2.721-.789-4.028.821 2.592 1.415 5.289 2.182 7.869a81.588 81.588 0 001.295 4.031"/><path fill="#0F191D" d="M963.393 310.17c-.252-.154-.559-.348-.92-.576-1.063-.723-2.613-1.769-4.365-3.275a43.933 43.933 0 01-1.758-1.594c.36.293.734.568 1.127.823 1.895 1.236 4.861 3.724 5.916 4.622zm-10.053-8.755a27.496 27.496 0 01-.769-1.028c-1.81-2.476-3.382-5.498-4.56-8.827a50.911 50.911 0 01-1.488-4.928c-.382-1.637-.582-3.218-.881-4.693-.552-2.945-1.611-5.492-3.196-7.106-1.53-1.655-3.206-2.509-4.334-3.082l-.363-.156c3.126 1.11 5.257 3.147 6.997 6.611.678 1.352 1.213 2.774 1.676 4.231.254 1.307.462 2.669.789 4.028a51.821 51.821 0 001.48 4.851c.367 1.042.772 2.05 1.208 3.021.89 2.504 1.976 4.964 3.441 7.078"/><path fill="#17282F" d="M924.502 286.272c-.023-.012.111-.376.39-1.057l1.258-2.959c.598-1.262 1.105-2.898 1.811-4.749.729-1.843 1.369-4.01 2.123-6.388 2.99-9.519 5.951-23.036 7.792-38.154 1.716-15.131 1.933-28.99.768-38.897-.312-2.472-.503-4.725-.947-6.656-.413-1.934-.6-3.645-1.051-4.967l-.856-3.096c-.189-.711-.274-1.091-.25-1.101.028-.009.165.352.403 1.048l1.005 3.067c.501 1.319.732 3.025 1.19 4.964.487 1.937.72 4.193 1.07 6.676 1.316 9.948 1.188 23.873-.535 39.056-1.847 15.169-4.908 28.716-8.048 38.231-.793 2.375-1.471 4.535-2.242 6.374-.75 1.843-1.301 3.467-1.947 4.716l-1.398 2.906c-.328.66-.512 1-.536.986"/><path fill="#C35959" d="M943.945 254.099a22.822 22.822 0 01-1.591-8.263c-.008-1.698-.049-3.454-.621-5.052-.571-1.6-2.379-3.097-4.03-2.698l-.595 12.493 6.837 3.52"/><path fill="#17282F" d="M938.304 225.369l-2.039 43.081a1.86 1.86 0 01-1.666 1.763l-21.849 2.271a1.864 1.864 0 01-2.054-1.884l.743-41.644a1.86 1.86 0 011.565-1.803l23.149-3.709a1.859 1.859 0 012.151 1.925z"/><path fill="#FAFAF9" d="M923.13 234.134c.191-.558.669-1.277 1.575-1.122.346-.015 1.076.39 1.2.978.123.576-.094 1.219-.558 1.582-.464.364-1.158.416-1.656.102-.499-.313-.752-.982-.561-1.54z"/><path fill="#C35959" d="M928.789 242.445c.502.048 12.534 4.024 12.534 4.024l6.773 5.198s2.654 3.21 1.83 9.002c-.822 5.791-3.285 8.172-9.43 10.766l-12.385.006-6.899-4.042a3.853 3.853 0 01-1.862-3.899l.04-.268-.875-1.045a2.122 2.122 0 01-.261-2.341 2.123 2.123 0 012.858-.916l7.684 3.943 4.835-.125.464-1.666-7.512-2.503-9.916-5.434a2.625 2.625 0 012.224-4.745l8.965 3.522 9.164 2.422-1.888-3.187-11.25-5.857s-1.358-3.439 4.907-2.855"/><path fill="#8A3939" d="M948.096 251.667c-.117.153-3.208-2.022-6.991-4.911l.106.055c-.146-.046-.302-.098-.459-.148-4.735-1.547-8.524-2.954-8.463-3.143.062-.19 3.951.91 8.688 2.458l.458.149.06.02.048.037c3.77 2.908 6.67 5.331 6.553 5.483M936.905 267.144c.026.085-.922.517-2.553 1.001-1.586.456-4.104.972-6.641-.013-1.241-.46-2.315-1.074-3.288-1.601l-2.577-1.439c-1.458-.839-2.337-1.403-2.291-1.489.048-.089 1.01.314 2.527 1.037.841.415 1.723.848 2.65 1.304.994.496 2.062 1.08 3.227 1.51 2.33.911 4.66.52 6.273.194 1.626-.346 2.642-.61 2.673-.504"/><path fill="#17282F" d="M904.429 285.077c-.027.012-.199-.335-.506-1.005-.33-.748-.763-1.728-1.306-2.95-1.1-2.573-2.651-6.32-4.418-11.006-3.557-9.356-7.995-22.5-11.497-37.392-1.796-7.437-2.988-14.639-3.885-21.207-.345-3.296-.766-6.421-.882-9.371l-.253-4.258-.023-3.937c-.071-2.509.087-4.775.216-6.763l.173-2.769c.095-.849.217-1.62.31-2.313l.47-3.193c.115-.729.189-1.108.217-1.104.026.005.008.393-.057 1.127-.082.81-.186 1.875-.319 3.204l-.241 2.31-.104 2.763c-.088 1.982-.204 4.236-.097 6.733l.074 3.917.299 4.238c.143 2.933.587 6.043.952 9.322.931 6.535 2.141 13.704 3.931 21.119 3.492 14.844 7.834 27.985 11.248 37.376 1.696 4.705 3.163 8.478 4.176 11.086.483 1.245.871 2.243 1.164 3.005.259.69.382 1.058.358 1.068M970.796 340.684c.043.032-.301.574-.961 1.528-.652.961-1.666 2.301-2.976 3.91-2.614 3.223-6.544 7.441-11.399 11.527-4.867 4.078-9.701 7.219-13.325 9.239-1.813 1.013-3.31 1.779-4.367 2.256-1.054.486-1.648.729-1.671.68-.025-.049.521-.388 1.528-.957a130.44 130.44 0 004.222-2.47 106.79 106.79 0 0013.095-9.362 106.644 106.644 0 0011.485-11.28 131.19 131.19 0 003.16-3.732c.734-.892 1.163-1.373 1.209-1.339M899.63 376.648c-.02.052-.866-.205-2.383-.715-1.522-.499-3.691-1.313-6.34-2.395-5.298-2.157-12.468-5.56-19.941-10.1-7.469-4.554-13.786-9.361-18.136-13.076-2.178-1.856-3.895-3.409-5.037-4.53-1.15-1.112-1.768-1.746-1.73-1.786.039-.041.726.517 1.938 1.554a198.222 198.222 0 005.192 4.325 170.039 170.039 0 0018.189 12.825 169.813 169.813 0 0019.748 10.264 193.636 193.636 0 006.226 2.626c1.48.6 2.291.956 2.274 1.008M931.179 78.062c1.756-1.028 2.993-2.895 3.252-4.911a6.786 6.786 0 00-1.907-5.573c-1.123-1.12-2.625-1.823-3.671-3.016-.869-.987-1.361-2.243-2.034-3.375-2.155-3.633-6.26-5.92-10.473-6.25-4.213-.332-8.465 1.176-11.808 3.758-1.327 1.028-2.588 2.254-4.202 2.713-1.565.444-3.23.103-4.856.117-3.858.03-7.626 2.248-9.528 5.605-1.9 3.356-1.863 7.725.094 11.05-4.157 1.551-6.841 6.309-6.022 10.668.82 4.36 5.048 7.817 9.486 7.754 2.741-.039 5.31-1.247 7.817-2.361a144.836 144.836 0 0131.727-9.916"/><path fill="#FA5252" d="M887.315 146.138c-5.301-5.864-8.437-13.645-8.682-21.546-.243-7.901 1.076-17.756 6.006-23.937-3.387-3.716-1.95-7.815.521-12.194 2.471-4.378 6.833-7.374 11.356-9.571a54.13 54.13 0 0121.636-5.397c6.103-.219 14.231.858 15.031 5.257.836 4.586-2.155 6.62-2.155 6.62s6.046 1.752 11.314 6.858c7.581 7.346 10.509 14.745 9.447 22.968-1.06 8.222-2.868 14.624-7.832 19.814"/><path fill="#33535F" d="M939.02 144.665c.804-.798 1.942-1.53 3.092-1.859l-.23-.023c.214-.049.432-.064.651-.083.837-.162 1.66-.086 2.34.387l-.023-.003c1.271.525 2.369 1.516 2.941 2.774.992 2.19.481 4.91-1.053 6.761-1.334 1.608-3.556 2.609-5.563 2.034-1.847-.529-3.16-2.275-3.614-4.14-.496-2.04-.032-4.367 1.459-5.848"/><path fill="#C35959" d="M892.326 180.11l-4.879-70.5a6.152 6.152 0 015.579-6.169l32.732-7.85c10.464-.977 17.257 11.971 17.79 22.464.594 11.658.856 25.915-.629 34.59-2.989 17.445-16.265 19.479-16.265 19.479l.115 10.529-12.079 32.793-22.364-35.336"/><path fill="#17282F" d="M937.398 132.597c.026 1.183-.954 2.184-2.19 2.234-1.235.053-2.259-.864-2.288-2.048-.026-1.185.953-2.185 2.187-2.237 1.237-.051 2.262.867 2.291 2.051M940.365 125.432c-.28.288-1.963-.989-4.377-1.012-2.41-.057-4.195 1.162-4.452.864-.128-.134.162-.656.939-1.209.766-.549 2.067-1.078 3.57-1.053 1.503.028 2.76.595 3.479 1.17.735.578.98 1.111.841 1.24M914.798 132.597c.028 1.183-.952 2.184-2.189 2.234-1.233.053-2.258-.864-2.286-2.048-.029-1.185.953-2.185 2.188-2.237 1.236-.051 2.261.867 2.287 2.051zM916.646 125.594c-.283.288-1.968-.988-4.379-1.011-2.411-.057-4.196 1.162-4.455.863-.125-.132.162-.656.942-1.208.766-.55 2.066-1.077 3.569-1.053 1.502.027 2.76.595 3.48 1.17.732.578.979 1.11.843 1.239zM925.185 143.588c-.011-.137 1.492-.378 3.927-.66.615-.055 1.201-.171 1.309-.59.151-.444-.099-1.11-.388-1.829l-1.765-4.713c-2.45-6.708-4.215-12.221-3.944-12.318.272-.095 2.476 5.263 4.925 11.971.589 1.655 1.152 3.23 1.688 4.739.226.703.616 1.503.292 2.423-.173.456-.629.786-1.025.887-.396.116-.743.118-1.049.133-2.446.102-3.963.094-3.97-.043"/><path fill="#8A3939" d="M926.752 172.152s-11.77.615-23.336-6.528c0 0 5.839 12.478 23.355 11.055l-.019-4.527M924.756 149.319c-1.147-1.664-3.04-2.698-4.856-2.652-1.257.034-2.497.599-3.194 1.689-.698 1.088-.759 2.723.01 3.899.866 1.324 2.531 1.767 3.898 1.455 1.367-.315 2.503-1.233 3.579-2.153.296-.255.602-.521.774-.894.173-.372.184-.877-.08-1.224"/><path fill="#17282F" d="M918.065 145.17c.39-.018.365 2.6 2.583 4.485 2.215 1.893 5.01 1.632 5.025 1.999.036.165-.627.501-1.805.519-1.157.025-2.841-.367-4.197-1.521-1.354-1.156-1.924-2.683-1.999-3.759-.087-1.095.212-1.739.393-1.723M917.693 119.064c-.245.654-2.65.313-5.483.62-2.843.25-5.135 1.051-5.505.458-.163-.284.242-.896 1.173-1.52.924-.622 2.39-1.208 4.09-1.376 1.703-.165 3.256.123 4.282.556 1.035.43 1.551.953 1.443 1.262M939.564 118.44c-.432.543-2.087-.046-4.085-.097-1.996-.121-3.695.322-4.077-.256-.168-.279.104-.824.852-1.334.734-.507 1.958-.916 3.331-.857 1.372.059 2.556.57 3.243 1.14.7.572.927 1.139.736 1.404"/><path fill="#FA5252" d="M928.038 100.61s-16.4-.555-29.168 17.725c-8.415 12.049-10.431 27.336-10.431 27.336l-5.779-29.274 5.003-13.203 11.455-6.196 21.533-.802 8.041 4.172"/><path fill="#FA5252" d="M895.867 101.521c26.246-5.795 46.969 3.25 50.413 23.806l5.571-13.376-13.286-16.625-14.797-4.154-30.05 3.986 2.149 6.363"/><path fill="#33535F" d="M884.483 143.697c.867-.86 2.092-1.647 3.328-2l-.248-.026c.231-.054.466-.07.7-.09.9-.174 1.788-.094 2.519.416l-.023-.001c1.365.565 2.548 1.632 3.161 2.985 1.072 2.355.52 5.283-1.131 7.275-1.435 1.731-3.825 2.807-5.987 2.189-1.987-.567-3.401-2.448-3.888-4.454-.535-2.198-.035-4.702 1.569-6.294"/><path fill="#fff" d="M890.84 134.485c-.009.032-.453-.05-1.154-.449-.688-.402-1.63-1.168-2.353-2.439-.719-1.246-1.182-3.08-.675-4.981.232-.928.598-1.837.768-2.779.19-.937.032-1.911-.646-2.61-.664-.712-1.625-1.141-2.512-1.639-.912-.474-1.752-1.142-2.353-1.897a8.236 8.236 0 01-1.797-4.702 7.23 7.23 0 01.569-3.334c.319-.739.635-1.065.655-1.05.157.043-.979 1.581-.722 4.346.136 1.345.652 2.954 1.801 4.32.575.687 1.298 1.249 2.181 1.702.865.484 1.882.905 2.702 1.768.856.86 1.047 2.196.811 3.218-.202 1.048-.587 1.953-.818 2.822-.495 1.715-.133 3.379.48 4.577a6.997 6.997 0 002.061 2.445c.625.45 1.029.623 1.002.682M886.956 98.84c.148.053-.897 1.471-.859 4.069a8.234 8.234 0 001.25 4.232c.858 1.455 2.475 2.453 4.09 3.714.795.641 1.558 1.376 2.026 2.295.484.912.581 1.946.494 2.841-.177 1.802-.757 3.283-.673 4.545.038 1.273.496 2.25.995 2.733.495.502.935.562.908.634-.004.024-.109.017-.308-.021a2.093 2.093 0 01-.784-.405c-.625-.477-1.209-1.538-1.315-2.91-.148-1.402.4-2.953.522-4.625.059-.834-.041-1.695-.461-2.469-.404-.781-1.088-1.447-1.851-2.063-1.532-1.201-3.282-2.298-4.202-3.922a8.388 8.388 0 01-1.195-4.58 7.55 7.55 0 01.722-3.098c.322-.681.616-.988.641-.97M905.104 111.613c.032.022-.205.267-.714.153a1.445 1.445 0 01-.746-.493c-.238-.276-.369-.7-.372-1.132-.034-.886.478-1.795.535-2.712.083-.912-.707-1.734-1.725-2.267-1.032-.519-2.158-1.197-2.788-2.114a6.074 6.074 0 01-1.126-2.655c-.245-1.654.253-2.622.31-2.585.127.023-.166.997.187 2.486a6.102 6.102 0 001.148 2.35c.611.806 1.512 1.33 2.621 1.897.538.299 1.079.672 1.47 1.173.404.485.626 1.165.56 1.755-.142 1.171-.674 1.957-.686 2.683-.076.721.348 1.188.703 1.35.358.165.604.054.623.111M910.357 97.492c.014-.04.174-.044.369.142.188.183.346.558.296 1.02-.051.463-.307.913-.452 1.35-.142.432-.157.948-.039 1.478.238 1.073.922 1.9 1.409 2.492.5.593.816.98.743 1.054-.063.07-.49-.177-1.103-.699-.588-.517-1.449-1.384-1.745-2.693-.147-.641-.107-1.311.118-1.858.227-.532.486-.891.571-1.215.194-.678-.208-1-.167-1.07M936.67 88.443c.04.025-.051.282-.299.701-.237.422-.661.985-1.043 1.71-.403.725-.546 1.654-.265 2.716.232 1.047.79 2.256.764 3.67a6.542 6.542 0 01-1.144 3.653 6.216 6.216 0 01-2.36 2.042c-1.621.789-2.779.609-2.76.543-.021-.127 1.086-.145 2.52-.985.703-.421 1.477-1.057 2.052-1.963.582-.899.971-2.06.978-3.295.033-1.231-.464-2.367-.693-3.526-.285-1.151-.042-2.364.467-3.1.476-.759.956-1.257 1.259-1.627.31-.36.48-.564.524-.539zM948.882 100.9c.103.118-.788.507-1.135 1.79-.166.662-.511 1.457-.764 2.292-.267.857-.49 1.862-1.013 2.856-1.099 2.052-3.249 2.849-4.655 2.891-1.466.057-2.268-.456-2.229-.514.035-.121.863.192 2.183.011 1.279-.165 3.13-.957 4.071-2.724.467-.879.71-1.85 1.017-2.723.316-.902.68-1.6.917-2.261.247-.677.698-1.162 1.035-1.37.336-.222.548-.285.573-.248M950.917 118.437c.082.036.015.449-.367.985-.373.533-1.114 1.165-2.121 1.412-1.008.243-1.956.026-2.533-.275-.589-.302-.835-.636-.78-.707.096-.173 1.438.704 3.143.288 1.707-.414 2.493-1.814 2.658-1.703M921.184 85.546c.068.108-.741.514-1.489 1.647-.732 1.088-1.348 3.062-.541 4.94.396.918 1.019 1.921.934 2.998-.053 1.047-.559 1.847-1.011 2.409-.951 1.122-1.771 1.516-1.811 1.456-.08-.09.626-.64 1.406-1.756.37-.558.752-1.29.758-2.129.045-.841-.479-1.675-.934-2.701-.462-1.06-.495-2.212-.297-3.17.209-.965.625-1.768 1.086-2.341.942-1.168 1.886-1.42 1.899-1.353M904.489 97.831c-.193-.083.373-1.629.417-3.606.073-1.977-.4-3.555-.202-3.626.164-.086.989 1.501.916 3.646-.054 2.147-.974 3.682-1.131 3.586M892.377 95.928c-.031-.048.156-.182.316-.527.157-.339.287-.9.16-1.561-.223-1.364-1.56-2.911-2.673-4.887-.551-1.003-.923-2.068-1.02-3.084-.108-1.01.093-1.965.461-2.646.356-.693.866-1.128 1.269-1.302.41-.172.661-.126.661-.086.009.057-.213.11-.526.328-.307.222-.689.64-.948 1.276-.59 1.258-.344 3.297.729 5.174 1.045 1.877 2.402 3.538 2.547 5.157.08.791-.159 1.428-.424 1.776-.271.36-.538.419-.552.382zM909.163 88.369c-.034-.037.106-.225.382-.53.245-.304.747-.745.791-1.34.015-.57-.52-1.35-1.129-2.018-.632-.694-1.472-1.335-2.317-2.116-.807-.79-1.654-1.646-1.803-2.808-.1-1.116.347-1.98.697-2.637.772-1.302 1.419-1.952 1.486-1.908.098.062-.415.839-1.036 2.138-.282.644-.614 1.472-.495 2.322.112.817.86 1.628 1.64 2.37 1.599 1.448 3.448 2.862 3.459 4.707-.186.905-.811 1.23-1.105 1.496-.338.245-.537.36-.57.324M925.408 85.8c-.061-.092.725-.416.973-1.556.129-.554.085-1.226-.2-1.94-.272-.714-.747-1.44-1.243-2.25-.492-.805-.925-1.67-1.039-2.551-.132-.931.219-1.695.535-2.244.66-1.165 1.617-1.364 1.609-1.237.028.083-.681.38-1.163 1.474-.235.524-.472 1.209-.33 1.905.128.734.518 1.498 1 2.285.479.788.979 1.575 1.25 2.398.29.813.291 1.67.066 2.297-.211.636-.598 1.061-.914 1.253-.319.195-.53.204-.544.166"/><path fill="#17282F" d="M931.028 85.37c-.003.05-.716.065-1.997.05-1.281-.042-3.137 0-5.422.103-4.556.255-10.866 1.17-17.395 3.644-6.53 2.465-11.992 5.727-15.872 8.154l-4.57 2.937c-1.078.7-1.685 1.068-1.714 1.027-.03-.04.527-.484 1.555-1.255 1.027-.775 2.544-1.852 4.453-3.133 3.823-2.542 9.288-5.905 15.898-8.398 6.61-2.505 13.027-3.354 17.625-3.482 2.305-.035 4.17-.003 5.452.125 1.285.102 1.992.179 1.987.228M889.484 100.716l.176-.055.491-.196c.225-.094.489-.205.794-.331l1.104-.4a32.247 32.247 0 017.276-1.605c3.132-.353 6.915-.316 11.043.26 2.066.282 4.216.715 6.433 1.215 2.215.508 4.493 1.095 6.779 1.85 9.224 2.861 16.261 8.835 19.383 14.283 1.601 2.719 2.32 5.201 2.744 6.906.215.857.339 1.53.42 1.989l.105.52.048.175-.008-.181-.064-.527a19.756 19.756 0 00-.346-2.012c-.379-1.723-1.06-4.244-2.65-7.013-3.093-5.559-10.2-11.643-19.504-14.529-2.303-.76-4.595-1.347-6.818-1.851-2.226-.497-4.389-.923-6.47-1.198-4.162-.56-7.974-.567-11.128-.174a30.615 30.615 0 00-7.299 1.743l-1.096.436-.78.369-.476.234-.157.092"/><path fill="#17282F" d="M923.673 101.402c-.002-.014-.196-.011-.569.011-.373.012-.921.075-1.622.18-1.398.23-3.408.74-5.723 1.792-4.619 2.085-10.426 6.359-15.102 12.556-2.367 3.074-4.147 6.32-5.707 9.272-1.549 2.967-2.795 5.716-3.695 8.085-.913 2.362-1.471 4.34-1.777 5.722a20.714 20.714 0 00-.301 1.603c-.054.368-.075.562-.062.565.014.002.062-.188.144-.55.072-.365.2-.897.371-1.58a46.679 46.679 0 011.895-5.655c.929-2.343 2.198-5.069 3.758-8.014 1.575-2.939 3.354-6.155 5.699-9.202 4.634-6.141 10.357-10.408 14.9-12.54 2.274-1.075 4.25-1.621 5.629-1.897a23.192 23.192 0 011.6-.256c.369-.046.563-.078.562-.092M674.411 422.358c-6.265-3.167-9.408-10.529-9.866-17.533-.459-7.004 1.238-13.945 2.143-20.905.901-6.962.915-14.429-2.572-20.522-3.486-6.092-11.45-10.065-17.802-7.072l-17.818 12.669a86.853 86.853 0 014.946 24.417c.349 6.249.084 12.805 2.883 18.404 3.943 7.887 13.023 11.858 21.726 13.29-1.095-1.52-2.189-3.039-3.282-4.56 5.71 3.782 13.335 4.484 19.642 1.812"/><path fill="#17282F" d="M615.23 335.093c7.729-.8 14.255 2.582 20.42 7.31 6.164 4.732 10.593 11.549 12.922 18.961 2.454 7.804 2.611 16.415-.171 24.11-2.782 7.694-8.614 14.363-16.138 17.584-10.272 4.396-22.872 1.804-31.327-5.502-8.454-7.305-12.813-18.757-12.51-29.925.21-7.693 2.558-15.425 7.265-21.517 4.707-6.091 11.865-10.403 19.539-11.021"/><path fill="#17282F" d="M635.266 362.499c-.925-2.996-.277-6.232-.516-9.359-.529-6.887-5.668-12.717-11.854-15.793-5.755-2.863-13.015-2.795-20.294-.957-4.988 1.258-9.767 3.711-13.283 7.465-4.666 4.982-6.678 12.323-5.199 18.986l35.249-2.8c3.092 2.919 6.26 5.889 10.124 7.655 1.136.519 2.366.934 3.607.82 1.243-.116 2.491-.873 2.863-2.062.404-1.301-.294-2.653-.697-3.955"/><path fill="#F8A58D" d="M601.225 345.979l30.061 8.45a5.704 5.704 0 014.948 5.919l-4.684 65.931a20.537 20.537 0 01-5.11 12.156l-3.153 3.557c-7.188 8.113-20.559 6.374-24.997-3.514-.309-.69-.516-1.293-.588-1.772-.065-.6-.196-1.002-.19-1.509-.533-5.164.125-10.022.125-10.022.088-5.891.152-8.306.148-8.251 0 0-12.372-2.393-14.516-18.673-1.067-8.095-.31-21.301.658-32.087.871-9.709 7.633-21.47 17.298-20.185z"/><path fill="#17282F" d="M587.753 378.846c-.068 1.097.806 2.058 1.95 2.149 1.142.093 2.125-.721 2.193-1.818.068-1.094-.806-2.057-1.947-2.15-1.145-.094-2.128.721-2.196 1.819zM586.612 373.116c.25.279 1.856-.846 4.094-.78 2.235.034 3.848 1.227 4.097.96.124-.119-.127-.615-.827-1.154-.691-.538-1.878-1.073-3.273-1.105-1.393-.028-2.58.453-3.268.96-.701.51-.946.994-.823 1.119zM607.792 379.653c-.069 1.097.805 2.059 1.948 2.151 1.143.091 2.126-.721 2.194-1.816.069-1.098-.805-2.061-1.947-2.153-1.144-.093-2.127.721-2.195 1.818zM607.842 373.959c.252.277 1.86-.845 4.095-.78 2.235.032 3.848 1.228 4.098.96.121-.119-.125-.613-.828-1.154-.691-.538-1.878-1.073-3.271-1.105-1.395-.028-2.581.453-3.268.96-.7.51-.95.995-.826 1.119M600.034 390.492c.014-.127-1.371-.403-3.618-.753-.569-.073-1.107-.201-1.193-.594-.124-.416.132-1.025.427-1.683.573-1.367 1.174-2.802 1.805-4.304 2.511-6.131 4.347-11.178 4.097-11.277-.248-.098-2.485 4.79-4.996 10.921l-1.734 4.333c-.234.643-.624 1.369-.356 2.233.143.432.553.752.917.86.364.122.684.136.967.162 2.264.182 3.671.228 3.684.102"/><path fill="#F68260" d="M597.785 416.924s10.889.991 21.869-5.215c0 0-5.759 11.076-21.946 9.13l.077-3.915zM600.837 395.909c.834-1.042 2.258-1.589 3.655-1.401.968.131 1.936.624 2.506 1.43.569.806.661 1.931.105 2.672-.626.832-1.893.994-2.952.664-1.062-.333-1.962-1.06-2.815-1.784-.237-.201-.479-.407-.622-.678-.144-.27-.167-.618.026-.833"/><path fill="#17282F" d="M606.577 392.213c-.362-.029-.431 2.398-2.557 4.067-2.12 1.674-4.703 1.331-4.729 1.672-.04.151.562.487 1.655.546 1.07.066 2.645-.239 3.945-1.259 1.296-1.022 1.879-2.418 1.988-3.414.121-1.011-.134-1.62-.302-1.612M608.401 367.344c.205.614 2.446.386 5.062.771 2.625.334 4.722 1.159 5.086.621.161-.256-.192-.838-1.033-1.449-.833-.611-2.171-1.206-3.743-1.424-1.571-.214-3.021-.001-3.988.361-.974.364-1.472.828-1.384 1.12M587.521 363.35c.38.519 1.935.032 3.789.057 1.856-.04 3.415.432 3.791-.091.165-.253-.069-.769-.743-1.268-.661-.496-1.782-.917-3.057-.914-1.275.006-2.391.439-3.05.942-.668.505-.898 1.023-.73 1.274"/><path fill="#17282F" d="M641.164 358.16c-2.554-9.487-15.524-23.037-25.348-22.798l-16.066 8.666c.705 5.37 4.609 10.196 9.715 12.008 2.727.968 6.045 1.35 7.581 3.802 1.569 2.504.428 5.993 1.876 8.568 2.008 3.569 7.934 3.673 9.389 7.499.637 1.672.176 3.616.842 5.275.884 2.213 6.247 5.211 8.552 4.596 2.301-.618 2.485-4.482 3.319-6.471 1.426-3.404.985-5.22.655-7.172-.78-4.622.703-9.449-.515-13.973"/><path fill="#F8A58D" d="M630.919 387.383c.036-1.208 1.506-4.016 2.704-4.17 3.197-.411 8.93-.003 8.769 8.083-.222 11.054-11.277 8.553-11.291 8.236-.009-.25-.302-7.98-.182-12.149"/><path fill="#F68260" d="M634.563 395.411c.051-.036.19.138.512.293.316.152.86.263 1.44.058 1.177-.405 2.198-2.239 2.29-4.23a6.33 6.33 0 00-.482-2.768c-.322-.815-.834-1.392-1.42-1.507a.981.981 0 00-1.147.505c-.155.307-.089.529-.149.544-.029.03-.233-.188-.134-.642.051-.219.183-.478.448-.685.27-.211.662-.312 1.072-.26.85.077 1.603.875 1.977 1.755.421.882.662 1.965.606 3.095-.115 2.225-1.296 4.286-2.904 4.716-.782.188-1.427-.061-1.757-.327-.336-.279-.39-.529-.352-.547z"/><path fill="#FA5252" d="M650.217 373.484c.079.019.455-1.214.627-3.281.179-2.06.062-4.964-.747-8.037-.822-3.069-2.161-5.651-3.339-7.349-1.178-1.709-2.115-2.592-2.175-2.538-.211.129 3.246 4.034 4.806 10.075 1.644 6.018.578 11.122.828 11.13"/><path fill="#17282F" d="M603.172 340.906c-1.308 4.419-8.507 9.727-11.73 13.025-6.149 6.292-7.423 8.431-8.341 23.337-2.362-5.323-4.098-10.501-3.51-16.294.588-5.795 3.109-11.471 7.42-15.385 4.312-3.914 10.464-5.895 16.161-4.683z"/><path fill="#33535F" d="M646.793 358.382c.006.046-.67.164-1.904.343a22.83 22.83 0 01-2.256.244c-.883.055-1.89.165-3.005.149-2.232.066-4.892-.071-7.824-.428a60.008 60.008 0 01-9.372-2.061 59.908 59.908 0 01-8.875-3.663c-2.61-1.381-4.872-2.788-6.667-4.115-.923-.625-1.686-1.288-2.38-1.84a22.007 22.007 0 01-1.712-1.488c-.911-.851-1.398-1.336-1.368-1.369.033-.034.577.389 1.534 1.175.475.399 1.061.88 1.776 1.394.709.52 1.486 1.151 2.42 1.748 1.811 1.268 4.077 2.618 6.675 3.954a63.255 63.255 0 008.794 3.574 63.092 63.092 0 009.258 2.088c2.895.387 5.526.572 7.738.566 1.106.044 2.106-.03 2.985-.053.88-.012 1.637-.072 2.253-.131 1.235-.098 1.924-.132 1.93-.087M647.425 366.361c.005.045-.456.124-1.299.23-.84.115-2.066.196-3.584.219-3.032.052-7.254-.29-11.749-1.474-4.494-1.194-8.332-2.985-10.942-4.53-1.307-.771-2.332-1.449-3.007-1.965-.679-.507-1.039-.805-1.015-.842.067-.094 1.602.974 4.25 2.4a50.967 50.967 0 0010.883 4.301 50.97 50.97 0 0011.584 1.644c3.005.071 4.868-.098 4.879.017M643.063 394.777c-.103-.101 1.099-1.31 2.435-3.675 1.371-2.343 2.794-5.847 3.857-9.862 1.038-4.022 1.532-7.771 1.633-10.488.126-2.722-.099-4.405.037-4.423.054-.009.155.404.289 1.166.122.765.242 1.882.241 3.266.045 2.766-.367 6.594-1.423 10.683-1.08 4.081-2.619 7.628-4.148 9.951a15.901 15.901 0 01-2.006 2.598c-.554.545-.877.824-.915.784M629.646 541.111l-70.964 10.301c-26.654 7.542-54.735 9.75-84.093 7.203l106.798 49.806 42.876.668s13.053.038 15.336-11.389c2.317-11.603 4.817-46.06 4.817-46.06s-8.472-7.365-14.77-10.529"/><path fill="#20353D" d="M630.691 592.471a103.274 103.274 0 00-1.253-21.496l-.011.004c.469-2.666.805-5.485.51-8.439-.25-1.868-.977-3.549-1.447-5.36a1.526 1.526 0 01-.023-.08c1.25.039 4.2.13 5.806.194 2.589.103 5.44.103 5.44.103.475 2.342-2.782 4.693-4.011 6.742-1.837 3.05-.376 6.902.249 10.409 1.131 6.353-.875 13.187-5.26 17.923"/><path fill="#F8A58D" d="M596.582 428.936l35.422-2.985 5.123.517-22.609 18.57-11.549 4.023-10.152-4.748-2.454-6.807 6.219-8.57M554.669 468.927l-13.343 42.284-28.596 40.383 18.08 13.019 31.254-38.563 10.464-47.786-17.859-9.337z"/><path fill="#17282F" d="M548.878 461.36s13.007-19.598 16.941-23.093c4.735-4.209 13.325-7.465 13.325-7.465l17.438-1.866s-10.744 12.41 1.576 13.949c12.318 1.538 38.969-16.417 38.969-16.417s18.626 3.486 23.245 6.257c4.62 2.769 16.322 9.852 15.707 28.635l.024 15.087h-35.442l-7.393 56.655-17.862 10.777s-48.172 9.211-51.252 9.828c-3.08.616-.8-78.183-.8-78.183s-12.319-5.851-14.476-14.164z"/><path fill="#F8A58D" d="M568.096 538.165l65.787-9.871 6.778-51.847h32.954s-7.821 36.532-9.548 45.879c-2.481 13.444-11.704 31.406-16.631 34.794-4.928 3.387-83.282-3.413-83.282-3.413l3.942-15.542z"/><path fill="#F8A58D" d="M530.728 544.157c.398.935 1.308 1.585 2.324 1.566.201-.005.414-.033.636-.087 1.465-.367 1.522-3.297 1.522-3.297l6.947-.671s8.562 6.347 11.492 10.374c2.93 4.03 11.245 1.467 11.245 1.467l3.771-14.464-11.902-12.268s.73.732 0-1.464c-.734-2.197-4.762-1.648-4.762-1.648-.55-1.099-3.123-1.648-3.123-1.648l-11.18.552a7.63 7.63 0 00-5.79 3.132l-5.18 7.119s-2.828 5.185-2.511 6.455c.48 1.913 2.491 1.627 2.491 1.627s.315 3.552 1.23 3.734c.916.183 2.79-.479 2.79-.479"/><path fill="#F68260" d="M555.038 535.183c-.02.114-1.486-.117-3.863-.17-2.373-.039-5.673.16-9.169 1.101a32.317 32.317 0 00-4.8 1.69c-1.391.668-2.83 1.196-3.325 2.146-.245.462-.182.955.035 1.329.211.372.515.628.793.763.567.279.954.137.963.207.026.018-.365.282-1.071.046a2.058 2.058 0 01-1.022-.809 1.774 1.774 0 01-.148-1.754c.282-.63.866-1.095 1.483-1.469a26.1 26.1 0 012.019-1.052 28.87 28.87 0 014.891-1.782 29.068 29.068 0 019.371-.918c2.415.185 3.858.595 3.843.672"/><path fill="#F68260" d="M555.352 542.307c-.028.21-4.532-.274-10.101-.313-5.573-.057-10.083.347-10.106.139-.011-.092 1.108-.313 2.936-.512 1.827-.2 4.367-.359 7.176-.336 2.807.027 5.344.227 7.168.46 1.825.229 2.938.47 2.927.562M530.81 543.879c-.035-.008-.058-.421-.061-1.191a25.78 25.78 0 01.206-3.249c.091-.686.214-1.436.456-2.231.23-.799.672-1.626 1.249-2.346 1.099-1.448 2.593-2.925 4.438-3.985 1.837-1.046 3.664-1.913 5.485-2.335 1.803-.419 3.468-.444 4.84-.414 1.376.04 2.48.143 3.24.22.761.082 1.181.149 1.178.198-.003.115-1.702.06-4.42.082-1.353.034-2.972.113-4.686.549-1.7.425-3.498 1.296-5.273 2.31-1.782 1.028-3.174 2.378-4.289 3.78-1.164 1.329-1.47 2.921-1.723 4.248-.443 2.669-.486 4.378-.64 4.364"/><path fill="#F68260" d="M548.16 524.802c-.007.105-1.671.04-4.343.172-2.58.224-6.678.144-9.235 3.509-2.73 3.037-5.071 5.92-6.172 8.338-1.155 2.398-1.178 4.107-1.323 4.086-.037-.002-.075-.426.013-1.183.081-.755.317-1.849.852-3.106 1.024-2.563 3.359-5.559 6.106-8.612.7-.766 1.451-1.488 2.3-2.039.849-.564 1.811-.861 2.691-1.056 1.782-.378 3.402-.419 4.754-.437 2.706-.005 4.364.239 4.357.328"/><path fill="#F68260" d="M551.377 549.521c-.017.014-.231-.174-.628-.547l-1.758-1.614a77.95 77.95 0 00-6.966-5.5l.154.04c-2.072.216-4.41.458-6.943.72l.254-.274a7.565 7.565 0 01-.237 1.67c-.151.552-.37 1.144-.888 1.601-.267.222-.638.34-.939.36a2.452 2.452 0 01-.969-.006 2.822 2.822 0 01-1.648-1.059 2.996 2.996 0 01-.273-.426l-.056-.114-.027-.057-.013-.029-.001-.005c-.088-.038.749.33.393.176h-.008l-.015.006-.222.074c-.298.097-.6.182-.91.256a7.574 7.574 0 01-.955.174c-.167.017-.335.03-.515.022a1.188 1.188 0 01-.628-.164c-.37-.303-.487-.636-.613-.952a7.171 7.171 0 01-.279-.968 16.238 16.238 0 01-.316-1.974l.384.305c-.902.097-1.938-.185-2.504-1.042-.253-.398-.451-.878-.382-1.413.055-.479.19-.893.331-1.313.592-1.655 1.377-3.225 2.219-4.817l.01-.019.014-.02 2.761-3.799c.589-.807 1.173-1.612 1.753-2.407.579-.769 1.111-1.642 1.899-2.318a7.408 7.408 0 012.599-1.491c.942-.336 1.967-.367 2.87-.403 3.704-.172 7.236-.339 10.539-.491l.045-.002.035.009c.637.15 1.227.339 1.804.602.561.271 1.153.571 1.521 1.219l-.376-.145c1.206-.405 2.567-.321 3.55.433.99.747 1.395 1.876 1.58 2.923l-.074-.149 8.206 8.409c.92.965 1.652 1.736 2.209 2.318.497.535.75.826.732.845-.017.018-.307-.236-.842-.738l-2.307-2.218c-2.035-2.005-4.882-4.81-8.371-8.245l-.055-.055-.019-.097c-.174-.924-.578-1.957-1.395-2.54-.792-.614-1.987-.675-2.998-.327l-.248.087-.128-.233c-.214-.386-.723-.699-1.239-.925a9.189 9.189 0 00-1.679-.548l.078.007-10.534.549c-.945.041-1.825.071-2.685.377a6.705 6.705 0 00-2.35 1.357c-.695.586-1.196 1.408-1.795 2.206-.578.797-1.163 1.6-1.752 2.409-.946 1.299-1.882 2.584-2.763 3.797l.024-.04c-.828 1.557-1.615 3.132-2.181 4.707-.136.389-.26.792-.301 1.157-.058.313.079.663.266.963.36.589 1.154.818 1.837.752l.35-.032.034.337c.063.634.156 1.278.29 1.887.129.576.333 1.282.622 1.531.014.01.13.053.276.05.134.008.281-.003.424-.015.29-.032.584-.087.876-.154.291-.068.579-.149.863-.236l.21-.068.012-.005.006-.003c-.353-.157.484.213.399.175v.004l.011.023.022.044.041.091.213.336c.316.427.78.729 1.277.837.248.06.5.054.758.008.276-.02.464-.085.644-.222.699-.638.873-1.851.941-2.82l.017-.253.237-.021c2.536-.23 4.876-.44 6.952-.626l.089-.008.067.048a66.552 66.552 0 016.872 5.698 36.722 36.722 0 011.681 1.71c.366.404.549.622.534.638"/><path fill="#33535F" d="M562.828 454.696c.116.01.099 1.395.07 3.627-.03 2.23-.046 5.31.058 8.708.108 3.398.316 6.473.486 8.697.168 2.225.273 3.606.157 3.621-.105.016-.408-1.341-.721-3.56-.316-2.222-.615-5.309-.723-8.733-.107-3.423.001-6.523.175-8.76.175-2.236.395-3.607.498-3.6"/><path fill="#fff" d="M675.564 458.922c.001.028-.39.076-1.138.142l-3.272.253c-2.935.188-7.03.453-12.05.776-10.256.584-24.28 1.384-39.771 2.264-15.504.792-29.533 1.507-39.793 2.03-5.027.219-9.124.396-12.061.522l-3.28.103c-.751.014-1.145.01-1.147-.02 0-.027.392-.075 1.139-.141.826-.065 1.915-.147 3.274-.253l12.05-.778 39.774-2.263 39.779-2.029 12.064-.524c1.363-.042 2.454-.076 3.283-.1.751-.016 1.146-.01 1.149.018M638.249 492.806c.009.22-16.819 1.113-37.585 1.99-20.771.876-37.612 1.408-37.623 1.186-.009-.22 16.816-1.111 37.589-1.989 20.764-.877 37.61-1.409 37.619-1.187zM633.755 522.585c.002.028-.243.072-.715.129l-2.062.214-7.589.67c-6.407.555-15.255 1.343-25.015 2.34a1620.6 1620.6 0 00-24.977 2.768l-7.567.877c-.819.081-1.499.151-2.063.207-.473.038-.723.046-.727.019-.004-.028.238-.09.704-.181.56-.096 1.233-.213 2.042-.355a335.35 335.35 0 017.537-1.13c6.372-.897 15.196-2.005 24.969-3.005 9.768-.996 18.633-1.695 25.055-2.105 3.211-.206 5.813-.347 7.611-.416.821-.026 1.504-.048 2.071-.064.475-.006.725.005.726.032M561.731 457.381c-.071.208-1.673-.154-3.573-.814-1.901-.658-3.382-1.36-3.31-1.569.071-.209 1.673.153 3.573.811 1.899.66 3.382 1.362 3.31 1.572zM590.7 436.838c.008.221-5.076.577-11.353.794-6.28.217-11.375.214-11.382-.008-.01-.22 5.074-.578 11.354-.794 6.277-.218 11.373-.214 11.381.008M662.339 434.089c-.001.222-8.103.358-18.092.302-9.995-.055-18.094-.279-18.093-.502.002-.221 8.101-.356 18.096-.301 9.99.054 18.091.279 18.089.501"/><path fill="#33535F" d="M640.453 452.05c.048.003.059.658.033 1.864a130.012 130.012 0 01-.249 5.134c-.26 4.371-.955 10.461-1.506 17.43l-.42-.421 6.631-.009c8.597 0 16.384.043 22.023.116l6.68.128c1.578.047 2.454.101 2.458.155.003.056-.865.108-2.435.156-1.716.034-3.959.075-6.663.126-5.628.074-13.408.117-22.004.117l-6.633-.007h-.455l.037-.423c.592-6.993 1.384-13.06 1.783-17.411l.48-5.108c.111-1.198.192-1.848.24-1.847M514.484 563.346s-44.96-14.124-59.083-18.699c-24.313-7.88-40.23.083-45.251 8.781-6.513 11.285 9.106 33.288 15.122 38.345 17.829 14.986 48.387 17.006 48.387 17.006l109.882-.206-32.084-43.489-36.973-1.738z"/><path fill="#DADBD8" d="M519.226 580.882c-18.213 2.141-36.957-.408-53.935-7.336-2.969-1.211-5.901-2.559-9.009-3.347a26.37 26.37 0 00-9.276-.655c-2.454.265-5.064.999-6.553 2.967-2.192 2.89-1.065 6.995.152 10.41 1.426 4.005 2.911 8.113 5.701 11.319 3.263 3.753 7.994 5.895 12.736 7.39 9.278 2.924 19.077 3.76 28.796 4.147l33.393-1.828-2.005-23.067"/><path fill="#17282F" d="M514.278 603.77c-.047.053-1.085-.793-2.365-2.524-1.281-1.72-2.699-4.398-3.451-7.61-.739-3.216-.64-6.246-.247-8.354.388-2.116.948-3.332 1.014-3.307.118.037-.269 1.296-.522 3.381-.259 2.078-.273 5.004.442 8.12.728 3.113 2.027 5.736 3.176 7.488 1.142 1.76 2.044 2.722 1.953 2.806zM454.75 570.213c.04-.017.236.295.512.897.277.603.61 1.509.885 2.667.559 2.298.747 5.718-.378 9.219-1.127 3.503-3.274 6.173-5.068 7.714-.899.783-1.698 1.325-2.276 1.651-.575.33-.915.469-.937.432-.066-.106 1.207-.832 2.873-2.449 1.662-1.593 3.655-4.205 4.737-7.562 1.078-3.358.981-6.641.56-8.906-.412-2.282-1.024-3.615-.908-3.663z"/><path fill="#17282F" d="M513.928 586.441c.009.194-1.17.404-2.632.47-1.462.066-2.654-.037-2.663-.231-.008-.195 1.17-.407 2.633-.473 1.461-.066 2.652.04 2.662.234M512.921 595.556c.08.171-.576.612-1.512.609-.936.003-1.592-.438-1.514-.609.076-.186.732-.089 1.514-.095.782.006 1.437-.091 1.512.095z"/><path fill="#33535F" d="M629.228 560.59c-2.608-7.392-3.043-18.263-19.139-23.481-16.093-5.219-28.272 4.782-36.538 8.262-8.264 3.478-53.502 28.266-53.502 28.266s-8.518 15.188-6.092 21.889c2.425 6.702 13.443 13.336 13.443 13.336h50.577c13.05 0 37.333-.436 37.333-.436 4.467-7.006 8.7-16.524 8.7-16.524l.435-2.174c0-1.74 7.394-21.745 4.783-29.138"/><path fill="#17282F" d="M601.208 599.002s-.037.293-.371.689c-.325.402-.882.929-1.666 1.5-1.57 1.146-4.002 2.562-7.151 4.005-1.58.713-3.322 1.464-5.282 2.075-1.953.617-4.098 1.072-6.374 1.377-4.558.65-9.612.507-14.858.582-10.522.168-20.055.563-26.965.486-3.455-.025-6.252-.165-8.178-.364-.963-.1-1.706-.205-2.206-.311-.502-.095-.761-.156-.757-.179.013-.072 1.063.116 2.986.216 1.921.114 4.708.179 8.153.14 6.895-.049 16.417-.522 26.958-.692 5.275-.075 10.283.085 14.784-.523 2.248-.283 4.363-.708 6.286-1.289 1.924-.575 3.672-1.296 5.249-1.971 3.151-1.375 5.602-2.714 7.197-3.777.8-.529 1.369-1.008 1.715-1.366.359-.356.436-.616.48-.598"/><path fill="#17282F" d="M527.4 608.862s-.237-.105-.67-.356a41.695 41.695 0 01-1.882-1.172c-1.614-1.084-3.994-2.714-6.65-5.286-1.3-1.306-2.695-2.85-3.763-4.853-1.122-2.018-1.173-4.642-.741-7.193.895-5.17 3.157-10.698 6.115-16.495l.035-.07.074-.04a3062.228 3062.228 0 0128.169-15.315c5.195-2.782 10.609-5.664 16.226-8.564 2.816-1.442 5.657-2.92 8.641-4.261 2.969-1.261 5.809-2.911 8.778-4.421 4.196-2.152 8.535-4.045 13.072-4.914 2.253-.493 4.548-.623 6.807-.623 2.257.11 4.495.366 6.625.953 4.259 1.127 8.279 2.905 11.587 5.531a22.93 22.93 0 014.21 4.559c1.146 1.696 2.015 3.517 2.719 5.349.708 1.834 1.223 3.687 1.738 5.489.47 1.811 1.197 3.492 1.447 5.36.365 3.666-.24 7.122-.863 10.339-.652 3.223-1.451 6.231-2.246 9.04l-1.185 4.065c-.369 1.292-.8 2.591-.993 3.744l-.005.04-.444 2.172-.003.01-.001.006c-1.829 5.699-4.051 9.902-5.81 12.601-1.781 2.695-3.077 3.869-3.077 3.869-.008-.006.057-.093.19-.261l.598-.728a34.5 34.5 0 002.115-2.993c1.692-2.711 3.85-6.932 5.609-12.597l-.003.015c.823-.687.661-1.362.424-2.176l-.003.042c.203-1.341.618-2.541.979-3.868l1.154-4.069c.774-2.807 1.551-5.81 2.181-9.016.605-3.192 1.177-6.64.807-10.161-.225-1.711-.97-3.452-1.451-5.266-.522-1.803-1.039-3.637-1.74-5.435-.697-1.795-1.553-3.566-2.667-5.207a22.367 22.367 0 00-4.094-4.411c-3.21-2.538-7.167-4.284-11.341-5.38-2.087-.572-4.271-.815-6.474-.925-2.206.005-4.446.131-6.653.62-4.443.85-8.716 2.713-12.889 4.853-2.947 1.501-5.806 3.159-8.82 4.438-2.938 1.318-5.791 2.798-8.602 4.233-5.614 2.891-11.03 5.764-16.23 8.532l-28.218 15.212.109-.109c-2.96 5.728-5.247 11.233-6.163 16.304-.438 2.527-.414 4.995.643 6.95 1.017 1.953 2.375 3.497 3.646 4.804 2.597 2.581 4.942 4.252 6.522 5.372.783.529 1.393.939 1.836 1.236.416.275.625.427.625.427"/><path fill="#DADBD8" d="M609.719 590.106s15.067 1.795 13.725 9.17c-1.338 7.376-6.261 9.851-6.261 9.851l-40.953.088s24.454-1.703 33.489-19.109z"/><path fill="#17282F" d="M611.179 586.521c.085.025-.034.835-.456 2.092a16.337 16.337 0 01-2.444 4.565c-2.528 3.286-5.736 4.566-5.763 4.414-.131-.202 2.81-1.715 5.204-4.843 2.389-3.121 3.229-6.313 3.459-6.228"/><path fill="#17282F" d="M605.949 589.416c.195.008-.031 2.542-1.454 5.246-1.384 2.715-3.157 4.466-3.287 4.34-.16-.132 1.325-2.035 2.658-4.66 1.377-2.609 1.888-4.955 2.083-4.926zM625.174 607.07c-.113-.057.856-1.925 2.038-5.089 1.187-3.159 2.479-7.667 3.072-12.782.578-5.119.336-9.803-.108-13.148-.438-3.347-.959-5.386-.837-5.417.046-.013.213.485.473 1.403.273.913.572 2.262.857 3.943.575 3.358.901 8.108.315 13.298-.6 5.189-1.989 9.743-3.307 12.885-.656 1.574-1.253 2.82-1.725 3.647-.46.834-.735 1.283-.778 1.26z"/><path fill="#20353D" d="M583.734 607.432c5.839-1.524 11.956-4.332 17.163-8.017-.048.059-.103.12-.17.185-.345.358-.914.837-1.714 1.366-1.595 1.063-4.046 2.402-7.197 3.776-1.577.676-3.325 1.397-5.249 1.972-.904.273-1.851.512-2.833.718zm7.113-1.716c.4-.173.79-.347 1.173-.52 3.149-1.443 5.581-2.859 7.151-4.005.784-.571 1.341-1.098 1.666-1.5.142-.168.231-.319.285-.434a46.505 46.505 0 003.151-2.466 14.739 14.739 0 001.794-1.301c-4.296 4.992-9.973 8.188-15.22 10.226z"/><path fill="#0F191D" d="M577.887 608.58c-.174 0-.347 0-.516-.002 2.042-.189 4.183-.579 6.363-1.146a33.858 33.858 0 002.833-.718c1.924-.575 3.672-1.296 5.249-1.972 3.151-1.374 5.602-2.713 7.197-3.776.8-.529 1.369-1.008 1.715-1.366a2.26 2.26 0 00.169-.185c.076-.052.15-.105.225-.158a1.993 1.993 0 01-.285.434c-.325.402-.882.929-1.666 1.5-1.57 1.146-4.002 2.562-7.151 4.005-.383.173-.773.347-1.173.52-3.694 1.436-7.175 2.295-9.812 2.806a93.068 93.068 0 01-3.148.058"/><path fill="#20353D" d="M616.189 591.602c-2.425-.821-4.779-1.244-5.856-1.41a24.387 24.387 0 002.344-4.184c.446-1.028 1.173-2.272 2.218-2.272.09 0 .182.009.276.028.978.199 1.371 1.375 1.475 2.367.199 1.843.022 3.693-.457 5.471"/><path fill="#8F9192" d="M581.035 608.522c2.638-.511 6.118-1.37 9.812-2.805 5.247-2.039 10.924-5.235 15.22-10.227a15.013 15.013 0 003.415-4.131c.296-.386.579-.776.85-1.167 1.078.166 3.432.589 5.857 1.41-.905 3.359-2.892 6.472-5.476 8.836-3.952 3.618-9.153 5.641-14.427 6.596-4.177.757-10.246 1.31-15.251 1.488"/><path fill="#0F191D" d="M604.273 596.791c1.967-1.686 3.73-3.506 5.209-5.433a15.013 15.013 0 01-5.209 5.433z"/><path fill="#17282F" d="M516.864 569.792c-.083.176-3.329-1.058-7.248-2.755-3.921-1.7-7.04-3.221-6.966-3.401.074-.181 3.318 1.052 7.25 2.755 3.931 1.701 7.049 3.226 6.964 3.401z"/><path fill="#C3C5C2" d="M502.504 559.578c-2.727-.858-5.778-1.82-8.993-2.834 5.176.843 10.346 1.715 15.513 2.617-2.166.102-4.339.174-6.52.217"/><path fill="#263F48" d="M533.125 564.223l-1.925-.091.503-.62c.536.124 1.106.335 1.422.711zm-3.055-.144l-15.586-.733s-4.902-1.54-11.98-3.768c2.181-.043 4.354-.115 6.52-.217 6.468 1.128 12.93 2.301 19.383 3.52l1.663 1.198z"/><path fill="#D8866F" d="M531.2 564.132l-1.13-.052-1.663-1.199c1.02.194 2.044.388 3.066.584.074.014.151.029.23.047l-.503.62"/><path fill="#263F48" d="M492.184 574.064c-4.531 0-9.037-.37-13.438-1.422-8.422-2.014-16.527-6.869-20.628-14.494l14.634-4.626a1426.932 1426.932 0 0120.759 3.222c3.215 1.014 6.266 1.976 8.993 2.834 7.078 2.228 11.98 3.768 11.98 3.768l15.586.734 1.13.052 1.926.091c.131.157.218.342.242.561.077.726-.629 1.268-1.261 1.634-8.264 4.757-18.016 6.085-27.513 6.959-4.117.379-8.273.687-12.41.687zm10.52-10.447c-.031 0-.049.006-.054.019-.074.18 3.045 1.701 6.966 3.401 3.669 1.589 6.749 2.772 7.194 2.772.031 0 .05-.006.054-.017.085-.175-3.033-1.7-6.964-3.401-3.675-1.591-6.75-2.774-7.196-2.774"/><path fill="#111D23" d="M516.81 569.809c-.445 0-3.525-1.183-7.194-2.772-3.921-1.7-7.04-3.221-6.966-3.401.005-.013.023-.019.054-.019.446 0 3.521 1.182 7.196 2.774 3.931 1.701 7.049 3.225 6.964 3.401-.004.011-.023.017-.054.017"/><path fill="#DADBD8" d="M435.446 505.38l24.571 54.346a6.36 6.36 0 005.715 3.739l71.67.929 9.036-4.861-14.151-1.035-22.022-52.843a4.556 4.556 0 00-4.17-2.801l-68.667-.52a2.157 2.157 0 00-1.982 3.046"/><path fill="#17282F" d="M435.446 505.38s-.145-.196-.216-.655c-.071-.441.003-1.222.671-1.877a2.193 2.193 0 011.392-.6l1.802-.014c1.305 0 2.805 0 4.49-.002 6.798.024 16.599.056 28.761.096l19.982.102c3.601.022 7.329.041 11.173.065l2.929.029a4.912 4.912 0 012.876 1.21c.834.675 1.295 1.747 1.644 2.644l1.17 2.796 20.537 49.17-.341-.245c4.355.317 8.984.656 13.666.998.164.011.331.023.484.036l1.375.1-1.214.652c-3.104 1.67-6.164 3.318-9.036 4.862l-.091.049-.105-.001-54.356-.744c-4.155-.061-8.202-.119-12.131-.175-1.978-.045-3.868-.023-5.833-.122a6.708 6.708 0 01-4.862-3.003c-3.199-6.727-5.871-12.955-8.463-18.646l-12.017-26.876-3.217-7.292c-.349-.81-.62-1.44-.816-1.899-.18-.429-.254-.658-.254-.658s.122.206.325.625l.887 1.868 3.349 7.232 12.241 26.775c2.605 5.638 5.375 11.975 8.508 18.52a6.054 6.054 0 004.393 2.692c1.836.084 3.82.06 5.768.097 3.929.045 7.977.091 12.132.14 16.626.202 34.973.427 54.357.664l-.194.05 9.033-4.864.162.753-.484-.035-13.665-1-.245-.019-.094-.228a1445775.033 1445775.033 0 01-21.625-52.001c-.374-.961-.729-1.786-1.452-2.391a4.225 4.225 0 00-2.463-1.045c-.968-.012-1.928-.025-2.882-.039-3.845-.035-7.572-.069-11.173-.105-7.197-.07-13.884-.138-19.983-.2-12.162-.143-21.961-.258-28.758-.34l-4.49-.068c-.646-.008-1.242-.017-1.791-.023a2.066 2.066 0 00-1.298.52 2.134 2.134 0 00-.697 1.757c.043.445.162.657.139.665"/><path fill="#17282F" d="M530.18 564.3c-.022.009-.134-.194-.33-.592-.221-.476-.492-1.054-.819-1.755l-2.878-6.511A1324.258 1324.258 0 01517 533.818c-3.505-8.478-6.59-16.188-8.734-21.804-1.068-2.809-1.921-5.088-2.47-6.679l-.622-1.834c-.136-.421-.196-.647-.173-.653.023-.01.128.198.305.604.202.483.449 1.072.746 1.786a7773.69 7773.69 0 012.678 6.593c2.32 5.651 5.457 13.282 8.922 21.717 3.479 8.428 6.628 16.053 8.961 21.7l2.671 6.599c.279.719.509 1.316.697 1.806.152.414.222.64.199.647"/><path fill="#fff" d="M485.717 531.728a3.512 3.512 0 01-3.513 3.512 3.513 3.513 0 110-7.028 3.515 3.515 0 013.513 3.516z"/><path fill="#33535F" d="M210.834 555.424l-8.248 31.028s28.779 18.804 27.814 24.686l-60.756-13.828 10.866-48.874 30.324 6.988z"/><path fill="#DADBD8" d="M184.399 579.546c-1.25.052-2.363 1.191-2.36 2.44.002 1.249 1.148 2.391 2.399 2.359 1.248-.031 2.628-1.357 2.485-2.597-.142-1.242-1.562-2.509-2.767-2.178l.243-.024"/><path fill="#17282F" d="M169.644 597.311l1.287-4.884 57.77 15.084s2.438 1.792 1.699 3.627l-60.756-13.827zM203.642 586.369c-.078.292-1.593.089-3.27.711-1.693.578-2.738 1.691-2.984 1.512-.259-.12.585-1.792 2.629-2.509 2.037-.735 3.751.028 3.625.286zM209.413 590.453c.003.303-1.397.514-2.69 1.539-1.323.988-1.885 2.287-2.178 2.207-.29-.017-.1-1.802 1.532-3.046 1.622-1.257 3.394-.985 3.336-.7zM211.297 598.902c-.284.002-.36-1.575.772-3.025 1.122-1.461 2.667-1.783 2.736-1.507.111.283-.987.949-1.899 2.154-.939 1.184-1.307 2.415-1.609 2.378zM204.736 579.087c-.187.242-1.454-.477-3.157-.743-1.697-.304-3.131-.038-3.226-.327-.124-.254 1.401-1.063 3.402-.718 2.002.327 3.18 1.588 2.981 1.788"/><path fill="#20353D" d="M229.13 607.873a5.035 5.035 0 00-.429-.362l-57.77-15.084-1.287 4.884 2.81-12.641 11.117-.49c.258.107.534.167.816.167.017 0 .034 0 .051-.002a2.27 2.27 0 00.934-.243l6.005-.266.302-3.719 12.041 2.067-.98 3.69a4.459 4.459 0 00-.968-.102c-.524 0-1.124.083-1.755.311-2.044.717-2.888 2.389-2.629 2.509.018.014.04.02.067.02.335 0 1.348-.997 2.917-1.532.925-.343 1.8-.434 2.412-.498.623.412 2.669 1.77 5.385 3.665a4.45 4.45 0 00-2.092.906c-1.632 1.244-1.822 3.029-1.532 3.046.007.001.017.003.026.003.301 0 .868-1.252 2.152-2.21.826-.655 1.697-.977 2.217-1.205a258.495 258.495 0 015.033 3.629c-.555.208-1.292.666-1.904 1.461-1.132 1.45-1.056 3.027-.773 3.025h.014c.299 0 .672-1.211 1.596-2.378.587-.775 1.25-1.326 1.618-1.697 5.756 4.289 11.975 9.37 14.606 13.046"/><path fill="#8F9192" d="M184.387 584.347c-.282 0-.558-.061-.816-.167l1.801-.078a2.27 2.27 0 01-.934.243c-.017.002-.034.002-.051.002"/><path fill="#0F191D" d="M230.4 611.138l-60.756-13.827 1.287-4.884 57.77 15.084s.181.131.429.362c.926 1.294 1.409 2.415 1.27 3.265M197.456 588.612a.106.106 0 01-.068-.02c-.259-.12.585-1.792 2.629-2.509a5.164 5.164 0 011.755-.311c.363 0 .692.04.968.102l-.154.578.198.13c-.612.064-1.487.155-2.412.498-1.569.535-2.582 1.532-2.916 1.532M204.571 594.202c-.009 0-.019-.002-.026-.003-.29-.017-.1-1.802 1.532-3.046a4.45 4.45 0 012.092-.906l.771.54c-.52.228-1.391.55-2.217 1.205-1.284.958-1.851 2.21-2.152 2.21M211.31 598.902h-.013c-.284.002-.36-1.575.772-3.025.612-.795 1.349-1.253 1.904-1.461.183.135.368.273.551.411-.368.37-1.031.922-1.618 1.697-.924 1.167-1.297 2.378-1.596 2.378z"/><path fill="#33535F" d="M189.605 561.452l-.568 32.103s32.449 11.357 32.92 17.298l-62.299 1.137-1.168-50.055 31.115-.483"/><path fill="#DADBD8" d="M169.724 591.206c-1.199.353-2.008 1.723-1.706 2.936.302 1.213 1.689 2.046 2.895 1.715 1.205-.33 2.227-1.947 1.791-3.116-.436-1.171-2.118-2.062-3.21-1.452"/><path fill="#17282F" d="M159.658 611.99l.08-5.05 59.704.8s2.795 1.156 2.515 3.113l-62.299 1.137M190.041 593.219c-.005.303-1.523.47-3.001 1.475-1.505.966-2.254 2.297-2.536 2.182-.282-.053.139-1.881 1.951-3.065 1.801-1.201 3.648-.873 3.586-.592M196.625 595.801c.075.293-1.234.836-2.243 2.141-1.047 1.274-1.283 2.671-1.586 2.661-.286.054-.528-1.723.758-3.322 1.272-1.609 3.06-1.771 3.071-1.48M200.478 603.552c-.274.07-.726-1.441.025-3.121.74-1.686 2.161-2.369 2.295-2.118.176.247-.73 1.158-1.325 2.546-.629 1.373-.692 2.658-.995 2.693M189.358 585.888c-.122.28-1.524-.115-3.243.033-1.719.115-3.048.716-3.211.458-.179-.217 1.107-1.367 3.132-1.513 2.023-.161 3.469.78 3.322 1.022zM152.317 291.173l-7.152 44.461 5.222 36.736.221 7.986 5.29 39.194c-.294 7.438-1.81 38.544-2.942 44.957-1.404 7.955 2.491 120.912 2.491 120.912l35.93-1.583s13.587-167.497 13.536-169.342c-.051-1.842 18.685-125.307 18.685-125.307l-71.281 1.986z"/><path fill="#17282F" d="M243.15 298.037s5.69 123.964 3.809 139.265c-1.515 12.323-39.211 145.574-39.211 145.574l-32.952-5.662 12.961-143.799 4.692-143.361 50.701 7.983"/><path fill="#33535F" d="M218.09 347.172c.203.024-4.262 36.503-9.974 81.471-5.712 44.984-16.535 155.218-16.739 155.193-.202-.023 10.291-110.297 16.003-155.28 5.711-44.965 10.506-81.409 10.71-81.384"/><path fill="#17282F" d="M208.184 85.24c-1.913-3.761-3.843-7.561-4.872-11.653-1.03-4.093-1.096-8.562.65-12.404 1.021-2.246 2.625-4.215 3.427-6.55 1.104-3.212.652-7 2.64-9.752 3.11-4.303 9.761-3.3 14.567-5.55 3.743-1.756 6.358-5.541 10.295-6.803 3.44-1.102 7.189-.045 10.509 1.376 3.321 1.42 6.558 3.23 10.14 3.7 2.553.333 5.143-.035 7.715.02 2.575.056 5.309.624 7.122 2.455 1.811 1.828 2.194 5.204.23 6.87 4.504-.764 8.746 3.731 8.688 8.297-.059 4.567-3.5 8.587-7.654 10.486-4.154 1.899-8.897 2.023-13.451 1.669-12.893-1.005-25.848-5.904-34.626-15.398"/><path fill="#F8A58D" d="M210.963 69.112l-8.784 63.822c-1.493 10.853 12.014 30.76 22.929 31.716 10.188.892 13.673-6.436 15.056-16.565.657-4.805 1.213-18.766 1.313-19.256 0 0 16.462.707 19.848-15.212 1.638-7.693 3.719-23.813 5.431-38.418 1.841-15.685-8.697-30.148-24.187-33.243l-1.54-.308c-16.803-2.347-28.183 10.607-30.066 27.464"/><path fill="#F68260" d="M241.477 128.829s-10.18-1.42-19.555-10.295c0 0 3.064 13.374 19.281 15.118l.274-4.823"/><path fill="#17282F" d="M259.598 88.767c-.198 1.21-1.388 2.043-2.658 1.86-1.267-.184-2.136-1.313-1.939-2.525.197-1.21 1.387-2.045 2.656-1.861 1.268.183 2.138 1.314 1.941 2.526zM261.762 82.347c-.342.24-1.815-1.383-4.269-1.867-2.444-.518-4.498.384-4.703.031-.103-.159.29-.638 1.189-1.052.885-.413 2.312-.705 3.838-.392 1.526.314 2.699 1.133 3.324 1.856.638.73.786 1.317.621 1.424M236.719 84.818c-.198 1.212-1.388 2.044-2.658 1.86-1.267-.183-2.138-1.311-1.939-2.524.199-1.211 1.389-2.045 2.656-1.863 1.27.183 2.14 1.315 1.941 2.527zM237.557 77.987c-.342.24-1.816-1.383-4.268-1.867-2.445-.516-4.498.386-4.703.031-.105-.158.288-.638 1.188-1.05.885-.415 2.313-.705 3.839-.394 1.526.315 2.699 1.133 3.323 1.857.637.73.786 1.318.621 1.423M242.825 97.953c.017-.142 1.594-.1 4.128.077.639.06 1.258.054 1.447-.351.239-.422.113-1.151-.046-1.94-.287-1.634-.584-3.345-.9-5.138-1.215-7.304-1.961-13.258-1.668-13.306.296-.046 1.52 5.836 2.734 13.14.286 1.798.56 3.511.817 5.151.094.758.341 1.647-.166 2.523-.262.434-.789.682-1.213.71-.426.042-.78-.021-1.093-.066-2.514-.362-4.059-.66-4.04-.8M235.267 98.207c.403.057-.124 2.719 1.778 5.064 1.897 2.351 4.795 2.619 4.741 2.995.003.174-.736.391-1.941.183-1.182-.194-2.824-.914-3.986-2.349-1.16-1.436-1.448-3.102-1.322-4.211.122-1.133.551-1.734.73-1.682M240.112 68.503c-.375.618-2.763-.186-5.709-.415-2.942-.288-5.432.091-5.694-.582-.114-.32.416-.868 1.485-1.326 1.057-.459 2.665-.775 4.43-.622 1.766.157 3.293.747 4.256 1.382.971.637 1.4 1.267 1.232 1.563M262.278 75.07c-.542.47-2.118-.447-4.143-.879-2.012-.505-3.828-.376-4.108-1.039-.118-.316.266-.821 1.123-1.197.845-.378 2.171-.56 3.558-.239 1.387.324 2.497 1.07 3.091 1.782.602.716.723 1.337.479 1.572"/><path fill="#F8A58D" d="M209.906 81.19c-.25-.174-10.32-5.436-12.153 5.544-1.831 10.98 9.573 10.553 9.645 10.242.071-.311 2.508-15.787 2.508-15.787z"/><path fill="#F68260" d="M204.738 92.257c-.044-.043-.216.102-.563.196a1.935 1.935 0 01-1.435-.208c-1.089-.62-1.759-2.625-1.482-4.613a6.396 6.396 0 01.992-2.649c.47-.747 1.083-1.222 1.684-1.228a.987.987 0 011.042.712c.096.333-.01.54.045.569.026.032.265-.145.253-.614a1.24 1.24 0 00-.316-.76c-.228-.258-.598-.43-1.013-.456-.855-.081-1.748.57-2.283 1.369a6.588 6.588 0 00-1.173 2.95c-.299 2.225.489 4.484 2.001 5.207.738.331 1.421.206 1.797.003.386-.216.484-.452.451-.478"/><path fill="#17282F" d="M269.918 60.375c-1.885 4.058-11.575 5.625-18.678 3.481-6.55-1.975-8.926-6.132-13.092-9.753-2.638-2.293-2.638-2.293-6.939-2.739-3.476-.357-6.267 3.104-8.896 5.407 1.463 8.725-2.418 17.366-6.201 25.364-.418.885-.896 1.831-1.773 2.264-1.49.734-3.268-.427-4.157-1.83-1.426-2.243-1.592-5.046-1.54-7.704.12-6.055 1.184-12.143 3.643-17.677 2.46-5.535 6.367-10.5 11.482-13.745 6.391-4.056 14.444-5.213 21.843-3.617 7.399 1.597 14.119 5.836 19.15 11.492 2.332 2.625 4.364 5.638 5.158 9.057M247.575 86.917c.094.007.061-.946.5-2.55a10.586 10.586 0 013.888-5.644c2.295-1.772 6.07-2.76 9.719-1.399a10.13 10.13 0 014.727 3.57c1.25 1.671 1.953 3.813 1.977 6.023-.022 2.21-.725 4.352-1.977 6.023a10.123 10.123 0 01-4.727 3.572c-3.651 1.362-7.426.373-9.721-1.4a10.586 10.586 0 01-3.886-5.643c-.439-1.604-.406-2.555-.5-2.552-.03 0-.049.235-.057.683-.013.449.037 1.116.221 1.954.345 1.65 1.373 4.117 3.841 6.058 2.385 1.945 6.419 3.096 10.381 1.67a10.863 10.863 0 005.15-3.827c1.367-1.805 2.142-4.138 2.161-6.538-.02-2.4-.796-4.73-2.163-6.535a10.863 10.863 0 00-5.148-3.827c-3.962-1.427-7.996-.276-10.379 1.67-2.468 1.94-3.498 4.407-3.842 6.057-.185.839-.235 1.506-.222 1.954.008.449.027.681.057.681"/><path fill="#17282F" d="M221.524 82.371c.094.005.06-.948.5-2.553a10.587 10.587 0 013.887-5.642c2.296-1.773 6.071-2.76 9.721-1.4a10.12 10.12 0 014.726 3.573c1.252 1.669 1.955 3.81 1.976 6.02-.02 2.209-.724 4.353-1.976 6.023a10.12 10.12 0 01-4.726 3.572c-3.652 1.363-7.425.373-9.722-1.399a10.592 10.592 0 01-3.886-5.643c-.44-1.605-.406-2.557-.5-2.55-.031 0-.049.232-.055.68-.016.449.035 1.118.22 1.954.344 1.65 1.372 4.115 3.842 6.058 2.383 1.945 6.417 3.097 10.38 1.67a10.885 10.885 0 005.149-3.827c1.367-1.806 2.142-4.138 2.161-6.539-.019-2.398-.796-4.731-2.161-6.534a10.88 10.88 0 00-5.149-3.827c-3.963-1.427-7.997-.276-10.38 1.67-2.468 1.941-3.498 4.405-3.842 6.057-.185.837-.236 1.506-.22 1.954.006.449.024.683.055.683"/><path fill="#17282F" d="M242.986 82.74c.11.221 1.506-.432 3.13.066 1.629.48 2.434 1.797 2.648 1.67.103-.047.052-.465-.316-1.017-.356-.547-1.078-1.203-2.076-1.504-.998-.299-1.961-.15-2.561.108-.612.259-.885.58-.825.677M206.765 79.559c.003.243 3.505.393 7.821.333 4.318-.062 7.814-.309 7.811-.554-.003-.246-3.506-.394-7.823-.334-4.316.06-7.813.31-7.809.555"/><path fill="#F8A58D" d="M276.232 213.515l-27.393 18.084.406 7.169 7.145 15.074s3.303 3.133 13.005-6.69c9.702-9.821 21.976-29.344 21.976-29.344l-15.139-4.293z"/><path fill="#17282F" d="M322.348 175.832a2.27 2.27 0 00-1.782-1.325l-13.42-1.799a4.258 4.258 0 00-3.266.99l-38.429 32.993 1.74 1.692 14.414 3.472 41.009-35.419-.266-.604"/><path fill="#fff" d="M311.697 178.569c.208.311.721.344 1.145.072.426-.271.603-.742.395-1.055-.207-.312-.72-.344-1.146-.073-.425.271-.602.743-.394 1.056z"/><path fill="#33535F" d="M322.614 176.436c-.008.054-.947-.02-2.638-.2l-7.145-.837-4.929-.617a2.83 2.83 0 00-2.328.605c-.712.618-1.444 1.251-2.195 1.9-3.031 2.607-6.343 5.461-9.822 8.456a2087.147 2087.147 0 01-17.963 15.233l-5.504 4.548c-1.313 1.062-2.054 1.627-2.091 1.587-.036-.04.636-.685 1.883-1.818l5.335-4.736a2085.612 2085.612 0 0117.808-15.408l9.864-8.409 2.229-1.885c.804-.674 1.94-.908 2.859-.723l4.922.712 7.12 1.088c1.677.273 2.602.45 2.595.504"/><path fill="#F8A58D" d="M308.665 183.328s-1.223-.592-2.917 2.732c-1.692 3.326-6.799 12.79-6.799 12.79l-5.742-5.476-8.751-1.268s-2.319 1.183-1.227 2.487c1.091 1.302 6.161 3.753 6.161 3.753l2.348 6.759-9.767-8.612s-4.045-.074-3.587 2.535c.459 2.608 6.056 11.939 6.056 11.939l-5.538-2.016-5.582-5.971s-2.092-.486-1.814 1.488c.277 1.975 5.492 10.289 5.492 10.289l7.33 6.494s4.734.937 5.558-.299c.827-1.236 1.485-3.144 1.485-3.144s2.645.028 3.439-1.036c.794-1.063 1.028-3.032 1.028-3.032s3.669 1.76 4.752-.258c1.083-2.016 1.869-6.366 1.944-8.129.076-1.766 6.425-16.573 6.397-17.081-.027-.511 2.439-5.282-.266-4.944"/><path fill="#F68260" d="M290.179 221.054c0 .108-.92.237-2.406.066-1.48-.166-3.515-.712-5.522-1.823-2.004-1.117-3.542-2.555-4.464-3.723-.931-1.17-1.307-2.021-1.215-2.078.221-.174 2.256 2.908 6.119 5.012 3.826 2.167 7.517 2.265 7.488 2.546zM289.023 217.447c-.187.159-1.469-1.051-2.704-2.818-1.239-1.768-1.936-3.386-1.722-3.508.219-.126 1.249 1.261 2.462 2.99 1.209 1.732 2.158 3.173 1.964 3.336zM295.54 211.38c-.183.161-1.461-1.028-2.574-2.843-1.119-1.812-1.603-3.488-1.378-3.578.236-.101 1.068 1.359 2.147 3.105 1.073 1.751 2 3.151 1.805 3.316M301.89 206.8c-.259.034-.664-1.798-1.523-3.91-.84-2.117-1.814-3.72-1.605-3.875.184-.152 1.549 1.294 2.443 3.539.907 2.24.922 4.229.685 4.246"/><path fill="#33535F" d="M264.597 217.797l18.041 16.22s-28.241 30.839-36.968 37.661c-8.725 6.821 2.792-46.542 2.792-46.542l16.135-7.339"/><path fill="#33535F" d="M203.33 121.347l-7.504 10.398-29.202 10.796-13.246 99.276-10.785 88.779s20.367 3.624 25.414-3.767c5.887-8.619 51.874-.853 54.937 1.458l5.979-20.071 4.845 23.238s8.503 1.916 12.944-10.794l-1.885-44.052s5.981-79.42 5.646-91.397c-.332-11.977-8.439-45.237-8.439-45.237l-3.02 9.806-26.295-22.418-9.389-6.015"/><path fill="#33535F" d="M175.062 139.515s-19.185-.064-25.387 35.468c-6.202 35.531-15.128 73.651-10.534 87.907 4.593 14.255 22.618 55.32 22.618 55.32l24.718-8.906-10.14-64.493 11.735-63.117s1.449-39.586-13.01-42.179"/><path fill="#F8A58D" d="M196.617 323.089l-10.14-13.785-20.998 7.544s-.702 6.693.129 14.589c.736 6.983 1.939 14.459 1.939 14.459l24.859-13.254s1.046 5.178 2.429 8.066c1.383 2.891 6.178-.171 6.178-.171l-4.396-17.448"/><path fill="#17282F" d="M188.072 181.694s-.043.387-.166 1.131l-.573 3.301c-.525 2.921-1.289 7.18-2.271 12.636l-8.443 46.101.002-.097 10.209 64.481.046.293-.279.1-24.713 8.917-.327.117-.135-.316c-2.508-5.818-5.163-11.973-7.852-18.213-4.721-11.169-9.312-22.083-13.272-32.828-.505-1.339-.947-2.698-1.407-4.041-.218-.678-.35-1.391-.528-2.085-.179-.695-.339-1.39-.392-2.097-.171-1.407-.362-2.807-.367-4.204-.063-1.398-.105-2.788-.042-4.167.119-5.521.667-10.894 1.364-16.105 1.357-10.431 3.203-20.25 4.886-29.439l4.768-25.544c.664-3.911 1.444-7.625 2.22-11.128l1.451-5.022c.55-1.598 1.163-3.119 1.711-4.603 2.431-5.847 5.568-10.468 8.862-13.493 3.268-3.065 6.493-4.583 8.725-5.266a15.125 15.125 0 012.605-.568l.679-.05c.152-.001.229.01.229.01s-.307.031-.898.115c-.589.102-1.466.265-2.57.635-2.2.725-5.368 2.269-8.571 5.334-3.229 3.025-6.3 7.622-8.677 13.441-.536 1.478-1.135 2.991-1.673 4.582l-1.415 5.001c-.754 3.486-1.511 7.181-2.162 11.105l-4.679 25.562c-1.656 9.191-3.478 19.009-4.812 29.416-.688 5.198-1.224 10.555-1.335 16.029-.061 1.37-.016 2.743.048 4.122.003 1.386.196 2.754.364 4.132.051.697.209 1.37.383 2.04.174.672.297 1.353.513 2.024.459 1.334.899 2.681 1.403 4.017 3.959 10.708 8.554 21.623 13.271 32.786l7.845 18.206-.463-.199 24.721-8.896-.233.393c-3.764-24.123-7.198-46.133-10.067-64.504l-.008-.05.01-.047 8.689-46.057 2.423-12.606.652-3.284c.153-.742.251-1.118.251-1.118M239.012 149.78c.034.018-.166.479-.571 1.317l-1.793 3.593-6.454 12.479-.252.487-.326-.446a200.185 200.185 0 00-23.366-26.66c-2.1-2.019-3.845-3.607-5.044-4.714-1.209-1.094-1.861-1.72-1.828-1.76.032-.038.749.513 2.018 1.543a133.98 133.98 0 015.213 4.549c4.321 3.935 10.041 9.666 15.746 16.534a173.431 173.431 0 017.814 10.108l-.578.04 6.692-12.353a8013.71 8013.71 0 011.963-3.501c.467-.808.734-1.233.766-1.216M245.484 155.077c.248-.09 1.487 4.419.602 10.433l-.154 1.055-.524-.969a29.788 29.788 0 01-.814-1.629c-1.393-3.128-2.142-6.096-2.912-8.151-.737-2.068-1.347-3.288-1.247-3.344.079-.046.86 1.101 1.736 3.152.905 2.039 1.742 4.996 3.098 8.035a34 34 0 00.785 1.586l-.678.086c.53-2.789.388-5.455.343-7.285-.063-1.86-.311-2.939-.235-2.969M240.272 154.902c.014 0 .023.134.032.398.005.305.013.689.02 1.165a183.28 183.28 0 01-.021 4.483c-.054 3.89-.222 9.522-.603 16.471-.735 13.902-2.433 33.05-4.171 54.205l-4.636 54.172-1.489 16.41-.444 4.457-.132 1.158c-.034.261-.059.393-.071.392-.012 0-.014-.136-.005-.398l.06-1.165.304-4.469 1.255-16.429c1.134-13.915 2.694-33.049 4.419-54.19 1.739-21.156 3.518-40.295 4.386-54.174.447-6.939.695-12.561.838-16.448l.161-4.476c.021-.478.04-.86.054-1.166.017-.262.03-.396.043-.396M250.626 189.42c.205.015-.899 19.645-2.465 43.841-1.566 24.201-3.001 43.802-3.206 43.786-.203-.015.899-19.641 2.465-43.843 1.568-24.196 3.003-43.8 3.206-43.784z"/><path fill="#17282F" d="M192.87 165.675c-.135.007-.133-1.771-.839-4.5-.684-2.711-2.248-6.384-5.147-9.541-2.904-3.158-6.431-5.027-9.075-5.94-2.66-.933-4.433-1.083-4.413-1.217.003-.045.448-.055 1.247.025.798.078 1.948.28 3.33.693 2.748.805 6.446 2.662 9.457 5.936 3.007 3.275 4.544 7.117 5.113 9.923.294 1.411.399 2.574.408 3.375.013.803-.035 1.246-.081 1.246"/><path fill="#20353D" d="M245.929 271.43c.97-15.4 1.776-30.798 2.746-46.199.001-.032.004-.063.006-.095 3.544 15.155 2.693 31.344-2.713 45.938l-.039.356"/><path fill="#0F191D" d="M248.675 225.232c.001-.033.004-.064.006-.096-.002.032-.005.063-.006.096z"/><path fill="#20353D" d="M192.379 317.327l-5.682-7.723.179-.064-.046-.293c-3.809-24.056-7.287-46.014-10.189-64.354.098-.581.212-1.259.343-2.025l8.078-44.106 1.881-10.461c-3.904 41.108.299 87.773 5.436 129.026M178.35 259.556l-2.058-12.595.048-.282c.643 4.121 1.313 8.419 2.01 12.877z"/><path fill="#BA7562" d="M192.489 318.21l-5.805-8.601.013-.004 5.682 7.722.11.883"/><path fill="#0F191D" d="M186.683 309.609l-.206-.305-8.127-49.748c-.697-4.458-1.367-8.756-2.01-12.877.069-.416.171-1.017.301-1.786 2.902 18.34 6.38 40.298 10.189 64.354l.046.293-.179.065-.014.004zm-9.699-66.741c1.596-9.373 5.524-32.092 10.065-55.675l-.107 1.108-1.88 10.461-8.078 44.106"/><path fill="#20353D" d="M176.226 247.362s.014-.091.045-.27l-.045.27zm.045-.27l.021-.131-.021.131z"/><path fill="#33535F" d="M192.347 332.907c.096.181-6.352 3.799-14.401 8.08-8.051 4.283-14.654 7.607-14.752 7.427-.095-.182 6.351-3.799 14.404-8.082 8.048-4.281 14.652-7.605 14.749-7.425z"/><path fill="#fff" d="M181.524 219.138c-.057.114-2.073-.835-5.395-2.199a119.301 119.301 0 00-13.251-4.552 119.148 119.148 0 00-13.707-2.902c-3.551-.537-5.768-.76-5.758-.886.004-.056.563-.061 1.572-.022 1.009.032 2.466.146 4.261.345 3.588.392 8.525 1.225 13.847 2.693 5.318 1.474 9.981 3.296 13.261 4.803 1.642.752 2.95 1.404 3.832 1.894.887.486 1.363.777 1.338.826M179.025 269.183c.022.053-.416.271-1.223.623-.807.356-1.995.818-3.48 1.342-2.969 1.054-7.155 2.293-11.877 3.232-4.723.932-9.066 1.382-12.212 1.539-1.574.081-2.849.105-3.73.085-.881-.017-1.368-.052-1.369-.108-.003-.123 1.937-.24 5.055-.542 3.119-.301 7.414-.837 12.101-1.762 4.684-.93 8.858-2.071 11.855-2.982 2.998-.909 4.837-1.541 4.88-1.427M192.134 171.531c-.129.089-1.372-1.848-3.923-4.492-1.262-1.334-2.91-2.778-4.848-4.231a43.056 43.056 0 00-6.772-4.002 43.011 43.011 0 00-7.434-2.572c-2.363-.536-4.531-.857-6.363-.957-3.668-.234-5.949.074-5.966-.083-.006-.056.558-.157 1.589-.295.517-.078 1.15-.149 1.89-.163.739-.022 1.583-.091 2.514-.026 1.867.029 4.082.296 6.501.804a40.179 40.179 0 017.607 2.565 40.281 40.281 0 016.877 4.137c1.951 1.515 3.59 3.032 4.818 4.434.654.667 1.147 1.356 1.608 1.934.47.572.825 1.101 1.099 1.544.563.876.851 1.372.803 1.403M230.204 288.148c-.009.054-.703-.019-1.948-.196a192.661 192.661 0 01-5.26-.841c-4.431-.755-10.54-1.891-17.26-3.28-6.719-1.388-12.779-2.764-17.149-3.828-2.184-.53-3.947-.978-5.161-1.311-1.213-.33-1.879-.54-1.866-.593.013-.054.701.052 1.937.289 1.392.284 3.137.64 5.217 1.062 4.562.956 10.557 2.21 17.186 3.597l17.201 3.506 5.212 1.093c1.227.271 1.901.446 1.891.502M234.379 232.903c-.017.222-12.388-.524-27.627-1.664-15.245-1.142-27.588-2.246-27.571-2.466.017-.222 12.386.524 27.63 1.666 15.241 1.14 27.585 2.244 27.568 2.464M238.425 184.28c.003.054-.704.14-1.987.251-1.284.111-3.141.232-5.44.349-4.595.234-10.954.416-17.977.376-7.026-.043-13.381-.301-17.975-.591a161.892 161.892 0 01-5.432-.413c-1.283-.124-1.989-.22-1.986-.275.004-.056.717-.067 2.003-.037l5.443.158c4.593.145 10.94.312 17.952.355a719.32 719.32 0 0017.952-.14l5.445-.094c1.287-.014 1.999.006 2.002.061M205.613 138.878c.015.12-1.407.375-3.681.857a90.179 90.179 0 00-8.766 2.315 90.026 90.026 0 00-8.471 3.236c-2.127.934-3.43 1.558-3.488 1.452-.05-.088 1.16-.891 3.244-1.965 2.083-1.076 5.058-2.386 8.469-3.486 3.412-1.096 6.592-1.768 8.91-2.11 2.32-.344 3.772-.397 3.783-.299M236.471 156.285c-.039.038-.545-.396-1.422-1.213a3548.4 3548.4 0 00-3.695-3.486 469.641 469.641 0 00-12.355-11.301 474.908 474.908 0 00-12.777-10.826l-3.925-3.222c-.923-.768-1.418-1.213-1.384-1.258.034-.045.592.318 1.574 1.01.983.688 2.381 1.721 4.086 3.026 3.413 2.606 8.033 6.337 12.957 10.668 4.918 4.333 9.202 8.442 12.22 11.498a129.174 129.174 0 013.521 3.669c.811.888 1.24 1.396 1.2 1.435M250.598 185.171c-.038.228-2.562-.037-5.671-.17-3.109-.141-5.645-.1-5.663-.328-.022-.213 2.529-.616 5.699-.473 3.167.136 5.674.763 5.635.971zM246.959 236.565c-.006.222-2.588.342-5.768.266-3.18-.074-5.755-.314-5.749-.536.005-.22 2.587-.341 5.767-.265 3.18.074 5.754.314 5.75.535zM245.166 287.932c.039.219-3.214.997-7.266 1.742-4.055.744-7.372 1.171-7.412.952-.04-.217 3.213-.996 7.267-1.741 4.052-.745 7.371-1.172 7.411-.953zM269.261 247.77c-.105.052-.882-1.321-2.139-3.532a245.141 245.141 0 00-5.067-8.539 242.5 242.5 0 00-5.449-8.301c-1.436-2.1-2.327-3.401-2.236-3.472.084-.065 1.136 1.116 2.695 3.139 1.558 2.022 3.604 4.903 5.671 8.21 2.063 3.307 3.754 6.409 4.887 8.696 1.134 2.289 1.732 3.753 1.638 3.799"/></g><defs><clipPath id="a"><path fill="#fff" d="M0 0h1081v650H0z"/></clipPath></defs></svg>
