<svg xmlns="http://www.w3.org/2000/svg" fill="none" viewBox="0 0 500 500"><path fill="#22B8CF" d="M500 250C500 111.929 388.071 0 250 0S0 111.929 0 250s111.929 250 250 250 250-111.929 250-250z"/><path fill="#fff" d="M202.055 135.706c-6.26 8.373-4.494 20.208 3.944 26.42 29.122 21.45 45.824 54.253 45.824 90.005 0 35.752-16.702 68.559-45.824 90.005-8.436 6.215-10.206 18.043-3.944 26.42 6.26 8.378 18.173 10.13 26.611 3.916a153.816 153.816 0 0024.509-22.54h53.93c10.506 0 19.023-8.455 19.023-18.885 0-10.43-8.517-18.886-19.023-18.886h-29.79c8.196-18.594 12.553-38.923 12.553-60.03s-4.357-41.436-12.552-60.03h29.79c10.505 0 19.022-8.455 19.022-18.885 0-10.43-8.517-18.886-19.023-18.886h-53.93a153.863 153.863 0 00-24.509-22.54c-8.438-6.215-20.351-4.46-26.61 3.916h-.001z"/><path fill="#fff" fill-rule="evenodd" d="M171.992 246.492c0-15.572 12.624-28.195 28.196-28.195 15.572 0 28.195 12.623 28.195 28.195 0 15.572-12.623 28.196-28.195 28.196-15.572 0-28.196-12.624-28.196-28.196z" clip-rule="evenodd"/></svg>
