<svg xmlns="http://www.w3.org/2000/svg" fill="none" viewBox="0 0 500 250"><path fill="#fff" d="M219.9 33.77c-.369.41-.909.74-1.62.99-.711.251-1.49.377-2.338.377-1.303 0-2.344-.399-3.124-1.197-.779-.797-1.196-1.907-1.251-3.329l-.006-.861c0-.98.173-1.834.519-2.564.346-.733.841-1.296 1.483-1.688.648-.396 1.395-.595 2.243-.595 1.239 0 2.201.285 2.884.855.689.565 1.09 1.41 1.204 2.536h-2.311c-.082-.556-.26-.953-.533-1.19-.274-.236-.661-.355-1.162-.355-.602 0-1.067.255-1.395.766-.328.51-.494 1.24-.499 2.187v.602c0 .993.169 1.74.506 2.242.342.497.877.745 1.606.745.625 0 1.09-.139 1.395-.417v-1.545h-1.668v-1.647h4.067v4.088zM224.768 35.137c-1.135 0-2.053-.337-2.755-1.012-.702-.679-1.053-1.56-1.053-2.645v-.192c0-.756.139-1.424.417-2.003a3.083 3.083 0 011.23-1.34c.538-.319 1.176-.478 1.914-.478 1.04 0 1.86.323 2.461.97.602.643.903 1.54.903 2.694v.895h-4.58c.082.415.262.74.54.978.278.237.638.355 1.08.355.729 0 1.299-.255 1.709-.765l1.053 1.244c-.288.396-.695.713-1.224.95a4.133 4.133 0 01-1.695.349zm-.26-5.893c-.675 0-1.076.447-1.203 1.34h2.324v-.178c.009-.369-.084-.654-.28-.854-.196-.205-.477-.308-.841-.308zM231.501 25.765v1.838h1.217v1.6h-1.217v3.384c0 .278.05.472.15.581.101.11.299.164.595.164.228 0 .419-.014.574-.041v1.648a4.247 4.247 0 01-1.299.198c-.792 0-1.378-.187-1.756-.56-.379-.374-.568-.942-.568-1.703v-3.67h-.943v-1.6h.943v-1.84h2.304zM239.547 35h-2.311v-7.396h2.311V35zm-2.447-9.304c0-.328.118-.597.355-.806.237-.21.545-.315.923-.315s.686.105.923.315c.237.21.355.478.355.806 0 .328-.118.597-.355.807-.237.21-.545.314-.923.314s-.686-.104-.923-.314a1.028 1.028 0 01-.355-.807zM243.088 27.604l.075.868c.511-.67 1.215-1.005 2.112-1.005.771 0 1.345.23 1.723.69.383.46.581 1.153.595 2.078V35h-2.311v-4.669c0-.374-.075-.647-.225-.82-.151-.178-.424-.267-.821-.267-.451 0-.786.178-1.005.533V35h-2.303v-7.396h2.16zM255.044 25.765v1.838h1.217v1.6h-1.217v3.384c0 .278.05.472.15.581.101.11.299.164.595.164.228 0 .419-.014.574-.041v1.648a4.247 4.247 0 01-1.299.198c-.793 0-1.378-.187-1.756-.56-.379-.374-.568-.942-.568-1.703v-3.67h-.943v-1.6h.943v-1.84h2.304zM256.678 31.233c0-.738.143-1.394.43-1.968.288-.58.7-1.024 1.238-1.333.537-.31 1.169-.465 1.893-.465 1.108 0 1.98.344 2.618 1.032.638.684.957 1.616.957 2.796v.082c0 1.153-.321 2.069-.963 2.748-.638.675-1.504 1.012-2.598 1.012-1.053 0-1.898-.315-2.536-.944-.638-.633-.982-1.49-1.032-2.57l-.007-.39zm2.303.144c0 .683.108 1.185.322 1.504.214.319.531.478.95.478.82 0 1.24-.63 1.258-1.893v-.233c0-1.326-.424-1.989-1.272-1.989-.77 0-1.187.572-1.251 1.716l-.007.417zM269.235 34.2c-.487.624-1.146.937-1.975.937-.811 0-1.427-.235-1.846-.704-.415-.474-.622-1.153-.622-2.038v-4.792h2.304v4.806c0 .634.307.95.923.95.528 0 .904-.189 1.127-.567v-5.189h2.318V35h-2.16l-.069-.8zM275.859 33.36c.324 0 .575-.087.752-.26.178-.178.265-.424.26-.739h2.16c0 .812-.291 1.477-.875 1.996-.579.52-1.326.78-2.242.78-1.075 0-1.923-.337-2.543-1.012-.62-.675-.93-1.609-.93-2.803v-.095c0-.748.137-1.406.411-1.976a3.005 3.005 0 011.196-1.32c.519-.31 1.135-.464 1.846-.464.961 0 1.724.266 2.29.8.565.533.847 1.255.847 2.167h-2.16c0-.383-.093-.677-.28-.882-.187-.205-.438-.308-.752-.308-.597 0-.946.38-1.046 1.142a8.033 8.033 0 00-.048.998c0 .743.089 1.258.267 1.545.177.287.46.43.847.43zM282.258 28.396c.492-.62 1.121-.93 1.887-.93.815 0 1.431.242 1.845.725.415.483.627 1.197.636 2.14V35h-2.311v-4.614c0-.392-.079-.68-.239-.862-.159-.186-.43-.28-.813-.28-.474 0-.809.15-1.005.451V35h-2.304V24.5h2.304v3.896z"/><rect width="85" height="4" x="350" y="64" fill="#5C5F66" rx="2"/><rect width="85" height="4" x="350" y="72" fill="#5C5F66" rx="2"/><rect width="64" height="4" x="350" y="80" fill="#5C5F66" rx="2"/><path stroke="#FFD43B" stroke-linecap="round" stroke-linejoin="round" d="M330 76.667a2.667 2.667 0 100-5.334 2.667 2.667 0 000 5.334z"/><path stroke="#FFD43B" stroke-linecap="round" stroke-linejoin="round" d="M332.667 71.333v3.334a2 2 0 104 0V74a6.669 6.669 0 00-9.515-6.027 6.665 6.665 0 002.733 12.693 6.664 6.664 0 004.168-1.373"/><rect width="85" height="4" x="350" y="104" fill="#5C5F66" rx="2"/><rect width="85" height="4" x="350" y="112" fill="#5C5F66" rx="2"/><rect width="64" height="4" x="350" y="120" fill="#5C5F66" rx="2"/><path stroke="#FFD43B" stroke-linecap="round" stroke-linejoin="round" d="M336 112.667c0 4.666-6 8.666-6 8.666s-6-4-6-8.666a6 6 0 1112 0z"/><path stroke="#FFD43B" stroke-linecap="round" stroke-linejoin="round" d="M330 114.667a2 2 0 100-4 2 2 0 000 4z"/><rect width="85" height="4" x="350" y="144" fill="#5C5F66" rx="2"/><rect width="85" height="4" x="350" y="152" fill="#5C5F66" rx="2"/><rect width="64" height="4" x="350" y="160" fill="#5C5F66" rx="2"/><path stroke="#FFD43B" stroke-linecap="round" stroke-linejoin="round" d="M332.033 149.333a3.335 3.335 0 012.634 2.634l-2.634-2.634zm0-2.666a5.998 5.998 0 015.3 5.293l-5.3-5.293zm4.634 10.613v2a1.33 1.33 0 01-1.454 1.333 13.177 13.177 0 01-5.753-2.046 13.005 13.005 0 01-4-4 13.194 13.194 0 01-2.047-5.78 1.348 1.348 0 01.344-1.019 1.341 1.341 0 01.983-.435h2a1.336 1.336 0 011.333 1.147c.085.64.241 1.269.467 1.873a1.335 1.335 0 01-.3 1.407l-.847.847a10.667 10.667 0 004 4l.847-.847a1.333 1.333 0 011.407-.3 8.577 8.577 0 001.873.467 1.33 1.33 0 011.147 1.353z"/><rect width="85" height="4" x="350" y="184" fill="#5C5F66" rx="2"/><rect width="85" height="4" x="350" y="192" fill="#5C5F66" rx="2"/><rect width="64" height="4" x="350" y="200" fill="#5C5F66" rx="2"/><rect width="212" height="20" x="64" y="71" fill="#373A40" rx="2"/><rect width="85" height="4" x="70" y="79" fill="#5C5F66" rx="2"/><path fill="#fff" d="M66.434 64.008l1.308-2.695h1.094l-1.906 3.593V67h-.993v-2.094l-1.91-3.594h1.098l1.309 2.696zM68.926 64.848c0-.414.082-.787.246-1.117.164-.334.394-.59.691-.766.297-.18.638-.27 1.024-.27.57 0 1.032.184 1.386.551.357.367.55.854.579 1.461l.004.223c0 .416-.081.789-.243 1.117a1.76 1.76 0 01-.687.762c-.297.18-.64.27-1.032.27-.596 0-1.074-.199-1.433-.595-.357-.398-.535-.928-.535-1.59v-.046zm.949.082c0 .435.09.776.27 1.023.18.245.43.367.75.367s.569-.125.746-.375c.18-.25.27-.616.27-1.097 0-.427-.093-.766-.278-1.016a.874.874 0 00-.746-.375.87.87 0 00-.739.371c-.182.245-.273.612-.273 1.102zM76.219 66.586c-.279.328-.675.492-1.188.492-.458 0-.806-.134-1.043-.402-.234-.268-.351-.657-.351-1.164v-2.739h.949V65.5c0 .537.223.805.668.805.46 0 .772-.166.933-.496v-3.036h.95V67h-.895l-.023-.414zM80.316 63.64a2.352 2.352 0 00-.386-.03c-.435 0-.728.166-.88.5V67h-.948v-4.227h.906l.023.473c.23-.367.547-.55.953-.55.136 0 .248.018.336.054l-.004.89zM83.79 62.773l.026.489c.313-.378.723-.567 1.23-.567.881 0 1.329.504 1.345 1.512V67h-.95v-2.738c0-.269-.058-.466-.175-.594-.115-.13-.304-.195-.567-.195-.383 0-.668.173-.855.52V67h-.95v-4.227h.895zM89.887 67a1.468 1.468 0 01-.11-.394 1.477 1.477 0 01-1.109.472c-.425 0-.77-.121-1.04-.363a1.162 1.162 0 01-.401-.899c0-.45.166-.795.5-1.035.335-.242.815-.363 1.437-.363h.582v-.277c0-.22-.061-.394-.183-.524-.123-.133-.31-.199-.56-.199a.83.83 0 00-.53.164.496.496 0 00-.207.41h-.95c0-.232.077-.448.23-.648a1.53 1.53 0 01.626-.477c.266-.114.561-.172.887-.172.494 0 .889.125 1.183.375.294.248.445.597.453 1.047v1.906c0 .38.054.684.16.91V67h-.968zm-1.043-.684c.187 0 .363-.045.527-.136a.91.91 0 00.375-.368v-.796h-.512c-.351 0-.615.06-.793.183a.595.595 0 00-.265.52c0 .182.06.328.18.437.122.107.285.16.488.16zM92.582 62.773l.027.442c.297-.347.704-.52 1.22-.52.564 0 .95.216 1.16.649.307-.433.739-.649 1.296-.649.466 0 .813.13 1.04.387.228.258.346.638.35 1.14V67h-.948v-2.75c0-.268-.059-.465-.176-.59-.117-.125-.311-.187-.582-.187a.792.792 0 00-.531.175.912.912 0 00-.286.454L95.156 67h-.949v-2.781c-.013-.498-.267-.746-.762-.746-.38 0-.65.155-.808.465V67h-.95v-4.227h.895zM100.512 67.078c-.602 0-1.09-.189-1.465-.566-.373-.38-.559-.886-.559-1.516v-.117c0-.422.081-.798.243-1.129.163-.333.393-.592.687-.777a1.81 1.81 0 01.984-.278c.576 0 1.02.184 1.332.551.315.367.473.887.473 1.559v.382h-2.762c.029.35.145.626.348.829.206.203.464.304.773.304.435 0 .789-.175 1.063-.527l.512.488c-.17.253-.396.45-.68.59a2.126 2.126 0 01-.949.207zm-.114-3.621c-.26 0-.47.091-.632.273-.16.183-.26.437-.305.762h1.809v-.07c-.021-.318-.106-.557-.254-.719-.149-.164-.355-.246-.618-.246z"/><rect width="212" height="20" x="64" y="111" fill="#373A40" rx="2"/><rect width="85" height="4" x="70" y="119" fill="#5C5F66" rx="2"/><path fill="#fff" d="M66.434 104.008l1.308-2.696h1.094l-1.906 3.594V107h-.993v-2.094l-1.91-3.594h1.098l1.309 2.696zM68.926 104.848c0-.414.082-.787.246-1.118.164-.333.394-.588.691-.765.297-.18.638-.27 1.024-.27.57 0 1.032.184 1.386.551.357.367.55.854.579 1.461l.004.223a2.5 2.5 0 01-.243 1.117 1.763 1.763 0 01-.687.762c-.297.179-.64.269-1.032.269-.596 0-1.074-.198-1.433-.594-.357-.398-.535-.928-.535-1.589v-.047zm.949.082c0 .435.09.776.27 1.023.18.245.43.367.75.367s.569-.125.746-.375c.18-.25.27-.616.27-1.097 0-.427-.093-.766-.278-1.016a.874.874 0 00-.746-.375.87.87 0 00-.739.371c-.182.245-.273.612-.273 1.102zM76.219 106.586c-.279.328-.675.492-1.188.492-.458 0-.806-.134-1.043-.402-.234-.268-.351-.656-.351-1.164v-2.739h.949v2.727c0 .536.223.805.668.805.46 0 .772-.166.933-.496v-3.036h.95V107h-.895l-.023-.414zM80.316 103.641a2.33 2.33 0 00-.386-.032c-.435 0-.728.167-.88.5V107h-.948v-4.227h.906l.023.473c.23-.367.547-.551.953-.551.136 0 .248.019.336.055l-.004.891zM84.77 107.078c-.602 0-1.09-.189-1.465-.566-.373-.38-.559-.886-.559-1.516v-.117c0-.422.08-.798.242-1.129a1.87 1.87 0 01.688-.777c.294-.185.622-.278.984-.278.576 0 1.02.184 1.332.551.315.367.473.887.473 1.559v.383h-2.762c.029.348.145.624.348.828.206.203.463.304.773.304.435 0 .79-.175 1.063-.527l.511.488a1.72 1.72 0 01-.68.59 2.127 2.127 0 01-.949.207zm-.114-3.621a.806.806 0 00-.633.273c-.158.183-.26.437-.304.762h1.808v-.07c-.02-.318-.105-.557-.254-.719-.148-.164-.354-.246-.617-.246zM88.098 102.773l.027.442c.297-.347.703-.52 1.219-.52.565 0 .952.216 1.16.649.307-.433.74-.649 1.297-.649.466 0 .812.129 1.039.387.229.258.346.638.351 1.141V107h-.949v-2.75c0-.268-.058-.465-.176-.59-.117-.125-.31-.187-.582-.187a.793.793 0 00-.53.175.913.913 0 00-.286.454l.004 2.898h-.95v-2.781c-.012-.498-.266-.746-.761-.746-.38 0-.65.155-.809.465V107h-.949v-4.227h.895zM96.691 107a1.465 1.465 0 01-.109-.395 1.475 1.475 0 01-1.11.473c-.424 0-.77-.121-1.038-.363a1.163 1.163 0 01-.403-.899c0-.45.167-.795.5-1.035.336-.242.815-.363 1.438-.363h.582v-.277c0-.219-.061-.394-.184-.524-.122-.133-.308-.199-.558-.199a.832.832 0 00-.532.164.497.497 0 00-.207.41h-.949c0-.232.077-.448.23-.648.154-.203.362-.362.626-.477.265-.114.56-.172.886-.172.495 0 .89.125 1.184.375.294.248.445.597.453 1.047v1.906c0 .381.053.684.16.911V107h-.969zm-1.043-.684c.188 0 .364-.045.528-.136a.91.91 0 00.375-.368v-.796h-.512c-.352 0-.616.061-.793.183a.596.596 0 00-.265.52c0 .182.06.328.18.437.122.107.284.16.487.16zM99.504 107h-.95v-4.227h.95V107zm-1.008-5.324a.51.51 0 01.137-.364c.094-.096.226-.144.398-.144.172 0 .305.048.399.144.093.097.14.218.14.364a.494.494 0 01-.14.359c-.094.094-.227.141-.399.141-.172 0-.304-.047-.398-.141a.502.502 0 01-.137-.359zM101.551 107h-.949v-6h.949v6z"/><rect width="212" height="47" x="64" y="151" fill="#373A40" rx="2"/><rect width="199" height="4" x="70" y="159" fill="#5C5F66" rx="2"/><rect width="199" height="4" x="70" y="167" fill="#5C5F66" rx="2"/><rect width="80" height="4" x="70" y="175" fill="#5C5F66" rx="2"/><path fill="#fff" d="M66.434 144.008l1.308-2.696h1.094l-1.906 3.594V147h-.993v-2.094l-1.91-3.594h1.098l1.309 2.696zM68.926 144.848c0-.414.082-.787.246-1.118.164-.333.394-.588.691-.765.297-.18.638-.27 1.024-.27.57 0 1.032.184 1.386.551.357.367.55.854.579 1.461l.004.223a2.5 2.5 0 01-.243 1.117 1.763 1.763 0 01-.687.762c-.297.179-.64.269-1.032.269-.596 0-1.074-.198-1.433-.594-.357-.398-.535-.928-.535-1.589v-.047zm.949.082c0 .435.09.776.27 1.023.18.245.43.367.75.367s.569-.125.746-.375c.18-.25.27-.616.27-1.097 0-.427-.093-.766-.278-1.016a.874.874 0 00-.746-.375.87.87 0 00-.739.371c-.182.245-.273.612-.273 1.102zM76.219 146.586c-.279.328-.675.492-1.188.492-.458 0-.806-.134-1.043-.402-.234-.268-.351-.656-.351-1.164v-2.739h.949v2.727c0 .536.223.805.668.805.46 0 .772-.166.933-.496v-3.036h.95V147h-.895l-.023-.414zM80.316 143.641a2.33 2.33 0 00-.386-.032c-.435 0-.728.167-.88.5V147h-.948v-4.227h.906l.023.473c.23-.367.547-.551.953-.551.136 0 .248.019.336.055l-.004.891zM83.8 142.773l.028.442c.297-.347.703-.52 1.219-.52.565 0 .952.216 1.16.649.307-.433.74-.649 1.297-.649.466 0 .812.129 1.039.387.23.258.346.638.351 1.141V147h-.949v-2.75c0-.268-.058-.465-.175-.59-.118-.125-.312-.187-.582-.187a.793.793 0 00-.532.175.913.913 0 00-.285.454l.004 2.898h-.95v-2.781c-.012-.498-.266-.746-.76-.746-.381 0-.65.155-.81.465V147h-.949v-4.227h.895zM91.73 147.078c-.601 0-1.09-.189-1.464-.566-.373-.38-.559-.886-.559-1.516v-.117c0-.422.08-.798.242-1.129a1.87 1.87 0 01.688-.777c.294-.185.622-.278.984-.278.576 0 1.02.184 1.332.551.315.367.473.887.473 1.559v.383h-2.762c.029.348.145.624.348.828.205.203.463.304.773.304.435 0 .79-.175 1.063-.527l.511.488c-.169.253-.395.449-.68.59a2.127 2.127 0 01-.948.207zm-.113-3.621a.806.806 0 00-.633.273c-.158.183-.26.437-.304.762h1.808v-.07c-.02-.318-.105-.557-.254-.719-.148-.164-.354-.246-.617-.246zM96.535 145.852c0-.17-.07-.299-.21-.387-.139-.089-.37-.167-.692-.235a3.54 3.54 0 01-.809-.257c-.474-.23-.71-.562-.71-.996 0-.365.153-.67.46-.915.308-.244.698-.367 1.172-.367.505 0 .913.125 1.223.375.312.25.469.575.469.973h-.95a.58.58 0 00-.203-.453c-.135-.123-.315-.184-.539-.184a.846.846 0 00-.512.145.456.456 0 00-.195.387c0 .145.061.259.184.339.122.081.37.163.742.246.372.081.664.179.875.293.213.112.37.248.472.407.105.159.157.351.157.578 0 .38-.158.689-.473.926-.315.234-.728.351-1.238.351-.346 0-.655-.062-.926-.187a1.523 1.523 0 01-.633-.516 1.22 1.22 0 01-.226-.707h.921a.677.677 0 00.254.52c.157.119.364.179.621.179.25 0 .44-.047.57-.14a.448.448 0 00.196-.375zM100.668 145.852c0-.17-.07-.299-.211-.387-.138-.089-.368-.167-.691-.235a3.54 3.54 0 01-.809-.257c-.474-.23-.71-.562-.71-.996 0-.365.153-.67.46-.915.307-.244.698-.367 1.172-.367.505 0 .913.125 1.223.375.312.25.468.575.468.973h-.949a.58.58 0 00-.203-.453c-.135-.123-.315-.184-.54-.184a.846.846 0 00-.51.145.456.456 0 00-.196.387c0 .145.061.259.184.339.122.081.37.163.742.246.372.081.664.179.875.293.213.112.371.248.472.407.104.159.157.351.157.578 0 .38-.158.689-.473.926-.315.234-.728.351-1.238.351-.347 0-.655-.062-.926-.187a1.523 1.523 0 01-.633-.516 1.22 1.22 0 01-.226-.707h.921a.677.677 0 00.254.52c.156.119.363.179.621.179.25 0 .44-.047.571-.14a.448.448 0 00.195-.375zM104.957 147a1.445 1.445 0 01-.109-.395 1.475 1.475 0 01-1.11.473c-.424 0-.771-.121-1.039-.363a1.163 1.163 0 01-.402-.899c0-.45.167-.795.5-1.035.336-.242.815-.363 1.437-.363h.582v-.277c0-.219-.061-.394-.183-.524-.123-.133-.309-.199-.559-.199a.831.831 0 00-.531.164.497.497 0 00-.207.41h-.949c0-.232.077-.448.23-.648.154-.203.362-.362.625-.477.266-.114.561-.172.887-.172.495 0 .889.125 1.183.375.295.248.446.597.454 1.047v1.906c0 .381.053.684.16.911V147h-.969zm-1.043-.684c.188 0 .363-.045.527-.136a.906.906 0 00.375-.368v-.796h-.511c-.352 0-.616.061-.793.183a.597.597 0 00-.266.52c0 .182.06.328.18.437.122.107.285.16.488.16zM106.594 144.855c0-.656.153-1.179.461-1.57.31-.393.72-.59 1.23-.59.482 0 .861.168 1.137.504l.043-.426h.855v4.098c0 .555-.173.992-.519 1.313-.344.32-.809.48-1.395.48-.31 0-.613-.065-.91-.195-.294-.128-.518-.296-.672-.504l.449-.57c.292.346.651.519 1.079.519.315 0 .563-.086.746-.258.182-.169.273-.419.273-.75v-.285c-.273.305-.638.457-1.094.457-.494 0-.899-.196-1.215-.59-.312-.393-.468-.937-.468-1.633zm.945.083c0 .424.086.759.258 1.003a.84.84 0 00.723.364c.382 0 .666-.164.851-.493v-1.859c-.18-.32-.461-.48-.844-.48a.841.841 0 00-.73.371c-.172.247-.258.612-.258 1.094zM113.16 147.078c-.601 0-1.09-.189-1.465-.566-.372-.38-.558-.886-.558-1.516v-.117c0-.422.08-.798.242-1.129a1.87 1.87 0 01.687-.777c.295-.185.623-.278.985-.278.575 0 1.019.184 1.332.551.315.367.472.887.472 1.559v.383h-2.761c.028.348.144.624.347.828.206.203.464.304.774.304.435 0 .789-.175 1.062-.527l.512.488a1.719 1.719 0 01-.68.59 2.123 2.123 0 01-.949.207zm-.113-3.621a.806.806 0 00-.633.273c-.159.183-.26.437-.305.762h1.809v-.07c-.021-.318-.106-.557-.254-.719-.148-.164-.354-.246-.617-.246z"/><rect width="53.829" height="13.693" fill="#FFD43B" rx="6.847" transform="matrix(1 0 0 -1 222 224.693)"/><rect width="34.055" height="2.724" fill="#141517" rx="1.362" transform="matrix(1 0 0 -1 232.197 219.13)"/><path stroke="#FFD43B" stroke-linecap="round" stroke-linejoin="round" d="M339 193.667a5.584 5.584 0 01-.6 2.533 5.66 5.66 0 01-5.067 3.133 5.571 5.571 0 01-2.533-.6L327 200l1.267-3.8a5.66 5.66 0 012.533-7.6 5.584 5.584 0 012.533-.6h.334a5.656 5.656 0 015.333 5.333v.334z"/></svg>
