<svg xmlns="http://www.w3.org/2000/svg" fill="none" viewBox="0 0 500 250"><path fill="#373A40" d="M56 101h111v50H56z"/><rect width="70" height="4.6" x="89" y="114" fill="#5C5F66" rx="2.3"/><rect width="70" height="4.6" x="89" y="123.2" fill="#5C5F66" rx="2.3"/><rect width="54" height="4.6" x="89" y="132.4" fill="#5C5F66" rx="2.3"/><path fill="#FFD43B" fill-rule="evenodd" d="M72 114.25a.75.75 0 01.673.418l1.882 3.815 4.21.612a.75.75 0 01.416 1.279l-3.046 2.97.719 4.192a.748.748 0 01-.685.875.752.752 0 01-.403-.084L72 126.347l-3.766 1.98a.75.75 0 01-1.088-.79l.72-4.194-3.048-2.969a.753.753 0 01.04-1.111.744.744 0 01.376-.169l4.21-.611 1.883-3.815a.748.748 0 01.673-.418zm0 2.445l-1.385 2.805a.755.755 0 01-.564.41l-3.097.45 2.24 2.184a.753.753 0 01.216.664l-.528 3.084 2.769-1.456a.745.745 0 01.698 0l2.77 1.456-.53-3.084a.752.752 0 01.216-.664l2.24-2.183-3.096-.45a.755.755 0 01-.564-.41L72 116.694v.001z" clip-rule="evenodd"/><path fill="#373A40" d="M194 101h111v50H194z"/><rect width="70" height="4.6" x="227" y="114" fill="#5C5F66" rx="2.3"/><rect width="70" height="4.6" x="227" y="123.2" fill="#5C5F66" rx="2.3"/><rect width="54" height="4.6" x="227" y="132.4" fill="#5C5F66" rx="2.3"/><path fill="#FFD43B" fill-rule="evenodd" d="M210 114.25a.75.75 0 01.673.418l1.882 3.815 4.21.612a.754.754 0 01.605.51.746.746 0 01-.189.769l-3.046 2.97.719 4.192a.751.751 0 01-1.088.791l-3.766-1.98-3.766 1.98a.751.751 0 01-1.088-.79l.72-4.194-3.048-2.969a.75.75 0 01.416-1.28l4.21-.611 1.883-3.815a.748.748 0 01.673-.418zm0 2.445l-1.385 2.805a.759.759 0 01-.231.275.766.766 0 01-.333.135l-3.097.45 2.24 2.184a.76.76 0 01.216.664l-.528 3.084 2.769-1.456a.745.745 0 01.698 0l2.77 1.456-.53-3.084a.741.741 0 01.216-.664l2.24-2.183-3.096-.45a.766.766 0 01-.333-.135.759.759 0 01-.231-.275L210 116.694v.001z" clip-rule="evenodd"/><path fill="#373A40" d="M332 101h111v50H332z"/><rect width="70" height="4.6" x="365" y="114" fill="#5C5F66" rx="2.3"/><rect width="70" height="4.6" x="365" y="123.2" fill="#5C5F66" rx="2.3"/><rect width="54" height="4.6" x="365" y="132.4" fill="#5C5F66" rx="2.3"/><path fill="#FFD43B" fill-rule="evenodd" d="M348 114.25a.75.75 0 01.673.418l1.882 3.815 4.21.612a.754.754 0 01.605.51.746.746 0 01-.189.769l-3.046 2.97.719 4.192a.751.751 0 01-1.088.791l-3.766-1.98-3.766 1.98a.751.751 0 01-1.088-.79l.72-4.194-3.048-2.969a.76.76 0 01-.205-.358.744.744 0 01.621-.922l4.21-.611 1.883-3.815a.748.748 0 01.673-.418zm0 2.445l-1.385 2.805a.759.759 0 01-.231.275.766.766 0 01-.333.135l-3.097.45 2.24 2.184a.76.76 0 01.216.664l-.528 3.084 2.769-1.456a.745.745 0 01.698 0l2.77 1.456-.53-3.084a.741.741 0 01.216-.664l2.24-2.183-3.096-.45a.766.766 0 01-.333-.135.759.759 0 01-.231-.275L348 116.694v.001z" clip-rule="evenodd"/><rect width="218" height="4" x="142" y="50" fill="#373A40" rx="2"/><rect width="218" height="4" x="142" y="58" fill="#373A40" rx="2"/><rect width="138" height="4" x="182" y="66" fill="#373A40" rx="2"/><path fill="#fff" d="M157.859 35V23.625h4.086c1.464 0 2.576.268 3.336.805.766.536 1.149 1.315 1.149 2.336 0 .588-.136 1.09-.407 1.507-.27.417-.669.724-1.195.922.594.157 1.05.448 1.367.875.318.427.477.948.477 1.563 0 1.114-.354 1.953-1.063 2.515-.703.558-1.747.842-3.132.852h-4.618zm2.743-4.836v2.727h1.796c.495 0 .875-.112 1.141-.336.266-.23.399-.55.399-.961 0-.948-.472-1.425-1.415-1.43h-1.921zm0-1.797h1.429c.599-.005 1.026-.114 1.281-.328.256-.213.383-.529.383-.945 0-.48-.138-.823-.414-1.032-.276-.213-.721-.32-1.336-.32h-1.343v2.625zM172.156 35.156c-1.297 0-2.346-.385-3.148-1.156-.802-.776-1.203-1.784-1.203-3.023v-.22c0-.864.159-1.627.476-2.288a3.515 3.515 0 011.407-1.532c.614-.364 1.343-.546 2.187-.546 1.187 0 2.125.37 2.813 1.109.687.734 1.031 1.76 1.031 3.078v1.024h-5.235c.094.473.3.846.618 1.117.317.27.729.406 1.234.406.833 0 1.484-.292 1.953-.875l1.203 1.422c-.328.453-.794.815-1.398 1.086a4.727 4.727 0 01-1.938.398zm-.297-6.734c-.77 0-1.229.51-1.375 1.531h2.657v-.203c.01-.422-.097-.747-.321-.977-.224-.234-.544-.351-.961-.351zM181.211 32.625c0-.224-.117-.404-.352-.54-.234-.134-.679-.275-1.336-.42-.656-.147-1.197-.337-1.625-.571-.427-.24-.752-.529-.976-.867a2.061 2.061 0 01-.336-1.165c0-.776.32-1.414.961-1.914.641-.505 1.479-.757 2.515-.757 1.115 0 2.011.252 2.688.757.677.506 1.016 1.17 1.016 1.993h-2.641c0-.677-.357-1.016-1.07-1.016-.276 0-.508.078-.696.234a.704.704 0 00-.281.57c0 .235.115.425.344.571.229.146.594.266 1.094.36.505.093.948.205 1.328.335 1.271.438 1.906 1.222 1.906 2.352 0 .77-.344 1.398-1.031 1.883-.683.484-1.568.726-2.657.726-.723 0-1.369-.13-1.937-.39-.568-.26-1.01-.615-1.328-1.063-.318-.448-.477-.92-.477-1.414h2.461c.011.39.141.677.391.86.25.176.57.265.961.265.359 0 .627-.073.805-.219a.696.696 0 00.273-.57zM188.055 24.445v2.102h1.39v1.828h-1.39v3.867c0 .318.057.54.172.664.114.125.341.188.679.188.261 0 .479-.016.656-.047v1.883a4.851 4.851 0 01-1.484.226c-.906 0-1.575-.213-2.008-.64-.432-.427-.648-1.076-.648-1.946v-4.195h-1.078v-1.828h1.078v-2.102h2.633zM202.32 30.836c0 1.312-.297 2.362-.89 3.148-.589.782-1.386 1.172-2.391 1.172-.776 0-1.414-.284-1.914-.851v3.945h-2.633V26.547h2.461l.078.781c.505-.625 1.17-.937 1.992-.937 1.042 0 1.852.385 2.43 1.156.578.765.867 1.82.867 3.164v.125zm-2.632-.164c0-1.5-.438-2.25-1.313-2.25-.625 0-1.042.224-1.25.672v3.328c.229.469.651.703 1.266.703.838 0 1.27-.724 1.297-2.172v-.281zM208.602 28.93l-.868-.063c-.828 0-1.359.26-1.593.781V35h-2.633v-8.453h2.469l.085 1.086c.443-.828 1.06-1.242 1.852-1.242.281 0 .526.03.734.093l-.046 2.446zM208.938 30.695c0-.843.164-1.593.492-2.25a3.512 3.512 0 011.414-1.523c.614-.354 1.336-.531 2.164-.531 1.265 0 2.263.393 2.992 1.18.729.78 1.094 1.846 1.094 3.195v.093c0 1.318-.367 2.365-1.102 3.141-.729.77-1.719 1.156-2.969 1.156-1.203 0-2.169-.36-2.898-1.078-.729-.724-1.122-1.703-1.18-2.937l-.007-.446zm2.632.164c0 .782.123 1.355.368 1.72.244.364.606.546 1.085.546.938 0 1.417-.721 1.438-2.164v-.266c0-1.515-.484-2.273-1.453-2.273-.88 0-1.357.654-1.43 1.96l-.008.477zM217.922 30.71c0-1.338.289-2.392.867-3.163.578-.771 1.385-1.156 2.422-1.156.755 0 1.391.297 1.906.89V23h2.641v12h-2.367l-.133-.906c-.542.708-1.229 1.062-2.063 1.062-1.005 0-1.802-.385-2.39-1.156-.589-.77-.883-1.867-.883-3.29zm2.633.165c0 1.5.437 2.25 1.312 2.25.584 0 1-.245 1.25-.734v-3.22c-.239-.5-.651-.75-1.234-.75-.813 0-1.253.657-1.321 1.97l-.007.484zM232.289 34.086c-.557.714-1.31 1.07-2.258 1.07-.927 0-1.63-.268-2.109-.804-.474-.542-.711-1.318-.711-2.329v-5.476h2.633v5.492c0 .724.351 1.086 1.054 1.086.605 0 1.034-.216 1.29-.648v-5.93h2.648V35h-2.469l-.078-.914zM239.859 33.125c.37 0 .657-.099.86-.297.203-.203.302-.484.297-.844h2.468c0 .927-.333 1.688-1 2.282-.661.593-1.515.89-2.562.89-1.229 0-2.198-.385-2.906-1.156-.709-.77-1.063-1.839-1.063-3.203v-.11c0-.854.156-1.606.469-2.257a3.436 3.436 0 011.367-1.508c.594-.354 1.297-.531 2.109-.531 1.099 0 1.972.304 2.618.914.645.61.968 1.435.968 2.476h-2.468c0-.437-.107-.773-.321-1.008-.213-.234-.5-.351-.859-.351-.682 0-1.081.435-1.195 1.305a9.088 9.088 0 00-.055 1.14c0 .85.102 1.438.305 1.766.203.328.526.492.968.492zM247.664 24.445v2.102h1.391v1.828h-1.391v3.867c0 .318.057.54.172.664.115.125.341.188.68.188.26 0 .479-.016.656-.047v1.883a4.86 4.86 0 01-1.484.226c-.907 0-1.576-.213-2.008-.64-.433-.427-.649-1.076-.649-1.946v-4.195h-1.078v-1.828h1.078v-2.102h2.633zM258.172 35.156c-1.297 0-2.346-.385-3.149-1.156-.802-.776-1.203-1.784-1.203-3.023v-.22c0-.864.159-1.627.477-2.288a3.52 3.52 0 011.406-1.532c.615-.364 1.344-.546 2.188-.546 1.187 0 2.125.37 2.812 1.109.688.734 1.031 1.76 1.031 3.078v1.024H256.5c.094.473.299.846.617 1.117.318.27.729.406 1.235.406.833 0 1.484-.292 1.953-.875l1.203 1.422c-.328.453-.794.815-1.399 1.086a4.722 4.722 0 01-1.937.398zm-.297-6.734c-.771 0-1.229.51-1.375 1.531h2.656v-.203c.011-.422-.096-.747-.32-.977-.224-.234-.544-.351-.961-.351zM266.062 31.867l1.336-5.32h2.774L267.414 35h-2.687l-2.758-8.453h2.781l1.312 5.32zM274.938 35.156c-1.297 0-2.347-.385-3.149-1.156-.802-.776-1.203-1.784-1.203-3.023v-.22c0-.864.159-1.627.476-2.288a3.515 3.515 0 011.407-1.532c.614-.364 1.343-.546 2.187-.546 1.188 0 2.125.37 2.813 1.109.687.734 1.031 1.76 1.031 3.078v1.024h-5.234c.093.473.299.846.617 1.117.318.27.729.406 1.234.406.834 0 1.485-.292 1.953-.875l1.203 1.422c-.328.453-.794.815-1.398 1.086a4.725 4.725 0 01-1.937.398zm-.297-6.734c-.771 0-1.23.51-1.375 1.531h2.656v-.203c.01-.422-.096-.747-.32-.977-.224-.234-.545-.351-.961-.351zM284.68 28.93l-.868-.063c-.828 0-1.359.26-1.593.781V35h-2.633v-8.453h2.469l.086 1.086c.442-.828 1.06-1.242 1.851-1.242.281 0 .526.03.735.093l-.047 2.446zM293.188 33.125c.369 0 .656-.099.859-.297.203-.203.302-.484.297-.844h2.468c0 .927-.333 1.688-1 2.282-.661.593-1.515.89-2.562.89-1.229 0-2.198-.385-2.906-1.156-.709-.77-1.063-1.839-1.063-3.203v-.11c0-.854.157-1.606.469-2.257a3.436 3.436 0 011.367-1.508c.594-.354 1.297-.531 2.11-.531 1.099 0 1.971.304 2.617.914.646.61.968 1.435.968 2.476h-2.468c0-.437-.107-.773-.321-1.008-.213-.234-.5-.351-.859-.351-.682 0-1.081.435-1.195 1.305a9.088 9.088 0 00-.055 1.14c0 .85.102 1.438.305 1.766.203.328.526.492.969.492zM303.039 28.93l-.867-.063c-.828 0-1.36.26-1.594.781V35h-2.633v-8.453h2.469l.086 1.086c.443-.828 1.06-1.242 1.852-1.242.281 0 .526.03.734.093l-.047 2.446zM307.922 35.156c-1.297 0-2.346-.385-3.149-1.156-.802-.776-1.203-1.784-1.203-3.023v-.22c0-.864.159-1.627.477-2.288a3.52 3.52 0 011.406-1.532c.615-.364 1.344-.546 2.188-.546 1.187 0 2.125.37 2.812 1.109.688.734 1.031 1.76 1.031 3.078v1.024h-5.234c.094.473.299.846.617 1.117.318.27.729.406 1.235.406.833 0 1.484-.292 1.953-.875l1.203 1.422c-.328.453-.794.815-1.399 1.086a4.722 4.722 0 01-1.937.398zm-.297-6.734c-.771 0-1.229.51-1.375 1.531h2.656v-.203c.011-.422-.096-.747-.32-.977-.224-.234-.544-.351-.961-.351zM317.312 35c-.093-.172-.177-.425-.25-.758-.484.61-1.161.914-2.031.914-.797 0-1.474-.24-2.031-.718-.557-.485-.836-1.092-.836-1.82 0-.918.339-1.61 1.016-2.079.677-.469 1.661-.703 2.953-.703h.812v-.445c0-.776-.336-1.164-1.007-1.164-.626 0-.938.307-.938.921h-2.633c0-.817.347-1.481 1.039-1.992.698-.51 1.586-.765 2.664-.765s1.93.263 2.555.789c.625.526.945 1.247.961 2.164v3.742c.01.776.13 1.37.359 1.781V35h-2.633zm-1.648-1.719c.328 0 .599-.07.813-.21.218-.141.375-.3.468-.477v-1.352h-.765c-.917 0-1.375.412-1.375 1.235 0 .24.08.434.242.586a.885.885 0 00.617.218zM324.117 24.445v2.102h1.391v1.828h-1.391v3.867c0 .318.057.54.172.664.115.125.341.188.68.188.26 0 .479-.016.656-.047v1.883a4.86 4.86 0 01-1.484.226c-.907 0-1.576-.213-2.008-.64-.432-.427-.649-1.076-.649-1.946v-4.195h-1.078v-1.828h1.078v-2.102h2.633zM330.641 35.156c-1.297 0-2.347-.385-3.149-1.156-.802-.776-1.203-1.784-1.203-3.023v-.22c0-.864.159-1.627.477-2.288a3.513 3.513 0 011.406-1.532c.614-.364 1.344-.546 2.187-.546 1.188 0 2.125.37 2.813 1.109.687.734 1.031 1.76 1.031 3.078v1.024h-5.234c.093.473.299.846.617 1.117.318.27.729.406 1.234.406.834 0 1.485-.292 1.953-.875l1.204 1.422c-.329.453-.795.815-1.399 1.086a4.725 4.725 0 01-1.937.398zm-.297-6.734c-.771 0-1.229.51-1.375 1.531h2.656v-.203c.01-.422-.096-.747-.32-.977-.224-.234-.545-.351-.961-.351zM334.938 30.71c0-1.338.289-2.392.867-3.163.578-.771 1.385-1.156 2.422-1.156.755 0 1.39.297 1.906.89V23h2.64v12h-2.367l-.133-.906c-.541.708-1.229 1.062-2.062 1.062-1.005 0-1.802-.385-2.391-1.156-.588-.77-.882-1.867-.882-3.29zm2.632.165c0 1.5.438 2.25 1.313 2.25.583 0 1-.245 1.25-.734v-3.22c-.24-.5-.651-.75-1.235-.75-.812 0-1.252.657-1.32 1.97l-.008.484z"/><path fill="#373A40" d="M56 172h111v50H56z"/><rect width="70" height="4.6" x="89" y="185" fill="#5C5F66" rx="2.3"/><rect width="70" height="4.6" x="89" y="194.2" fill="#5C5F66" rx="2.3"/><rect width="54" height="4.6" x="89" y="203.4" fill="#5C5F66" rx="2.3"/><g clip-path="url(#a)"><path fill="#FFD43B" fill-rule="evenodd" d="M71.998 199.5c2.832 0 5-1.98 5-4.5 0-1.463-.68-2.19-1.879-3.383l-.036-.037c-1.013-1.008-2.3-2.29-2.834-4.434-.322.256-.63.579-.864.953-.432.696-.621 1.58-.046 2.73.473.947.67 2.284-.278 3.232-.61.61-1.545.84-2.403.633a2.791 2.791 0 01-1.436-.874A3.208 3.208 0 0067 195c0 2.53 2.164 4.5 4.998 4.5zm1.535-13.747c-.037-.413-.373-.744-.763-.607-1.735.604-4.43 3.041-2.773 6.354.344.689.285 1.218.003 1.5-.419.419-1.54.487-2.04-.832-.173-.454-.659-.762-1.035-.454-.889.726-1.425 1.988-1.425 3.286 0 3.512 2.998 6 6.498 6s6.5-2.5 6.5-6c0-2.137-1.128-3.26-2.312-4.438-1.19-1.184-2.436-2.425-2.653-4.81v.001z" clip-rule="evenodd"/></g><path fill="#373A40" d="M194 172h111v50H194z"/><rect width="70" height="4.6" x="227" y="185" fill="#5C5F66" rx="2.3"/><rect width="70" height="4.6" x="227" y="194.2" fill="#5C5F66" rx="2.3"/><rect width="54" height="4.6" x="227" y="203.4" fill="#5C5F66" rx="2.3"/><g clip-path="url(#b)"><path fill="#FFD43B" fill-rule="evenodd" d="M209.998 199.5c2.832 0 5-1.98 5-4.5 0-1.463-.68-2.19-1.879-3.383l-.036-.037c-1.013-1.008-2.3-2.29-2.834-4.434-.322.256-.63.579-.864.953-.432.696-.621 1.58-.046 2.73.473.947.67 2.284-.278 3.232-.61.61-1.545.84-2.403.633a2.79 2.79 0 01-1.436-.874A3.198 3.198 0 00205 195c0 2.53 2.164 4.5 4.998 4.5zm1.535-13.747c-.037-.413-.373-.744-.763-.607-1.735.604-4.43 3.041-2.773 6.354.344.689.285 1.218.003 1.5-.419.419-1.54.487-2.04-.832-.173-.454-.659-.762-1.035-.454-.889.726-1.425 1.988-1.425 3.286 0 3.512 2.998 6 6.498 6s6.5-2.5 6.5-6c0-2.137-1.128-3.26-2.312-4.438-1.19-1.184-2.436-2.425-2.653-4.81v.001z" clip-rule="evenodd"/></g><path fill="#373A40" d="M332 172h111v50H332z"/><rect width="70" height="4.6" x="365" y="185" fill="#5C5F66" rx="2.3"/><rect width="70" height="4.6" x="365" y="194.2" fill="#5C5F66" rx="2.3"/><rect width="54" height="4.6" x="365" y="203.4" fill="#5C5F66" rx="2.3"/><g clip-path="url(#c)"><path fill="#FFD43B" fill-rule="evenodd" d="M347.998 199.5c2.832 0 5-1.98 5-4.5 0-1.463-.68-2.19-1.879-3.383l-.036-.037c-1.013-1.008-2.3-2.29-2.834-4.434-.322.256-.63.579-.864.953-.432.696-.621 1.58-.046 2.73.473.947.67 2.284-.278 3.232-.61.61-1.545.84-2.403.633a2.79 2.79 0 01-1.436-.874A3.198 3.198 0 00343 195c0 2.53 2.164 4.5 4.998 4.5zm1.535-13.747c-.037-.413-.373-.744-.763-.607-1.735.604-4.43 3.041-2.773 6.354.344.689.285 1.218.003 1.5-.419.419-1.54.487-2.04-.832-.173-.454-.659-.762-1.035-.454-.889.726-1.425 1.988-1.425 3.286 0 3.512 2.998 6 6.498 6s6.5-2.5 6.5-6c0-2.137-1.128-3.26-2.312-4.438-1.19-1.184-2.436-2.425-2.653-4.81v.001z" clip-rule="evenodd"/></g><defs><clipPath id="a"><path fill="#fff" d="M0 0h16v16H0z" transform="translate(64 185)"/></clipPath><clipPath id="b"><path fill="#fff" d="M0 0h16v16H0z" transform="translate(202 185)"/></clipPath><clipPath id="c"><path fill="#fff" d="M0 0h16v16H0z" transform="translate(340 185)"/></clipPath></defs></svg>
