<svg xmlns="http://www.w3.org/2000/svg" fill="none" viewBox="0 0 500 250"><path fill="#fff" d="M56 30h387v189.829H56z"/><rect width="119.561" height="30.415" x="81.171" y="166.341" fill="#228BE6" rx="15.207"/><rect width="75.641" height="6.05" x="103.82" y="178.697" fill="#fff" rx="3.025"/><rect width="202.415" height="10.488" x="81.171" y="56.219" fill="#F1F3F5" rx="5.244"/><rect width="202.415" height="10.488" x="81.171" y="73" fill="#F1F3F5" rx="5.244"/><rect width="137.39" height="10.488" x="81.171" y="89.781" fill="#F1F3F5" rx="5.244"/><path fill="#F1F3F5" fill-rule="evenodd" d="M370.005 48.878h44.748a6.712 6.712 0 016.712 6.712v44.748a6.712 6.712 0 01-6.712 6.712h-44.748a6.712 6.712 0 01-6.712-6.712V55.59a6.712 6.712 0 016.712-6.712zm0 4.475a2.238 2.238 0 00-2.238 2.237V81.83l7.526-7.526a2.014 2.014 0 012.896.05l15.861 16.991 12.567-12.566a2.014 2.014 0 012.848 0l7.525 7.525V55.59a2.238 2.238 0 00-2.237-2.237h-44.748zm-2.238 46.985V87.524l8.9-8.9 15.851 16.98 6.31 6.972h-28.823a2.238 2.238 0 01-2.238-2.238zm46.986 2.238h-10.494l-7.48-8.265 11.262-11.262L416.99 92v8.339a2.238 2.238 0 01-2.237 2.238zm-26.181-33.561a3.807 3.807 0 117.613 0 3.807 3.807 0 01-7.613 0zm3.807-7.835a7.835 7.835 0 100 15.67 7.835 7.835 0 000-15.67z" clip-rule="evenodd"/></svg>
