<svg xmlns="http://www.w3.org/2000/svg" viewBox="0 0 1000 500"><g fill="none" fill-rule="evenodd"><path fill="#339AF0" d="M0 0h1000v500H0z"/><g transform="translate(346 220)"><rect width="60" height="60" fill="#FFF" rx="30"/><g fill="#228BE6" transform="rotate(-90 32.763 12.632)"><path fill-rule="nonzero" d="M28.837 3.74a2.22 2.22 0 00-3.147.476c-2.555 3.513-6.462 5.528-10.72 5.528-4.258 0-8.166-2.015-10.72-5.528a2.22 2.22 0 00-3.147-.476 2.325 2.325 0 00-.466 3.21c.8 1.1 1.703 2.086 2.684 2.957v6.506c0 1.268 1.008 2.295 2.25 2.295s2.25-1.027 2.25-2.295V12.82a17.49 17.49 0 007.149 1.515 17.49 17.49 0 007.15-1.515v3.594c0 1.268 1.007 2.295 2.25 2.295 1.241 0 2.249-1.027 2.249-2.295V9.907a18.472 18.472 0 002.684-2.957 2.326 2.326 0 00-.466-3.21z"/><rect width="6.716" height="6.803" x="12.283" y=".113" rx="3.358"/></g></g><path fill="#FFF" fill-rule="nonzero" d="M442.76 265v-12.44l-.32-7.8h.36l5.2 14.36 5.2-14.36h.36l-.32 7.8V265h5.2v-27.92h-6.6l-3.44 9.4h-.32l-3.44-9.4h-7.08V265h5.2zm25.96.48c1.6 0 2.953-.347 4.06-1.04 1.107-.693 1.847-1.72 2.22-3.08h.2c.133 1.173.573 2.073 1.32 2.7.747.627 1.733.94 2.96.94h3.4v-4.28h-2.28v-9.04c0-2.613-.793-4.567-2.38-5.86-1.587-1.293-3.793-1.94-6.62-1.94-2.32 0-4.22.38-5.7 1.14-1.48.76-2.567 1.727-3.26 2.9l3.24 2.88a7.046 7.046 0 012-1.88c.773-.48 1.787-.72 3.04-.72 1.36 0 2.327.313 2.9.94s.86 1.553.86 2.78v1.04h-3.32c-3.04 0-5.347.52-6.92 1.56-1.573 1.04-2.36 2.64-2.36 4.8 0 1.947.607 3.46 1.82 4.54s2.82 1.62 4.82 1.62zm2.24-3.88c-.933 0-1.68-.187-2.24-.56-.56-.373-.84-.92-.84-1.64v-.8c0-1.627 1.213-2.44 3.64-2.44h3.16v2.48c0 .96-.36 1.693-1.08 2.2-.72.507-1.6.76-2.64.76zm21.56 3.4v-13.56c0-.507.1-.947.3-1.32.2-.373.473-.687.82-.94.347-.253.74-.44 1.18-.56.44-.12.887-.18 1.34-.18 2.32 0 3.48 1.333 3.48 4V265h5.92v-13.36c0-1.253-.167-2.36-.5-3.32-.333-.96-.793-1.773-1.38-2.44a5.55 5.55 0 00-2.12-1.5c-.827-.333-1.733-.5-2.72-.5-.827 0-1.567.113-2.22.34a5.894 5.894 0 00-1.72.92 6 6 0 00-1.26 1.34 8.784 8.784 0 00-.88 1.64h-.24v-3.76h-5.92V265h5.92zm36.72 0v-4.6h-8.04v-11.44h8.04v-4.6h-8.04v-7.28h-5.44v4.84c0 .933-.187 1.573-.56 1.92-.373.347-1 .52-1.88.52h-3.64v4.6h5.6v10.08c0 1.733.52 3.16 1.56 4.28s2.627 1.68 4.76 1.68h7.64zm16.04-23.28c1.333 0 2.26-.273 2.78-.82.52-.547.78-1.207.78-1.98v-1.16c0-.8-.26-1.467-.78-2-.52-.533-1.447-.8-2.78-.8-1.333 0-2.26.267-2.78.8s-.78 1.2-.78 2v1.16c0 .773.26 1.433.78 1.98.52.547 1.447.82 2.78.82zm9.04 23.28v-4.6h-6.08v-16.04h-12.48v4.6h6.56v11.44h-6.56v4.6h18.56zm10.2 0v-13.56c0-.507.1-.947.3-1.32.2-.373.473-.687.82-.94.347-.253.74-.44 1.18-.56.44-.12.887-.18 1.34-.18 2.32 0 3.48 1.333 3.48 4V265h5.92v-13.36c0-1.253-.167-2.36-.5-3.32-.333-.96-.793-1.773-1.38-2.44a5.55 5.55 0 00-2.12-1.5c-.827-.333-1.733-.5-2.72-.5-.827 0-1.567.113-2.22.34a5.894 5.894 0 00-1.72.92 6 6 0 00-1.26 1.34 8.784 8.784 0 00-.88 1.64h-.24v-3.76h-5.92V265h5.92zm28.04.48c2.213 0 4.04-.36 5.48-1.08 1.44-.72 2.56-1.573 3.36-2.56l-3.2-3.48a7.486 7.486 0 01-2.28 1.86c-.88.467-1.933.7-3.16.7-1.6 0-2.813-.407-3.64-1.22s-1.24-1.887-1.24-3.22v-.36H602v-1.76c0-1.6-.233-3.047-.7-4.34-.467-1.293-1.127-2.393-1.98-3.3s-1.893-1.607-3.12-2.1c-1.227-.493-2.613-.74-4.16-.74-1.547 0-2.94.247-4.18.74a8.458 8.458 0 00-3.16 2.16c-.867.947-1.533 2.093-2 3.44-.467 1.347-.7 2.86-.7 4.54 0 3.307.893 5.92 2.68 7.84 1.787 1.92 4.413 2.88 7.88 2.88zm3.64-12.68h-8.32v-.32c0-1.333.38-2.393 1.14-3.18.76-.787 1.78-1.18 3.06-1.18s2.287.387 3.02 1.16c.733.773 1.1 1.84 1.1 3.2v.32z"/></g></svg>