<svg xmlns="http://www.w3.org/2000/svg" viewBox="0 0 125 30"><g fill="none" fill-rule="evenodd"><g><rect width="30" height="30" fill="#339AF0" rx="15"/><g fill="#FFF"><path fill-rule="nonzero" d="M12.123 8.142a1.128 1.128 0 00.237 1.586c1.747 1.287 2.75 3.255 2.75 5.4 0 2.145-1.003 4.113-2.75 5.4a1.128 1.128 0 00-.237 1.585c.376.503 1.09.608 1.597.235a9.23 9.23 0 001.47-1.352h3.236c.63 0 1.142-.507 1.142-1.133s-.511-1.133-1.142-1.133H16.64a8.908 8.908 0 00.753-3.602 8.908 8.908 0 00-.753-3.602h1.787c.63 0 1.142-.507 1.142-1.133s-.511-1.133-1.142-1.133h-3.235a9.23 9.23 0 00-1.471-1.353 1.147 1.147 0 00-1.597.235z"/><path d="M10.32 14.79a1.692 1.692 0 113.383 0 1.692 1.692 0 01-3.383 0z"/></g></g><path fill="#0A0A0A" fill-rule="nonzero" d="M44.6 22.02V15.8l-.16-3.9h.18l2.6 7.18 2.6-7.18H50l-.16 3.9v6.22h2.6V8.06h-3.3l-1.72 4.7h-.16l-1.72-4.7H42v13.96h2.6zm12.98.24c.8 0 1.477-.173 2.03-.52.553-.347.923-.86 1.11-1.54h.1c.067.587.287 1.037.66 1.35.373.313.867.47 1.48.47h1.7v-2.14h-1.14v-4.52c0-1.307-.397-2.283-1.19-2.93-.793-.647-1.897-.97-3.31-.97-1.16 0-2.11.19-2.85.57-.74.38-1.283.863-1.63 1.45l1.62 1.44c.28-.387.613-.7 1-.94s.893-.36 1.52-.36c.68 0 1.163.157 1.45.47.287.313.43.777.43 1.39V16H58.9c-1.52 0-2.673.26-3.46.78-.787.52-1.18 1.32-1.18 2.4 0 .973.303 1.73.91 2.27s1.41.81 2.41.81zm1.12-1.94c-.467 0-.84-.093-1.12-.28-.28-.187-.42-.46-.42-.82v-.4c0-.813.607-1.22 1.82-1.22h1.58v1.24c0 .48-.18.847-.54 1.1-.36.253-.8.38-1.32.38zm10.78 1.7v-6.78c0-.253.05-.473.15-.66.1-.187.237-.343.41-.47.173-.127.37-.22.59-.28.22-.06.443-.09.67-.09 1.16 0 1.74.667 1.74 2v6.28H76v-6.68c0-.627-.083-1.18-.25-1.66a3.619 3.619 0 00-.69-1.22 2.775 2.775 0 00-1.06-.75 3.604 3.604 0 00-1.36-.25c-.413 0-.783.057-1.11.17a2.947 2.947 0 00-1.49 1.13c-.173.253-.32.527-.44.82h-.12V11.7h-2.96v10.32h2.96zm18.36 0v-2.3h-4.02V14h4.02v-2.3h-4.02V8.06H81.1v2.42c0 .467-.093.787-.28.96-.187.173-.5.26-.94.26h-1.82V14h2.8v5.04c0 .867.26 1.58.78 2.14s1.313.84 2.38.84h3.82zm8.02-11.64c.667 0 1.13-.137 1.39-.41.26-.273.39-.603.39-.99V8.4c0-.4-.13-.733-.39-1s-.723-.4-1.39-.4c-.667 0-1.13.133-1.39.4s-.39.6-.39 1v.58c0 .387.13.717.39.99s.723.41 1.39.41zm4.52 11.64v-2.3h-3.04V11.7H91.1V14h3.28v5.72H91.1v2.3h9.28zm5.1 0v-6.78c0-.253.05-.473.15-.66.1-.187.237-.343.41-.47.173-.127.37-.22.59-.28.22-.06.443-.09.67-.09 1.16 0 1.74.667 1.74 2v6.28H112v-6.68c0-.627-.083-1.18-.25-1.66a3.619 3.619 0 00-.69-1.22 2.775 2.775 0 00-1.06-.75 3.604 3.604 0 00-1.36-.25c-.413 0-.783.057-1.11.17a2.947 2.947 0 00-1.49 1.13c-.173.253-.32.527-.44.82h-.12V11.7h-2.96v10.32h2.96zm14.02.24c1.107 0 2.02-.18 2.74-.54.72-.36 1.28-.787 1.68-1.28l-1.6-1.74c-.32.387-.7.697-1.14.93-.44.233-.967.35-1.58.35-.8 0-1.407-.203-1.82-.61-.413-.407-.62-.943-.62-1.61v-.18h7.06v-.88c0-.8-.117-1.523-.35-2.17a4.7 4.7 0 00-.99-1.65 4.326 4.326 0 00-1.56-1.05c-.613-.247-1.307-.37-2.08-.37-.773 0-1.47.123-2.09.37a4.229 4.229 0 00-1.58 1.08 4.873 4.873 0 00-1 1.72c-.233.673-.35 1.43-.35 2.27 0 1.653.447 2.96 1.34 3.92s2.207 1.44 3.94 1.44zm1.82-6.34h-4.16v-.16c0-.667.19-1.197.57-1.59.38-.393.89-.59 1.53-.59s1.143.193 1.51.58c.367.387.55.92.55 1.6v.16z"/></g></svg>