<svg xmlns="http://www.w3.org/2000/svg" viewBox="0 0 903.227 561.08"><path fill="#e7e8e5" d="M578.16 543.987c6.39-3.586 14.587-3.719 21.09-.346 6.503 3.372 11.115 10.151 11.866 17.439-13.464.013-26.73-3.13-32.956-17.093M593.85 530.192c9.011 2.953 19.453 1.073 26.866-4.837 7.415-5.91 11.575-15.67 10.704-25.111-17.099 3.352-33.156 10.661-37.57 29.948"/><path fill="#dadbd8" d="M535.23 552.976c-.006-.024.285-.137.843-.335l2.456-.83a425.327 425.327 0 009.036-3.027c7.604-2.621 18.046-6.445 29.296-11.347a320.555 320.555 0 0015.643-7.374c4.721-2.44 8.903-4.77 12.33-6.867 3.395-2.14 6.105-3.948 7.833-5.38 1.766-1.383 2.628-2.288 2.686-2.228.018.016-.192.245-.609.668-.424.416-1.019 1.068-1.905 1.768-1.688 1.507-4.367 3.384-7.744 5.59-3.407 2.158-7.579 4.54-12.298 7.018a286.951 286.951 0 01-15.657 7.441c-11.276 4.912-21.765 8.67-29.419 11.176a227.555 227.555 0 01-9.112 2.819l-2.496.708c-.572.153-.876.223-.882.2"/><path fill="#dadbd8" d="M595.459 551.83c-.07.098-1.631-.988-4.318-2.44a53.14 53.14 0 00-11.026-4.431 53.196 53.196 0 00-11.75-1.804c-3.05-.118-4.946.02-4.954-.1-.004-.048.464-.123 1.321-.216.855-.107 2.103-.171 3.644-.175 3.081-.013 7.365.385 11.923 1.625 4.552 1.254 8.441 3.092 11.085 4.674 1.324.788 2.365 1.48 3.047 2.005.689.519 1.054.821 1.028.861"/><path fill="#e7e8e5" d="M277.81 491.875c-3.246 8.649-1.846 18.893 3.602 26.353 5.448 7.462 14.779 11.916 24.007 11.457-2.559-16.785-9.014-32.719-27.608-37.81"/><path fill="#dadbd8" d="M275.183 483.64c.11-.025.569 1.833 1.537 4.759a71.32 71.32 0 004.735 11.04 71.409 71.409 0 006.576 10.057c1.9 2.425 3.194 3.836 3.112 3.915-.035.033-.392-.287-1.011-.897-.624-.602-1.477-1.526-2.483-2.709-2.014-2.361-4.557-5.852-6.806-10.037-2.24-4.19-3.74-8.237-4.591-11.223-.43-1.492-.727-2.713-.884-3.568-.164-.853-.232-1.326-.185-1.337"/><path fill="#e7e8e5" d="M11.356 155.43c-5.029 13.4-2.861 29.267 5.578 40.826 8.44 11.559 22.893 18.456 37.187 17.748-3.962-26.003-13.96-50.685-42.765-58.573"/><path fill="#dadbd8" d="M7.283 142.673c.047-.009.266.7.624 1.991.345 1.292.895 3.15 1.63 5.424 1.465 4.548 3.857 10.723 7.294 17.152 3.454 6.425 7.273 11.836 10.25 15.572 1.487 1.87 2.729 3.357 3.615 4.36.877 1.01 1.346 1.587 1.312 1.62-.035.033-.57-.48-1.511-1.437-.95-.95-2.254-2.392-3.796-4.234-3.091-3.674-7.003-9.082-10.482-15.553-3.462-6.476-5.8-12.727-7.15-17.335-.68-2.304-1.16-4.188-1.424-5.504-.278-1.314-.409-2.045-.362-2.056"/><path fill="#e7e8e5" d="M56.407 420.82c-7.197 5.793-11.204 15.323-10.312 24.519.891 9.194 6.657 17.777 14.833 22.078 6.34-15.75 8.894-32.75-4.521-46.597"/><path fill="#dadbd8" d="M58.335 412.393c.11.034-.443 1.868-1.098 4.88a71.268 71.268 0 00-1.544 11.912c-.19 4.696.138 8.95.543 12.003.4 3.056.798 4.93.686 4.955-.047.01-.19-.447-.414-1.286-.23-.837-.493-2.067-.757-3.596-.533-3.059-.945-7.357-.752-12.104.204-4.746.974-8.994 1.76-11.997.391-1.503.757-2.707 1.056-3.521.292-.818.475-1.262.52-1.246"/><path fill="#e7e8e5" d="M303.855 83.672c8.27 4.116 18.602 3.775 26.584-.879 7.981-4.653 13.368-13.477 13.858-22.704-16.958.823-33.47 5.61-40.442 23.583"/><path fill="#dadbd8" d="M295.392 85.443c-.013-.114 1.884-.379 4.893-1.042 3.01-.66 7.12-1.798 11.468-3.577a71.357 71.357 0 0010.678-5.51c2.608-1.64 4.144-2.785 4.213-2.694.03.037-.325.36-.995.913-.664.559-1.67 1.312-2.95 2.192-2.556 1.762-6.288 3.934-10.683 5.742-4.396 1.797-8.577 2.874-11.633 3.416-1.53.272-2.775.442-3.64.512-.866.076-1.344.096-1.351.048"/><path fill="#e7e8e5" d="M269.29 81.248c11.91-2.557 22.28-11.405 26.68-22.764 4.4-11.359 2.697-24.883-4.382-34.796-16.804 14.792-29.888 33.3-22.297 57.56"/><path fill="#dadbd8" d="M262.025 90.03c-.033-.034.368-.523 1.124-1.377.764-.845 1.836-2.096 3.123-3.67a91.702 91.702 0 008.916-13.112 91.628 91.628 0 006.453-14.487 101.08 101.08 0 001.476-4.587c.328-1.09.531-1.69.578-1.678.046.01-.068.632-.316 1.748-.238 1.118-.667 2.717-1.272 4.67-1.203 3.908-3.274 9.203-6.312 14.672-3.05 5.46-6.459 10.008-9.147 13.09-1.341 1.542-2.476 2.749-3.301 3.541-.819.799-1.287 1.223-1.322 1.19"/><path fill="#e7e8e5" d="M378.67 538.002c2.514 4.962 7.627 8.512 13.155 9.135 5.528.623 11.303-1.702 14.858-5.981-8.487-5.701-18.183-9.327-28.014-3.154"/><path fill="#dadbd8" d="M373.947 535.815c.102-.199 4.113 2.14 9.596 3.518 5.473 1.427 10.113 1.302 10.108 1.527.002.084-1.151.224-3.028.179-1.874-.044-4.47-.323-7.252-1.032-2.78-.717-5.191-1.72-6.855-2.58-1.667-.863-2.612-1.54-2.57-1.612"/><path fill="#e7e8e5" d="M502.268 59.283c3.427 4.382 9.13 6.877 14.673 6.418 5.544-.458 10.759-3.856 13.42-8.742-9.429-3.952-19.642-5.634-28.093 2.324"/><path fill="#dadbd8" d="M497.21 58.05c.063-.215 4.451 1.305 10.097 1.597 5.644.34 10.173-.679 10.212-.458.018.082-1.087.443-2.936.76-1.847.32-4.448.548-7.316.391-2.864-.164-5.423-.681-7.224-1.205-1.802-.523-2.86-1.006-2.832-1.084"/><path fill="#e7e8e5" d="M822.581 100.297c8.902 2.456 18.974.144 25.914-5.949 6.938-6.095 10.536-15.781 9.252-24.928-16.483 4.053-31.767 11.91-35.166 30.877"/><path fill="#dadbd8" d="M814.619 103.653c-.036-.108 1.774-.73 4.6-1.957a71.436 71.436 0 0010.566-5.704 71.292 71.292 0 009.42-7.45c2.246-2.109 3.534-3.525 3.619-3.45.037.032-.25.417-.8 1.088-.545.676-1.388 1.607-2.476 2.715-2.17 2.217-5.416 5.061-9.381 7.677-3.97 2.605-7.864 4.461-10.76 5.577-1.448.56-2.638.967-3.474 1.199-.834.241-1.3.35-1.314.305"/><path fill="#e7e8e5" d="M854.13 506.678c15.657-3.615 29.154-15.497 34.727-30.569 5.572-15.073 3.051-32.878-6.489-45.81-21.864 19.853-38.747 44.536-28.239 76.38"/><path fill="#dadbd8" d="M844.724 518.41c-.035-.033.496-.675 1.485-1.806 1-1.122 2.4-2.788 4.074-4.887 1.682-2.092 3.58-4.666 5.573-7.6a126.732 126.732 0 005.957-9.874 126.484 126.484 0 004.94-10.424c1.343-3.284 2.442-6.287 3.255-8.846.824-2.554 1.439-4.64 1.821-6.093.398-1.45.639-2.248.686-2.237.046.01-.106.828-.424 2.302-.302 1.476-.846 3.59-1.615 6.174-.757 2.59-1.812 5.625-3.13 8.942a114.664 114.664 0 01-4.92 10.51 114.387 114.387 0 01-6.042 9.906c-2.033 2.93-3.981 5.488-5.72 7.55-1.73 2.068-3.19 3.69-4.255 4.758-1.052 1.079-1.652 1.659-1.685 1.626"/><path fill="#f03d5f" d="M673.137 338.573c-8.421-46.996-48.777-88.036-96.365-91.913-12.359-1.007-24.752.324-37.136 1.655-13.595 1.461-27.179 2.924-40.693 1.292-21.671-2.618-42.246-13.467-56.647-29.871-21.31-24.273-28.555-58.79-51.13-81.89-31.123-31.84-85.437-32.342-123.298-8.913-37.863 23.43-60.757 65.7-71.235 108.975l-.413 13.159c-2.28 44.885 9.524 97.05 35.567 137.06 26.381 40.528 43.73 57.262 91.812 86.408 40.828 24.75 120.776 35.629 168.506 36.778 47.731 1.15 96.767-13.08 132.662-44.561 35.896-31.481 56.793-81.183 48.37-128.179"/><path fill="#fbcbd7" d="M497.45 511.377c-1.782 0-3.565-.021-5.345-.064-47.73-1.15-127.678-12.029-168.506-36.778-36.499-22.124-55.29-37.1-73.764-60.756l.964-22.075 7.298.319 37.279 1.628 2.061-47.24-44.576-1.947 9.243-211.74a124.814 124.814 0 015.764-3.79c17.31-10.713 38.055-16.42 58.455-16.42 12.158 0 24.193 2.027 35.302 6.237-10.625 5.921-20.029 13.772-28.21 23.549-20.022 23.921-30.034 58.041-30.043 102.356 0 .973.005 1.95.015 2.935l.774 80.744c.442 45.91 11.204 80.806 32.287 104.69 20.787 23.55 48.683 35.322 83.699 35.322.502 0 1.01-.003 1.516-.007 35.56-.341 63.572-12.653 84.033-36.94 20.02-23.761 30.036-57.875 30.043-102.345a271.78 271.78 0 00-.014-2.944l-.742-77.3c1.55-.162 3.102-.328 4.653-.496 9.345-1.004 18.693-2.008 28.03-2.008 3.037 0 6.073.105 9.106.353 22.31 1.817 43.03 11.803 59.616 26.741l-51.373 101.88 4.946 35.632 37.135-3.632v.002l40.368-3.95c-8.396 24.244-23.373 46.471-42.697 63.419-34.556 30.308-81.291 44.625-127.316 44.625m67.441-58.118c6.173 3.314 12.19 4.728 18.017 4.728 12.239 0 23.642-6.235 33.884-14.176-5.926-6.222-14.506-9.764-23.081-9.764-1.815 0-3.63.158-5.419.484-10.242 1.864-19.337 9.144-23.401 18.728m-144.39-32.199c-18.246 0-32.262-6.848-42.049-20.55-9.917-13.875-15.01-35.347-15.29-64.422l-.942-98.112a228.6 228.6 0 01-.012-2.521c.007-27.636 4.615-48.244 13.823-61.816 6.883-10.15 16.168-16.663 27.852-19.539 13.62 21.204 21.681 46.577 38.412 65.636 9.17 10.445 20.844 18.639 33.71 23.888l.878 91.372c.008.856.012 1.707.012 2.55-.004 27.942-4.57 48.7-13.699 62.271-9.405 13.982-23.401 21.062-41.989 21.24l-.705.003"/><path fill="#f03d5f" d="M720.139 502.827c.122 12.705-10.078 23.104-22.783 23.225-12.705.121-23.105-10.079-23.225-22.784-.123-12.705 10.077-23.103 22.784-23.225 12.704-.123 23.104 10.078 23.224 22.784"/><path fill="#fbcbd7" d="M697.13 526.052c-12.602 0-22.88-10.153-23-22.784v-.223c-.002-12.604 10.153-22.881 22.785-23.002.074-.002.15-.002.225-.002 12.603 0 22.879 10.155 22.999 22.786l.001.222c.003 12.604-10.153 22.882-22.784 23.003h-.227"/><path fill="#f03d5f" d="M475.941 236.884c-.277-28.907-5.333-50.263-15.165-64.059-9.83-13.796-24.045-20.605-42.632-20.426-18.592.178-32.63 7.258-42.112 21.24-9.487 13.981-14.09 35.43-13.81 64.337l.94 98.112c.28 29.075 5.374 50.547 15.291 64.421 9.912 13.88 24.164 20.726 42.755 20.548 18.588-.178 32.584-7.258 41.99-21.24 9.403-13.981 13.966-35.589 13.686-64.821l-.943-98.112m59.784 89.227c.442 45.91-9.57 81.005-30.029 105.289-20.461 24.287-48.473 36.599-84.033 36.94-35.727.343-64.13-11.427-85.215-35.315-21.083-23.884-31.845-58.78-32.287-104.69l-.774-80.744c-.44-45.746 9.566-80.844 30.028-105.291 20.457-24.447 48.546-36.841 84.274-37.184 35.562-.341 63.888 11.512 84.974 35.559 21.085 24.046 31.848 58.946 32.286 104.692l.776 80.744"/><path fill="#9c2438" d="M420.147 468.347c-35.016 0-62.912-11.772-83.699-35.322-21.083-23.884-31.845-58.78-32.287-104.69l-.774-80.744c-.01-.984-.015-1.962-.015-2.935.01-44.315 10.021-78.435 30.043-102.356 20.457-24.447 48.546-36.841 84.274-37.184.496-.005.996-.008 1.49-.008 34.865 0 62.693 11.855 83.484 35.567 21.085 24.046 31.848 58.946 32.286 104.692l.776 80.744c.01.985.015 1.966.014 2.944-.007 44.47-10.023 78.584-30.043 102.345-20.461 24.287-48.473 36.599-84.033 36.94-.506.004-1.014.007-1.516.007m-57.938-232.892c0 .833.003 1.674.012 2.521l.942 98.112c.28 29.075 5.373 50.547 15.29 64.421 9.787 13.703 23.803 20.551 42.05 20.551l.705-.003c18.588-.178 32.584-7.258 41.99-21.24 9.129-13.57 13.694-34.329 13.698-62.272 0-.842-.004-1.693-.012-2.549l-.943-98.112c-.277-28.907-5.333-50.263-15.165-64.059-9.705-13.62-23.684-20.43-41.923-20.43-.237 0-.472.001-.709.004-18.592.178-32.63 7.258-42.112 21.24-9.208 13.572-13.816 34.18-13.823 61.816"/><path fill="#f03d5f" d="M509.887 236.559c-.278-28.908-5.332-50.264-15.166-64.06-9.83-13.796-24.045-20.606-42.633-20.427-18.59.179-32.628 7.259-42.11 21.24-9.486 13.983-14.089 35.43-13.811 64.339l.942 98.112c.279 29.074 5.372 50.546 15.29 64.421 9.912 13.879 24.164 20.724 42.756 20.545 18.586-.177 32.584-7.257 41.989-21.237 9.403-13.981 13.967-35.59 13.685-64.821zm59.784 89.226c.441 45.911-9.571 81.006-30.028 105.288-20.463 24.287-48.475 36.6-84.035 36.94-35.727.343-64.13-11.426-85.213-35.314-21.086-23.884-31.847-58.78-32.287-104.691l-.776-80.744c-.44-45.745 9.568-80.844 30.028-105.29 20.457-24.446 48.548-36.84 84.275-37.185 35.561-.341 63.888 11.512 84.973 35.559 21.087 24.048 31.848 58.947 32.288 104.692l.775 80.745"/><path fill="#f03d5f" d="M337.575 252.063c.066.178-7.818 3.308-17.607 6.986-9.793 3.68-17.784 6.516-17.852 6.338-.068-.18 7.815-3.307 17.608-6.988 9.79-3.679 17.783-6.516 17.85-6.336M339.533 283.97c.067.178-7.816 3.307-17.606 6.985-9.794 3.681-17.784 6.517-17.852 6.338-.067-.178 7.814-3.306 17.608-6.988 9.79-3.678 17.782-6.516 17.85-6.336M341.492 315.876c.067.179-7.816 3.307-17.605 6.985-9.795 3.682-17.786 6.519-17.854 6.339-.066-.18 7.815-3.307 17.608-6.988 9.791-3.679 17.783-6.516 17.851-6.336M343.45 347.783c.069.178-7.815 3.306-17.605 6.986-9.793 3.68-17.785 6.516-17.852 6.338-.068-.18 7.815-3.308 17.608-6.988 9.79-3.679 17.783-6.516 17.85-6.336M345.41 379.688c.017.044-.418.259-1.22.603a136.6 136.6 0 01-3.42 1.404 645.66 645.66 0 01-11.375 4.382 654.073 654.073 0 01-11.448 4.194c-1.471.518-2.667.928-3.498 1.196-.83.268-1.298.394-1.314.35-.018-.045.418-.257 1.22-.602.801-.347 1.97-.826 3.42-1.404a647.376 647.376 0 0111.376-4.384 649.005 649.005 0 0111.446-4.192c1.471-.519 2.666-.928 3.498-1.196.83-.268 1.298-.396 1.316-.351M354.524 408.875c.035.089-1.51.764-4.036 1.78a492.96 492.96 0 01-9.916 3.834 483.582 483.582 0 01-9.99 3.644c-2.569.899-4.174 1.41-4.207 1.319-.035-.09 1.51-.763 4.036-1.777a485.514 485.514 0 019.917-3.835 488.122 488.122 0 019.987-3.645c2.569-.899 4.176-1.41 4.209-1.32M374.023 435.653c.033.09-1.34.699-3.586 1.61-2.246.912-5.368 2.126-8.829 3.426a385.02 385.02 0 01-8.901 3.236c-2.291.795-3.726 1.241-3.759 1.15-.033-.088 1.339-.698 3.585-1.61a401.6 401.6 0 018.831-3.425 382.874 382.874 0 018.9-3.236c2.29-.795 3.725-1.241 3.759-1.15M406.437 453.208c.034.09-1.34.697-3.586 1.61a381.131 381.131 0 01-8.828 3.425 391.756 391.756 0 01-8.902 3.237c-2.29.793-3.725 1.24-3.758 1.15-.034-.09 1.338-.698 3.585-1.61 2.247-.91 5.368-2.125 8.83-3.426a383.31 383.31 0 018.9-3.237c2.291-.794 3.725-1.238 3.76-1.149M504.203 385.124c.08.175-10.042 4.895-22.603 10.543-12.565 5.648-22.81 10.084-22.89 9.909-.078-.176 10.042-4.895 22.606-10.543 12.56-5.646 22.81-10.084 22.887-9.909M510.841 357.785c.079.174-8.276 4.102-18.658 8.768-10.387 4.671-18.87 8.312-18.947 8.136-.079-.174 8.275-4.1 18.661-8.769 10.383-4.668 18.866-8.31 18.944-8.135M513.897 327.075c.079.174-8.277 4.101-18.66 8.769-10.386 4.67-18.868 8.312-18.945 8.137-.08-.176 8.275-4.101 18.661-8.77 10.383-4.668 18.864-8.312 18.944-8.136M516.952 296.365c.079.175-8.276 4.102-18.659 8.77-10.386 4.669-18.869 8.312-18.946 8.137-.079-.176 8.274-4.101 18.661-8.77 10.383-4.669 18.865-8.311 18.944-8.137M520.008 265.656c.079.175-8.277 4.101-18.66 8.768-10.387 4.67-18.868 8.312-18.945 8.139-.08-.176 8.274-4.102 18.661-8.771 10.383-4.668 18.864-8.312 18.944-8.136M513.897 238.308c.079.173-8.277 4.101-18.66 8.768-10.386 4.67-18.868 8.312-18.945 8.137-.08-.174 8.275-4.1 18.661-8.769 10.383-4.668 18.864-8.312 18.944-8.136M513.897 208.868c.079.173-8.277 4.101-18.66 8.768-10.386 4.67-18.868 8.312-18.945 8.137-.08-.174 8.275-4.1 18.661-8.769 10.383-4.668 18.864-8.312 18.944-8.136M510.841 181.143c.079.174-8.276 4.101-18.658 8.769-10.387 4.67-18.87 8.312-18.947 8.137-.079-.176 8.275-4.101 18.661-8.77 10.383-4.668 18.866-8.311 18.944-8.136M484.503 161.83c.08.177-4.978 2.62-11.295 5.46-6.316 2.84-11.5 5-11.579 4.825-.078-.176 4.978-2.619 11.295-5.459 6.316-2.84 11.5-5 11.579-4.825M470.421 150c.079.175-4.978 2.619-11.293 5.457-6.319 2.84-11.501 5-11.58 4.826-.079-.175 4.977-2.619 11.295-5.459 6.314-2.839 11.5-4.999 11.578-4.824M339.085 213.387c.068.18-7.816 3.308-17.605 6.986-9.793 3.68-17.785 6.518-17.852 6.338-.068-.179 7.815-3.307 17.607-6.987 9.79-3.679 17.784-6.517 17.85-6.337M348.9 173.595c.068.18-8.481 3.558-19.09 7.545-10.614 3.988-19.27 7.075-19.338 6.895-.067-.179 8.479-3.556 19.093-7.544 10.61-3.987 19.268-7.075 19.335-6.896M374.53 134.215c.067.18-10.773 4.418-24.209 9.466-13.44 5.051-24.386 8.999-24.454 8.82-.067-.18 10.77-4.418 24.21-9.469 13.436-5.05 24.384-8.997 24.452-8.817"/><path fill="#fff" d="M563.924 385.565c-.004.011-.193-.054-.559-.19-.389-.151-.922-.359-1.605-.623-.71-.261-1.63-.455-2.69-.757-1.094-.147-2.34-.452-3.78-.455-5.693-.368-14.223 1.704-22.475 7.885-4.18 2.991-8.092 7.084-11.908 11.772-3.827 4.686-7.567 9.976-11.823 15.315-4.25 5.32-9.147 10.717-15.367 14.893-6.18 4.182-13.464 7.215-21.256 8.614-7.794 1.437-15.686 1.022-22.918-.766-7.263-1.74-13.892-4.598-20.08-7.45-6.191-2.87-11.968-5.795-17.522-8.202-5.53-2.449-10.897-4.22-15.893-5.41-5.008-1.14-9.656-1.639-13.733-1.58-4.08.045-7.562.662-10.335 1.405-2.747.833-4.808 1.713-6.15 2.41l-1.523.806c-.346.179-.527.265-.532.255-.007-.011.161-.118.496-.315.364-.213.86-.5 1.496-.87 1.325-.74 3.381-1.666 6.138-2.546a41.046 41.046 0 0110.403-1.533c4.11-.098 8.8.37 13.85 1.49 5.037 1.167 10.447 2.922 16.013 5.36 5.582 2.391 11.377 5.303 17.56 8.15 6.181 2.829 12.78 5.657 19.97 7.369 7.163 1.76 14.936 2.161 22.638.745 7.693-1.382 14.892-4.374 20.997-8.496 6.141-4.11 11-9.441 15.25-14.728 4.251-5.309 8.011-10.592 11.875-15.281 3.848-4.687 7.824-8.81 12.064-11.803 8.364-6.188 17.027-8.217 22.78-7.758 1.452.022 2.712.352 3.81.522 1.066.326 1.986.543 2.693.827l1.588.69c.356.158.533.246.528.255M572.33 296.568c.014.073-.95.199-2.591.744-1.638.561-3.919 1.64-6.438 3.447-2.545 1.776-5.301 4.253-8.548 6.818-3.266 2.55-7.141 4.995-11.458 7.05-8.647 4.16-17.322 5.778-23.552 6.086-1.56.128-2.979.082-4.219.111-1.241-.05-2.312-.072-3.183-.139l-2.001-.204c-.456-.053-.695-.093-.692-.117.001-.024.245-.03.704-.023.536.02 1.199.046 2.004.074l3.168.021c1.23-.065 2.639-.053 4.184-.212 6.176-.432 14.737-2.108 23.288-6.223 4.27-2.033 8.112-4.434 11.365-6.929 3.24-2.515 6.051-4.972 8.66-6.717 2.587-1.779 4.951-2.811 6.635-3.299.85-.228 1.513-.381 1.973-.428.458-.063.698-.084.702-.06M398.165 327.46c-.004.025-.254-.01-.732-.103-.472-.102-1.184-.208-2.07-.46-1.77-.513-4.294-1.456-7.143-3.133-2.859-1.66-5.996-4.041-9.335-6.819-3.349-2.766-6.922-5.933-11.021-8.764-4.103-2.814-8.45-4.822-12.653-5.8a38.445 38.445 0 00-11.35-1.08c-3.26.166-5.862.711-7.63 1.166-1.774.448-2.731.794-2.754.728-.008-.022.224-.126.676-.299.454-.172 1.118-.443 2.006-.69 1.758-.537 4.373-1.163 7.672-1.394 3.289-.248 7.27-.076 11.532.948 4.277.957 8.738 2.995 12.894 5.848 4.148 2.867 7.72 6.063 11.038 8.845 3.308 2.798 6.385 5.196 9.177 6.89a34.555 34.555 0 006.97 3.296c1.746.521 2.735.762 2.723.821M398.4 201.43c.015.045-.776.331-2.223.813-.721.25-1.61.533-2.662.79-1.05.266-2.235.618-3.579.859-1.336.279-2.803.57-4.397.77-1.584.265-3.296.389-5.095.55-3.603.223-7.583.23-11.737-.141a78.168 78.168 0 01-11.562-2.05c-1.737-.493-3.396-.934-4.904-1.49-1.528-.494-2.914-1.054-4.174-1.578-1.276-.485-2.375-1.053-3.356-1.51a28.85 28.85 0 01-2.47-1.272c-1.33-.743-2.054-1.172-2.032-1.214.024-.041.792.307 2.156.974a36.93 36.93 0 002.508 1.16c.992.421 2.099.953 3.378 1.408 1.262.49 2.648 1.02 4.173 1.485 1.503.528 3.155.944 4.881 1.417a82.708 82.708 0 0011.467 1.979c4.116.368 8.057.379 11.63.195 1.786-.144 3.485-.246 5.06-.484 1.585-.172 3.045-.435 4.378-.682 1.341-.208 2.527-.524 3.58-.753 1.056-.22 1.95-.463 2.681-.672 1.464-.4 2.284-.6 2.299-.555M564.764 201.09c-.012.02-.208-.074-.567-.273a867.87 867.87 0 01-1.548-.893 24.274 24.274 0 00-2.474-1.35c-.988-.48-2.079-1.102-3.375-1.591-.641-.266-1.31-.543-2.003-.832-.7-.283-1.456-.498-2.222-.764-1.527-.566-3.22-.951-4.988-1.408-3.567-.774-7.558-1.316-11.774-1.382-4.218-.009-8.218.464-11.798 1.172-1.775.428-3.478.783-5.012 1.322-.771.253-1.532.453-2.236.724l-2.018.797c-1.305.467-2.405 1.068-3.402 1.53a23.95 23.95 0 00-2.498 1.309c-.62.341-1.136.628-1.564.865-.362.19-.558.283-.572.263-.013-.02.158-.151.496-.38l1.502-.982c.65-.433 1.462-.933 2.458-1.421.988-.499 2.084-1.136 3.39-1.636l2.022-.847c.706-.288 1.47-.502 2.246-.772 1.545-.566 3.26-.948 5.053-1.397 3.617-.752 7.668-1.25 11.939-1.241 4.269.065 8.312.636 11.913 1.452 1.784.481 3.492.892 5.027 1.486.772.282 1.533.511 2.233.811.696.305 1.365.6 2.007.883 1.296.522 2.38 1.18 3.36 1.696.988.504 1.789 1.02 2.432 1.464l1.484 1.006c.334.238.504.37.489.39M483.248 110.525c.01.022-.323.219-.965.576l-2.83 1.532a443.384 443.384 0 01-10.514 5.434c-8.935 4.418-21.491 10.45-36.34 14.213-7.427 1.832-14.688 2.807-21.316 2.96-6.63.152-12.607-.453-17.508-1.501-4.906-1.036-8.76-2.356-11.33-3.464-1.306-.502-2.26-1.038-2.929-1.34-.661-.324-1.004-.503-.993-.524.01-.022.373.116 1.052.397.686.261 1.654.755 2.972 1.216 2.589 1.027 6.441 2.265 11.324 3.232 4.88.981 10.814 1.53 17.394 1.344 6.579-.187 13.787-1.173 21.166-2.993 14.76-3.739 27.31-9.678 36.292-13.982l10.606-5.232 2.888-1.416c.664-.317 1.019-.473 1.031-.452"/><path fill="#f03d5f" d="M62.235 336.143l94.722 4.136 6.25-143.174-1.432-.548-5.299 10.206-94.24 129.38m153.348 6.694l44.575 1.947-2.062 47.239-44.576-1.947-3.426 78.492-58.626-2.56 3.426-78.49-151.41-6.61.114-35.973L164.928 113.2l60.564 2.643-9.908 226.994"/><path fill="#9c2438" d="M210.095 468.568l-58.626-2.56 3.426-78.49 37.278 1.627-3.425 78.49 21.347.933m48.002-76.545l-7.298-.319 7.298.319m-217.333-9.487l-37.28-1.628.115-35.973L164.928 113.2l60.564 2.643-23.285-1.016L40.878 346.563l-.114 35.973m153.472-40.63l-94.723-4.135 57.444 2.508 3.779-86.559 33.017-45.33 5.3-10.206 1.432.548-6.249 143.173"/><path fill="#f03d5f" d="M99.513 337.77l94.723 4.135 6.25-143.173-1.433-.548-5.3 10.207-94.24 129.38m153.348 6.693l44.576 1.947-2.061 47.24-44.577-1.947-3.427 78.49-58.624-2.558 3.425-78.49-151.409-6.61.114-35.973 161.329-231.736 60.562 2.644-9.908 226.993"/><path fill="#f03d5f" d="M41.633 353.401c.02.044-.494.328-1.443.808-.947.48-2.331 1.148-4.05 1.956a399.891 399.891 0 01-13.56 6.018 400.754 400.754 0 01-13.768 5.533c-1.776.67-3.22 1.196-4.224 1.541-1.005.347-1.568.518-1.585.472-.017-.045.513-.3 1.487-.722 1.109-.468 2.495-1.055 4.14-1.748 3.64-1.522 8.407-3.512 13.68-5.715l13.63-5.828 4.138-1.752c.982-.403 1.536-.607 1.555-.563M63.33 313.473c.02.044-.697.422-2.01 1.063-1.313.64-3.225 1.539-5.603 2.621-4.752 2.168-11.362 5.063-18.7 8.167-7.344 3.101-14.026 5.825-18.892 7.723-2.433.95-4.411 1.696-5.785 2.192-1.375.493-2.144.745-2.16.701-.019-.044.717-.381 2.061-.952 1.454-.61 3.375-1.42 5.7-2.397l18.805-7.907 18.773-7.976c2.321-.985 4.239-1.801 5.69-2.419 1.346-.565 2.1-.858 2.12-.816M89.82 277.87c.02.046-.729.422-2.101 1.066-1.373.64-3.373 1.54-5.855 2.623-4.965 2.169-11.865 5.064-19.523 8.169-7.664 3.1-14.635 5.823-19.71 7.72-2.536.95-4.598 1.695-6.03 2.19-1.432.493-2.232.745-2.249.7-.017-.046.752-.383 2.155-.953l5.948-2.396 19.625-7.905 19.592-7.979 5.94-2.417c1.404-.568 2.19-.86 2.209-.817M195.943 318.99c.018.045-.498.32-1.45.783-.95.463-2.338 1.108-4.061 1.886a394.223 394.223 0 01-13.59 5.793 391.096 391.096 0 01-13.793 5.296 158.24 158.24 0 01-4.228 1.473c-1.005.331-1.568.491-1.585.447-.017-.047.515-.292 1.49-.7l4.149-1.679c3.648-1.457 8.425-3.368 13.708-5.48l13.654-5.601c1.648-.668 3.036-1.23 4.148-1.683.984-.385 1.538-.577 1.558-.534M191.632 392.241c.02.044-.48.322-1.401.782-.92.464-2.264 1.106-3.932 1.884a373.596 373.596 0 01-13.168 5.792 372.146 372.146 0 01-13.378 5.298 147.602 147.602 0 01-4.102 1.474c-.976.33-1.524.492-1.54.448-.018-.046.497-.292 1.442-.699l4.022-1.68 13.289-5.481c5.096-2.158 9.705-4.107 13.235-5.6 1.593-.667 2.937-1.23 4.021-1.682.955-.385 1.492-.578 1.512-.536M191.015 417.915c.018.044-.48.32-1.402.782a157.55 157.55 0 01-3.932 1.884 376.105 376.105 0 01-13.168 5.792 375.793 375.793 0 01-13.376 5.3c-1.725.639-3.128 1.143-4.104 1.472-.976.33-1.524.492-1.54.447-.017-.044.498-.292 1.443-.698 1.084-.453 2.428-1.016 4.021-1.68l13.29-5.482 13.234-5.6c1.594-.667 2.938-1.228 4.022-1.68.954-.388 1.492-.58 1.512-.537M190.397 443.59c.02.042-.48.318-1.4.78-.921.465-2.265 1.107-3.933 1.885a375.57 375.57 0 01-13.168 5.792 370.086 370.086 0 01-13.376 5.297 148.86 148.86 0 01-4.104 1.475c-.975.33-1.523.492-1.54.446-.017-.044.497-.29 1.443-.7 1.084-.45 2.429-1.012 4.021-1.677 3.544-1.461 8.17-3.37 13.29-5.483l13.234-5.6 4.021-1.681c.955-.385 1.492-.579 1.512-.535M196.636 291.868c.02.044-.497.32-1.448.783-.952.464-2.339 1.108-4.063 1.885a391.596 391.596 0 01-13.589 5.793 394.856 394.856 0 01-13.792 5.296 162.969 162.969 0 01-4.23 1.474c-1.005.329-1.567.49-1.585.446-.016-.045.516-.292 1.491-.701 1.112-.448 2.501-1.01 4.15-1.677l13.706-5.482 13.655-5.6 4.148-1.682c.984-.387 1.538-.579 1.557-.535M197.33 264.745c.02.043-.497.32-1.449.783-.95.463-2.338 1.108-4.061 1.885a395.36 395.36 0 01-13.59 5.794 393.758 393.758 0 01-13.793 5.296 162.969 162.969 0 01-4.229 1.473c-1.004.33-1.568.49-1.584.445-.017-.045.515-.292 1.49-.698l4.149-1.679c3.648-1.459 8.424-3.37 13.708-5.481l13.654-5.602 4.148-1.681c.984-.385 1.538-.579 1.558-.535M198.024 237.621c.02.044-.472.31-1.377.752-.906.444-2.227 1.06-3.867 1.804a357.315 357.315 0 01-12.939 5.535 359.112 359.112 0 01-13.146 5.03 153.71 153.71 0 01-4.032 1.395c-.959.314-1.496.464-1.512.419-.018-.045.489-.281 1.417-.672 1.07-.432 2.39-.968 3.952-1.6l13.06-5.215 13.005-5.342a6509.08 6509.08 0 003.954-1.6c.937-.367 1.465-.548 1.485-.506M201.088 212.277c.067.179-2.925 1.454-6.683 2.847-3.76 1.393-6.86 2.376-6.926 2.196-.066-.179 2.925-1.453 6.685-2.847 3.757-1.393 6.859-2.376 6.924-2.196M116.27 240.957c.02.044-.73.422-2.103 1.064a263.076 263.076 0 01-5.855 2.624c-4.964 2.168-11.864 5.063-19.523 8.168-7.664 3.102-14.634 5.824-19.709 7.72-2.536.951-4.598 1.696-6.03 2.192-1.433.492-2.232.743-2.249.699-.017-.045.751-.383 2.154-.952l5.948-2.396c5.122-2.064 12.01-4.839 19.626-7.905l19.592-7.979 5.939-2.419c1.404-.566 2.19-.858 2.21-.816M142.719 204.044c.018.044-.731.42-2.103 1.064-1.373.64-3.372 1.54-5.856 2.623-4.963 2.169-11.864 5.064-19.523 8.169-7.662 3.101-14.633 5.824-19.708 7.72-2.536.95-4.598 1.695-6.03 2.19-1.433.494-2.233.745-2.25.7-.016-.046.753-.382 2.155-.951a98454.537 98454.537 0 0125.573-10.301l19.592-7.98 5.939-2.418c1.405-.567 2.19-.86 2.21-.816M167.161 167.13c.02.045-.729.42-2.101 1.065-1.373.64-3.373 1.54-5.856 2.622-4.964 2.17-11.864 5.064-19.523 8.17-7.663 3.1-14.634 5.822-19.708 7.718-2.537.951-4.598 1.696-6.03 2.192-1.433.494-2.233.744-2.25.699-.016-.045.752-.381 2.154-.95 1.51-.61 3.517-1.418 5.948-2.398l19.625-7.905 19.593-7.978 5.939-2.418c1.404-.567 2.19-.86 2.21-.816M192.595 131.639c.02.044-.73.42-2.102 1.062a264.584 264.584 0 01-5.856 2.624c-4.964 2.17-11.864 5.064-19.522 8.17-7.664 3.1-14.635 5.822-19.71 7.718-2.536.951-4.597 1.696-6.029 2.192-1.433.492-2.233.743-2.25.699-.017-.045.751-.381 2.155-.952l5.947-2.396 19.627-7.905 19.592-7.979 5.938-2.419c1.404-.565 2.191-.858 2.21-.814"/><path fill="#fff" d="M260.099 185.872c.017.017-.25.317-.778.875-.525.56-1.3 1.389-2.414 2.333-2.179 1.93-5.606 4.493-10.364 6.687-4.742 2.184-10.87 3.905-17.811 4.062a41.688 41.688 0 01-10.781-1.212c-3.676-.869-7.31-2.354-10.903-4.068-7.17-3.492-13.541-7.614-19.772-10.484-6.188-2.933-12.297-4.381-17.46-4.556-5.183-.188-9.31.987-11.91 2.226-1.291.644-2.274 1.2-2.887 1.654-.634.428-.975.644-.99.626-.014-.019.298-.272.908-.739.592-.495 1.56-1.095 2.85-1.784 2.596-1.33 6.781-2.601 12.042-2.473 5.242.113 11.447 1.533 17.715 4.466 6.297 2.862 12.69 6.975 19.805 10.439 3.566 1.699 7.152 3.17 10.766 4.033a41.411 41.411 0 0010.608 1.232c6.841-.121 12.902-1.765 17.617-3.87 4.733-2.112 8.172-4.59 10.39-6.444 1.135-.907 1.937-1.7 2.491-2.227.559-.524.862-.792.878-.776M241.53 119.947c.022.044-.582.39-1.694.985-1.105.605-2.756 1.39-4.835 2.267-2.074.888-4.606 1.801-7.464 2.669a82.538 82.538 0 01-9.462 2.172 82.28 82.28 0 01-9.667.948c-2.985.085-5.676.025-7.925-.159-2.25-.17-4.064-.389-5.306-.612-1.242-.209-1.925-.346-1.918-.394.008-.048.704 0 1.954.126 1.247.14 3.06.282 5.299.391 2.24.12 4.91.13 7.87.01a91.259 91.259 0 009.58-.994 91.005 91.005 0 009.397-2.103c2.844-.828 5.373-1.685 7.458-2.509 2.088-.815 3.763-1.525 4.902-2.055 1.144-.518 1.789-.784 1.812-.742M146.873 268.024c-.04.03-.458-.457-1.201-1.348-.833-.99-1.89-2.25-3.156-3.752-2.699-3.137-6.552-7.372-11.165-11.672-2.307-2.143-4.654-4.017-6.998-5.381-2.337-1.374-4.659-2.202-6.667-2.588-4.055-.799-6.601.116-6.609-.046-.006-.022.144-.082.437-.176a9.19 9.19 0 011.311-.304c1.15-.197 2.872-.309 4.948.042 2.073.334 4.487 1.14 6.899 2.517 2.419 1.367 4.822 3.264 7.15 5.425 4.645 4.331 8.46 8.638 11.07 11.868a85.284 85.284 0 012.995 3.902c.677.944 1.022 1.486.986 1.513M253.225 308.312c.012.02-.166.157-.521.401-.36.235-.87.618-1.583 1.016-1.394.851-3.508 1.944-6.25 2.974-5.434 2.08-13.727 3.589-22.568 1.784-8.843-1.814-15.876-6.466-20.054-10.512-2.118-2.026-3.632-3.86-4.58-5.19-.498-.649-.817-1.201-1.056-1.557-.229-.364-.34-.56-.32-.573.048-.035.578.697 1.59 1.965 1.009 1.272 2.564 3.04 4.7 4.995 4.217 3.91 11.173 8.409 19.858 10.192 8.686 1.773 16.85.37 22.263-1.567 2.733-.959 4.859-1.973 6.285-2.745 1.43-.767 2.204-1.234 2.236-1.183M292.072 392.73s-.14-.203-.381-.617c-.254-.438-.606-1.052-1.06-1.844-.859-1.66-2.418-3.942-4.559-6.761l-1.815-2.141-.977-1.151c-.367-.363-.743-.732-1.127-1.11l-2.401-2.367c-.9-.747-1.835-1.523-2.801-2.327-3.939-3.116-8.799-6.24-14.639-8.703-5.83-2.441-12.628-4.265-20.061-4.658-7.424-.431-15.438.716-23.239 3.732-7.796 3.072-15.33 7.702-23.3 12.181-3.99 2.235-8.125 4.421-12.523 6.207-4.389 1.782-9.066 3.153-13.933 3.658-4.865.558-9.74.106-14.381-.869-4.656-.981-9.064-2.632-13.24-4.524-8.37-3.813-15.706-8.845-22.549-13.705-6.847-4.868-13.305-9.564-19.75-13.322-6.427-3.75-12.819-6.629-18.973-8.105-6.156-1.465-11.959-1.712-16.945-1.116-5.003.541-9.164 1.968-12.314 3.564-3.198 1.553-5.273 3.415-6.706 4.595-.643.648-1.141 1.148-1.498 1.505-.34.337-.53.499-.53.499s.153-.192.478-.547l1.455-1.559c1.408-1.22 3.472-3.128 6.678-4.734 3.158-1.647 7.347-3.124 12.39-3.708 5.029-.638 10.884-.426 17.105 1.024 6.23 1.46 12.675 4.337 19.151 8.085 6.49 3.755 12.977 8.447 19.83 13.297 6.847 4.843 14.154 9.835 22.46 13.608 4.143 1.872 8.508 3.503 13.103 4.468 4.583.959 9.38 1.402 14.163.854 4.786-.498 9.398-1.844 13.746-3.61 4.356-1.764 8.468-3.933 12.452-6.158 7.956-4.46 15.523-9.099 23.399-12.184 1.98-.728 3.937-1.451 5.947-1.919.997-.255 1.977-.556 2.969-.764l2.984-.49c3.953-.65 7.856-.686 11.604-.538 7.507.421 14.356 2.292 20.219 4.78 5.873 2.512 10.75 5.69 14.692 8.855l2.8 2.362 2.396 2.402c.381.384.756.758 1.122 1.126l.972 1.168 1.799 2.172c2.12 2.858 3.647 5.172 4.468 6.859l1.001 1.881c.222.426.319.65.319.65M251.77 448.424c.005.024-.229.084-.677.177l-1.968.377c-.856.169-1.906.346-3.14.458-1.23.124-2.628.33-4.188.36-.781.036-1.597.07-2.445.106-.85.033-1.736-.014-2.652-.02-1.836.014-3.788-.178-5.844-.337-4.1-.45-8.577-1.249-13.159-2.557-4.57-1.357-8.777-3.09-12.477-4.912-1.821-.97-3.57-1.857-5.11-2.856-.778-.488-1.55-.923-2.25-1.405l-2.005-1.404c-1.299-.863-2.368-1.79-3.34-2.555a29.455 29.455 0 01-2.402-2.07c-.585-.554-1.066-1.006-1.457-1.377-.328-.319-.492-.495-.476-.513.017-.016.212.125.57.41l1.54 1.275c.657.568 1.469 1.25 2.466 1.972.99.732 2.072 1.624 3.38 2.455.644.435 1.316.888 2.016 1.357.703.468 1.476.888 2.253 1.362 1.542.97 3.287 1.83 5.099 2.777 3.685 1.774 7.86 3.472 12.387 4.817 4.54 1.298 8.972 2.106 13.032 2.587 2.037.175 3.97.387 5.792.397.909.019 1.788.08 2.632.063l2.429-.061c1.55 0 2.943-.172 4.17-.258 1.23-.073 2.28-.21 3.14-.338l1.982-.248c.456-.049.697-.064.703-.04"/><path fill="#f03d5f" d="M641.83 358.33l94.363-9.227-13.949-142.631-1.496-.34-3.81 10.85L641.83 358.33m152.764-14.94L839 339.048l4.603 47.06-44.407 4.343 7.648 78.192-58.402 5.712-7.647-78.192-150.835 14.75-4.946-35.632L712.147 123.16l60.333-5.901 22.115 226.132"/><path fill="#9c2438" d="M748.443 474.355l-7.647-78.192-73.317 7.169 110.453-10.803 7.648 78.194 21.265-2.08-58.402 5.712M589.96 410.913l-4.946-35.632L712.147 123.16l37.137-3.632-127.133 252.121 4.945 35.634-37.135 3.63m246.374-24.094l7.269-.711-7.27.71m-157.366-32.12l12.297-1.202-12.297 1.203m57.225-5.596l-8.433-86.23 26.315-49.524 3.809-10.849 1.497.34 13.948 142.63-37.136 3.631"/><path fill="#f03d5f" d="M678.968 354.699l94.361-9.23-13.948-142.629-1.497-.34-3.81 10.85-75.106 141.349m152.764-14.94l44.407-4.344 4.602 47.06-44.406 4.344 7.646 78.192-58.401 5.712-7.648-78.194-150.836 14.754-4.945-35.634 127.133-252.122 60.333-5.9 22.115 226.132"/><path fill="#f03d5f" d="M623.86 378.315c.025.04-.443.396-1.316 1.004-.87.608-2.145 1.465-3.735 2.504a398.076 398.076 0 01-12.577 7.866 400.47 400.47 0 01-12.855 7.414 165.825 165.825 0 01-3.964 2.122c-.945.483-1.48.73-1.502.688-.024-.041.465-.368 1.369-.924l3.855-2.313c3.389-2.016 7.829-4.66 12.738-7.583l12.675-7.685 3.852-2.317c.915-.538 1.433-.816 1.46-.776M639.725 335.732c.027.041-.63.515-1.84 1.335-1.209.818-2.977 1.978-5.18 3.384-4.398 2.814-10.536 6.609-17.365 10.716-6.833 4.102-13.067 7.738-17.619 10.301a247.257 247.257 0 01-5.417 2.985c-1.293.682-2.019 1.04-2.043.998-.022-.043.659-.479 1.91-1.232 1.353-.811 3.141-1.88 5.305-3.175l17.507-10.473c6.772-4.086 12.898-7.784 17.464-10.538l5.294-3.193c1.252-.75 1.958-1.148 1.984-1.108M660.945 296.759c.027.04-.664.518-1.93 1.349-1.27.827-3.123 1.999-5.428 3.42-4.611 2.845-11.036 6.683-18.18 10.833-7.154 4.147-13.671 7.824-18.428 10.416a273.358 273.358 0 01-5.663 3.016c-1.348.69-2.105 1.051-2.128 1.008-.023-.041.69-.482 1.999-1.244 1.409-.816 3.284-1.897 5.552-3.209l18.318-10.587 18.276-10.654 5.539-3.23c1.312-.758 2.048-1.158 2.073-1.118M771.796 322.544c.024.04-.448.387-1.324.977-.877.595-2.161 1.427-3.757 2.439a394.261 394.261 0 01-12.639 7.648 395.464 395.464 0 01-12.912 7.183 158.03 158.03 0 01-3.979 2.052c-.949.469-1.484.708-1.506.665-.024-.043.468-.361 1.377-.901a4288.89 4288.89 0 003.87-2.247l12.8-7.352c4.907-2.879 9.345-5.48 12.733-7.467 1.537-.893 2.833-1.645 3.87-2.249.92-.52 1.44-.788 1.467-.748M777.83 395.673c.026.04-.43.384-1.277.971-.846.587-2.085 1.415-3.629 2.419a372.63 372.63 0 01-12.223 7.585 379.438 379.438 0 01-12.497 7.128 158.56 158.56 0 01-3.855 2.036c-.921.464-1.438.7-1.462.659-.023-.042.452-.359 1.329-.896l3.747-2.228c3.301-1.946 7.616-4.486 12.385-7.295 4.741-2.852 9.03-5.432 12.316-7.407l3.745-2.23c.891-.516 1.396-.783 1.42-.742M780.83 421.177c.026.042-.43.386-1.277.972-.846.587-2.085 1.414-3.629 2.418a370.273 370.273 0 01-12.223 7.586 380.209 380.209 0 01-12.497 7.129 156.558 156.558 0 01-3.856 2.035c-.92.465-1.439.7-1.461.659-.023-.041.452-.357 1.329-.896l3.747-2.228c3.301-1.945 7.614-4.486 12.385-7.295 4.741-2.852 9.03-5.432 12.316-7.406l3.745-2.231c.891-.516 1.395-.783 1.42-.743M783.83 446.683c.026.04-.43.383-1.277.972-.846.586-2.085 1.413-3.629 2.417a370.555 370.555 0 01-12.223 7.587 374.415 374.415 0 01-12.498 7.126 150.25 150.25 0 01-3.855 2.038c-.92.462-1.439.7-1.461.659-.023-.042.452-.36 1.329-.897l3.747-2.228 12.385-7.294c4.741-2.852 9.03-5.432 12.316-7.407l3.745-2.23c.891-.517 1.395-.783 1.42-.743M768.668 295.592c.025.041-.448.388-1.324.979-.876.593-2.16 1.426-3.757 2.437a389.403 389.403 0 01-12.639 7.648 395.84 395.84 0 01-12.912 7.184c-1.67.885-3.03 1.585-3.979 2.053-.949.467-1.484.707-1.506.664-.023-.042.469-.361 1.377-.901l3.872-2.247c3.405-1.957 7.867-4.518 12.799-7.353l12.732-7.467c1.537-.893 2.833-1.644 3.869-2.248.921-.52 1.443-.789 1.468-.749M765.54 268.641c.025.042-.448.388-1.324.979-.876.593-2.16 1.425-3.756 2.439a393.853 393.853 0 01-12.64 7.646 395.966 395.966 0 01-12.91 7.184c-1.671.884-3.031 1.586-3.98 2.054-.95.466-1.485.705-1.507.664-.023-.043.469-.362 1.378-.903l3.871-2.245c3.407-1.956 7.867-4.52 12.8-7.354l12.73-7.466 3.871-2.248c.92-.522 1.442-.79 1.467-.75M762.413 241.69c.024.04-.425.373-1.26.94-.833.566-2.054 1.36-3.572 2.329-3.04 1.933-7.28 4.54-12.033 7.298a362.549 362.549 0 01-12.308 6.831c-1.595.839-2.89 1.504-3.796 1.948-.905.444-1.415.668-1.439.627-.022-.043.446-.348 1.31-.866l3.688-2.14 12.196-7 12.125-7.118 3.688-2.14c.877-.495 1.375-.75 1.401-.708M761.881 216.167c.092.169-2.692 1.852-6.217 3.758-3.524 1.908-6.456 3.318-6.547 3.148-.09-.168 2.692-1.85 6.218-3.758 3.524-1.907 6.456-3.316 6.546-3.148M681.94 256.492c.025.041-.664.519-1.932 1.35-1.27.826-3.123 1.998-5.428 3.42-4.61 2.845-11.035 6.682-18.18 10.833-7.15 4.148-13.67 7.824-18.427 10.414a272.83 272.83 0 01-5.662 3.019c-1.35.688-2.107 1.05-2.128 1.008-.024-.043.689-.484 1.998-1.245l5.552-3.21 18.318-10.586 18.276-10.655 5.54-3.23c1.31-.758 2.048-1.158 2.073-1.118M702.933 216.225c.026.04-.664.519-1.932 1.35-1.269.826-3.122 1.998-5.428 3.42-4.609 2.845-11.034 6.681-18.18 10.833-7.15 4.148-13.669 7.824-18.426 10.415a269.101 269.101 0 01-5.662 3.017c-1.349.69-2.108 1.05-2.129 1.008-.024-.041.69-.483 1.999-1.244l5.552-3.21 18.318-10.586c7.091-4.133 13.506-7.873 18.275-10.655l5.541-3.229c1.31-.759 2.047-1.16 2.072-1.119M721.943 176.24c.025.041-.664.519-1.932 1.35-1.27.827-3.123 2-5.428 3.42-4.61 2.846-11.035 6.682-18.18 10.833-7.151 4.148-13.67 7.825-18.427 10.416a271.57 271.57 0 01-5.663 3.017c-1.349.69-2.106 1.05-2.128 1.008-.024-.043.69-.483 1.999-1.245l5.552-3.208 18.317-10.588 18.276-10.654 5.54-3.23c1.311-.759 2.048-1.159 2.074-1.119M742.132 137.524c.024.04-.664.519-1.933 1.35-1.27.826-3.122 1.998-5.428 3.42-4.61 2.845-11.034 6.682-18.18 10.833-7.151 4.148-13.67 7.824-18.427 10.414a263.714 263.714 0 01-5.661 3.019c-1.351.69-2.107 1.05-2.13 1.007-.022-.042.691-.483 1.999-1.244l5.552-3.21 18.319-10.586 18.276-10.655 5.54-3.23c1.309-.758 2.046-1.16 2.073-1.118"/><path fill="#fff" d="M816.592 181.725c.02.014-.204.348-.648.975-.44.628-1.09 1.557-2.061 2.65-1.887 2.217-4.918 5.237-9.322 8.078-4.386 2.83-10.21 5.393-17.061 6.527a41.72 41.72 0 01-10.845.317c-3.762-.345-7.568-1.304-11.366-2.495-7.592-2.45-14.478-5.634-21.05-7.598-6.539-2.034-12.791-2.61-17.928-2.056-5.158.544-9.079 2.286-11.479 3.878-1.188.82-2.081 1.508-2.627 2.044-.565.514-.872.775-.89.759-.016-.016.256-.31.794-.86.518-.572 1.391-1.301 2.572-2.167 2.382-1.682 6.347-3.528 11.574-4.142 5.206-.626 11.549-.091 18.168 1.932 6.637 1.946 13.546 5.12 21.077 7.549 3.767 1.18 7.525 2.132 11.225 2.479 3.692.384 7.303.258 10.675-.272 6.756-1.083 12.527-3.564 16.899-6.31 4.389-2.757 7.445-5.693 9.381-7.841.996-1.057 1.677-1.956 2.152-2.556.479-.597.741-.905.76-.89M788.935 119.067c.029.04-.52.468-1.538 1.213-1.01.755-2.534 1.763-4.469 2.924-1.928 1.172-4.307 2.432-7.013 3.692a82.573 82.573 0 01-9.064 3.483 82.949 82.949 0 01-9.436 2.298c-2.944.504-5.616.823-7.87.958-2.25.146-4.077.185-5.338.138-1.26-.032-1.955-.072-1.954-.121 0-.048.696-.097 1.95-.148 1.256-.037 3.07-.152 5.302-.359 2.234-.196 4.88-.562 7.794-1.098a90.583 90.583 0 009.344-2.331 90.632 90.632 0 009.008-3.403c2.7-1.218 5.084-2.424 7.032-3.533 1.953-1.101 3.51-2.04 4.564-2.724 1.06-.673 1.661-1.028 1.688-.99M716.045 278.985c-.034.035-.517-.388-1.377-1.166l-3.653-3.271c-3.112-2.727-7.524-6.377-12.698-9.985-2.584-1.798-5.172-3.323-7.682-4.343-2.507-1.032-4.924-1.525-6.966-1.627-4.128-.22-6.52 1.044-6.549.886-.01-.022.13-.103.408-.236a9.52 9.52 0 011.253-.486c1.112-.357 2.802-.709 4.907-.654 2.099.04 4.601.497 7.183 1.522 2.588 1.014 5.234 2.554 7.842 4.367a118.066 118.066 0 0112.63 10.19 85.484 85.484 0 013.513 3.443c.803.839 1.223 1.327 1.19 1.36M827.007 303.915c.016.017-.143.178-.459.47-.324.283-.775.734-1.424 1.23-1.261 1.037-3.2 2.416-5.77 3.821-5.087 2.823-13.087 5.485-22.094 4.941-9.01-.553-16.627-4.168-21.333-7.589-2.382-1.705-4.138-3.31-5.264-4.493-.584-.571-.978-1.072-1.264-1.394-.279-.326-.416-.505-.398-.521.043-.04.67.61 1.851 1.723 1.177 1.116 2.965 2.648 5.355 4.284 4.725 3.278 12.245 6.753 21.096 7.297 8.846.535 16.732-2.003 21.821-4.681 2.57-1.335 4.532-2.638 5.836-3.604 1.307-.96 2.008-1.53 2.047-1.484M877.341 382.03s-.166-.182-.465-.558c-.312-.399-.747-.956-1.308-1.677-1.084-1.523-2.948-3.564-5.465-6.054l-2.096-1.862c-.368-.327-.746-.66-1.131-1.003l-1.272-.94c-.867-.643-1.77-1.31-2.71-2.005l-3.1-1.911c-4.338-2.53-9.59-4.941-15.717-6.559-6.116-1.596-13.104-2.446-20.518-1.789-7.411.619-15.183 2.88-22.482 6.963-7.288 4.14-14.094 9.782-21.356 15.338-3.636 2.774-7.421 5.52-11.526 7.906-4.095 2.384-8.532 4.398-13.279 5.582-4.739 1.235-9.628 1.475-14.361 1.162-4.748-.316-9.344-1.331-13.746-2.616-8.822-2.598-16.792-6.55-24.25-10.398-7.464-3.857-14.52-7.6-21.427-10.412-6.892-2.809-13.625-4.761-19.927-5.356-6.3-.585-12.078-.013-16.932 1.279-4.877 1.24-8.796 3.236-11.69 5.26-2.947 1.988-4.74 4.123-5.994 5.493-.545.731-.968 1.296-1.272 1.7-.289.382-.453.568-.453.568s.124-.212.395-.608c.292-.416.698-.997 1.221-1.749 1.223-1.404 2.997-3.585 5.945-5.625 2.896-2.075 6.835-4.127 11.748-5.414 4.888-1.34 10.715-1.953 17.079-1.393 6.372.57 13.159 2.51 20.097 5.313 6.952 2.803 14.036 6.536 21.503 10.375 7.46 3.83 15.396 7.747 24.15 10.313 4.366 1.271 8.917 2.271 13.602 2.582 4.672.304 9.484.069 14.143-1.148 4.669-1.166 9.045-3.147 13.101-5.506 4.065-2.36 7.83-5.086 11.461-7.849 7.251-5.535 14.091-11.192 21.452-15.355 1.86-.997 3.696-1.989 5.619-2.736.952-.39 1.879-.828 2.833-1.173.97-.304 1.93-.607 2.884-.904 3.823-1.201 7.683-1.785 11.414-2.165 7.492-.639 14.536.249 20.69 1.889 6.168 1.66 11.444 4.12 15.79 6.699l3.105 1.946c.939.708 1.844 1.388 2.71 2.042.434.325.857.644 1.271.956l1.126 1.02 2.088 1.897c2.5 2.53 4.337 4.608 5.388 6.163l1.254 1.721c.28.39.408.599.408.599M845.272 442.839c.008.021-.213.113-.644.27l-1.896.65c-.823.288-1.839.61-3.044.894-1.201.296-2.556.696-4.097.947-.768.144-1.57.295-2.404.45-.838.15-1.722.227-2.63.35-1.816.273-3.774.357-5.833.49-4.123.13-8.668-.03-13.388-.68-4.715-.702-9.125-1.826-13.044-3.11-1.939-.704-3.796-1.336-5.461-2.108-.839-.373-1.664-.696-2.426-1.076-.757-.384-1.485-.752-2.182-1.107-1.408-.672-2.595-1.438-3.666-2.06a29.93 29.93 0 01-2.669-1.712l-1.636-1.157c-.37-.27-.556-.421-.544-.441.015-.02.228.093.623.326l1.704 1.044c.729.471 1.629 1.03 2.718 1.605 1.083.586 2.279 1.318 3.692 1.958.699.339 1.428.69 2.187 1.059.761.364 1.587.671 2.423 1.03 1.662.744 3.512 1.35 5.438 2.033 3.898 1.238 8.27 2.333 12.94 3.027 4.678.645 9.18.823 13.267.728 2.043-.113 3.987-.174 5.79-.421.903-.11 1.782-.172 2.615-.308l2.396-.403c1.535-.217 2.89-.582 4.092-.84 1.21-.246 2.23-.53 3.06-.777l1.931-.524c.444-.113.68-.161.688-.137"/><path fill="#33535f" d="M567.61 247.555l-9.338-1.46-57.83-18.652-33.82-9.772c-7.905-2.731-18.15-3.674-29.265 1.992-15.976 8.142-60.073 49.178-60.073 49.178l31.748 32.731-14.955 66.24c16.736 47.58 49.499 53.03 49.499 53.03s21.525 1.931 46.933-7.76c30.424-11.603 62.363-38.791 66.362-50.482 2.401-7.02 4.381-21.757 5.957-38.412l48.165-19.632 13.051-66.625-56.433 9.624"/><path fill="#17282f" d="M497.268 365.47c.015.02-.147.16-.467.414-.328.243-.786.639-1.44 1.057-1.276.884-3.226 2.026-5.79 3.111-5.067 2.188-12.97 3.83-21.364 2.008-8.392-1.843-14.891-6.632-18.584-10.732-1.878-2.055-3.175-3.908-3.964-5.243-.422-.652-.674-1.202-.87-1.56-.186-.362-.273-.56-.253-.57.053-.03.492.706 1.35 1.985.853 1.28 2.197 3.067 4.094 5.05 3.736 3.962 10.157 8.587 18.376 10.391 8.22 1.786 15.983.259 21.03-1.784 2.553-1.013 4.52-2.077 5.829-2.884 1.313-.804 2.018-1.29 2.053-1.242M478.976 230.19c.012 0 .048.106.105.318l.235.944c.204.832.481 2.063.82 3.652.64 3.183 1.603 7.812 1.904 13.643.12 2.91.065 6.132-.547 9.525-.608 3.384-1.808 6.933-3.798 10.272-2.006 3.332-4.778 6.368-7.908 9.159-3.136 2.798-6.604 5.397-10.135 8.078-7.51 5.648-14.83 10.754-21.37 15.39-6.551 4.621-12.311 8.794-16.926 12.285l-.147.112-.14-.113c-4.122-3.338-7.246-6.218-9.261-8.334-1.003-1.06-1.721-1.937-2.168-2.558-.23-.304-.365-.566-.47-.728-.102-.168-.147-.258-.138-.263.025-.015.248.316.713.912.478.59 1.22 1.43 2.246 2.46 2.06 2.048 5.225 4.868 9.368 8.143l-.287-.002c4.577-3.55 10.313-7.776 16.843-12.432 6.52-4.668 13.821-9.788 21.32-15.426 3.524-2.678 6.992-5.271 10.1-8.031 3.104-2.757 5.837-5.733 7.812-8.984 1.961-3.255 3.157-6.719 3.78-10.044.626-3.332.712-6.515.622-9.401-.237-5.786-1.121-10.419-1.68-13.611l-.689-3.675c-.068-.388-.124-.701-.168-.958-.036-.216-.047-.33-.036-.332M730.075 260.21c13.544-11.607 18.122-32.497 10.677-48.703-6.359-.658-12.717-1.312-19.073-1.97 9.681-5.085 15.517-16.634 13.868-27.446-10.286 11.096-28.079 14.373-41.64 7.668-8.911-4.406-16.131-12.603-25.92-14.323-8.883-1.56-17.618 2.605-26.115 5.627-8.496 3.024-18.805 4.688-25.844-.95-5.581-4.469-7.31-12.301-6.948-19.441.363-7.14 2.427-14.107 2.868-21.243.867-14.006-5.201-28.106-15.448-37.622-3.21-10.166-10.913-18.92-20.757-23.078-11.924-5.033-26.494-3.132-36.726 4.794-4.17 3.23-7.696 7.393-12.425 9.732-5.34 2.641-11.559 2.638-17.343 4.064-5.785 1.426-11.857 5.256-12.478 11.182l-2.328 12.148c-.392.87-.804 1.73-1.278 2.56-4.916 8.622-14.969 14.291-17.165 23.97-1.232 5.428.297 11.302-1.532 16.558-2.41 6.916-9.879 10.808-13.356 17.252-4.777 8.851-1.535 24.351 6.1 30.895 7.637 6.544 23.393 13.468 33.23 15.559 2.666-10.226 5.022-21.158 7.311-32.348 4.011 3.85 8.216 7.525 12.4 11.158 10.959 9.515 22.142 19.188 29.742 31.552 14.441 23.498 14.685 54.638 32.864 75.379 3.564 4.068 7.89 7.688 13.066 9.256 5.176 1.568 11.31.737 15.138-3.08 4.516-4.505 5.1-12.103 10.098-16.067 6.643-5.266 16.35-1.064 23.491 3.504 5.17 3.308 10.337 6.806 16.201 8.618 5.863 1.812 12.672 1.694 17.66-1.883 4.986-3.579 7.175-11.197 3.579-16.17-1.439-1.989-3.59-3.377-5.016-5.374-1.424-1.997-1.839-5.159.113-6.645 2.158-1.643 5.178-.058 7.514 1.317 11.398 6.708 25.841 7.981 38.237 3.372 12.396-4.61 22.496-15.012 26.741-27.537a37.118 37.118 0 01-19.506-2.286"/><path fill="#17282f" d="M718.201 155.57s.648.445 1.726 1.474c1.054 1.04 2.606 2.657 3.928 5.188a14.821 14.821 0 011.465 4.493c.245 1.712.152 3.684-.647 5.575-.769 1.88-2.122 3.724-4.1 4.972-.982.62-2.128 1.073-3.364 1.21-1.233.146-2.529-.057-3.73-.54-4.948-2.018-7.432-7.737-12.784-10.286-5.216-2.759-11.883-2.947-18.287-1.481-6.479 1.482-12.647 4.949-18.955 8.49-6.297 3.526-13.016 7.343-20.736 8.668-3.817.7-7.744.743-11.466-.078a22.104 22.104 0 01-5.304-1.971c-1.659-.89-3.146-2.04-4.476-3.316-2.64-2.596-4.488-5.8-5.742-9.088-1.264-3.299-1.966-6.699-2.353-10.032-.707-6.696-.147-13.056-.083-18.972.123-5.913-.229-11.46-1.617-16.29a37.34 37.34 0 00-2.543-6.678 38.56 38.56 0 00-3.233-5.501 41.008 41.008 0 00-6.82-7.606c-2.121-1.854-3.976-3.028-5.21-3.845l-1.453-.86c-.326-.197-.49-.303-.485-.313.005-.011.181.074.519.252.364.194.858.461 1.49.8 1.263.784 3.151 1.926 5.314 3.761 2.168 1.817 4.629 4.3 6.962 7.587a38.525 38.525 0 013.312 5.529 37.684 37.684 0 012.619 6.74c1.439 4.887 1.82 10.497 1.72 16.432-.041 5.936-.572 12.29.145 18.892.39 3.288 1.09 6.637 2.335 9.867 1.236 3.22 3.044 6.333 5.599 8.838 1.288 1.234 2.724 2.342 4.325 3.199a21.512 21.512 0 005.132 1.901c3.61.794 7.445.756 11.192.068 7.575-1.297 14.217-5.054 20.525-8.577 6.314-3.532 12.535-7.023 19.142-8.521 3.28-.723 6.582-1.083 9.77-.826 1.6.08 3.152.398 4.662.754 1.485.448 2.948.929 4.266 1.666 5.527 2.711 8.018 8.452 12.702 10.34 2.277.991 4.817.615 6.677-.588 1.892-1.172 3.217-2.94 3.973-4.746.788-1.818.896-3.703.679-5.382a14.683 14.683 0 00-1.38-4.416c-1.261-2.51-2.767-4.145-3.784-5.209-.519-.53-.93-.919-1.212-1.172-.281-.257-.421-.393-.415-.403M500.245 232.535s-.049-.204-.112-.603c-.062-.399-.121-.997-.354-1.75-.395-1.507-1.314-3.697-3.276-5.947-1.984-2.211-4.95-4.464-8.842-6.144-3.866-1.767-8.657-2.634-13.917-3.622-5.213-1.025-11.205-2.109-16.564-5.686-5.272-3.556-9.484-9.615-10.567-16.752-1.086-7.092 1.199-15.067 6.647-20.731 5.516-5.664 13.32-8.47 19.697-13.45 1.567-1.278 3.002-2.687 4.195-4.273 1.121-1.628 2.04-3.388 2.559-5.274 1.06-3.786.972-7.748 1.333-11.602.179-1.929.465-3.857 1.068-5.694a14.224 14.224 0 012.808-4.98c2.59-2.843 6.14-4.34 9.539-5.311 3.426-.995 6.83-1.616 10.052-2.504 3.212-.892 6.241-2.095 8.777-3.927 2.575-1.766 4.71-3.941 6.584-6.158 1.88-2.223 3.479-4.527 4.964-6.75 2.945-4.461 5.467-8.63 8.15-11.961 2.637-3.36 5.32-5.939 7.78-7.676 2.446-1.764 4.631-2.69 6.138-3.159 1.508-.481 2.336-.588 2.336-.588.013.048-.81.2-2.29.722-1.483.508-3.627 1.464-6.027 3.244-2.411 1.754-5.04 4.334-7.631 7.696-2.639 3.332-5.116 7.497-8.045 11.994-1.479 2.239-3.075 4.566-4.963 6.822-1.885 2.25-4.044 4.47-6.667 6.288-2.585 1.881-5.701 3.133-8.942 4.041-3.252.907-6.658 1.539-10.035 2.53-3.359.966-6.773 2.437-9.225 5.138a13.547 13.547 0 00-2.663 4.75c-.577 1.762-.856 3.642-1.03 5.546-.358 3.805-.254 7.8-1.346 11.727-.539 1.961-1.496 3.804-2.663 5.496-1.238 1.646-2.72 3.098-4.324 4.405-3.257 2.553-6.833 4.497-10.25 6.515-3.419 2.009-6.724 4.142-9.39 6.866-5.298 5.49-7.546 13.267-6.502 20.163 1.033 6.945 5.126 12.883 10.256 16.37 5.209 3.513 11.129 4.629 16.333 5.68 5.245 1.018 10.08 1.927 13.983 3.749 3.922 1.734 6.905 4.049 8.888 6.322 1.961 2.312 2.853 4.556 3.208 6.091.212.767.249 1.372.288 1.776.04.404.042.61.042.61"/><path fill="#33535f" d="M606.7 112.84c-.016.045-.38-.05-1.025-.26-.648-.204-1.563-.568-2.666-1.076-2.206-1.013-5.133-2.733-7.958-5.157-2.819-2.432-4.958-5.07-6.288-7.1-.668-1.015-1.164-1.864-1.46-2.475-.307-.607-.454-.952-.412-.975.1-.056.854 1.235 2.274 3.168a42.304 42.304 0 006.339 6.855 42.203 42.203 0 007.724 5.244c2.123 1.116 3.513 1.668 3.472 1.776M651.021 203.781c-.02.062-.836-.205-2.344-.532-1.506-.33-3.716-.672-6.47-.793-2.755-.121-6.042.007-9.69.275-3.648.258-7.674.63-11.93.537-4.247-.104-8.335-.753-11.768-2.212-3.424-1.456-6.112-3.599-7.894-5.765-1.785-2.178-2.681-4.331-3.034-5.85-.168-.766-.268-1.362-.279-1.776-.03-.409-.036-.624-.012-.626.083-.01.12.857.552 2.33.425 1.47 1.367 3.527 3.15 5.606 1.78 2.066 4.423 4.109 7.765 5.49 3.341 1.384 7.346 2.007 11.537 2.108 4.203.094 8.212-.257 11.872-.481 3.659-.233 6.977-.312 9.757-.127 2.78.186 5.008.606 6.508 1.022.75.212 1.326.392 1.707.544.384.142.581.228.573.25M729.604 264.413c.004.011-.127.07-.387.176-.261.107-.648.274-1.19.38-1.062.252-2.75.384-4.774-.214-2.004-.611-4.32-1.899-6.398-4.046-2.134-2.121-3.714-5.201-5.142-8.624-1.458-3.414-2.674-7.342-5.054-10.965-1.114-1.856-2.626-3.524-4.234-5.165-1.706-1.54-3.548-3.051-5.656-4.278-8.373-5.045-19.37-7.113-30.601-6.456-11.29.592-21.913 2.806-31.74 3.492-9.81.882-18.828-.205-25.873-2.673-7.09-2.425-12.051-6.21-14.831-9.292-.739-.739-1.285-1.49-1.775-2.125a12.888 12.888 0 01-1.153-1.666l-.648-1.064c-.141-.242-.21-.369-.199-.374.011-.007.099.108.26.337l.704 1.024c.294.46.676 1.013 1.2 1.617.502.619 1.06 1.348 1.807 2.066 2.817 2.996 7.757 6.67 14.793 9.013 7.004 2.383 15.91 3.41 25.667 2.499 9.772-.715 20.385-2.95 31.755-3.548 11.325-.66 22.465 1.438 30.968 6.604 2.138 1.257 4.013 2.804 5.746 4.384 1.635 1.681 3.168 3.394 4.295 5.297 2.41 3.721 3.601 7.681 5.023 11.085 1.393 3.419 2.913 6.448 4.968 8.543 2.008 2.127 4.252 3.42 6.197 4.056 1.965.623 3.612.54 4.665.336 1.068-.197 1.588-.473 1.607-.419"/><path fill="#f8a58d" d="M519.89 112.832a9.966 9.966 0 00-10.162 8.857l-10.784 112.286c-1.864 15.788 18.787 49.638 35.707 51.505 17.089 1.885 18.758-6.395 20.978-21.356 3.711-24.996 4.94-34.4 4.931-34.256 0 0 22.004-.739 30.165-28.245 4.059-13.679 6.374-36.679 7.66-55.56 1.159-16.994-7.285-39.143-24.312-39.578l-54.184 6.347"/><path fill="#17282f" d="M590.95 160.96c-.183 1.912-1.953 3.332-3.953 3.177-1.996-.154-3.468-1.825-3.286-3.737.184-1.912 1.954-3.335 3.949-3.18 2 .155 3.475 1.828 3.29 3.74M592.476 153.696c-.417.504-3.305-1.337-7.207-1.056-3.9.225-6.622 2.43-7.078 1.983-.223-.198.174-1.083 1.358-2.076 1.164-.99 3.198-2.014 5.628-2.172 2.43-.156 4.536.596 5.775 1.43 1.264.838 1.73 1.664 1.524 1.891M556.643 162.99c-.464.46-3.163-1.655-7.068-1.755-3.904-.156-6.83 1.773-7.24 1.284-.202-.219.276-1.062 1.556-1.935 1.254-.87 3.376-1.692 5.81-1.613 2.436.082 4.458 1.036 5.61 1.986 1.173.958 1.558 1.826 1.332 2.032M563.924 183.636c.01-.223 2.476-.323 6.447-.307 1.004.027 1.968-.045 2.222-.698.328-.686.055-1.807-.274-3.023-.615-2.517-1.258-5.157-1.935-7.924-2.65-11.268-4.432-20.483-3.977-20.585.454-.102 2.973 8.948 5.624 20.217.63 2.775 1.234 5.421 1.806 7.953.228 1.174.703 2.536.003 3.954-.364.704-1.161 1.145-1.819 1.232-.66.11-1.218.048-1.712.013-3.957-.307-6.398-.61-6.385-.832"/><path fill="#f68260" d="M560.56 229.868s-19.06-1.27-36.303-14.992c0 0 6.947 20.567 35.412 21.641l.891-6.649"/><path fill="#17282f" d="M557.19 156.307c-.618.946-4.306-.434-8.9-.942-4.583-.598-8.49-.134-8.867-1.201-.16-.507.696-1.333 2.386-1.995 1.679-.662 4.206-1.074 6.956-.745 2.752.333 5.107 1.333 6.58 2.377 1.484 1.044 2.12 2.051 1.844 2.506M591.897 148.456c-.641.921-3.378.139-6.616.261-3.242.008-5.945.902-6.622.006-.299-.438.086-1.347 1.241-2.247 1.136-.897 3.075-1.683 5.3-1.73 2.227-.043 4.195.663 5.367 1.514 1.189.853 1.612 1.748 1.33 2.196"/><path fill="#f68260" d="M554.484 190.715a8.338 8.338 0 016.11-1.276c1.074.198 2.149.641 2.847 1.478.919 1.098 1.031 2.646.994 4.075-.022.859-.086 1.73-.38 2.536-.295.807-.848 1.55-1.63 1.907-.804.366-1.734.284-2.608.138-1.452-.242-2.905-.656-4.12-1.489-1.213-.833-2.164-2.139-2.3-3.604-.137-1.467.68-3.045 2.064-3.548"/><path fill="#17282f" d="M565.005 199.284c-.286.1-.798-.748-1.737-1.916-.928-1.17-2.359-2.65-4.277-3.744-1.92-1.093-3.923-1.57-5.403-1.773-1.484-.211-2.473-.219-2.533-.518-.06-.261.87-.788 2.56-.954 1.665-.176 4.109.125 6.408 1.434 2.297 1.31 3.801 3.259 4.5 4.782.716 1.537.737 2.608.482 2.689M497.445 226.248c9.258-1.841 16.404-9.804 19.591-18.69 3.19-8.885 3.023-18.602 2.175-28.003-.11-1.212-.303-2.566-1.268-3.307-1.403-1.08-3.412-.201-4.924.72a156.542 156.542 0 00-16.767 11.79c-4.956 3.997-9.87 8.6-11.773 14.674-2.918 9.323 3.258 20.456 12.712 22.915"/><path fill="#f8a58d" d="M710.447 224.079l-43.706-70.244-12.072-24.716s-3.849-5.106-7.852-9.467c-6.568-7.161-13.053-1.596-13.053-1.596s-.94-2.737-4.385-2.705c-4.108.038-6.044 3.08-6.044 3.08s-1.787-1.99-6.747-2.295c-1.072-.067-2.132.348-3.141 1.013-1.62-1.428-4.606-3.488-7.474-2.442-2.242.817-15.829 11.146-19.173 16.349-1.653 2.568 1.419 5.908 5.548 4.344 1.813-.687 3.64-1.247 4.956-2.017 2.213-1.299 3.361-2.702 3.361-2.702s-3.425 6.003-.01 7.056c1.422.438 4.454.116 6.432-1.561 1.301-1.101 2.812-2.527 4.236-3.923l-.168.239c-1.894 2.799 3.044 6.948 5.436 5.264a35.488 35.488 0 003.189-2.525c5.547 4.026-2.157 9.184-5.41 8.918-5.035-.41-10.929-.392-15.04-.048-2.829.236-5.353.906-6.875 2.474-1.835 1.889.088 5.868 2.692 6.269 4.785.74 10.889 1.803 17.238 3.436 7.475 1.923 27.027 8.277 27.027 8.277l1.905 1.554 26.583 64.813-45.505 9.636-10.158 57.65 82.138-22.283c18.51-9.62 27.273-34.25 16.072-51.848"/><path fill="#f68260" d="M639.412 164.557c-.007.023-.367-.062-1.043-.248l-2.949-.84-10.805-3.213-7.451-2.252c-2.675-.825-5.539-1.681-8.581-2.455-3.042-.773-6.254-1.55-9.623-1.989-1.645-.255-3.487-.097-5.221-.941-.427-.21-.839-.486-1.175-.875-.163-.205-.31-.41-.397-.713l-.102-.712c-.101-.915-.124-1.879.174-2.83.304-.96 1.054-1.744 1.89-2.189.834-.46 1.703-.73 2.544-1.01 1.751-.557 3.547-.65 5.272-.646 3.463.047 6.732.525 9.854.399 1.554-.05 3.082-.187 4.525-.444 1.45-.263 2.843-.643 4.2-.991 2.699-.717 5.347-1.239 7.77-.99 2.411.2 4.507.878 6.265 1.594 1.762.719 3.204 1.499 4.369 2.145 1.164.652 2.044 1.198 2.64 1.567.592.373.899.58.887.601-.014.02-.342-.145-.958-.481-.673-.361-1.572-.844-2.697-1.45-1.18-.606-2.63-1.346-4.384-2.02-1.75-.675-3.816-1.303-6.16-1.466-2.348-.21-4.896.316-7.585 1.056-1.351.36-2.751.755-4.235 1.035-1.49.277-3.027.424-4.617.484-3.18.144-6.491-.324-9.878-.359-1.688-.001-3.424.101-5.054.624-1.632.532-3.492 1.11-3.99 2.759-.249.792-.24 1.673-.144 2.532l.084.618c.035.128.142.303.258.443.248.287.584.519.949.7 1.497.75 3.285.628 5.001.885 3.427.456 6.648 1.252 9.699 2.046 3.053.793 5.913 1.672 8.581 2.521 2.666.836 5.152 1.617 7.43 2.333l10.745 3.426 2.912.965c.663.228 1.008.359 1 .381M605.727 114.813c.069.11-2.06 1.343-5.206 3.727a53.647 53.647 0 00-5.229 4.527c-1.865 1.818-3.83 3.946-6.143 5.932-1.132.964-2.202 1.994-2.46 3.292-.133.632-.076 1.285.231 1.792.296.521.813.868 1.38 1.065 1.159.39 2.4.28 3.516.07a16.826 16.826 0 003.06-.878c3.647-1.479 5.321-3.415 5.41-3.285.029.026-.358.51-1.202 1.245-.841.73-2.173 1.692-4.021 2.493-.922.4-1.976.743-3.136.99-1.147.237-2.482.404-3.836-.028-.663-.22-1.344-.654-1.74-1.334-.415-.673-.484-1.513-.328-2.269.313-1.575 1.545-2.713 2.673-3.679 2.28-1.956 4.243-4.053 6.152-5.866a47.72 47.72 0 015.381-4.463 48.588 48.588 0 013.959-2.548c.968-.544 1.513-.824 1.539-.783"/><path fill="#f68260" d="M622.395 120.33c.034.033-.516.685-1.54 1.835-1.112 1.223-2.594 2.852-4.388 4.827l-6.574 7.097c-1.264 1.358-2.774 2.62-4.617 3.523-.921.433-1.953.77-3.056.761-1.09-.024-2.244-.346-3.072-1.226-.435-.458-.648-1.074-.728-1.664a5.13 5.13 0 01.179-1.714c.312-1.08.808-2.029 1.413-2.914l.01-.015.023-.024c2.351-2.5 4.539-4.845 6.507-7.003 1.999-2.122 3.921-3.856 5.481-5.328.779-.729 1.495-1.429 2.28-1.836.82-.418 1.574-.397 2.162-.469 1.174-.083 1.872.024 1.812.15.021-.047-.624-.065-1.79.086-.566.101-1.332.139-2.017.533-.71.404-1.376 1.094-2.14 1.854-1.525 1.518-3.404 3.282-5.356 5.414a406.388 406.388 0 01-6.455 7.076l.032-.04c-.544.803-1.025 1.732-1.296 2.698a4.46 4.46 0 00-.154 1.462c.07.468.222.923.552 1.267.614.672 1.633.99 2.562 1.003.956.012 1.899-.284 2.762-.687 1.725-.833 3.214-2.05 4.436-3.341l6.684-6.998 4.55-4.677 1.263-1.248c.295-.28.457-.419.475-.403M642.821 126.764c.071.05-.062.407-.525.777-.45.367-1.279.706-2.21.546-.931-.166-1.597-.766-1.895-1.263-.312-.505-.316-.885-.234-.91.098-.034.266.257.62.607.344.352.918.756 1.627.882.71.122 1.385-.066 1.83-.278.451-.21.709-.426.787-.361"/><path fill="#f68260" d="M644.423 132.88c-.146.117-1.147-.887-2.027-2.38-.885-1.492-1.281-2.853-1.108-2.923.181-.076.848 1.124 1.705 2.57.852 1.448 1.584 2.61 1.43 2.733M647.368 156.721c-.07.034-.664-.981-1.263-2.777-.601-1.79-1.129-4.39-1.096-7.29.044-2.9.64-5.486 1.291-7.26.645-1.78 1.267-2.777 1.336-2.742.223.07-1.895 4.32-1.932 10.01-.115 5.689 1.888 9.994 1.664 10.06M683.263 249.105c-.128.015-.26-1.414-.956-3.585-.338-1.087-.874-2.336-1.578-3.66a24.142 24.142 0 00-2.789-3.992 24.1 24.1 0 00-3.6-3.283c-1.223-.869-2.392-1.561-3.427-2.037-2.061-.97-3.461-1.285-3.43-1.412.01-.047.365.003 1.002.132.643.115 1.547.393 2.628.832 1.086.43 2.316 1.096 3.598 1.963a22.376 22.376 0 013.752 3.346 22.418 22.418 0 012.832 4.151c.694 1.381 1.196 2.688 1.481 3.821.297 1.127.456 2.062.487 2.712.046.65.048 1.007 0 1.012"/><path fill="#f8a58d" d="M530.757 377.52c-5.829-1.212-11.098 1.416-11.098 1.416-5.938-2.63-13.252 1.904-13.252 1.904-2.151-1.027-15.084 7.423-15.084 7.423l-16.114 7.602-86.04-63.926 24.39-25.371-34.171-35.559-40.06 41.208c-4.992 5.14-7.512 12.09-7.985 19.394-1.016 15.661 7.916 30.296 21.914 37.39L454.64 421s10.749-.374 23.049-3.584c8.747-2.284 23.696-8.919 23.696-8.919s-.041.453 2.63 5.632c4.81 9.324 11.873-.735 11.873-.735s1.444 3.302 2.737 4.555c6.09 5.907 10.316-2.028 10.316-2.028s1.83 3.184 7.276.817c5.43-2.358-.785-18.748-.785-18.748s1.824 3.563 5.361-.946c3.537-4.511-4.204-18.311-10.035-19.523"/><path fill="#f68260" d="M518.587 379.753c-.012-.026.362-.245 1.116-.428.746-.198 1.916-.26 3.266.098 1.35.352 2.856 1.098 4.311 2.202.73.559 1.448 1.163 2.143 1.915.677.765 1.208 1.67 1.677 2.604a65.039 65.039 0 013.94 9.877c.395 1.303.672 2.37.836 3.111.165.744.227 1.16.183 1.173-.102.027-.583-1.58-1.484-4.13-.903-2.547-2.262-6.032-4.094-9.719-.458-.91-.957-1.764-1.569-2.468-.624-.688-1.339-1.313-2.023-1.856-1.382-1.09-2.794-1.845-4.054-2.237-2.571-.807-4.23.034-4.248-.142M528.94 415.92c-.045.019-.304-.51-.748-1.476l-1.884-4.087c-1.585-3.453-3.908-8.165-6.125-13.545-1.086-2.695-2.068-5.272-3.502-7.287-1.394-2.033-3.258-3.36-4.948-4.126-1.698-.78-3.248-.898-4.272-.763-1.033.139-1.566.417-1.594.35-.01-.022.116-.098.37-.226.25-.136.65-.281 1.182-.39 1.057-.227 2.709-.18 4.508.58a12.216 12.216 0 015.274 4.205c1.524 2.081 2.547 4.72 3.623 7.394 2.207 5.348 4.46 10.099 5.93 13.61a96.842 96.842 0 011.687 4.181c.368 1 .543 1.563.499 1.58M489.453 395.35c-.02-.043.47-.314 1.372-.766l3.847-1.852c.824-.38 1.69-.81 2.692-1.24a7.53 7.53 0 013.455-.503c1.234.123 2.522.558 3.614 1.382 1.098.842 1.912 1.968 2.648 3.154.73 1.194 1.303 2.428 1.871 3.584a72.436 72.436 0 001.736 3.29c1.16 2.073 2.253 3.928 3.063 5.55.818 1.614 1.376 2.975 1.708 3.931.336.955.466 1.5.428 1.513-.118.043-.835-2.074-2.572-5.217-.855-1.575-1.986-3.392-3.183-5.461a63.11 63.11 0 01-1.79-3.303c-.583-1.168-1.146-2.37-1.854-3.524-.703-1.143-1.5-2.228-2.464-2.975-.98-.749-2.141-1.158-3.27-1.288a7.079 7.079 0 00-3.183.404c-.955.383-1.874.806-2.698 1.151l-3.937 1.652c-.936.375-1.461.563-1.483.517M491.323 388.263c.021.042-.399.305-1.176.744-.778.438-1.911 1.053-3.322 1.798a667.118 667.118 0 01-11.076 5.7 650.594 650.594 0 01-11.17 5.516c-1.438.691-2.607 1.238-3.423 1.6-.815.364-1.276.544-1.297.499-.022-.041.397-.303 1.176-.74.777-.437 1.913-1.05 3.322-1.796a675.206 675.206 0 0111.079-5.699 674.528 674.528 0 0111.17-5.518c1.435-.69 2.605-1.238 3.42-1.602.814-.365 1.275-.545 1.297-.502M390.315 332.075c-.036.228-4.552-1.03-10.16-.332-5.618.63-9.714 2.908-9.802 2.694-.04-.07.923-.729 2.643-1.486 1.715-.762 4.219-1.555 7.077-1.898 2.859-.334 5.479-.146 7.324.192 1.851.336 2.94.754 2.918.83"/><path fill="#17282f" d="M580.339 101.113a268.499 268.499 0 00-63.368 6.691c-4.814 1.097-9.904 2.51-13.16 6.221-3.446 3.927-4.054 9.515-4.504 14.719-.551 6.333-1.1 12.667-1.65 19a43.293 43.293 0 01-3.034 4.528c-5.015 6.548-11.4 12.007-15.959 18.879-4.56 6.872-7.077 15.994-3.364 23.357 2.245 4.455 6.407 7.593 9.448 11.548 5.157 6.704 6.84 15.35 9.856 23.252 3.016 7.901 8.45 15.961 16.759 17.548 3.958.757 8.074-.083 12.062.501 5.963.872 10.97 4.778 15.715 8.491 4.745 3.715 9.876 7.515 15.872 8.11 5.996.597 12.864-3.462 12.99-9.487-4.403 2.554-10.245 2.39-14.497-.407-3.494-2.299-5.748-6.032-8.75-8.945-7.366-7.144-19.24-9.411-24.366-18.302-4.053-7.033-2.445-15.837-.605-23.744 1.595-6.857 3.21-14.289 1.235-20.873.149-1.06.236-2.128.244-3.199.05-7.014-2.728-14.532.538-20.74 4.318-8.206 16.774-9.241 21.139-17.425 2.536-4.756 1.647-10.837 4.419-15.46 2.606-4.347 7.816-6.353 12.77-7.43 4.954-1.075 10.178-1.574 14.556-4.126 4.38-2.552 7.632-8.04 5.654-12.707"/><path fill="#17282f" d="M596.493 244.172c.01.007-.058.117-.202.33l-.654.927c-.6.796-1.594 1.898-3.068 3.103-1.492 1.175-3.521 2.385-6.084 3.265-2.552.878-5.666 1.415-9.073 1.054-3.397-.286-7.077-1.66-10.21-4.184-3.177-2.443-6.005-5.675-9.589-8.259-1.794-1.263-3.854-2.281-6.109-2.565-2.265-.319-4.57.332-6.796 1.233-2.235.881-4.497 2.019-7.06 2.436-2.57.45-5.263-.18-7.593-1.35-2.358-1.16-4.422-2.718-6.408-4.253-1.982-1.546-3.93-3.108-5.628-4.89-1.703-1.766-3.175-3.771-4.002-6.034-.874-2.249-.914-4.712-.454-6.926.441-2.236 1.254-4.286 2.013-6.258a87.126 87.126 0 002.028-5.786 79.294 79.294 0 002.467-10.722 78.831 78.831 0 00.861-15.905 78.077 78.077 0 00-.304-4.333l-.099-1.127c-.018-.255-.022-.385-.01-.387.012-.002.038.127.08.378l.168 1.12c.145.985.309 2.445.434 4.333.259 3.77.338 9.284-.645 15.996a78 78 0 01-2.4 10.813 86.625 86.625 0 01-2.01 5.839c-.749 1.976-1.54 4.003-1.955 6.16-.432 2.144-.384 4.444.449 6.576.788 2.141 2.203 4.07 3.868 5.79 1.661 1.738 3.587 3.28 5.563 4.817 1.978 1.529 4.013 3.057 6.289 4.174 2.256 1.13 4.77 1.711 7.18 1.292 2.42-.388 4.65-1.492 6.919-2.385 2.246-.908 4.709-1.607 7.125-1.259 2.403.308 4.561 1.398 6.399 2.7 3.662 2.668 6.462 5.91 9.574 8.327 3.055 2.49 6.582 3.835 9.907 4.15 3.323.386 6.381-.105 8.9-.933 2.528-.829 4.544-1.985 6.041-3.112 2.975-2.313 3.992-4.232 4.088-4.145"/><path fill="#33535f" d="M463.283 201.768s-.419-.47-1.071-1.47c-.627-1.013-1.417-2.625-1.887-4.858-.485-2.225-.541-5.07.132-8.24.706-3.145 2.111-6.656 4.615-9.888 2.455-3.256 5.784-6.285 9.623-9.101 3.826-2.847 8.17-5.498 12.504-8.591 4.289-3.112 8.696-6.704 11.866-11.53 1.602-2.389 2.739-5.106 3.598-7.955.861-2.855 1.446-5.842 2.137-8.85.676-3.01 1.459-5.997 2.696-8.78 1.204-2.79 2.98-5.321 5.24-7.244 2.248-1.926 4.877-3.286 7.563-4.162 2.684-.903 5.425-1.372 8.105-1.603 5.377-.464 10.468.13 15.193.481 4.728.388 9.151.606 13.15.172 4-.389 7.488-1.589 10.302-3.07 2.799-1.523 4.926-3.335 6.315-5.094 1.404-1.749 2.156-3.352 2.553-4.462.379-1.119.518-1.732.555-1.723 0 0-.084.623-.424 1.768-.357 1.136-1.077 2.781-2.473 4.585-1.379 1.814-3.516 3.687-6.34 5.267a28.14 28.14 0 01-10.435 3.216c-4.047.472-8.51.279-13.247-.084-4.736-.33-9.802-.893-15.093-.419-2.64.235-5.33.707-7.95 1.595-2.622.861-5.165 2.19-7.331 4.048-2.172 1.857-3.879 4.29-5.052 7.01-1.204 2.713-1.976 5.654-2.651 8.653-.687 2.997-1.277 5.997-2.152 8.894-.872 2.89-2.047 5.688-3.69 8.132-3.258 4.935-7.737 8.558-12.062 11.676-4.375 3.099-8.721 5.724-12.537 8.532-3.828 2.779-7.131 5.75-9.572 8.938-2.487 3.154-3.896 6.585-4.627 9.673-.696 3.11-.683 5.907-.245 8.104.884 4.447 2.849 6.32 2.692 6.38"/><path fill="#33535f" d="M467.188 208.77s-1.652-1.193-4.1-3.926c-1.193-1.377-2.615-3.177-3.559-5.647-.46-1.228-.76-2.654-.609-4.166.137-1.508.755-3.054 1.8-4.371 2.155-2.643 5.73-4.067 9.479-4.855 1.888-.397 3.848-.702 5.817-1.186 1.96-.483 3.955-1.158 5.681-2.362 1.712-1.224 3.106-2.929 4.134-4.9 1.048-1.964 1.785-4.146 2.556-6.36.77-2.214 1.55-4.502 2.718-6.677 1.132-2.181 2.827-4.184 5.006-5.535 2.176-1.352 4.59-2.096 6.942-2.709 2.359-.608 4.694-1.104 6.894-1.85 4.454-1.397 7.95-4.457 10.589-7.8 2.677-3.347 4.639-6.957 6.57-10.273 1.92-3.324 3.831-6.388 5.986-8.878 2.123-2.515 4.521-4.387 6.847-5.584 2.328-1.208 4.556-1.766 6.388-1.928 1.84-.143 3.276.078 4.204.345.932.255 1.386.484 1.386.484-.012.037-.489-.14-1.42-.348-.925-.22-2.345-.393-4.144-.212-1.794.2-3.966.784-6.233 2.001-2.267 1.211-4.584 3.062-6.653 5.559-2.1 2.473-3.967 5.519-5.862 8.848-1.906 3.32-3.86 6.968-6.569 10.385-1.345 1.707-2.892 3.35-4.703 4.758-1.796 1.424-3.913 2.541-6.168 3.286-2.25.768-4.601 1.27-6.937 1.876-2.33.608-4.679 1.34-6.75 2.628-2.066 1.286-3.663 3.162-4.766 5.276-1.13 2.104-1.908 4.358-2.681 6.571-.778 2.213-1.527 4.423-2.614 6.448-1.065 2.03-2.54 3.83-4.354 5.115-1.832 1.264-3.906 1.946-5.903 2.429-2.007.481-3.973.775-5.844 1.156-3.693.75-7.163 2.124-9.216 4.601-.996 1.232-1.595 2.682-1.74 4.107-.16 1.427.107 2.793.533 3.99.879 2.406 2.25 4.213 3.4 5.603a42.404 42.404 0 002.859 3.062l.783.764c.174.174.261.268.253.276"/><path fill="#f68260" d="M631.316 122.64c.037.03-.208.397-.685 1.032a75.97 75.97 0 01-2.107 2.627 130.287 130.287 0 01-7.493 8.197c-1.526 1.485-2.951 3.167-4.912 3.784-.95.295-1.962.307-2.814-.03-.864-.334-1.457-1.006-1.81-1.66-.714-1.35-.596-2.613-.5-3.39.122-.797.274-1.215.316-1.205.053.009-.01.446-.047 1.23-.017.766-.033 1.956.657 3.122.342.569.871 1.113 1.588 1.364.714.258 1.582.236 2.415-.04 1.699-.552 3.079-2.155 4.613-3.664a249.315 249.315 0 007.616-8.032c1.911-2.095 3.087-3.399 3.163-3.335"/><path fill="#f68260" d="M641.501 122.647c.035.032-.252.401-.802 1.038-.55.639-1.36 1.546-2.374 2.658l-3.585 3.88-2.135 2.274c-.744.786-1.536 1.616-2.502 2.312-.96.694-2.075 1.215-3.25 1.288-1.158.103-2.393-.388-3.028-1.32-.322-.452-.512-1.001-.494-1.548.013-.548.224-1.029.454-1.43.491-.795.999-1.411 1.438-2.031.89-1.212 1.621-2.185 2.138-2.85.518-.663.823-1.018.862-.99.038.028-.191.435-.64 1.145-.45.712-1.119 1.73-1.959 2.978-.405.624-.919 1.306-1.336 2.03-.43.719-.499 1.603.056 2.32.52.727 1.467 1.103 2.464 1.018 1-.07 1.997-.528 2.89-1.172.897-.647 1.667-1.443 2.415-2.219l2.163-2.245 3.695-3.779a137.969 137.969 0 012.533-2.505c.61-.58.963-.886.997-.852"/><path fill="#f03d5f" d="M780.721 530.839c2.276-4.962 7.094-8.673 12.474-9.604 5.377-.933 11.162.94 14.973 4.85-2.596 4.622-7.26 7.703-12.273 9.43-5.911 2.036-12.32-.35-15.174-4.676"/><path fill="#17282f" d="M771.248 533.027c-.028-.084 1.421-.615 3.833-1.194 2.408-.589 5.767-1.249 9.492-1.862a212.35 212.35 0 019.57-1.364c2.457-.29 3.985-.403 3.998-.31.011.097-1.492.381-3.929.795-2.653.436-5.916.97-9.527 1.564-3.717.613-7.077 1.193-9.5 1.656-2.425.454-3.906.813-3.937.715"/><path fill="#f03d5f" d="M304.15 446.43c5.658 4.653 8.755 12.245 7.97 19.527-.785 7.284-5.43 14.042-11.95 17.384-4.894-12.544-6.775-26.046 3.98-36.912M322.696 456.05c.515 9.466 6.053 18.515 14.25 23.282 8.195 4.767 18.8 5.105 27.282.87-9.323-14.72-21.959-27.033-41.532-24.153"/><path fill="#17282f" d="M280.204 409.681c.02-.014.232.215.619.664l1.664 1.988a436.9 436.9 0 006.098 7.323c5.2 6.135 12.551 14.48 21.196 23.187a320 320 0 0012.546 11.904c3.986 3.516 7.674 6.568 10.87 9 3.227 2.388 5.894 4.258 7.856 5.35 1.928 1.143 3.084 1.619 3.051 1.695-.01.023-.299-.09-.845-.326-.54-.243-1.366-.562-2.339-1.133-2.016-1.028-4.737-2.844-8.016-5.192-3.247-2.392-6.98-5.416-11.001-8.914a286.12 286.12 0 01-12.614-11.894c-8.665-8.725-15.972-17.138-21.081-23.362a225.84 225.84 0 01-5.932-7.47l-1.564-2.069c-.35-.479-.525-.736-.508-.75"/><path fill="#17282f" d="M303.115 465.395c-.118-.03.326-1.879.706-4.908.387-3.026.607-7.255.131-11.883A53.192 53.192 0 00301.373 437c-.997-2.885-1.813-4.604-1.704-4.656.043-.02.283.39.682 1.155.408.758.921 1.897 1.484 3.333 1.13 2.865 2.312 7.003 2.808 11.699.482 4.697.18 8.988-.335 12.026-.253 1.52-.521 2.74-.764 3.567-.233.83-.383 1.281-.43 1.27"/><path fill="#f03d5f" d="M891.535 195.559c-3.288-4.356-4.271-10.358-2.539-15.534 1.73-5.177 6.124-9.381 11.37-10.884 2.838 4.479 3.34 10.046 2.482 15.279-1.01 6.168-6.15 10.68-11.313 11.139"/><path fill="#17282f" d="M888.968 204.937c-.087-.016.133-1.541.767-3.94.625-2.4 1.636-5.669 2.861-9.24a215.992 215.992 0 013.339-9.072c.912-2.3 1.536-3.7 1.625-3.665.09.033-.37 1.493-1.164 3.835l-3.143 9.128c-1.222 3.564-2.305 6.798-3.046 9.15-.75 2.35-1.138 3.824-1.239 3.804"/><path fill="#f03d5f" d="M832.77 294.763c-2.747-10.191-.167-21.666 6.68-29.698 6.849-8.033 17.769-12.397 28.266-11.297 1.852 10.085-1.276 20.432-6.599 29.196-6.273 10.33-18.754 14.708-28.346 11.799"/><path fill="#17282f" d="M793.392 334.224c-.019-.017.177-.263.565-.717.443-.499 1.016-1.151 1.727-1.958a440.898 440.898 0 016.561-7.009c5.591-5.868 13.406-13.884 22.096-22.68a2935.118 2935.118 0 0122.37-22.413c2.849-2.795 5.173-5.078 6.85-6.722.779-.742 1.406-1.341 1.888-1.802.438-.406.676-.611.692-.594.018.016-.188.255-.593.694l-1.795 1.893-6.693 6.877-22.225 22.555-22.238 22.533c-2.793 2.848-5.072 5.176-6.716 6.852l-1.82 1.87c-.422.421-.652.636-.669.621"/><path fill="#ba2c42" d="M838.907 295.645c-2.115 0-4.184-.29-6.136-.882-.034-.123-.066-.247-.098-.37l14.387-14.6 6.693-6.877 1.795-1.893c.405-.439.61-.678.593-.694l-.002-.001c-.032 0-.268.205-.69.595-.482.461-1.109 1.06-1.888 1.802-1.677 1.644-4.001 3.927-6.85 6.722a2766.64 2766.64 0 00-14.22 14.193 32.059 32.059 0 01-.803-7.181c.007-7.74 2.733-15.495 7.763-21.394 6.146-7.21 15.574-11.465 25.033-11.465 1.079 0 2.157.055 3.232.168.365 1.99.537 3.99.536 5.984-.004 8.121-2.861 16.177-7.135 23.212-4.997 8.23-13.933 12.681-22.21 12.681"/><path fill="#0f191d" d="M832.673 294.393c-.064-.25-.125-.501-.182-.753a2766.64 2766.64 0 0114.22-14.193c2.849-2.795 5.173-5.078 6.85-6.722.779-.742 1.406-1.341 1.888-1.802.422-.39.658-.595.69-.595l.002.001c.018.016-.188.255-.593.694l-1.795 1.893-6.693 6.877-14.387 14.6"/><path fill="#f03d5f" d="M814.557 298.724c-5.761-2.964-9.905-8.876-10.722-15.303-.816-6.428 1.713-13.189 6.55-17.5 5.344 3.327 8.75 9.022 10.528 15.059 2.099 7.117-1.072 14.59-6.356 17.744"/><path fill="#ba2c42" d="M814.557 298.724c-5.761-2.964-9.905-8.876-10.722-15.303a18.86 18.86 0 01-.151-2.421c.003-5.659 2.47-11.307 6.701-15.079 5.344 3.327 8.75 9.022 10.528 15.059a16.02 16.02 0 01.654 4.55c-.002 5.554-2.851 10.713-7.01 13.194"/><path fill="#17282f" d="M816.647 310.075c-.047.012-.19-.42-.41-1.215-.221-.795-.48-1.959-.757-3.403-.557-2.888-1.152-6.904-1.681-11.353a276.642 276.642 0 01-1.126-11.42c-.222-2.928-.293-4.744-.197-4.752.096-.008.337 1.792.685 4.704.363 3.101.819 7.035 1.327 11.384.53 4.443 1.045 8.459 1.477 11.356.422 2.899.784 4.673.682 4.699"/><path fill="#f03d5f" d="M564.892 453.259c4.064-9.584 13.159-16.864 23.401-18.728 10.242-1.865 21.319 1.742 28.5 9.28-15.12 11.722-32.762 19.725-51.901 9.448"/><path fill="#ba2c42" d="M582.91 457.987c-5.829 0-11.845-1.414-18.018-4.728 4.064-9.584 13.159-16.864 23.401-18.728a30.31 30.31 0 015.419-.484c8.575 0 17.155 3.542 23.081 9.764-10.242 7.94-21.645 14.176-33.884 14.176"/><path fill="#17282f" d="M556.352 457.944c-.028-.042.401-.37 1.2-.935.793-.57 1.987-1.333 3.496-2.216 3.016-1.768 7.383-3.904 12.461-5.585 5.083-1.67 9.866-2.552 13.342-2.924 1.738-.19 3.15-.285 4.128-.3.978-.023 1.518-.012 1.521.036.005.117-2.148.252-5.585.75a79.484 79.484 0 00-13.188 3.096 79.24 79.24 0 00-12.439 5.358c-3.06 1.644-4.872 2.817-4.936 2.72"/><path fill="#f03d5f" d="M213.417 279.521c7.283-3.4 16.263-2.876 23.103 1.346 6.839 4.221 11.33 12.014 11.556 20.049-14.732-1.085-28.988-5.61-34.659-21.395"/><path fill="#ba2c42" d="M248.076 300.916c-14.732-1.085-28.988-5.61-34.659-21.395 3.196-1.492 6.719-2.228 10.244-2.228 4.508 0 9.02 1.204 12.859 3.574 6.839 4.221 11.33 12.014 11.556 20.049"/><path fill="#17282f" d="M206.096 277.796c.008-.047.425-.025 1.176.055.753.073 1.835.244 3.159.512 2.65.529 6.268 1.553 10.056 3.214 3.785 1.67 6.984 3.646 9.165 5.242 1.092.797 1.948 1.477 2.51 1.982.567.5.865.794.835.831-.072.088-1.388-.932-3.625-2.41a63.082 63.082 0 00-9.165-5.01 63.005 63.005 0 00-9.886-3.37c-2.598-.651-4.241-.934-4.225-1.046"/><path fill="#f03d5f" d="M691.19 436.919c-.865-7.139 2.08-14.63 7.573-19.27 5.493-4.641 13.37-6.292 20.265-4.248-5.024 12.224-12.837 23.088-27.837 23.518"/><path fill="#17282f" d="M687.687 442.664c-.074-.036.477-1.43 1.665-3.543 1.181-2.11 3.057-4.905 5.525-7.666 2.476-2.755 5.051-4.924 7.02-6.331 1.97-1.408 3.296-2.11 3.339-2.04.06.092-1.168.937-3.041 2.432a57.344 57.344 0 00-6.8 6.403 57.204 57.204 0 00-5.623 7.456c-1.283 2.024-1.987 3.338-2.085 3.289"/><path fill="#f03d5f" d="M796.11 367.659c-2.19-6.85-.709-14.759 3.814-20.351 4.523-5.59 11.947-8.692 19.104-7.981-2.635 12.95-8.267 25.089-22.917 28.332"/><path fill="#ba2c42" d="M796.11 367.659c-.671-2.1-.998-4.3-.997-6.503.002-4.98 1.675-9.97 4.811-13.848 4.095-5.061 10.565-8.083 17.064-8.083.68 0 1.361.034 2.04.102-2.635 12.95-8.267 25.089-22.917 28.332"/><path fill="#17282f" d="M793.75 373.959c-.08-.019.2-1.494.969-3.791.764-2.295 2.081-5.393 3.985-8.57 1.913-3.171 4.035-5.786 5.704-7.537 1.67-1.756 2.841-2.692 2.896-2.632.076.079-.972 1.139-2.53 2.96a57.43 57.43 0 00-5.474 7.567 57.131 57.131 0 00-4.12 8.381c-.879 2.23-1.324 3.652-1.43 3.622"/><path fill="#f03d5f" d="M5.217 272.31c1.559-7.022 6.824-13.107 13.548-15.657 6.724-2.55 14.7-1.489 20.524 2.731-8.802 9.859-19.782 17.507-34.072 12.925"/><path fill="#17282f" d="M.003 276.563c-.058-.058.926-1.191 2.747-2.788 1.817-1.598 4.515-3.611 7.76-5.392 3.252-1.776 6.401-2.967 8.726-3.638 2.326-.676 3.81-.894 3.827-.814.026.106-1.414.494-3.677 1.281a57.453 57.453 0 00-8.542 3.779 57.425 57.425 0 00-7.781 5.162c-1.882 1.484-2.983 2.488-3.06 2.41"/><path fill="#fff" d="M614.673 98.308l10.716-19.315a51.138 51.138 0 01-7.868-26.837C617.25 23.776 640.033.551 668.413.277c28.379-.273 51.606 22.512 51.878 50.891.272 28.38-22.512 51.607-50.891 51.879-11.85.113-22.793-3.803-31.55-10.459l.017.023-23.194 5.697"/><path fill="#17282f" d="M614.673 98.308l23.152-5.865-.094.274-.019-.022-.813-1.035 1.056.79a52.627 52.627 0 0010.59 6.166c4.127 1.757 8.842 3.176 14.031 3.795 2.59.296 5.293.473 8.068.301 1.387-.097 2.796-.15 4.219-.285l4.29-.704a51.606 51.606 0 0017.054-6.939 51.517 51.517 0 0014.476-13.83c3.997-5.693 7.004-12.42 8.366-19.709a51.815 51.815 0 00-.833-22.574c-1.997-7.484-5.653-14.782-11.081-20.762l-2.096-2.26c-.687-.761-1.507-1.385-2.251-2.081-.78-.657-1.483-1.405-2.319-1.985l-2.453-1.798c-.795-.632-1.668-1.136-2.539-1.645L692.89 6.6l-2.706-1.283c-.908-.409-1.782-.894-2.732-1.185A51.857 51.857 0 00664.667.837c-7.516.606-14.692 2.822-20.842 6.347a51.712 51.712 0 00-15.357 13.323 51.742 51.742 0 00-8.555 16.553c-1.718 5.699-2.16 11.345-2.11 16.575.354 10.529 3.92 19.172 7.728 25.269l.052.084-.05.085c-6.917 12.254-10.28 18.207-10.86 19.235.566-1.036 3.838-7.04 10.571-19.396l.005.17c-3.878-6.109-7.524-14.802-7.928-25.429-.07-5.277.354-10.982 2.072-16.748a52.252 52.252 0 018.604-16.762 52.25 52.25 0 0115.515-13.514c6.219-3.58 13.487-5.836 21.1-6.458A52.468 52.468 0 01687.7 3.492c.964.293 1.85.785 2.77 1.199.913.432 1.829.865 2.745 1.3l2.625 1.56c.88.514 1.765 1.028 2.572 1.665l2.485 1.821c.848.588 1.563 1.346 2.352 2.012.755.707 1.584 1.339 2.282 2.11l2.122 2.29c5.502 6.062 9.21 13.459 11.228 21.047a52.422 52.422 0 01.826 22.875c-1.39 7.382-4.444 14.193-8.503 19.952a52.02 52.02 0 01-14.676 13.966 52.072 52.072 0 01-17.265 6.97c-1.466.236-2.912.469-4.339.697-1.437.135-2.863.183-4.263.275-2.801.164-5.53-.027-8.145-.335-5.236-.647-9.987-2.1-14.139-3.895a52.55 52.55 0 01-10.632-6.274l.24-.244.018.021.165.213-.26.062-23.235 5.529"/><path fill="#f03d5f" d="M654.656 42.856l6.685-.065s-.054-5.612 5.779-5.77c3.028-.081 4.619 1.888 5.27 3.403.76 1.759.554 3.772-.422 5.419-1.116 1.88-3.585 3.604-8.099 2.853l.146 15.073 6.61-.062-.085-8.831s9.248-2.485 9.15-12.703c-.094-9.776-8.882-11.961-12.635-11.925-2.87.027-12.638.815-12.399 12.608M670.795 73.076l-6.708.065-.06-6.266 6.708-.064.06 6.265"/></svg>
