<svg xmlns="http://www.w3.org/2000/svg" fill="none" viewBox="0 0 500 250"><rect width="149" height="77" x="175" y="87" fill="#DFE4EA" rx="38.5"/><rect width="51" height="51" x="262" y="100" fill="#fff" rx="25.5"/><path stroke="#B7BCC2" stroke-linecap="round" stroke-linejoin="round" stroke-width="2.75" d="M211 107.25h.819a15.621 15.621 0 00-2.547 19.835 15.626 15.626 0 0019.047 6.094 18.751 18.751 0 01-25.342 9.749 18.742 18.742 0 01-7.567-6.535 18.74 18.74 0 01-.94-19.25 18.748 18.748 0 0116.53-9.91v.017zM221.417 109.333a4.17 4.17 0 004.166 4.167 4.164 4.164 0 00-4.166 4.167 4.164 4.164 0 00-1.221-2.946 4.164 4.164 0 00-2.946-1.221 4.167 4.167 0 004.167-4.167zM227.667 121.833V126m-2.084-2.083h4.167-4.167z"/></svg>
