<svg xmlns="http://www.w3.org/2000/svg" fill="none" viewBox="0 0 500 250"><rect width="50" height="50" x="64" y="56" fill="#DFE4EA" rx="25"/><rect width="228" height="5" x="130" y="84" fill="#DEE2E6" rx="2.5"/><rect width="124" height="5" x="130" y="94" fill="#DEE2E6" rx="2.5"/><path fill="#000" d="M134.464 71.376v-6.83h2.392v6.83c0 .665-.152 1.242-.458 1.73-.3.487-.71.865-1.23 1.134a3.746 3.746 0 01-1.736.397c-.666 0-1.258-.112-1.778-.335a2.663 2.663 0 01-1.216-1.033c-.292-.464-.438-1.057-.438-1.777h2.406c0 .337.039.602.116.793a.747.747 0 00.342.397c.155.073.344.109.568.109a.915.915 0 00.553-.164c.155-.114.274-.276.356-.485.082-.215.123-.47.123-.766zM137.984 70.877v-.144c0-.542.078-1.04.233-1.497.155-.46.383-.859.683-1.196.301-.337.673-.6 1.115-.786.442-.192.952-.287 1.531-.287.583 0 1.096.096 1.538.287.447.187.82.449 1.121.786.301.337.529.736.684 1.196.155.456.232.955.232 1.497v.144c0 .538-.077 1.037-.232 1.497a3.486 3.486 0 01-.684 1.196c-.301.338-.672.6-1.114.786-.442.187-.953.28-1.531.28-.579 0-1.092-.093-1.539-.28a3.064 3.064 0 01-1.121-.786 3.5 3.5 0 01-.683-1.196 4.663 4.663 0 01-.233-1.497zm2.304-.144v.144c0 .278.021.538.062.78.041.24.109.453.205.635.095.178.225.317.389.417.164.1.369.15.616.15.241 0 .442-.05.601-.15.164-.1.294-.24.39-.417.095-.182.164-.394.205-.636.041-.241.061-.501.061-.779v-.144c0-.269-.02-.521-.061-.758a2.147 2.147 0 00-.205-.636 1.106 1.106 0 00-.39-.438 1.12 1.12 0 00-.615-.157c-.242 0-.444.052-.608.157-.16.105-.288.251-.383.438a2.118 2.118 0 00-.205.636 4.45 4.45 0 00-.062.758zM148.402 64v10.5h-2.303V64h2.303zm-.273 6.549l-.54.013c0-.519.064-.998.191-1.435.128-.438.31-.818.547-1.142a2.53 2.53 0 01.855-.752 2.308 2.308 0 011.107-.266c.365 0 .697.052.998.157.305.105.567.273.786.506.224.232.394.535.513.91.123.373.185.828.185 1.366V74.5h-2.318v-4.607c0-.301-.043-.534-.13-.698a.678.678 0 00-.355-.348 1.403 1.403 0 00-.568-.103c-.268 0-.487.046-.656.137a.965.965 0 00-.39.383 1.71 1.71 0 00-.177.567 4.974 4.974 0 00-.048.718zM156.312 68.683V74.5h-2.304v-7.397h2.16l.144 1.58zm-.274 1.866l-.54.013c0-.565.068-1.068.205-1.51a3.35 3.35 0 01.581-1.135 2.47 2.47 0 01.896-.704c.351-.164.74-.246 1.169-.246.341 0 .654.05.936.15.287.1.533.262.738.486.21.223.37.52.479.888.114.365.171.816.171 1.354V74.5h-2.318v-4.662c0-.296-.041-.522-.123-.677a.655.655 0 00-.355-.328 1.595 1.595 0 00-.567-.089c-.237 0-.438.046-.602.137a1.06 1.06 0 00-.396.383c-.096.16-.167.348-.212.567a3.9 3.9 0 00-.062.718zM169.607 70.269h-2.563l-.014-1.573h2.078c.374 0 .673-.04.896-.123.223-.086.385-.212.485-.376a1.12 1.12 0 00.157-.615c0-.282-.052-.51-.157-.684a.891.891 0 00-.499-.376c-.223-.082-.512-.123-.868-.123h-1.176V74.5h-2.399v-9.953h3.575c.615 0 1.164.057 1.648.17.483.11.893.279 1.23.507.342.227.602.515.779.861.178.342.267.745.267 1.21 0 .406-.087.786-.26 1.141-.173.356-.462.645-.868.869-.401.218-.95.332-1.647.341l-.664.623zm-.095 4.231h-3.049l.82-1.846h2.229c.328 0 .59-.05.786-.15a.972.972 0 00.431-.41c.091-.173.136-.365.136-.575 0-.255-.043-.476-.13-.663a.888.888 0 00-.396-.43c-.182-.105-.426-.157-.732-.157h-2.016l.013-1.573h2.414l.56.63c.665-.028 1.192.065 1.579.28.392.214.672.496.841.847.169.351.253.718.253 1.1 0 .652-.141 1.197-.424 1.635-.278.437-.695.765-1.251.984-.556.219-1.244.328-2.064.328zM176.799 68.936V74.5h-2.304v-7.397h2.153l.151 1.833zm2.187-1.887l-.041 2.14a33.94 33.94 0 00-.369-.035 4.556 4.556 0 00-.389-.02c-.269 0-.502.032-.698.096-.191.059-.351.15-.478.273a1.083 1.083 0 00-.274.451 2.12 2.12 0 00-.075.636l-.417-.274c0-.496.048-.948.144-1.353.1-.41.241-.763.423-1.06.183-.3.404-.53.664-.69.259-.164.551-.246.875-.246a2.7 2.7 0 01.335.02c.113.014.214.035.3.062zM179.246 70.877v-.144c0-.542.078-1.04.233-1.497.154-.46.382-.859.683-1.196.301-.337.672-.6 1.114-.786.442-.192.953-.287 1.532-.287.583 0 1.096.096 1.538.287.446.187.82.449 1.121.786.301.337.528.736.683 1.196.155.456.233.955.233 1.497v.144c0 .538-.078 1.037-.233 1.497a3.484 3.484 0 01-.683 1.196c-.301.338-.672.6-1.114.786-.443.187-.953.28-1.532.28-.578 0-1.091-.093-1.538-.28a3.064 3.064 0 01-1.121-.786 3.468 3.468 0 01-.683-1.196 4.663 4.663 0 01-.233-1.497zm2.304-.144v.144c0 .278.02.538.061.78.041.24.11.453.205.635.096.178.226.317.39.417.164.1.369.15.615.15.242 0 .442-.05.602-.15.164-.1.294-.24.389-.417.096-.182.165-.394.206-.636.041-.241.061-.501.061-.779v-.144c0-.269-.02-.521-.061-.758a2.118 2.118 0 00-.206-.636 1.096 1.096 0 00-.389-.438 1.12 1.12 0 00-.615-.157c-.242 0-.445.052-.609.157-.159.105-.287.251-.383.438a2.147 2.147 0 00-.205.636c-.041.237-.061.49-.061.758zM189.657 72.299l1.367-5.196h1.443l-.513 2.605-1.353 4.792h-1.156l.212-2.201zm-.54-5.196l.848 5.155.096 2.242h-1.402l-1.75-7.397h2.208zm4.567 5.045l.854-5.044h2.208L195.01 74.5h-1.402l.076-2.352zm-1.053-5.044l1.381 5.181.212 2.215h-1.169l-1.326-4.778-.493-2.618h1.395zM199.843 68.683V74.5h-2.304v-7.397h2.16l.144 1.58zm-.274 1.866l-.54.013c0-.565.069-1.068.205-1.51a3.35 3.35 0 01.581-1.135c.251-.31.55-.545.896-.704.351-.164.74-.246 1.169-.246.342 0 .654.05.936.15.288.1.534.262.739.486.209.223.369.52.478.888.114.365.171.816.171 1.354V74.5h-2.317v-4.662c0-.296-.041-.522-.123-.677a.657.657 0 00-.356-.328 1.595 1.595 0 00-.567-.089c-.237 0-.438.046-.602.137a1.06 1.06 0 00-.396.383c-.096.16-.167.348-.212.567a3.9 3.9 0 00-.062.718z"/><rect width="371" height="8" x="64" y="127" fill="#DEE2E6" rx="4"/><rect width="371" height="8" x="64" y="142" fill="#DEE2E6" rx="4"/><rect width="371" height="8" x="64" y="157" fill="#DEE2E6" rx="4"/><rect width="371" height="8" x="64" y="172" fill="#DEE2E6" rx="4"/><rect width="124" height="8" x="64" y="187" fill="#DEE2E6" rx="4"/></svg>
