<svg xmlns="http://www.w3.org/2000/svg" fill="none" viewBox="0 0 500 250"><rect width="149" height="77" x="324" y="164" fill="#FFD43B" rx="38.5" transform="rotate(-180 324 164)"/><rect width="51" height="51" x="237" y="151" fill="#fff" rx="25.5" transform="rotate(-180 237 151)"/><path stroke="#8B7420" stroke-linecap="round" stroke-linejoin="round" stroke-width="2.75" d="M288 133.333a8.333 8.333 0 100-16.666 8.333 8.333 0 000 16.666zM276.125 136.875l-1.458 1.458M269.25 125h2.083-2.083zM288 106.25v2.083-2.083zM304.667 125h2.083-2.083zM288 141.667v2.083-2.083zm-13.333-30l1.458 1.458-1.458-1.458zm26.666 0l-1.458 1.458 1.458-1.458zm-1.458 25.208l1.458 1.458-1.458-1.458z"/></svg>
