<svg xmlns="http://www.w3.org/2000/svg" fill="none" viewBox="0 0 500 250"><path fill="#DFE4EA" d="M179.739 142.612v27.981H67.149L65 148.423l62.848-101.27h28.578l-31.049 50.904-25.783 44.555h80.145zm-15.793-95.46v156.696h-36.205V47.152h36.205zM304.576 111.186v28.628c0 11.264-1.325 21.057-3.975 29.38-2.578 8.322-6.303 15.21-11.173 20.663-4.799 5.453-10.528 9.506-17.189 12.161-6.661 2.655-14.002 3.982-22.024 3.982-6.446 0-12.462-.825-18.049-2.475-5.586-1.722-10.636-4.305-15.148-7.749-4.441-3.516-8.272-7.892-11.495-13.13-3.223-5.237-5.694-11.407-7.413-18.51-1.719-7.175-2.579-15.282-2.579-24.322v-28.628c0-11.336 1.29-21.129 3.868-29.38 2.65-8.322 6.41-15.21 11.28-20.663 4.871-5.453 10.636-9.506 17.297-12.161C234.637 46.327 241.978 45 250 45c6.446 0 12.426.861 17.941 2.583 5.587 1.65 10.636 4.233 15.148 7.749 4.513 3.443 8.344 7.784 11.496 13.022 3.223 5.237 5.694 11.443 7.413 18.618 1.719 7.103 2.578 15.174 2.578 24.214zm-36.205 33.04v-37.667c0-5.022-.286-9.399-.859-13.13-.502-3.73-1.29-6.888-2.364-9.47-1.003-2.583-2.256-4.664-3.76-6.242-1.504-1.65-3.223-2.834-5.157-3.552-1.862-.79-3.939-1.184-6.231-1.184-2.865 0-5.443.61-7.735 1.83-2.22 1.148-4.118 3.013-5.694 5.596-1.576 2.583-2.793 6.027-3.653 10.332-.788 4.304-1.182 9.578-1.182 15.82v37.667c0 5.094.251 9.542.752 13.345.573 3.731 1.361 6.923 2.364 9.578 1.074 2.583 2.363 4.699 3.868 6.35 1.504 1.578 3.223 2.726 5.156 3.444 1.934.717 4.047 1.076 6.339 1.076 2.793 0 5.3-.574 7.52-1.722 2.22-1.148 4.118-3.014 5.694-5.596 1.647-2.655 2.865-6.135 3.653-10.44.859-4.376 1.289-9.721 1.289-16.035zM435 142.612v27.981H322.41l-2.149-22.17 62.849-101.27h28.577l-31.048 50.904-25.784 44.555H435zm-15.793-95.46v156.696h-36.205V47.152h36.205z"/></svg>
