<svg xmlns="http://www.w3.org/2000/svg" fill="none" viewBox="0 0 500 250"><g clip-path="url(#a)"><rect width="371" height="176" x="64" y="-19" fill="#373A40" rx="13"/><path fill="#373A40" d="M64 190c0-7.18 5.82-13 13-13h345c7.18 0 13 5.82 13 13v60H64v-60z"/><path fill="#FFD43B" d="M102.44 210.5c0-4.694-3.904-8.5-8.72-8.5-4.816 0-8.72 3.806-8.72 8.5s3.904 8.5 8.72 8.5c4.816 0 8.72-3.806 8.72-8.5z"/><path fill="#373A40" d="M92.096 206.49a.637.637 0 00.138.904c1.016.734 1.599 1.856 1.599 3.079s-.583 2.345-1.599 3.079a.637.637 0 00.171 1.127.683.683 0 00.62-.09c.313-.226.599-.484.854-.771h1.881a.655.655 0 00.664-.646.655.655 0 00-.664-.646h-1.038c.29-.648.44-1.347.438-2.053a4.993 4.993 0 00-.438-2.054h1.04a.655.655 0 00.663-.646.655.655 0 00-.664-.646h-1.88a5.336 5.336 0 00-.856-.771.669.669 0 00-.492-.121.67.67 0 00-.436.255z"/><path fill="#373A40" fill-rule="evenodd" d="M91.048 210.28a.948.948 0 01.28-.697.98.98 0 01.703-.291.999.999 0 01.704.291.956.956 0 01.258.875.966.966 0 01-.275.489.995.995 0 01-1.374 0 .957.957 0 01-.296-.667z" clip-rule="evenodd"/><path fill="#fff" d="M116.374 215.208c.214 0 .412-.045.594-.136.182-.09.273-.222.273-.394v-8.083c0-.31-.089-.528-.266-.653a1.02 1.02 0 00-.601-.188c-.204 0-.382.022-.533.065a.878.878 0 00-.407.259 4.14 4.14 0 00-.42.569l-1.64 2.897-1.627-2.897a2.703 2.703 0 00-.407-.569.965.965 0 00-.413-.259 1.946 1.946 0 00-.54-.065c-.213 0-.411.063-.594.188-.182.125-.273.343-.273.653v8.083c0 .172.091.304.273.394.183.091.381.136.594.136.222 0 .422-.045.6-.136.178-.09.267-.222.267-.394v-5.665l1.533 2.794c.08.129.171.217.274.265a.714.714 0 00.3.071.718.718 0 00.6-.336l1.547-2.69v5.561c0 .172.091.304.273.394.182.091.38.136.593.136zm3.697.116c.463 0 .856-.103 1.181-.31a4.09 4.09 0 00.846-.711v.375c0 .146.074.271.22.375a.943.943 0 00.554.155c.24 0 .44-.052.6-.155.16-.104.24-.229.24-.375v-3.169c0-.439-.096-.849-.287-1.228-.191-.38-.495-.69-.913-.931-.418-.242-.974-.362-1.667-.362-.311 0-.631.038-.96.116a2.746 2.746 0 00-.834.33c-.227.142-.34.304-.34.485 0 .189.051.375.153.556.103.181.247.271.434.271a.545.545 0 00.32-.103c.098-.069.238-.136.42-.201.182-.064.442-.097.78-.097.302 0 .536.061.7.181.165.121.285.272.36.453.075.177.113.365.114.556v.168h-.547c-.614 0-1.154.056-1.62.168-.467.113-.832.307-1.094.582-.262.276-.393.66-.393 1.151 0 .587.171 1.02.513 1.3.342.28.749.42 1.22.42zm.694-1.241a.765.765 0 01-.5-.168c-.138-.112-.207-.289-.207-.53 0-.242.082-.421.247-.537.164-.117.38-.192.646-.226.279-.036.56-.053.841-.052h.2v.271c0 .207-.065.406-.194.595-.129.19-.286.345-.473.466a1.025 1.025 0 01-.56.181zm9.052 1.125c.222 0 .422-.045.6-.136.178-.09.266-.222.266-.394v-3.065c0-.483-.104-.923-.313-1.319a2.594 2.594 0 00-.833-.951 1.989 1.989 0 00-1.147-.355c-.445 0-.82.101-1.127.303-.307.203-.527.429-.66.679v-.388c0-.155-.074-.28-.22-.375a.974.974 0 00-.54-.142c-.249 0-.454.048-.614.142-.16.095-.24.22-.24.375v5.096c0 .129.08.25.24.362.16.112.365.168.614.168.24 0 .444-.056.613-.168.169-.112.253-.233.253-.362v-3.065c0-.242.054-.449.161-.621.106-.172.244-.306.413-.401a1.047 1.047 0 011.107.032c.178.117.318.261.42.434.101.169.154.361.153.556v3.065c0 .172.094.304.28.394.187.091.378.136.574.136zm5.101 0c.249 0 .433-.073.553-.22a.74.74 0 000-.97c-.12-.146-.304-.22-.553-.22h-.52c-.276 0-.469-.051-.58-.155-.112-.103-.167-.28-.167-.53v-2.832h1.573a.36.36 0 00.327-.188.792.792 0 00.113-.42.792.792 0 00-.113-.42.36.36 0 00-.327-.188h-1.573v-2.224c0-.155-.091-.281-.274-.375a1.264 1.264 0 00-1.166 0c-.187.095-.28.22-.28.375v6.272c0 .724.211 1.254.633 1.591.422.336 1.033.504 1.834.504h.52zm2.481-7.514a.938.938 0 00.66-.252c.182-.168.273-.356.273-.562a.739.739 0 00-.273-.576.964.964 0 00-.66-.239c-.258 0-.48.08-.667.239a.732.732 0 00-.28.576c0 .206.093.394.28.562a.964.964 0 00.667.252zm0 7.514c.24 0 .444-.056.613-.168.169-.112.254-.233.254-.362v-5.096c0-.155-.085-.28-.254-.375a1.23 1.23 0 00-.613-.142c-.249 0-.453.048-.613.142-.161.095-.241.22-.241.375v5.096c0 .129.08.25.241.362.16.112.364.168.613.168zm7.017 0c.222 0 .422-.045.6-.136.178-.09.267-.222.267-.394v-3.065c0-.483-.105-.923-.314-1.319a2.585 2.585 0 00-.833-.951 1.989 1.989 0 00-1.147-.355c-.445 0-.82.101-1.127.303-.307.203-.527.429-.66.679v-.388c0-.155-.073-.28-.22-.375a.974.974 0 00-.54-.142c-.249 0-.453.048-.614.142-.16.095-.24.22-.24.375v5.096c0 .129.08.25.24.362.161.112.365.168.614.168.24 0 .444-.056.613-.168.169-.112.254-.233.254-.362v-3.065c0-.242.053-.449.16-.621.106-.172.244-.306.413-.401a1.047 1.047 0 011.107.032c.178.117.318.261.42.434.101.169.154.361.153.556v3.065c0 .172.094.304.28.394.187.091.378.136.574.136zm5.128.116c.48 0 .895-.058 1.246-.174.352-.117.623-.259.814-.427.191-.168.287-.325.287-.472a.76.76 0 00-.08-.304.912.912 0 00-.227-.304.508.508 0 00-.347-.129.848.848 0 00-.4.116c-.142.078-.311.16-.507.246-.195.086-.44.129-.733.129-.462 0-.838-.114-1.127-.342a1.091 1.091 0 01-.433-.899v-.194h2.707c.204 0 .402-.02.593-.058a.785.785 0 00.474-.298c.124-.159.186-.424.186-.795 0-.483-.129-.905-.386-1.268a2.698 2.698 0 00-1.007-.853 3.011 3.011 0 00-1.367-.31 3.06 3.06 0 00-1.474.355 2.89 2.89 0 00-1.053.944 2.262 2.262 0 00-.394 1.287v1.099c0 .526.138.99.414 1.391.275.4.655.711 1.14.931.484.22 1.042.329 1.674.329zm.44-3.737h-1.947v-.362c0-.207.055-.386.166-.537.111-.151.256-.267.434-.349.178-.082.369-.123.573-.123.214 0 .409.043.587.129.178.087.32.207.427.363.106.155.16.332.16.53 0 .138-.029.23-.087.278-.058.047-.162.071-.313.071z"/><path fill="#5C5F66" d="M220 198.992c0-1.1.892-1.992 1.992-1.992h47.016a1.992 1.992 0 010 3.984h-47.016c-1.1 0-1.992-.892-1.992-1.992zM220 206.961c0-1.1.892-1.992 1.992-1.992h47.016a1.992 1.992 0 010 3.984h-47.016c-1.1 0-1.992-.892-1.992-1.992zM220 214.93c0-1.101.892-1.992 1.992-1.992h47.016a1.992 1.992 0 010 3.984h-47.016c-1.1 0-1.992-.892-1.992-1.992zM220 222.898c0-1.1.892-1.992 1.992-1.992h47.016a1.992 1.992 0 010 3.985h-47.016c-1.1 0-1.992-.892-1.992-1.993zM281 198.992c0-1.1.892-1.992 1.992-1.992h47.016a1.992 1.992 0 010 3.984h-47.016c-1.1 0-1.992-.892-1.992-1.992zM281 206.961c0-1.1.892-1.992 1.992-1.992h47.016a1.992 1.992 0 010 3.984h-47.016c-1.1 0-1.992-.892-1.992-1.992zM281 214.93c0-1.101.892-1.992 1.992-1.992h47.016a1.992 1.992 0 010 3.984h-47.016c-1.1 0-1.992-.892-1.992-1.992zM281 222.898c0-1.1.892-1.992 1.992-1.992h47.016a1.992 1.992 0 010 3.985h-47.016c-1.1 0-1.992-.892-1.992-1.993zM342 198.992c0-1.1.892-1.992 1.992-1.992h47.016a1.992 1.992 0 010 3.984h-47.016c-1.1 0-1.992-.892-1.992-1.992zM342 206.961c0-1.1.892-1.992 1.992-1.992h47.016a1.992 1.992 0 010 3.984h-47.016c-1.1 0-1.992-.892-1.992-1.992zM342 214.93c0-1.101.892-1.992 1.992-1.992h47.016a1.992 1.992 0 010 3.984h-47.016c-1.1 0-1.992-.892-1.992-1.992zM342 222.898c0-1.1.892-1.992 1.992-1.992h47.016a1.992 1.992 0 010 3.985h-47.016c-1.1 0-1.992-.892-1.992-1.993z"/></g><defs><clipPath id="a"><path fill="#fff" d="M0 0h500v250H0z"/></clipPath></defs></svg>
