<svg xmlns="http://www.w3.org/2000/svg" fill="none" viewBox="0 0 500 250"><path fill="#25262B" d="M0 0h500v210H0z"/><rect width="119.561" height="30.415" x="64.171" y="156.341" fill="#FFD43B" rx="15.207"/><rect width="75.641" height="6.05" x="86.82" y="168.697" fill="#141517" rx="3.025"/><rect width="202" height="6" x="64" y="76" fill="#3B3D42" rx="3"/><rect width="202" height="6" x="64" y="87" fill="#3B3D42" rx="3"/><rect width="100" height="6" x="64" y="98" fill="#3B3D42" rx="3"/><path fill="#fff" d="M69.023 51.563l2.094-4.938h2.961l-3.664 7.29V58h-2.781v-4.086l-3.656-7.289h2.945l2.101 4.938zM73.938 53.695c0-.843.164-1.593.492-2.25.328-.661.8-1.169 1.414-1.523.614-.354 1.336-.531 2.164-.531 1.265 0 2.263.393 2.992 1.18.73.78 1.094 1.846 1.094 3.195v.093c0 1.318-.367 2.365-1.102 3.141-.729.77-1.719 1.156-2.969 1.156-1.203 0-2.169-.36-2.898-1.078-.73-.724-1.122-1.703-1.18-2.937l-.007-.446zm2.632.164c0 .782.123 1.355.368 1.72.244.364.606.546 1.085.546.938 0 1.417-.721 1.438-2.164v-.266c0-1.515-.484-2.273-1.453-2.273-.88 0-1.357.654-1.43 1.96l-.008.477zM88.29 57.086c-.558.714-1.31 1.07-2.259 1.07-.927 0-1.63-.268-2.11-.804-.473-.542-.71-1.318-.71-2.329v-5.476h2.633v5.492c0 .724.351 1.086 1.054 1.086.605 0 1.034-.216 1.29-.648v-5.93h2.648V58h-2.469l-.078-.914zM97.398 51.93l-.867-.063c-.828 0-1.36.26-1.594.781V58h-2.632v-8.453h2.468l.086 1.086c.443-.828 1.06-1.242 1.852-1.242.281 0 .526.03.734.093l-.047 2.446zM104.75 49.547l.086.992c.583-.766 1.388-1.148 2.414-1.148.88 0 1.536.263 1.969.789.437.526.664 1.317.679 2.375V58h-2.64v-5.336c0-.427-.086-.74-.258-.937-.172-.204-.484-.305-.938-.305-.515 0-.898.203-1.148.61V58h-2.633v-8.453h2.469zM115.453 58.156c-1.297 0-2.346-.385-3.148-1.156-.802-.776-1.203-1.784-1.203-3.023v-.22c0-.864.158-1.627.476-2.288a3.52 3.52 0 011.406-1.532c.615-.364 1.344-.546 2.188-.546 1.187 0 2.125.37 2.812 1.109.688.734 1.032 1.76 1.032 3.078v1.024h-5.235c.094.474.3.846.617 1.117.318.27.73.406 1.235.406.833 0 1.484-.292 1.953-.875l1.203 1.422c-.328.453-.794.815-1.398 1.086a4.727 4.727 0 01-1.938.398zm-.297-6.734c-.771 0-1.229.51-1.375 1.531h2.657v-.203c.01-.422-.097-.747-.321-.977-.224-.234-.544-.351-.961-.351zM123.508 51.875l1.226-2.328h2.735l-2.227 4.117L127.578 58h-2.75l-1.328-2.5-1.305 2.5h-2.765l2.343-4.336-2.218-4.117h2.765l1.188 2.328zM131.383 47.445v2.102h1.39v1.828h-1.39v3.867c0 .318.057.54.172.664.114.125.341.188.679.188.261 0 .48-.016.657-.047v1.883a4.863 4.863 0 01-1.485.226c-.906 0-1.575-.213-2.008-.64-.432-.427-.648-1.076-.648-1.946v-4.195h-1.078v-1.828h1.078v-2.102h2.633zM138.383 58v-6.625h-1.227v-1.828h1.227v-.672c0-.964.284-1.71.851-2.242.568-.531 1.365-.797 2.391-.797.375 0 .786.055 1.234.164l.008 1.938a2.398 2.398 0 00-.648-.07c-.797 0-1.196.343-1.196 1.03v.649h1.649v1.828h-1.649V58h-2.64zM148.359 58c-.093-.172-.177-.425-.25-.758-.484.61-1.161.914-2.031.914-.797 0-1.474-.24-2.031-.718-.557-.485-.836-1.092-.836-1.82 0-.918.338-1.61 1.016-2.079.677-.469 1.661-.703 2.953-.703h.812v-.445c0-.776-.336-1.164-1.008-1.164-.625 0-.937.307-.937.921h-2.633c0-.817.346-1.481 1.039-1.992.698-.51 1.586-.765 2.664-.765s1.93.263 2.555.789c.625.526.945 1.247.961 2.164v3.742c.01.776.13 1.37.359 1.781V58h-2.633zm-1.648-1.719c.328 0 .599-.07.812-.21.219-.141.375-.3.469-.477v-1.352h-.765c-.917 0-1.375.412-1.375 1.235 0 .24.08.434.242.586a.885.885 0 00.617.218zM155.344 54.867l1.336-5.32h2.773L156.695 58h-2.687l-2.758-8.453h2.781l1.313 5.32zM159.781 53.695c0-.843.164-1.593.492-2.25a3.52 3.52 0 011.415-1.523c.614-.354 1.335-.531 2.164-.531 1.265 0 2.263.393 2.992 1.18.729.78 1.094 1.846 1.094 3.195v.093c0 1.318-.368 2.365-1.102 3.141-.729.77-1.719 1.156-2.969 1.156-1.203 0-2.169-.36-2.898-1.078-.729-.724-1.123-1.703-1.18-2.937l-.008-.446zm2.633.164c0 .782.122 1.355.367 1.72.245.364.607.546 1.086.546.938 0 1.417-.721 1.438-2.164v-.266c0-1.515-.485-2.273-1.453-2.273-.881 0-1.357.654-1.43 1.96l-.008.477zM174.211 51.93l-.867-.063c-.828 0-1.36.26-1.594.781V58h-2.633v-8.453h2.469l.086 1.086c.443-.828 1.06-1.242 1.851-1.242.282 0 .526.03.735.093l-.047 2.446zM177.938 58h-2.641v-8.453h2.641V58zm-2.797-10.633c0-.375.135-.682.406-.922s.622-.36 1.055-.36c.432 0 .783.12 1.054.36s.406.547.406.922-.135.683-.406.922c-.271.24-.622.36-1.054.36-.433 0-.784-.12-1.055-.36a1.174 1.174 0 01-.406-.922zM182.633 47.445v2.102h1.39v1.828h-1.39v3.867c0 .318.057.54.172.664.114.125.341.188.679.188.261 0 .48-.016.657-.047v1.883a4.863 4.863 0 01-1.485.226c-.906 0-1.575-.213-2.008-.64-.432-.427-.648-1.076-.648-1.946v-4.195h-1.078v-1.828H180v-2.102h2.633zM189.156 58.156c-1.297 0-2.346-.385-3.148-1.156-.802-.776-1.203-1.784-1.203-3.023v-.22c0-.864.159-1.627.476-2.288a3.515 3.515 0 011.407-1.532c.614-.364 1.343-.546 2.187-.546 1.187 0 2.125.37 2.813 1.109.687.734 1.031 1.76 1.031 3.078v1.024h-5.235c.094.474.3.846.618 1.117.317.27.729.406 1.234.406.833 0 1.484-.292 1.953-.875l1.203 1.422c-.328.453-.794.815-1.398 1.086a4.727 4.727 0 01-1.938.398zm-.297-6.734c-.77 0-1.229.51-1.375 1.531h2.657v-.203c.01-.422-.097-.747-.321-.977-.224-.234-.544-.351-.961-.351zM206.812 46.625v7.445c0 .844-.179 1.576-.539 2.196a3.5 3.5 0 01-1.546 1.406c-.672.323-1.467.484-2.383.484-1.386 0-2.477-.36-3.274-1.078-.797-.719-1.203-1.703-1.218-2.953v-7.5h2.757v7.555c.032 1.245.61 1.867 1.735 1.867.567 0 .997-.156 1.289-.469.291-.312.437-.82.437-1.523v-7.43h2.742zM211.453 58h-2.734V46.625h2.734V58zM220 58h-2.641V46H220v12zM224.406 58h-2.64v-8.453h2.64V58zm-2.797-10.633c0-.375.136-.682.407-.922.27-.24.622-.36 1.054-.36.433 0 .784.12 1.055.36.271.24.406.547.406.922s-.135.683-.406.922c-.271.24-.622.36-1.055.36-.432 0-.784-.12-1.054-.36a1.175 1.175 0 01-.407-.922zM233.883 53.844c0 1.385-.287 2.45-.86 3.195-.572.745-1.38 1.117-2.421 1.117-.86 0-1.553-.34-2.079-1.023l-.109.867h-2.359V46h2.633v4.227c.489-.558 1.122-.836 1.898-.836 1.052 0 1.865.377 2.437 1.132.573.756.86 1.818.86 3.188v.133zm-2.641-.164c0-.813-.109-1.39-.328-1.735-.213-.349-.544-.523-.992-.523-.594 0-1.005.226-1.234.68v3.359c.223.448.64.672 1.25.672.619 0 1.013-.302 1.179-.906.084-.297.125-.813.125-1.547zM240.164 51.93l-.867-.063c-.828 0-1.359.26-1.594.781V58h-2.633v-8.453h2.469l.086 1.086c.443-.828 1.06-1.242 1.852-1.242.281 0 .526.03.734.093l-.047 2.446zM245.641 58c-.094-.172-.177-.425-.25-.758-.485.61-1.162.914-2.032.914-.797 0-1.474-.24-2.031-.718-.557-.485-.836-1.092-.836-1.82 0-.918.339-1.61 1.016-2.079.677-.469 1.661-.703 2.953-.703h.812v-.445c0-.776-.335-1.164-1.007-1.164-.625 0-.938.307-.938.921h-2.633c0-.817.347-1.481 1.039-1.992.698-.51 1.586-.765 2.664-.765 1.079 0 1.93.263 2.555.789.625.526.945 1.247.961 2.164v3.742c.01.776.13 1.37.359 1.781V58h-2.632zm-1.649-1.719c.328 0 .599-.07.813-.21.218-.141.375-.3.468-.477v-1.352h-.765c-.917 0-1.375.412-1.375 1.235 0 .24.081.434.242.586a.885.885 0 00.617.218zM254.492 51.93l-.867-.063c-.828 0-1.359.26-1.594.781V58h-2.633v-8.453h2.469l.086 1.086c.443-.828 1.06-1.242 1.852-1.242.281 0 .526.03.734.093l-.047 2.446zM258.961 54.313l1.406-4.766h2.821l-3.446 9.867-.148.36c-.49 1.093-1.354 1.64-2.594 1.64-.344 0-.706-.052-1.086-.156v-1.883h.344c.37 0 .651-.055.844-.164.197-.104.343-.294.437-.57l.211-.563-2.938-8.531h2.813l1.336 4.766z"/><path fill="#373A40" fill-rule="evenodd" d="M362.462 43h63.076A9.462 9.462 0 01435 52.462v63.076a9.462 9.462 0 01-9.462 9.462h-63.076a9.462 9.462 0 01-9.462-9.462V52.462A9.462 9.462 0 01362.462 43zm0 6.308a3.154 3.154 0 00-3.154 3.154v36.985l10.608-10.608a2.838 2.838 0 014.082.07l22.358 23.952 17.714-17.714a2.838 2.838 0 014.014 0l10.608 10.608V52.462a3.154 3.154 0 00-3.154-3.154h-63.076zm-3.154 66.23V97.476l12.545-12.545 22.343 23.935 8.894 9.826h-40.628a3.154 3.154 0 01-3.154-3.154zm66.23 3.154h-14.791l-10.544-11.65 15.874-15.874 12.615 12.615v11.755a3.154 3.154 0 01-3.154 3.154zm-36.904-47.307a5.366 5.366 0 1110.732-.001 5.366 5.366 0 01-10.732 0zM394 60.34c-6.099 0-11.043 4.944-11.043 11.044 0 6.099 4.944 11.043 11.043 11.043 6.099 0 11.043-4.944 11.043-11.043 0-6.1-4.944-11.044-11.043-11.044z" clip-rule="evenodd"/></svg>
