<svg xmlns="http://www.w3.org/2000/svg" fill="none" viewBox="0 0 500 250"><path fill="#373A40" d="M64 0h131v250H64z"/><path fill="#5C5F66" d="M75 21a7 7 0 017-7h94a7 7 0 110 14H82a7 7 0 01-7-7z"/><path fill="#373A40" d="M213 0h222v50c0 7.18-5.82 13-13 13H226c-7.18 0-13-5.82-13-13V0zM213 95c0-7.18 5.82-13 13-13h196c7.18 0 13 5.82 13 13v155H213V95z"/><path fill="#5C5F66" d="M98 55a2 2 0 012-2h49a2 2 0 110 4h-49a2 2 0 01-2-2z"/><rect width="10" height="10" x="76" y="50" fill="#5C5F66" rx="5"/><path fill="#5C5F66" d="M98 75a2 2 0 012-2h69a2 2 0 110 4h-69a2 2 0 01-2-2z"/><rect width="10" height="10" x="76" y="70" fill="#5C5F66" rx="5"/><path fill="#5C5F66" d="M98 95a2 2 0 012-2h47a2 2 0 110 4h-47a2 2 0 01-2-2z"/><rect width="10" height="10" x="76" y="90" fill="#5C5F66" rx="5"/><path fill="#5C5F66" d="M98 115a2 2 0 012-2h68a2 2 0 110 4h-68a2 2 0 01-2-2z"/><rect width="10" height="10" x="76" y="110" fill="#5C5F66" rx="5"/><path fill="#5C5F66" d="M98 135a2 2 0 012-2h71a2 2 0 110 4h-71a2 2 0 01-2-2z"/><rect width="10" height="10" x="76" y="130" fill="#5C5F66" rx="5"/><rect width="17" height="17" x="76" y="226" fill="#5C5F66" rx="8.5"/><rect width="73" height="4" x="101" y="229" fill="#5C5F66" rx="2"/><rect width="34" height="3" x="101" y="235" fill="#5C5F66" rx="1.5"/><path fill="#141517" fill-rule="evenodd" d="M81.808 231h5.384c.446 0 .808.362.808.808v5.384a.808.808 0 01-.808.808h-5.384a.808.808 0 01-.808-.808v-5.384c0-.446.362-.808.808-.808zm0 .538a.27.27 0 00-.27.27v3.157l.906-.906a.245.245 0 01.176-.071.246.246 0 01.172.077l1.91 2.045 1.511-1.512a.242.242 0 01.343 0l.906.905v-3.695a.27.27 0 00-.27-.27h-5.384zm-.27 5.654v-1.542l1.071-1.071 1.908 2.044.759.839h-3.468a.27.27 0 01-.27-.27zm5.654.27H85.93l-.9-.995 1.355-1.355 1.076 1.077v1.003a.27.27 0 01-.269.27zm-3.15-4.039a.458.458 0 11.916 0 .458.458 0 01-.916 0zm.458-.943a.943.943 0 100 1.885.943.943 0 000-1.885z" clip-rule="evenodd"/></svg>
