<svg xmlns="http://www.w3.org/2000/svg" fill="none" viewBox="0 0 500 250"><rect width="76" height="11" x="64" y="60" fill="#CED4DA" rx="5.5"/><rect width="120" height="11" x="165" y="60" fill="#CED4DA" rx="5.5"/><rect width="49" height="11" x="310" y="60" fill="#CED4DA" rx="5.5"/><rect width="51" height="11" x="384" y="60" fill="#CED4DA" rx="5.5"/><rect width="59" height="7" x="64" y="85" fill="#DEE2E6" rx="3.5"/><rect width="96" height="7" x="165" y="85" fill="#DEE2E6" rx="3.5"/><rect width="40" height="7" x="310" y="85" fill="#DEE2E6" rx="3.5"/><rect width="42" height="7" x="393" y="85" fill="#DEE2E6" rx="3.5"/><rect width="49" height="7" x="64" y="99" fill="#DEE2E6" rx="3.5"/><rect width="69" height="7" x="165" y="99" fill="#DEE2E6" rx="3.5"/><rect width="46" height="7" x="310" y="99" fill="#DEE2E6" rx="3.5"/><rect width="38" height="7" x="397" y="99" fill="#DEE2E6" rx="3.5"/><rect width="66" height="7" x="64" y="113" fill="#DEE2E6" rx="3.5"/><rect width="90" height="7" x="165" y="113" fill="#DEE2E6" rx="3.5"/><rect width="26" height="7" x="310" y="113" fill="#DEE2E6" rx="3.5"/><rect width="49" height="7" x="386" y="113" fill="#DEE2E6" rx="3.5"/><rect width="59" height="7" x="64" y="127" fill="#DEE2E6" rx="3.5"/><rect width="96" height="7" x="165" y="127" fill="#DEE2E6" rx="3.5"/><rect width="40" height="7" x="310" y="127" fill="#DEE2E6" rx="3.5"/><rect width="42" height="7" x="393" y="127" fill="#DEE2E6" rx="3.5"/><rect width="63" height="7" x="64" y="141" fill="#DEE2E6" rx="3.5"/><rect width="104" height="7" x="165" y="141" fill="#DEE2E6" rx="3.5"/><rect width="44" height="7" x="310" y="141" fill="#DEE2E6" rx="3.5"/><rect width="45" height="7" x="390" y="141" fill="#DEE2E6" rx="3.5"/><rect width="72" height="7" x="64" y="155" fill="#DEE2E6" rx="3.5"/><rect width="90" height="7" x="165" y="155" fill="#DEE2E6" rx="3.5"/><rect width="36" height="7" x="310" y="155" fill="#DEE2E6" rx="3.5"/><rect width="51" height="7" x="384" y="155" fill="#DEE2E6" rx="3.5"/><rect width="63" height="7" x="64" y="169" fill="#DEE2E6" rx="3.5"/><rect width="96" height="7" x="165" y="169" fill="#DEE2E6" rx="3.5"/><rect width="40" height="7" x="310" y="169" fill="#DEE2E6" rx="3.5"/><rect width="42" height="7" x="393" y="169" fill="#DEE2E6" rx="3.5"/><rect width="51" height="7" x="64" y="183" fill="#DEE2E6" rx="3.5"/><rect width="107" height="7" x="165" y="183" fill="#DEE2E6" rx="3.5"/><rect width="44" height="7" x="310" y="183" fill="#DEE2E6" rx="3.5"/><rect width="42" height="7" x="393" y="183" fill="#DEE2E6" rx="3.5"/></svg>
