<svg xmlns="http://www.w3.org/2000/svg" fill="none" viewBox="0 0 500 250"><rect width="100" height="4" x="198" y="57" fill="#DEE2E6" rx="2"/><rect width="82" height="4" x="198" y="76" fill="#DEE2E6" rx="2"/><rect width="110" height="4" x="198" y="95" fill="#DEE2E6" rx="2"/><rect width="73" height="4" x="198" y="133" fill="#DEE2E6" rx="2"/><rect width="105" height="4" x="198" y="152" fill="#DEE2E6" rx="2"/><rect width="87" height="4" x="198" y="171" fill="#DEE2E6" rx="2"/><rect width="56" height="4" x="198" y="190" fill="#DEE2E6" rx="2"/><path fill="#DEE2E6" d="M186 51h1v149h-1z"/><path fill="#15AABF" d="M186 108h125a3 3 0 013 3v10a3 3 0 01-3 3H186v-16z"/><rect width="80" height="4" x="198" y="114" fill="#fff" rx="2"/></svg>
