<svg width="16" height="12" viewBox="0 0 16 12" fill="none" xmlns="http://www.w3.org/2000/svg">
<mask id="mask0" mask-type="alpha" maskUnits="userSpaceOnUse" x="0" y="0" width="16" height="12">
<rect width="16" height="12" fill="white"/>
</mask>
<g mask="url(#mask0)">
<rect width="16" height="12" fill="#67BD23"/>
<path d="M3.49086 2.28776C3.49086 2.28776 3.7462 3.45242 3.49086 3.22905C3.23551 3.00567 2.66819 3.85693 3.26083 3.54299C3.85347 3.22905 3.95779 2.90364 3.95779 3.54299C3.95779 4.18234 4.24118 3.85704 3.75101 4.33227C3.26083 4.8075 5.46903 4.81492 4.47994 5.11239C3.49086 5.40985 3.02207 6.04407 3.75101 5.81088C4.47994 5.57768 5.65344 4.59 5.34714 4.33227C5.04083 4.07454 5.19142 4.12734 5.19142 3.54299C5.19142 2.95864 4.99696 2.80794 4.74347 2.65703C4.48998 2.50611 5.72972 3.67776 6.14395 2.98276C6.55817 2.28776 6.50831 2.73647 6.80774 2.98276C7.10717 3.22905 7.57345 3.52629 7.57345 2.98276C7.57345 2.43922 8.18824 1.39045 8.18824 2.46672C8.18824 3.54299 8.95992 4.0994 8.95992 3.37822C8.95992 2.65703 9.66958 1.95068 9.66958 2.46672C9.66958 2.98276 10.077 2.95886 10.4252 2.80794C10.7735 2.65703 10.744 2.25884 10.744 3.37822C10.744 4.49759 10.8899 6.24692 10.4252 6.09945C9.9606 5.95197 10.3949 5.28633 9.95984 4.33227C9.52477 3.37822 10.4032 3.37483 9.49531 4.59285C8.58741 5.81088 8.73159 5.63192 8.45992 5.11239C8.18824 4.59285 9.34639 4.07169 8.45992 4.33227C7.57345 4.59285 8.05533 6.05149 7.81439 5.58194C7.57345 5.11239 6.95797 2.61807 6.88285 3.86523C6.80774 5.11239 7.11941 5.81088 6.45992 5.81088C5.80043 5.81088 5.2426 5.86129 5.69327 5.58194C6.14395 5.30259 6.14395 4.33227 6.14395 4.33227" stroke="white" stroke-width="0.5"/>
<path fill-rule="evenodd" clip-rule="evenodd" d="M6.96684 7.92775C6.56023 7.97698 4.50554 7.96855 3.89174 7.82047C3.75422 7.79146 3.83284 8.41861 3.92182 8.56273C4.01081 8.70686 4.70934 8.85126 4.95289 8.88451C5.16187 8.91305 5.96705 8.86813 6.804 8.82144C6.94247 8.81372 7.0818 8.80594 7.21946 8.79845C7.95219 8.75854 9.0226 8.82809 9.58236 8.86446C9.76336 8.87622 9.89098 8.88451 9.93651 8.88451C10.1081 8.88451 10.0952 8.94241 10.0693 9.05875C10.067 9.06879 10.0647 9.07926 10.0624 9.09017C10.0331 9.22751 10.1869 9.52249 10.2547 9.55023C10.3225 9.57798 10.8269 9.55023 11.1017 9.44419C11.2581 9.38383 11.2766 9.39219 11.3173 9.41059C11.3481 9.42452 11.3917 9.44419 11.5173 9.44419C11.7061 9.44419 11.7159 9.17387 11.7228 8.98302C11.7266 8.87891 11.7295 8.79845 11.7601 8.79845C11.7945 8.79845 11.8407 8.90053 11.8839 8.99608C11.9498 9.14179 12.0088 9.27234 12.0088 9.00262C12.0088 8.55604 11.4836 7.97121 11.3119 8.018C11.1915 8.05081 10.9933 8.01462 10.8587 7.99005C10.8013 7.97957 10.7555 7.97121 10.7323 7.97121C10.6986 7.97121 10.7087 7.96305 10.731 7.94506C10.7601 7.92155 10.8101 7.88125 10.8101 7.82047C10.8101 7.71318 10.708 7.698 10.623 7.698C10.538 7.698 10.4926 7.76747 10.4926 7.82047C10.4926 7.87346 10.5567 7.92775 10.5567 7.92775C10.5434 7.92775 10.4763 7.92686 10.3692 7.92545C9.67812 7.91631 7.31889 7.88512 6.96684 7.92775ZM10.4375 8.873C10.4375 8.8729 10.4916 8.84155 10.617 8.68698C10.7558 8.51583 10.8049 8.57054 10.8561 8.62756C10.8825 8.65696 10.9094 8.68698 10.9495 8.68698C11.0673 8.68698 11.2229 8.68698 11.3241 8.77287C11.4253 8.85877 11.1909 8.97684 11.1227 8.97684C11.0888 8.97684 11.0637 8.9557 11.0385 8.93439C11.0129 8.91275 10.987 8.89094 10.9515 8.89094C10.9097 8.89094 10.8745 8.92127 10.8459 8.94588C10.8264 8.96269 10.8099 8.97684 10.7966 8.97684C10.785 8.97684 10.7592 8.9621 10.7257 8.94303C10.6646 8.90814 10.5781 8.85877 10.5069 8.85877C10.4625 8.85877 10.4376 8.87307 10.4375 8.873Z" fill="white"/>
<path d="M3.89174 7.82047L3.90347 7.77184L3.90206 7.77154L3.89174 7.82047ZM6.96684 7.92775L6.97285 7.97739L6.96684 7.92775ZM3.92182 8.56273L3.96437 8.53646L3.92182 8.56273ZM4.95289 8.88451L4.95966 8.83497L4.95289 8.88451ZM6.804 8.82144L6.80121 8.77152L6.804 8.82144ZM7.21946 8.79845L7.22217 8.84837L7.21946 8.79845ZM9.58236 8.86446L9.57912 8.91436L9.58236 8.86446ZM10.0693 9.05875L10.1181 9.06962V9.06962L10.0693 9.05875ZM10.0624 9.09017L10.0135 9.07977V9.07977L10.0624 9.09017ZM11.1017 9.44419L11.1197 9.49084L11.1017 9.44419ZM11.3173 9.41059L11.3379 9.36503V9.36503L11.3173 9.41059ZM11.7228 8.98302L11.7728 8.98484V8.98484L11.7228 8.98302ZM11.8839 8.99608L11.9294 8.97549V8.97549L11.8839 8.99608ZM11.3119 8.018L11.2988 7.96976V7.96976L11.3119 8.018ZM10.8587 7.99005L10.8497 8.03924L10.8587 7.99005ZM10.731 7.94506L10.6996 7.90614V7.90614L10.731 7.94506ZM10.5567 7.92775V7.97775H10.693L10.589 7.88961L10.5567 7.92775ZM10.3692 7.92545L10.3686 7.97544L10.3692 7.92545ZM10.617 8.68698L10.6558 8.71848L10.617 8.68698ZM10.4375 8.873L10.4809 8.84809L10.4808 8.84792L10.4375 8.873ZM10.8561 8.62756L10.8189 8.66096L10.8189 8.66096L10.8561 8.62756ZM11.3241 8.77287L11.3565 8.73475L11.3241 8.77287ZM11.0385 8.93439L11.0062 8.97259L11.0385 8.93439ZM10.8459 8.94588L10.8785 8.98377L10.8459 8.94588ZM10.7257 8.94303L10.7505 8.8996L10.7257 8.94303ZM10.5069 8.85877V8.80877V8.85877ZM3.88001 7.86907C4.19311 7.94461 4.86587 7.98365 5.50586 7.99809C6.14663 8.01254 6.76545 8.0025 6.97285 7.97739L6.96083 7.87811C6.76162 7.90223 6.14979 7.91259 5.50812 7.89811C4.86566 7.88362 4.20417 7.84441 3.90347 7.77186L3.88001 7.86907ZM3.96437 8.53646C3.94684 8.50807 3.92664 8.44899 3.90902 8.37087C3.89182 8.29462 3.8783 8.20598 3.87169 8.12272C3.86501 8.03861 3.86569 7.96358 3.87507 7.91307C3.8799 7.88708 3.88604 7.87335 3.8901 7.86785C3.8917 7.86569 3.89141 7.86697 3.88843 7.86827C3.88496 7.86978 3.88201 7.86951 3.88142 7.86939L3.90206 7.77154C3.88428 7.76779 3.86583 7.76902 3.84844 7.77661C3.83156 7.78398 3.81894 7.7959 3.8097 7.80839C3.79209 7.8322 3.7825 7.86383 3.77675 7.89481C3.76498 7.95824 3.76509 8.04357 3.772 8.13063C3.77898 8.21855 3.7932 8.3119 3.81147 8.39287C3.82931 8.47197 3.85232 8.54533 3.87928 8.589L3.96437 8.53646ZM4.95966 8.83497C4.84 8.81864 4.60657 8.77465 4.39241 8.71692C4.28527 8.68805 4.18442 8.65612 4.10556 8.62303C4.0661 8.60647 4.03333 8.59011 4.00845 8.57434C3.98266 8.55799 3.96957 8.54489 3.96437 8.53646L3.87928 8.589C3.89633 8.61661 3.92453 8.63954 3.95492 8.6588C3.98622 8.67865 4.02453 8.69748 4.06687 8.71524C4.15163 8.75081 4.25732 8.78408 4.36638 8.81348C4.58462 8.8723 4.82223 8.91714 4.94613 8.93406L4.95966 8.83497ZM6.80121 8.77152C6.38261 8.79487 5.9725 8.81775 5.64093 8.83123C5.30697 8.84481 5.05871 8.8485 4.95966 8.83497L4.94613 8.93406C5.05605 8.94906 5.31488 8.94457 5.64499 8.93115C5.97748 8.91763 6.38843 8.8947 6.80678 8.87136L6.80121 8.77152ZM7.21674 8.74852C7.07905 8.75602 6.93967 8.7638 6.80121 8.77152L6.80678 8.87136C6.94526 8.86364 7.08456 8.85587 7.22217 8.84837L7.21674 8.74852ZM9.5856 8.81457C9.02679 8.77826 7.95308 8.70842 7.21674 8.74852L7.22217 8.84837C7.95129 8.80866 9.01841 8.87792 9.57912 8.91436L9.5856 8.81457ZM9.93651 8.83451C9.8931 8.83451 9.76799 8.82642 9.5856 8.81457L9.57912 8.91436C9.75874 8.92603 9.88885 8.93451 9.93651 8.93451V8.83451ZM10.1181 9.06962C10.1243 9.0415 10.1308 9.01282 10.1333 8.98741C10.1358 8.96223 10.1355 8.93241 10.1214 8.90507C10.1062 8.8756 10.0798 8.85782 10.0486 8.84778C10.0187 8.83818 9.98129 8.83451 9.93651 8.83451V8.93451C9.97751 8.93451 10.0028 8.93809 10.018 8.94297C10.0252 8.9453 10.0288 8.94753 10.0305 8.9488C10.0319 8.94987 10.0323 8.95051 10.0325 8.95094C10.0334 8.95262 10.0357 8.95909 10.0338 8.97748C10.032 8.99564 10.0271 9.01783 10.0204 9.04787L10.1181 9.06962ZM10.1113 9.10058C10.1135 9.08994 10.1158 9.07969 10.1181 9.06962L10.0204 9.04787C10.0182 9.05788 10.0158 9.06859 10.0135 9.07977L10.1113 9.10058ZM10.2737 9.50396C10.2748 9.50443 10.2708 9.50271 10.2617 9.49336C10.2535 9.48488 10.2438 9.47281 10.233 9.45736C10.2115 9.42654 10.1883 9.38546 10.1676 9.34046C10.147 9.29547 10.1296 9.24797 10.1192 9.20443C10.1085 9.1598 10.1062 9.12418 10.1113 9.10058L10.0135 9.07977C10.0039 9.12484 10.0099 9.17759 10.0219 9.22776C10.0342 9.27903 10.0541 9.33275 10.0767 9.38214C10.0994 9.43152 10.1255 9.47797 10.151 9.51455C10.1637 9.53281 10.1768 9.54941 10.1899 9.56291C10.2021 9.57553 10.2177 9.5891 10.2358 9.59651L10.2737 9.50396ZM11.0837 9.39754C10.9526 9.44813 10.7631 9.48104 10.5956 9.49763C10.5124 9.50586 10.436 9.50994 10.3767 9.51028C10.347 9.51046 10.3222 9.50969 10.3034 9.50816C10.2939 9.50739 10.2865 9.50647 10.2809 9.50551C10.2749 9.50447 10.273 9.50369 10.2737 9.50396L10.2358 9.59651C10.2522 9.60321 10.2745 9.60614 10.2953 9.60783C10.318 9.60967 10.3459 9.61046 10.3773 9.61028C10.4402 9.60991 10.5198 9.60562 10.6055 9.59714C10.7758 9.58027 10.9759 9.5463 11.1197 9.49084L11.0837 9.39754ZM11.3379 9.36503C11.3284 9.36074 11.3155 9.35473 11.3003 9.35103C11.2841 9.34705 11.2672 9.34602 11.2475 9.34814C11.2109 9.35209 11.1615 9.3675 11.0837 9.39754L11.1197 9.49084C11.1982 9.46052 11.2363 9.44993 11.2582 9.44756C11.2678 9.44653 11.2729 9.44727 11.2765 9.44815C11.2812 9.4493 11.2858 9.45124 11.2967 9.45615L11.3379 9.36503ZM11.5173 9.39419C11.457 9.39419 11.4184 9.38946 11.3924 9.38377C11.3671 9.37823 11.3523 9.37155 11.3379 9.36503L11.2967 9.45615C11.3131 9.46356 11.3355 9.47367 11.3711 9.48146C11.4059 9.48909 11.452 9.49419 11.5173 9.49419V9.39419ZM11.6728 8.98121C11.6693 9.07834 11.6651 9.18684 11.6403 9.27106C11.628 9.31278 11.6119 9.3439 11.5923 9.3641C11.574 9.3828 11.5509 9.39419 11.5173 9.39419V9.49419C11.5781 9.49419 11.627 9.47179 11.6639 9.43385C11.6994 9.39739 11.7216 9.349 11.7362 9.29929C11.7652 9.20064 11.7694 9.07856 11.7728 8.98484L11.6728 8.98121ZM11.7601 8.74845C11.7251 8.74845 11.7058 8.77334 11.6973 8.79006C11.689 8.80654 11.6847 8.82629 11.682 8.84418C11.6764 8.88082 11.6747 8.93037 11.6728 8.98121L11.7728 8.98484C11.7747 8.93156 11.7763 8.88882 11.7808 8.8592C11.7831 8.84397 11.7856 8.83709 11.7865 8.83523C11.7873 8.83361 11.7798 8.84845 11.7601 8.84845V8.74845ZM11.9294 8.97549C11.9081 8.92839 11.8848 8.87665 11.8622 8.83678C11.851 8.81698 11.8386 8.79765 11.8253 8.78267C11.8143 8.77038 11.7921 8.74845 11.7601 8.74845V8.84845C11.7454 8.84845 11.7418 8.83928 11.7505 8.84911C11.7569 8.85625 11.7652 8.86842 11.7752 8.88609C11.7951 8.92114 11.8164 8.96822 11.8383 9.01668L11.9294 8.97549ZM11.9588 9.00262C11.9588 9.03554 11.9579 9.06159 11.9563 9.0818C11.9546 9.10241 11.9524 9.1152 11.9504 9.12238C11.9494 9.12593 11.9488 9.12662 11.9494 9.12566C11.9498 9.12491 11.9527 9.11988 11.9596 9.11541C11.9678 9.11015 11.9779 9.10815 11.9873 9.10969C11.9953 9.11099 12 9.11435 12.0009 9.11505C12.002 9.1159 12.0018 9.11592 12.0001 9.114C11.9986 9.11222 11.9966 9.10949 11.994 9.10559C11.9887 9.09771 11.9826 9.08698 11.9756 9.07348C11.9615 9.04641 11.9461 9.0123 11.9294 8.97549L11.8383 9.01668C11.8546 9.05272 11.8713 9.08957 11.8868 9.11953C11.8946 9.13455 11.9026 9.14885 11.9107 9.16101C11.9182 9.17224 11.9283 9.18566 11.9411 9.19522C11.9478 9.20021 11.958 9.20622 11.9712 9.20838C11.9858 9.21077 12.0008 9.20781 12.0136 9.19959C12.035 9.18589 12.043 9.16251 12.0467 9.14937C12.0553 9.11862 12.0588 9.06994 12.0588 9.00262H11.9588ZM11.3251 8.06624C11.3313 8.06454 11.3461 8.06434 11.3725 8.07495C11.3979 8.08515 11.4286 8.10323 11.4632 8.12926C11.5322 8.1812 11.6109 8.26045 11.6853 8.35601C11.8354 8.54887 11.9588 8.79581 11.9588 9.00262H12.0588C12.0588 8.76285 11.9195 8.49408 11.7642 8.29458C11.6859 8.19396 11.6011 8.10787 11.5233 8.04936C11.4845 8.02016 11.446 7.99674 11.4098 7.98217C11.3746 7.968 11.3354 7.95977 11.2988 7.96976L11.3251 8.06624ZM10.8497 8.03924C10.9167 8.05147 11.0019 8.06705 11.0857 8.0753C11.1684 8.08344 11.2556 8.08516 11.3251 8.06624L11.2988 7.96976C11.2478 7.98365 11.1758 7.98368 11.0955 7.97578C11.0165 7.968 10.9353 7.9532 10.8677 7.94086L10.8497 8.03924ZM10.7323 8.02121C10.7395 8.02121 10.7533 8.02268 10.7749 8.02609C10.7957 8.02938 10.8209 8.03396 10.8497 8.03924L10.8677 7.94086C10.8392 7.93566 10.8128 7.93083 10.7905 7.92731C10.7691 7.92393 10.7483 7.92121 10.7323 7.92121V8.02121ZM10.6996 7.90614C10.6945 7.91023 10.6882 7.91533 10.6831 7.92005C10.6805 7.92246 10.677 7.92585 10.6737 7.92994C10.671 7.93335 10.6651 7.94117 10.6622 7.95244C10.6586 7.96658 10.6603 7.98469 10.6727 7.99968C10.6826 8.01151 10.6948 8.01586 10.7002 8.0175C10.7114 8.0209 10.7237 8.02121 10.7323 8.02121V7.92121C10.724 7.92121 10.7249 7.9205 10.7292 7.92181C10.7312 7.9224 10.7411 7.92544 10.7496 7.93568C10.7543 7.9414 10.7581 7.94866 10.7597 7.95703C10.7612 7.96513 10.7604 7.97219 10.759 7.97733C10.7567 7.98644 10.7522 7.99184 10.7517 7.99254C10.7506 7.99392 10.75 7.99431 10.751 7.99342C10.753 7.99156 10.7563 7.98889 10.7624 7.98399L10.6996 7.90614ZM10.7601 7.82047C10.7601 7.83626 10.7538 7.85096 10.7421 7.86592C10.73 7.88142 10.7145 7.8941 10.6996 7.90614L10.7624 7.98399C10.7766 7.97252 10.8007 7.95329 10.8208 7.92757C10.8414 7.9013 10.8601 7.86546 10.8601 7.82047H10.7601ZM10.623 7.748C10.6644 7.748 10.7015 7.75205 10.7269 7.76415C10.7387 7.76975 10.7463 7.7763 10.7511 7.78362C10.7558 7.79074 10.7601 7.80188 10.7601 7.82047H10.8601C10.8601 7.78541 10.8516 7.75442 10.8345 7.72852C10.8176 7.70282 10.7943 7.68546 10.7699 7.67385C10.723 7.65154 10.6666 7.648 10.623 7.648V7.748ZM10.5426 7.82047C10.5426 7.79085 10.5697 7.748 10.623 7.748V7.648C10.5063 7.648 10.4426 7.7441 10.4426 7.82047H10.5426ZM10.5567 7.92775C10.589 7.88961 10.589 7.88962 10.589 7.88962C10.589 7.88963 10.589 7.88963 10.589 7.88964C10.5891 7.88964 10.5891 7.88965 10.5891 7.88966C10.5891 7.88967 10.5891 7.88968 10.5891 7.88969C10.5891 7.88971 10.5891 7.88971 10.5891 7.8897C10.5891 7.88968 10.589 7.88962 10.5889 7.8895C10.5886 7.88927 10.5882 7.88886 10.5875 7.88827C10.5862 7.8871 10.5842 7.88524 10.5818 7.88283C10.5768 7.87793 10.5703 7.87102 10.5638 7.86292C10.5492 7.84443 10.5426 7.82909 10.5426 7.82047H10.4426C10.4426 7.86483 10.4681 7.90314 10.4855 7.92504C10.4951 7.93714 10.5045 7.94711 10.5116 7.95405C10.5151 7.95755 10.5181 7.96035 10.5203 7.96235C10.5214 7.96335 10.5224 7.96416 10.523 7.96475C10.5234 7.96505 10.5237 7.96529 10.5239 7.96548C10.524 7.96558 10.5241 7.96566 10.5242 7.96573C10.5242 7.96576 10.5242 7.96579 10.5243 7.96582C10.5243 7.96583 10.5243 7.96584 10.5243 7.96586C10.5243 7.96586 10.5243 7.96587 10.5243 7.96587C10.5243 7.96588 10.5244 7.96589 10.5567 7.92775ZM10.3686 7.97544C10.4753 7.97685 10.5429 7.97775 10.5567 7.97775V7.87775C10.5438 7.87775 10.4773 7.87687 10.3699 7.87545L10.3686 7.97544ZM6.97285 7.97739C7.0575 7.96714 7.26778 7.96106 7.55031 7.95812C7.83142 7.95519 8.18063 7.95538 8.54064 7.95718C9.26061 7.96079 10.023 7.97087 10.3686 7.97544L10.3699 7.87545C10.0244 7.87088 9.26157 7.8608 8.54114 7.85719C8.18094 7.85538 7.83114 7.85519 7.54927 7.85812C7.26884 7.86104 7.0522 7.86705 6.96083 7.87811L6.97285 7.97739ZM10.5781 8.65547C10.5166 8.73137 10.4733 8.77606 10.4461 8.80132C10.4326 8.81393 10.4231 8.82163 10.4175 8.82591C10.4147 8.82804 10.4129 8.82934 10.412 8.82997C10.4115 8.83029 10.4112 8.83047 10.4111 8.83055C10.4109 8.83066 10.411 8.83058 10.4107 8.83079C10.4107 8.83079 10.4103 8.83108 10.4098 8.83142C10.4096 8.8315 10.4087 8.83212 10.4076 8.83297C10.4072 8.83322 10.4054 8.83456 10.4033 8.83651C10.4021 8.83776 10.3986 8.84158 10.3966 8.84425C10.3926 8.85099 10.3878 8.87865 10.3943 8.89808L10.4808 8.84792C10.4872 8.86736 10.4824 8.89501 10.4784 8.90175C10.4764 8.90442 10.473 8.90824 10.4717 8.90949C10.4696 8.91143 10.4678 8.91277 10.4675 8.91302C10.4664 8.91385 10.4655 8.91446 10.4654 8.91453C10.4651 8.91472 10.4649 8.91486 10.4648 8.91491C10.4647 8.91496 10.4646 8.915 10.4646 8.91501C10.4645 8.91508 10.465 8.9148 10.4652 8.91464C10.4659 8.91417 10.4669 8.91352 10.4682 8.91267C10.4707 8.91097 10.474 8.90859 10.4783 8.90535C10.4867 8.8989 10.4986 8.88908 10.5143 8.87452C10.5455 8.84543 10.592 8.79716 10.6558 8.71848L10.5781 8.65547ZM10.8933 8.59417C10.8813 8.58077 10.8653 8.56269 10.8467 8.54872C10.8269 8.5339 10.801 8.52118 10.7686 8.52171C10.7369 8.52223 10.7064 8.53527 10.6764 8.55697C10.6465 8.5786 10.6143 8.61096 10.5781 8.65547L10.6558 8.71848C10.6891 8.67743 10.7151 8.65244 10.735 8.63797C10.7549 8.62359 10.7659 8.62177 10.7702 8.6217C10.7738 8.62164 10.7785 8.6226 10.7867 8.62873C10.796 8.6357 10.8053 8.64585 10.8189 8.66096L10.8933 8.59417ZM10.9495 8.63698C10.9432 8.63698 10.9366 8.63495 10.9275 8.62816C10.9172 8.62052 10.9072 8.60967 10.8933 8.59417L10.8189 8.66096C10.8415 8.68618 10.8833 8.73698 10.9495 8.73698V8.63698ZM11.3565 8.73475C11.2963 8.68362 11.222 8.65986 11.1511 8.64836C11.0802 8.63687 11.0078 8.63698 10.9495 8.63698V8.73698C11.009 8.73698 11.0734 8.73708 11.1351 8.74707C11.1966 8.75705 11.2508 8.77623 11.2918 8.81099L11.3565 8.73475ZM11.1227 9.02684C11.1499 9.02684 11.1849 9.01623 11.2163 9.00325C11.2494 8.98956 11.2856 8.97023 11.3167 8.94728C11.3463 8.92539 11.3777 8.8955 11.3917 8.85877C11.3991 8.83916 11.402 8.81654 11.3956 8.79307C11.3892 8.7698 11.3749 8.75042 11.3565 8.73475L11.2918 8.81099C11.2952 8.81392 11.2971 8.81618 11.2981 8.81758C11.2985 8.81827 11.2988 8.81877 11.2989 8.81906C11.2991 8.81935 11.2991 8.81951 11.2991 8.81953C11.2991 8.81955 11.2991 8.81956 11.2991 8.81955C11.2991 8.81955 11.2991 8.81954 11.2991 8.81955C11.2991 8.81955 11.2991 8.81957 11.2991 8.81961C11.2991 8.81965 11.2991 8.81972 11.2991 8.81982C11.2991 8.82021 11.2989 8.8213 11.2982 8.82319C11.2946 8.83275 11.2821 8.84849 11.2572 8.86685C11.2338 8.88416 11.205 8.89971 11.1781 8.91085C11.1494 8.92269 11.1295 8.92684 11.1227 8.92684V9.02684ZM11.0062 8.97259C11.0287 8.99151 11.0675 9.02684 11.1227 9.02684V8.92684C11.11 8.92684 11.0988 8.91988 11.0708 8.89618L11.0062 8.97259ZM10.9515 8.94094C10.9659 8.94094 10.978 8.94876 11.0062 8.97259L11.0708 8.89618C11.0477 8.87674 11.0082 8.84094 10.9515 8.84094V8.94094ZM10.8785 8.98377C10.8933 8.97103 10.9062 8.9601 10.9196 8.95196C10.9327 8.94403 10.943 8.94094 10.9515 8.94094V8.84094C10.9183 8.84094 10.89 8.85302 10.8678 8.86641C10.8461 8.87958 10.827 8.89612 10.8133 8.90799L10.8785 8.98377ZM10.7966 9.02684C10.8193 9.02684 10.8376 9.01551 10.8472 9.00889C10.8582 9.00137 10.8694 8.99161 10.8785 8.98377L10.8133 8.90799C10.8028 8.91696 10.7961 8.92268 10.7906 8.92644C10.7881 8.92818 10.7872 8.92854 10.7875 8.92838C10.7879 8.92824 10.7912 8.92684 10.7966 8.92684V9.02684ZM10.701 8.98646C10.7172 8.99575 10.7334 9.00497 10.7469 9.01177C10.7537 9.01519 10.761 9.01856 10.7681 9.02117C10.7743 9.02343 10.7847 9.02684 10.7966 9.02684V8.92684C10.8027 8.92684 10.8056 8.9284 10.8026 8.9273C10.8005 8.92655 10.7971 8.92505 10.7918 8.9224C10.7812 8.91706 10.7677 8.90938 10.7505 8.8996L10.701 8.98646ZM10.5069 8.90877C10.5322 8.90877 10.564 8.91786 10.6 8.93362C10.6354 8.94909 10.6701 8.96883 10.701 8.98646L10.7505 8.8996C10.7203 8.88234 10.6811 8.85994 10.6401 8.84201C10.5998 8.82436 10.5528 8.80877 10.5069 8.80877V8.90877ZM10.3942 8.89791C10.4041 8.91017 10.4253 8.92149 10.4337 8.92286C10.438 8.923 10.4447 8.92248 10.4471 8.92208C10.4511 8.9213 10.4541 8.92019 10.4547 8.91995C10.4567 8.91922 10.4582 8.91852 10.4585 8.9184C10.4594 8.91798 10.4601 8.91762 10.4602 8.91758C10.4604 8.91748 10.4606 8.91738 10.4606 8.91735C10.4607 8.91732 10.4608 8.91727 10.4608 8.91727C10.4609 8.91722 10.4609 8.91719 10.461 8.91716C10.4611 8.9171 10.4615 8.9169 10.4622 8.9166C10.4636 8.91599 10.4662 8.91493 10.47 8.91377C10.4777 8.91147 10.4901 8.90877 10.5069 8.90877V8.80877C10.4793 8.80877 10.4571 8.81322 10.4411 8.81805C10.4331 8.82046 10.4268 8.82296 10.4221 8.82501C10.4197 8.82604 10.4178 8.82695 10.4164 8.82766C10.4157 8.82801 10.4151 8.82829 10.4149 8.82844C10.4146 8.82857 10.4148 8.82846 10.415 8.82835C10.415 8.82834 10.4157 8.82799 10.4166 8.82759C10.4169 8.82748 10.4184 8.82678 10.4203 8.82605C10.421 8.82582 10.424 8.82471 10.4279 8.82393C10.4304 8.82352 10.4371 8.823 10.4414 8.82315C10.4497 8.82451 10.471 8.83583 10.4809 8.84809L10.3942 8.89791Z" fill="white"/>
<path d="M13.1161 2.3728C13.1161 2.3728 13.9232 6.00007 13.1161 6.00007C12.3091 6.00007 12.3091 5.68368 12.3091 5.68368C12.3091 5.68368 13.1953 6.09125 12.9503 5.02545C12.7052 3.95966 12.4765 4.6934 12.4765 3.75614C12.4765 2.81889 12.3091 2.19013 12.3091 2.6694C12.3091 3.14866 12.198 6.04367 11.7602 5.45147C11.3224 4.85926 11.4288 3.02535 11.4288 2.84738" stroke="white" stroke-width="0.5"/>
</g>
</svg>
