<svg width="16" height="12" viewBox="0 0 16 12" fill="none" xmlns="http://www.w3.org/2000/svg">
<mask id="mask0" mask-type="alpha" maskUnits="userSpaceOnUse" x="0" y="0" width="16" height="12">
<rect width="16" height="12" fill="white"/>
</mask>
<g mask="url(#mask0)">
<path fill-rule="evenodd" clip-rule="evenodd" d="M0 0V12H16V0H0Z" fill="#29C470"/>
<mask id="mask1" mask-type="alpha" maskUnits="userSpaceOnUse" x="0" y="0" width="16" height="12">
<path fill-rule="evenodd" clip-rule="evenodd" d="M0 0V12H16V0H0Z" fill="white"/>
</mask>
<g mask="url(#mask1)">
<rect x="1" y="-0.161377" width="5" height="13.1615" fill="#C51918"/>
<mask id="mask2" mask-type="alpha" maskUnits="userSpaceOnUse" x="1" y="-1" width="5" height="14">
<rect x="1" y="-0.161377" width="5" height="13.1615" fill="white"/>
</mask>
<g mask="url(#mask2)">
<path fill-rule="evenodd" clip-rule="evenodd" d="M1.29768 0.452813L1.02463 0.803672L1 0.779317L1.26491 0.43891V0.370577L1.26591 0.364229L1.29671 0.269388L1.27786 0.236349L1.12163 0.392556L1.42278 -0.076449V0.0838128L1.48057 0.135977L1.61861 -0.105454L1.4801 -0.337812L1.38014 -0.260993L1.42068 -0.17956L1.39281 -0.160205L1.16715 -0.537715L1.31091 -0.439416L1.33624 -0.476137L1.19848 -0.616462L1.25941 -0.683567L1.05807 -0.977425L1.084 -1L1.30317 -0.680123L1.24632 -0.617511L1.38078 -0.480546L1.31887 -0.390776L1.27764 -0.418968L1.3563 -0.287371L1.4889 -0.389275L1.65783 -0.105877L1.48844 0.190395L1.39001 0.101553V0.0375752L1.2912 0.191457L1.33308 0.264847L1.29768 0.373851V0.452813ZM1.02463 3.31512L1.29768 2.96426V2.8853L1.33308 2.77629L1.2912 2.7029L1.39001 2.54902V2.613L1.48844 2.70184L1.65783 2.40557L1.4889 2.12217L1.3563 2.22408L1.27764 2.09248L1.31887 2.12067L1.38078 2.0309L1.24632 1.89394L1.30317 1.83132L1.084 1.51145L1.05807 1.53402L1.25941 1.82788L1.19848 1.89499L1.33624 2.03531L1.31091 2.07203L1.16715 1.97373L1.39281 2.35124L1.42068 2.33189L1.38014 2.25045L1.4801 2.17364L1.61861 2.40599L1.48057 2.64742L1.42278 2.59526V2.435L1.12163 2.904L1.27786 2.7478L1.29671 2.78083L1.26591 2.87568L1.26491 2.88202V2.95036L1 3.29076L1.02463 3.31512ZM1.29768 5.25411L1.02463 5.60497L1 5.58061L1.26491 5.24021V5.17187L1.26591 5.16553L1.29671 5.07068L1.27786 5.03764L1.12163 5.19385L1.42278 4.72485V4.88511L1.48057 4.93727L1.61861 4.69584L1.4801 4.46348L1.38014 4.5403L1.42068 4.62174L1.39281 4.64109L1.16715 4.26358L1.31091 4.36188L1.33624 4.32516L1.19848 4.18483L1.25941 4.11773L1.05807 3.82387L1.084 3.8013L1.30317 4.12117L1.24632 4.18378L1.38078 4.32075L1.31887 4.41052L1.27764 4.38233L1.3563 4.51392L1.4889 4.41202L1.65783 4.69542L1.48844 4.99169L1.39001 4.90285V4.83887L1.2912 4.99275L1.33308 5.06614L1.29768 5.17515V5.25411ZM1.02463 7.93175L1.29768 7.58089V7.50193L1.33308 7.39293L1.2912 7.31954L1.39001 7.16565V7.22963L1.48844 7.31847L1.65783 7.0222L1.4889 6.7388L1.3563 6.84071L1.27764 6.70911L1.31887 6.7373L1.38078 6.64753L1.24632 6.51057L1.30317 6.44795L1.084 6.12808L1.05807 6.15065L1.25941 6.44451L1.19848 6.51162L1.33624 6.65194L1.31091 6.68866L1.16715 6.59036L1.39281 6.96787L1.42068 6.94852L1.38014 6.86708L1.4801 6.79027L1.61861 7.02262L1.48057 7.26406L1.42278 7.21189V7.05163L1.12163 7.52063L1.27786 7.36443L1.29671 7.39746L1.26591 7.49231L1.26491 7.49866V7.56699L1 7.90739L1.02463 7.93175ZM1.02463 10L1.29768 9.64914V9.57018L1.33308 9.46118L1.2912 9.38779L1.39001 9.2339V9.29788L1.48844 9.38672L1.65783 9.09045L1.4889 8.80705L1.3563 8.90896L1.27764 8.77736L1.31887 8.80555L1.38078 8.71578L1.24632 8.57882L1.30317 8.5162L1.084 8.19633L1.05807 8.2189L1.25941 8.51276L1.19848 8.57987L1.33624 8.72019L1.31091 8.75691L1.16715 8.65861L1.39281 9.03612L1.42068 9.01677L1.38014 8.93534L1.4801 8.85852L1.61861 9.09087L1.48057 9.33231L1.42278 9.28014V9.11988L1.12163 9.58888L1.27786 9.43268L1.29671 9.46572L1.26591 9.56056L1.26491 9.56691V9.63524L1 9.97565L1.02463 10ZM5.97537 10L5.70232 9.64914V9.57018L5.66692 9.46118L5.7088 9.38779L5.60999 9.2339V9.29788L5.51156 9.38672L5.34217 9.09045L5.5111 8.80705L5.6437 8.90896L5.72236 8.77736L5.68113 8.80555L5.61922 8.71578L5.75368 8.57882L5.69683 8.5162L5.916 8.19633L5.94193 8.2189L5.74059 8.51276L5.80152 8.57987L5.66376 8.72019L5.68909 8.75691L5.83285 8.65861L5.60719 9.03612L5.57932 9.01677L5.61986 8.93534L5.5199 8.85852L5.38139 9.09087L5.51943 9.33231L5.57722 9.28014V9.11988L5.87837 9.58888L5.72214 9.43268L5.70329 9.46572L5.73409 9.56056L5.73509 9.56691V9.63524L6 9.97565L5.97537 10ZM5.70232 7.58089L5.97537 7.93175L6 7.90739L5.73509 7.56699V7.49866L5.73409 7.49231L5.70329 7.39746L5.72214 7.36443L5.87837 7.52063L5.57722 7.05163V7.21189L5.51943 7.26406L5.38139 7.02262L5.5199 6.79027L5.61986 6.86708L5.57932 6.94852L5.60719 6.96787L5.83285 6.59036L5.68909 6.68866L5.66376 6.65194L5.80152 6.51162L5.74059 6.44451L5.94193 6.15065L5.916 6.12808L5.69683 6.44795L5.75368 6.51057L5.61922 6.64753L5.68113 6.7373L5.72236 6.70911L5.6437 6.84071L5.5111 6.7388L5.34217 7.0222L5.51156 7.31847L5.60999 7.22963V7.16565L5.7088 7.31954L5.66692 7.39293L5.70232 7.50193V7.58089ZM5.97537 5.60497L5.70232 5.25411V5.17515L5.66692 5.06614L5.7088 4.99275L5.60999 4.83887V4.90285L5.51156 4.99169L5.34217 4.69542L5.5111 4.41202L5.6437 4.51392L5.72236 4.38233L5.68113 4.41052L5.61922 4.32075L5.75368 4.18378L5.69683 4.12117L5.916 3.8013L5.94193 3.82387L5.74059 4.11773L5.80152 4.18483L5.66376 4.32516L5.68909 4.36188L5.83285 4.26358L5.60719 4.64109L5.57932 4.62174L5.61986 4.5403L5.5199 4.46348L5.38139 4.69584L5.51943 4.93727L5.57722 4.88511V4.72485L5.87837 5.19385L5.72214 5.03764L5.70329 5.07068L5.73409 5.16553L5.73509 5.17187V5.24021L6 5.58061L5.97537 5.60497ZM5.70232 2.96426L5.97537 3.31512L6 3.29076L5.73509 2.95036V2.88202L5.73409 2.87568L5.70329 2.78083L5.72214 2.7478L5.87837 2.904L5.57722 2.435V2.59526L5.51943 2.64742L5.38139 2.40599L5.5199 2.17364L5.61986 2.25045L5.57932 2.33189L5.60719 2.35124L5.83285 1.97373L5.68909 2.07203L5.66376 2.03531L5.80152 1.89499L5.74059 1.82788L5.94193 1.53402L5.916 1.51145L5.69683 1.83132L5.75368 1.89394L5.61922 2.0309L5.68113 2.12067L5.72236 2.09248L5.6437 2.22408L5.5111 2.12217L5.34217 2.40557L5.51156 2.70184L5.60999 2.613V2.54902L5.7088 2.7029L5.66692 2.77629L5.70232 2.8853V2.96426ZM5.97537 0.803672L5.70232 0.452813V0.373851L5.66692 0.264847L5.7088 0.191457L5.60999 0.0375752V0.101553L5.51156 0.190395L5.34217 -0.105877L5.5111 -0.389275L5.6437 -0.287371L5.72236 -0.418968L5.68113 -0.390776L5.61922 -0.480546L5.75368 -0.617511L5.69683 -0.680123L5.916 -1L5.94193 -0.977425L5.74059 -0.683567L5.80152 -0.616462L5.66376 -0.476137L5.68909 -0.439416L5.83285 -0.537715L5.60719 -0.160205L5.57932 -0.17956L5.61986 -0.260993L5.5199 -0.337812L5.38139 -0.105454L5.51943 0.135977L5.57722 0.0838128V-0.076449L5.87837 0.392556L5.72214 0.236349L5.70329 0.269388L5.73409 0.364229L5.73509 0.370577V0.43891L6 0.779317L5.97537 0.803672Z" fill="#E8AA00"/>
<path fill-rule="evenodd" clip-rule="evenodd" d="M3.65335 7.28246H4.4301V7.46475H4.60709V7.61058H4.81948V8.08454H4.60709V8.23038H4.4301V8.37621H3.67408L3.46492 8.5621L3.25476 8.37621H2.55399V8.23038H2.377V8.08454H2.20001V7.61058H2.377V7.46475H2.55399V7.28246H3.27558L3.46492 7.11499L3.65335 7.28246Z" fill="#389F5D"/>
<path d="M4.4301 7.28246H4.5051V7.20746H4.4301V7.28246ZM3.65335 7.28246L3.60353 7.33852L3.62484 7.35746H3.65335V7.28246ZM4.4301 7.46475H4.3551V7.53975H4.4301V7.46475ZM4.60709 7.46475H4.68209V7.38975H4.60709V7.46475ZM4.60709 7.61058H4.53209V7.68558H4.60709V7.61058ZM4.81948 7.61058H4.89448V7.53558H4.81948V7.61058ZM4.81948 8.08454V8.15954H4.89448V8.08454H4.81948ZM4.60709 8.08454V8.00954H4.53209V8.08454H4.60709ZM4.60709 8.23038V8.30538H4.68209V8.23038H4.60709ZM4.4301 8.23038V8.15538H4.3551V8.23038H4.4301ZM4.4301 8.37621V8.45121H4.5051V8.37621H4.4301ZM3.67408 8.37621V8.30121H3.64556L3.62425 8.32015L3.67408 8.37621ZM3.46492 8.5621L3.41522 8.61827L3.46503 8.66233L3.51474 8.61816L3.46492 8.5621ZM3.25476 8.37621L3.30445 8.32003L3.28317 8.30121H3.25476V8.37621ZM2.55399 8.37621H2.47899V8.45121H2.55399V8.37621ZM2.55399 8.23038H2.62899V8.15538H2.55399V8.23038ZM2.377 8.23038H2.302V8.30538H2.377V8.23038ZM2.377 8.08454H2.452V8.00954H2.377V8.08454ZM2.20001 8.08454H2.12501V8.15954H2.20001V8.08454ZM2.20001 7.61058V7.53558H2.12501V7.61058H2.20001ZM2.377 7.61058V7.68558H2.452V7.61058H2.377ZM2.377 7.46475V7.38975H2.302V7.46475H2.377ZM2.55399 7.46475V7.53975H2.62899V7.46475H2.55399ZM2.55399 7.28246V7.20746H2.47899V7.28246H2.55399ZM3.27558 7.28246V7.35746H3.30399L3.32527 7.33864L3.27558 7.28246ZM3.46492 7.11499L3.51474 7.05893L3.46503 7.01476L3.41523 7.05881L3.46492 7.11499ZM4.4301 7.20746H3.65335V7.35746H4.4301V7.20746ZM4.5051 7.46475V7.28246H4.3551V7.46475H4.5051ZM4.60709 7.38975H4.4301V7.53975H4.60709V7.38975ZM4.68209 7.61058V7.46475H4.53209V7.61058H4.68209ZM4.81948 7.53558H4.60709V7.68558H4.81948V7.53558ZM4.89448 8.08454V7.61058H4.74448V8.08454H4.89448ZM4.60709 8.15954H4.81948V8.00954H4.60709V8.15954ZM4.68209 8.23038V8.08454H4.53209V8.23038H4.68209ZM4.4301 8.30538H4.60709V8.15538H4.4301V8.30538ZM4.5051 8.37621V8.23038H4.3551V8.37621H4.5051ZM3.67408 8.45121H4.4301V8.30121H3.67408V8.45121ZM3.51474 8.61816L3.7239 8.43227L3.62425 8.32015L3.41509 8.50604L3.51474 8.61816ZM3.20507 8.43239L3.41522 8.61827L3.51461 8.50592L3.30445 8.32003L3.20507 8.43239ZM2.55399 8.45121H3.25476V8.30121H2.55399V8.45121ZM2.47899 8.23038V8.37621H2.62899V8.23038H2.47899ZM2.377 8.30538H2.55399V8.15538H2.377V8.30538ZM2.302 8.08454V8.23038H2.452V8.08454H2.302ZM2.20001 8.15954H2.377V8.00954H2.20001V8.15954ZM2.12501 7.61058V8.08454H2.27501V7.61058H2.12501ZM2.377 7.53558H2.20001V7.68558H2.377V7.53558ZM2.302 7.46475V7.61058H2.452V7.46475H2.302ZM2.55399 7.38975H2.377V7.53975H2.55399V7.38975ZM2.47899 7.28246V7.46475H2.62899V7.28246H2.47899ZM3.27558 7.20746H2.55399V7.35746H3.27558V7.20746ZM3.32527 7.33864L3.51461 7.17117L3.41523 7.05881L3.22589 7.22628L3.32527 7.33864ZM3.41509 7.17105L3.60353 7.33852L3.70317 7.2264L3.51474 7.05893L3.41509 7.17105Z" fill="#E8AA00"/>
<path fill-rule="evenodd" clip-rule="evenodd" d="M2.65762 7.70391V7.38184H3.03291L2.65762 7.70391ZM4.23645 7.70391V7.38184H3.86116L4.23645 7.70391ZM2.65762 8.28725V7.96517L3.03291 8.28725H2.65762ZM4.23645 7.96517V8.28725H3.86116L4.23645 7.96517Z" fill="#C51918"/>
<path fill-rule="evenodd" clip-rule="evenodd" d="M3.32257 7.40939L3.45211 7.23975L3.58003 7.40939H3.32257ZM3.32257 7.56787L3.45211 7.73752L3.58003 7.56787H3.32257ZM3.45211 7.96891L3.32257 8.13856H3.58003L3.45211 7.96891ZM3.32257 8.29704L3.45211 8.46668L3.58003 8.29704H3.32257Z" fill="#E8AA00"/>
<path fill-rule="evenodd" clip-rule="evenodd" d="M3.32523 7.3894V7.46232H3.25085V7.56232H3.32523V7.63524H3.58477V7.56232H3.65915V7.46232H3.58477V7.3894H3.32523ZM3.58477 8.19149V8.11857H3.32523V8.19149H3.25085V8.29149H3.32523V8.3644H3.58477V8.29149H3.65915V8.19149H3.58477Z" fill="#AF0100"/>
<path fill-rule="evenodd" clip-rule="evenodd" d="M2.827 7.7749L2.95031 7.60449L3.07207 7.7749H2.827ZM2.827 7.93409L2.95031 8.10449L3.07207 7.93409H2.827ZM3.97686 7.60449L3.85354 7.7749H4.09862L3.97686 7.60449ZM3.85354 7.93409L3.97686 8.10449L4.09862 7.93409H3.85354Z" fill="#AF0100"/>
<path fill-rule="evenodd" clip-rule="evenodd" d="M2.82608 7.75391V7.82828H2.75528V7.93028H2.82608V8.00466H3.07313V7.93028H3.14393V7.82828H3.07313V7.75391H2.82608ZM4.09968 7.82828V7.75391H3.85262V7.82828H3.78183V7.93028H3.85262V8.00466H4.09968V7.93028H4.17047V7.82828H4.09968Z" fill="#E8AA00"/>
<mask id="mask3" mask-type="alpha" maskUnits="userSpaceOnUse" x="2" y="8" width="3" height="3">
<path fill-rule="evenodd" clip-rule="evenodd" d="M3.1085 8.62549L2.22272 9.12494V9.95275L3.1085 10.4724H4.0679L4.97475 9.95275V9.12494L4.0679 8.62549H3.1085Z" fill="white"/>
</mask>
<g mask="url(#mask3)">
<path d="M2.23538 9.54785H3.61591V10.4593H2.23538V9.54785Z" fill="#E8AA00"/>
<rect x="2.09381" y="8.63647" width="1.52212" height="0.911458" fill="#F9E8E7"/>
<path d="M2.44778 9.16755L2.90604 8.8916V9.16755H2.44778Z" fill="#E8AA00"/>
<rect width="1.52212" height="0.911458" transform="matrix(-1 0 0 1 5.13806 8.63647)" fill="#E8AA00"/>
<path d="M4.67789 9.16755L4.21963 8.8916V9.16755H4.67789Z" fill="#F9E8E7"/>
<rect x="4.99646" y="10.4595" width="1.38053" height="0.911458" transform="rotate(-180 4.99646 10.4595)" fill="#F9E8E7"/>
<path d="M4.64249 9.92839L4.18423 10.2043V9.92839H4.64249Z" fill="#E8AA00"/>
<path d="M2.44778 9.87078L2.90604 10.1467V9.87078H2.44778Z" fill="#FCFCFC"/>
</g>
<path fill-rule="evenodd" clip-rule="evenodd" d="M3.12036 9.18327H3.35045L3.58054 9.11035L3.81063 9.18327H4.04072V9.87598H3.81063L3.58054 9.98535L3.35045 9.87598H3.12036V9.18327Z" fill="#C51918"/>
<path fill-rule="evenodd" clip-rule="evenodd" d="M3.89912 8.7688H4.02412V8.90986H4.07534V9.00986H4.02412V9.06368H3.89912V8.7688ZM2.64359 9.2063H2.51859V9.50118H2.64359V9.44736H2.69481V9.34736H2.64359V9.2063ZM2.82058 9.2063H2.69558V9.50118H2.82058V9.2063ZM2.64359 9.57088H2.51859V9.86576H2.64359V9.81195H2.69481V9.71195H2.64359V9.57088ZM2.69558 9.57088H2.82058V9.86576H2.69558V9.57088ZM4.46549 9.2063H4.59049V9.34736H4.64171V9.44736H4.59049V9.50118H4.46549V9.2063ZM4.76748 9.2063H4.64248V9.50118H4.76748V9.2063ZM4.59049 9.57088H4.46549V9.86576H4.59049V9.81195H4.64171V9.71195H4.59049V9.57088ZM4.64248 9.57088H4.76748V9.86576H4.64248V9.57088ZM4.20111 8.7688H4.07611V9.06368H4.20111V8.7688ZM3.17456 8.7688H3.04956V9.06368H3.17456V9.00986H3.22578V8.90986H3.17456V8.7688ZM3.22655 8.7688H3.35155V9.06368H3.22655V8.7688ZM3.89912 10.0084H4.02412V10.1494H4.07534V10.2494H4.02412V10.3033H3.89912V10.0084ZM4.20111 10.0084H4.07611V10.3033H4.20111V10.0084ZM3.17456 10.0084H3.04956V10.3033H3.17456V10.2494H3.22578V10.1494H3.17456V10.0084ZM3.22655 10.0084H3.35155V10.3033H3.22655V10.0084Z" fill="#C9343F"/>
<path fill-rule="evenodd" clip-rule="evenodd" d="M3.51255 9.33326H3.54795V9.23413H3.37109V9.34747H3.22534V9.50992H3.36087V9.47346H3.26074V9.38393H3.38095L3.56188 9.5405L3.38095 9.69707H3.26074V9.60755H3.36087V9.57109H3.22534V9.73353H3.37109V9.84688H3.54795V9.74774H3.51255V9.81042H3.40649V9.72259L3.59049 9.56337L3.77448 9.72259V9.81042H3.66842V9.74774H3.63302V9.84688H3.80988V9.73353H3.95563V9.57109H3.82011V9.60755H3.92023V9.69707H3.80002L3.61909 9.5405L3.80002 9.38393H3.92023V9.47346H3.82011V9.50992H3.95563V9.34747H3.80988V9.23413H3.63302V9.33326H3.66842V9.27059H3.77448V9.35841L3.59049 9.51764L3.40649 9.35841V9.27059H3.51255V9.33326Z" fill="white"/>
<path fill-rule="evenodd" clip-rule="evenodd" d="M3.79222 2.40015H3.16884V4.40015H3.79222V2.40015ZM2.38962 2.82322H2.77923V3.90015H2.38962V2.82322ZM4.22079 2.82322H4.6104V3.90015H4.22079V2.82322Z" fill="#E8AA00"/>
<path fill-rule="evenodd" clip-rule="evenodd" d="M3.16883 2.55396H2.77922V4.09242H3.16883V2.55396ZM2.38961 2.97703H2V3.7078H2.38961V2.97703ZM4.61039 2.97703H5V3.7078H4.61039V2.97703ZM4.18182 2.55396H3.79221V4.09242H4.18182V2.55396Z" fill="#389F5D"/>
<path fill-rule="evenodd" clip-rule="evenodd" d="M3.0909 2.74624C3.0909 2.80997 3.03857 2.86163 2.97402 2.86163C2.90946 2.86163 2.85713 2.80997 2.85713 2.74624C2.85713 2.68252 2.90946 2.63086 2.97402 2.63086C3.03857 2.63086 3.0909 2.68252 3.0909 2.74624ZM2.31168 3.13086C2.31168 3.19458 2.25935 3.24624 2.19479 3.24624C2.13024 3.24624 2.07791 3.19458 2.07791 3.13086C2.07791 3.06713 2.13024 3.01547 2.19479 3.01547C2.25935 3.01547 2.31168 3.06713 2.31168 3.13086ZM2.31168 3.55394C2.31168 3.61766 2.25935 3.66932 2.19479 3.66932C2.13024 3.66932 2.07791 3.61766 2.07791 3.55394C2.07791 3.49021 2.13024 3.43855 2.19479 3.43855C2.25935 3.43855 2.31168 3.49021 2.31168 3.55394ZM2.97402 4.01547C3.03857 4.01547 3.0909 3.96382 3.0909 3.90009C3.0909 3.83636 3.03857 3.78471 2.97402 3.78471C2.90946 3.78471 2.85713 3.83636 2.85713 3.90009C2.85713 3.96382 2.90946 4.01547 2.97402 4.01547ZM4.80518 3.24624C4.86974 3.24624 4.92207 3.19458 4.92207 3.13086C4.92207 3.06713 4.86974 3.01547 4.80518 3.01547C4.74063 3.01547 4.6883 3.06713 4.6883 3.13086C4.6883 3.19458 4.74063 3.24624 4.80518 3.24624ZM4.92207 3.55394C4.92207 3.61766 4.86974 3.66932 4.80518 3.66932C4.74063 3.66932 4.6883 3.61766 4.6883 3.55394C4.6883 3.49021 4.74063 3.43855 4.80518 3.43855C4.86974 3.43855 4.92207 3.49021 4.92207 3.55394ZM3.987 4.01547C4.05156 4.01547 4.10389 3.96382 4.10389 3.90009C4.10389 3.83636 4.05156 3.78471 3.987 3.78471C3.92245 3.78471 3.87012 3.83636 3.87012 3.90009C3.87012 3.96382 3.92245 4.01547 3.987 4.01547ZM4.10389 2.74624C4.10389 2.80997 4.05156 2.86163 3.987 2.86163C3.92245 2.86163 3.87012 2.80997 3.87012 2.74624C3.87012 2.68252 3.92245 2.63086 3.987 2.63086C4.05156 2.63086 4.10389 2.68252 4.10389 2.74624Z" fill="#E1E5E8"/>
<path fill-rule="evenodd" clip-rule="evenodd" d="M3.5974 2.59244C3.5974 2.65616 3.54507 2.70782 3.48052 2.70782C3.41596 2.70782 3.36363 2.65616 3.36363 2.59244C3.36363 2.52871 3.41596 2.47705 3.48052 2.47705C3.54507 2.47705 3.5974 2.52871 3.5974 2.59244ZM2.7013 3.01551C2.7013 3.07924 2.64897 3.1309 2.58441 3.1309C2.51986 3.1309 2.46753 3.07924 2.46753 3.01551C2.46753 2.95179 2.51986 2.90013 2.58441 2.90013C2.64897 2.90013 2.7013 2.95179 2.7013 3.01551ZM3.48052 4.36167C3.54507 4.36167 3.5974 4.31001 3.5974 4.24628C3.5974 4.18256 3.54507 4.1309 3.48052 4.1309C3.41596 4.1309 3.36363 4.18256 3.36363 4.24628C3.36363 4.31001 3.41596 4.36167 3.48052 4.36167ZM4.53246 3.01551C4.53246 3.07924 4.48013 3.1309 4.41558 3.1309C4.35103 3.1309 4.2987 3.07924 4.2987 3.01551C4.2987 2.95179 4.35103 2.90013 4.41558 2.90013C4.48013 2.90013 4.53246 2.95179 4.53246 3.01551ZM2.58441 3.8232C2.64897 3.8232 2.7013 3.77155 2.7013 3.70782C2.7013 3.64409 2.64897 3.59244 2.58441 3.59244C2.51986 3.59244 2.46753 3.64409 2.46753 3.70782C2.46753 3.77155 2.51986 3.8232 2.58441 3.8232ZM4.53246 3.70782C4.53246 3.77155 4.48013 3.8232 4.41558 3.8232C4.35103 3.8232 4.2987 3.77155 4.2987 3.70782C4.2987 3.64409 4.35103 3.59244 4.41558 3.59244C4.48013 3.59244 4.53246 3.64409 4.53246 3.70782Z" fill="#C51918"/>
<path fill-rule="evenodd" clip-rule="evenodd" d="M2.80327 3.19581L3.18256 2.85327H3.7984L4.23062 3.24625H4.8052V3.4001H4.24619V3.40813L3.7984 3.86356H3.18256L2.80327 3.45252V3.4001H2.15585V3.24625H2.80327V3.19581Z" fill="#C51918"/>
<path fill-rule="evenodd" clip-rule="evenodd" d="M3.50553 3.13833L3.68971 3.32499L3.49635 3.50815L3.30299 3.32499L3.48717 3.13833L3.49635 3.12987L3.50553 3.13833ZM3.53906 3.58902L3.56063 3.56905L3.53855 3.54813L3.73049 3.36632L3.93068 3.5692L3.84059 3.66422H3.78717L3.6878 3.72673L3.53906 3.58902ZM3.49635 3.62856L3.31176 3.79947L3.18849 3.72191H3.12676L2.98122 3.56841L3.22004 3.32638L2.97968 3.09869L3.1374 2.94564L3.19456 2.99054L3.27726 2.907L3.2524 2.88181L3.29427 2.84155L3.49635 3.04635L3.69843 2.84155L3.7403 2.88181L3.71543 2.907L3.79814 2.99054L3.8553 2.94564L4.01302 3.09869L3.77266 3.32638L4.01148 3.56841L3.86593 3.72191H3.80421L3.68093 3.79947L3.49635 3.62856ZM3.59935 3.15074L3.60178 3.14818L3.54643 3.09711L3.53948 3.09007L3.68345 2.95723L3.79323 3.06813L3.85122 3.02258L3.92914 3.09819L3.73188 3.28505L3.59935 3.15074ZM3.47572 3.56857L3.30489 3.72673L3.20553 3.66422H3.15211L3.06202 3.5692L3.26221 3.36632L3.47572 3.56857ZM3.06356 3.09819L3.26082 3.28505L3.45321 3.09007L3.30925 2.95723L3.19946 3.06813L3.14148 3.02258L3.06356 3.09819Z" fill="#E8AA00"/>
<path fill-rule="evenodd" clip-rule="evenodd" d="M2.22418 10.7208C2.11967 10.5882 2.04913 10.4987 2.03055 10.5C1.97222 10.5043 1.91751 11.1219 2.67572 11.5918C2.67572 11.5918 2.78764 11.654 2.85283 11.5918C2.91801 11.5296 2.85283 11.438 2.85283 11.438C2.60773 11.2077 2.37878 10.9171 2.22418 10.7208L2.22418 10.7208ZM4.77582 10.7208L4.77582 10.7208L4.77583 10.7208C4.88034 10.5882 4.95087 10.4987 4.96945 10.5C5.02778 10.5043 5.08249 11.1219 4.32428 11.5918C4.32428 11.5918 4.21236 11.654 4.14717 11.5918C4.08199 11.5296 4.14717 11.438 4.14717 11.438C4.39227 11.2077 4.62122 10.9171 4.77582 10.7208ZM4.72035 11.5518C4.47121 11.6255 4.18265 11.6409 4.07231 11.5933C4.03711 11.5781 3.99974 11.5662 3.96048 11.5573C3.85072 11.5324 3.74372 11.5321 3.61676 11.546L3.56664 11.5518C3.55469 11.5532 3.54778 11.5538 3.54647 11.5538C3.53902 11.5538 3.53087 11.5549 3.52192 11.557C3.51298 11.5549 3.50482 11.5538 3.49738 11.5538C3.49606 11.5538 3.48916 11.5532 3.4772 11.5518L3.42709 11.546C3.30012 11.5321 3.19313 11.5324 3.08336 11.5573C3.0441 11.5662 3.00673 11.5781 2.97154 11.5933C2.8612 11.6409 2.57264 11.6255 2.32349 11.5518C2.32349 11.5518 2.77687 11.7339 3.04614 11.6532C3.07225 11.642 3.09979 11.6332 3.12877 11.6266C3.20542 11.6092 3.28393 11.6076 3.37837 11.6165C3.33865 11.635 3.29247 11.6561 3.23876 11.6779V11.7C3.3448 11.657 3.46906 11.6366 3.52192 11.6303C3.57478 11.6366 3.69905 11.657 3.80509 11.7V11.6779C3.75137 11.6561 3.70519 11.635 3.66547 11.6165C3.75991 11.6076 3.83842 11.6092 3.91507 11.6266C3.94405 11.6332 3.97159 11.642 3.9977 11.6532C4.26697 11.7339 4.72035 11.5518 4.72035 11.5518Z" fill="#E8AA00"/>
<path fill-rule="evenodd" clip-rule="evenodd" d="M2.88198 4.98877L2.25601 5.5404V6.06579L2.80325 6.61569H3.92064L4.53672 6.02894V5.58165L3.92064 4.98877H2.88198Z" fill="#389F5D"/>
<path fill-rule="evenodd" clip-rule="evenodd" d="M3.09734 5.04712H2.95575V5.15649H3.09734V5.04712ZM3.09734 6.47713H2.95575V6.58651H3.09734V6.47713ZM3.30973 6.47713H3.45132V6.58651H3.30973V6.47713ZM3.45132 5.04712H3.30973V5.15649H3.45132V5.04712ZM3.66371 6.47713H3.80531V6.58651H3.66371V6.47713ZM3.80531 5.04712H3.66371V5.15649H3.80531V5.04712Z" fill="#C51918"/>
<path fill-rule="evenodd" clip-rule="evenodd" d="M3.27688 5.0188H3.13275V5.12817H3.27688V5.0188ZM3.27688 6.47713H3.13275V6.58651H3.27688V6.47713ZM3.49308 5.0188H3.63722V5.12817H3.49308V5.0188ZM3.63722 6.47713H3.49308V6.58651H3.63722V6.47713Z" fill="#E8AA00"/>
<path fill-rule="evenodd" clip-rule="evenodd" d="M2.45686 4.9209H4.34688V5.21296H4.6175V6.42037H4.34688V6.66995H2.45686V6.42037H2.16299V5.21296H2.45686V4.9209ZM2.56306 5.32234H2.26919V6.31099H2.56306V6.56058H4.24068V6.31099H4.51131V5.32234H4.24068V5.03027H2.56306V5.32234Z" fill="#750100"/>
<path fill-rule="evenodd" clip-rule="evenodd" d="M3.20353 4.80005H3.02654V4.98234H3.20353V4.80005ZM3.48672 4.80005H3.30973V4.98234H3.48672V4.80005ZM3.59292 4.80005H3.76991V4.98234H3.59292V4.80005ZM3.20353 6.62297H3.02654V6.80526H3.20353V6.62297ZM3.30973 6.62297H3.48672V6.80526H3.30973V6.62297ZM3.76991 6.62297H3.59292V6.80526H3.76991V6.62297ZM1.99734 6.21927V6.04228H2.17964V6.21927H1.99734ZM1.99734 5.75062V5.92761H2.17964V5.75062H1.99734ZM1.99734 5.63594V5.45895H2.17964V5.63594H1.99734ZM4.54602 6.04228V6.21927H4.72831V6.04228H4.54602ZM4.54602 5.92761V5.75062H4.72831V5.92761H4.54602ZM4.54602 5.45895V5.63594H4.72831V5.45895H4.54602Z" fill="#389F5D"/>
<path fill-rule="evenodd" clip-rule="evenodd" d="M2.88919 5.14233L2.58392 5.40784V6.26698L2.83727 6.44625H3.93558L4.18855 6.26698V5.40784L3.90305 5.14233H2.88919Z" fill="#C51918"/>
<path fill-rule="evenodd" clip-rule="evenodd" d="M3.40164 5.49854L3.03329 5.81325H3.40164V5.49854Z" fill="#E1E5E8"/>
<path d="M3.40164 6.09863L3.03329 5.78391H3.40164V6.09863Z" fill="#E8AA00"/>
<path fill-rule="evenodd" clip-rule="evenodd" d="M3.36954 5.49854L3.73788 5.81325H3.36954V5.49854Z" fill="#E8AA00"/>
<path fill-rule="evenodd" clip-rule="evenodd" d="M3.38589 5.89817C3.4475 5.89817 3.49745 5.84823 3.49745 5.78661C3.49745 5.725 3.4475 5.67505 3.38589 5.67505C3.32427 5.67505 3.27432 5.725 3.27432 5.78661C3.27432 5.84823 3.32427 5.89817 3.38589 5.89817Z" fill="#29AE66"/>
<path d="M3.36954 6.09863L3.73788 5.78391H3.36954V6.09863Z" fill="#E1E5E8"/>
<path fill-rule="evenodd" clip-rule="evenodd" d="M2.60176 5.67505H2.28317V5.77705H2.60176V5.67505ZM2.60176 5.86099H2.28317V5.96299H2.60176V5.86099ZM4.19468 5.67505H4.51326V5.77705H4.19468V5.67505ZM4.51326 5.86099H4.19468V5.96299H4.51326V5.86099Z" fill="#C51918"/>
<path fill-rule="evenodd" clip-rule="evenodd" d="M2.56636 5.56567H2.28317V5.67724H2.56636V5.56567ZM2.56636 5.75161H2.28317V5.86317H2.56636V5.75161ZM2.28317 5.93755H2.56636V6.04911H2.28317V5.93755ZM4.47786 5.56567H4.19468V5.67724H4.47786V5.56567ZM4.19468 5.75161H4.47786V5.86317H4.19468V5.75161ZM4.47786 5.93755H4.19468V6.04911H4.47786V5.93755Z" fill="#E8AA00"/>
<path fill-rule="evenodd" clip-rule="evenodd" d="M4.99248 0.795024L4.99141 0.997612H3.51194L3.51089 1.91761H3.04699C2.96601 1.91761 2.74398 1.76211 2.74398 1.76211H2.3673L2.19341 1.58446V1.40596L2.00677 1.18436L2.00785 0.981768H3.48731L3.48837 0.0617676H3.95227C4.03325 0.0617676 4.25528 0.217265 4.25528 0.217265H4.63195L4.80585 0.394917V0.573421L4.99248 0.795024Z" fill="#E8AA00"/>
<path fill-rule="evenodd" clip-rule="evenodd" d="M2.00679 0.795024L2.00786 0.997612H3.48732L3.48838 1.91761H3.95228C4.03326 1.91761 4.25529 1.76211 4.25529 1.76211H4.63197L4.80586 1.58446V1.40596L4.99249 1.18436L4.99142 0.981768H3.51195L3.5109 0.0617676H3.047C2.96602 0.0617676 2.74399 0.217265 2.74399 0.217265H2.36731L2.19342 0.394917V0.573421L2.00679 0.795024Z" fill="#E1E5E8"/>
<path fill-rule="evenodd" clip-rule="evenodd" d="M3.00109 0.342652L2.98489 0.264405L3.30402 0.191018C3.34233 0.172519 3.40882 0.119818 3.50039 0.0341797L3.5433 0.0824672L3.55066 0.0741797C3.64224 0.159818 3.70873 0.212519 3.74704 0.231018L4.06617 0.304405L4.04997 0.382652L3.87299 0.346093L3.88992 0.361233C3.87776 0.368519 3.86453 0.379141 3.85035 0.393034L3.77563 0.382031L3.78258 0.356763L3.76382 0.353708C3.75008 0.379633 3.73436 0.416724 3.71757 0.464319L3.64284 0.442317L3.6731 0.297374L3.5042 0.138964L3.38588 0.249945C3.4006 0.26329 3.41528 0.278608 3.42998 0.295939C3.41742 0.300715 3.40542 0.30493 3.39396 0.308587L3.3889 0.309795L3.40821 0.402317L3.33348 0.424319C3.32373 0.396666 3.31434 0.372558 3.30548 0.352127L3.29932 0.353034C3.28515 0.339141 3.27192 0.328519 3.25975 0.321233L3.28091 0.302321C3.27744 0.296387 3.27412 0.291244 3.27096 0.286905L3.00109 0.342652ZM3.01422 0.62915L3.05683 0.562169L2.83642 0.414388L2.86093 0.380112L2.79812 0.332767L2.77108 0.370578L2.68361 0.311931L2.641 0.378912L2.7249 0.435161L2.70762 0.459323L2.77043 0.506668L2.79024 0.47897L3.01422 0.62915ZM2.74149 0.70915L2.7841 0.642169L2.56369 0.494388L2.5882 0.460112L2.52539 0.412767L2.49835 0.450578L2.41088 0.391931L2.36828 0.458912L2.45217 0.515161L2.43489 0.539323L2.4977 0.586668L2.51751 0.55897L2.74149 0.70915ZM2.62461 0.94915L2.66722 0.882169L2.44681 0.734388L2.47132 0.700112L2.40851 0.652767L2.38147 0.690578L2.294 0.631931L2.25139 0.698912L2.33529 0.755161L2.31801 0.779323L2.38082 0.826668L2.40062 0.79897L2.62461 0.94915ZM2.62826 1.14116L2.58565 1.07418L2.36166 1.22436L2.34186 1.19666L2.27905 1.24401L2.29632 1.26817L2.21243 1.32442L2.25504 1.3914L2.34251 1.33275L2.36955 1.37056L2.43236 1.32322L2.40785 1.28894L2.62826 1.14116ZM2.70253 1.31418L2.74514 1.38116L2.52473 1.52894L2.54924 1.56322L2.48643 1.61056L2.45939 1.57275L2.37192 1.6314L2.32932 1.56442L2.41321 1.50817L2.39593 1.48401L2.45874 1.43666L2.47855 1.46436L2.70253 1.31418ZM2.97526 1.39418L3.01787 1.46116L2.79746 1.60894L2.82197 1.64322L2.75916 1.69056L2.73212 1.65275L2.64465 1.7114L2.60204 1.64442L2.68593 1.58817L2.66866 1.56401L2.73147 1.51666L2.75127 1.54436L2.97526 1.39418ZM3.39101 1.7765C3.37846 1.77173 3.36646 1.76751 3.355 1.76386L3.34017 1.76032L3.36925 1.62101L3.29452 1.59901C3.27065 1.66669 3.24894 1.71313 3.232 1.73643L2.96213 1.68068L2.94592 1.75893L3.25352 1.82966L3.25343 1.82995L3.29792 1.8595L3.30377 1.85585C3.34254 1.88289 3.39548 1.92748 3.46143 1.98915L3.48657 1.96086L3.5117 1.98915C3.60328 1.90351 3.66977 1.85081 3.70808 1.83231L3.71843 1.82993C3.73188 1.84141 3.74538 1.85126 3.75898 1.8595L3.80347 1.82995L3.79897 1.8147L3.80393 1.81027L4.02721 1.75893L4.01101 1.68068L3.74113 1.73643C3.72419 1.71313 3.70248 1.66669 3.67861 1.59901L3.60388 1.62101L3.63414 1.76596L3.48657 1.90437L3.37245 1.79733C3.37864 1.79075 3.38482 1.7838 3.39101 1.7765ZM4.34488 1.14116L4.38748 1.07418L4.61147 1.22436L4.63128 1.19666L4.69409 1.24401L4.67681 1.26817L4.7607 1.32442L4.71809 1.3914L4.63062 1.33275L4.60358 1.37056L4.54077 1.32322L4.56528 1.28894L4.34488 1.14116ZM4.22799 1.38116L4.2706 1.31418L4.49459 1.46436L4.51439 1.43666L4.5772 1.48401L4.55993 1.50817L4.64382 1.56442L4.60121 1.6314L4.51374 1.57275L4.4867 1.61056L4.42389 1.56322L4.4484 1.52894L4.22799 1.38116ZM3.95527 1.46116L3.99787 1.39418L4.22186 1.54436L4.24167 1.51666L4.30448 1.56401L4.2872 1.58817L4.37109 1.64442L4.32848 1.7114L4.24101 1.65275L4.21397 1.69056L4.15116 1.64322L4.17567 1.60894L3.95527 1.46116ZM4.38384 0.922169L4.42645 0.98915L4.65043 0.83897L4.67024 0.866668L4.73305 0.819323L4.71577 0.795161L4.79966 0.738912L4.75705 0.671931L4.66958 0.730578L4.64254 0.692767L4.57973 0.740112L4.60424 0.774388L4.38384 0.922169ZM4.26695 0.682169L4.30956 0.74915L4.53355 0.59897L4.55335 0.626668L4.61617 0.579323L4.59889 0.555161L4.68278 0.498912L4.64017 0.431931L4.5527 0.490578L4.52566 0.452767L4.46285 0.500112L4.48736 0.534388L4.26695 0.682169ZM3.99423 0.602169L4.03684 0.66915L4.26082 0.51897L4.28063 0.546668L4.34344 0.499323L4.32616 0.475161L4.41005 0.418912L4.36744 0.351931L4.27997 0.410578L4.25293 0.372767L4.19012 0.420112L4.21463 0.454388L3.99423 0.602169Z" fill="#C51918"/>
<path fill-rule="evenodd" clip-rule="evenodd" d="M3.10379 0.576534L3.54506 0.342529V0.982529H4.63597L4.37603 1.16974V1.41469H3.96461L3.52334 1.64869V1.00869H2.43243L2.69238 0.821475V0.576534H3.10379Z" fill="#C51918"/>
<path fill-rule="evenodd" clip-rule="evenodd" d="M3.9646 0.576534L3.52333 0.342529V0.982529H2.43242L2.69236 1.16974V1.41469H3.10378L3.54505 1.64869V1.00869H4.63596L4.37601 0.821475V0.576534H3.9646Z" fill="#29AE66"/>
<path fill-rule="evenodd" clip-rule="evenodd" d="M2.88943 0.74224L2.96144 0.600342L3.14461 0.698311L3.19507 0.62323L3.32334 0.714103L3.28389 0.772805L3.82604 1.06278L3.85946 1.01305L3.98773 1.10392L3.96532 1.13727L4.02388 1.1686L3.95188 1.3105L3.87612 1.26998L3.81463 1.36147L3.68636 1.27059L3.73684 1.19548L3.19469 0.905509L3.15024 0.971646L3.02197 0.880773L3.05541 0.831015L2.88943 0.74224Z" fill="#29AE66"/>
<path fill-rule="evenodd" clip-rule="evenodd" d="M4.04481 0.703321L3.96308 0.56679L3.78719 0.677298L3.73162 0.60592L3.61 0.705519L3.65345 0.761326L3.13285 1.08841L3.09604 1.04114L2.97442 1.14074L2.99911 1.17244L2.94287 1.20777L3.0246 1.3443L3.09734 1.2986L3.16507 1.38558L3.28668 1.28598L3.23108 1.21457L3.75169 0.887485L3.80065 0.95036L3.92226 0.850761L3.88543 0.803457L4.04481 0.703321Z" fill="#C51918"/>
</g>
<path fill-rule="evenodd" clip-rule="evenodd" d="M9.53669 1C9.53669 1 10.7018 3.7608 9.66665 4.93326C8.63152 6.10572 6 5.87967 6 5.87967C6 5.87967 9.3782 7.4055 10.8501 5.30453C12.3219 3.20356 9.53669 1 9.53669 1Z" fill="#F7FCFF"/>
<path fill-rule="evenodd" clip-rule="evenodd" d="M7.42213 2.6243L7.11385 2.84129L7.22261 2.47767L6.92333 2.24816L7.29882 2.24042L7.42213 1.88159L7.54544 2.24042L7.92092 2.24816L7.62165 2.47767L7.7304 2.84129L7.42213 2.6243ZM7.48176 3.62697L7.17349 3.84395L7.28224 3.48034L6.98296 3.25083L7.35845 3.24309L7.48176 2.88426L7.60507 3.24309L7.98056 3.25083L7.68128 3.48034L7.79003 3.84395L7.48176 3.62697ZM6.23633 3.92139L6.5446 3.70441L6.85288 3.92139L6.74412 3.55778L7.0434 3.32827L6.66791 3.32053L6.5446 2.9617L6.42129 3.32053L6.04581 3.32827L6.34509 3.55778L6.23633 3.92139ZM7.48176 4.6787L7.17349 4.89569L7.28224 4.53207L6.98296 4.30256L7.35845 4.29482L7.48176 3.93599L7.60507 4.29482L7.98056 4.30256L7.68128 4.53207L7.79003 4.89569L7.48176 4.6787ZM8.19229 3.53751L8.50056 3.32053L8.80884 3.53751L8.70008 3.1739L8.99936 2.94439L8.62387 2.93665L8.50056 2.57782L8.37725 2.93665L8.00177 2.94439L8.30104 3.1739L8.19229 3.53751Z" fill="#F7FCFF"/>
</g>
</g>
</svg>
