<svg width="16" height="12" viewBox="0 0 16 12" fill="none" xmlns="http://www.w3.org/2000/svg">
<path d="M0 0H16V12H0V0Z" fill="#032EA1"/>
<path d="M0 3H16V9H0V3Z" fill="#E00025"/>
<path fill-rule="evenodd" clip-rule="evenodd" d="M5.16699 5.52002V5.55002H6.11199V5.52002H7.43499V5.58002H8.32299V5.52002H9.64899V5.55002H10.594V5.52002H10.704V6.82602H5.00399V5.52002H5.16699ZM5.00399 6.82602H4.70199V7.07502H5.39199V7.08002H4.39599V7.50573H5.39199V7.51002H4.20099V7.88502H11.56V7.51002H10.366V7.50573H11.368V7.08002H10.366V7.07502H11.062V6.82602H10.704V6.83402H5.00399V6.82602ZM10.594 5.52002V4.68002C10.5797 4.68002 10.5702 4.70022 10.5587 4.72462C10.541 4.76191 10.5188 4.80902 10.468 4.80902C10.423 4.80902 10.426 4.75502 10.453 4.71302C10.474 4.67402 10.501 4.62302 10.465 4.52402C10.438 4.59902 10.372 4.62302 10.384 4.57802C10.3906 4.55245 10.4014 4.53346 10.4116 4.51557C10.4337 4.47679 10.4528 4.44319 10.42 4.35902C10.405 4.46102 10.339 4.45802 10.354 4.39802C10.3584 4.38126 10.364 4.3668 10.3693 4.35314C10.3858 4.31055 10.3993 4.2757 10.363 4.20302C10.336 4.31402 10.303 4.30802 10.303 4.23902C10.303 4.13702 10.303 4.02902 10.177 3.99002C10.177 3.99002 10.168 3.90002 10.12 3.90002C10.075 3.90002 10.066 3.99002 10.066 3.99002C9.93985 4.02816 9.93992 4.13514 9.93999 4.23242C9.93999 4.23463 9.93999 4.23683 9.93999 4.23902C9.93999 4.30802 9.90699 4.31402 9.87999 4.20302C9.84365 4.2757 9.85717 4.31055 9.8737 4.35314C9.879 4.3668 9.88462 4.38126 9.88899 4.39802C9.90399 4.45802 9.83799 4.46102 9.82299 4.35902C9.79014 4.44319 9.80927 4.47679 9.83136 4.51557C9.84154 4.53346 9.85236 4.55245 9.85899 4.57802C9.87099 4.62302 9.80499 4.59902 9.77799 4.52402C9.74199 4.62302 9.76899 4.67402 9.78999 4.71302C9.81399 4.75502 9.81999 4.80902 9.77499 4.80902C9.72422 4.80902 9.70195 4.763 9.68432 4.72659C9.67278 4.70275 9.66323 4.68302 9.64899 4.68302V5.52002H10.594ZM8.32299 5.52002H7.43499V5.41502C7.43499 5.3695 7.41032 5.34689 7.38771 5.32617C7.36861 5.30866 7.35099 5.29251 7.35099 5.26502C7.35099 5.26502 7.33899 5.17502 7.36299 5.13302C7.39599 5.25302 7.45299 5.23202 7.45299 5.18102C7.45299 5.14228 7.42745 5.10353 7.36931 5.0153L7.35399 4.99202C7.32999 4.95902 7.34499 4.85402 7.37499 4.81502C7.38699 4.90502 7.40199 4.95002 7.44099 4.95002C7.46499 4.95002 7.48299 4.93502 7.48299 4.89002C7.48299 4.85179 7.46715 4.82574 7.45023 4.7979C7.4406 4.78205 7.43061 4.76562 7.42299 4.74602C7.40187 4.69114 7.41477 4.62897 7.45599 4.58702C7.45862 4.6028 7.46069 4.61692 7.46254 4.62947L7.46254 4.62949C7.47123 4.68854 7.47483 4.71302 7.50699 4.71302C7.58176 4.6881 7.51849 4.58649 7.49416 4.54741L7.48899 4.53902C7.47099 4.50602 7.51899 4.43702 7.51899 4.43702C7.54299 4.51802 7.54899 4.52402 7.57899 4.51502C7.61499 4.50602 7.60899 4.45502 7.56699 4.41302C7.53999 4.38302 7.54299 4.34402 7.57299 4.31402C7.60299 4.37102 7.63899 4.36802 7.64199 4.33202L7.61799 4.20002H7.65099L7.63899 4.10002H8.11599L8.10399 4.20002H8.13999L8.11299 4.32902C8.10699 4.36502 8.15499 4.37402 8.18499 4.31402C8.21499 4.34402 8.21799 4.38602 8.19099 4.41302C8.14899 4.45502 8.14299 4.50602 8.17899 4.51502C8.20899 4.52402 8.21499 4.51502 8.23899 4.43702C8.23899 4.43702 8.28399 4.48202 8.26899 4.53902L8.26453 4.54631C8.24075 4.58486 8.17548 4.69065 8.25099 4.71302C8.28315 4.71302 8.28675 4.68854 8.29543 4.62949L8.29544 4.62947L8.29544 4.62942C8.29729 4.61688 8.29936 4.60278 8.30199 4.58702C8.34217 4.62962 8.35388 4.69171 8.33199 4.74602C8.32496 4.76712 8.31426 4.78455 8.30384 4.80154C8.28758 4.82804 8.27199 4.85346 8.27199 4.89002C8.27199 4.93502 8.29299 4.95002 8.31699 4.95002C8.35599 4.95002 8.37099 4.90802 8.38299 4.81502C8.41299 4.85402 8.42799 4.95902 8.40399 4.99502L8.37873 5.03214C8.32691 5.10802 8.30199 5.14452 8.30199 5.18102C8.30199 5.23202 8.36199 5.25302 8.39199 5.13302C8.41899 5.17502 8.40699 5.26502 8.40699 5.26502C8.40699 5.29276 8.38968 5.30896 8.37077 5.32665C8.34877 5.34724 8.3246 5.36985 8.32299 5.41502V5.52002ZM5.16699 5.52002V4.68002C5.18123 4.68002 5.19078 4.70022 5.20232 4.72462C5.21995 4.76191 5.24222 4.80902 5.29299 4.80902C5.33799 4.80902 5.33499 4.75502 5.30799 4.71302C5.28699 4.67402 5.25999 4.62302 5.29599 4.52402C5.32299 4.59902 5.38899 4.62302 5.37699 4.57802C5.37036 4.55245 5.35954 4.53346 5.34936 4.51557C5.32727 4.47679 5.30814 4.44319 5.34099 4.35902C5.35599 4.46102 5.42199 4.45802 5.40699 4.39802C5.40262 4.38126 5.397 4.3668 5.3917 4.35314C5.37517 4.31055 5.36165 4.2757 5.39799 4.20302C5.42499 4.31402 5.45799 4.30802 5.45799 4.23902C5.45799 4.13702 5.45799 4.02902 5.58399 3.99002C5.58399 3.99002 5.59299 3.90002 5.64099 3.90002C5.68599 3.90002 5.69499 3.99002 5.69499 3.99002C5.82113 4.02816 5.82106 4.13514 5.82099 4.23242L5.82099 4.23902C5.82099 4.30802 5.85399 4.31402 5.88099 4.20302C5.91733 4.2757 5.9038 4.31055 5.88728 4.35314C5.88197 4.3668 5.87636 4.38126 5.87199 4.39802C5.85699 4.45802 5.92299 4.46102 5.93799 4.35902C5.97084 4.44319 5.9517 4.47679 5.92962 4.51557C5.91943 4.53346 5.90862 4.55245 5.90199 4.57802C5.88999 4.62302 5.95599 4.59902 5.98299 4.52402C6.01899 4.62302 5.99199 4.67402 5.97099 4.71302C5.94699 4.75502 5.94099 4.80902 5.98599 4.80902C6.03675 4.80902 6.05903 4.763 6.07666 4.72659C6.0882 4.70275 6.09775 4.68302 6.11199 4.68302V5.52002H5.16699ZM7.80999 4.09302C7.80999 4.09302 7.80699 3.97002 7.87899 3.96702C7.94799 3.96702 7.94499 4.09302 7.94499 4.09302H7.80999Z" fill="white"/>
<path d="M5.16699 5.55002H5.15199L5.16699 5.56502V5.55002ZM6.11199 5.55002V5.56502L6.12699 5.55002H6.11199ZM7.43499 5.58002H7.41999L7.43499 5.59502V5.58002ZM8.32299 5.58002V5.59502L8.33799 5.58002H8.32299ZM9.64899 5.55002H9.63399L9.64899 5.56502V5.55002ZM10.594 5.55002V5.56502L10.609 5.55002H10.594ZM10.704 5.52002H10.719L10.704 5.50502V5.52002ZM5.00399 5.52002V5.50502L4.98899 5.52002H5.00399ZM4.70199 6.82602V6.81102L4.68699 6.82602H4.70199ZM4.70199 7.07502H4.68699L4.70199 7.09002V7.07502ZM5.39199 7.07502H5.40699L5.39199 7.06002V7.07502ZM5.39199 7.08002V7.09502L5.40699 7.08002H5.39199ZM4.39599 7.08002V7.06502L4.38099 7.08002H4.39599ZM4.39599 7.50573H4.38099L4.39599 7.52073V7.50573ZM5.39199 7.50573H5.40699L5.39199 7.49073V7.50573ZM5.39199 7.51002V7.52502L5.40699 7.51002H5.39199ZM4.20099 7.51002V7.49502L4.18599 7.51002H4.20099ZM4.20099 7.88502H4.18599L4.20099 7.90002V7.88502ZM11.56 7.88502V7.90002L11.575 7.88502H11.56ZM11.56 7.51002H11.575L11.56 7.49502V7.51002ZM10.366 7.51002H10.351L10.366 7.52502V7.51002ZM10.366 7.50573V7.49073L10.351 7.50573H10.366ZM11.368 7.50573V7.52073L11.383 7.50573H11.368ZM11.368 7.08002H11.383L11.368 7.06502V7.08002ZM10.366 7.08002H10.351L10.366 7.09502V7.08002ZM10.366 7.07502V7.06002L10.351 7.07502H10.366ZM11.062 7.07502V7.09002L11.077 7.07502H11.062ZM11.062 6.82602H11.077L11.062 6.81102V6.82602ZM10.704 6.83402V6.84902L10.719 6.83402H10.704ZM5.00399 6.83402H4.98899L5.00399 6.84902V6.83402ZM10.594 4.68002H10.609L10.594 4.66502V4.68002ZM10.5587 4.72462L10.5722 4.73104V4.73104L10.5587 4.72462ZM10.453 4.71302L10.4656 4.72116L10.4662 4.72014L10.453 4.71302ZM10.465 4.52402L10.4791 4.5189L10.4509 4.51894L10.465 4.52402ZM10.384 4.57802L10.3985 4.58189L10.3985 4.58179L10.384 4.57802ZM10.4116 4.51557L10.3986 4.50815V4.50815L10.4116 4.51557ZM10.42 4.35902L10.434 4.35357L10.4051 4.35684L10.42 4.35902ZM10.354 4.39802L10.3395 4.39424L10.3394 4.39439L10.354 4.39802ZM10.3693 4.35314L10.3553 4.34771V4.34771L10.3693 4.35314ZM10.363 4.20302L10.3764 4.19632L10.3484 4.19948L10.363 4.20302ZM10.177 3.99002L10.1621 3.99152L10.1726 4.00435L10.177 3.99002ZM10.066 3.99002L10.0703 4.00438L10.0809 3.99152L10.066 3.99002ZM9.93999 4.23242L9.95499 4.23241V4.23241L9.93999 4.23242ZM9.87999 4.20302L9.89456 4.19948L9.86657 4.19632L9.87999 4.20302ZM9.8737 4.35314L9.88768 4.34771V4.34771L9.8737 4.35314ZM9.88899 4.39802L9.90354 4.39439L9.9035 4.39424L9.88899 4.39802ZM9.82299 4.35902L9.83783 4.35684L9.80901 4.35357L9.82299 4.35902ZM9.83136 4.51557L9.84439 4.50815V4.50815L9.83136 4.51557ZM9.85899 4.57802L9.84447 4.58179L9.8445 4.58189L9.85899 4.57802ZM9.77799 4.52402L9.7921 4.51894L9.76389 4.5189L9.77799 4.52402ZM9.78999 4.71302L9.77678 4.72014L9.77696 4.72047L9.78999 4.71302ZM9.68432 4.72659L9.67082 4.73312V4.73312L9.68432 4.72659ZM9.64899 4.68302V4.66802L9.63399 4.68302H9.64899ZM7.38771 5.32617L7.37758 5.33723L7.38771 5.32617ZM7.35099 5.26502H7.36612L7.36586 5.26304L7.35099 5.26502ZM7.36299 5.13302L7.37745 5.12905L7.34997 5.12558L7.36299 5.13302ZM7.36931 5.0153L7.35679 5.02355L7.35679 5.02356L7.36931 5.0153ZM7.35399 4.99202L7.36653 4.98377L7.36612 4.9832L7.35399 4.99202ZM7.37499 4.81502L7.38986 4.81304L7.3631 4.80588L7.37499 4.81502ZM7.45023 4.7979L7.46305 4.79011V4.79011L7.45023 4.7979ZM7.42299 4.74602L7.40899 4.75141L7.40901 4.75146L7.42299 4.74602ZM7.45599 4.58702L7.47078 4.58456L7.44529 4.57651L7.45599 4.58702ZM7.46254 4.62947L7.4477 4.63165L7.44773 4.63187L7.46254 4.62947ZM7.46254 4.62949L7.47739 4.62731L7.47735 4.6271L7.46254 4.62949ZM7.50699 4.71302V4.72884L7.51173 4.72725L7.50699 4.71302ZM7.49416 4.54741L7.48139 4.55528L7.48143 4.55534L7.49416 4.54741ZM7.48899 4.53902L7.4758 4.54622L7.47622 4.5469L7.48899 4.53902ZM7.51899 4.43702L7.53337 4.43276L7.50668 4.42846L7.51899 4.43702ZM7.57899 4.51502L7.57535 4.50046L7.57468 4.50066L7.57899 4.51502ZM7.56699 4.41302L7.55582 4.42307L7.55638 4.42363L7.56699 4.41302ZM7.57299 4.31402L7.58626 4.30704L7.56238 4.30342L7.57299 4.31402ZM7.64199 4.33202L7.65747 4.33331L7.65675 4.32934L7.64199 4.33202ZM7.61799 4.20002V4.18502L7.60323 4.20271L7.61799 4.20002ZM7.65099 4.20002V4.21502L7.66588 4.19824L7.65099 4.20002ZM7.63899 4.10002V4.08502L7.6241 4.10181L7.63899 4.10002ZM8.11599 4.10002L8.13088 4.10181L8.11599 4.08502V4.10002ZM8.10399 4.20002L8.0891 4.19824L8.10399 4.21502V4.20002ZM8.13999 4.20002L8.15467 4.2031L8.13999 4.18502V4.20002ZM8.11299 4.32902L8.09829 4.32595L8.09819 4.32656L8.11299 4.32902ZM8.18499 4.31402L8.1956 4.30342L8.17157 4.30732L8.18499 4.31402ZM8.19099 4.41302L8.18038 4.40242V4.40242L8.19099 4.41302ZM8.17899 4.51502L8.1833 4.50064L8.18263 4.50047L8.17899 4.51502ZM8.23899 4.43702L8.2496 4.42642L8.22465 4.43261L8.23899 4.43702ZM8.26899 4.53902L8.28235 4.5472L8.28349 4.54284L8.26899 4.53902ZM8.26453 4.54631L8.27729 4.55419L8.27732 4.55415L8.26453 4.54631ZM8.25099 4.71302L8.24654 4.72802H8.25099V4.71302ZM8.29543 4.62949L8.31028 4.63167L8.3103 4.63146L8.29543 4.62949ZM8.29544 4.62947L8.28062 4.62709L8.28057 4.6275L8.29544 4.62947ZM8.29544 4.62942L8.31026 4.63179L8.31029 4.6316L8.29544 4.62942ZM8.30199 4.58702L8.3129 4.57673L8.28719 4.58456L8.30199 4.58702ZM8.33199 4.74602L8.31805 4.74041L8.31776 4.74128L8.33199 4.74602ZM8.30384 4.80154L8.31663 4.80938V4.80938L8.30384 4.80154ZM8.38299 4.81502L8.39488 4.80588L8.36811 4.8131L8.38299 4.81502ZM8.40399 4.99502L8.41639 5.00346L8.41647 5.00335L8.40399 4.99502ZM8.37873 5.03214L8.39112 5.0406L8.39113 5.04058L8.37873 5.03214ZM8.39199 5.13302L8.40461 5.12491L8.37744 5.12939L8.39199 5.13302ZM8.40699 5.26502L8.39199 5.26302V5.26502H8.40699ZM8.37077 5.32665L8.36052 5.3157V5.3157L8.37077 5.32665ZM8.32299 5.41502L8.30799 5.41449V5.41502H8.32299ZM5.16699 4.68002V4.66502L5.15199 4.68002H5.16699ZM5.20232 4.72462L5.21588 4.71821L5.21588 4.71821L5.20232 4.72462ZM5.30799 4.71302L5.29474 4.72016L5.29537 4.72114L5.30799 4.71302ZM5.29599 4.52402L5.3101 4.51894L5.28189 4.5189L5.29599 4.52402ZM5.37699 4.57802L5.36247 4.58179L5.3625 4.58189L5.37699 4.57802ZM5.34936 4.51557L5.36239 4.50815V4.50815L5.34936 4.51557ZM5.34099 4.35902L5.35583 4.35684L5.32702 4.35357L5.34099 4.35902ZM5.40699 4.39802L5.42154 4.39439L5.4215 4.39424L5.40699 4.39802ZM5.3917 4.35314L5.37772 4.35856V4.35856L5.3917 4.35314ZM5.39799 4.20302L5.41256 4.19948L5.38457 4.19632L5.39799 4.20302ZM5.58399 3.99002L5.58842 4.00435L5.59891 3.99152L5.58399 3.99002ZM5.69499 3.99002L5.68006 3.99152L5.69065 4.00438L5.69499 3.99002ZM5.82099 4.23242L5.80599 4.23241V4.23242L5.82099 4.23242ZM5.82099 4.23902L5.80599 4.23902V4.23902H5.82099ZM5.88099 4.20302L5.89441 4.19632L5.86641 4.19948L5.88099 4.20302ZM5.88728 4.35314L5.90126 4.35856L5.88728 4.35314ZM5.87199 4.39802L5.85747 4.39424L5.85744 4.39439L5.87199 4.39802ZM5.93799 4.35902L5.95196 4.35357L5.92315 4.35684L5.93799 4.35902ZM5.92962 4.51557L5.91659 4.50815V4.50815L5.92962 4.51557ZM5.90199 4.57802L5.91648 4.58189L5.91651 4.58179L5.90199 4.57802ZM5.98299 4.52402L5.99709 4.5189L5.96888 4.51894L5.98299 4.52402ZM5.97099 4.71302L5.98402 4.72047L5.9842 4.72014L5.97099 4.71302ZM6.07666 4.72659L6.06316 4.72005L6.07666 4.72659ZM6.11199 4.68302H6.12699L6.11199 4.66802V4.68302ZM7.87899 3.96702V3.95201L7.87836 3.95204L7.87899 3.96702ZM7.80999 4.09302L7.79499 4.09339L7.80999 4.10802V4.09302ZM7.94499 4.09302V4.10802L7.95998 4.09338L7.94499 4.09302ZM5.18199 5.55002V5.52002H5.15199V5.55002H5.18199ZM6.11199 5.53502H5.16699V5.56502H6.11199V5.53502ZM6.09699 5.52002V5.55002H6.12699V5.52002H6.09699ZM7.43499 5.50502H6.11199V5.53502H7.43499V5.50502ZM7.44999 5.58002V5.52002H7.41999V5.58002H7.44999ZM8.32299 5.56502H7.43499V5.59502H8.32299V5.56502ZM8.30799 5.52002V5.58002H8.33799V5.52002H8.30799ZM9.64899 5.50502H8.32299V5.53502H9.64899V5.50502ZM9.66399 5.55002V5.52002H9.63399V5.55002H9.66399ZM10.594 5.53502H9.64899V5.56502H10.594V5.53502ZM10.579 5.52002V5.55002H10.609V5.52002H10.579ZM10.704 5.50502H10.594V5.53502H10.704V5.50502ZM10.719 6.82602V5.52002H10.689V6.82602H10.719ZM10.704 6.81102H5.00399V6.84102H10.704V6.81102ZM4.98899 5.52002V6.82602H5.01899V5.52002H4.98899ZM5.16699 5.50502H5.00399V5.53502H5.16699V5.50502ZM5.00399 6.81102H4.70199V6.84102H5.00399V6.81102ZM4.68699 6.82602V7.07502H4.71699V6.82602H4.68699ZM4.70199 7.09002H5.39199V7.06002H4.70199V7.09002ZM5.37699 7.07502V7.08002H5.40699V7.07502H5.37699ZM5.39199 7.06502H4.39599V7.09502H5.39199V7.06502ZM4.38099 7.08002V7.50573H4.41099V7.08002H4.38099ZM4.39599 7.52073H5.39199V7.49073H4.39599V7.52073ZM5.37699 7.50573V7.51002H5.40699V7.50573H5.37699ZM5.39199 7.49502H4.20099V7.52502H5.39199V7.49502ZM4.18599 7.51002V7.88502H4.21599V7.51002H4.18599ZM4.20099 7.90002H11.56V7.87002H4.20099V7.90002ZM11.575 7.88502V7.51002H11.545V7.88502H11.575ZM11.56 7.49502H10.366V7.52502H11.56V7.49502ZM10.381 7.51002V7.50573H10.351V7.51002H10.381ZM10.366 7.52073H11.368V7.49073H10.366V7.52073ZM11.383 7.50573V7.08002H11.353V7.50573H11.383ZM11.368 7.06502H10.366V7.09502H11.368V7.06502ZM10.381 7.08002V7.07502H10.351V7.08002H10.381ZM10.366 7.09002H11.062V7.06002H10.366V7.09002ZM11.077 7.07502V6.82602H11.047V7.07502H11.077ZM11.062 6.81102H10.704V6.84102H11.062V6.81102ZM10.719 6.83402V6.82602H10.689V6.83402H10.719ZM5.00399 6.84902H10.704V6.81902H5.00399V6.84902ZM4.98899 6.82602V6.83402H5.01899V6.82602H4.98899ZM10.579 4.68002V5.52002H10.609V4.68002H10.579ZM10.5722 4.73104C10.5782 4.71844 10.5829 4.70857 10.5876 4.70171C10.59 4.69837 10.5918 4.69654 10.593 4.69563C10.5936 4.69521 10.5939 4.69507 10.594 4.69503C10.594 4.69502 10.594 4.69502 10.594 4.69502C10.594 4.69502 10.594 4.69502 10.594 4.69502C10.594 4.69502 10.594 4.69502 10.594 4.69502V4.66502C10.579 4.66502 10.5691 4.67575 10.563 4.68463C10.5565 4.69397 10.5507 4.7064 10.5451 4.71821L10.5722 4.73104ZM10.468 4.82402C10.4989 4.82402 10.521 4.80939 10.5371 4.79058C10.5528 4.77234 10.5636 4.74931 10.5722 4.73104L10.5451 4.71821C10.5361 4.73722 10.5269 4.7564 10.5144 4.77103C10.5023 4.7851 10.4879 4.79402 10.468 4.79402V4.82402ZM10.4404 4.70491C10.4257 4.72767 10.4167 4.75492 10.4185 4.77797C10.4195 4.7897 10.4234 4.8015 10.4322 4.81045C10.4412 4.81961 10.4536 4.82402 10.468 4.82402V4.79402C10.4599 4.79402 10.4558 4.79169 10.4536 4.78941C10.4511 4.78692 10.449 4.7826 10.4484 4.77558C10.4473 4.76113 10.4532 4.74038 10.4656 4.72114L10.4404 4.70491ZM10.4509 4.52915C10.4682 4.57664 10.47 4.61154 10.4656 4.63862C10.4611 4.6659 10.4503 4.68644 10.4398 4.70591L10.4662 4.72014C10.4767 4.70061 10.4899 4.67615 10.4952 4.64343C10.5005 4.61051 10.4978 4.57041 10.4791 4.5189L10.4509 4.52915ZM10.3695 4.57416C10.3661 4.58679 10.3659 4.60361 10.3802 4.61203C10.3865 4.61576 10.3934 4.61617 10.3993 4.61534C10.4053 4.61451 10.4112 4.61227 10.4169 4.60927C10.4392 4.59746 10.4646 4.56941 10.4791 4.52911L10.4509 4.51894C10.4384 4.55364 10.4173 4.57509 10.4028 4.58277C10.3993 4.58465 10.3967 4.58542 10.3951 4.58563C10.3935 4.58586 10.394 4.58539 10.3954 4.5862C10.3998 4.58881 10.3959 4.59176 10.3985 4.58189L10.3695 4.57416ZM10.3986 4.50815C10.3884 4.52601 10.3767 4.54655 10.3695 4.57426L10.3985 4.58179C10.4046 4.55835 10.4145 4.54091 10.4247 4.52299L10.3986 4.50815ZM10.406 4.36448C10.4218 4.40505 10.4245 4.43179 10.4216 4.45217C10.4186 4.47275 10.4098 4.48853 10.3986 4.50815L10.4247 4.52299C10.4356 4.50383 10.4474 4.48342 10.4512 4.45646C10.4552 4.42931 10.451 4.39716 10.434 4.35357L10.406 4.36448ZM10.3394 4.39439C10.3352 4.41145 10.3358 4.42749 10.343 4.43935C10.3467 4.44546 10.3521 4.45031 10.3589 4.45294C10.3657 4.45556 10.3729 4.4556 10.3797 4.45375C10.3929 4.45013 10.4048 4.43942 10.414 4.42444C10.4234 4.40918 10.4309 4.38819 10.4348 4.36121L10.4051 4.35684C10.4016 4.38086 10.3952 4.39774 10.3885 4.40874C10.3815 4.42001 10.375 4.42392 10.3718 4.4248C10.3703 4.4252 10.3698 4.42496 10.3697 4.42495C10.3697 4.42493 10.3696 4.42489 10.3694 4.42477C10.3693 4.42464 10.369 4.42436 10.3687 4.42382C10.3673 4.42144 10.3653 4.4146 10.3685 4.40166L10.3394 4.39439ZM10.3553 4.34771C10.35 4.36132 10.3441 4.37653 10.3395 4.39424L10.3685 4.40181C10.3726 4.38599 10.3779 4.37229 10.3833 4.35856L10.3553 4.34771ZM10.3496 4.20973C10.367 4.24452 10.3717 4.26887 10.371 4.28878C10.3702 4.30903 10.3637 4.32613 10.3553 4.34771L10.3833 4.35856C10.3914 4.33756 10.3999 4.31595 10.4009 4.28995C10.402 4.26362 10.3954 4.23421 10.3764 4.19632L10.3496 4.20973ZM10.288 4.23902C10.288 4.25707 10.2901 4.27266 10.2947 4.28383C10.297 4.28937 10.3005 4.29526 10.306 4.29931C10.3122 4.30389 10.3199 4.30524 10.3275 4.3028C10.3341 4.30065 10.3395 4.29597 10.3436 4.29106C10.3479 4.28598 10.3519 4.27947 10.3557 4.27182C10.3632 4.25649 10.3707 4.2349 10.3776 4.20657L10.3484 4.19948C10.3418 4.22665 10.335 4.24593 10.3288 4.25854C10.3257 4.26486 10.3229 4.26909 10.3207 4.27172C10.3183 4.27452 10.3174 4.27453 10.3183 4.27425C10.32 4.27369 10.3223 4.27409 10.3237 4.27514C10.3244 4.27565 10.3237 4.27539 10.3224 4.2724C10.32 4.26652 10.318 4.25548 10.318 4.23902H10.288ZM10.1726 4.00435C10.2309 4.02242 10.2589 4.05564 10.2731 4.09589C10.2878 4.13763 10.288 4.18738 10.288 4.23902H10.318C10.318 4.18867 10.3182 4.13342 10.3014 4.08591C10.2841 4.03691 10.2491 3.99663 10.1814 3.9757L10.1726 4.00435ZM10.12 3.91502C10.1267 3.91502 10.1325 3.91796 10.138 3.92412C10.1438 3.93055 10.1486 3.93981 10.1524 3.95019C10.1562 3.96041 10.1586 3.9708 10.1601 3.97875C10.1608 3.98269 10.1613 3.98596 10.1616 3.98821C10.1618 3.98933 10.1619 3.9902 10.162 3.99077C10.162 3.99105 10.162 3.99126 10.162 3.99139C10.1621 3.99145 10.1621 3.99149 10.1621 3.99151C10.1621 3.99153 10.1621 3.99153 10.1621 3.99153C10.1621 3.99153 10.1621 3.99153 10.1621 3.99153C10.1621 3.99153 10.1621 3.99152 10.1621 3.99152C10.1621 3.99152 10.1621 3.99152 10.177 3.99002C10.1919 3.98853 10.1919 3.98853 10.1919 3.98852C10.1919 3.98852 10.1919 3.98852 10.1919 3.98851C10.1919 3.9885 10.1919 3.9885 10.1919 3.98848C10.1919 3.98846 10.1919 3.98844 10.1919 3.9884C10.1919 3.98834 10.1919 3.98825 10.1919 3.98815C10.1919 3.98793 10.1918 3.98764 10.1918 3.98726C10.1917 3.98651 10.1916 3.98544 10.1914 3.98411C10.191 3.98144 10.1904 3.97767 10.1896 3.97318C10.1879 3.96425 10.1851 3.95214 10.1806 3.93986C10.1761 3.92774 10.1697 3.9145 10.1603 3.90405C10.1507 3.89334 10.1373 3.88502 10.12 3.88502V3.91502ZM10.066 3.99002C10.0809 3.99152 10.0809 3.99152 10.0809 3.99152C10.0809 3.99152 10.0809 3.99153 10.0809 3.99153C10.0809 3.99153 10.0809 3.99153 10.0809 3.99153C10.0809 3.99153 10.0809 3.99152 10.0809 3.99151C10.0809 3.99149 10.0809 3.99144 10.0809 3.99138C10.0809 3.99125 10.081 3.99104 10.081 3.99075C10.0811 3.99018 10.0812 3.98931 10.0813 3.98817C10.0816 3.98591 10.0821 3.98262 10.0829 3.97867C10.0843 3.97069 10.0867 3.96025 10.0903 3.94998C10.0939 3.93953 10.0985 3.93024 10.104 3.9238C10.1093 3.9176 10.1144 3.91502 10.12 3.91502V3.88502C10.1031 3.88502 10.0902 3.8937 10.0811 3.90437C10.0723 3.91481 10.0662 3.92802 10.062 3.94007C10.0577 3.95229 10.055 3.96436 10.0533 3.97326C10.0525 3.97774 10.052 3.98148 10.0516 3.98414C10.0514 3.98547 10.0513 3.98653 10.0512 3.98728C10.0512 3.98765 10.0511 3.98794 10.0511 3.98815C10.0511 3.98826 10.0511 3.98834 10.0511 3.98841C10.0511 3.98844 10.0511 3.98847 10.0511 3.98849C10.0511 3.9885 10.0511 3.98851 10.0511 3.98851C10.0511 3.98852 10.0511 3.98852 10.0511 3.98852C10.0511 3.98853 10.0511 3.98853 10.066 3.99002ZM9.95499 4.23241C9.95495 4.18314 9.95509 4.13487 9.96977 4.09413C9.98392 4.05486 10.0119 4.02206 10.0703 4.00438L10.0616 3.97567C9.99398 3.99612 9.95888 4.03588 9.94155 4.08396C9.92475 4.13056 9.92495 4.18442 9.92499 4.23243L9.95499 4.23241ZM9.95499 4.23902C9.95499 4.23682 9.95499 4.23462 9.95499 4.23241L9.92499 4.23243C9.92499 4.23464 9.92499 4.23683 9.92499 4.23902H9.95499ZM9.86541 4.20657C9.8723 4.2349 9.87974 4.25649 9.8873 4.27182C9.89108 4.27947 9.89509 4.28598 9.89937 4.29106C9.90351 4.29597 9.90884 4.30065 9.91551 4.3028C9.92306 4.30524 9.93077 4.30389 9.93701 4.29931C9.94252 4.29526 9.946 4.28937 9.94828 4.28383C9.95288 4.27266 9.95499 4.25707 9.95499 4.23902H9.92499C9.92499 4.25548 9.92297 4.26652 9.92054 4.2724C9.91931 4.27539 9.91854 4.27565 9.91924 4.27514C9.92066 4.27409 9.92298 4.27369 9.92472 4.27425C9.92558 4.27453 9.92467 4.27452 9.9223 4.27172C9.92009 4.26909 9.91732 4.26486 9.91421 4.25854C9.90798 4.24593 9.90117 4.22665 9.89456 4.19948L9.86541 4.20657ZM9.88768 4.34771C9.87931 4.32613 9.8728 4.30903 9.87201 4.28878C9.87123 4.26887 9.87601 4.24452 9.8934 4.20973L9.86657 4.19632C9.84763 4.23421 9.841 4.26362 9.84203 4.28995C9.84305 4.31595 9.85156 4.33756 9.85972 4.35856L9.88768 4.34771ZM9.9035 4.39424C9.89888 4.37653 9.89297 4.36132 9.88768 4.34771L9.85972 4.35856C9.86504 4.37229 9.87035 4.38599 9.87447 4.40181L9.9035 4.39424ZM9.80815 4.36121C9.81212 4.38819 9.81959 4.40918 9.82896 4.42444C9.83816 4.43942 9.85004 4.45013 9.86329 4.45375C9.87007 4.4556 9.87728 4.45556 9.88406 4.45294C9.89086 4.45031 9.89625 4.44546 9.89995 4.43935C9.90713 4.42749 9.90781 4.41145 9.90354 4.39439L9.87444 4.40166C9.87767 4.4146 9.87572 4.42144 9.87428 4.42382C9.87395 4.42436 9.87368 4.42464 9.87353 4.42477C9.87339 4.42489 9.8733 4.42493 9.87325 4.42495C9.87323 4.42496 9.87265 4.4252 9.87119 4.4248C9.86794 4.42392 9.86144 4.42001 9.85452 4.40874C9.84777 4.39774 9.84136 4.38086 9.83783 4.35684L9.80815 4.36121ZM9.84439 4.50815C9.83322 4.48853 9.8244 4.47275 9.82142 4.45217C9.81847 4.43179 9.82113 4.40505 9.83696 4.36448L9.80901 4.35357C9.792 4.39716 9.7878 4.42931 9.79173 4.45646C9.79563 4.48342 9.80741 4.50383 9.81832 4.52299L9.84439 4.50815ZM9.87351 4.57426C9.86633 4.54655 9.85456 4.52601 9.84439 4.50815L9.81832 4.52299C9.82852 4.54091 9.83839 4.55835 9.84447 4.58179L9.87351 4.57426ZM9.76388 4.52911C9.77839 4.56941 9.80381 4.59746 9.82608 4.60927C9.83174 4.61227 9.83771 4.61451 9.84367 4.61534C9.84955 4.61617 9.85652 4.61576 9.86282 4.61203C9.87708 4.60361 9.87685 4.58679 9.87348 4.57416L9.8445 4.58189C9.84713 4.59176 9.84314 4.58881 9.84756 4.5862C9.84894 4.58539 9.84946 4.58586 9.84784 4.58563C9.84628 4.58542 9.84368 4.58465 9.84014 4.58277C9.82567 4.57509 9.80459 4.55364 9.7921 4.51894L9.76388 4.52911ZM9.8032 4.70591C9.79271 4.68644 9.78185 4.6659 9.77742 4.63862C9.77302 4.61154 9.77482 4.57664 9.79209 4.52915L9.76389 4.5189C9.74516 4.57041 9.74246 4.61051 9.74781 4.64343C9.75313 4.67615 9.76627 4.70061 9.77678 4.72014L9.8032 4.70591ZM9.77499 4.82402C9.78937 4.82402 9.80176 4.8196 9.81061 4.81022C9.81919 4.80112 9.82264 4.78923 9.82334 4.77767C9.8247 4.75494 9.81581 4.72798 9.80301 4.70558L9.77696 4.72047C9.78817 4.74007 9.79428 4.76111 9.79339 4.77588C9.79296 4.78307 9.79098 4.78731 9.78878 4.78964C9.78684 4.79169 9.78311 4.79402 9.77499 4.79402V4.82402ZM9.67082 4.73312C9.67946 4.75097 9.69026 4.77351 9.70596 4.79137C9.72216 4.80979 9.74426 4.82402 9.77499 4.82402V4.79402C9.75495 4.79402 9.74053 4.78524 9.72849 4.77156C9.71596 4.7573 9.70681 4.73862 9.69782 4.72005L9.67082 4.73312ZM9.64899 4.69802C9.64899 4.69802 9.649 4.69802 9.6491 4.69805C9.64921 4.69809 9.64955 4.69823 9.65012 4.69864C9.65135 4.69953 9.65313 4.7013 9.65543 4.70454C9.66016 4.71121 9.66486 4.72081 9.67082 4.73312L9.69782 4.72005C9.69224 4.70853 9.68639 4.69634 9.6799 4.68719C9.67368 4.67841 9.66382 4.66802 9.64899 4.66802V4.69802ZM9.66399 5.52002V4.68302H9.63399V5.52002H9.66399ZM10.594 5.50502H9.64899V5.53502H10.594V5.50502ZM7.43499 5.53502H8.32299V5.50502H7.43499V5.53502ZM7.41999 5.41502V5.52002H7.44999V5.41502H7.41999ZM7.37758 5.33723C7.40009 5.35786 7.41999 5.37653 7.41999 5.41502H7.44999C7.44999 5.36247 7.42055 5.33591 7.39785 5.31511L7.37758 5.33723ZM7.33599 5.26502C7.33599 5.30004 7.35927 5.32044 7.37758 5.33723L7.39785 5.31511C7.37795 5.29688 7.36599 5.28497 7.36599 5.26502H7.33599ZM7.34997 5.12558C7.34268 5.13833 7.33855 5.15385 7.33617 5.16904C7.33376 5.18441 7.33299 5.20042 7.33299 5.21477C7.33299 5.22917 7.33377 5.24215 7.33454 5.25154C7.33493 5.25624 7.33532 5.26006 7.33561 5.26272C7.33576 5.26406 7.33588 5.2651 7.33597 5.26583C7.33602 5.26619 7.33605 5.26647 7.33608 5.26667C7.33609 5.26677 7.3361 5.26685 7.33611 5.2669C7.33611 5.26693 7.33611 5.26695 7.33612 5.26697C7.33612 5.26698 7.33612 5.26699 7.33612 5.26699C7.33612 5.267 7.33612 5.267 7.33612 5.267C7.33612 5.267 7.33612 5.26701 7.35099 5.26502C7.36586 5.26304 7.36586 5.26304 7.36586 5.26305C7.36586 5.26305 7.36586 5.26305 7.36586 5.26305C7.36586 5.26305 7.36586 5.26305 7.36586 5.26304C7.36586 5.26304 7.36586 5.26303 7.36585 5.26301C7.36585 5.26298 7.36584 5.26293 7.36583 5.26286C7.36582 5.26271 7.36579 5.26249 7.36575 5.26218C7.36567 5.26156 7.36556 5.26064 7.36543 5.25943C7.36516 5.25701 7.3648 5.25347 7.36444 5.24907C7.36371 5.24027 7.36299 5.22813 7.36299 5.21477C7.36299 5.20137 7.36372 5.18702 7.36581 5.17369C7.36792 5.1602 7.3713 5.14872 7.37601 5.14047L7.34997 5.12558ZM7.43799 5.18102C7.43799 5.1912 7.43512 5.19849 7.43189 5.2025C7.42896 5.20613 7.42608 5.20695 7.42307 5.2064C7.41923 5.20569 7.412 5.20207 7.40322 5.18966C7.39457 5.17743 7.38542 5.15802 7.37745 5.12905L7.34853 5.137C7.35706 5.16803 7.36741 5.19099 7.37873 5.20699C7.38991 5.22279 7.40313 5.23323 7.41765 5.2359C7.43303 5.23873 7.44645 5.23223 7.45524 5.22133C7.46373 5.21081 7.46799 5.19635 7.46799 5.18102H7.43799ZM7.35679 5.02356C7.38603 5.06793 7.40648 5.09898 7.41972 5.12378C7.43287 5.1484 7.43799 5.16521 7.43799 5.18102H7.46799C7.46799 5.15809 7.46034 5.13615 7.44618 5.10965C7.43213 5.08333 7.41074 5.0509 7.38184 5.00705L7.35679 5.02356ZM7.34146 5.00027L7.35679 5.02355L7.38184 5.00706L7.36652 4.98378L7.34146 5.00027ZM7.3631 4.80588C7.3457 4.8285 7.33398 4.86765 7.32936 4.90387C7.327 4.92233 7.32636 4.94094 7.328 4.95741C7.32959 4.97345 7.33352 4.98938 7.34186 5.00085L7.36612 4.9832C7.36246 4.97816 7.35926 4.9686 7.35785 4.95445C7.35649 4.94074 7.35697 4.92447 7.35912 4.90767C7.36349 4.8734 7.37428 4.84055 7.38688 4.82417L7.3631 4.80588ZM7.44099 4.93502C7.43441 4.93502 7.4295 4.93323 7.42524 4.92984C7.42068 4.92622 7.41603 4.92008 7.41154 4.91012C7.40242 4.88984 7.39586 4.8581 7.38986 4.81304L7.36012 4.81701C7.36611 4.86195 7.37306 4.89771 7.38419 4.92243C7.38983 4.93497 7.39698 4.94571 7.40658 4.95333C7.41648 4.9612 7.42807 4.96502 7.44099 4.96502V4.93502ZM7.46799 4.89002C7.46799 4.91092 7.46374 4.92194 7.45928 4.92753C7.45532 4.93247 7.44968 4.93502 7.44099 4.93502V4.96502C7.4563 4.96502 7.47166 4.96007 7.4827 4.94627C7.49323 4.9331 7.49799 4.91413 7.49799 4.89002H7.46799ZM7.43741 4.80569C7.45443 4.83369 7.46799 4.85646 7.46799 4.89002H7.49799C7.49799 4.84713 7.47988 4.81779 7.46305 4.79011L7.43741 4.80569ZM7.40901 4.75146C7.41717 4.77245 7.42784 4.78994 7.43741 4.80569L7.46305 4.79011C7.45335 4.77415 7.44404 4.75878 7.43697 4.74059L7.40901 4.75146ZM7.44529 4.57651C7.39995 4.62265 7.38576 4.69104 7.40899 4.75141L7.43699 4.74064C7.41798 4.69124 7.42959 4.63529 7.46669 4.59754L7.44529 4.57651ZM7.47738 4.62729C7.47554 4.61474 7.47344 4.60049 7.47078 4.58456L7.44119 4.58949C7.4438 4.60511 7.44585 4.61909 7.4477 4.63165L7.47738 4.62729ZM7.47735 4.6271L7.47735 4.62708L7.44773 4.63187L7.44774 4.63188L7.47735 4.6271ZM7.50699 4.69802C7.50082 4.69802 7.49766 4.69685 7.49582 4.69567C7.49401 4.6945 7.49189 4.69231 7.48967 4.68731C7.48471 4.67617 7.48188 4.65788 7.47738 4.62731L7.4477 4.63167C7.45189 4.66016 7.4552 4.68364 7.46226 4.6995C7.46604 4.708 7.4714 4.71562 7.47958 4.72089C7.48772 4.72614 7.49708 4.72802 7.50699 4.72802V4.69802ZM7.48143 4.55534C7.4938 4.57522 7.51448 4.60861 7.52331 4.63964C7.52773 4.65517 7.52857 4.66811 7.52561 4.67771C7.52299 4.68621 7.51688 4.69392 7.50225 4.69879L7.51173 4.72725C7.53448 4.71967 7.5485 4.70533 7.55428 4.68655C7.55973 4.66887 7.55725 4.64929 7.55216 4.63142C7.54197 4.59564 7.51885 4.55869 7.50689 4.53948L7.48143 4.55534ZM7.47622 4.5469L7.48139 4.55528L7.50693 4.53954L7.50176 4.53115L7.47622 4.5469ZM7.51899 4.43702C7.50668 4.42846 7.50667 4.42846 7.50667 4.42846C7.50667 4.42847 7.50667 4.42847 7.50667 4.42847C7.50666 4.42848 7.50666 4.42848 7.50665 4.42849C7.50664 4.42851 7.50663 4.42852 7.50661 4.42855C7.50658 4.42859 7.50654 4.42866 7.50648 4.42874C7.50637 4.4289 7.50622 4.42912 7.50603 4.42941C7.50564 4.42998 7.50509 4.4308 7.50441 4.43184C7.50305 4.43392 7.50115 4.4369 7.49893 4.44057C7.49452 4.44787 7.48878 4.45805 7.48359 4.46942C7.47845 4.4807 7.47359 4.4937 7.47131 4.50655C7.46908 4.51913 7.46896 4.53364 7.47582 4.54621L7.50216 4.53184C7.50001 4.52791 7.49914 4.52142 7.50085 4.51178C7.50251 4.50241 7.50628 4.49198 7.51089 4.48187C7.51545 4.47187 7.52058 4.46274 7.52461 4.45608C7.52661 4.45276 7.52832 4.45009 7.52951 4.44827C7.53011 4.44736 7.53057 4.44666 7.53088 4.44621C7.53103 4.44598 7.53115 4.44581 7.53122 4.44571C7.53126 4.44566 7.53128 4.44562 7.53129 4.4456C7.5313 4.44559 7.53131 4.44559 7.53131 4.44558C7.53131 4.44558 7.53131 4.44558 7.53131 4.44558C7.53131 4.44558 7.53131 4.44559 7.53131 4.44559C7.5313 4.44559 7.5313 4.44559 7.51899 4.43702ZM7.57468 4.50066C7.56718 4.50291 7.5638 4.50331 7.56196 4.50311C7.56146 4.50306 7.5606 4.50314 7.55853 4.50051C7.55591 4.49717 7.55262 4.49093 7.54832 4.47941C7.54412 4.46812 7.53937 4.453 7.53337 4.43276L7.50461 4.44129C7.51061 4.46155 7.51561 4.47755 7.52022 4.48989C7.52473 4.50199 7.52932 4.51188 7.53494 4.51904C7.54113 4.52691 7.54889 4.53186 7.55871 4.53294C7.56718 4.53386 7.57579 4.53164 7.5833 4.52939L7.57468 4.50066ZM7.55638 4.42363C7.57577 4.44302 7.5856 4.46332 7.58734 4.47815C7.5882 4.48547 7.58702 4.49055 7.5852 4.49373C7.58356 4.49659 7.58075 4.49912 7.57535 4.50047L7.58263 4.52958C7.59523 4.52643 7.60517 4.51921 7.61122 4.50866C7.61708 4.49843 7.61852 4.48645 7.61714 4.47465C7.61438 4.45123 7.60021 4.42503 7.5776 4.40242L7.55638 4.42363ZM7.56238 4.30342C7.54527 4.32053 7.53505 4.34106 7.53365 4.36255C7.53223 4.38418 7.53988 4.40532 7.55584 4.42306L7.57814 4.40299C7.5671 4.39073 7.56274 4.37737 7.56358 4.3645C7.56443 4.35149 7.57071 4.33752 7.5836 4.32463L7.56238 4.30342ZM7.62704 4.33078C7.62648 4.33754 7.62451 4.34081 7.62333 4.34204C7.62255 4.34285 7.62172 4.34333 7.61974 4.34305C7.61404 4.34224 7.60068 4.33443 7.58626 4.30704L7.55972 4.32101C7.5753 4.35062 7.59493 4.36981 7.61549 4.37275C7.62663 4.37434 7.63724 4.37089 7.64499 4.36279C7.65235 4.35512 7.656 4.34451 7.65694 4.33327L7.62704 4.33078ZM7.60323 4.20271L7.62723 4.33471L7.65675 4.32934L7.63275 4.19734L7.60323 4.20271ZM7.65099 4.18502H7.61799V4.21502H7.65099V4.18502ZM7.6241 4.10181L7.6361 4.20181L7.66588 4.19824L7.65388 4.09824L7.6241 4.10181ZM8.11599 4.08502H7.63899V4.11502H8.11599V4.08502ZM8.11888 4.20181L8.13088 4.10181L8.1011 4.09824L8.0891 4.19824L8.11888 4.20181ZM8.13999 4.18502H8.10399V4.21502H8.13999V4.18502ZM8.12767 4.3321L8.15467 4.2031L8.12531 4.19695L8.09831 4.32595L8.12767 4.3321ZM8.17157 4.30732C8.1578 4.33485 8.14212 4.34217 8.13474 4.34254C8.13126 4.34272 8.12972 4.34155 8.12903 4.34072C8.12828 4.33982 8.12683 4.3372 8.12778 4.33149L8.09819 4.32656C8.09615 4.33884 8.09844 4.35085 8.10595 4.35989C8.11351 4.36899 8.12471 4.37308 8.13624 4.37251C8.15886 4.37137 8.18217 4.3532 8.19841 4.32073L8.17157 4.30732ZM8.2016 4.42363C8.23569 4.38954 8.23014 4.33796 8.1956 4.30342L8.17438 4.32463C8.19984 4.35009 8.20029 4.38251 8.18038 4.40242L8.2016 4.42363ZM8.18263 4.50047C8.17723 4.49912 8.17442 4.49659 8.17278 4.49373C8.17096 4.49055 8.16977 4.48547 8.17064 4.47815C8.17238 4.46332 8.18221 4.44302 8.2016 4.42363L8.18038 4.40242C8.15777 4.42503 8.1436 4.45123 8.14084 4.47465C8.13945 4.48645 8.1409 4.49843 8.14676 4.50866C8.15281 4.51921 8.16275 4.52643 8.17535 4.52958L8.18263 4.50047ZM8.22465 4.43261C8.21865 4.45212 8.2139 4.4669 8.20967 4.47809C8.20537 4.48948 8.20205 4.49595 8.19929 4.49958C8.19697 4.50264 8.19585 4.5027 8.19535 4.50278C8.19374 4.50303 8.19051 4.50282 8.1833 4.50066L8.17468 4.52939C8.18247 4.53173 8.19124 4.53377 8.19994 4.53243C8.20975 4.53091 8.21726 4.52553 8.22319 4.51772C8.22868 4.51048 8.23323 4.50063 8.23774 4.48868C8.24233 4.47652 8.24733 4.46093 8.25333 4.44144L8.22465 4.43261ZM8.28349 4.54284C8.29225 4.50957 8.28336 4.48018 8.27298 4.45983C8.26776 4.44961 8.26204 4.4414 8.25761 4.43572C8.25539 4.43287 8.25347 4.43063 8.25207 4.42906C8.25137 4.42828 8.25079 4.42766 8.25037 4.42722C8.25016 4.427 8.24999 4.42682 8.24986 4.42669C8.24979 4.42662 8.24974 4.42656 8.24969 4.42652C8.24967 4.4265 8.24965 4.42648 8.24964 4.42646C8.24963 4.42645 8.24962 4.42644 8.24961 4.42644C8.24961 4.42643 8.24961 4.42643 8.2496 4.42643C8.2496 4.42642 8.2496 4.42642 8.23899 4.43702C8.22838 4.44763 8.22838 4.44763 8.22837 4.44762C8.22837 4.44762 8.22837 4.44762 8.22837 4.44762C8.22836 4.44761 8.22836 4.44761 8.22836 4.44761C8.22835 4.4476 8.22835 4.4476 8.22835 4.4476C8.22835 4.4476 8.22836 4.44761 8.22838 4.44763C8.22842 4.44767 8.22849 4.44775 8.22861 4.44787C8.22884 4.44811 8.22922 4.44852 8.22972 4.44907C8.23072 4.45019 8.23219 4.45191 8.23396 4.45417C8.2375 4.45871 8.24209 4.46531 8.24625 4.47347C8.25462 4.48987 8.26073 4.51148 8.25448 4.53521L8.28349 4.54284ZM8.27732 4.55415L8.28178 4.54686L8.2562 4.53119L8.25173 4.53848L8.27732 4.55415ZM8.25525 4.69864C8.24067 4.69432 8.23478 4.68693 8.23227 4.67862C8.22937 4.66904 8.23032 4.65586 8.23493 4.6399C8.24412 4.60814 8.26521 4.57378 8.27729 4.55419L8.25176 4.53844C8.24007 4.55739 8.21663 4.59521 8.20612 4.63157C8.20088 4.64968 8.19819 4.66955 8.20355 4.6873C8.20929 4.70632 8.22356 4.72054 8.24673 4.72741L8.25525 4.69864ZM8.28059 4.62731C8.2761 4.65788 8.27326 4.67617 8.26831 4.68731C8.26609 4.69231 8.26397 4.6945 8.26216 4.69567C8.26031 4.69685 8.25716 4.69802 8.25099 4.69802V4.72802C8.2609 4.72802 8.27025 4.72614 8.2784 4.72089C8.28658 4.71562 8.29194 4.708 8.29572 4.6995C8.30278 4.68364 8.30608 4.66016 8.31027 4.63167L8.28059 4.62731ZM8.28057 4.6275L8.28056 4.62753L8.3103 4.63146L8.31031 4.63144L8.28057 4.6275ZM8.28063 4.62704L8.28063 4.62709L8.31025 4.63184L8.31026 4.63179L8.28063 4.62704ZM8.28719 4.58456C8.28454 4.60047 8.28245 4.6147 8.2806 4.62723L8.31029 4.6316C8.31213 4.61905 8.31419 4.60508 8.31678 4.58949L8.28719 4.58456ZM8.3459 4.75163C8.36998 4.69189 8.3571 4.62359 8.3129 4.57673L8.29108 4.59732C8.32724 4.63566 8.33778 4.69154 8.31808 4.74042L8.3459 4.75163ZM8.31663 4.80938C8.32696 4.79255 8.33857 4.77373 8.34622 4.75077L8.31776 4.74128C8.31135 4.76051 8.30157 4.77656 8.29106 4.7937L8.31663 4.80938ZM8.28699 4.89002C8.28699 4.85818 8.30025 4.83609 8.31663 4.80938L8.29106 4.7937C8.27492 4.82 8.25699 4.84874 8.25699 4.89002H8.28699ZM8.31699 4.93502C8.30818 4.93502 8.30149 4.93237 8.29675 4.92699C8.29177 4.92133 8.28699 4.91042 8.28699 4.89002H8.25699C8.25699 4.91462 8.26271 4.93372 8.27423 4.94681C8.28599 4.96018 8.3018 4.96502 8.31699 4.96502V4.93502ZM8.36811 4.8131C8.3621 4.85968 8.35555 4.89134 8.34647 4.91116C8.34203 4.92086 8.33745 4.92667 8.33298 4.93008C8.32878 4.93327 8.32381 4.93502 8.31699 4.93502V4.96502C8.32967 4.96502 8.3412 4.96153 8.35116 4.95394C8.36084 4.94656 8.36807 4.93606 8.37375 4.92364C8.38493 4.89921 8.39187 4.86337 8.39787 4.81694L8.36811 4.8131ZM8.41647 5.00335C8.42448 4.99134 8.42839 4.97514 8.42998 4.95864C8.43161 4.94178 8.43098 4.92292 8.42862 4.90427C8.424 4.86766 8.41229 4.82851 8.39488 4.80588L8.3711 4.82417C8.38369 4.84054 8.39448 4.87338 8.39886 4.90803C8.401 4.92501 8.40149 4.94158 8.40012 4.95575C8.39872 4.97028 8.3955 4.98071 8.39151 4.9867L8.41647 5.00335ZM8.39113 5.04058L8.41639 5.00346L8.39159 4.98659L8.36633 5.0237L8.39113 5.04058ZM8.31699 5.18102C8.31699 5.16641 8.3219 5.15077 8.33408 5.12856C8.34635 5.10618 8.36503 5.0788 8.39112 5.0406L8.36634 5.02368C8.34061 5.06136 8.32092 5.09017 8.30778 5.11414C8.29454 5.13827 8.28699 5.15913 8.28699 5.18102H8.31699ZM8.37744 5.12939C8.37021 5.15829 8.36143 5.17761 8.35297 5.18974C8.34441 5.20201 8.33713 5.20566 8.33308 5.20639C8.32971 5.20699 8.32645 5.206 8.32333 5.20228C8.31994 5.19824 8.31699 5.19101 8.31699 5.18102H8.28699C8.28699 5.19654 8.29153 5.21105 8.30034 5.22155C8.3094 5.23236 8.32302 5.23868 8.3384 5.23591C8.3531 5.23327 8.36644 5.22285 8.37757 5.2069C8.3888 5.19081 8.39877 5.16775 8.40654 5.13666L8.37744 5.12939ZM8.40699 5.26502C8.42186 5.26701 8.42186 5.267 8.42186 5.267C8.42186 5.267 8.42186 5.267 8.42186 5.26699C8.42186 5.26699 8.42186 5.26698 8.42186 5.26697C8.42186 5.26695 8.42187 5.26693 8.42187 5.2669C8.42188 5.26684 8.42189 5.26676 8.4219 5.26666C8.42193 5.26646 8.42196 5.26618 8.42201 5.26581C8.4221 5.26508 8.42222 5.26403 8.42236 5.26269C8.42265 5.26001 8.42303 5.25618 8.4234 5.25146C8.42413 5.24205 8.42481 5.22902 8.42461 5.21457C8.42424 5.18669 8.42061 5.14981 8.40461 5.12491L8.37937 5.14114C8.39037 5.15824 8.39424 5.18736 8.39462 5.21498C8.39479 5.22828 8.39417 5.24038 8.39349 5.24915C8.39315 5.25353 8.3928 5.25705 8.39254 5.25946C8.39241 5.26066 8.3923 5.26159 8.39223 5.2622C8.39219 5.2625 8.39216 5.26272 8.39214 5.26287C8.39213 5.26294 8.39213 5.26299 8.39212 5.26302C8.39212 5.26303 8.39212 5.26304 8.39212 5.26305C8.39212 5.26305 8.39212 5.26305 8.39212 5.26305C8.39212 5.26305 8.39212 5.26305 8.39212 5.26305C8.39212 5.26304 8.39212 5.26304 8.40699 5.26502ZM8.38102 5.33761C8.39922 5.32057 8.42199 5.30016 8.42199 5.26502H8.39199C8.39199 5.28536 8.38014 5.29734 8.36052 5.3157L8.38102 5.33761ZM8.33798 5.41556C8.33936 5.37697 8.35917 5.35805 8.38102 5.33761L8.36052 5.3157C8.33837 5.33642 8.30985 5.36274 8.308 5.41449L8.33798 5.41556ZM8.33799 5.52002V5.41502H8.30799V5.52002H8.33799ZM5.15199 4.68002V5.52002H5.18199V4.68002H5.15199ZM5.21588 4.71821C5.2103 4.7064 5.20447 4.69397 5.198 4.68463C5.19185 4.67575 5.18198 4.66502 5.16699 4.66502V4.69502C5.16699 4.69502 5.16699 4.69502 5.16698 4.69502C5.16697 4.69502 5.16696 4.69502 5.16695 4.69502C5.16693 4.69502 5.16694 4.69502 5.16699 4.69503C5.16708 4.69507 5.16741 4.69521 5.16798 4.69563C5.16922 4.69654 5.17102 4.69837 5.17334 4.70171C5.17809 4.70857 5.1828 4.71844 5.18876 4.73104L5.21588 4.71821ZM5.29299 4.79402C5.27309 4.79402 5.25869 4.7851 5.24661 4.77103C5.23404 4.7564 5.22487 4.73722 5.21588 4.71821L5.18876 4.73104C5.1974 4.74931 5.20818 4.77234 5.22385 4.79058C5.24 4.80939 5.26212 4.82402 5.29299 4.82402V4.79402ZM5.29537 4.72114C5.30774 4.74038 5.31369 4.76113 5.31254 4.77558C5.31197 4.7826 5.30987 4.78692 5.30742 4.78941C5.30518 4.79169 5.30111 4.79402 5.29299 4.79402V4.82402C5.30737 4.82402 5.31979 4.81961 5.32881 4.81045C5.33761 4.8015 5.3415 4.7897 5.34244 4.77797C5.34428 4.75492 5.33523 4.72767 5.32061 4.70491L5.29537 4.72114ZM5.28189 4.5189C5.26316 4.57041 5.26046 4.61051 5.26581 4.64343C5.27113 4.67615 5.28427 4.70061 5.29478 4.72014L5.3212 4.70591C5.31071 4.68644 5.29985 4.6659 5.29542 4.63862C5.29102 4.61154 5.29282 4.57664 5.31009 4.52915L5.28189 4.5189ZM5.3625 4.58189C5.36513 4.59176 5.36114 4.58881 5.36557 4.5862C5.36694 4.58539 5.36746 4.58586 5.36584 4.58563C5.36428 4.58542 5.36168 4.58465 5.35814 4.58277C5.34367 4.57509 5.32259 4.55364 5.3101 4.51894L5.28188 4.52911C5.29639 4.56941 5.32181 4.59746 5.34408 4.60927C5.34974 4.61227 5.35571 4.61451 5.36167 4.61534C5.36755 4.61617 5.37452 4.61576 5.38082 4.61203C5.39508 4.60361 5.39485 4.58679 5.39148 4.57416L5.3625 4.58189ZM5.33632 4.52299C5.34652 4.54091 5.35639 4.55835 5.36247 4.58179L5.39151 4.57426C5.38433 4.54655 5.37256 4.52601 5.36239 4.50815L5.33632 4.52299ZM5.32702 4.35357C5.31 4.39716 5.3058 4.42931 5.30973 4.45646C5.31363 4.48342 5.32541 4.50383 5.33632 4.52299L5.36239 4.50815C5.35122 4.48853 5.3424 4.47275 5.33942 4.45217C5.33647 4.43179 5.33913 4.40505 5.35496 4.36448L5.32702 4.35357ZM5.39244 4.40166C5.39567 4.4146 5.39372 4.42144 5.39228 4.42382C5.39195 4.42436 5.39168 4.42464 5.39153 4.42477C5.39139 4.42489 5.3913 4.42493 5.39125 4.42495C5.39123 4.42496 5.39065 4.4252 5.38919 4.4248C5.38594 4.42392 5.37944 4.42001 5.37252 4.40874C5.36577 4.39774 5.35936 4.38086 5.35583 4.35684L5.32615 4.36121C5.33012 4.38819 5.33759 4.40918 5.34696 4.42444C5.35616 4.43942 5.36804 4.45013 5.38129 4.45375C5.38808 4.4556 5.39528 4.45556 5.40206 4.45294C5.40886 4.45031 5.41425 4.44546 5.41795 4.43935C5.42513 4.42749 5.42581 4.41145 5.42154 4.39439L5.39244 4.40166ZM5.37772 4.35856C5.38304 4.37229 5.38835 4.38599 5.39247 4.40181L5.4215 4.39424C5.41688 4.37653 5.41097 4.36132 5.40568 4.34771L5.37772 4.35856ZM5.38457 4.19632C5.36563 4.23421 5.359 4.26362 5.36003 4.28995C5.36105 4.31595 5.36956 4.33756 5.37772 4.35856L5.40568 4.34771C5.39731 4.32613 5.3908 4.30903 5.39001 4.28878C5.38923 4.26887 5.39401 4.24452 5.41141 4.20973L5.38457 4.19632ZM5.44299 4.23902C5.44299 4.25548 5.44097 4.26652 5.43854 4.2724C5.43731 4.27539 5.43654 4.27565 5.43724 4.27514C5.43866 4.27409 5.44098 4.27369 5.44272 4.27425C5.44358 4.27453 5.44267 4.27452 5.4403 4.27172C5.43809 4.26909 5.43532 4.26486 5.43221 4.25854C5.42598 4.24593 5.41917 4.22665 5.41256 4.19948L5.38341 4.20657C5.3903 4.2349 5.39774 4.25649 5.4053 4.27182C5.40908 4.27947 5.41309 4.28598 5.41737 4.29106C5.42151 4.29597 5.42684 4.30065 5.43351 4.3028C5.44106 4.30524 5.44877 4.30389 5.45501 4.29931C5.46052 4.29526 5.464 4.28937 5.46628 4.28383C5.47088 4.27266 5.47299 4.25707 5.47299 4.23902H5.44299ZM5.57955 3.9757C5.51192 3.99663 5.47689 4.03691 5.45959 4.08591C5.44283 4.13342 5.44299 4.18867 5.44299 4.23902H5.47299C5.47299 4.18738 5.47315 4.13763 5.48788 4.09589C5.50209 4.05564 5.53006 4.02242 5.58842 4.00435L5.57955 3.9757ZM5.64099 3.88502C5.62368 3.88502 5.61033 3.89334 5.60068 3.90405C5.59128 3.9145 5.58485 3.92774 5.58041 3.93986C5.5759 3.95214 5.57309 3.96425 5.57141 3.97318C5.57056 3.97767 5.56998 3.98144 5.56961 3.98411C5.56943 3.98544 5.56929 3.98651 5.5692 3.98726C5.56916 3.98764 5.56913 3.98793 5.5691 3.98815C5.56909 3.98825 5.56908 3.98834 5.56908 3.9884C5.56907 3.98844 5.56907 3.98846 5.56907 3.98848C5.56907 3.9885 5.56907 3.9885 5.56907 3.98851C5.56906 3.98852 5.56906 3.98852 5.56906 3.98852C5.56906 3.98853 5.56906 3.98853 5.58399 3.99002C5.59891 3.99152 5.59891 3.99152 5.59891 3.99152C5.59891 3.99152 5.59891 3.99153 5.59891 3.99153C5.59891 3.99153 5.59891 3.99153 5.59891 3.99153C5.59891 3.99153 5.59891 3.99153 5.59891 3.99151C5.59892 3.99149 5.59892 3.99145 5.59893 3.99139C5.59894 3.99126 5.59897 3.99105 5.599 3.99077C5.59907 3.9902 5.59917 3.98933 5.59933 3.98821C5.59964 3.98596 5.60014 3.98269 5.60088 3.97875C5.60238 3.9708 5.60482 3.96041 5.60857 3.95019C5.61238 3.93981 5.61719 3.93055 5.62298 3.92412C5.62853 3.91796 5.6343 3.91502 5.64099 3.91502V3.88502ZM5.69499 3.99002C5.70991 3.98853 5.70991 3.98853 5.70991 3.98852C5.70991 3.98852 5.70991 3.98852 5.70991 3.98851C5.70991 3.98851 5.70991 3.9885 5.70991 3.98849C5.70991 3.98847 5.7099 3.98844 5.7099 3.98841C5.7099 3.98834 5.70989 3.98826 5.70987 3.98815C5.70985 3.98794 5.70982 3.98765 5.70978 3.98728C5.70969 3.98653 5.70956 3.98547 5.70938 3.98414C5.70902 3.98148 5.70845 3.97774 5.70763 3.97326C5.706 3.96436 5.7033 3.95229 5.69902 3.94007C5.6948 3.92802 5.68871 3.91481 5.67984 3.90437C5.67077 3.8937 5.65792 3.88502 5.64099 3.88502V3.91502C5.64656 3.91502 5.65171 3.9176 5.65698 3.9238C5.66245 3.93024 5.66705 3.93953 5.67071 3.94998C5.6743 3.96025 5.67666 3.97069 5.67813 3.97867C5.67885 3.98262 5.67934 3.98591 5.67965 3.98817C5.6798 3.98931 5.67991 3.99018 5.67998 3.99075C5.68001 3.99104 5.68003 3.99125 5.68005 3.99138C5.68006 3.99144 5.68006 3.99149 5.68006 3.99151C5.68006 3.99152 5.68006 3.99153 5.68006 3.99153C5.68006 3.99153 5.68006 3.99153 5.68006 3.99153C5.68006 3.99153 5.68006 3.99152 5.68006 3.99152C5.68006 3.99152 5.68006 3.99152 5.69499 3.99002ZM5.83599 4.23243C5.83602 4.18442 5.83623 4.13056 5.81943 4.08396C5.8021 4.03588 5.76699 3.99612 5.69933 3.97567L5.69065 4.00438C5.74912 4.02206 5.77705 4.05486 5.79121 4.09413C5.80589 4.13487 5.80602 4.18314 5.80599 4.23241L5.83599 4.23243ZM5.83599 4.23903L5.83599 4.23243L5.80599 4.23242L5.80599 4.23902L5.83599 4.23903ZM5.86641 4.19948C5.8598 4.22665 5.85299 4.24593 5.84677 4.25854C5.84366 4.26486 5.84089 4.26909 5.83867 4.27172C5.83631 4.27452 5.8354 4.27453 5.83626 4.27425C5.838 4.27369 5.84032 4.27409 5.84174 4.27514C5.84243 4.27565 5.84167 4.27539 5.84044 4.2724C5.83801 4.26652 5.83599 4.25548 5.83599 4.23902H5.80599C5.80599 4.25707 5.80809 4.27266 5.8127 4.28383C5.81498 4.28937 5.81846 4.29526 5.82397 4.29931C5.83021 4.30389 5.83791 4.30524 5.84547 4.3028C5.85214 4.30065 5.85746 4.29597 5.86161 4.29106C5.86589 4.28598 5.8699 4.27947 5.87368 4.27182C5.88123 4.25649 5.88867 4.2349 5.89556 4.20657L5.86641 4.19948ZM5.90126 4.35856C5.90941 4.33756 5.91793 4.31595 5.91895 4.28995C5.91998 4.26362 5.91335 4.23421 5.89441 4.19632L5.86757 4.20973C5.88497 4.24452 5.88975 4.26887 5.88897 4.28878C5.88818 4.30903 5.88167 4.32613 5.87329 4.34771L5.90126 4.35856ZM5.8865 4.40181C5.89063 4.38599 5.89594 4.37229 5.90126 4.35856L5.87329 4.34771C5.86801 4.36132 5.86209 4.37653 5.85747 4.39424L5.8865 4.40181ZM5.92315 4.35684C5.91962 4.38086 5.91321 4.39774 5.90646 4.40874C5.89953 4.42001 5.89304 4.42392 5.88979 4.4248C5.88833 4.4252 5.88775 4.42496 5.88773 4.42495C5.88768 4.42493 5.88759 4.42489 5.88745 4.42477C5.8873 4.42464 5.88703 4.42436 5.8867 4.42382C5.88525 4.42144 5.88331 4.4146 5.88654 4.40166L5.85744 4.39439C5.85317 4.41145 5.85385 4.42749 5.86103 4.43935C5.86473 4.44546 5.87011 4.45031 5.87692 4.45294C5.8837 4.45556 5.8909 4.4556 5.89769 4.45375C5.91094 4.45013 5.92282 4.43942 5.93202 4.42444C5.94139 4.40918 5.94886 4.38819 5.95283 4.36121L5.92315 4.35684ZM5.94266 4.52299C5.95357 4.50383 5.96535 4.48342 5.96925 4.45646C5.97318 4.42931 5.96897 4.39716 5.95196 4.35357L5.92402 4.36448C5.93985 4.40505 5.94251 4.43179 5.93956 4.45217C5.93658 4.47275 5.92776 4.48853 5.91659 4.50815L5.94266 4.52299ZM5.91651 4.58179C5.92258 4.55835 5.93246 4.54091 5.94266 4.52299L5.91659 4.50815C5.90641 4.52601 5.89465 4.54655 5.88747 4.57426L5.91651 4.58179ZM5.96888 4.51894C5.95639 4.55364 5.93531 4.57509 5.92083 4.58277C5.9173 4.58465 5.9147 4.58542 5.91314 4.58563C5.91152 4.58586 5.91203 4.58539 5.91341 4.5862C5.91783 4.58881 5.91385 4.59176 5.91648 4.58189L5.8875 4.57416C5.88413 4.58679 5.88389 4.60361 5.89816 4.61203C5.90446 4.61576 5.91142 4.61617 5.91731 4.61534C5.92326 4.61451 5.92924 4.61227 5.93489 4.60927C5.95717 4.59746 5.98259 4.56941 5.9971 4.52911L5.96888 4.51894ZM5.9842 4.72014C5.99471 4.70061 6.00785 4.67615 6.01317 4.64343C6.01852 4.61051 6.01582 4.57041 5.99709 4.5189L5.96889 4.52915C5.98616 4.57664 5.98796 4.61154 5.98356 4.63862C5.97913 4.6659 5.96827 4.68644 5.95778 4.70591L5.9842 4.72014ZM5.98599 4.79402C5.97787 4.79402 5.97414 4.79169 5.9722 4.78964C5.97 4.78731 5.96802 4.78307 5.96759 4.77588C5.9667 4.76111 5.97281 4.74007 5.98401 4.72047L5.95797 4.70558C5.94517 4.72798 5.93628 4.75494 5.93764 4.77767C5.93833 4.78923 5.94179 4.80112 5.95037 4.81022C5.95922 4.8196 5.97161 4.82402 5.98599 4.82402V4.79402ZM6.06316 4.72005C6.05417 4.73862 6.04502 4.7573 6.03249 4.77156C6.02045 4.78524 6.00602 4.79402 5.98599 4.79402V4.82402C6.01672 4.82402 6.03881 4.80979 6.05502 4.79137C6.07072 4.77351 6.08152 4.75097 6.09016 4.73312L6.06316 4.72005ZM6.11199 4.66802C6.09716 4.66802 6.0873 4.67841 6.08107 4.68719C6.07458 4.69634 6.06874 4.70853 6.06316 4.72005L6.09016 4.73312C6.09612 4.72081 6.10082 4.71121 6.10555 4.70454C6.10784 4.7013 6.10963 4.69953 6.11086 4.69864C6.11143 4.69823 6.11176 4.69809 6.11188 4.69805C6.11197 4.69802 6.11198 4.69802 6.11199 4.69802V4.66802ZM6.12699 5.52002V4.68302H6.09699V5.52002H6.12699ZM5.16699 5.53502H6.11199V5.50502H5.16699V5.53502ZM7.87836 3.95204C7.85546 3.95299 7.83837 3.96373 7.82625 3.97844C7.81449 3.99273 7.80739 4.0107 7.80299 4.02731C7.79855 4.04407 7.79657 4.06053 7.79568 4.07267C7.79524 4.07877 7.79507 4.08387 7.795 4.08747C7.79497 4.08928 7.79497 4.09071 7.79497 4.09172C7.79498 4.09222 7.79498 4.09261 7.79498 4.0929C7.79499 4.09304 7.79499 4.09315 7.79499 4.09323C7.79499 4.09327 7.79499 4.09331 7.79499 4.09333C7.79499 4.09335 7.79499 4.09336 7.79499 4.09337C7.79499 4.09337 7.79499 4.09338 7.79499 4.09338C7.79499 4.09339 7.79499 4.09339 7.80999 4.09302C7.82498 4.09266 7.82498 4.09266 7.82498 4.09267C7.82498 4.09267 7.82498 4.09267 7.82498 4.09267C7.82498 4.09267 7.82498 4.09267 7.82498 4.09267C7.82498 4.09267 7.82498 4.09266 7.82498 4.09264C7.82498 4.0926 7.82498 4.09254 7.82498 4.09245C7.82498 4.09226 7.82497 4.09197 7.82497 4.09157C7.82497 4.09077 7.82497 4.08956 7.825 4.08799C7.82505 4.08486 7.82521 4.08032 7.82561 4.07485C7.82641 4.06383 7.82818 4.04936 7.83199 4.03499C7.83584 4.02047 7.84149 4.00713 7.84941 3.99751C7.85698 3.98832 7.86652 3.98256 7.87961 3.98201L7.87836 3.95204ZM7.94499 4.09302C7.95998 4.09338 7.95998 4.09338 7.95998 4.09337C7.95998 4.09337 7.95998 4.09336 7.95999 4.09336C7.95999 4.09335 7.95999 4.09334 7.95999 4.09333C7.95999 4.0933 7.95999 4.09327 7.95999 4.09323C7.95999 4.09314 7.95999 4.09303 7.95999 4.09289C7.96 4.0926 7.96 4.0922 7.96001 4.09169C7.96001 4.09067 7.96001 4.08921 7.95998 4.08738C7.95992 4.08372 7.95976 4.07853 7.95935 4.07233C7.95851 4.05999 7.95664 4.04329 7.95242 4.02639C7.94824 4.00968 7.94147 3.99157 7.93014 3.97736C7.91841 3.96265 7.9016 3.95202 7.87899 3.95202V3.98202C7.89088 3.98202 7.89957 3.98715 7.90668 3.99607C7.91419 4.00548 7.91961 4.01887 7.92331 4.03366C7.92696 4.04826 7.92865 4.06306 7.92941 4.07435C7.92979 4.07996 7.92994 4.08461 7.92998 4.08784C7.93001 4.08945 7.93001 4.0907 7.93001 4.09153C7.93 4.09194 7.93 4.09225 7.93 4.09244C7.93 4.09253 7.92999 4.0926 7.92999 4.09264C7.92999 4.09266 7.92999 4.09267 7.92999 4.09268C7.92999 4.09268 7.92999 4.09268 7.92999 4.09268C7.92999 4.09268 7.92999 4.09267 7.92999 4.09267C7.92999 4.09267 7.92999 4.09267 7.94499 4.09302ZM7.80999 4.10802H7.94499V4.07802H7.80999V4.10802Z" fill="white"/>
</svg>
