<svg width="16" height="12" viewBox="0 0 16 12" fill="none" xmlns="http://www.w3.org/2000/svg">
<mask id="mask0" mask-type="alpha" maskUnits="userSpaceOnUse" x="0" y="0" width="16" height="12">
<rect width="16" height="12" fill="white"/>
</mask>
<g mask="url(#mask0)">
</g>
<path fill-rule="evenodd" clip-rule="evenodd" d="M0 0H16V12H0V0Z" fill="#2E42A5"/>
<g clip-path="url(#clip0)">
<path d="M11.2873 6.23132H11.1623V6.35632V7.84511C11.1623 8.83084 11.5753 9.4896 11.9974 9.90021C12.2077 10.1047 12.4197 10.2473 12.5835 10.3392C12.6655 10.3851 12.736 10.4187 12.789 10.4412C12.8154 10.4523 12.8382 10.4611 12.8564 10.4673C12.8654 10.4703 12.8744 10.4731 12.8827 10.4754L12.8833 10.4755C12.888 10.4767 12.9051 10.4813 12.9243 10.4813C12.9439 10.4813 12.9611 10.4766 12.9663 10.4752L12.9667 10.4751C12.9753 10.4728 12.9844 10.4698 12.9932 10.4667C13.0112 10.4603 13.0332 10.4514 13.0583 10.44C13.1087 10.4173 13.1752 10.3835 13.252 10.3373C13.4057 10.2449 13.6035 10.1018 13.7991 9.89692C14.192 9.48541 14.5732 8.82759 14.5732 7.84511V7.84304V7.84097V7.83889V7.8368V7.83471V7.83261V7.83049V7.82837V7.82625V7.82411V7.82197V7.81981V7.81765V7.81549V7.81331V7.81113V7.80894V7.80674V7.80453V7.80232V7.80009V7.79787V7.79563V7.79338V7.79113V7.78887V7.7866V7.78433V7.78205V7.77976V7.77746V7.77515V7.77284V7.77052V7.7682V7.76586V7.76352V7.76118V7.75882V7.75646V7.75409V7.75171V7.74933V7.74694V7.74454V7.74214V7.73972V7.73731V7.73488V7.73245V7.73001V7.72757V7.72511V7.72265V7.72019V7.71772V7.71524V7.71275V7.71026V7.70776V7.70526V7.70274V7.70023V7.6977V7.69517V7.69263V7.69009V7.68754V7.68498V7.68242V7.67985V7.67728V7.67469V7.67211V7.66951V7.66691V7.66431V7.6617V7.65908V7.65646V7.65383V7.65119V7.64855V7.6459V7.64325V7.64059V7.63793V7.63526V7.63258V7.6299V7.62721V7.62452V7.62182V7.61912V7.61641V7.61369V7.61097V7.60825V7.60551V7.60278V7.60003V7.59729V7.59453V7.59178V7.58901V7.58624V7.58347V7.58069V7.57791V7.57512V7.57232V7.56953V7.56672V7.56391V7.5611V7.55828V7.55545V7.55263V7.54979V7.54695V7.54411V7.54126V7.53841V7.53555V7.53269V7.52982V7.52695V7.52408V7.5212V7.51831V7.51542V7.51253V7.50963V7.50673V7.50382V7.50091V7.49799V7.49507V7.49215V7.48922V7.48628V7.48335V7.48041V7.47746V7.47451V7.47156V7.4686V7.46564V7.46267V7.4597V7.45673V7.45375V7.45077V7.44779V7.4448V7.44181V7.43881V7.43581V7.43281V7.4298V7.42679V7.42378V7.42076V7.41774V7.41471V7.41168V7.40865V7.40561V7.40258V7.39953V7.39649V7.39344V7.39039V7.38733V7.38427V7.38121V7.37815V7.37508V7.37201V7.36893V7.36586V7.36278V7.35969V7.35661V7.35352V7.35043V7.34733V7.34423V7.34113V7.33803V7.33492V7.33181V7.3287V7.32559V7.32247V7.31935V7.31623V7.3131V7.30998V7.30685V7.30372V7.30058V7.29744V7.2943V7.29116V7.28802V7.28487V7.28172V7.27857V7.27542V7.27227V7.26911V7.26595V7.26279V7.25962V7.25646V7.25329V7.25012V7.24695V7.24378V7.2406V7.23742V7.23424V7.23106V7.22788V7.2247V7.22151V7.21832V7.21513V7.21194V7.20875V7.20555V7.20236V7.19916V7.19596V7.19276V7.18956V7.18636V7.18315V7.17995V7.17674V7.17353V7.17032V7.16711V7.1639V7.16069V7.15747V7.15426V7.15104V7.14782V7.1446V7.14138V7.13816V7.13494V7.13172V7.1285V7.12527V7.12205V7.11882V7.11559V7.11237V7.10914V7.10591V7.10268V7.09945V7.09622V7.09299V7.08976V7.08653V7.08329V7.08006V7.07683V7.07359V7.07036V7.06713V7.06389V7.06066V7.05742V7.05419V7.05095V7.04771V7.04448V7.04124V7.03801V7.03477V7.03153V7.0283V7.02506V7.02183V7.01859V7.01535V7.01212V7.00888V7.00565V7.00241V6.99918V6.99594V6.99271V6.98948V6.98624V6.98301V6.97978V6.97655V6.97331V6.97008V6.96685V6.96362V6.96039V6.95717V6.95394V6.95071V6.94749V6.94426V6.94104V6.93781V6.93459V6.93137V6.92815V6.92493V6.92171V6.91849V6.91527V6.91205V6.90884V6.90563V6.90241V6.8992V6.89599V6.89278V6.88957V6.88637V6.88316V6.87996V6.87676V6.87355V6.87035V6.86716V6.86396V6.86076V6.85757V6.85438V6.85119V6.848V6.84481V6.84163V6.83844V6.83526V6.83208V6.8289V6.82573V6.82255V6.81938V6.81621V6.81304V6.80987V6.80671V6.80354V6.80038V6.79722V6.79407V6.79091V6.78776V6.78461V6.78146V6.77832V6.77518V6.77203V6.7689V6.76576V6.76263V6.75949V6.75637V6.75324V6.75012V6.747V6.74388V6.74076V6.73765V6.73454V6.73143V6.72832V6.72522V6.72212V6.71903V6.71593V6.71284V6.70975V6.70667V6.70359V6.70051V6.69743V6.69436V6.69129V6.68822V6.68516V6.6821V6.67904V6.67598V6.67293V6.66989V6.66684V6.6638V6.66076V6.65773V6.6547V6.65167V6.64865V6.64563V6.64261V6.6396V6.63659V6.63358V6.63058V6.62758V6.62459V6.6216V6.61861V6.61563V6.61265V6.60967V6.6067V6.60373V6.60077V6.59781V6.59485V6.5919V6.58895V6.58601V6.58307V6.58013V6.5772V6.57427V6.57135V6.56843V6.56552V6.56261V6.5597V6.5568V6.5539V6.55101V6.54812V6.54524V6.54236V6.53949V6.53662V6.53375V6.53089V6.52804V6.52519V6.52234V6.5195V6.51666V6.51383V6.511V6.50818V6.50536V6.50255V6.49974V6.49694V6.49414V6.49135V6.48856V6.48578V6.48301V6.48023V6.47747V6.47471V6.47195V6.4692V6.46645V6.46371V6.46098V6.45825V6.45553V6.45281V6.45009V6.44739V6.44468V6.44199V6.4393V6.43661V6.43393V6.43126V6.42859V6.42593V6.42327V6.42062V6.41798V6.41534V6.4127V6.41008V6.40746V6.40484V6.40223V6.39963V6.39703V6.39444V6.39185V6.38928V6.3867V6.38414V6.38158V6.37902V6.37647V6.37393V6.3714V6.36887V6.36635V6.36383V6.36132V6.35882V6.35632V6.23132H14.4482H11.2873Z" fill="white" stroke="#F7FCFF" stroke-width="0.25"/>
<mask id="mask1" mask-type="alpha" maskUnits="userSpaceOnUse" x="11" y="6" width="4" height="5">
<path d="M11.2873 6.23132H11.1623V6.35632V7.84511C11.1623 8.83084 11.5753 9.4896 11.9974 9.90021C12.2077 10.1047 12.4197 10.2473 12.5835 10.3392C12.6655 10.3851 12.736 10.4187 12.789 10.4412C12.8154 10.4523 12.8382 10.4611 12.8564 10.4673C12.8654 10.4703 12.8744 10.4731 12.8827 10.4754L12.8833 10.4755C12.888 10.4767 12.9051 10.4813 12.9243 10.4813C12.9439 10.4813 12.9611 10.4766 12.9663 10.4752L12.9667 10.4751C12.9753 10.4728 12.9844 10.4698 12.9932 10.4667C13.0112 10.4603 13.0332 10.4514 13.0583 10.44C13.1087 10.4173 13.1752 10.3835 13.252 10.3373C13.4057 10.2449 13.6035 10.1018 13.7991 9.89692C14.192 9.48541 14.5732 8.82759 14.5732 7.84511V7.84304V7.84097V7.83889V7.8368V7.83471V7.83261V7.83049V7.82837V7.82625V7.82411V7.82197V7.81981V7.81765V7.81549V7.81331V7.81113V7.80894V7.80674V7.80453V7.80232V7.80009V7.79787V7.79563V7.79338V7.79113V7.78887V7.7866V7.78433V7.78205V7.77976V7.77746V7.77515V7.77284V7.77052V7.7682V7.76586V7.76352V7.76118V7.75882V7.75646V7.75409V7.75171V7.74933V7.74694V7.74454V7.74214V7.73972V7.73731V7.73488V7.73245V7.73001V7.72757V7.72511V7.72265V7.72019V7.71772V7.71524V7.71275V7.71026V7.70776V7.70526V7.70274V7.70023V7.6977V7.69517V7.69263V7.69009V7.68754V7.68498V7.68242V7.67985V7.67728V7.67469V7.67211V7.66951V7.66691V7.66431V7.6617V7.65908V7.65646V7.65383V7.65119V7.64855V7.6459V7.64325V7.64059V7.63793V7.63526V7.63258V7.6299V7.62721V7.62452V7.62182V7.61912V7.61641V7.61369V7.61097V7.60825V7.60551V7.60278V7.60003V7.59729V7.59453V7.59178V7.58901V7.58624V7.58347V7.58069V7.57791V7.57512V7.57232V7.56953V7.56672V7.56391V7.5611V7.55828V7.55545V7.55263V7.54979V7.54695V7.54411V7.54126V7.53841V7.53555V7.53269V7.52982V7.52695V7.52408V7.5212V7.51831V7.51542V7.51253V7.50963V7.50673V7.50382V7.50091V7.49799V7.49507V7.49215V7.48922V7.48628V7.48335V7.48041V7.47746V7.47451V7.47156V7.4686V7.46564V7.46267V7.4597V7.45673V7.45375V7.45077V7.44779V7.4448V7.44181V7.43881V7.43581V7.43281V7.4298V7.42679V7.42378V7.42076V7.41774V7.41471V7.41168V7.40865V7.40561V7.40258V7.39953V7.39649V7.39344V7.39039V7.38733V7.38427V7.38121V7.37815V7.37508V7.37201V7.36893V7.36586V7.36278V7.35969V7.35661V7.35352V7.35043V7.34733V7.34423V7.34113V7.33803V7.33492V7.33181V7.3287V7.32559V7.32247V7.31935V7.31623V7.3131V7.30998V7.30685V7.30372V7.30058V7.29744V7.2943V7.29116V7.28802V7.28487V7.28172V7.27857V7.27542V7.27227V7.26911V7.26595V7.26279V7.25962V7.25646V7.25329V7.25012V7.24695V7.24378V7.2406V7.23742V7.23424V7.23106V7.22788V7.2247V7.22151V7.21832V7.21513V7.21194V7.20875V7.20555V7.20236V7.19916V7.19596V7.19276V7.18956V7.18636V7.18315V7.17995V7.17674V7.17353V7.17032V7.16711V7.1639V7.16069V7.15747V7.15426V7.15104V7.14782V7.1446V7.14138V7.13816V7.13494V7.13172V7.1285V7.12527V7.12205V7.11882V7.11559V7.11237V7.10914V7.10591V7.10268V7.09945V7.09622V7.09299V7.08976V7.08653V7.08329V7.08006V7.07683V7.07359V7.07036V7.06713V7.06389V7.06066V7.05742V7.05419V7.05095V7.04771V7.04448V7.04124V7.03801V7.03477V7.03153V7.0283V7.02506V7.02183V7.01859V7.01535V7.01212V7.00888V7.00565V7.00241V6.99918V6.99594V6.99271V6.98948V6.98624V6.98301V6.97978V6.97655V6.97331V6.97008V6.96685V6.96362V6.96039V6.95717V6.95394V6.95071V6.94749V6.94426V6.94104V6.93781V6.93459V6.93137V6.92815V6.92493V6.92171V6.91849V6.91527V6.91205V6.90884V6.90563V6.90241V6.8992V6.89599V6.89278V6.88957V6.88637V6.88316V6.87996V6.87676V6.87355V6.87035V6.86716V6.86396V6.86076V6.85757V6.85438V6.85119V6.848V6.84481V6.84163V6.83844V6.83526V6.83208V6.8289V6.82573V6.82255V6.81938V6.81621V6.81304V6.80987V6.80671V6.80354V6.80038V6.79722V6.79407V6.79091V6.78776V6.78461V6.78146V6.77832V6.77518V6.77203V6.7689V6.76576V6.76263V6.75949V6.75637V6.75324V6.75012V6.747V6.74388V6.74076V6.73765V6.73454V6.73143V6.72832V6.72522V6.72212V6.71903V6.71593V6.71284V6.70975V6.70667V6.70359V6.70051V6.69743V6.69436V6.69129V6.68822V6.68516V6.6821V6.67904V6.67598V6.67293V6.66989V6.66684V6.6638V6.66076V6.65773V6.6547V6.65167V6.64865V6.64563V6.64261V6.6396V6.63659V6.63358V6.63058V6.62758V6.62459V6.6216V6.61861V6.61563V6.61265V6.60967V6.6067V6.60373V6.60077V6.59781V6.59485V6.5919V6.58895V6.58601V6.58307V6.58013V6.5772V6.57427V6.57135V6.56843V6.56552V6.56261V6.5597V6.5568V6.5539V6.55101V6.54812V6.54524V6.54236V6.53949V6.53662V6.53375V6.53089V6.52804V6.52519V6.52234V6.5195V6.51666V6.51383V6.511V6.50818V6.50536V6.50255V6.49974V6.49694V6.49414V6.49135V6.48856V6.48578V6.48301V6.48023V6.47747V6.47471V6.47195V6.4692V6.46645V6.46371V6.46098V6.45825V6.45553V6.45281V6.45009V6.44739V6.44468V6.44199V6.4393V6.43661V6.43393V6.43126V6.42859V6.42593V6.42327V6.42062V6.41798V6.41534V6.4127V6.41008V6.40746V6.40484V6.40223V6.39963V6.39703V6.39444V6.39185V6.38928V6.3867V6.38414V6.38158V6.37902V6.37647V6.37393V6.3714V6.36887V6.36635V6.36383V6.36132V6.35882V6.35632V6.23132H14.4482H11.2873Z" fill="white" stroke="white" stroke-width="0.25"/>
</mask>
<g mask="url(#mask1)">
<rect x="11.0843" y="6.10632" width="3.6" height="1.7" fill="#F50100"/>
<path d="M12.6891 8.15637C12.8043 8.15637 13.0347 7.99964 13.0923 7.96347C13.3035 7.80675 13.4571 7.95142 13.5819 8.02376C13.7163 8.09609 13.9659 8.18048 14.1195 8.02376C14.2731 7.86703 14.3595 7.87908 14.4651 7.87908C14.4843 7.69824 14.4843 7.5174 14.4843 7.31244V7.16777C14.3499 7.1316 14.2827 7.17983 14.1387 7.33656C13.9947 7.49329 13.8315 7.45712 13.6203 7.36067C13.4187 7.25216 13.2171 7.05927 13.0155 7.36067C12.9579 7.44506 12.8235 7.56562 12.6891 7.56562C12.5451 7.56562 12.4203 7.44506 12.3627 7.36067C12.1515 7.05927 11.9595 7.25216 11.7579 7.36067C11.5467 7.45712 11.3739 7.49329 11.2299 7.33656C11.0955 7.17983 11.0283 7.1316 10.8843 7.16777V7.31244C10.8843 7.5174 10.8939 7.69824 10.9131 7.87908C11.0187 7.87908 11.0955 7.86703 11.2491 8.02376C11.4027 8.18048 11.6619 8.09609 11.7867 8.02376C11.9211 7.95142 12.0747 7.80675 12.2859 7.96347C12.3435 7.99964 12.5643 8.15637 12.6891 8.15637H12.6891Z" fill="#F50100"/>
<path fill-rule="evenodd" clip-rule="evenodd" d="M11.7178 6.8808C11.7178 6.8808 11.8046 6.88583 11.9073 7.0184C12.01 7.15098 12.3881 7.0666 12.3881 6.98663C12.3881 6.90665 12.1587 6.85887 12.2468 6.72212C12.335 6.58537 12.4843 6.58513 12.6043 6.65637C12.6387 6.65637 12.6349 7.12415 12.7135 7.09847C12.9622 7.01715 13.3634 6.85601 13.4811 6.92514C13.6359 7.0161 13.7544 6.99348 13.7151 6.86297C13.6757 6.73245 13.5746 6.65088 13.3798 6.72212C13.185 6.79336 13.2309 6.86297 13.0626 6.86297C12.8942 6.86297 12.6054 6.97682 12.7337 6.72212C12.8486 6.49389 12.9857 6.48943 13.0381 6.58537C13.0648 6.63446 12.8464 6.74285 12.8464 6.79336C12.8464 6.86297 13.409 6.65647 13.4811 6.65647C13.5532 6.65647 13.7516 6.65088 13.7713 6.72212C13.791 6.79336 13.9108 6.85873 13.8195 6.92514C13.7281 6.99156 13.5775 7.03316 13.6812 7.11824C13.7848 7.20333 14.0474 7.24203 14.0588 7.33053C14.0703 7.41904 14.1832 7.55121 14.1379 7.55121C14.0926 7.55121 14.0107 7.67586 13.9344 7.63791C13.8581 7.59995 13.8492 7.56663 13.9223 7.53588C13.9954 7.50513 13.9947 7.37583 13.9344 7.37583C13.8741 7.37583 13.8792 7.36604 13.7419 7.32074C13.6045 7.27544 13.4227 7.22508 13.4337 7.32074C13.4446 7.4164 13.5376 7.62172 13.3726 7.64129C13.2076 7.66086 13.1304 7.73943 13.0983 7.67616C13.0662 7.61289 12.9514 7.52857 13.0416 7.50154C13.1319 7.4745 13.2181 7.59343 13.2507 7.57401C13.2832 7.5546 13.3533 7.48531 13.2916 7.40302C13.2298 7.32074 13.11 7.31795 13.2043 7.25637C13.2986 7.19478 13.2423 7.14786 13.0626 7.27544C12.8829 7.40302 12.7829 7.51145 12.6251 7.49612C12.4673 7.48079 12.3965 7.55094 12.3458 7.53026C12.2951 7.50958 12.0481 7.75877 11.977 7.69553C11.9058 7.63229 11.6762 7.60802 11.7176 7.53026C11.7589 7.4525 11.8144 7.41246 11.8762 7.4525C11.938 7.49253 11.9994 7.53257 12.0411 7.49253C12.0828 7.4525 12.2149 7.26565 12.1846 7.23818C12.1543 7.21071 12.0476 7.16368 11.8762 7.16368C11.7048 7.16368 11.7008 7.0213 11.6601 6.95637C11.6194 6.89143 11.7178 6.8808 11.7178 6.8808Z" fill="#FFD100"/>
<path d="M12.6891 9.35632C12.8043 9.35632 13.0347 9.19959 13.0923 9.16343C13.3035 9.0067 13.4571 9.15137 13.5819 9.22371C13.7163 9.29604 13.9659 9.38044 14.1195 9.22371C14.2731 9.06698 14.3595 9.07903 14.4651 9.07903C14.4843 8.89819 14.4843 8.71735 14.4843 8.51239V8.36772C14.3499 8.33155 14.2827 8.37978 14.1387 8.53651C13.9947 8.69324 13.8315 8.65707 13.6203 8.56062C13.4187 8.45211 13.2171 8.25922 13.0155 8.56062C12.9579 8.64501 12.8235 8.76557 12.6891 8.76557C12.5451 8.76557 12.4203 8.64501 12.3627 8.56062C12.1515 8.25922 11.9595 8.45211 11.7579 8.56062C11.5467 8.65707 11.3739 8.69324 11.2299 8.53651C11.0955 8.37978 11.0283 8.33155 10.8843 8.36772V8.51239C10.8843 8.71735 10.8939 8.89819 10.9131 9.07903C11.0187 9.07903 11.0955 9.06698 11.2491 9.22371C11.4027 9.38044 11.6619 9.29604 11.7867 9.22371C11.9211 9.15137 12.0747 9.0067 12.2859 9.16343C12.3435 9.19959 12.5643 9.35632 12.6891 9.35632H12.6891Z" fill="#0B50A0"/>
<path d="M12.6891 10.5063C12.8043 10.5063 13.0347 10.3496 13.0923 10.3135C13.3035 10.1567 13.4571 10.3014 13.5819 10.3737C13.7163 10.4461 13.9659 10.5305 14.1195 10.3737C14.2731 10.217 14.3595 10.2291 14.4651 10.2291C14.4843 10.0482 14.4843 9.86737 14.4843 9.66242V9.51775C14.3499 9.48158 14.2827 9.5298 14.1387 9.68653C13.9947 9.84326 13.8315 9.80709 13.6203 9.71064C13.4187 9.60214 13.2171 9.40924 13.0155 9.71064C12.9579 9.79504 12.8235 9.9156 12.6891 9.9156C12.5451 9.9156 12.4203 9.79504 12.3627 9.71064C12.1515 9.40924 11.9595 9.60214 11.7579 9.71064C11.5467 9.80709 11.3739 9.84326 11.2299 9.68653C11.0955 9.5298 11.0283 9.48158 10.8843 9.51775V9.66242C10.8843 9.86737 10.8939 10.0482 10.9131 10.2291C11.0187 10.2291 11.0955 10.217 11.2491 10.3737C11.4027 10.5305 11.6619 10.4461 11.7867 10.3737C11.9211 10.3014 12.0747 10.1567 12.2859 10.3135C12.3435 10.3496 12.5643 10.5063 12.6891 10.5063H12.6891Z" fill="#0B50A0"/>
<mask id="path-13-inside-1" fill="white">
<path fill-rule="evenodd" clip-rule="evenodd" d="M12.9008 10.1487L12.6147 10.3183L12.6964 9.97366L12.4223 9.72041H12.7803L12.9003 9.39429L13.0411 9.72041H13.3463L13.1065 9.97366L13.2218 10.3183L12.9008 10.1487Z"/>
</mask>
<path fill-rule="evenodd" clip-rule="evenodd" d="M12.9008 10.1487L12.6147 10.3183L12.6964 9.97366L12.4223 9.72041H12.7803L12.9003 9.39429L13.0411 9.72041H13.3463L13.1065 9.97366L13.2218 10.3183L12.9008 10.1487Z" fill="#059334"/>
<path d="M12.9008 10.1487L13.1577 9.66239L12.8853 9.51855L12.6204 9.67557L12.9008 10.1487ZM12.6147 10.3183L12.0795 10.1914L11.7806 11.4519L12.8951 10.7914L12.6147 10.3183ZM12.6964 9.97366L13.2315 10.1006L13.3057 9.78782L13.0696 9.5697L12.6964 9.97366ZM12.4223 9.72041V9.17041H11.0166L12.049 10.1244L12.4223 9.72041ZM12.7803 9.72041V10.2704H13.1639L13.2964 9.91043L12.7803 9.72041ZM12.9003 9.39429L13.4053 9.1763L12.8598 7.91256L12.3842 9.20427L12.9003 9.39429ZM13.0411 9.72041L12.5362 9.9384L12.6795 10.2704H13.0411V9.72041ZM13.3463 9.72041L13.7457 10.0986L14.6245 9.17041H13.3463V9.72041ZM13.1065 9.97366L12.7071 9.59552L12.4802 9.83517L12.5849 10.1482L13.1065 9.97366ZM13.2218 10.3183L12.9649 10.8046L14.179 11.4459L13.7434 10.1438L13.2218 10.3183ZM12.6204 9.67557L12.3343 9.84514L12.8951 10.7914L13.1812 10.6219L12.6204 9.67557ZM13.1498 10.4452L13.2315 10.1006L12.1612 9.84676L12.0795 10.1914L13.1498 10.4452ZM13.0696 9.5697L12.7956 9.31646L12.049 10.1244L12.3231 10.3776L13.0696 9.5697ZM12.4223 10.2704H12.7803V9.17041H12.4223V10.2704ZM13.2964 9.91043L13.4165 9.5843L12.3842 9.20427L12.2642 9.5304L13.2964 9.91043ZM12.3954 9.61227L12.5362 9.9384L13.5461 9.50243L13.4053 9.1763L12.3954 9.61227ZM13.0411 10.2704H13.3463V9.17041H13.0411V10.2704ZM12.9469 9.34227L12.7071 9.59552L13.5059 10.3518L13.7457 10.0986L12.9469 9.34227ZM12.5849 10.1482L12.7002 10.4928L13.7434 10.1438L13.6281 9.79917L12.5849 10.1482ZM13.4787 9.83196L13.1577 9.66239L12.6439 10.635L12.9649 10.8046L13.4787 9.83196Z" fill="#FFD100" mask="url(#path-13-inside-1)"/>
<mask id="path-15-inside-2" fill="white">
<path fill-rule="evenodd" clip-rule="evenodd" d="M12.1008 9.14872L11.8147 9.31829L11.8964 8.97366L11.6223 8.72041H11.9803L12.1004 8.39429L12.2411 8.72041H12.5463L12.3065 8.97366L12.4218 9.31829L12.1008 9.14872Z"/>
</mask>
<path fill-rule="evenodd" clip-rule="evenodd" d="M12.1008 9.14872L11.8147 9.31829L11.8964 8.97366L11.6223 8.72041H11.9803L12.1004 8.39429L12.2411 8.72041H12.5463L12.3065 8.97366L12.4218 9.31829L12.1008 9.14872Z" fill="#059334"/>
<path d="M12.1008 9.14872L12.3577 8.66239L12.0853 8.51855L11.8204 8.67557L12.1008 9.14872ZM11.8147 9.31829L11.2795 9.19139L10.9806 10.4519L12.0951 9.79143L11.8147 9.31829ZM11.8964 8.97366L12.4316 9.10055L12.5057 8.78782L12.2696 8.5697L11.8964 8.97366ZM11.6223 8.72041V8.17041H10.2166L11.2491 9.12437L11.6223 8.72041ZM11.9803 8.72041V9.27041H12.3639L12.4964 8.91043L11.9803 8.72041ZM12.1004 8.39429L12.6053 8.1763L12.0598 6.91256L11.5842 8.20427L12.1004 8.39429ZM12.2411 8.72041L11.7362 8.9384L11.8795 9.27041H12.2411V8.72041ZM12.5463 8.72041L12.9457 9.09856L13.8245 8.17041H12.5463V8.72041ZM12.3065 8.97366L11.9072 8.59552L11.6802 8.83517L11.7849 9.14815L12.3065 8.97366ZM12.4218 9.31829L12.165 9.80462L13.379 10.4459L12.9434 9.1438L12.4218 9.31829ZM11.8204 8.67557L11.5343 8.84514L12.0951 9.79143L12.3812 9.62187L11.8204 8.67557ZM12.3498 9.44518L12.4316 9.10055L11.3612 8.84676L11.2795 9.19139L12.3498 9.44518ZM12.2696 8.5697L11.9956 8.31646L11.2491 9.12437L11.5231 9.37762L12.2696 8.5697ZM11.6223 9.27041H11.9803V8.17041H11.6223V9.27041ZM12.4964 8.91043L12.6165 8.5843L11.5842 8.20427L11.4642 8.5304L12.4964 8.91043ZM11.5954 8.61227L11.7362 8.9384L12.7461 8.50243L12.6053 8.1763L11.5954 8.61227ZM12.2411 9.27041H12.5463V8.17041H12.2411V9.27041ZM12.1469 8.34227L11.9072 8.59552L12.7059 9.3518L12.9457 9.09856L12.1469 8.34227ZM11.7849 9.14815L11.9002 9.49278L12.9434 9.1438L12.8281 8.79917L11.7849 9.14815ZM12.6787 8.83196L12.3577 8.66239L11.8439 9.63505L12.165 9.80462L12.6787 8.83196Z" fill="#FFD100" mask="url(#path-15-inside-2)"/>
<mask id="path-17-inside-3" fill="white">
<path fill-rule="evenodd" clip-rule="evenodd" d="M13.7008 9.14872L13.4147 9.31829L13.4964 8.97366L13.2223 8.72041H13.5803L13.7003 8.39429L13.8411 8.72041H14.1463L13.9065 8.97366L14.0218 9.31829L13.7008 9.14872Z"/>
</mask>
<path fill-rule="evenodd" clip-rule="evenodd" d="M13.7008 9.14872L13.4147 9.31829L13.4964 8.97366L13.2223 8.72041H13.5803L13.7003 8.39429L13.8411 8.72041H14.1463L13.9065 8.97366L14.0218 9.31829L13.7008 9.14872Z" fill="#059334"/>
<path d="M13.7008 9.14872L13.9576 8.66239L13.6853 8.51855L13.4204 8.67557L13.7008 9.14872ZM13.4147 9.31829L12.8795 9.19139L12.5806 10.4519L13.6951 9.79143L13.4147 9.31829ZM13.4964 8.97366L14.0315 9.10055L14.1057 8.78782L13.8696 8.5697L13.4964 8.97366ZM13.2223 8.72041V8.17041H11.8166L12.849 9.12437L13.2223 8.72041ZM13.5803 8.72041V9.27041H13.9639L14.0964 8.91043L13.5803 8.72041ZM13.7003 8.39429L14.2053 8.1763L13.6597 6.91256L13.1842 8.20427L13.7003 8.39429ZM13.8411 8.72041L13.3362 8.9384L13.4795 9.27041H13.8411V8.72041ZM14.1463 8.72041L14.5457 9.09856L15.4245 8.17041H14.1463V8.72041ZM13.9065 8.97366L13.5071 8.59552L13.2802 8.83517L13.3849 9.14815L13.9065 8.97366ZM14.0218 9.31829L13.7649 9.80462L14.979 10.4459L14.5434 9.1438L14.0218 9.31829ZM13.4204 8.67557L13.1342 8.84514L13.6951 9.79143L13.9812 9.62187L13.4204 8.67557ZM13.9498 9.44518L14.0315 9.10055L12.9612 8.84676L12.8795 9.19139L13.9498 9.44518ZM13.8696 8.5697L13.5955 8.31646L12.849 9.12437L13.1231 9.37762L13.8696 8.5697ZM13.2223 9.27041H13.5803V8.17041H13.2223V9.27041ZM14.0964 8.91043L14.2165 8.5843L13.1842 8.20427L13.0641 8.5304L14.0964 8.91043ZM13.1954 8.61227L13.3362 8.9384L14.3461 8.50243L14.2053 8.1763L13.1954 8.61227ZM13.8411 9.27041H14.1463V8.17041H13.8411V9.27041ZM13.7469 8.34227L13.5071 8.59552L14.3059 9.3518L14.5457 9.09856L13.7469 8.34227ZM13.3849 9.14815L13.5002 9.49278L14.5434 9.1438L14.4281 8.79917L13.3849 9.14815ZM14.2787 8.83196L13.9576 8.66239L13.4439 9.63505L13.7649 9.80462L14.2787 8.83196Z" fill="#FFD100" mask="url(#path-17-inside-3)"/>
</g>
</g>
<path d="M10.5238 10.3895C10.5698 10.5206 10.8989 10.6926 11.2817 10.4714C11.542 10.3158 11.7104 10.0946 11.8712 9.70139C11.9171 9.60308 11.9401 9.4802 11.8329 9.40647C11.7487 9.34094 11.6109 9.26721 11.5497 9.20167C11.519 9.1689 11.4884 9.14433 11.4655 9.11975C11.4808 9.13614 11.4961 9.15252 11.5114 9.1771C11.6645 9.3737 11.5037 9.66043 11.3353 9.83246C11.2128 9.95534 10.9908 10.2584 10.6693 9.97172C10.6004 9.90619 10.4396 10.1765 10.5238 10.3895L10.5238 10.3895Z" fill="#FFD100"/>
<path d="M15.1783 10.3895C15.1247 10.5206 14.7956 10.6926 14.4204 10.4714C14.1602 10.3158 13.9917 10.0946 13.8233 9.70139C13.785 9.60308 13.7621 9.4802 13.8692 9.40647C13.9535 9.34094 14.0913 9.26721 14.1525 9.20167C14.1831 9.1689 14.2061 9.14433 14.2367 9.11975C14.2214 9.13614 14.2061 9.15252 14.1908 9.1771C14.0377 9.3737 14.1984 9.66043 14.3592 9.83246C14.4817 9.95534 14.7113 10.2584 15.0329 9.97172C15.1018 9.90619 15.2549 10.1765 15.1783 10.3895L15.1783 10.3895Z" fill="#FFD100"/>
<path d="M12.8511 11.0941C13.4636 11.0941 14.4052 10.7992 14.9105 9.76702C14.9947 9.59499 14.9105 9.50488 14.8109 9.44753C14.7038 9.39838 14.5736 9.28369 14.5047 9.20996C14.6272 9.34103 14.6042 9.43115 14.52 9.5786C14.1296 10.2749 13.5937 10.6272 12.8511 10.6272C12.1085 10.6272 11.5727 10.2749 11.1822 9.5786C11.098 9.43115 11.075 9.34103 11.1899 9.20996C11.1286 9.28369 10.9908 9.39838 10.8837 9.44753C10.7841 9.50487 10.6999 9.59499 10.7841 9.76702C11.2894 10.7992 12.2387 11.0941 12.8511 11.0941H12.8511Z" fill="#FFD100"/>
<path d="M11.4348 9.70962C11.4195 9.6277 11.32 9.66047 11.2894 9.75878C11.2511 9.70143 11.2128 9.64409 11.1822 9.57855C11.0903 9.43109 11.075 9.33279 11.2052 9.19352C11.2664 9.12799 11.3889 9.05426 11.4731 9.13618C11.6492 9.29183 11.5573 9.54578 11.4348 9.70962L11.4348 9.70962Z" fill="#F50100"/>
<path d="M14.2597 9.70962C14.275 9.6277 14.3822 9.66047 14.4128 9.75878C14.4511 9.70143 14.4894 9.64409 14.52 9.57855C14.6119 9.43109 14.6272 9.33279 14.4894 9.19352C14.4358 9.12799 14.3133 9.05426 14.2215 9.13618C14.053 9.29183 14.1372 9.54578 14.2597 9.70962L14.2597 9.70962Z" fill="#F50100"/>
<path fill-rule="evenodd" clip-rule="evenodd" d="M12.4916 4.27201C12.265 3.94586 11.979 3.7203 11.8101 3.58716C11.7227 3.51818 11.6667 3.474 11.6667 3.4535C11.6667 3.3959 12.1219 3.54988 12.5871 3.94205C12.5974 3.91861 12.6082 3.89605 12.6195 3.87446C12.4829 3.60068 12.248 3.35819 12.1145 3.22029L12.1145 3.22029C12.0511 3.1549 12.0106 3.11303 12.0141 3.10249C12.0242 3.07213 12.4071 3.31959 12.746 3.69563C12.7789 3.66214 12.8139 3.63495 12.8505 3.61494L12.6267 3.24181H13.4267L13.1882 3.6392C13.2402 3.67601 13.2884 3.72762 13.3312 3.79131C13.6872 3.36234 14.135 3.06963 14.1459 3.10249L13.8756 3.71623C13.7483 3.79977 13.6118 3.90286 13.4771 4.02614L13.4533 4.04812L13.4613 4.07296C13.4628 4.07101 13.4639 4.06892 13.4646 4.06669C13.4684 4.05314 13.4726 4.03962 13.4771 4.02614L13.5317 4.49726C13.5327 4.52136 13.5333 4.54571 13.5333 4.57026C13.7625 4.31535 14.0057 4.21414 14.0057 4.24821C14.0057 4.25943 13.9801 4.2836 13.9401 4.32135C13.8365 4.4192 13.6362 4.60827 13.5348 4.89937C13.5308 4.91111 13.5189 4.91045 13.5039 4.90331C13.4315 5.2944 13.2332 5.57514 13 5.57514C12.7091 5.57514 12.4727 5.13858 12.4668 4.59586C12.3777 4.47042 12.2816 4.37968 12.2198 4.32135L12.2198 4.32135C12.1799 4.2836 12.1543 4.25943 12.1543 4.24821C12.1543 4.22179 12.3004 4.27669 12.4729 4.42147C12.4771 4.37026 12.4834 4.32034 12.4916 4.27201ZM13.5317 4.49726C13.7661 4.04751 14.1446 3.74903 14.3498 3.58716C14.4373 3.51818 14.4933 3.474 14.4933 3.4535C14.4933 3.40866 14.2174 3.49205 13.8756 3.71623L13.5317 4.49726Z" fill="#FFD100"/>
<path d="M11.8928 5.15134C11.8286 5.04182 11.6545 4.99315 11.5811 5.0905C11.5536 5.11484 11.517 5.11484 11.4895 5.12701C11.4436 5.12701 11.3851 5.15765 11.4034 5.27934C11.4528 5.27934 11.4528 5.30954 11.4803 5.30954C11.4986 5.29737 11.5463 5.52059 11.638 5.50842C11.7388 5.50842 11.8286 5.56509 11.847 5.58942C11.8745 5.62593 11.9111 5.72328 11.8653 5.77196C11.8011 5.84497 11.7553 6.01534 11.8653 6.14919C11.9845 6.27088 12.287 6.45342 12.6262 6.10052C12.9562 5.75979 13.4695 5.95449 13.5062 6.07618C13.552 6.19787 13.5704 6.27088 13.5795 6.33173C13.5887 6.3804 13.8362 6.45342 13.8729 6.48992C13.9187 6.52643 13.9829 6.51426 13.9646 6.40474C13.9279 6.06401 13.772 6.01534 13.7537 5.85714C13.8454 5.86931 13.9096 5.86931 13.9462 5.82063C13.9737 5.77196 14.0104 5.68678 14.0471 5.66244C14.0746 5.6381 14.0746 5.61376 14.0379 5.62593C13.9921 5.6381 13.9646 5.66244 13.8821 5.65027C13.6869 5.62211 13.7351 4.69902 13.0897 4.51945C12.6908 4.40849 12.1934 5.16943 12.057 5.24477C12.0541 5.24641 12.0513 5.24772 12.0486 5.2487C11.9845 5.24869 11.9295 5.21219 11.8928 5.15134Z" fill="#059334"/>
<mask id="mask2" mask-type="alpha" maskUnits="userSpaceOnUse" x="0" y="0" width="9" height="7">
<rect width="9" height="7" fill="white"/>
</mask>
<g mask="url(#mask2)">
<path d="M-1.00214 6.49993L0.978339 7.36853L9.04494 0.944391L10.0896 -0.346375L7.97176 -0.636686L4.68159 2.13166L2.03334 3.99688L-1.00214 6.49993Z" fill="#F7FCFF"/>
<path d="M-0.731018 7.10849L0.277943 7.61255L9.71445 -0.466309H8.29775L-0.731018 7.10849Z" fill="#F50100"/>
<path d="M10.0021 6.49993L8.02166 7.36853L-0.0449371 0.944391L-1.08959 -0.346375L1.02824 -0.636686L4.31841 2.13166L6.96666 3.99688L10.0021 6.49993Z" fill="#F7FCFF"/>
<path d="M9.93457 6.93661L8.92561 7.44067L4.90745 3.9817L3.71615 3.59523L-1.1901 -0.342034H0.226597L5.13009 3.50178L6.43256 3.96519L9.93457 6.93661Z" fill="#F50100"/>
<mask id="path-31-outside-4" maskUnits="userSpaceOnUse" x="-1" y="-1" width="11" height="9" fill="black">
<rect fill="white" x="-1" y="-1" width="11" height="9"/>
<path fill-rule="evenodd" clip-rule="evenodd" d="M4.99226 0H3.99226V3H0V4H3.99226V7H4.99226V4H9V3H4.99226V0Z"/>
</mask>
<path fill-rule="evenodd" clip-rule="evenodd" d="M4.99226 0H3.99226V3H0V4H3.99226V7H4.99226V4H9V3H4.99226V0Z" fill="#F50100"/>
<path d="M3.99226 0V-0.75H3.24226V0H3.99226ZM4.99226 0H5.74226V-0.75H4.99226V0ZM3.99226 3V3.75H4.74226V3H3.99226ZM0 3V2.25H-0.75V3H0ZM0 4H-0.75V4.75H0V4ZM3.99226 4H4.74226V3.25H3.99226V4ZM3.99226 7H3.24226V7.75H3.99226V7ZM4.99226 7V7.75H5.74226V7H4.99226ZM4.99226 4V3.25H4.24226V4H4.99226ZM9 4V4.75H9.75V4H9ZM9 3H9.75V2.25H9V3ZM4.99226 3H4.24226V3.75H4.99226V3ZM3.99226 0.75H4.99226V-0.75H3.99226V0.75ZM4.74226 3V0H3.24226V3H4.74226ZM0 3.75H3.99226V2.25H0V3.75ZM0.75 4V3H-0.75V4H0.75ZM3.99226 3.25H0V4.75H3.99226V3.25ZM4.74226 7V4H3.24226V7H4.74226ZM4.99226 6.25H3.99226V7.75H4.99226V6.25ZM4.24226 4V7H5.74226V4H4.24226ZM9 3.25H4.99226V4.75H9V3.25ZM8.25 3V4H9.75V3H8.25ZM4.99226 3.75H9V2.25H4.99226V3.75ZM4.24226 0V3H5.74226V0H4.24226Z" fill="#F7FCFF" mask="url(#path-31-outside-4)"/>
</g>
<defs>
<clipPath id="clip0">
<rect x="11.2843" y="6.35632" width="4" height="4" fill="white"/>
</clipPath>
</defs>
</svg>
