<svg width="32" height="24" viewBox="0 0 32 24" fill="none" xmlns="http://www.w3.org/2000/svg">
<mask id="mask0" mask-type="alpha" maskUnits="userSpaceOnUse" x="0" y="0" width="32" height="24">
<rect width="32" height="24" fill="white"/>
</mask>
<g mask="url(#mask0)">
<path fill-rule="evenodd" clip-rule="evenodd" d="M0 0V24H32V0H0Z" fill="#F7FCFF"/>
<mask id="mask1" mask-type="alpha" maskUnits="userSpaceOnUse" x="0" y="0" width="32" height="24">
<path fill-rule="evenodd" clip-rule="evenodd" d="M0 0V24H32V0H0Z" fill="white"/>
</mask>
<g mask="url(#mask1)">
<path fill-rule="evenodd" clip-rule="evenodd" d="M0 12V24H32V12H0Z" fill="#56C6F5"/>
<path fill-rule="evenodd" clip-rule="evenodd" d="M10.2542 9.02848C10.2468 8.94397 10.2291 8.87092 10.1985 8.81396C9.94164 8.33521 10.0246 7.73614 10.0246 7.73614C10.0246 7.73614 9.7179 8.4377 9.53793 9.09821C9.34874 8.79062 9.2826 8.48247 9.2826 8.48247C9.2826 8.48247 9.16016 10.42 9.5345 10.8791C9.90884 11.3382 10.1584 11.5399 10.1584 11.5399C10.1584 11.5399 10.1867 10.7354 10.0778 10.1062C10.1546 9.84367 10.2238 9.55612 10.2487 9.30854C10.2978 9.27216 10.4273 9.17494 10.5893 9.04273C10.521 9.41951 10.5176 9.62423 10.5176 9.62423C10.5176 9.62423 11.9282 8.60003 11.9641 8.0579C11.9999 7.51577 12.3878 7.05171 12.3878 7.05171C12.3878 7.05171 12.0671 7.27116 11.7009 7.56544C11.7977 7.11037 12.0974 6.75171 12.0974 6.75171C12.0974 6.75171 10.4952 7.84811 10.3639 8.42574C10.3068 8.67699 10.2735 8.87966 10.2542 9.02848ZM10.3228 12.3589C10.1692 12.0688 9.50063 10.8529 9.03431 10.7471C8.50447 10.6269 8.10679 10.1712 8.10679 10.1712C8.10679 10.1712 8.93906 11.9252 9.48903 12.1453C9.9307 12.322 10.2215 12.3925 10.3189 12.4134C10.3029 12.6499 10.3001 12.8132 10.3001 12.8132C10.3001 12.8132 10.5599 12.6249 10.9577 12.186C11.3556 11.7471 11.3347 9.8058 11.3347 9.8058C11.3347 9.8058 11.177 10.3897 10.7535 10.73C10.4694 10.9583 10.3624 11.8178 10.3228 12.3589ZM9.07138 12.1754C9.67669 12.1718 10.6079 13.6561 10.6079 13.6561C10.6079 13.6561 10.2471 13.6759 9.61691 13.5763C8.98668 13.4767 8.00439 11.7854 8.00439 11.7854C8.00439 11.7854 8.46606 12.1789 9.07138 12.1754ZM12.022 15.6323C12.022 15.6323 12.3812 13.7408 11.8418 13.2999C11.3025 12.8589 11.2073 12.2 11.2073 12.2C11.2073 12.2 10.7282 14.2975 11.2073 14.8407C11.6865 15.3838 12.022 15.6323 12.022 15.6323ZM9.84571 15.1216C10.1979 15.5392 11.3201 15.1216 11.3201 15.1216C11.3201 15.1216 11.5674 15.3462 10.6774 14.5328C9.78746 13.7194 7.97654 14.2331 8.4639 14.2331C8.95126 14.2331 9.49348 14.704 9.84571 15.1216ZM10.6774 17.342C11.3304 17.8949 12.7412 16.5801 12.7412 16.5801C12.7412 16.5801 12.378 16.1403 11.7049 15.8161C11.0317 15.4919 8.54871 15.8161 8.54871 15.8161L9.65372 16.3079C9.65372 16.3079 8.42371 16.789 8.7502 16.7622C9.07669 16.7353 10.0245 16.789 10.6774 17.342Z" fill="#006923"/>
<path fill-rule="evenodd" clip-rule="evenodd" d="M19.2135 16.1965C19.2135 16.1965 18.6522 15.2531 19.2135 14.7974C19.7749 14.3416 19.9971 14.6447 19.9971 14.1208C19.9971 13.5968 20.0539 13.7528 20.3297 13.4927C20.6055 13.2325 20.4101 12.6007 20.7795 12.9166C21.1489 13.2325 21.2179 12.6267 21.2179 13.8852C21.2179 15.1437 21.2179 12.7438 21.2179 12.037C21.2179 11.3301 20.7795 11.4975 20.7795 11.0234C20.7795 10.5494 20.3411 9.84146 20.7795 9.84146C21.2179 9.84146 21.4756 10.3682 21.4756 10.3682C21.4756 10.3682 21.9063 11.1023 21.9063 10.3682C21.9063 9.63403 21.1395 9.85229 20.7795 9.04215C20.4196 8.23201 20.4765 9.13301 19.9971 8.08909C19.5177 7.04517 18.9469 6.71391 19.472 6.71391C19.9971 6.71391 19.8799 6.71391 20.3297 6.71391C20.7795 6.71391 21.4756 6.34028 21.4756 6.71391C21.4756 7.08753 21.4756 6.91632 21.4756 7.50271C21.4756 8.08909 21.9063 8.08909 21.9063 8.08909C21.9063 8.08909 22.1405 6.91632 22.4347 7.50271C22.7288 8.08909 22.5286 9.04215 22.7438 9.04215C22.9591 9.04215 22.7809 8.05724 23.2511 8.8116C23.7212 9.56597 23.2511 10.0772 23.2511 10.3682C23.2511 10.6592 22.7438 11.3722 22.7438 11.3722C22.7438 11.3722 22.8429 11.7209 23.2511 11.3722C23.6593 11.0234 24.0465 10.6747 24.0465 11.0234C24.0465 11.3722 24.8419 11.4805 24.0465 12.037C23.2511 12.5934 23.7583 13.1506 23.2511 13.1506C22.7438 13.1506 22.1462 13.8852 21.9063 13.8852C21.6664 13.8852 20.7694 14.4477 21.2179 14.4477C21.6664 14.4477 22.1255 13.3227 22.4347 13.8852C22.7438 14.4477 22.7398 13.7939 22.9954 14.1208C23.2511 14.4477 23.5067 16.2214 23.2511 15.5094C22.9954 14.7974 22.5947 14.7974 21.9063 14.7974C21.2179 14.7974 19.8799 14.8488 20.3297 15.1791C20.7795 15.5094 21.2848 14.8488 21.4756 15.1791C21.6664 15.5094 21.6109 15.8397 21.9063 15.5094C22.2017 15.1791 22.4923 15.5094 22.7438 15.5094C22.9954 15.5094 22.4923 15.8791 22.7438 16.1965C22.9954 16.5138 23.5562 16.9366 22.9954 16.9366C22.4347 16.9366 22.1462 16.4883 21.9063 16.9366C21.6664 17.3849 21.6563 18.1635 21.2179 17.5501C20.7795 16.9366 19.9971 17.248 19.9971 16.9366C19.9971 16.6252 20.1682 16.5749 19.6909 16.5749C19.2135 16.5749 19.2135 16.1965 19.2135 16.1965Z" fill="#009933"/>
<path fill-rule="evenodd" clip-rule="evenodd" d="M21.516 9.44995C21.516 9.58802 21.4077 9.69995 21.2741 9.69995C21.1405 9.69995 21.0322 9.58802 21.0322 9.44995C21.0322 9.31188 21.1405 9.19995 21.2741 9.19995C21.4077 9.19995 21.516 9.31188 21.516 9.44995ZM10.3386 9.99995C10.4722 9.99995 10.5806 9.88802 10.5806 9.74995C10.5806 9.61188 10.4722 9.49995 10.3386 9.49995C10.205 9.49995 10.0967 9.61188 10.0967 9.74995C10.0967 9.88802 10.205 9.99995 10.3386 9.99995ZM10.5806 11.05C10.5806 11.188 10.4722 11.3 10.3386 11.3C10.205 11.3 10.0967 11.188 10.0967 11.05C10.0967 10.9119 10.205 10.8 10.3386 10.8C10.4722 10.8 10.5806 10.9119 10.5806 11.05ZM10.7257 13.6C10.8593 13.6 10.9676 13.488 10.9676 13.35C10.9676 13.2119 10.8593 13.1 10.7257 13.1C10.5921 13.1 10.4838 13.2119 10.4838 13.35C10.4838 13.488 10.5921 13.6 10.7257 13.6ZM12.6612 16.1C12.7948 16.1 12.9031 15.988 12.9031 15.85C12.9031 15.7119 12.7948 15.6 12.6612 15.6C12.5276 15.6 12.4193 15.7119 12.4193 15.85C12.4193 15.988 12.5276 16.1 12.6612 16.1ZM21.9515 12.3C22.0851 12.3 22.1935 12.188 22.1935 12.05C22.1935 11.9119 22.0851 11.8 21.9515 11.8C21.8179 11.8 21.7096 11.9119 21.7096 12.05C21.7096 12.188 21.8179 12.3 21.9515 12.3ZM21.4193 14.05C21.4193 14.188 21.3109 14.3 21.1773 14.3C21.0437 14.3 20.9354 14.188 20.9354 14.05C20.9354 13.9119 21.0437 13.8 21.1773 13.8C21.3109 13.8 21.4193 13.9119 21.4193 14.05ZM19.1451 16.5C19.2787 16.5 19.387 16.388 19.387 16.25C19.387 16.1119 19.2787 16 19.1451 16C19.0114 16 18.9031 16.1119 18.9031 16.25C18.9031 16.388 19.0114 16.5 19.1451 16.5ZM12.9999 16.55C12.9999 16.688 12.8916 16.8 12.758 16.8C12.6244 16.8 12.516 16.688 12.516 16.55C12.516 16.4119 12.6244 16.3 12.758 16.3C12.8916 16.3 12.9999 16.4119 12.9999 16.55Z" fill="#C51918"/>
<path fill-rule="evenodd" clip-rule="evenodd" d="M18.0377 19.8199C18.0377 19.615 14.9371 17.4782 14.1049 17.0069C13.2727 16.5356 9.20894 13.9416 10.3156 10.0002H10.1481C10.1481 10.0002 9.3992 14.8567 14.5592 17.8755C16.9087 19.4516 17.0257 19.8199 17.0257 19.8199C17.0257 19.8199 18.0377 20.0247 18.0377 19.8199Z" fill="#FECA00"/>
<path fill-rule="evenodd" clip-rule="evenodd" d="M13.9242 19.8199C13.9242 19.615 17.0248 17.4782 17.857 17.0069C18.6892 16.5356 22.753 13.9416 21.6463 10.0002H21.8138C21.8138 10.0002 22.5627 14.8567 17.4027 17.8755C15.0532 19.4516 14.9362 19.8199 14.9362 19.8199C14.9362 19.8199 13.9242 20.0247 13.9242 19.8199Z" fill="#FECA00"/>
<path fill-rule="evenodd" clip-rule="evenodd" d="M16.0485 16.8856C18.2131 16.8856 19.9679 14.0838 19.9679 11.35C19.9679 8.61614 18.2131 7.19995 16.0485 7.19995C13.8839 7.19995 12.1292 8.61614 12.1292 11.35C12.1292 14.0838 13.8839 16.8856 16.0485 16.8856Z" fill="#56C6F5"/>
<path fill-rule="evenodd" clip-rule="evenodd" d="M14.3131 9.53886C14.3131 9.53886 14.9167 9.00647 14.6149 9.00647C14.5564 9.00647 14.4851 8.99504 14.4083 8.98272C14.0889 8.93148 13.673 8.86476 13.673 9.53886V10.6973L13.6729 10.7H13.5838C13.5286 10.7 13.4838 10.7448 13.4838 10.8C13.4838 10.8552 13.5286 10.9 13.5838 10.9H13.662C13.6487 11.1474 13.625 11.5874 13.6018 12.0272L13.4873 12.0372C13.4282 12.0424 13.3844 12.0946 13.3896 12.1537L13.397 12.2384C13.4022 12.2975 13.4543 12.3413 13.5135 12.3361L13.5858 12.3298C13.559 12.8436 13.5363 13.2933 13.5363 13.3483C13.5363 13.4835 14.4546 13.4312 14.4546 13.4312C14.4546 13.4312 14.426 12.8891 14.3946 12.259L14.4561 12.2536C14.5153 12.2485 14.559 12.1963 14.5539 12.1371L14.5464 12.0525C14.5413 11.9934 14.4891 11.9496 14.43 11.9548L14.3797 11.9592C14.3612 11.5818 14.343 11.1987 14.3304 10.9H14.4483C14.5036 10.9 14.5483 10.8552 14.5483 10.8C14.5483 10.7448 14.5036 10.7 14.4483 10.7H14.3223C14.3165 10.5507 14.3131 10.4386 14.3131 10.382V9.53886Z" fill="white"/>
<path fill-rule="evenodd" clip-rule="evenodd" d="M13.8708 11H14.1934V11.4301H13.8708V11Z" fill="black"/>
<path fill-rule="evenodd" clip-rule="evenodd" d="M13.7742 12.5H14.3118V13.5H13.7742V12.5Z" fill="black"/>
<path fill-rule="evenodd" clip-rule="evenodd" d="M16.3454 9.53886C16.3454 9.53886 16.949 9.00647 16.6472 9.00647C16.5886 9.00647 16.5174 8.99504 16.4405 8.98272C16.1211 8.93148 15.7052 8.86476 15.7052 9.53886V10.6973L15.7051 10.7H15.616C15.5608 10.7 15.516 10.7448 15.516 10.8C15.516 10.8552 15.5608 10.9 15.616 10.9H15.6943C15.6809 11.1474 15.6572 11.5874 15.634 12.0272L15.5195 12.0372C15.4604 12.0424 15.4166 12.0946 15.4218 12.1537L15.4292 12.2384C15.4344 12.2975 15.4865 12.3413 15.5457 12.3361L15.6181 12.3298C15.5912 12.8436 15.5685 13.2933 15.5685 13.3483C15.5685 13.4835 16.4868 13.4312 16.4868 13.4312C16.4868 13.4312 16.4583 12.8891 16.4268 12.259L16.4883 12.2536C16.5475 12.2485 16.5913 12.1963 16.5861 12.1371L16.5787 12.0525C16.5735 11.9934 16.5213 11.9496 16.4622 11.9548L16.4119 11.9592C16.3934 11.5818 16.3753 11.1987 16.3626 10.9H16.4806C16.5358 10.9 16.5806 10.8552 16.5806 10.8C16.5806 10.7448 16.5358 10.7 16.4806 10.7H16.3545C16.3487 10.5507 16.3454 10.4386 16.3454 10.382V9.53886Z" fill="white"/>
<path fill-rule="evenodd" clip-rule="evenodd" d="M15.9031 11H16.2257V11.4301H15.9031V11Z" fill="black"/>
<path fill-rule="evenodd" clip-rule="evenodd" d="M15.8064 12.5H16.344V13.5H15.8064V12.5Z" fill="black"/>
<path fill-rule="evenodd" clip-rule="evenodd" d="M18.2809 9.53886C18.2809 9.53886 18.8845 9.00647 18.5827 9.00647C18.5242 9.00647 18.4529 8.99504 18.3761 8.98272C18.0567 8.93148 17.6408 8.86476 17.6408 9.53886V10.6973L17.6406 10.7H17.5516C17.4964 10.7 17.4516 10.7448 17.4516 10.8C17.4516 10.8552 17.4964 10.9 17.5516 10.9H17.6298C17.6164 11.1474 17.5928 11.5874 17.5695 12.0272L17.4551 12.0372C17.3959 12.0424 17.3522 12.0946 17.3573 12.1537L17.3648 12.2384C17.3699 12.2975 17.4221 12.3413 17.4812 12.3361L17.5536 12.3298C17.5268 12.8436 17.5041 13.2933 17.5041 13.3483C17.5041 13.4835 18.4224 13.4312 18.4224 13.4312C18.4224 13.4312 18.3938 12.8891 18.3623 12.259L18.4239 12.2536C18.483 12.2485 18.5268 12.1963 18.5216 12.1371L18.5142 12.0525C18.509 11.9934 18.4569 11.9496 18.3977 11.9548L18.3475 11.9592C18.329 11.5818 18.3108 11.1987 18.2982 10.9H18.4161C18.4713 10.9 18.5161 10.8552 18.5161 10.8C18.5161 10.7448 18.4713 10.7 18.4161 10.7H18.29C18.2843 10.5507 18.2809 10.4386 18.2809 10.382V9.53886Z" fill="white"/>
<path fill-rule="evenodd" clip-rule="evenodd" d="M17.8386 11H18.1612V11.4301H17.8386V11Z" fill="black"/>
<path fill-rule="evenodd" clip-rule="evenodd" d="M17.7419 12.5H18.2796V13.5H17.7419V12.5Z" fill="black"/>
<path fill-rule="evenodd" clip-rule="evenodd" d="M18.516 6.40015H13.387V7.16578L13.3526 7.16886C13.3526 7.16886 10.8397 9.12159 11.5371 12.0468C12.2345 14.972 15.0047 17.1413 15.0047 17.1413L15.1443 16.6365C15.1443 16.6365 12.5047 13.0473 12.5047 11.6131C12.5047 10.1789 13.0027 8.83282 13.53 8.62352C13.8472 8.49763 13.9019 8.52318 13.9883 8.56353C14.0456 8.59028 14.1167 8.62352 14.2874 8.62352C14.7157 8.62352 15.1443 8.31695 15.1443 8.31695C15.1443 8.31695 15.4423 8.62352 15.7191 8.62352C15.9959 8.62352 15.9998 8.31695 15.9998 8.31695V7.30015H16.0307V8.31695C16.0307 8.31695 16.0346 8.62352 16.3114 8.62352C16.5882 8.62352 16.8862 8.31695 16.8862 8.31695C16.8862 8.31695 17.3148 8.62352 17.7431 8.62352C17.9138 8.62352 17.9849 8.59028 18.0422 8.56353C18.1286 8.52318 18.1833 8.49763 18.5005 8.62352C19.0278 8.83282 19.5258 10.1789 19.5258 11.6131C19.5258 13.0473 16.8862 16.6365 16.8862 16.6365L17.0258 17.1413C17.0258 17.1413 19.796 14.972 20.4934 12.0468C21.1908 9.12159 18.6779 7.16886 18.6779 7.16886L18.516 7.15439V6.40015Z" fill="#E8AA00"/>
<path d="M13.387 6.40015V5.90015H12.887V6.40015H13.387ZM18.516 6.40015H19.016V5.90015H18.516V6.40015ZM13.387 7.16578L13.4315 7.6638L13.887 7.62307V7.16578H13.387ZM13.3526 7.16886L13.3081 6.67085L13.1618 6.68393L13.0458 6.77405L13.3526 7.16886ZM11.5371 12.0468L11.0507 12.1627L11.5371 12.0468ZM15.0047 17.1413L14.6964 17.5349L15.2867 17.9972L15.4866 17.2746L15.0047 17.1413ZM15.1443 16.6365L15.6262 16.7698L15.6909 16.5358L15.5471 16.3402L15.1443 16.6365ZM13.53 8.62352L13.3455 8.15879L13.3455 8.15879L13.53 8.62352ZM13.9883 8.56353L13.7767 9.01657L13.7767 9.01657L13.9883 8.56353ZM15.1443 8.31695L15.5029 7.96846L15.2032 7.66011L14.8534 7.91028L15.1443 8.31695ZM15.9998 8.31695L16.4998 8.32327V8.31695H15.9998ZM15.9998 7.30015V6.80015H15.4998V7.30015H15.9998ZM16.0307 7.30015H16.5307V6.80015H16.0307V7.30015ZM16.0307 8.31695H15.5307L15.5308 8.32327L16.0307 8.31695ZM16.8862 8.31695L17.1771 7.91028L16.8273 7.66011L16.5276 7.96846L16.8862 8.31695ZM18.0422 8.56353L18.2538 9.01657L18.2538 9.01657L18.0422 8.56353ZM18.5005 8.62352L18.316 9.08825L18.5005 8.62352ZM16.8862 16.6365L16.4834 16.3402L16.3396 16.5358L16.4043 16.7698L16.8862 16.6365ZM17.0258 17.1413L16.5439 17.2746L16.7438 17.9972L17.3341 17.5349L17.0258 17.1413ZM18.6779 7.16886L18.9847 6.77405L18.8687 6.68393L18.7224 6.67085L18.6779 7.16886ZM18.516 7.15439H18.016V7.61168L18.4715 7.6524L18.516 7.15439ZM13.387 6.90015H18.516V5.90015H13.387V6.90015ZM13.887 7.16578V6.40015H12.887V7.16578H13.887ZM13.3971 7.66687L13.4315 7.6638L13.3425 6.66777L13.3081 6.67085L13.3971 7.66687ZM12.0235 11.9308C11.7157 10.6399 12.1111 9.55897 12.6057 8.7785C12.853 8.3881 13.1213 8.08 13.3276 7.87003C13.4303 7.76541 13.5167 7.68617 13.5758 7.63428C13.6053 7.60836 13.628 7.58934 13.6424 7.57747C13.6496 7.57154 13.6547 7.56741 13.6576 7.56509C13.6591 7.56394 13.6599 7.56324 13.6602 7.563C13.6604 7.56288 13.6604 7.56288 13.6603 7.56299C13.6602 7.56304 13.6601 7.56313 13.6599 7.56324C13.6599 7.5633 13.6597 7.56341 13.6597 7.56343C13.6595 7.56355 13.6594 7.56367 13.3526 7.16886C13.0458 6.77405 13.0456 6.77419 13.0454 6.77433C13.0453 6.77439 13.0452 6.77454 13.045 6.77466C13.0447 6.77489 13.0444 6.77515 13.044 6.77545C13.0432 6.77604 13.0423 6.77674 13.0413 6.77757C13.0392 6.77924 13.0365 6.78138 13.0332 6.78401C13.0266 6.78926 13.0177 6.79645 13.0067 6.80553C12.9846 6.8237 12.954 6.84949 12.9162 6.88268C12.8406 6.949 12.7361 7.04517 12.6141 7.16933C12.371 7.41691 12.0546 7.77981 11.761 8.24324C11.1734 9.17044 10.6611 10.5285 11.0507 12.1627L12.0235 11.9308ZM15.0047 17.1413C15.3129 16.7476 15.313 16.7477 15.3131 16.7478C15.3131 16.7478 15.3132 16.7478 15.3132 16.7478C15.3133 16.7479 15.3133 16.7479 15.3132 16.7479C15.3132 16.7478 15.313 16.7476 15.3126 16.7473C15.3118 16.7467 15.3104 16.7456 15.3083 16.7439C15.3042 16.7406 15.2975 16.7353 15.2884 16.728C15.2703 16.7132 15.2427 16.6905 15.2066 16.6601C15.1345 16.5993 15.029 16.5079 14.8995 16.3887C14.6402 16.15 14.2864 15.8015 13.9117 15.3652C13.1564 14.4856 12.3459 13.2833 12.0235 11.9308L11.0507 12.1627C11.4257 13.7355 12.349 15.0804 13.1531 16.0167C13.5582 16.4884 13.9404 16.8651 14.2223 17.1245C14.3634 17.2544 14.4798 17.3553 14.5619 17.4246C14.603 17.4592 14.6355 17.4859 14.6583 17.5044C14.6697 17.5137 14.6787 17.5209 14.6851 17.526C14.6883 17.5285 14.6908 17.5306 14.6927 17.5321C14.6937 17.5328 14.6944 17.5334 14.6951 17.5339C14.6954 17.5341 14.6956 17.5343 14.6958 17.5345C14.696 17.5346 14.6961 17.5347 14.6961 17.5348C14.6963 17.5348 14.6964 17.5349 15.0047 17.1413ZM14.6624 16.5031L14.5228 17.008L15.4866 17.2746L15.6262 16.7698L14.6624 16.5031ZM12.0047 11.6131C12.0047 12.0892 12.213 12.6686 12.4629 13.2119C12.722 13.7755 13.0632 14.3774 13.3982 14.9239C13.7342 15.4721 14.0694 15.9734 14.3202 16.3371C14.4458 16.5192 14.5506 16.6673 14.6242 16.7703C14.661 16.8217 14.69 16.862 14.71 16.8895C14.72 16.9033 14.7277 16.9139 14.733 16.9211C14.7357 16.9247 14.7377 16.9275 14.7392 16.9295C14.7399 16.9304 14.7404 16.9312 14.7408 16.9317C14.741 16.932 14.7412 16.9322 14.7413 16.9324C14.7413 16.9325 14.7414 16.9325 14.7414 16.9326C14.7415 16.9326 14.7415 16.9327 15.1443 16.6365C15.5471 16.3402 15.5471 16.3402 15.5471 16.3403C15.5471 16.3402 15.5471 16.3402 15.5471 16.3402C15.5471 16.3401 15.547 16.34 15.5468 16.3399C15.5466 16.3395 15.5462 16.339 15.5456 16.3382C15.5445 16.3367 15.5428 16.3343 15.5404 16.3311C15.5358 16.3247 15.5287 16.315 15.5193 16.3021C15.5006 16.2764 15.473 16.2381 15.4376 16.1886C15.3669 16.0897 15.2654 15.9462 15.1435 15.7694C14.8994 15.4153 14.5747 14.9297 14.2508 14.4013C13.9259 13.8712 13.6072 13.307 13.3714 12.7942C13.1263 12.2612 13.0047 11.8541 13.0047 11.6131H12.0047ZM13.3455 8.15879C13.0788 8.26468 12.8786 8.48286 12.7336 8.69647C12.5819 8.92005 12.4528 9.1946 12.3479 9.49325C12.1377 10.0913 12.0047 10.8427 12.0047 11.6131H13.0047C13.0047 10.9493 13.1206 10.3106 13.2913 9.82473C13.3768 9.58141 13.4711 9.39055 13.561 9.25806C13.6577 9.11558 13.7176 9.08701 13.7145 9.08825L13.3455 8.15879ZM14.1999 8.1105C14.1401 8.08261 14.0083 8.01914 13.8122 8.03231C13.6647 8.04221 13.5098 8.09358 13.3455 8.15879L13.7145 9.08825C13.7851 9.0602 13.8315 9.04448 13.8613 9.03592C13.8917 9.02718 13.8942 9.02905 13.8792 9.03006C13.8706 9.03064 13.8574 9.03087 13.8409 9.02927C13.824 9.02764 13.8076 9.02449 13.7925 9.02035C13.778 9.01637 13.768 9.01238 13.765 9.0111C13.7637 9.01056 13.7641 9.01067 13.7767 9.01657L14.1999 8.1105ZM14.2874 8.12352C14.2609 8.12352 14.2432 8.12222 14.2324 8.12101C14.2218 8.11983 14.2174 8.11869 14.2174 8.11868C14.2173 8.11865 14.2176 8.11873 14.2183 8.11895C14.2189 8.11916 14.2192 8.1193 14.219 8.11921C14.2175 8.11862 14.2151 8.11762 14.1998 8.1105L13.7767 9.01657C13.8092 9.03173 13.8777 9.06438 13.9733 9.08843C14.0668 9.11197 14.1693 9.12352 14.2874 9.12352V8.12352ZM15.1443 8.31695C14.8534 7.91028 14.8535 7.91021 14.8536 7.91015C14.8536 7.91013 14.8537 7.91006 14.8538 7.91002C14.8539 7.90994 14.854 7.90987 14.8541 7.9098C14.8543 7.90965 14.8545 7.90953 14.8546 7.90942C14.8549 7.9092 14.8551 7.90905 14.8552 7.90897C14.8555 7.90882 14.8553 7.90892 14.8548 7.90928C14.8538 7.91001 14.8513 7.91172 14.8474 7.91429C14.8397 7.91944 14.8267 7.92791 14.8093 7.9386C14.774 7.96023 14.7226 7.98966 14.6612 8.01894C14.5288 8.08212 14.3934 8.12352 14.2874 8.12352V9.12352C14.6097 9.12352 14.9028 9.01163 15.0917 8.92152C15.191 8.87416 15.2735 8.82695 15.332 8.7911C15.3614 8.77305 15.3853 8.75757 15.4027 8.74595C15.4114 8.74014 15.4185 8.73527 15.424 8.7315C15.4267 8.72961 15.429 8.728 15.4309 8.72668C15.4318 8.72602 15.4327 8.72543 15.4334 8.72492C15.4337 8.72466 15.4341 8.72443 15.4344 8.72421C15.4345 8.7241 15.4347 8.724 15.4348 8.7239C15.4349 8.72385 15.435 8.72378 15.435 8.72375C15.4351 8.72368 15.4352 8.72361 15.1443 8.31695ZM15.7191 8.12352C15.7393 8.12352 15.7378 8.12822 15.71 8.11626C15.684 8.1051 15.6513 8.08641 15.6153 8.06111C15.5803 8.03651 15.5497 8.01099 15.5278 7.99152C15.5171 7.98203 15.5093 7.97461 15.5048 7.9703C15.5026 7.96816 15.5013 7.96684 15.5009 7.96647C15.5007 7.96629 15.5008 7.96636 15.5011 7.96668C15.5013 7.96684 15.5015 7.96707 15.5018 7.96736C15.5019 7.96751 15.5021 7.96768 15.5023 7.96786C15.5024 7.96795 15.5025 7.96804 15.5026 7.96814C15.5026 7.96819 15.5027 7.96827 15.5027 7.9683C15.5028 7.96838 15.5029 7.96846 15.1443 8.31695C14.7858 8.66544 14.7858 8.66552 14.7859 8.6656C14.786 8.66563 14.786 8.66572 14.7861 8.66578C14.7862 8.6659 14.7863 8.66602 14.7865 8.66615C14.7867 8.6664 14.787 8.66668 14.7873 8.66697C14.7878 8.66756 14.7885 8.66823 14.7892 8.66897C14.7907 8.67046 14.7925 8.67224 14.7945 8.67431C14.7987 8.67843 14.804 8.6837 14.8105 8.68994C14.8234 8.7024 14.841 8.71893 14.8626 8.73818C14.9053 8.77619 14.9664 8.82731 15.0405 8.87936C15.1678 8.96878 15.4192 9.12352 15.7191 9.12352V8.12352ZM15.9998 8.31695C15.4998 8.31062 15.4998 8.3104 15.4998 8.31018C15.4998 8.31011 15.4998 8.3099 15.4998 8.30975C15.4998 8.30947 15.4998 8.30918 15.4998 8.3089C15.4998 8.30834 15.4998 8.3078 15.4998 8.30726C15.4999 8.3062 15.4999 8.30519 15.4999 8.30423C15.5 8.30231 15.5 8.30058 15.5001 8.29904C15.5002 8.29596 15.5004 8.29354 15.5005 8.29166C15.5008 8.28807 15.5011 8.28585 15.5013 8.28435C15.5014 8.28381 15.5026 8.27501 15.5097 8.25975C15.5171 8.24385 15.538 8.2061 15.5845 8.17207C15.6367 8.13388 15.6896 8.12352 15.7191 8.12352V9.12352C15.887 9.12352 16.0441 9.07484 16.1749 8.97916C16.3 8.88765 16.3738 8.77326 16.4168 8.68071C16.4594 8.58881 16.4788 8.50337 16.4883 8.44535C16.4932 8.41511 16.496 8.38894 16.4976 8.36857C16.4984 8.35831 16.4989 8.34931 16.4992 8.34174C16.4993 8.33795 16.4995 8.33451 16.4995 8.33143C16.4996 8.32989 16.4996 8.32843 16.4996 8.32707C16.4997 8.32639 16.4997 8.32574 16.4997 8.3251C16.4997 8.32479 16.4997 8.32447 16.4997 8.32417C16.4997 8.32402 16.4997 8.32379 16.4997 8.32372C16.4997 8.32349 16.4997 8.32327 15.9998 8.31695ZM15.4998 7.30015V8.31695H16.4998V7.30015H15.4998ZM16.0307 6.80015H15.9998V7.80015H16.0307V6.80015ZM15.5307 7.30015V8.31695H16.5307V7.30015H15.5307ZM16.0307 8.31695C15.5308 8.32327 15.5308 8.32349 15.5308 8.32372C15.5308 8.32379 15.5308 8.32402 15.5308 8.32417C15.5308 8.32447 15.5308 8.32479 15.5308 8.3251C15.5308 8.32574 15.5308 8.32639 15.5309 8.32707C15.5309 8.32843 15.5309 8.32989 15.531 8.33143C15.531 8.33451 15.5312 8.33795 15.5313 8.34174C15.5316 8.34931 15.5321 8.35831 15.5329 8.36857C15.5345 8.38894 15.5373 8.41511 15.5422 8.44535C15.5517 8.50337 15.5711 8.58881 15.6137 8.68071C15.6567 8.77326 15.7305 8.88765 15.8556 8.97916C15.9864 9.07484 16.1435 9.12352 16.3114 9.12352V8.12352C16.3409 8.12352 16.3938 8.13388 16.446 8.17207C16.4925 8.2061 16.5134 8.24385 16.5208 8.25975C16.5279 8.27501 16.5291 8.28381 16.5292 8.28435C16.5294 8.28585 16.5297 8.28807 16.53 8.29166C16.5301 8.29354 16.5303 8.29596 16.5304 8.29904C16.5305 8.30058 16.5305 8.30231 16.5306 8.30423C16.5306 8.30519 16.5306 8.3062 16.5307 8.30726C16.5307 8.3078 16.5307 8.30834 16.5307 8.3089C16.5307 8.30918 16.5307 8.30947 16.5307 8.30975C16.5307 8.3099 16.5307 8.31011 16.5307 8.31018C16.5307 8.3104 16.5307 8.31062 16.0307 8.31695ZM16.3114 9.12352C16.6113 9.12352 16.8627 8.96878 16.99 8.87936C17.0641 8.82731 17.1252 8.77619 17.1679 8.73818C17.1895 8.71893 17.2071 8.7024 17.22 8.68994C17.2265 8.6837 17.2318 8.67843 17.236 8.67431C17.238 8.67224 17.2398 8.67046 17.2413 8.66897C17.242 8.66823 17.2427 8.66756 17.2432 8.66697C17.2435 8.66668 17.2438 8.6664 17.244 8.66615C17.2442 8.66602 17.2443 8.6659 17.2444 8.66578C17.2445 8.66572 17.2445 8.66563 17.2446 8.6656C17.2447 8.66552 17.2447 8.66544 16.8862 8.31695C16.5276 7.96846 16.5277 7.96838 16.5278 7.9683C16.5278 7.96827 16.5279 7.96819 16.5279 7.96814C16.528 7.96804 16.5281 7.96795 16.5282 7.96786C16.5284 7.96768 16.5286 7.96751 16.5287 7.96736C16.529 7.96707 16.5292 7.96684 16.5294 7.96668C16.5297 7.96636 16.5298 7.96629 16.5296 7.96647C16.5292 7.96684 16.5279 7.96816 16.5257 7.9703C16.5212 7.97461 16.5134 7.98203 16.5027 7.99152C16.4808 8.01099 16.4502 8.03651 16.4152 8.06111C16.3791 8.08641 16.3465 8.1051 16.3205 8.11626C16.2927 8.12822 16.2912 8.12352 16.3114 8.12352V9.12352ZM16.8862 8.31695C16.5953 8.72361 16.5954 8.72368 16.5955 8.72375C16.5955 8.72378 16.5956 8.72385 16.5957 8.7239C16.5958 8.724 16.596 8.7241 16.5961 8.72421C16.5964 8.72443 16.5968 8.72466 16.5971 8.72492C16.5978 8.72543 16.5987 8.72602 16.5996 8.72668C16.6015 8.728 16.6038 8.72961 16.6065 8.7315C16.612 8.73527 16.6191 8.74014 16.6278 8.74595C16.6452 8.75757 16.669 8.77305 16.6985 8.7911C16.757 8.82695 16.8395 8.87416 16.9388 8.92152C17.1277 9.01163 17.4208 9.12352 17.7431 9.12352V8.12352C17.6371 8.12352 17.5017 8.08212 17.3693 8.01894C17.3079 7.98966 17.2565 7.96023 17.2212 7.9386C17.2038 7.92791 17.1908 7.91944 17.1831 7.91429C17.1792 7.91172 17.1767 7.91001 17.1757 7.90928C17.1752 7.90892 17.175 7.90882 17.1753 7.90897C17.1754 7.90905 17.1756 7.9092 17.1759 7.90942C17.176 7.90953 17.1762 7.90965 17.1764 7.9098C17.1765 7.90987 17.1766 7.90994 17.1767 7.91002C17.1768 7.91006 17.1769 7.91013 17.1769 7.91015C17.177 7.91021 17.1771 7.91028 16.8862 8.31695ZM17.7431 9.12352C17.8612 9.12352 17.9637 9.11197 18.0572 9.08843C18.1528 9.06438 18.2213 9.03173 18.2538 9.01657L17.8306 8.1105C17.8154 8.11762 17.813 8.11862 17.8115 8.11921C17.8113 8.1193 17.8116 8.11916 17.8122 8.11895C17.8129 8.11873 17.8132 8.11865 17.8131 8.11868C17.8131 8.11869 17.8087 8.11983 17.7981 8.12101C17.7873 8.12222 17.7696 8.12352 17.7431 8.12352V9.12352ZM18.2538 9.01657C18.2664 9.01067 18.2668 9.01056 18.2655 9.0111C18.2625 9.01238 18.2525 9.01637 18.238 9.02035C18.2229 9.02449 18.2065 9.02764 18.1896 9.02927C18.1731 9.03087 18.1599 9.03064 18.1513 9.03006C18.1363 9.02905 18.1388 9.02718 18.1692 9.03592C18.199 9.04448 18.2454 9.0602 18.316 9.08825L18.685 8.15879C18.5207 8.09358 18.3658 8.04221 18.2183 8.03231C18.0222 8.01914 17.8904 8.08261 17.8306 8.1105L18.2538 9.01657ZM18.316 9.08825C18.3129 9.08701 18.3727 9.11558 18.4695 9.25806C18.5594 9.39055 18.6537 9.58141 18.7392 9.82473C18.9099 10.3106 19.0258 10.9493 19.0258 11.6131H20.0258C20.0258 10.8427 19.8928 10.0913 19.6826 9.49325C19.5777 9.1946 19.4486 8.92005 19.2969 8.69647C19.1519 8.48286 18.9517 8.26468 18.685 8.15879L18.316 9.08825ZM19.0258 11.6131C19.0258 11.8541 18.9042 12.2612 18.6591 12.7942C18.4233 13.307 18.1046 13.8712 17.7797 14.4013C17.4558 14.9297 17.1311 15.4153 16.887 15.7694C16.7651 15.9462 16.6636 16.0897 16.5929 16.1886C16.5575 16.2381 16.5299 16.2764 16.5112 16.3021C16.5018 16.315 16.4947 16.3247 16.4901 16.3311C16.4877 16.3343 16.486 16.3367 16.4849 16.3382C16.4843 16.339 16.4839 16.3395 16.4837 16.3399C16.4835 16.34 16.4834 16.3401 16.4834 16.3402C16.4834 16.3402 16.4834 16.3402 16.4834 16.3403C16.4834 16.3402 16.4834 16.3402 16.8862 16.6365C17.289 16.9327 17.289 16.9326 17.2891 16.9326C17.2891 16.9325 17.2892 16.9325 17.2892 16.9324C17.2893 16.9322 17.2895 16.932 17.2897 16.9317C17.2901 16.9312 17.2906 16.9304 17.2913 16.9295C17.2928 16.9275 17.2948 16.9247 17.2975 16.9211C17.3028 16.9139 17.3105 16.9033 17.3205 16.8895C17.3405 16.862 17.3695 16.8217 17.4063 16.7703C17.4799 16.6673 17.5847 16.5192 17.7103 16.3371C17.9611 15.9734 18.2963 15.4721 18.6323 14.9239C18.9673 14.3774 19.3085 13.7755 19.5676 13.2119C19.8175 12.6686 20.0258 12.0892 20.0258 11.6131H19.0258ZM16.4043 16.7698L16.5439 17.2746L17.5077 17.008L17.3681 16.5031L16.4043 16.7698ZM17.0258 17.1413C17.3341 17.5349 17.3342 17.5348 17.3344 17.5348C17.3344 17.5347 17.3345 17.5346 17.3347 17.5345C17.3349 17.5343 17.3351 17.5341 17.3354 17.5339C17.3361 17.5334 17.3368 17.5328 17.3378 17.5321C17.3397 17.5306 17.3422 17.5285 17.3454 17.526C17.3518 17.5209 17.3608 17.5137 17.3722 17.5044C17.395 17.4859 17.4275 17.4592 17.4686 17.4246C17.5507 17.3553 17.6671 17.2544 17.8082 17.1245C18.0901 16.8651 18.4723 16.4884 18.8774 16.0167C19.6815 15.0804 20.6048 13.7355 20.9798 12.1627L20.007 11.9308C19.6846 13.2833 18.8741 14.4856 18.1188 15.3652C17.7441 15.8015 17.3903 16.15 17.131 16.3887C17.0015 16.5079 16.896 16.5993 16.8239 16.6601C16.7878 16.6905 16.7602 16.7132 16.7421 16.728C16.733 16.7353 16.7263 16.7406 16.7222 16.7439C16.7201 16.7456 16.7187 16.7467 16.7179 16.7473C16.7175 16.7476 16.7173 16.7478 16.7173 16.7479C16.7172 16.7479 16.7172 16.7479 16.7173 16.7478C16.7173 16.7478 16.7174 16.7478 16.7174 16.7478C16.7175 16.7477 16.7176 16.7476 17.0258 17.1413ZM20.9798 12.1627C21.3694 10.5285 20.8571 9.17044 20.2695 8.24324C19.9759 7.77981 19.6595 7.41691 19.4164 7.16933C19.2944 7.04517 19.1899 6.949 19.1143 6.88268C19.0765 6.84949 19.0459 6.8237 19.0238 6.80553C19.0128 6.79645 19.0039 6.78926 18.9973 6.78401C18.994 6.78138 18.9913 6.77924 18.9892 6.77757C18.9882 6.77674 18.9873 6.77604 18.9865 6.77545C18.9861 6.77515 18.9858 6.77489 18.9855 6.77466C18.9853 6.77454 18.9851 6.77439 18.9851 6.77433C18.9849 6.77419 18.9847 6.77405 18.6779 7.16886C18.3711 7.56367 18.371 7.56355 18.3708 7.56343C18.3708 7.56341 18.3706 7.5633 18.3706 7.56324C18.3704 7.56313 18.3703 7.56304 18.3702 7.56299C18.3701 7.56288 18.3701 7.56288 18.3703 7.563C18.3706 7.56324 18.3714 7.56394 18.3729 7.56509C18.3758 7.56741 18.3809 7.57154 18.3881 7.57747C18.4025 7.58934 18.4252 7.60836 18.4547 7.63428C18.5138 7.68617 18.6002 7.76541 18.7029 7.87003C18.9092 8.08 19.1775 8.3881 19.4248 8.7785C19.9194 9.55897 20.3148 10.6399 20.007 11.9308L20.9798 12.1627ZM18.7224 6.67085L18.5605 6.65637L18.4715 7.6524L18.6334 7.66687L18.7224 6.67085ZM18.016 6.40015V7.15439H19.016V6.40015H18.016Z" fill="#FFD018"/>
<path fill-rule="evenodd" clip-rule="evenodd" d="M13.1035 13.7849C13.1035 13.7849 13.418 12.9405 13.9679 13.222C14.5179 13.5035 14.4699 14.4833 14.9702 14.1341C15.4706 13.7849 15.1869 13.222 15.9283 13.222C16.6698 13.222 16.5606 14.1341 17.0052 14.1341C17.4499 14.1341 17.4884 13.222 17.9854 13.222C18.4825 13.222 18.9866 13.7849 18.9866 13.7849L16.0451 17.7874L13.1035 13.7849Z" fill="#8FC753"/>
<path fill-rule="evenodd" clip-rule="evenodd" d="M7.92888 18.4574L7.6125 18.031C7.6125 18.031 8.92457 18.031 9.10257 18.3396C9.15274 18.4265 9.17463 18.4929 9.19129 18.5435C9.23375 18.6723 9.24225 18.6981 9.59816 18.6981C10.0937 18.6981 9.59816 18.2064 9.3918 18.031C9.18545 17.8557 9.31111 17.55 9.59816 17.55C9.70878 17.55 9.90134 17.5246 10.138 17.4935C10.5155 17.4437 11.0052 17.3792 11.4539 17.3792C12.184 17.3792 11.5788 18.031 11.5788 18.031C11.5788 18.031 12.524 18.031 12.2894 17.7598C12.0547 17.4885 13.0773 17.1584 13.5191 17.1584C13.931 17.1584 15.7851 17.2509 16.0345 17.2634C16.2953 17.2509 18.2336 17.1584 18.6454 17.1584C19.0872 17.1584 20.1098 17.4885 19.8751 17.7598C19.6405 18.031 20.5857 18.031 20.5857 18.031C20.5857 18.031 19.9805 17.3792 20.7106 17.3792C21.1593 17.3792 21.649 17.4437 22.0265 17.4935C22.2632 17.5246 22.4557 17.55 22.5664 17.55C22.8534 17.55 22.9791 17.8557 22.7727 18.031C22.5664 18.2064 22.0708 18.6981 22.5664 18.6981C22.9223 18.6981 22.9308 18.6723 22.9732 18.5435C22.9899 18.4929 23.0118 18.4265 23.0619 18.3396C23.2336 18.042 24.4605 18.0314 24.5472 18.0311C24.5274 17.9948 24.5161 17.953 24.5161 17.9084C24.5161 17.7704 24.6244 17.6584 24.7581 17.6584C24.8917 17.6584 25 17.7704 25 17.9084C25 18.0465 24.8917 18.1584 24.7581 18.1584C24.669 18.1584 24.5913 18.1088 24.5492 18.0348L24.2356 18.4574L24.5622 18.8617C24.6062 18.7991 24.6775 18.7584 24.7581 18.7584C24.8917 18.7584 25 18.8704 25 19.0084C25 19.1465 24.8917 19.2584 24.7581 19.2584C24.6244 19.2584 24.5161 19.1465 24.5161 19.0084C24.5161 18.9799 24.5208 18.9525 24.5293 18.927C24.3443 18.8371 24.0247 18.6981 23.8174 18.6981H23.2399C23.3852 18.6981 24.1848 19.2257 23.9427 19.4543L23.9016 19.4932C23.6641 19.719 23.3543 20.0136 23.0619 19.8529C22.7525 19.6829 22.5664 19.4543 22.5664 19.4543L22.3239 18.6981C22.3239 18.6981 20.8947 18.3292 20.8947 18.5846C20.8947 18.8399 20.8907 18.965 20.3839 18.965C20.1003 18.965 19.8262 18.9168 19.5849 18.8745C19.395 18.8411 19.2254 18.8113 19.0872 18.8113C18.8896 18.8113 18.5842 18.8723 18.3583 18.9174C18.2256 18.9439 18.1202 18.965 18.0802 18.965C17.972 18.965 17.3933 18.9389 17.7899 18.6981C18.1865 18.4574 18.2779 18.2064 18.2779 18.2064C18.2779 18.2064 16.6904 18.4422 16.0623 18.4567V18.4574L16.0339 18.4572L16.0055 18.4574V18.4567C15.3827 18.4421 13.8866 18.2064 13.8866 18.2064C13.8866 18.2064 13.978 18.4574 14.3746 18.6981C14.7712 18.9389 14.1925 18.965 14.0843 18.965C14.0443 18.965 13.9389 18.9439 13.8062 18.9174C13.5803 18.8723 13.2749 18.8113 13.0773 18.8113C12.9391 18.8113 12.7695 18.8411 12.5796 18.8745C12.3383 18.9168 12.0642 18.965 11.7806 18.965C11.2738 18.965 11.2698 18.8399 11.2698 18.5846C11.2698 18.3292 9.84061 18.6981 9.84061 18.6981L9.59816 19.4543C9.59816 19.4543 9.41203 19.6829 9.10257 19.8529C8.81025 20.0136 8.50041 19.719 8.26287 19.4932L8.22186 19.4543C7.97969 19.2257 8.77935 18.6981 8.92457 18.6981H8.34716C8.04078 18.6981 7.48932 19.0016 7.48932 19.0016L7.92888 18.4574ZM7.24194 18.1584C7.37555 18.1584 7.48387 18.0465 7.48387 17.9084C7.48387 17.7704 7.37555 17.6584 7.24194 17.6584C7.10832 17.6584 7 17.7704 7 17.9084C7 18.0465 7.10832 18.1584 7.24194 18.1584ZM7.24194 19.2584C7.37555 19.2584 7.48387 19.1465 7.48387 19.0084C7.48387 18.8704 7.37555 18.7584 7.24194 18.7584C7.10832 18.7584 7 18.8704 7 19.0084C7 19.1465 7.10832 19.2584 7.24194 19.2584Z" fill="white"/>
<path fill-rule="evenodd" clip-rule="evenodd" d="M15.8945 2.02954H16.0945V2.2439H16.3401V2.4439H16.0945V2.80795C16.3703 2.85454 16.5807 3.1019 16.5807 3.40006C16.5807 3.73143 16.3208 4.00006 16.0001 4.00006C15.6794 4.00006 15.4194 3.73143 15.4194 3.40006C15.4194 3.10596 15.6242 2.86127 15.8945 2.80996V2.4439H15.6687V2.2439H15.8945V2.02954Z" fill="#FFD018"/>
<path fill-rule="evenodd" clip-rule="evenodd" d="M13.7468 5.22595C13.4668 5.22595 12.8765 5.52533 12.8765 5.52533L13.3355 6.54327L16.1041 6.4394L18.8728 6.54327L19.3318 5.52533C19.3318 5.52533 18.7415 5.22595 18.4615 5.22595C18.3386 5.22595 18.323 5.15362 18.3055 5.07247C18.2831 4.96883 18.2577 4.85082 18.0015 4.85082C17.8203 4.85082 17.6922 4.88089 17.5885 4.90524C17.4309 4.94224 17.3297 4.96602 17.1837 4.85082C17.1776 4.84602 17.1715 4.8412 17.1654 4.83638C16.9291 4.6497 16.6836 4.45581 16.2865 4.45581C16.2073 4.45581 16.1481 4.53072 16.1041 4.65138C16.0602 4.53072 16.001 4.45581 15.9218 4.45581C15.5247 4.45581 15.2792 4.6497 15.0429 4.83638C15.0368 4.8412 15.0307 4.84602 15.0246 4.85082C14.8786 4.96602 14.7774 4.94224 14.6198 4.90524C14.5161 4.88089 14.388 4.85082 14.2068 4.85082C13.9506 4.85082 13.9252 4.96883 13.9028 5.07247C13.8853 5.15362 13.8697 5.22595 13.7468 5.22595Z" fill="#E31D1C"/>
<path fill-rule="evenodd" clip-rule="evenodd" d="M15.6081 3.5686L15.4138 3.63602C14.9002 3.81418 14.4555 3.87295 14.0798 3.81505C13.3064 3.69586 12.2972 4.09828 12.4237 4.6876C12.4791 4.94586 12.6408 5.43363 12.809 5.84703C13.0424 6.42065 13.2058 6.71 13.3969 6.71C13.4216 6.71 13.6811 6.72417 13.7676 6.72889C13.7831 6.72974 13.7931 6.73028 13.7951 6.73038C14.0761 6.74461 14.3238 6.75213 14.5621 6.75102C15.2513 6.7478 15.6784 6.68015 15.8309 6.4734L15.8758 6.41256L15.8545 6.33928C15.6736 5.71701 15.5898 4.86334 15.6051 3.78041L15.6081 3.5686ZM12.7071 4.62266C12.6451 4.33369 13.4345 4.01892 14.037 4.11177C14.4123 4.16962 14.8376 4.12607 15.3131 3.98303C15.3106 4.9456 15.3891 5.72748 15.5499 6.33017C15.4121 6.40226 15.05 6.44874 14.5608 6.45102C14.3285 6.45211 14.0856 6.44473 13.8093 6.43074C13.8117 6.43087 13.5246 6.41496 13.4263 6.41092C13.423 6.4076 13.4192 6.40344 13.4149 6.39844C13.389 6.36824 13.3566 6.31942 13.3201 6.25477C13.2481 6.12732 13.1641 5.94567 13.0767 5.73075C12.9146 5.33256 12.7582 4.86077 12.7071 4.62266Z" fill="#FFD018"/>
<path fill-rule="evenodd" clip-rule="evenodd" d="M16.4546 3.5686L16.649 3.63602C17.1625 3.81418 17.6073 3.87295 17.9829 3.81505C18.7564 3.69586 19.7655 4.09828 19.6391 4.6876C19.5837 4.94586 19.4219 5.43363 19.2537 5.84703C19.0203 6.42065 18.8569 6.71 18.6658 6.71C18.6411 6.71 18.3817 6.72417 18.2952 6.72889C18.2796 6.72974 18.2697 6.73028 18.2677 6.73038C17.9866 6.74461 17.7389 6.75213 17.5006 6.75102C16.8115 6.7478 16.3844 6.68015 16.2318 6.4734L16.1869 6.41256L16.2082 6.33928C16.3892 5.71701 16.4729 4.86334 16.4576 3.78041L16.4546 3.5686ZM19.3557 4.62266C19.4177 4.33369 18.6283 4.01892 18.0258 4.11177C17.6504 4.16962 17.2251 4.12607 16.7497 3.98303C16.7522 4.9456 16.6737 5.72748 16.5129 6.33017C16.6506 6.40226 17.0127 6.44874 17.5019 6.45102C17.7342 6.45211 17.9772 6.44473 18.2535 6.43074C18.251 6.43087 18.5381 6.41496 18.6364 6.41092C18.6397 6.4076 18.6435 6.40344 18.6478 6.39844C18.6738 6.36824 18.7061 6.31942 18.7426 6.25477C18.8146 6.12732 18.8986 5.94567 18.9861 5.73075C19.1481 5.33256 19.3046 4.86077 19.3557 4.62266Z" fill="#FFD018"/>
<path fill-rule="evenodd" clip-rule="evenodd" d="M12.8368 6.4712C12.8371 6.4157 12.8051 6.31547 12.7352 6.12933C12.6389 5.87289 12.573 5.79518 12.4331 5.70969C12.3622 5.66641 12.3346 5.62891 12.3012 5.49979C12.2745 5.3965 12.2474 5.3159 12.2164 5.2416C12.2101 5.22649 12.1966 5.19643 12.1836 5.16749L12.1836 5.16748C12.1702 5.13776 12.1574 5.10922 12.1534 5.09926C12.1318 5.04492 12.1229 4.99659 12.1229 4.91824C12.1229 4.82892 12.1463 4.75737 12.2079 4.62726C12.2448 4.54956 12.2495 4.53924 12.2626 4.50647C12.2892 4.43998 12.3028 4.38249 12.3028 4.32379V3.93865C12.3028 3.71375 12.3117 3.70005 12.4221 3.71497C12.4332 3.71646 12.4439 3.71818 12.4552 3.7202C12.4511 3.71946 12.5083 3.7306 12.5218 3.7322C12.5481 3.73532 12.5697 3.73321 12.5915 3.72337C12.6311 3.70548 12.6602 3.6704 12.7299 3.56619C12.7627 3.51711 12.798 3.52192 12.9234 3.583C12.9412 3.59168 12.9517 3.59672 12.9632 3.60199C13.0915 3.66088 13.1805 3.66259 13.2563 3.57007C13.3726 3.42789 13.4495 3.43696 13.5907 3.57419C13.6604 3.64197 13.6956 3.66763 13.7402 3.67418L13.7439 3.67473C13.7909 3.6817 13.7938 3.68212 13.9262 3.60096C13.9353 3.61974 13.9549 3.62699 13.9867 3.6344C14.0291 3.6443 14.0922 3.64766 14.1345 3.64105C14.1697 3.63555 14.1946 3.6247 14.2111 3.59037C14.2671 3.58868 14.3333 3.58778 14.4098 3.58778V3.48778C14.3118 3.48778 14.2301 3.48923 14.1641 3.49199C14.1589 3.48767 14.1526 3.48213 14.1456 3.47591L14.1456 3.4759C14.1093 3.44394 14.0529 3.39428 14.0262 3.40217C14.0226 3.40322 14.0121 3.41259 13.9975 3.4255L13.9975 3.4255C13.9743 3.44606 13.941 3.47559 13.9097 3.49479C13.7783 3.57543 13.7733 3.57804 13.7538 3.57518C13.7365 3.57263 13.7117 3.55456 13.657 3.50136C13.4798 3.32908 13.3403 3.31262 13.1824 3.50548C13.1423 3.55439 13.0959 3.5535 13.0025 3.5106C12.9919 3.50572 12.9819 3.50093 12.9647 3.49255C12.7973 3.41101 12.7228 3.40086 12.6502 3.50936C12.5928 3.59535 12.5685 3.62463 12.5528 3.63172L12.5506 3.63286L12.5494 3.63351C12.5459 3.63511 12.5414 3.63428 12.498 3.62643L12.4718 3.62169C12.4593 3.61943 12.4472 3.6175 12.4347 3.61581C12.2519 3.59111 12.2061 3.66163 12.2061 3.93865V4.32379C12.2061 4.36758 12.1953 4.41293 12.1732 4.46831C12.1612 4.4982 12.1567 4.5081 12.121 4.58328C12.0533 4.72627 12.0261 4.80932 12.0261 4.91824C12.0261 5.00942 12.0375 5.07066 12.0639 5.13725C12.0688 5.14944 12.0833 5.18186 12.0976 5.21365C12.1099 5.24116 12.1221 5.2682 12.1275 5.28123C12.1567 5.35104 12.1822 5.42702 12.2077 5.52558C12.2476 5.68011 12.2912 5.73921 12.3838 5.79577C12.5055 5.87011 12.5567 5.93051 12.645 6.16551C12.6908 6.28759 12.7192 6.37325 12.7328 6.42683C12.7357 6.4379 12.7377 6.44718 12.7391 6.45465C12.7251 6.46589 12.7268 6.47384 12.7314 6.496C12.7347 6.50361 12.7357 6.50594 12.7371 6.50806L12.7393 6.51117L12.7393 6.51118C12.7449 6.51794 12.7449 6.51794 12.7516 6.5235C12.7543 6.52559 12.7573 6.52747 12.7603 6.52909C12.7585 6.52881 12.757 6.52823 12.7553 6.52701C12.7611 6.53381 12.7689 6.54351 12.7786 6.55623C12.8734 6.68014 12.9927 6.68014 13.1068 6.56029L13.0378 6.49015C12.9629 6.56884 12.9116 6.56884 12.8545 6.49421L12.8368 6.4712ZM13.999 3.53457L13.9972 3.53367L13.9979 3.53401L13.999 3.53457ZM19.1153 6.4712C19.115 6.4157 19.147 6.31547 19.2169 6.12933C19.3132 5.87289 19.379 5.79518 19.519 5.70969C19.5899 5.66641 19.6175 5.62891 19.6509 5.49979C19.6776 5.3965 19.7047 5.3159 19.7357 5.2416C19.742 5.22649 19.7555 5.19643 19.7685 5.16749C19.7819 5.13777 19.7947 5.10922 19.7987 5.09926C19.8203 5.04492 19.8292 4.99659 19.8292 4.91824C19.8292 4.82892 19.8058 4.75737 19.7442 4.62726C19.7073 4.54956 19.7026 4.53924 19.6895 4.50647C19.6629 4.43998 19.6493 4.38249 19.6493 4.32379V3.93865C19.6493 3.71375 19.6404 3.70005 19.5299 3.71497C19.5189 3.71646 19.5082 3.71818 19.4969 3.7202C19.501 3.71946 19.4438 3.7306 19.4303 3.7322C19.404 3.73532 19.3824 3.73321 19.3606 3.72337C19.321 3.70548 19.2919 3.6704 19.2222 3.56619C19.1894 3.51711 19.1541 3.52192 19.0287 3.583C19.0109 3.59168 19.0004 3.59672 18.9889 3.60199C18.8606 3.66088 18.7716 3.66259 18.6958 3.57007C18.5795 3.42789 18.5026 3.43696 18.3614 3.57419C18.2917 3.64197 18.2565 3.66763 18.2119 3.67418L18.2082 3.67473C18.1612 3.6817 18.1583 3.68212 18.0259 3.60096C18.0168 3.61974 17.9972 3.62699 17.9654 3.6344C17.923 3.6443 17.8599 3.64766 17.8176 3.64105C17.7824 3.63555 17.7575 3.6247 17.741 3.59037C17.685 3.58868 17.6188 3.58778 17.5423 3.58778V3.48778C17.6403 3.48778 17.722 3.48923 17.788 3.49199C17.7932 3.48767 17.7995 3.48212 17.8065 3.4759C17.8428 3.44394 17.8992 3.39428 17.9259 3.40217C17.9295 3.40322 17.94 3.41259 17.9546 3.42549L17.9546 3.4255L17.9546 3.4255C17.9769 3.44524 18.0084 3.47325 18.0386 3.49244L18.0424 3.49479C18.1738 3.57543 18.1788 3.57804 18.1983 3.57518C18.2156 3.57263 18.2404 3.55456 18.2951 3.50136C18.4723 3.32908 18.6118 3.31262 18.7697 3.50548C18.8098 3.55439 18.8562 3.5535 18.9496 3.5106C18.9602 3.50572 18.9702 3.50093 18.9874 3.49255C19.1548 3.41101 19.2293 3.40086 19.3018 3.50936C19.3593 3.59535 19.3836 3.62463 19.3993 3.63172L19.4015 3.63286L19.4027 3.63351C19.4062 3.63511 19.4107 3.63428 19.4541 3.62643L19.4803 3.62169C19.4928 3.61943 19.5049 3.6175 19.5174 3.61581C19.7002 3.59111 19.746 3.66163 19.746 3.93865V4.32379C19.746 4.36758 19.7568 4.41293 19.7789 4.46831C19.7909 4.4982 19.7954 4.5081 19.8311 4.58328C19.8988 4.72627 19.926 4.80932 19.926 4.91824C19.926 5.00942 19.9146 5.07066 19.8882 5.13725C19.8833 5.14944 19.8688 5.18186 19.8545 5.21364C19.8422 5.24116 19.83 5.2682 19.8246 5.28123C19.7954 5.35104 19.7699 5.42702 19.7444 5.52558C19.7045 5.68011 19.6609 5.73921 19.5683 5.79577C19.4466 5.87011 19.3954 5.93051 19.3071 6.16551C19.2613 6.28759 19.2329 6.37325 19.2192 6.42683C19.2164 6.4379 19.2144 6.44718 19.213 6.45465C19.227 6.46589 19.2253 6.47384 19.2207 6.496C19.2174 6.50361 19.2164 6.50594 19.215 6.50806L19.2128 6.51117C19.2072 6.51794 19.2072 6.51794 19.2005 6.5235C19.1978 6.52559 19.1948 6.52747 19.1918 6.52909C19.1936 6.52881 19.195 6.52823 19.1968 6.52701C19.191 6.53381 19.1832 6.54351 19.1735 6.55623C19.0787 6.68014 18.9594 6.68014 18.8453 6.56029L18.9143 6.49015C18.9892 6.56884 19.0405 6.56884 19.0976 6.49421L19.1153 6.4712Z" fill="#5E5E5E"/>
<path d="M13.7739 17.8852L13.8347 17.3889C14.9092 17.5204 15.6267 17.5862 15.9882 17.5865C16.5334 17.611 17.1833 17.5715 17.9366 17.4674L18.0051 17.9627C17.2235 18.0707 16.5441 18.112 15.977 18.0862C15.5996 18.0862 14.8687 18.0192 13.7739 17.8852Z" fill="#272727"/>
</g>
</g>
</svg>
