<svg width="16" height="12" viewBox="0 0 16 12" fill="none" xmlns="http://www.w3.org/2000/svg">
<mask id="mask0" mask-type="alpha" maskUnits="userSpaceOnUse" x="0" y="0" width="16" height="12">
<rect width="16" height="12" fill="white"/>
</mask>
<g mask="url(#mask0)">
<path fill-rule="evenodd" clip-rule="evenodd" d="M4 0H12.5V12H4V0Z" fill="#F7FCFF"/>
<path fill-rule="evenodd" clip-rule="evenodd" d="M12 0H16V12H12V0Z" fill="#F50101"/>
<path fill-rule="evenodd" clip-rule="evenodd" d="M0 0H4V12H0V0Z" fill="#F50101"/>
<path d="M7.87065 4.37257L7.8874 4.55355C7.38818 4.60404 7.11847 4.36011 7.11847 3.85384C7.11847 3.35148 7.38235 3.08446 7.87849 3.0813L7.87955 3.26311C7.47757 3.26567 7.29238 3.45307 7.29238 3.85384C7.29238 4.2507 7.47174 4.41292 7.87065 4.37257Z" fill="#A2BB6A"/>
<path d="M8.09175 4.37257L8.075 4.55355C8.57423 4.60404 8.84393 4.36011 8.84393 3.85384C8.84393 3.35148 8.58006 3.08446 8.08391 3.0813L8.08285 3.26311C8.48483 3.26567 8.67002 3.45307 8.67002 3.85384C8.67002 4.2507 8.49066 4.41292 8.09175 4.37257Z" fill="#A2BB6A"/>
<mask id="path-8-outside-1" maskUnits="userSpaceOnUse" x="5.58847" y="3.4408" width="5" height="6" fill="black">
<rect fill="white" x="5.58847" y="3.4408" width="5" height="6"/>
<path fill-rule="evenodd" clip-rule="evenodd" d="M8.04337 4.45277C8.05668 4.44522 8.06411 4.4408 8.06411 4.4408V4.46436C8.16037 4.51747 8.40273 4.64191 8.56033 4.64191C8.76067 4.64191 9.03298 4.4408 9.03298 4.4408L9.48863 5.08416C9.48863 5.08416 9.18177 5.72731 9.41657 6.51322C9.65137 7.29912 9.40414 7.90511 8.35998 7.9724C8.35998 7.9724 8.15424 8.01149 8.06411 8.07379V8.13135C8.06411 8.11703 8.05642 8.10342 8.04337 8.09062C8.03032 8.10342 8.02263 8.11703 8.02263 8.13135V8.07379C7.9325 8.01149 7.72676 7.9724 7.72676 7.9724C6.6826 7.90511 6.43537 7.29912 6.67017 6.51322C6.90497 5.72731 6.59811 5.08416 6.59811 5.08416L7.05376 4.4408C7.05376 4.4408 7.32607 4.64191 7.52641 4.64191C7.68401 4.64191 7.92637 4.51747 8.02263 4.46436V4.4408C8.02263 4.4408 8.03006 4.44522 8.04337 4.45277Z"/>
</mask>
<path fill-rule="evenodd" clip-rule="evenodd" d="M8.04337 4.45277C8.05668 4.44522 8.06411 4.4408 8.06411 4.4408V4.46436C8.16037 4.51747 8.40273 4.64191 8.56033 4.64191C8.76067 4.64191 9.03298 4.4408 9.03298 4.4408L9.48863 5.08416C9.48863 5.08416 9.18177 5.72731 9.41657 6.51322C9.65137 7.29912 9.40414 7.90511 8.35998 7.9724C8.35998 7.9724 8.15424 8.01149 8.06411 8.07379V8.13135C8.06411 8.11703 8.05642 8.10342 8.04337 8.09062C8.03032 8.10342 8.02263 8.11703 8.02263 8.13135V8.07379C7.9325 8.01149 7.72676 7.9724 7.72676 7.9724C6.6826 7.90511 6.43537 7.29912 6.67017 6.51322C6.90497 5.72731 6.59811 5.08416 6.59811 5.08416L7.05376 4.4408C7.05376 4.4408 7.32607 4.64191 7.52641 4.64191C7.68401 4.64191 7.92637 4.51747 8.02263 4.46436V4.4408C8.02263 4.4408 8.03006 4.44522 8.04337 4.45277Z" fill="#E8AA00"/>
<path d="M8.06411 4.4408H8.56411V3.56062L7.80808 4.01132L8.06411 4.4408ZM8.04337 4.45277L7.79681 4.88775L8.04337 5.0275L8.28993 4.88775L8.04337 4.45277ZM8.06411 4.46436H7.56411V4.75955L7.82257 4.90215L8.06411 4.46436ZM9.03298 4.4408L9.44102 4.15182L9.14623 3.73558L8.73594 4.03859L9.03298 4.4408ZM9.48863 5.08416L9.93989 5.29947L10.0663 5.03464L9.89666 4.79519L9.48863 5.08416ZM9.41657 6.51322L8.93749 6.65635L9.41657 6.51322ZM8.35998 7.9724L8.32783 7.47343L8.297 7.47542L8.26664 7.48119L8.35998 7.9724ZM8.06411 8.07379L7.77982 7.66248L7.56411 7.81157V8.07379H8.06411ZM8.04337 8.09062L8.39348 7.73365L8.04337 7.39026L7.69326 7.73365L8.04337 8.09062ZM8.02263 8.07379H8.52263V7.81157L8.30692 7.66248L8.02263 8.07379ZM7.72676 7.9724L7.82009 7.48119L7.78974 7.47542L7.75891 7.47343L7.72676 7.9724ZM6.59811 5.08416L6.19008 4.79519L6.02049 5.03464L6.14685 5.29947L6.59811 5.08416ZM7.05376 4.4408L7.3508 4.03859L6.94051 3.73558L6.64572 4.15182L7.05376 4.4408ZM8.02263 4.46436L8.26417 4.90215L8.52263 4.75955V4.46436H8.02263ZM8.02263 4.4408L8.27866 4.01132L7.52263 3.56062V4.4408H8.02263ZM8.06411 4.4408C7.80808 4.01132 7.80808 4.01132 7.80809 4.01131C7.8081 4.01131 7.8081 4.0113 7.80811 4.0113C7.80812 4.0113 7.80813 4.01129 7.80814 4.01128C7.80816 4.01127 7.80818 4.01126 7.8082 4.01125C7.80824 4.01122 7.80828 4.0112 7.80832 4.01118C7.80839 4.01114 7.80845 4.0111 7.80851 4.01106C7.80863 4.01099 7.80872 4.01094 7.80879 4.0109C7.80892 4.01082 7.80894 4.01081 7.80885 4.01086C7.80869 4.01096 7.8081 4.0113 7.80713 4.01187C7.80518 4.01301 7.80168 4.01503 7.79681 4.01779L8.28993 4.88775C8.29837 4.88296 8.30524 4.879 8.31033 4.87604C8.31287 4.87456 8.31498 4.87332 8.31662 4.87235C8.31744 4.87187 8.31815 4.87145 8.31873 4.8711C8.31903 4.87093 8.31929 4.87077 8.31953 4.87063C8.31964 4.87056 8.31975 4.8705 8.31985 4.87044C8.3199 4.87041 8.31995 4.87038 8.32 4.87035C8.32002 4.87034 8.32005 4.87032 8.32007 4.87031C8.32008 4.8703 8.32009 4.8703 8.3201 4.87029C8.32011 4.87029 8.32012 4.87028 8.32012 4.87028C8.32013 4.87028 8.32014 4.87027 8.06411 4.4408ZM8.56411 4.46436V4.4408H7.56411V4.46436H8.56411ZM7.82257 4.90215C7.87931 4.93345 7.98271 4.98791 8.09999 5.03586C8.20134 5.0773 8.37799 5.14191 8.56033 5.14191V4.14191C8.58126 4.14191 8.58336 4.14516 8.5599 4.13884C8.5395 4.13335 8.5119 4.12392 8.47845 4.11024C8.41108 4.08269 8.34516 4.04837 8.30564 4.02657L7.82257 4.90215ZM8.56033 5.14191C8.79427 5.14191 9.00739 5.03636 9.10933 4.98132C9.1717 4.94764 9.22468 4.91455 9.2621 4.88993C9.28105 4.87747 9.29661 4.86678 9.30808 4.85874C9.31382 4.8547 9.31858 4.85131 9.32225 4.84866C9.32409 4.84733 9.32567 4.84619 9.32697 4.84524C9.32761 4.84477 9.32819 4.84434 9.3287 4.84397C9.32896 4.84378 9.3292 4.84361 9.32941 4.84345C9.32952 4.84337 9.32963 4.84329 9.32973 4.84321C9.32978 4.84318 9.32985 4.84312 9.32988 4.8431C9.32995 4.84305 9.33002 4.843 9.03298 4.4408C8.73594 4.03859 8.73601 4.03854 8.73608 4.03849C8.7361 4.03848 8.73617 4.03843 8.73621 4.0384C8.73629 4.03833 8.73637 4.03827 8.73645 4.03822C8.7366 4.0381 8.73674 4.038 8.73687 4.03791C8.73711 4.03773 8.7373 4.0376 8.73743 4.0375C8.73768 4.03732 8.7377 4.0373 8.7375 4.03745C8.73709 4.03775 8.7358 4.03867 8.73371 4.04014C8.72949 4.0431 8.72222 4.04811 8.71251 4.0545C8.69261 4.0676 8.66498 4.08478 8.63424 4.10138C8.6025 4.11852 8.57448 4.1312 8.55307 4.13871C8.52805 4.1475 8.53282 4.14191 8.56033 4.14191V5.14191ZM8.62495 4.72977L9.08059 5.37314L9.89666 4.79519L9.44102 4.15182L8.62495 4.72977ZM9.48863 5.08416C9.03736 4.86885 9.03728 4.86903 9.03719 4.8692C9.03717 4.86926 9.03708 4.86944 9.03702 4.86957C9.0369 4.86981 9.03678 4.87007 9.03665 4.87034C9.0364 4.87088 9.03613 4.87146 9.03584 4.87207C9.03526 4.87331 9.0346 4.87472 9.03388 4.87628C9.03243 4.87942 9.0307 4.8832 9.02873 4.88763C9.02477 4.89648 9.01981 4.90789 9.01406 4.92175C9.00258 4.94943 8.98789 4.98703 8.97181 5.03351C8.93975 5.12621 8.90162 5.25587 8.8727 5.41404C8.81506 5.72929 8.79201 6.16941 8.93749 6.65635L9.89564 6.37009C9.80632 6.07111 9.81931 5.79671 9.85639 5.59391C9.87484 5.49305 9.89875 5.41281 9.91689 5.36036C9.92591 5.33427 9.93336 5.31548 9.93774 5.30492C9.93992 5.29966 9.94132 5.29649 9.94175 5.29553C9.94197 5.29505 9.94193 5.29513 9.94163 5.29578C9.94148 5.29611 9.94126 5.29658 9.94098 5.29719C9.94083 5.2975 9.94067 5.29784 9.94049 5.29822C9.9404 5.29841 9.9403 5.29861 9.94021 5.29882C9.94016 5.29892 9.94008 5.29909 9.94005 5.29914C9.93997 5.29931 9.93989 5.29947 9.48863 5.08416ZM8.93749 6.65635C9.03626 6.98695 8.99684 7.1634 8.94509 7.24536C8.90194 7.31371 8.76732 7.44511 8.32783 7.47343L8.39214 8.47136C8.9968 8.4324 9.50787 8.22715 9.79067 7.77921C10.0649 7.34488 10.0317 6.82539 9.89564 6.37009L8.93749 6.65635ZM8.35998 7.9724C8.26664 7.48119 8.26659 7.4812 8.26654 7.48121C8.26652 7.48121 8.26647 7.48122 8.26643 7.48123C8.26636 7.48124 8.26628 7.48126 8.2662 7.48127C8.26604 7.4813 8.26586 7.48134 8.26567 7.48137C8.2653 7.48144 8.26487 7.48153 8.26439 7.48162C8.26343 7.48181 8.26226 7.48203 8.2609 7.4823C8.25818 7.48284 8.25467 7.48354 8.25045 7.48441C8.24203 7.48613 8.23068 7.48853 8.21708 7.49158C8.19023 7.4976 8.15287 7.50653 8.111 7.51826C8.04829 7.53582 7.90062 7.57898 7.77982 7.66248L8.3484 8.48511C8.32459 8.50156 8.31322 8.50403 8.32953 8.49769C8.34146 8.49305 8.35905 8.48727 8.38069 8.4812C8.40153 8.47537 8.42123 8.47063 8.43578 8.46737C8.44287 8.46579 8.4483 8.46464 8.45148 8.46399C8.45307 8.46367 8.45406 8.46347 8.4544 8.4634C8.45457 8.46337 8.45457 8.46337 8.45439 8.4634C8.45431 8.46342 8.45417 8.46344 8.454 8.46348C8.45391 8.4635 8.45381 8.46352 8.45369 8.46354C8.45364 8.46355 8.45358 8.46356 8.45352 8.46357C8.45349 8.46358 8.45344 8.46359 8.45342 8.46359C8.45337 8.4636 8.45332 8.46361 8.35998 7.9724ZM8.56411 8.13135V8.07379H7.56411V8.13135H8.56411ZM7.69326 8.44758C7.65827 8.41326 7.56411 8.30609 7.56411 8.13135H8.56411C8.56411 7.92798 8.45457 7.79357 8.39348 7.73365L7.69326 8.44758ZM7.69326 7.73365C7.63217 7.79357 7.52263 7.92798 7.52263 8.13135H8.52263C8.52263 8.30609 8.42847 8.41326 8.39348 8.44758L7.69326 7.73365ZM8.52263 8.13135V8.07379H7.52263V8.13135H8.52263ZM7.72676 7.9724C7.63342 8.46361 7.63337 8.4636 7.63332 8.46359C7.6333 8.46359 7.63325 8.46358 7.63322 8.46357C7.63316 8.46356 7.6331 8.46355 7.63305 8.46354C7.63293 8.46352 7.63283 8.4635 7.63274 8.46348C7.63257 8.46344 7.63243 8.46342 7.63235 8.4634C7.63217 8.46337 7.63217 8.46337 7.63234 8.4634C7.63267 8.46347 7.63367 8.46367 7.63526 8.46399C7.63844 8.46464 7.64387 8.46579 7.65096 8.46737C7.6655 8.47063 7.68521 8.47537 7.70605 8.4812C7.72769 8.48727 7.74528 8.49305 7.7572 8.49769C7.77352 8.50403 7.76215 8.50156 7.73834 8.48511L8.30692 7.66248C8.18612 7.57898 8.03845 7.53582 7.97574 7.51826C7.93387 7.50653 7.89651 7.4976 7.86966 7.49158C7.85606 7.48853 7.84471 7.48613 7.83629 7.48441C7.83207 7.48354 7.82856 7.48284 7.82584 7.4823C7.82448 7.48203 7.82331 7.48181 7.82235 7.48162C7.82187 7.48153 7.82144 7.48144 7.82107 7.48137C7.82088 7.48134 7.8207 7.4813 7.82054 7.48127C7.82046 7.48126 7.82038 7.48124 7.82031 7.48123C7.82027 7.48122 7.82022 7.48121 7.8202 7.48121C7.82015 7.4812 7.82009 7.48119 7.72676 7.9724ZM6.1911 6.37009C6.05507 6.82539 6.02186 7.34488 6.29606 7.77921C6.57887 8.22715 7.08994 8.4324 7.6946 8.47136L7.75891 7.47343C7.31942 7.44511 7.1848 7.31371 7.14165 7.24536C7.0899 7.1634 7.05048 6.98695 7.14925 6.65635L6.1911 6.37009ZM6.59811 5.08416C6.14685 5.29947 6.14677 5.29931 6.14669 5.29914C6.14666 5.29909 6.14658 5.29892 6.14653 5.29882C6.14644 5.29861 6.14634 5.29841 6.14625 5.29822C6.14607 5.29784 6.14591 5.2975 6.14576 5.29719C6.14548 5.29658 6.14526 5.29611 6.14511 5.29578C6.14481 5.29513 6.14477 5.29505 6.14499 5.29553C6.14542 5.29649 6.14682 5.29966 6.149 5.30492C6.15338 5.31548 6.16083 5.33427 6.16985 5.36036C6.18799 5.41281 6.2119 5.49305 6.23035 5.59391C6.26743 5.79671 6.28042 6.07111 6.1911 6.37009L7.14925 6.65635C7.29473 6.16941 7.27168 5.72929 7.21404 5.41404C7.18511 5.25587 7.14699 5.12621 7.11493 5.03351C7.09885 4.98703 7.08416 4.94943 7.07268 4.92175C7.06693 4.90789 7.06197 4.89648 7.05801 4.88763C7.05604 4.8832 7.05431 4.87942 7.05286 4.87628C7.05214 4.87472 7.05148 4.87331 7.0509 4.87207C7.05061 4.87146 7.05034 4.87088 7.05009 4.87034C7.04996 4.87007 7.04984 4.86981 7.04972 4.86957C7.04966 4.86944 7.04957 4.86926 7.04954 4.8692C7.04946 4.86903 7.04938 4.86885 6.59811 5.08416ZM6.64572 4.15182L6.19008 4.79519L7.00615 5.37314L7.46179 4.72977L6.64572 4.15182ZM7.52641 4.14191C7.55391 4.14191 7.55869 4.1475 7.53367 4.13871C7.51226 4.1312 7.48424 4.11852 7.4525 4.10138C7.42176 4.08478 7.39413 4.0676 7.37423 4.0545C7.36452 4.04811 7.35725 4.0431 7.35303 4.04014C7.35094 4.03867 7.34965 4.03775 7.34924 4.03745C7.34904 4.0373 7.34906 4.03732 7.34931 4.0375C7.34944 4.0376 7.34963 4.03773 7.34987 4.03791C7.35 4.038 7.35014 4.03811 7.35029 4.03822C7.35037 4.03827 7.35045 4.03833 7.35053 4.0384C7.35057 4.03843 7.35064 4.03848 7.35066 4.03849C7.35073 4.03854 7.3508 4.03859 7.05376 4.4408C6.75672 4.843 6.75679 4.84305 6.75686 4.8431C6.75689 4.84312 6.75696 4.84318 6.75701 4.84321C6.75711 4.84329 6.75722 4.84337 6.75732 4.84345C6.75754 4.84361 6.75778 4.84378 6.75804 4.84397C6.75855 4.84434 6.75913 4.84477 6.75977 4.84524C6.76107 4.84619 6.76265 4.84733 6.76449 4.84866C6.76816 4.85131 6.77292 4.8547 6.77866 4.85874C6.79013 4.86678 6.80569 4.87747 6.82464 4.88993C6.86206 4.91455 6.91504 4.94764 6.97741 4.98132C7.07935 5.03636 7.29247 5.14191 7.52641 5.14191V4.14191ZM7.7811 4.02657C7.74158 4.04837 7.67566 4.08269 7.60829 4.11024C7.57484 4.12392 7.54724 4.13335 7.52684 4.13884C7.50338 4.14516 7.50548 4.14191 7.52641 4.14191V5.14191C7.70875 5.14191 7.8854 5.0773 7.98675 5.03586C8.10403 4.98791 8.20743 4.93345 8.26417 4.90215L7.7811 4.02657ZM8.52263 4.46436V4.4408H7.52263V4.46436H8.52263ZM8.02263 4.4408C7.7666 4.87027 7.76661 4.87028 7.76662 4.87028C7.76662 4.87028 7.76663 4.87029 7.76664 4.87029C7.76665 4.8703 7.76666 4.8703 7.76667 4.87031C7.76669 4.87032 7.76672 4.87034 7.76674 4.87035C7.76679 4.87038 7.76684 4.87041 7.76689 4.87044C7.76699 4.8705 7.7671 4.87056 7.76721 4.87063C7.76745 4.87077 7.76771 4.87093 7.76801 4.8711C7.76859 4.87145 7.7693 4.87187 7.77012 4.87235C7.77176 4.87332 7.77387 4.87456 7.77641 4.87604C7.7815 4.879 7.78837 4.88296 7.79681 4.88775L8.28993 4.01779C8.28506 4.01503 8.28156 4.01301 8.27961 4.01187C8.27864 4.0113 8.27805 4.01096 8.27789 4.01086C8.2778 4.01081 8.27782 4.01082 8.27795 4.0109C8.27802 4.01094 8.27811 4.01099 8.27823 4.01106C8.27829 4.0111 8.27835 4.01114 8.27842 4.01118C8.27846 4.0112 8.2785 4.01122 8.27854 4.01125C8.27856 4.01126 8.27858 4.01127 8.2786 4.01128C8.27861 4.01129 8.27862 4.0113 8.27863 4.0113C8.27864 4.0113 8.27864 4.01131 8.27865 4.01131C8.27866 4.01132 8.27866 4.01132 8.02263 4.4408Z" fill="#E8AA00" mask="url(#path-8-outside-1)"/>
<mask id="mask1" mask-type="alpha" maskUnits="userSpaceOnUse" x="6" y="3" width="5" height="6">
<mask id="path-10-outside-2" mask-type="luminance" maskUnits="userSpaceOnUse" x="5.58847" y="3.4408" width="5" height="6" fill="black">
<rect fill="white" x="5.58847" y="3.4408" width="5" height="6"/>
<path fill-rule="evenodd" clip-rule="evenodd" d="M8.04337 4.45277C8.05668 4.44522 8.06411 4.4408 8.06411 4.4408V4.46436C8.16037 4.51747 8.40273 4.64191 8.56033 4.64191C8.76067 4.64191 9.03298 4.4408 9.03298 4.4408L9.48863 5.08416C9.48863 5.08416 9.18177 5.72731 9.41657 6.51322C9.65137 7.29912 9.40414 7.90511 8.35998 7.9724C8.35998 7.9724 8.15424 8.01149 8.06411 8.07379V8.13135C8.06411 8.11703 8.05642 8.10342 8.04337 8.09062C8.03032 8.10342 8.02263 8.11703 8.02263 8.13135V8.07379C7.9325 8.01149 7.72676 7.9724 7.72676 7.9724C6.6826 7.90511 6.43537 7.29912 6.67017 6.51322C6.90497 5.72731 6.59811 5.08416 6.59811 5.08416L7.05376 4.4408C7.05376 4.4408 7.32607 4.64191 7.52641 4.64191C7.68401 4.64191 7.92637 4.51747 8.02263 4.46436V4.4408C8.02263 4.4408 8.03006 4.44522 8.04337 4.45277Z"/>
</mask>
<path fill-rule="evenodd" clip-rule="evenodd" d="M8.04337 4.45277C8.05668 4.44522 8.06411 4.4408 8.06411 4.4408V4.46436C8.16037 4.51747 8.40273 4.64191 8.56033 4.64191C8.76067 4.64191 9.03298 4.4408 9.03298 4.4408L9.48863 5.08416C9.48863 5.08416 9.18177 5.72731 9.41657 6.51322C9.65137 7.29912 9.40414 7.90511 8.35998 7.9724C8.35998 7.9724 8.15424 8.01149 8.06411 8.07379V8.13135C8.06411 8.11703 8.05642 8.10342 8.04337 8.09062C8.03032 8.10342 8.02263 8.11703 8.02263 8.13135V8.07379C7.9325 8.01149 7.72676 7.9724 7.72676 7.9724C6.6826 7.90511 6.43537 7.29912 6.67017 6.51322C6.90497 5.72731 6.59811 5.08416 6.59811 5.08416L7.05376 4.4408C7.05376 4.4408 7.32607 4.64191 7.52641 4.64191C7.68401 4.64191 7.92637 4.51747 8.02263 4.46436V4.4408C8.02263 4.4408 8.03006 4.44522 8.04337 4.45277Z" fill="white"/>
<path d="M8.06411 4.4408H8.56411V3.56062L7.80808 4.01132L8.06411 4.4408ZM8.04337 4.45277L7.79681 4.88775L8.04337 5.0275L8.28993 4.88775L8.04337 4.45277ZM8.06411 4.46436H7.56411V4.75955L7.82257 4.90215L8.06411 4.46436ZM9.03298 4.4408L9.44102 4.15182L9.14623 3.73558L8.73594 4.03859L9.03298 4.4408ZM9.48863 5.08416L9.93989 5.29947L10.0663 5.03464L9.89666 4.79519L9.48863 5.08416ZM9.41657 6.51322L8.93749 6.65635L9.41657 6.51322ZM8.35998 7.9724L8.32783 7.47343L8.297 7.47542L8.26664 7.48119L8.35998 7.9724ZM8.06411 8.07379L7.77982 7.66248L7.56411 7.81157V8.07379H8.06411ZM8.04337 8.09062L8.39348 7.73365L8.04337 7.39026L7.69326 7.73365L8.04337 8.09062ZM8.02263 8.07379H8.52263V7.81157L8.30692 7.66248L8.02263 8.07379ZM7.72676 7.9724L7.82009 7.48119L7.78974 7.47542L7.75891 7.47343L7.72676 7.9724ZM6.59811 5.08416L6.19008 4.79519L6.02049 5.03464L6.14685 5.29947L6.59811 5.08416ZM7.05376 4.4408L7.3508 4.03859L6.94051 3.73558L6.64572 4.15182L7.05376 4.4408ZM8.02263 4.46436L8.26417 4.90215L8.52263 4.75955V4.46436H8.02263ZM8.02263 4.4408L8.27866 4.01132L7.52263 3.56062V4.4408H8.02263ZM8.06411 4.4408C7.80808 4.01132 7.80808 4.01132 7.80809 4.01131C7.8081 4.01131 7.8081 4.0113 7.80811 4.0113C7.80812 4.0113 7.80813 4.01129 7.80814 4.01128C7.80816 4.01127 7.80818 4.01126 7.8082 4.01125C7.80824 4.01122 7.80828 4.0112 7.80832 4.01118C7.80839 4.01114 7.80845 4.0111 7.80851 4.01106C7.80863 4.01099 7.80872 4.01094 7.80879 4.0109C7.80892 4.01082 7.80894 4.01081 7.80885 4.01086C7.80869 4.01096 7.8081 4.0113 7.80713 4.01187C7.80518 4.01301 7.80168 4.01503 7.79681 4.01779L8.28993 4.88775C8.29837 4.88296 8.30524 4.879 8.31033 4.87604C8.31287 4.87456 8.31498 4.87332 8.31662 4.87235C8.31744 4.87187 8.31815 4.87145 8.31873 4.8711C8.31903 4.87093 8.31929 4.87077 8.31953 4.87063C8.31964 4.87056 8.31975 4.8705 8.31985 4.87044C8.3199 4.87041 8.31995 4.87038 8.32 4.87035C8.32002 4.87034 8.32005 4.87032 8.32007 4.87031C8.32008 4.8703 8.32009 4.8703 8.3201 4.87029C8.32011 4.87029 8.32012 4.87028 8.32012 4.87028C8.32013 4.87028 8.32014 4.87027 8.06411 4.4408ZM8.56411 4.46436V4.4408H7.56411V4.46436H8.56411ZM7.82257 4.90215C7.87931 4.93345 7.98271 4.98791 8.09999 5.03586C8.20134 5.0773 8.37799 5.14191 8.56033 5.14191V4.14191C8.58126 4.14191 8.58336 4.14516 8.5599 4.13884C8.5395 4.13335 8.5119 4.12392 8.47845 4.11024C8.41108 4.08269 8.34516 4.04837 8.30564 4.02657L7.82257 4.90215ZM8.56033 5.14191C8.79427 5.14191 9.00739 5.03636 9.10933 4.98132C9.1717 4.94764 9.22468 4.91455 9.2621 4.88993C9.28105 4.87747 9.29661 4.86678 9.30808 4.85874C9.31382 4.8547 9.31858 4.85131 9.32225 4.84866C9.32409 4.84733 9.32567 4.84619 9.32697 4.84524C9.32761 4.84477 9.32819 4.84434 9.3287 4.84397C9.32896 4.84378 9.3292 4.84361 9.32941 4.84345C9.32952 4.84337 9.32963 4.84329 9.32973 4.84321C9.32978 4.84318 9.32985 4.84312 9.32988 4.8431C9.32995 4.84305 9.33002 4.843 9.03298 4.4408C8.73594 4.03859 8.73601 4.03854 8.73608 4.03849C8.7361 4.03848 8.73617 4.03843 8.73621 4.0384C8.73629 4.03833 8.73637 4.03827 8.73645 4.03822C8.7366 4.0381 8.73674 4.038 8.73687 4.03791C8.73711 4.03773 8.7373 4.0376 8.73743 4.0375C8.73768 4.03732 8.7377 4.0373 8.7375 4.03745C8.73709 4.03775 8.7358 4.03867 8.73371 4.04014C8.72949 4.0431 8.72222 4.04811 8.71251 4.0545C8.69261 4.0676 8.66498 4.08478 8.63424 4.10138C8.6025 4.11852 8.57448 4.1312 8.55307 4.13871C8.52805 4.1475 8.53282 4.14191 8.56033 4.14191V5.14191ZM8.62495 4.72977L9.08059 5.37314L9.89666 4.79519L9.44102 4.15182L8.62495 4.72977ZM9.48863 5.08416C9.03736 4.86885 9.03728 4.86903 9.03719 4.8692C9.03717 4.86926 9.03708 4.86944 9.03702 4.86957C9.0369 4.86981 9.03678 4.87007 9.03665 4.87034C9.0364 4.87088 9.03613 4.87146 9.03584 4.87207C9.03526 4.87331 9.0346 4.87472 9.03388 4.87628C9.03243 4.87942 9.0307 4.8832 9.02873 4.88763C9.02477 4.89648 9.01981 4.90789 9.01406 4.92175C9.00258 4.94943 8.98789 4.98703 8.97181 5.03351C8.93975 5.12621 8.90162 5.25587 8.8727 5.41404C8.81506 5.72929 8.79201 6.16941 8.93749 6.65635L9.89564 6.37009C9.80632 6.07111 9.81931 5.79671 9.85639 5.59391C9.87484 5.49305 9.89875 5.41281 9.91689 5.36036C9.92591 5.33427 9.93336 5.31548 9.93774 5.30492C9.93992 5.29966 9.94132 5.29649 9.94175 5.29553C9.94197 5.29505 9.94193 5.29513 9.94163 5.29578C9.94148 5.29611 9.94126 5.29658 9.94098 5.29719C9.94083 5.2975 9.94067 5.29784 9.94049 5.29822C9.9404 5.29841 9.9403 5.29861 9.94021 5.29882C9.94016 5.29892 9.94008 5.29909 9.94005 5.29914C9.93997 5.29931 9.93989 5.29947 9.48863 5.08416ZM8.93749 6.65635C9.03626 6.98695 8.99684 7.1634 8.94509 7.24536C8.90194 7.31371 8.76732 7.44511 8.32783 7.47343L8.39214 8.47136C8.9968 8.4324 9.50787 8.22715 9.79067 7.77921C10.0649 7.34488 10.0317 6.82539 9.89564 6.37009L8.93749 6.65635ZM8.35998 7.9724C8.26664 7.48119 8.26659 7.4812 8.26654 7.48121C8.26652 7.48121 8.26647 7.48122 8.26643 7.48123C8.26636 7.48124 8.26628 7.48126 8.2662 7.48127C8.26604 7.4813 8.26586 7.48134 8.26567 7.48137C8.2653 7.48144 8.26487 7.48153 8.26439 7.48162C8.26343 7.48181 8.26226 7.48203 8.2609 7.4823C8.25818 7.48284 8.25467 7.48354 8.25045 7.48441C8.24203 7.48613 8.23068 7.48853 8.21708 7.49158C8.19023 7.4976 8.15287 7.50653 8.111 7.51826C8.04829 7.53582 7.90062 7.57898 7.77982 7.66248L8.3484 8.48511C8.32459 8.50156 8.31322 8.50403 8.32953 8.49769C8.34146 8.49305 8.35905 8.48727 8.38069 8.4812C8.40153 8.47537 8.42123 8.47063 8.43578 8.46737C8.44287 8.46579 8.4483 8.46464 8.45148 8.46399C8.45307 8.46367 8.45406 8.46347 8.4544 8.4634C8.45457 8.46337 8.45457 8.46337 8.45439 8.4634C8.45431 8.46342 8.45417 8.46344 8.454 8.46348C8.45391 8.4635 8.45381 8.46352 8.45369 8.46354C8.45364 8.46355 8.45358 8.46356 8.45352 8.46357C8.45349 8.46358 8.45344 8.46359 8.45342 8.46359C8.45337 8.4636 8.45332 8.46361 8.35998 7.9724ZM8.56411 8.13135V8.07379H7.56411V8.13135H8.56411ZM7.69326 8.44758C7.65827 8.41326 7.56411 8.30609 7.56411 8.13135H8.56411C8.56411 7.92798 8.45457 7.79357 8.39348 7.73365L7.69326 8.44758ZM7.69326 7.73365C7.63217 7.79357 7.52263 7.92798 7.52263 8.13135H8.52263C8.52263 8.30609 8.42847 8.41326 8.39348 8.44758L7.69326 7.73365ZM8.52263 8.13135V8.07379H7.52263V8.13135H8.52263ZM7.72676 7.9724C7.63342 8.46361 7.63337 8.4636 7.63332 8.46359C7.6333 8.46359 7.63325 8.46358 7.63322 8.46357C7.63316 8.46356 7.6331 8.46355 7.63305 8.46354C7.63293 8.46352 7.63283 8.4635 7.63274 8.46348C7.63257 8.46344 7.63243 8.46342 7.63235 8.4634C7.63217 8.46337 7.63217 8.46337 7.63234 8.4634C7.63267 8.46347 7.63367 8.46367 7.63526 8.46399C7.63844 8.46464 7.64387 8.46579 7.65096 8.46737C7.6655 8.47063 7.68521 8.47537 7.70605 8.4812C7.72769 8.48727 7.74528 8.49305 7.7572 8.49769C7.77352 8.50403 7.76215 8.50156 7.73834 8.48511L8.30692 7.66248C8.18612 7.57898 8.03845 7.53582 7.97574 7.51826C7.93387 7.50653 7.89651 7.4976 7.86966 7.49158C7.85606 7.48853 7.84471 7.48613 7.83629 7.48441C7.83207 7.48354 7.82856 7.48284 7.82584 7.4823C7.82448 7.48203 7.82331 7.48181 7.82235 7.48162C7.82187 7.48153 7.82144 7.48144 7.82107 7.48137C7.82088 7.48134 7.8207 7.4813 7.82054 7.48127C7.82046 7.48126 7.82038 7.48124 7.82031 7.48123C7.82027 7.48122 7.82022 7.48121 7.8202 7.48121C7.82015 7.4812 7.82009 7.48119 7.72676 7.9724ZM6.1911 6.37009C6.05507 6.82539 6.02186 7.34488 6.29606 7.77921C6.57887 8.22715 7.08994 8.4324 7.6946 8.47136L7.75891 7.47343C7.31942 7.44511 7.1848 7.31371 7.14165 7.24536C7.0899 7.1634 7.05048 6.98695 7.14925 6.65635L6.1911 6.37009ZM6.59811 5.08416C6.14685 5.29947 6.14677 5.29931 6.14669 5.29914C6.14666 5.29909 6.14658 5.29892 6.14653 5.29882C6.14644 5.29861 6.14634 5.29841 6.14625 5.29822C6.14607 5.29784 6.14591 5.2975 6.14576 5.29719C6.14548 5.29658 6.14526 5.29611 6.14511 5.29578C6.14481 5.29513 6.14477 5.29505 6.14499 5.29553C6.14542 5.29649 6.14682 5.29966 6.149 5.30492C6.15338 5.31548 6.16083 5.33427 6.16985 5.36036C6.18799 5.41281 6.2119 5.49305 6.23035 5.59391C6.26743 5.79671 6.28042 6.07111 6.1911 6.37009L7.14925 6.65635C7.29473 6.16941 7.27168 5.72929 7.21404 5.41404C7.18511 5.25587 7.14699 5.12621 7.11493 5.03351C7.09885 4.98703 7.08416 4.94943 7.07268 4.92175C7.06693 4.90789 7.06197 4.89648 7.05801 4.88763C7.05604 4.8832 7.05431 4.87942 7.05286 4.87628C7.05214 4.87472 7.05148 4.87331 7.0509 4.87207C7.05061 4.87146 7.05034 4.87088 7.05009 4.87034C7.04996 4.87007 7.04984 4.86981 7.04972 4.86957C7.04966 4.86944 7.04957 4.86926 7.04954 4.8692C7.04946 4.86903 7.04938 4.86885 6.59811 5.08416ZM6.64572 4.15182L6.19008 4.79519L7.00615 5.37314L7.46179 4.72977L6.64572 4.15182ZM7.52641 4.14191C7.55391 4.14191 7.55869 4.1475 7.53367 4.13871C7.51226 4.1312 7.48424 4.11852 7.4525 4.10138C7.42176 4.08478 7.39413 4.0676 7.37423 4.0545C7.36452 4.04811 7.35725 4.0431 7.35303 4.04014C7.35094 4.03867 7.34965 4.03775 7.34924 4.03745C7.34904 4.0373 7.34906 4.03732 7.34931 4.0375C7.34944 4.0376 7.34963 4.03773 7.34987 4.03791C7.35 4.038 7.35014 4.03811 7.35029 4.03822C7.35037 4.03827 7.35045 4.03833 7.35053 4.0384C7.35057 4.03843 7.35064 4.03848 7.35066 4.03849C7.35073 4.03854 7.3508 4.03859 7.05376 4.4408C6.75672 4.843 6.75679 4.84305 6.75686 4.8431C6.75689 4.84312 6.75696 4.84318 6.75701 4.84321C6.75711 4.84329 6.75722 4.84337 6.75732 4.84345C6.75754 4.84361 6.75778 4.84378 6.75804 4.84397C6.75855 4.84434 6.75913 4.84477 6.75977 4.84524C6.76107 4.84619 6.76265 4.84733 6.76449 4.84866C6.76816 4.85131 6.77292 4.8547 6.77866 4.85874C6.79013 4.86678 6.80569 4.87747 6.82464 4.88993C6.86206 4.91455 6.91504 4.94764 6.97741 4.98132C7.07935 5.03636 7.29247 5.14191 7.52641 5.14191V4.14191ZM7.7811 4.02657C7.74158 4.04837 7.67566 4.08269 7.60829 4.11024C7.57484 4.12392 7.54724 4.13335 7.52684 4.13884C7.50338 4.14516 7.50548 4.14191 7.52641 4.14191V5.14191C7.70875 5.14191 7.8854 5.0773 7.98675 5.03586C8.10403 4.98791 8.20743 4.93345 8.26417 4.90215L7.7811 4.02657ZM8.52263 4.46436V4.4408H7.52263V4.46436H8.52263ZM8.02263 4.4408C7.7666 4.87027 7.76661 4.87028 7.76662 4.87028C7.76662 4.87028 7.76663 4.87029 7.76664 4.87029C7.76665 4.8703 7.76666 4.8703 7.76667 4.87031C7.76669 4.87032 7.76672 4.87034 7.76674 4.87035C7.76679 4.87038 7.76684 4.87041 7.76689 4.87044C7.76699 4.8705 7.7671 4.87056 7.76721 4.87063C7.76745 4.87077 7.76771 4.87093 7.76801 4.8711C7.76859 4.87145 7.7693 4.87187 7.77012 4.87235C7.77176 4.87332 7.77387 4.87456 7.77641 4.87604C7.7815 4.879 7.78837 4.88296 7.79681 4.88775L8.28993 4.01779C8.28506 4.01503 8.28156 4.01301 8.27961 4.01187C8.27864 4.0113 8.27805 4.01096 8.27789 4.01086C8.2778 4.01081 8.27782 4.01082 8.27795 4.0109C8.27802 4.01094 8.27811 4.01099 8.27823 4.01106C8.27829 4.0111 8.27835 4.01114 8.27842 4.01118C8.27846 4.0112 8.2785 4.01122 8.27854 4.01125C8.27856 4.01126 8.27858 4.01127 8.2786 4.01128C8.27861 4.01129 8.27862 4.0113 8.27863 4.0113C8.27864 4.0113 8.27864 4.01131 8.27865 4.01131C8.27866 4.01132 8.27866 4.01132 8.02263 4.4408Z" fill="white" mask="url(#path-10-outside-2)"/>
</mask>
<g mask="url(#mask1)">
<rect x="6.65216" y="4.36365" width="1.3913" height="1.90909" fill="#67BAFF"/>
<rect x="8.04346" y="4.36365" width="1.3913" height="1.90909" fill="white"/>
<rect x="6.47824" y="6.45459" width="3.47826" height="2.18182" fill="#C51918"/>
<path d="M8.71737 6.13755H8.54346V4.8302H8.71737V6.13755Z" fill="#C9A951"/>
<path d="M8.6469 5.54286L8.56212 5.6947L8.26193 5.52709L8.34672 5.37524L8.6469 5.54286Z" fill="#C9A951"/>
<path d="M8.6469 5.17921L8.56212 5.33105L8.26193 5.16344L8.34672 5.0116L8.6469 5.17921Z" fill="#C9A951"/>
<path d="M8.60975 5.54286L8.69453 5.6947L8.99472 5.52709L8.90994 5.37524L8.60975 5.54286Z" fill="#C9A951"/>
<path d="M8.60975 5.17921L8.69453 5.33105L8.99472 5.16344L8.90994 5.0116L8.60975 5.17921Z" fill="#C9A951"/>
<path fill-rule="evenodd" clip-rule="evenodd" d="M7.68805 4.78503C7.58322 4.87673 7.65085 5.21181 7.47907 5.21181C7.3073 5.21181 7.06556 4.9609 7.00469 5.12646C6.94382 5.29203 7.00469 5.2364 7.00469 5.37742C7.00469 5.51844 6.85889 5.91029 6.93179 5.97653C7.00469 6.04277 7.07939 6.21732 7.06645 6.13561C7.0535 6.0539 6.99839 5.93391 7.02135 5.80357C6.99915 5.6689 7.14421 5.53938 7.14421 5.53938C7.14421 5.53938 7.12847 5.67919 7.11705 5.73131C7.11705 5.73131 7.06922 5.83653 7.08864 5.90641C7.08864 5.90641 7.13775 6.10336 7.158 6.11697C7.158 6.11697 7.17115 5.65062 7.18611 5.57377C7.20106 5.49691 7.30767 5.66046 7.34314 5.64193C7.34314 5.64193 7.35531 5.96081 7.33687 5.99881C7.33687 5.99881 7.29948 6.07424 7.31339 6.09833C7.31339 6.09833 7.34807 6.18564 7.37766 6.16021C7.37766 6.16021 7.3787 6.15839 7.3937 6.07342C7.3937 6.07342 7.37627 6.02211 7.40355 5.90527C7.40355 5.90527 7.43227 5.64801 7.44416 5.70383C7.44416 5.70383 7.43882 5.82529 7.45252 5.8879C7.45252 5.8879 7.4744 6.04332 7.47879 6.06039C7.47879 6.06039 7.58374 6.20988 7.58653 6.14674C7.58653 6.14674 7.48593 6.02678 7.50748 5.93549C7.50748 5.93549 7.44988 5.67687 7.53028 5.61921C7.53028 5.61921 7.74359 5.52054 7.75642 5.35165C7.75642 5.35165 7.78732 5.15918 7.79287 5.07094C7.79287 5.07094 7.74608 5.045 7.8428 4.99944C7.8428 4.99944 7.9985 4.93968 7.90148 4.85658" fill="#D18219"/>
</g>
<path d="M6.10001 3.84326L6.48667 4.1531C5.98302 4.98186 6.10001 5.76167 6.10001 6.26312C6.10001 7.18781 6.79485 8.25503 8.0053 8.25503C8.90497 8.25503 9.88283 7.55468 10.1136 6.69896C10.2954 6.02517 9.87837 4.44188 9.56371 4.02865L9.93588 3.84326C10.4242 4.48461 11.3503 5.95424 11.0791 6.95938C10.727 8.26476 9.34439 9.25503 8.0053 9.25503C6.13008 9.25503 5.10001 7.67294 5.10001 6.26312C5.10001 5.54714 5.50978 4.81448 6.10001 3.84326Z" fill="#00A854"/>
<path fill-rule="evenodd" clip-rule="evenodd" d="M8 7.59998C8.55228 7.59998 9 7.37612 9 7.09998C9 6.82383 8.55228 6.59998 8 6.59998C7.44772 6.59998 7 6.82383 7 7.09998C7 7.37612 7.44772 7.59998 8 7.59998Z" fill="#FDD200"/>
<rect x="6.5" y="8" width="3" height="1" fill="#CA0000"/>
</g>
</svg>
