<svg width="32" height="24" viewBox="0 0 32 24" fill="none" xmlns="http://www.w3.org/2000/svg">
<mask id="mask0" mask-type="alpha" maskUnits="userSpaceOnUse" x="0" y="0" width="32" height="24">
<rect width="32" height="24" fill="white"/>
</mask>
<g mask="url(#mask0)">
<path fill-rule="evenodd" clip-rule="evenodd" d="M0 0V24H32V0H0Z" fill="#2E42A5"/>
<mask id="mask1" mask-type="alpha" maskUnits="userSpaceOnUse" x="0" y="0" width="32" height="24">
<path fill-rule="evenodd" clip-rule="evenodd" d="M0 0V24H32V0H0Z" fill="white"/>
</mask>
<g mask="url(#mask1)">
<rect width="18" height="14" fill="#2B409A"/>
<mask id="mask2" mask-type="alpha" maskUnits="userSpaceOnUse" x="0" y="0" width="18" height="14">
<rect width="18" height="14" fill="white"/>
</mask>
<g mask="url(#mask2)">
<path d="M-2.00427 12.9999L1.95668 14.7371L18.0899 1.88878L20.1792 -0.692749L15.9435 -1.27337L9.36317 4.26332L4.06667 7.99375L-2.00427 12.9999Z" fill="#F7FCFF"/>
<path d="M-1.46204 14.217L0.555885 15.2251L19.4289 -0.932617H16.5955L-1.46204 14.217Z" fill="#F50100"/>
<path d="M20.0043 12.9999L16.0433 14.7371L-0.0898743 1.88878L-2.17919 -0.692749L2.05648 -1.27337L8.63683 4.26332L13.9333 7.99375L20.0043 12.9999Z" fill="#F7FCFF"/>
<path d="M19.8691 13.8732L17.8512 14.8813L9.81489 7.96339L7.43229 7.19046L-2.3802 -0.684069H0.453194L10.2602 7.00356L12.8651 7.93038L19.8691 13.8732Z" fill="#F50100"/>
<mask id="path-11-outside-1" maskUnits="userSpaceOnUse" x="-2" y="-2" width="22" height="18" fill="black">
<rect fill="white" x="-2" y="-2" width="22" height="18"/>
<path fill-rule="evenodd" clip-rule="evenodd" d="M9.98451 0H7.98451V6H0V8H7.98451V14H9.98451V8H18V6H9.98451V0Z"/>
</mask>
<path fill-rule="evenodd" clip-rule="evenodd" d="M9.98451 0H7.98451V6H0V8H7.98451V14H9.98451V8H18V6H9.98451V0Z" fill="#F50100"/>
<path d="M7.98451 0V-1.5H6.48451V0H7.98451ZM9.98451 0H11.4845V-1.5H9.98451V0ZM7.98451 6V7.5H9.48451V6H7.98451ZM0 6V4.5H-1.5V6H0ZM0 8H-1.5V9.5H0V8ZM7.98451 8H9.48451V6.5H7.98451V8ZM7.98451 14H6.48451V15.5H7.98451V14ZM9.98451 14V15.5H11.4845V14H9.98451ZM9.98451 8V6.5H8.48451V8H9.98451ZM18 8V9.5H19.5V8H18ZM18 6H19.5V4.5H18V6ZM9.98451 6H8.48451V7.5H9.98451V6ZM7.98451 1.5H9.98451V-1.5H7.98451V1.5ZM9.48451 6V0H6.48451V6H9.48451ZM0 7.5H7.98451V4.5H0V7.5ZM1.5 8V6H-1.5V8H1.5ZM7.98451 6.5H0V9.5H7.98451V6.5ZM9.48451 14V8H6.48451V14H9.48451ZM9.98451 12.5H7.98451V15.5H9.98451V12.5ZM8.48451 8V14H11.4845V8H8.48451ZM18 6.5H9.98451V9.5H18V6.5ZM16.5 6V8H19.5V6H16.5ZM9.98451 7.5H18V4.5H9.98451V7.5ZM8.48451 0V6H11.4845V0H8.48451Z" fill="#F7FCFF" mask="url(#path-11-outside-1)"/>
</g>
<path fill-rule="evenodd" clip-rule="evenodd" d="M20.2467 10.0327V16.5619C20.2467 16.5619 20.15 21.964 25.1287 21.964C30.1074 21.964 30.1074 16.5619 30.1074 16.5619V10.0327H20.2467Z" fill="#3B7E05" stroke="#F7FCFF" stroke-width="0.5"/>
<path fill-rule="evenodd" clip-rule="evenodd" d="M20.237 19.8888L21.0302 19.0925C22.2698 20.6234 23.5736 21.3685 24.9599 21.3685C26.3461 21.3685 27.6488 20.6236 28.8865 19.0928L29.3379 19.5454L29.3571 19.517C29.6331 19.7507 29.8151 19.9693 29.9024 20.2226C30.0447 20.6351 29.8927 21.0315 29.5592 21.2412C29.4765 21.2932 29.4108 21.3307 29.3524 21.3579C29.217 21.4209 29.1085 21.4483 28.9474 21.4029C28.7834 21.3566 28.6455 21.2304 28.5742 21.0567C27.4493 22.0517 26.2419 22.5577 24.9599 22.5577C23.6889 22.5577 22.4907 22.0604 21.373 21.0822C21.2983 21.253 21.159 21.3756 20.9952 21.4187C20.8333 21.4613 20.7253 21.432 20.591 21.3666C20.5331 21.3384 20.4681 21.2998 20.3863 21.2464C20.0565 21.0309 19.9114 20.6319 20.0609 20.222C20.1016 20.1104 20.1668 20.007 20.2513 19.9064C20.2465 19.9006 20.2418 19.8947 20.237 19.8888Z" fill="#FFD018"/>
<path d="M21.0302 19.0925L21.2245 18.9352L21.0494 18.719L20.8531 18.9161L21.0302 19.0925ZM20.237 19.8888L20.0599 19.7124L19.9014 19.8716L20.0427 20.0462L20.237 19.8888ZM28.8865 19.0928L29.0635 18.9163L28.867 18.7193L28.692 18.9357L28.8865 19.0928ZM29.3379 19.5454L29.1609 19.722L29.3753 19.9369L29.5451 19.6853L29.3379 19.5454ZM29.3571 19.517L29.5186 19.3262L29.3058 19.1461L29.1499 19.3771L29.3571 19.517ZM29.9024 20.2226L30.1387 20.1411V20.1411L29.9024 20.2226ZM29.5592 21.2412L29.4261 21.0296V21.0296L29.5592 21.2412ZM29.3524 21.3579L29.2469 21.1312L29.3524 21.3579ZM28.9474 21.4029L28.8795 21.6435L28.9474 21.4029ZM28.5742 21.0567L28.8055 20.9617L28.6719 20.6365L28.4086 20.8695L28.5742 21.0567ZM21.373 21.0822L21.5377 20.8941L21.2807 20.6693L21.144 20.9821L21.373 21.0822ZM20.9952 21.4187L20.9316 21.1769H20.9316L20.9952 21.4187ZM20.591 21.3666L20.7005 21.1419L20.7005 21.1419L20.591 21.3666ZM20.3863 21.2464L20.2496 21.4557L20.2496 21.4557L20.3863 21.2464ZM20.0609 20.222L20.2958 20.3076V20.3076L20.0609 20.222ZM20.2513 19.9064L20.4427 20.0672L20.5756 19.909L20.4453 19.7487L20.2513 19.9064ZM20.8531 18.9161L20.0599 19.7124L20.4142 20.0653L21.2073 19.269L20.8531 18.9161ZM24.9599 21.1185C23.6756 21.1185 22.4363 20.4318 21.2245 18.9352L20.8359 19.2498C22.1032 20.815 23.4716 21.6185 24.9599 21.6185V21.1185ZM28.692 18.9357C27.4822 20.432 26.2441 21.1185 24.9599 21.1185V21.6185C26.4482 21.6185 27.8154 20.8151 29.0809 19.25L28.692 18.9357ZM29.5149 19.3689L29.0635 18.9163L28.7095 19.2694L29.1609 19.722L29.5149 19.3689ZM29.1499 19.3771L29.1307 19.4055L29.5451 19.6853L29.5643 19.6569L29.1499 19.3771ZM30.1387 20.1411C30.0301 19.8262 29.8093 19.5723 29.5186 19.3262L29.1955 19.7078C29.4569 19.9291 29.6 20.1124 29.6661 20.3041L30.1387 20.1411ZM29.6922 21.4528C30.1249 21.1808 30.3186 20.6626 30.1387 20.1411L29.6661 20.3041C29.7708 20.6076 29.6606 20.8821 29.4261 21.0296L29.6922 21.4528ZM29.4579 21.5845C29.5301 21.5509 29.6059 21.5071 29.6922 21.4528L29.4261 21.0296C29.347 21.0793 29.2915 21.1105 29.2469 21.1312L29.4579 21.5845ZM28.8795 21.6435C28.9889 21.6743 29.0915 21.6831 29.1944 21.6686C29.2941 21.6545 29.3809 21.6203 29.4579 21.5845L29.2469 21.1312C29.1885 21.1584 29.1533 21.1694 29.1246 21.1735C29.0992 21.1771 29.067 21.1768 29.0152 21.1622L28.8795 21.6435ZM28.3429 21.1517C28.4408 21.3901 28.6352 21.5746 28.8795 21.6435L29.0152 21.1622C28.9315 21.1386 28.8502 21.0707 28.8055 20.9617L28.3429 21.1517ZM24.9599 22.8077C26.314 22.8077 27.5782 22.2714 28.7398 21.244L28.4086 20.8695C27.3203 21.832 26.1699 22.3077 24.9599 22.3077V22.8077ZM21.2084 21.2704C22.3629 22.2806 23.6175 22.8077 24.9599 22.8077V22.3077C23.7602 22.3077 22.6186 21.8401 21.5377 20.8941L21.2084 21.2704ZM21.0588 21.6605C21.3028 21.5962 21.4995 21.417 21.6021 21.1824L21.144 20.9821C21.0972 21.0891 21.0152 21.1549 20.9316 21.1769L21.0588 21.6605ZM20.4816 21.5914C20.5579 21.6286 20.6441 21.6643 20.7435 21.6801C20.8462 21.6964 20.9489 21.6894 21.0588 21.6605L20.9316 21.1769C20.8796 21.1906 20.8473 21.1903 20.822 21.1863C20.7934 21.1817 20.7584 21.1701 20.7005 21.1419L20.4816 21.5914ZM20.2496 21.4557C20.335 21.5115 20.41 21.5566 20.4816 21.5914L20.7005 21.1419C20.6562 21.1203 20.6013 21.0882 20.5231 21.0371L20.2496 21.4557ZM19.826 20.1363C19.637 20.6546 19.8218 21.1762 20.2496 21.4557L20.5231 21.0371C20.2912 20.8856 20.1858 20.6092 20.2958 20.3076L19.826 20.1363ZM20.0599 19.7456C19.9622 19.8619 19.8792 19.9904 19.826 20.1363L20.2958 20.3076C20.3239 20.2305 20.3715 20.152 20.4427 20.0672L20.0599 19.7456ZM20.0427 20.0462C20.0476 20.0522 20.0525 20.0581 20.0573 20.0641L20.4453 19.7487C20.4406 19.743 20.436 19.7373 20.4313 19.7315L20.0427 20.0462Z" fill="white"/>
<path fill-rule="evenodd" clip-rule="evenodd" d="M21.9558 11.4604L22.0671 11.5012C22.158 11.2933 22.173 11.1349 22.0671 11.0332L22.0641 11.0285C22.0394 10.9899 21.9955 10.9214 22.0671 10.775L22.0161 10.6704C21.9125 10.8823 21.8658 11.0353 21.9468 11.1383L21.9509 11.1436L21.9558 11.148C22.0027 11.1902 22.0224 11.3082 21.9558 11.4604ZM21.9558 12.9739L22.0671 13.0147C22.158 12.8068 22.173 12.6484 22.0671 12.5467L22.0641 12.542C22.0394 12.5034 21.9955 12.4349 22.0671 12.2886L22.0161 12.1839C21.9125 12.3958 21.8658 12.5488 21.9468 12.6519L21.9509 12.6571L21.9558 12.6615C22.0027 12.7037 22.0224 12.8217 21.9558 12.9739ZM22.0671 14.3661L21.9558 14.3253C22.0224 14.1731 22.0027 14.0551 21.9558 14.0129L21.9509 14.0085L21.9468 14.0032C21.8658 13.9001 21.9125 13.7472 22.0161 13.5353L22.0671 13.6399C21.9955 13.7863 22.0394 13.8548 22.0641 13.8933L22.0671 13.898C22.173 13.9997 22.158 14.1581 22.0671 14.3661ZM22.7325 15.9469L22.8438 15.9877C22.9347 15.7798 22.9497 15.6214 22.8438 15.5197L22.8408 15.515C22.8161 15.4764 22.7722 15.4079 22.8438 15.2615L22.7928 15.1569C22.6892 15.3688 22.6425 15.5217 22.7235 15.6248L22.7276 15.6301L22.7325 15.6345C22.7794 15.6767 22.7991 15.7947 22.7325 15.9469ZM21.9214 17.285L21.8102 17.2442C21.8767 17.092 21.8571 16.974 21.8102 16.9318L21.8053 16.9274L21.8012 16.9221C21.7202 16.819 21.7669 16.6661 21.8704 16.4542L21.9214 16.5588C21.8499 16.7052 21.8938 16.7737 21.9185 16.8123L21.9214 16.8169C22.0274 16.9187 22.0124 17.0771 21.9214 17.285ZM21.8102 18.7577L21.9214 18.7985C22.0124 18.5906 22.0274 18.4322 21.9214 18.3305L21.9185 18.3258C21.8938 18.2872 21.8499 18.2187 21.9214 18.0723L21.8704 17.9677C21.7669 18.1796 21.7202 18.3325 21.8012 18.4356L21.8053 18.4409L21.8102 18.4453C21.8571 18.4875 21.8767 18.6055 21.8102 18.7577ZM26.7273 18.7985L26.616 18.7577C26.6826 18.6055 26.6629 18.4875 26.616 18.4453L26.6111 18.4409L26.607 18.4356C26.526 18.3325 26.5727 18.1796 26.6763 17.9677L26.7273 18.0723C26.6557 18.2187 26.6996 18.2872 26.7243 18.3258L26.7273 18.3305C26.8332 18.4322 26.8182 18.5906 26.7273 18.7985ZM26.616 17.2983L26.7273 17.339C26.8182 17.1311 26.8332 16.9727 26.7273 16.871L26.7243 16.8663C26.6996 16.8277 26.6557 16.7592 26.7273 16.6129L26.6763 16.5082C26.5727 16.7202 26.526 16.8731 26.607 16.9762L26.6111 16.9814L26.616 16.9858C26.6629 17.0281 26.6826 17.146 26.616 17.2983ZM26.7273 15.8796L26.616 15.8388C26.6826 15.6866 26.6629 15.5686 26.616 15.5264L26.6111 15.522L26.607 15.5167C26.526 15.4136 26.5727 15.2607 26.6763 15.0488L26.7273 15.1534C26.6557 15.2998 26.6996 15.3683 26.7243 15.4069L26.7273 15.4115C26.8332 15.5132 26.8182 15.6717 26.7273 15.8796ZM26.5675 14.4334L26.6787 14.4742C26.7696 14.2663 26.7847 14.1078 26.6787 14.0061L26.6757 14.0015C26.651 13.9629 26.6072 13.8944 26.6787 13.748L26.6277 13.6434C26.5241 13.8553 26.4775 14.0082 26.5584 14.1113L26.5626 14.1166L26.5675 14.121C26.6143 14.1632 26.634 14.2812 26.5675 14.4334ZM26.6787 12.9607L26.5675 12.9199C26.634 12.7677 26.6143 12.6497 26.5675 12.6075L26.5626 12.6031L26.5584 12.5978C26.4775 12.4947 26.5241 12.3418 26.6277 12.1299L26.6787 12.2345C26.6072 12.3809 26.651 12.4494 26.6757 12.4879L26.6787 12.4926C26.7847 12.5943 26.7696 12.7527 26.6787 12.9607ZM26.5675 11.5145L26.6787 11.5553C26.7696 11.3473 26.7847 11.1889 26.6787 11.0872C26.6778 11.0857 26.6768 11.0841 26.6757 11.0825C26.651 11.044 26.6072 10.9755 26.6787 10.8291L26.6277 10.7245C26.5241 10.9364 26.4775 11.0893 26.5584 11.1924L26.5626 11.1977L26.5675 11.2021C26.6143 11.2443 26.634 11.3623 26.5675 11.5145Z" fill="#F50100"/>
<path fill-rule="evenodd" clip-rule="evenodd" d="M22.7601 10.815C22.7682 10.7995 22.7727 10.7815 22.7727 10.7624C22.7727 10.7027 22.728 10.6543 22.6727 10.6543C22.6175 10.6543 22.5727 10.7027 22.5727 10.7624C22.5727 10.7881 22.5811 10.8118 22.595 10.8304L22.2166 11.4163L22.256 11.4478L22.6342 10.8622C22.6461 10.8676 22.6591 10.8705 22.6727 10.8705C22.6922 10.8705 22.7104 10.8645 22.7257 10.8541L23.1237 11.4482L23.1626 11.4159L22.7601 10.815ZM22.7465 11.3219C22.7628 11.3027 22.7727 11.277 22.7727 11.2489C22.7727 11.1892 22.728 11.1408 22.6727 11.1408C22.6175 11.1408 22.5727 11.1892 22.5727 11.2489C22.5727 11.2853 22.5894 11.3175 22.6149 11.3371L22.5201 11.4511H21.8777C21.8777 11.4511 21.9481 11.6121 22.1671 11.6547C22.234 11.7182 22.4051 11.8366 22.4051 11.8366L22.3075 11.9551H23.0001V11.8366C23.1689 11.8353 23.2322 11.7021 23.2549 11.6545C23.2642 11.6349 23.2666 11.6298 23.2666 11.6547C23.2666 11.7397 23.3898 11.6547 23.3898 11.6547C23.3898 11.6547 23.5942 11.4511 23.5942 11.2571C23.5942 11.0632 23.1667 11.4511 23.1667 11.4511H22.8765L22.7465 11.3219ZM21.8777 12.9646H22.5201L22.6149 12.8506C22.5894 12.831 22.5727 12.7988 22.5727 12.7624C22.5727 12.7027 22.6175 12.6543 22.6727 12.6543C22.728 12.6543 22.7727 12.7027 22.7727 12.7624C22.7727 12.7905 22.7628 12.8162 22.7465 12.8354L22.8765 12.9646H23.1667C23.1667 12.9646 23.5942 12.5767 23.5942 12.7707C23.5942 12.9646 23.3898 13.1682 23.3898 13.1682C23.3898 13.1682 23.2666 13.2532 23.2666 13.1682C23.2666 13.1433 23.2642 13.1484 23.2549 13.168C23.2322 13.2156 23.1689 13.3488 23.0001 13.3501V13.4686H22.3075L22.4051 13.3501C22.4051 13.3501 22.234 13.2318 22.1671 13.1682C21.9481 13.1257 21.8777 12.9646 21.8777 12.9646ZM22.7601 12.3286C22.7682 12.313 22.7727 12.295 22.7727 12.2759C22.7727 12.2162 22.728 12.1678 22.6727 12.1678C22.6175 12.1678 22.5727 12.2162 22.5727 12.2759C22.5727 12.3017 22.5811 12.3253 22.595 12.3439L22.2166 12.9298L22.256 12.9613L22.6342 12.3757C22.6461 12.3811 22.6591 12.384 22.6727 12.384C22.6922 12.384 22.7104 12.378 22.7257 12.3676L23.1237 12.9617L23.1626 12.9294L22.7601 12.3286ZM21.8777 14.316H22.5201L22.6149 14.202C22.5894 14.1824 22.5727 14.1502 22.5727 14.1138C22.5727 14.054 22.6175 14.0056 22.6727 14.0056C22.728 14.0056 22.7727 14.054 22.7727 14.1138C22.7727 14.1419 22.7628 14.1675 22.7465 14.1868L22.8765 14.316H23.1667C23.1667 14.316 23.5942 13.928 23.5942 14.122C23.5942 14.316 23.3898 14.5195 23.3898 14.5195C23.3898 14.5195 23.2666 14.6046 23.2666 14.5195C23.2666 14.4947 23.2642 14.4997 23.2549 14.5194C23.2322 14.5669 23.1689 14.7002 23.0001 14.7014V14.82H22.3075L22.4051 14.7014C22.4051 14.7014 22.234 14.5831 22.1671 14.5195C21.9481 14.477 21.8777 14.316 21.8777 14.316ZM22.7601 13.6799C22.7682 13.6643 22.7727 13.6464 22.7727 13.6273C22.7727 13.5676 22.728 13.5192 22.6727 13.5192C22.6175 13.5192 22.5727 13.5676 22.5727 13.6273C22.5727 13.653 22.5811 13.6766 22.595 13.6952L22.2166 14.2811L22.256 14.3127L22.6342 13.7271C22.6461 13.7324 22.6591 13.7354 22.6727 13.7354C22.6922 13.7354 22.7104 13.7294 22.7257 13.719L23.1237 14.3131L23.1626 14.2807L22.7601 13.6799ZM22.6544 15.9376H23.2968L23.3916 15.8236C23.3661 15.804 23.3494 15.7718 23.3494 15.7354C23.3494 15.6757 23.3942 15.6273 23.4494 15.6273C23.5047 15.6273 23.5494 15.6757 23.5494 15.7354C23.5494 15.7635 23.5395 15.7891 23.5232 15.8084L23.6532 15.9376H23.9434C23.9434 15.9376 24.3709 15.5497 24.3709 15.7436C24.3709 15.9376 24.1665 16.1412 24.1665 16.1412C24.1665 16.1412 24.0433 16.2262 24.0433 16.1412C24.0433 16.1163 24.0409 16.1214 24.0316 16.141C24.0089 16.1885 23.9456 16.3218 23.7768 16.323V16.4416H23.0842L23.1818 16.323C23.1818 16.323 23.0107 16.2047 22.9438 16.1412C22.7248 16.0986 22.6544 15.9376 22.6544 15.9376ZM23.5368 15.3015C23.5449 15.286 23.5494 15.268 23.5494 15.2489C23.5494 15.1892 23.5047 15.1408 23.4494 15.1408C23.3942 15.1408 23.3494 15.1892 23.3494 15.2489C23.3494 15.2746 23.3578 15.2983 23.3717 15.3168L22.9933 15.9027L23.0327 15.9343L23.4109 15.3487C23.4228 15.354 23.4358 15.357 23.4494 15.357C23.4689 15.357 23.4871 15.351 23.5024 15.3406L23.9004 15.9347L23.9393 15.9024L23.5368 15.3015ZM21.7321 17.2349H22.3745L22.4693 17.1209C22.4438 17.1013 22.4271 17.0691 22.4271 17.0327C22.4271 16.973 22.4719 16.9246 22.5271 16.9246C22.5823 16.9246 22.6271 16.973 22.6271 17.0327C22.6271 17.0608 22.6172 17.0864 22.6009 17.1057L22.7309 17.2349H23.021C23.021 17.2349 23.4486 16.847 23.4486 17.0409C23.4486 17.2349 23.2441 17.4385 23.2441 17.4385C23.2441 17.4385 23.121 17.5235 23.121 17.4385C23.121 17.4136 23.1186 17.4186 23.1092 17.4383C23.0866 17.4858 23.0232 17.6191 22.8545 17.6203V17.7389H22.1619L22.2595 17.6203C22.2595 17.6203 22.0884 17.502 22.0215 17.4385C21.8024 17.3959 21.7321 17.2349 21.7321 17.2349ZM22.6145 16.5988C22.6225 16.5833 22.6271 16.5653 22.6271 16.5462C22.6271 16.4865 22.5823 16.4381 22.5271 16.4381C22.4719 16.4381 22.4271 16.4865 22.4271 16.5462C22.4271 16.5719 22.4354 16.5956 22.4493 16.6141L22.0709 17.2L22.1104 17.2316L22.4886 16.646C22.5004 16.6513 22.5134 16.6543 22.5271 16.6543C22.5466 16.6543 22.5647 16.6483 22.5801 16.6379L22.9781 17.232L23.017 17.1997L22.6145 16.5988ZM21.7321 18.7484H22.3745L22.4693 18.6344C22.4438 18.6148 22.4271 18.5826 22.4271 18.5462C22.4271 18.4865 22.4719 18.4381 22.5271 18.4381C22.5823 18.4381 22.6271 18.4865 22.6271 18.5462C22.6271 18.5743 22.6172 18.6 22.6009 18.6192L22.7309 18.7484H23.021C23.021 18.7484 23.4486 18.3605 23.4486 18.5544C23.4486 18.7484 23.2441 18.952 23.2441 18.952C23.2441 18.952 23.121 19.037 23.121 18.952C23.121 18.9271 23.1186 18.9322 23.1092 18.9518C23.0866 18.9993 23.0232 19.1326 22.8545 19.1339V19.2524H22.1619L22.2595 19.1339C22.2595 19.1339 22.0884 19.0155 22.0215 18.952C21.8024 18.9094 21.7321 18.7484 21.7321 18.7484ZM22.6145 18.1123C22.6225 18.0968 22.6271 18.0788 22.6271 18.0597C22.6271 18 22.5823 17.9516 22.5271 17.9516C22.4719 17.9516 22.4271 18 22.4271 18.0597C22.4271 18.0854 22.4354 18.1091 22.4493 18.1276L22.0709 18.7136L22.1104 18.7451L22.4886 18.1595C22.5004 18.1648 22.5134 18.1678 22.5271 18.1678C22.5466 18.1678 22.5647 18.1618 22.5801 18.1514L22.9781 18.7455L23.017 18.7132L22.6145 18.1123ZM26.5379 18.7484H27.1803L27.2751 18.6344C27.2496 18.6148 27.2329 18.5826 27.2329 18.5462C27.2329 18.4865 27.2777 18.4381 27.3329 18.4381C27.3882 18.4381 27.4329 18.4865 27.4329 18.5462C27.4329 18.5743 27.423 18.6 27.4067 18.6192L27.5367 18.7484H27.8269C27.8269 18.7484 28.2544 18.3605 28.2544 18.5544C28.2544 18.7484 28.05 18.952 28.05 18.952C28.05 18.952 27.9268 19.037 27.9268 18.952C27.9268 18.9271 27.9244 18.9322 27.915 18.9518C27.8924 18.9993 27.8291 19.1326 27.6603 19.1339V19.2524H26.9677L27.0653 19.1339C27.0653 19.1339 26.8942 19.0155 26.8273 18.952C26.6083 18.9094 26.5379 18.7484 26.5379 18.7484ZM27.4203 18.1123C27.4284 18.0968 27.4329 18.0788 27.4329 18.0597C27.4329 18 27.3882 17.9516 27.3329 17.9516C27.2777 17.9516 27.2329 18 27.2329 18.0597C27.2329 18.0854 27.2413 18.1091 27.2552 18.1276L26.8768 18.7136L26.9162 18.7451L27.2944 18.1595C27.3063 18.1648 27.3193 18.1678 27.3329 18.1678C27.3524 18.1678 27.3706 18.1618 27.3859 18.1514L27.7839 18.7455L27.8228 18.7132L27.4203 18.1123ZM26.5379 17.289H27.1803L27.2751 17.1749C27.2496 17.1553 27.2329 17.1231 27.2329 17.0867C27.2329 17.027 27.2777 16.9786 27.3329 16.9786C27.3882 16.9786 27.4329 17.027 27.4329 17.0867C27.4329 17.1149 27.423 17.1405 27.4067 17.1597L27.5367 17.289H27.8269C27.8269 17.289 28.2544 16.901 28.2544 17.095C28.2544 17.289 28.05 17.4925 28.05 17.4925C28.05 17.4925 27.9268 17.5775 27.9268 17.4925C27.9268 17.4677 27.9244 17.4727 27.9151 17.4923C27.8924 17.5399 27.8291 17.6731 27.6603 17.6744V17.7929H26.9677L27.0653 17.6744C27.0653 17.6744 26.8942 17.5561 26.8273 17.4925C26.6083 17.45 26.5379 17.289 26.5379 17.289ZM27.4203 16.6529C27.4284 16.6373 27.4329 16.6194 27.4329 16.6002C27.4329 16.5405 27.3882 16.4921 27.3329 16.4921C27.2777 16.4921 27.2329 16.5405 27.2329 16.6002C27.2329 16.626 27.2413 16.6496 27.2552 16.6682L26.8768 17.2541L26.9162 17.2857L27.2944 16.7C27.3063 16.7054 27.3193 16.7084 27.3329 16.7084C27.3524 16.7084 27.3706 16.7023 27.3859 16.692L27.7839 17.286L27.8228 17.2537L27.4203 16.6529ZM26.5379 15.8295H27.1803L27.2751 15.7155C27.2496 15.6959 27.2329 15.6637 27.2329 15.6273C27.2329 15.5676 27.2777 15.5192 27.3329 15.5192C27.3882 15.5192 27.4329 15.5676 27.4329 15.6273C27.4329 15.6554 27.423 15.681 27.4067 15.7003L27.5367 15.8295H27.8269C27.8269 15.8295 28.2544 15.4415 28.2544 15.6355C28.2544 15.8295 28.05 16.033 28.05 16.033C28.05 16.033 27.9268 16.1181 27.9268 16.033C27.9268 16.0082 27.9244 16.0132 27.9151 16.0329C27.8924 16.0804 27.8291 16.2137 27.6603 16.2149V16.3335H26.9677L27.0653 16.2149C27.0653 16.2149 26.8942 16.0966 26.8273 16.033C26.6083 15.9905 26.5379 15.8295 26.5379 15.8295ZM27.4203 15.1934C27.4284 15.1778 27.4329 15.1599 27.4329 15.1408C27.4329 15.0811 27.3882 15.0327 27.3329 15.0327C27.2777 15.0327 27.2329 15.0811 27.2329 15.1408C27.2329 15.1665 27.2413 15.1902 27.2552 15.2087L26.8768 15.7946L26.9162 15.8262L27.2944 15.2406C27.3063 15.2459 27.3193 15.2489 27.3329 15.2489C27.3524 15.2489 27.3706 15.2429 27.3859 15.2325L27.7839 15.8266L27.8228 15.7943L27.4203 15.1934ZM26.4893 14.4241H27.1318L27.2266 14.3101C27.201 14.2905 27.1844 14.2583 27.1844 14.2219C27.1844 14.1622 27.2292 14.1138 27.2844 14.1138C27.3396 14.1138 27.3844 14.1622 27.3844 14.2219C27.3844 14.25 27.3745 14.2756 27.3582 14.2949L27.4881 14.4241H27.7783C27.7783 14.4241 28.2059 14.0361 28.2059 14.2301C28.2059 14.4241 28.0014 14.6276 28.0014 14.6276C28.0014 14.6276 27.8782 14.7127 27.8782 14.6276C27.8782 14.6028 27.8758 14.6078 27.8665 14.6275C27.8439 14.675 27.7805 14.8083 27.6118 14.8095V14.9281H26.9192L27.0168 14.8095C27.0168 14.8095 26.8456 14.6912 26.7788 14.6276C26.5597 14.5851 26.4893 14.4241 26.4893 14.4241ZM27.3718 13.788C27.3798 13.7724 27.3844 13.7545 27.3844 13.7354C27.3844 13.6757 27.3396 13.6273 27.2844 13.6273C27.2292 13.6273 27.1844 13.6757 27.1844 13.7354C27.1844 13.7611 27.1927 13.7848 27.2066 13.8033L26.8282 14.3892L26.8676 14.4208L27.2458 13.8352C27.2577 13.8405 27.2707 13.8435 27.2844 13.8435C27.3039 13.8435 27.322 13.8375 27.3374 13.8271L27.7353 14.4212L27.7743 14.3889L27.3718 13.788ZM26.4893 12.9106H27.1318L27.2266 12.7966C27.201 12.777 27.1844 12.7448 27.1844 12.7084C27.1844 12.6486 27.2292 12.6002 27.2844 12.6002C27.3396 12.6002 27.3844 12.6486 27.3844 12.7084C27.3844 12.7365 27.3745 12.7621 27.3582 12.7814L27.4881 12.9106H27.7783C27.7783 12.9106 28.2059 12.5226 28.2059 12.7166C28.2059 12.9106 28.0014 13.1141 28.0014 13.1141C28.0014 13.1141 27.8782 13.1992 27.8782 13.1141C27.8782 13.0893 27.8758 13.0943 27.8665 13.1139C27.8439 13.1615 27.7805 13.2948 27.6118 13.296V13.4146H26.9192L27.0168 13.296C27.0168 13.296 26.8456 13.1777 26.7788 13.1141C26.5597 13.0716 26.4893 12.9106 26.4893 12.9106ZM27.3718 12.2745C27.3798 12.2589 27.3844 12.241 27.3844 12.2219C27.3844 12.1622 27.3396 12.1138 27.2844 12.1138C27.2292 12.1138 27.1844 12.1622 27.1844 12.2219C27.1844 12.2476 27.1927 12.2712 27.2066 12.2898L26.8282 12.8757L26.8676 12.9073L27.2458 12.3216C27.2577 12.327 27.2707 12.33 27.2844 12.33C27.3039 12.33 27.322 12.324 27.3374 12.3136L27.7353 12.9077L27.7743 12.8753L27.3718 12.2745Z" fill="#FFD018"/>
<path fill-rule="evenodd" clip-rule="evenodd" d="M24.6397 12.5857L24.3034 13.6792C24.3034 13.6792 23.7399 14.4082 23.6359 14.7654C23.532 15.1227 23.475 15.3601 23.5035 15.3601C23.532 15.3601 23.7622 15.2583 23.7622 15.0119C23.7622 14.7654 24.6397 13.9729 24.6397 13.9729L24.9016 12.5857H24.6397Z" fill="#FFC6B5"/>
<path fill-rule="evenodd" clip-rule="evenodd" d="M27.3718 10.869C27.3799 10.8534 27.3844 10.8355 27.3844 10.8164C27.3844 10.7567 27.3397 10.7083 27.2844 10.7083C27.2292 10.7083 27.1844 10.7567 27.1844 10.8164C27.1844 10.8421 27.1928 10.8657 27.2067 10.8843L26.8283 11.4702L26.8677 11.5018L27.2459 10.9161C27.2577 10.9215 27.2708 10.9245 27.2844 10.9245C27.3039 10.9245 27.3221 10.9185 27.3374 10.9081L27.7354 11.5022L27.7743 11.4698L27.3718 10.869ZM27.3582 11.3759C27.3745 11.3566 27.3844 11.331 27.3844 11.3028C27.3844 11.2431 27.3397 11.1947 27.2844 11.1947C27.2292 11.1947 27.1844 11.2431 27.1844 11.3028C27.1844 11.3393 27.2011 11.3715 27.2266 11.3911L27.1318 11.5051H26.4894C26.4894 11.5051 26.5598 11.6661 26.7788 11.7086C26.8457 11.7722 27.0168 11.8905 27.0168 11.8905L26.9192 12.0091H27.6118V11.8905C27.7806 11.8893 27.8439 11.756 27.8665 11.7084C27.8759 11.6888 27.8783 11.6838 27.8783 11.7086C27.8783 11.7937 28.0015 11.7086 28.0015 11.7086C28.0015 11.7086 28.2059 11.5051 28.2059 11.3111C28.2059 11.1171 27.7783 11.5051 27.7783 11.5051H27.4882L27.3582 11.3759Z" fill="#FFD018"/>
<path fill-rule="evenodd" clip-rule="evenodd" d="M25.4601 12.1481C25.4695 12.1681 25.4766 12.183 25.4766 12.2041C25.4766 12.2672 25.2094 12.3598 25.0166 12.3598C24.8238 12.3598 24.8994 12.2041 25.0166 12.1178C25.1338 12.0315 25.0071 11.8829 24.8994 11.8829C24.7971 11.8829 24.7975 11.7384 24.7978 11.6223C24.7978 11.6162 24.7978 11.6101 24.7978 11.6041V11.1517C24.7978 10.9701 24.847 10.9914 24.941 11.032C24.9963 11.0559 25.0671 11.0865 25.1525 11.0865C25.296 11.0865 25.3039 11.1196 25.3255 11.2091C25.3386 11.2635 25.3567 11.3387 25.4132 11.44C25.5033 11.6013 25.4849 11.6384 25.4561 11.6969C25.437 11.7355 25.4132 11.7835 25.4132 11.8829C25.4132 12.0491 25.4413 12.1085 25.4601 12.1481ZM25.6981 13.3087L25.7549 12.6937C25.7549 12.6937 25.6981 12.4687 25.831 12.4687C25.9639 12.4687 26.1702 13.5443 26.2448 13.9755C26.2925 14.2513 26.2487 14.3025 26.1222 14.4503C26.0509 14.5336 25.9533 14.6476 25.831 14.8498C25.6276 15.1862 25.6408 15.383 25.6508 15.533C25.6575 15.6332 25.6628 15.7125 25.6013 15.7985C25.4583 15.9984 25.3996 15.8092 25.3424 15.6247C25.3382 15.6109 25.3339 15.5972 25.3297 15.5837C25.2751 15.4111 25.5242 14.8878 25.6935 14.5323C25.7156 14.4858 25.7364 14.4422 25.7549 14.4026C25.9152 14.0604 25.9001 13.9409 25.831 13.7976C25.7619 13.6543 25.6981 13.3087 25.6981 13.3087Z" fill="#FFC6B5"/>
<path fill-rule="evenodd" clip-rule="evenodd" d="M26.0195 19.3698C26.0195 19.5262 25.8999 19.653 25.7525 19.653C25.605 19.653 25.4855 19.5262 25.4855 19.3698C25.4855 19.2134 25.605 19.0867 25.7525 19.0867C25.8999 19.0867 26.0195 19.2134 26.0195 19.3698ZM24.5995 19.4485C24.4798 19.549 24.3337 19.5722 24.2734 19.5003C24.2131 19.4284 24.2613 19.2887 24.3811 19.1882C24.5009 19.0877 24.6469 19.0644 24.7072 19.1363C24.7675 19.2082 24.7193 19.348 24.5995 19.4485Z" fill="#FFD018"/>
<path fill-rule="evenodd" clip-rule="evenodd" d="M24.951 10.7848C24.951 10.7848 24.6734 10.8412 24.7659 10.9802C24.8585 11.1192 24.6453 11.0833 24.951 11.1012C25.2567 11.1192 25.3404 11.2305 25.2986 11.3127C25.2567 11.3949 25.2239 11.5991 25.2986 11.7221C25.3733 11.8451 25.397 12.0592 25.529 11.9522C25.6609 11.8451 25.9144 11.6981 25.8368 11.5054C25.7591 11.3127 25.8681 11.0886 25.6985 10.9802C25.529 10.8718 25.4911 10.9381 25.3941 10.7848C25.297 10.6315 25.1541 10.5893 25.0526 10.687C24.951 10.7848 24.951 10.7848 24.951 10.7848Z" fill="#A95601"/>
<path fill-rule="evenodd" clip-rule="evenodd" d="M24.896 12.1777C24.896 12.1777 24.338 12.8496 24.4293 13.0864C24.5207 13.3231 24.6573 13.3356 24.589 13.6722C24.5207 14.0088 24.6305 14.5291 24.4293 15.1911C24.2281 15.8531 24.0959 17.4063 24.162 17.4063C24.2281 17.4063 24.32 18.2643 24.241 18.6492C24.162 19.0341 23.6112 19.3562 24.162 19.3562C24.7128 19.3562 24.7782 19.4325 24.9983 19.3562C25.2184 19.2799 25.5307 19.5757 25.5307 19.3562C25.5307 19.1366 25.5543 19.0917 25.722 19.0917C25.8898 19.0917 25.8813 19.0917 26.0299 19.0917C26.1784 19.0917 26.3731 19.2299 26.3731 18.9019C26.3731 18.5739 26.4094 17.8692 26.2196 17.3219C26.0299 16.7746 26.0943 17.1241 25.9082 16.3922C25.7979 15.9587 25.7128 15.7866 25.6457 15.6352C25.5996 15.531 25.4678 15.7139 25.4366 15.5508C25.4259 15.4955 25.5161 15.1708 25.517 15.1292C25.523 14.8693 25.722 14.8251 25.722 14.3781C25.722 13.8595 25.5977 13.2897 25.722 13.0046C25.8464 12.7195 26.1516 12.8909 26.0299 12.6136C25.9082 12.3363 25.8686 12.1777 25.6395 12.1777C25.4105 12.1777 24.896 12.1777 24.896 12.1777Z" fill="#F7FCFF"/>
<path d="M20.9868 20.1457L21.0803 20.0213C22.4163 21.2658 23.6515 21.8859 24.7851 21.8859C25.9199 21.8859 27.3015 21.2277 28.9273 19.9077L29.0131 20.0387C27.3647 21.3771 25.9563 22.048 24.7851 22.048C23.6127 22.048 22.3469 21.4125 20.9868 20.1457Z" fill="#272727"/>
</g>
</g>
</svg>
