<svg width="20" height="15" viewBox="0 0 20 15" fill="none" xmlns="http://www.w3.org/2000/svg">
<mask id="mask0" mask-type="alpha" maskUnits="userSpaceOnUse" x="0" y="0" width="20" height="15">
<rect width="20" height="15" fill="white"/>
</mask>
<g mask="url(#mask0)">
<path fill-rule="evenodd" clip-rule="evenodd" d="M0 0V15H20V0H0Z" fill="#29C470"/>
<mask id="mask1" mask-type="alpha" maskUnits="userSpaceOnUse" x="0" y="0" width="20" height="15">
<path fill-rule="evenodd" clip-rule="evenodd" d="M0 0V15H20V0H0Z" fill="white"/>
</mask>
<g mask="url(#mask1)">
<rect x="1.25" y="-0.201904" width="6.25" height="16.4518" fill="#C51918"/>
<mask id="mask2" mask-type="alpha" maskUnits="userSpaceOnUse" x="1" y="-1" width="7" height="18">
<rect x="1.25" y="-0.201904" width="6.25" height="16.4518" fill="white"/>
</mask>
<g mask="url(#mask2)">
<path fill-rule="evenodd" clip-rule="evenodd" d="M1.6221 0.566016L1.28079 1.00459L1.25 0.974146L1.58114 0.548638V0.463222L1.58239 0.455287L1.62089 0.336735L1.59732 0.295436L1.40204 0.490695L1.77847 -0.0955613V0.104766L1.85071 0.169972L2.02326 -0.131817L1.85013 -0.422265L1.72518 -0.326241L1.77585 -0.224449L1.74101 -0.200256L1.45894 -0.672143L1.63864 -0.549269L1.6703 -0.595171L1.4981 -0.770577L1.57427 -0.854458L1.32258 -1.22178L1.355 -1.25L1.62897 -0.850154L1.5579 -0.771889L1.72598 -0.600682L1.64859 -0.488471L1.59705 -0.523711L1.69538 -0.359214L1.86113 -0.486594L2.07229 -0.132346L1.86055 0.237993L1.73751 0.126941V0.0469691L1.614 0.239322L1.66635 0.331059L1.6221 0.467314V0.566016ZM1.28079 4.1439L1.6221 3.70533V3.60662L1.66635 3.47037L1.614 3.37863L1.73751 3.18628V3.26625L1.86055 3.3773L2.07229 3.00696L1.86113 2.65272L1.69538 2.7801L1.59705 2.6156L1.64859 2.65084L1.72598 2.53863L1.5579 2.36742L1.62897 2.28916L1.355 1.88931L1.32258 1.91753L1.57427 2.28485L1.4981 2.36873L1.6703 2.54414L1.63864 2.59004L1.45894 2.46717L1.74101 2.93905L1.77585 2.91486L1.72518 2.81307L1.85013 2.71704L2.02326 3.00749L1.85071 3.30928L1.77847 3.24407V3.04375L1.40204 3.63L1.59732 3.43475L1.62089 3.47604L1.58239 3.5946L1.58114 3.60253V3.68795L1.25 4.11346L1.28079 4.1439ZM1.6221 6.56764L1.28079 7.00621L1.25 6.97577L1.58114 6.55026V6.46484L1.58239 6.45691L1.62089 6.33835L1.59732 6.29706L1.40204 6.49231L1.77847 5.90606V6.10639L1.85071 6.17159L2.02326 5.8698L1.85013 5.57935L1.72518 5.67538L1.77585 5.77717L1.74101 5.80136L1.45894 5.32948L1.63864 5.45235L1.6703 5.40645L1.4981 5.23104L1.57427 5.14716L1.32258 4.77984L1.355 4.75162L1.62897 5.15147L1.5579 5.22973L1.72598 5.40094L1.64859 5.51315L1.59705 5.47791L1.69538 5.64241L1.86113 5.51503L2.07229 5.86927L1.86055 6.23961L1.73751 6.12856V6.04859L1.614 6.24094L1.66635 6.33268L1.6221 6.46893V6.56764ZM1.28079 9.91469L1.6221 9.47611V9.37741L1.66635 9.24116L1.614 9.14942L1.73751 8.95707V9.03704L1.86055 9.14809L2.07229 8.77775L1.86113 8.4235L1.69538 8.55088L1.59705 8.38639L1.64859 8.42163L1.72598 8.30941L1.5579 8.13821L1.62897 8.05994L1.355 7.6601L1.32258 7.68832L1.57427 8.05564L1.4981 8.13952L1.6703 8.31493L1.63864 8.36083L1.45894 8.23795L1.74101 8.70984L1.77585 8.68565L1.72518 8.58386L1.85013 8.48783L2.02326 8.77828L1.85071 9.08007L1.77847 9.01486V8.81454L1.40204 9.40079L1.59732 9.20553L1.62089 9.24683L1.58239 9.36538L1.58114 9.37332V9.45873L1.25 9.88424L1.28079 9.91469ZM1.28079 12.5L1.6221 12.0614V11.9627L1.66635 11.8265L1.614 11.7347L1.73751 11.5424V11.6224L1.86055 11.7334L2.07229 11.3631L1.86113 11.0088L1.69538 11.1362L1.59705 10.9717L1.64859 11.0069L1.72598 10.8947L1.5579 10.7235L1.62897 10.6453L1.355 10.2454L1.32258 10.2736L1.57427 10.641L1.4981 10.7248L1.6703 10.9002L1.63864 10.9461L1.45894 10.8233L1.74101 11.2952L1.77585 11.271L1.72518 11.1692L1.85013 11.0731L2.02326 11.3636L1.85071 11.6654L1.77847 11.6002V11.3998L1.40204 11.9861L1.59732 11.7908L1.62089 11.8321L1.58239 11.9507L1.58114 11.9586V12.044L1.25 12.4696L1.28079 12.5ZM7.46921 12.5L7.1279 12.0614V11.9627L7.08365 11.8265L7.136 11.7347L7.01249 11.5424V11.6224L6.88945 11.7334L6.67771 11.3631L6.88887 11.0088L7.05462 11.1362L7.15295 10.9717L7.10141 11.0069L7.02402 10.8947L7.1921 10.7235L7.12103 10.6453L7.395 10.2454L7.42742 10.2736L7.17573 10.641L7.2519 10.7248L7.0797 10.9002L7.11136 10.9461L7.29106 10.8233L7.00899 11.2952L6.97415 11.271L7.02482 11.1692L6.89987 11.0731L6.72674 11.3636L6.89929 11.6654L6.97153 11.6002V11.3998L7.34796 11.9861L7.15268 11.7908L7.12911 11.8321L7.16761 11.9507L7.16886 11.9586V12.044L7.5 12.4696L7.46921 12.5ZM7.1279 9.47611L7.46921 9.91469L7.5 9.88424L7.16886 9.45873V9.37332L7.16761 9.36538L7.12911 9.24683L7.15268 9.20553L7.34796 9.40079L6.97153 8.81454V9.01486L6.89929 9.08007L6.72674 8.77828L6.89987 8.48783L7.02482 8.58386L6.97415 8.68565L7.00899 8.70984L7.29106 8.23795L7.11136 8.36083L7.0797 8.31493L7.2519 8.13952L7.17573 8.05564L7.42742 7.68832L7.395 7.6601L7.12103 8.05994L7.1921 8.13821L7.02402 8.30941L7.10141 8.42163L7.15295 8.38639L7.05462 8.55088L6.88887 8.4235L6.67771 8.77775L6.88945 9.14809L7.01249 9.03704V8.95707L7.136 9.14942L7.08365 9.24116L7.1279 9.37741V9.47611ZM7.46921 7.00621L7.1279 6.56764V6.46893L7.08365 6.33268L7.136 6.24094L7.01249 6.04859V6.12856L6.88945 6.23961L6.67771 5.86927L6.88887 5.51503L7.05462 5.64241L7.15295 5.47791L7.10141 5.51315L7.02402 5.40094L7.1921 5.22973L7.12103 5.15147L7.395 4.75162L7.42742 4.77984L7.17573 5.14716L7.2519 5.23104L7.0797 5.40645L7.11136 5.45235L7.29106 5.32948L7.00899 5.80136L6.97415 5.77717L7.02482 5.67538L6.89987 5.57935L6.72674 5.8698L6.89929 6.17159L6.97153 6.10639V5.90606L7.34796 6.49231L7.15268 6.29706L7.12911 6.33835L7.16761 6.45691L7.16886 6.46484V6.55026L7.5 6.97577L7.46921 7.00621ZM7.1279 3.70533L7.46921 4.1439L7.5 4.11346L7.16886 3.68795V3.60253L7.16761 3.5946L7.12911 3.47604L7.15268 3.43475L7.34796 3.63L6.97153 3.04375V3.24407L6.89929 3.30928L6.72674 3.00749L6.89987 2.71704L7.02482 2.81307L6.97415 2.91486L7.00899 2.93905L7.29106 2.46717L7.11136 2.59004L7.0797 2.54414L7.2519 2.36873L7.17573 2.28485L7.42742 1.91753L7.395 1.88931L7.12103 2.28916L7.1921 2.36742L7.02402 2.53863L7.10141 2.65084L7.15295 2.6156L7.05462 2.7801L6.88887 2.65272L6.67771 3.00696L6.88945 3.3773L7.01249 3.26625V3.18628L7.136 3.37863L7.08365 3.47037L7.1279 3.60662V3.70533ZM7.46921 1.00459L7.1279 0.566016V0.467314L7.08365 0.331059L7.136 0.239322L7.01249 0.0469691V0.126941L6.88945 0.237993L6.67771 -0.132346L6.88887 -0.486594L7.05462 -0.359214L7.15295 -0.523711L7.10141 -0.488471L7.02402 -0.600682L7.1921 -0.771889L7.12103 -0.850154L7.395 -1.25L7.42742 -1.22178L7.17573 -0.854458L7.2519 -0.770577L7.0797 -0.595171L7.11136 -0.549269L7.29106 -0.672143L7.00899 -0.200256L6.97415 -0.224449L7.02482 -0.326241L6.89987 -0.422265L6.72674 -0.131817L6.89929 0.169972L6.97153 0.104766V-0.0955613L7.34796 0.490695L7.15268 0.295436L7.12911 0.336735L7.16761 0.455287L7.16886 0.463222V0.548638L7.5 0.974146L7.46921 1.00459Z" fill="#E8AA00"/>
<path fill-rule="evenodd" clip-rule="evenodd" d="M4.56667 9.10289H5.53761V9.33076H5.75885V9.51305H6.02434V10.1055H5.75885V10.2878H5.53761V10.4701H4.59258L4.33113 10.7024L4.06843 10.4701H3.19248V10.2878H2.97124V10.1055H2.75V9.51305H2.97124V9.33076H3.19248V9.10289H4.09446L4.33113 8.89355L4.56667 9.10289Z" fill="#389F5D"/>
<path d="M5.53761 9.10289H5.78761V8.85289H5.53761V9.10289ZM4.56667 9.10289L4.4006 9.28976L4.47164 9.35289H4.56667V9.10289ZM5.53761 9.33076H5.28761V9.58076H5.53761V9.33076ZM5.75885 9.33076H6.00885V9.08076H5.75885V9.33076ZM5.75885 9.51305H5.50885V9.76305H5.75885V9.51305ZM6.02434 9.51305H6.27434V9.26305H6.02434V9.51305ZM6.02434 10.1055V10.3555H6.27434V10.1055H6.02434ZM5.75885 10.1055V9.85549H5.50885V10.1055H5.75885ZM5.75885 10.2878V10.5378H6.00885V10.2878H5.75885ZM5.53761 10.2878V10.0378H5.28761V10.2878H5.53761ZM5.53761 10.4701V10.7201H5.78761V10.4701H5.53761ZM4.59258 10.4701V10.2201H4.49754L4.4265 10.2832L4.59258 10.4701ZM4.33113 10.7024L4.16549 10.8897L4.33152 11.0366L4.4972 10.8893L4.33113 10.7024ZM4.06843 10.4701L4.23407 10.2828L4.16313 10.2201H4.06843V10.4701ZM3.19248 10.4701H2.94248V10.7201H3.19248V10.4701ZM3.19248 10.2878H3.44248V10.0378H3.19248V10.2878ZM2.97124 10.2878H2.72124V10.5378H2.97124V10.2878ZM2.97124 10.1055H3.22124V9.85549H2.97124V10.1055ZM2.75 10.1055H2.5V10.3555H2.75V10.1055ZM2.75 9.51305V9.26305H2.5V9.51305H2.75ZM2.97124 9.51305V9.76305H3.22124V9.51305H2.97124ZM2.97124 9.33076V9.08076H2.72124V9.33076H2.97124ZM3.19248 9.33076V9.58076H3.44248V9.33076H3.19248ZM3.19248 9.10289V8.85289H2.94248V9.10289H3.19248ZM4.09446 9.10289V9.35289H4.18916L4.2601 9.29015L4.09446 9.10289ZM4.33113 8.89355L4.4972 8.70669L4.33152 8.55944L4.16549 8.7063L4.33113 8.89355ZM5.53761 8.85289H4.56667V9.35289H5.53761V8.85289ZM5.78761 9.33076V9.10289H5.28761V9.33076H5.78761ZM5.75885 9.08076H5.53761V9.58076H5.75885V9.08076ZM6.00885 9.51305V9.33076H5.50885V9.51305H6.00885ZM6.02434 9.26305H5.75885V9.76305H6.02434V9.26305ZM6.27434 10.1055V9.51305H5.77434V10.1055H6.27434ZM5.75885 10.3555H6.02434V9.85549H5.75885V10.3555ZM6.00885 10.2878V10.1055H5.50885V10.2878H6.00885ZM5.53761 10.5378H5.75885V10.0378H5.53761V10.5378ZM5.78761 10.4701V10.2878H5.28761V10.4701H5.78761ZM4.59258 10.7201H5.53761V10.2201H4.59258V10.7201ZM4.4972 10.8893L4.75865 10.6569L4.4265 10.2832L4.16505 10.5156L4.4972 10.8893ZM3.9028 10.6573L4.16549 10.8897L4.49676 10.5152L4.23407 10.2828L3.9028 10.6573ZM3.19248 10.7201H4.06843V10.2201H3.19248V10.7201ZM2.94248 10.2878V10.4701H3.44248V10.2878H2.94248ZM2.97124 10.5378H3.19248V10.0378H2.97124V10.5378ZM2.72124 10.1055V10.2878H3.22124V10.1055H2.72124ZM2.75 10.3555H2.97124V9.85549H2.75V10.3555ZM2.5 9.51305V10.1055H3V9.51305H2.5ZM2.97124 9.26305H2.75V9.76305H2.97124V9.26305ZM2.72124 9.33076V9.51305H3.22124V9.33076H2.72124ZM3.19248 9.08076H2.97124V9.58076H3.19248V9.08076ZM2.94248 9.10289V9.33076H3.44248V9.10289H2.94248ZM4.09446 8.85289H3.19248V9.35289H4.09446V8.85289ZM4.2601 9.29015L4.49676 9.08081L4.16549 8.7063L3.92883 8.91563L4.2601 9.29015ZM4.16505 9.08042L4.4006 9.28976L4.73275 8.91602L4.4972 8.70669L4.16505 9.08042Z" fill="#E8AA00"/>
<path fill-rule="evenodd" clip-rule="evenodd" d="M3.32202 9.62965V9.22705H3.79113L3.32202 9.62965ZM5.29555 9.62965V9.22705H4.82645L5.29555 9.62965ZM3.32202 10.3588V9.95622L3.79113 10.3588H3.32202ZM5.29555 9.95622V10.3588H4.82645L5.29555 9.95622Z" fill="#C51918"/>
<path fill-rule="evenodd" clip-rule="evenodd" d="M4.1532 9.26162L4.31513 9.04956L4.47502 9.26162H4.1532ZM4.1532 9.45972L4.31513 9.67177L4.47502 9.45972H4.1532ZM4.31513 9.96102L4.1532 10.1731H4.47502L4.31513 9.96102ZM4.1532 10.3712L4.31513 10.5832L4.47502 10.3712H4.1532Z" fill="#E8AA00"/>
<path fill-rule="evenodd" clip-rule="evenodd" d="M4.15657 9.23657V9.32772H4.0636V9.45272H4.15657V9.54386H4.48099V9.45272H4.57396V9.32772H4.48099V9.23657H4.15657ZM4.48099 10.2392V10.148H4.15657V10.2392H4.0636V10.3642H4.15657V10.4553H4.48099V10.3642H4.57396V10.2392H4.48099Z" fill="#AF0100"/>
<path fill-rule="evenodd" clip-rule="evenodd" d="M3.53375 9.71838L3.68789 9.50537L3.84009 9.71838H3.53375ZM3.53375 9.91736L3.68789 10.1304L3.84009 9.91736H3.53375ZM4.97108 9.50537L4.81694 9.71838H5.12328L4.97108 9.50537ZM4.81694 9.91736L4.97108 10.1304L5.12328 9.91736H4.81694Z" fill="#AF0100"/>
<path fill-rule="evenodd" clip-rule="evenodd" d="M3.53259 9.69214V9.78511H3.44409V9.91261H3.53259V10.0056H3.8414V9.91261H3.9299V9.78511H3.8414V9.69214H3.53259ZM5.12459 9.78511V9.69214H4.81577V9.78511H4.72728V9.91261H4.81577V10.0056H5.12459V9.91261H5.21309V9.78511H5.12459Z" fill="#E8AA00"/>
<mask id="mask3" mask-type="alpha" maskUnits="userSpaceOnUse" x="2" y="10" width="5" height="4">
<path fill-rule="evenodd" clip-rule="evenodd" d="M3.88561 10.7817L2.77838 11.4061V12.4408L3.88561 13.0904H5.08485L6.21842 12.4408V11.4061L5.08485 10.7817H3.88561Z" fill="white"/>
</mask>
<g mask="url(#mask3)">
<path d="M2.79425 11.9348H4.51991V13.0741H2.79425V11.9348Z" fill="#E8AA00"/>
<rect x="2.61725" y="10.7954" width="1.90265" height="1.13932" fill="#F9E8E7"/>
<path d="M3.05975 11.4594L3.63258 11.1145V11.4594H3.05975Z" fill="#E8AA00"/>
<rect width="1.90265" height="1.13932" transform="matrix(-1 0 0 1 6.42255 10.7954)" fill="#E8AA00"/>
<path d="M5.84735 11.4594L5.27453 11.1145V11.4594H5.84735Z" fill="#F9E8E7"/>
<rect x="6.24554" y="13.0742" width="1.72566" height="1.13932" transform="rotate(-180 6.24554 13.0742)" fill="#F9E8E7"/>
<path d="M5.80304 12.4102L5.23022 12.7551V12.4102H5.80304Z" fill="#E8AA00"/>
<path d="M3.05969 12.3382L3.63252 12.6831V12.3382H3.05969Z" fill="#FCFCFC"/>
</g>
<path fill-rule="evenodd" clip-rule="evenodd" d="M3.90039 11.4791H4.188L4.47561 11.3879L4.76322 11.4791H5.05083V12.345H4.76322L4.47561 12.4817L4.188 12.345H3.90039V11.4791Z" fill="#C51918"/>
<path fill-rule="evenodd" clip-rule="evenodd" d="M4.87386 10.9609H5.03011V11.1373H5.09413V11.2623H5.03011V11.3295H4.87386V10.9609ZM3.30444 11.5078H3.14819V11.8764H3.30444V11.8091H3.36847V11.6841H3.30444V11.5078ZM3.52568 11.5078H3.36943V11.8764H3.52568V11.5078ZM3.30444 11.9635H3.14819V12.3321H3.30444V12.2649H3.36847V12.1399H3.30444V11.9635ZM3.36943 11.9635H3.52568V12.3321H3.36943V11.9635ZM5.58182 11.5078H5.73807V11.6841H5.8021V11.8091H5.73807V11.8764H5.58182V11.5078ZM5.95931 11.5078H5.80306V11.8764H5.95931V11.5078ZM5.73807 11.9635H5.58182V12.3321H5.73807V12.2649H5.8021V12.1399H5.73807V11.9635ZM5.80306 11.9635H5.95931V12.3321H5.80306V11.9635ZM5.25135 10.9609H5.0951V11.3295H5.25135V10.9609ZM3.96816 10.9609H3.81191V11.3295H3.96816V11.2623H4.03219V11.1373H3.96816V10.9609ZM4.03315 10.9609H4.1894V11.3295H4.03315V10.9609ZM4.87386 12.5104H5.03011V12.6867H5.09413V12.8117H5.03011V12.879H4.87386V12.5104ZM5.25135 12.5104H5.0951V12.879H5.25135V12.5104ZM3.96816 12.5104H3.81191V12.879H3.96816V12.8117H4.03219V12.6867H3.96816V12.5104ZM4.03315 12.5104H4.1894V12.879H4.03315V12.5104Z" fill="#C9343F"/>
<path fill-rule="evenodd" clip-rule="evenodd" d="M4.39069 11.6664H4.43494V11.5425H4.21386V11.6842H4.03168V11.8872H4.20108V11.8416H4.07593V11.7297H4.22618L4.45235 11.9254L4.22618 12.1212H4.07593V12.0093H4.20108V11.9637H4.03168V12.1667H4.21386V12.3084H4.43494V12.1845H4.39069V12.2628H4.25811V12.1531L4.48811 11.954L4.71811 12.1531V12.2628H4.58552V12.1845H4.54128V12.3084H4.76235V12.1667H4.94454V11.9637H4.77513V12.0093H4.90029V12.1212H4.75003L4.52386 11.9254L4.75003 11.7297H4.90029V11.8416H4.77513V11.8872H4.94454V11.6842H4.76235V11.5425H4.54128V11.6664H4.58552V11.5881H4.71811V11.6978L4.48811 11.8969L4.25811 11.6978V11.5881H4.39069V11.6664Z" fill="white"/>
<path fill-rule="evenodd" clip-rule="evenodd" d="M4.74025 3H3.96103V5.5H4.74025V3ZM2.987 3.52885H3.47401V4.875H2.987V3.52885ZM5.27596 3.52885H5.76297V4.875H5.27596V3.52885Z" fill="#E8AA00"/>
<path fill-rule="evenodd" clip-rule="evenodd" d="M3.96104 3.19238H3.47403V5.11546H3.96104V3.19238ZM2.98701 3.72123H2.5V4.63469H2.98701V3.72123ZM5.76299 3.72123H6.25V4.63469H5.76299V3.72123ZM5.22727 3.19238H4.74026V5.11546H5.22727V3.19238Z" fill="#389F5D"/>
<path fill-rule="evenodd" clip-rule="evenodd" d="M3.86365 3.4328C3.86365 3.51246 3.79823 3.57704 3.71754 3.57704C3.63685 3.57704 3.57144 3.51246 3.57144 3.4328C3.57144 3.35315 3.63685 3.28857 3.71754 3.28857C3.79823 3.28857 3.86365 3.35315 3.86365 3.4328ZM2.88962 3.91357C2.88962 3.99323 2.82421 4.0578 2.74352 4.0578C2.66283 4.0578 2.59741 3.99323 2.59741 3.91357C2.59741 3.83392 2.66283 3.76934 2.74352 3.76934C2.82421 3.76934 2.88962 3.83392 2.88962 3.91357ZM2.88962 4.44242C2.88962 4.52208 2.82421 4.58665 2.74352 4.58665C2.66283 4.58665 2.59741 4.52208 2.59741 4.44242C2.59741 4.36276 2.66283 4.29819 2.74352 4.29819C2.82421 4.29819 2.88962 4.36276 2.88962 4.44242ZM3.71754 5.01934C3.79823 5.01934 3.86365 4.95477 3.86365 4.87511C3.86365 4.79546 3.79823 4.73088 3.71754 4.73088C3.63685 4.73088 3.57144 4.79546 3.57144 4.87511C3.57144 4.95477 3.63685 5.01934 3.71754 5.01934ZM6.0065 4.0578C6.08719 4.0578 6.15261 3.99323 6.15261 3.91357C6.15261 3.83392 6.08719 3.76934 6.0065 3.76934C5.92581 3.76934 5.8604 3.83392 5.8604 3.91357C5.8604 3.99323 5.92581 4.0578 6.0065 4.0578ZM6.15261 4.44242C6.15261 4.52208 6.08719 4.58665 6.0065 4.58665C5.92581 4.58665 5.8604 4.52208 5.8604 4.44242C5.8604 4.36276 5.92581 4.29819 6.0065 4.29819C6.08719 4.29819 6.15261 4.36276 6.15261 4.44242ZM4.98378 5.01934C5.06447 5.01934 5.12988 4.95477 5.12988 4.87511C5.12988 4.79546 5.06447 4.73088 4.98378 4.73088C4.90308 4.73088 4.83767 4.79546 4.83767 4.87511C4.83767 4.95477 4.90308 5.01934 4.98378 5.01934ZM5.12988 3.4328C5.12988 3.51246 5.06447 3.57704 4.98378 3.57704C4.90308 3.57704 4.83767 3.51246 4.83767 3.4328C4.83767 3.35315 4.90308 3.28857 4.98378 3.28857C5.06447 3.28857 5.12988 3.35315 5.12988 3.4328Z" fill="#E1E5E8"/>
<path fill-rule="evenodd" clip-rule="evenodd" d="M4.49675 3.24042C4.49675 3.32008 4.43134 3.38465 4.35065 3.38465C4.26995 3.38465 4.20454 3.32008 4.20454 3.24042C4.20454 3.16077 4.26995 3.09619 4.35065 3.09619C4.43134 3.09619 4.49675 3.16077 4.49675 3.24042ZM3.37662 3.76927C3.37662 3.84892 3.31121 3.9135 3.23052 3.9135C3.14982 3.9135 3.08441 3.84892 3.08441 3.76927C3.08441 3.68961 3.14982 3.62504 3.23052 3.62504C3.31121 3.62504 3.37662 3.68961 3.37662 3.76927ZM4.35065 5.45196C4.43134 5.45196 4.49675 5.38739 4.49675 5.30773C4.49675 5.22807 4.43134 5.1635 4.35065 5.1635C4.26995 5.1635 4.20454 5.22807 4.20454 5.30773C4.20454 5.38739 4.26995 5.45196 4.35065 5.45196ZM5.66558 3.76927C5.66558 3.84892 5.60017 3.9135 5.51948 3.9135C5.43879 3.9135 5.37337 3.84892 5.37337 3.76927C5.37337 3.68961 5.43879 3.62504 5.51948 3.62504C5.60017 3.62504 5.66558 3.68961 5.66558 3.76927ZM3.23052 4.77888C3.31121 4.77888 3.37662 4.71431 3.37662 4.63465C3.37662 4.555 3.31121 4.49042 3.23052 4.49042C3.14982 4.49042 3.08441 4.555 3.08441 4.63465C3.08441 4.71431 3.14982 4.77888 3.23052 4.77888ZM5.66558 4.63465C5.66558 4.71431 5.60017 4.77888 5.51948 4.77888C5.43879 4.77888 5.37337 4.71431 5.37337 4.63465C5.37337 4.555 5.43879 4.49042 5.51948 4.49042C5.60017 4.49042 5.66558 4.555 5.66558 4.63465Z" fill="#C51918"/>
<path fill-rule="evenodd" clip-rule="evenodd" d="M3.5041 3.99458L3.9782 3.56641H4.748L5.28828 4.05763H6.00651V4.24994H5.30775V4.25998L4.748 4.82927H3.9782L3.5041 4.31546V4.24994H2.69482V4.05763H3.5041V3.99458Z" fill="#C51918"/>
<path fill-rule="evenodd" clip-rule="evenodd" d="M4.38192 3.92273L4.61215 4.15606L4.37045 4.38501L4.12875 4.15606L4.35898 3.92273L4.37045 3.91215L4.38192 3.92273ZM4.42384 4.48609L4.45081 4.46113L4.42321 4.43498L4.66313 4.20772L4.91337 4.46132L4.80075 4.58009H4.73398L4.60977 4.65823L4.42384 4.48609ZM4.37045 4.53552L4.13972 4.74915L3.98563 4.65221H3.90847L3.72653 4.46033L4.02507 4.15779L3.72461 3.87318L3.92176 3.68187L3.99321 3.738L4.0966 3.63357L4.06552 3.60208L4.11785 3.55176L4.37045 3.80776L4.62306 3.55176L4.67538 3.60208L4.64431 3.63357L4.74769 3.738L4.81914 3.68187L5.01629 3.87318L4.71584 4.15779L5.01437 4.46033L4.83243 4.65221H4.75527L4.60118 4.74915L4.37045 4.53552ZM4.49921 3.93824L4.50224 3.93504L4.43306 3.8712L4.42437 3.8624L4.60432 3.69636L4.74156 3.83498L4.81404 3.77804L4.91144 3.87255L4.66486 4.10613L4.49921 3.93824ZM4.34466 4.46053L4.13113 4.65823L4.00693 4.58009H3.94015L3.82754 4.46132L4.07778 4.20772L4.34466 4.46053ZM3.82946 3.87255L4.07604 4.10613L4.31653 3.8624L4.13658 3.69636L3.99934 3.83498L3.92686 3.77804L3.82946 3.87255Z" fill="#E8AA00"/>
<path fill-rule="evenodd" clip-rule="evenodd" d="M2.78022 13.401L2.78022 13.401C2.64958 13.2352 2.56141 13.1233 2.53819 13.125C2.46527 13.1304 2.39689 13.9024 3.34465 14.4897C3.34465 14.4897 3.48455 14.5675 3.56603 14.4897C3.64751 14.4119 3.56603 14.2975 3.56603 14.2975C3.25967 14.0096 2.97348 13.6463 2.78022 13.401ZM5.96978 13.401L5.96978 13.401L5.96979 13.401C6.10042 13.2352 6.18859 13.1233 6.21181 13.125C6.28473 13.1304 6.35311 13.9024 5.40535 14.4897C5.40535 14.4897 5.26545 14.5675 5.18397 14.4897C5.10249 14.4119 5.18397 14.2975 5.18397 14.2975C5.49033 14.0096 5.77652 13.6463 5.96977 13.401L5.96978 13.401ZM5.90044 14.4398C5.58901 14.5318 5.22831 14.5511 5.09038 14.4916C5.04639 14.4726 4.99968 14.4577 4.9506 14.4466C4.81339 14.4154 4.67965 14.4152 4.52095 14.4326L4.46229 14.4393L4.4583 14.4398C4.44336 14.4415 4.43473 14.4422 4.43308 14.4422C4.42378 14.4422 4.41358 14.4436 4.4024 14.4462C4.39122 14.4436 4.38102 14.4422 4.37172 14.4422C4.37007 14.4422 4.36144 14.4415 4.3465 14.4398C4.34628 14.4398 4.34484 14.4396 4.34252 14.4393C4.33093 14.438 4.2974 14.434 4.28386 14.4326C4.12515 14.4152 3.99141 14.4154 3.8542 14.4466C3.80512 14.4577 3.75841 14.4726 3.71442 14.4916C3.57649 14.5511 3.2158 14.5318 2.90436 14.4398C2.90436 14.4398 3.47109 14.6674 3.80768 14.5666C3.84032 14.5525 3.87474 14.5415 3.91096 14.5333C4.00678 14.5115 4.10491 14.5096 4.22296 14.5206C4.17331 14.5437 4.11559 14.5702 4.04844 14.5974V14.625C4.18099 14.5712 4.33633 14.5458 4.4024 14.5379C4.46848 14.5458 4.62381 14.5712 4.75636 14.625V14.5974C4.68922 14.5702 4.63149 14.5437 4.58184 14.5206C4.69989 14.5096 4.79803 14.5115 4.89384 14.5333C4.93006 14.5415 4.96449 14.5525 4.99713 14.5666C5.33371 14.6674 5.90044 14.4398 5.90044 14.4398Z" fill="#E8AA00"/>
<path fill-rule="evenodd" clip-rule="evenodd" d="M3.60252 6.23584L2.82007 6.92538V7.58211L3.50412 8.26948H4.90085L5.67096 7.53606V6.97694L4.90085 6.23584H3.60252Z" fill="#389F5D"/>
<path fill-rule="evenodd" clip-rule="evenodd" d="M3.87169 6.30884H3.6947V6.44556H3.87169V6.30884ZM3.87169 8.09636H3.6947V8.23307H3.87169V8.09636ZM4.13718 8.09636H4.31417V8.23307H4.13718V8.09636ZM4.31417 6.30884H4.13718V6.44556H4.31417V6.30884ZM4.57966 8.09636H4.75665V8.23307H4.57966V8.09636ZM4.75665 6.30884H4.57966V6.44556H4.75665V6.30884Z" fill="#C51918"/>
<path fill-rule="evenodd" clip-rule="evenodd" d="M4.09612 6.27344H3.91595V6.41016H4.09612V6.27344ZM4.09612 8.09635H3.91595V8.23307H4.09612V8.09635ZM4.36637 6.27344H4.54653V6.41016H4.36637V6.27344ZM4.54653 8.09635H4.36637V8.23307H4.54653V8.09635Z" fill="#E8AA00"/>
<path fill-rule="evenodd" clip-rule="evenodd" d="M3.07107 6.15112H5.43359V6.5162H5.77187V8.02546H5.43359V8.33744H3.07107V8.02546H2.70374V6.5162H3.07107V6.15112ZM3.20381 6.65292H2.83648V7.88874H3.20381V8.20072H5.30084V7.88874H5.63913V6.65292H5.30084V6.28784H3.20381V6.65292Z" fill="#750100"/>
<path fill-rule="evenodd" clip-rule="evenodd" d="M4.00444 6H3.7832V6.22786H4.00444V6ZM4.35842 6H4.13719V6.22786H4.35842V6ZM4.49117 6H4.71241V6.22786H4.49117V6ZM4.00444 8.27865H3.7832V8.50651H4.00444V8.27865ZM4.13719 8.27865H4.35842V8.50651H4.13719V8.27865ZM4.71241 8.27865H4.49117V8.50651H4.71241V8.27865ZM2.4967 7.77403V7.55279H2.72457V7.77403H2.4967ZM2.4967 7.18821V7.40945H2.72457V7.18821H2.4967ZM2.4967 7.04486V6.82363H2.72457V7.04486H2.4967ZM5.68254 7.55279V7.77403H5.91041V7.55279H5.68254ZM5.68254 7.40945V7.18821H5.91041V7.40945H5.68254ZM5.68254 6.82363V7.04486H5.91041V6.82363H5.68254Z" fill="#389F5D"/>
<path fill-rule="evenodd" clip-rule="evenodd" d="M3.6115 6.42798L3.22992 6.75987V7.83378L3.5466 8.05787H4.91949L5.23571 7.83378V6.75987L4.87883 6.42798H3.6115Z" fill="#C51918"/>
<path fill-rule="evenodd" clip-rule="evenodd" d="M4.25206 6.87305L3.79163 7.26644H4.25206V6.87305Z" fill="#E1E5E8"/>
<path d="M4.25206 7.62329L3.79163 7.22989H4.25206V7.62329Z" fill="#E8AA00"/>
<path fill-rule="evenodd" clip-rule="evenodd" d="M4.21193 6.87305L4.67236 7.26644H4.21193V6.87305Z" fill="#E8AA00"/>
<path fill-rule="evenodd" clip-rule="evenodd" d="M4.23241 7.37266C4.30943 7.37266 4.37186 7.31022 4.37186 7.2332C4.37186 7.15619 4.30943 7.09375 4.23241 7.09375C4.15539 7.09375 4.09296 7.15619 4.09296 7.2332C4.09296 7.31022 4.15539 7.37266 4.23241 7.37266Z" fill="#29AE66"/>
<path d="M4.21193 7.62329L4.67236 7.22989H4.21193V7.62329Z" fill="#E1E5E8"/>
<path fill-rule="evenodd" clip-rule="evenodd" d="M3.25223 7.09375H2.854V7.22125H3.25223V7.09375ZM3.25223 7.32617H2.854V7.45367H3.25223V7.32617ZM5.24338 7.09375H5.64161V7.22125H5.24338V7.09375ZM5.64161 7.32617H5.24338V7.45367H5.64161V7.32617Z" fill="#C51918"/>
<path fill-rule="evenodd" clip-rule="evenodd" d="M3.20799 6.95703H2.854V7.09648H3.20799V6.95703ZM3.20799 7.18945H2.854V7.32891H3.20799V7.18945ZM2.854 7.42188H3.20799V7.56133H2.854V7.42188ZM5.59737 6.95703H5.24338V7.09648H5.59737V6.95703ZM5.24338 7.18945H5.59737V7.32891H5.24338V7.18945ZM5.59737 7.42188H5.24338V7.56133H5.59737V7.42188Z" fill="#E8AA00"/>
<path fill-rule="evenodd" clip-rule="evenodd" d="M6.24062 0.993963L6.23927 1.2472H4.38995L4.38862 2.3972H3.80875C3.70752 2.3972 3.42999 2.20283 3.42999 2.20283H2.95914L2.74178 1.98076V1.75763L2.50848 1.48063L2.50983 1.22739H4.35916L4.36048 0.0773926H4.94035C5.04158 0.0773926 5.31911 0.271764 5.31911 0.271764H5.78996L6.00733 0.493829V0.716959L6.24062 0.993963Z" fill="#E8AA00"/>
<path fill-rule="evenodd" clip-rule="evenodd" d="M2.50847 0.993963L2.50981 1.2472H4.35914L4.36046 2.3972H4.94034C5.04156 2.3972 5.3191 2.20283 5.3191 2.20283H5.78994L6.00731 1.98076V1.75763L6.2406 1.48063L6.23926 1.22739H4.38993L4.38861 0.0773926H3.80873C3.70751 0.0773926 3.42997 0.271764 3.42997 0.271764H2.95913L2.74176 0.493829V0.716959L2.50847 0.993963Z" fill="#E1E5E8"/>
<path fill-rule="evenodd" clip-rule="evenodd" d="M3.75138 0.428315L3.73113 0.330506L4.13004 0.238773C4.17793 0.215649 4.26104 0.149773 4.37551 0.0427246L4.42914 0.103084L4.43835 0.0927246C4.55282 0.199773 4.63593 0.265649 4.68382 0.288773L5.08273 0.380506L5.06248 0.478314L4.84126 0.432616L4.86242 0.451541C4.84722 0.460649 4.83068 0.473926 4.81296 0.491292L4.71957 0.477539L4.72825 0.445954L4.7048 0.442135C4.68762 0.474541 4.66797 0.520905 4.64699 0.580399L4.55358 0.552896L4.5914 0.371718L4.38028 0.173704L4.23237 0.312431C4.25077 0.329112 4.26912 0.34826 4.28749 0.369923C4.2718 0.375894 4.2568 0.381163 4.24248 0.385733L4.23614 0.387244L4.26029 0.502896L4.16688 0.530399C4.15468 0.495832 4.14294 0.465698 4.13188 0.440158L4.12418 0.441292C4.10646 0.423926 4.08992 0.410649 4.07472 0.401541L4.10116 0.377901C4.09682 0.370484 4.09267 0.364055 4.08872 0.358631L3.75138 0.428315ZM3.7678 0.786438L3.82106 0.702711L3.54555 0.517985L3.57619 0.47514L3.49767 0.415958L3.46387 0.463223L3.35454 0.389914L3.30128 0.47364L3.40614 0.543951L3.38454 0.574153L3.46306 0.633335L3.48782 0.598713L3.7678 0.786438ZM3.42689 0.886438L3.48015 0.802711L3.20464 0.617985L3.23528 0.57514L3.15677 0.515958L3.12296 0.563223L3.01363 0.489914L2.96037 0.57364L3.06523 0.643951L3.04363 0.674153L3.12215 0.733335L3.14691 0.698713L3.42689 0.886438ZM3.28078 1.18644L3.33404 1.10271L3.05854 0.917985L3.08917 0.87514L3.01066 0.815958L2.97686 0.863223L2.86752 0.789914L2.81427 0.87364L2.91913 0.943951L2.89753 0.974153L2.97604 1.03334L3.0008 0.998713L3.28078 1.18644ZM3.28534 1.42645L3.23208 1.34272L2.9521 1.53045L2.92734 1.49583L2.84883 1.55501L2.87043 1.58521L2.76556 1.65552L2.81882 1.73925L2.92816 1.66594L2.96196 1.7132L3.04047 1.65402L3.00983 1.61118L3.28534 1.42645ZM3.37819 1.64272L3.43145 1.72645L3.15594 1.91118L3.18658 1.95402L3.10806 2.0132L3.07426 1.96594L2.96493 2.03925L2.91167 1.95552L3.01653 1.88521L2.99493 1.85501L3.07345 1.79583L3.09821 1.83045L3.37819 1.64272ZM3.7191 1.74272L3.77236 1.82645L3.49685 2.01118L3.52749 2.05402L3.44897 2.1132L3.41517 2.06594L3.30584 2.13925L3.25258 2.05552L3.35744 1.98521L3.33584 1.95501L3.41436 1.89583L3.43912 1.93045L3.7191 1.74272ZM4.23879 2.22063C4.2231 2.21466 4.2081 2.20939 4.19378 2.20482L4.17524 2.2004L4.21159 2.02627L4.11818 1.99876C4.08834 2.08336 4.0612 2.14141 4.04002 2.17053L3.70268 2.10085L3.68243 2.19866L4.06692 2.28707L4.06681 2.28744L4.12242 2.32437L4.12974 2.31981C4.1782 2.35361 4.24438 2.40935 4.32681 2.48644L4.35823 2.45108L4.38965 2.48644C4.50412 2.37939 4.58723 2.31351 4.63512 2.29039L4.64806 2.28741C4.66487 2.30176 4.68174 2.31407 4.69875 2.32437L4.75436 2.28744L4.74874 2.26838L4.75494 2.26284L5.03403 2.19866L5.01378 2.10085L4.67644 2.17053C4.65526 2.14141 4.62813 2.08336 4.59829 1.99876L4.50487 2.02627L4.5427 2.20744L4.35823 2.38046L4.21558 2.24667C4.22332 2.23843 4.23105 2.22975 4.23879 2.22063ZM5.43112 1.42645L5.48438 1.34272L5.76436 1.53045L5.78912 1.49583L5.86763 1.55501L5.84603 1.58521L5.9509 1.65552L5.89764 1.73925L5.7883 1.66594L5.7545 1.7132L5.67599 1.65402L5.70663 1.61118L5.43112 1.42645ZM5.28502 1.72645L5.33827 1.64272L5.61826 1.83045L5.64301 1.79583L5.72153 1.85501L5.69993 1.88521L5.80479 1.95552L5.75153 2.03925L5.6422 1.96594L5.6084 2.0132L5.52988 1.95402L5.56052 1.91118L5.28502 1.72645ZM4.94411 1.82645L4.99737 1.74272L5.27735 1.93045L5.30211 1.89583L5.38062 1.95501L5.35902 1.98521L5.46388 2.05552L5.41063 2.13925L5.30129 2.06594L5.26749 2.1132L5.18898 2.05402L5.21961 2.01118L4.94411 1.82645ZM5.47982 1.15271L5.53308 1.23644L5.81306 1.04871L5.83782 1.08334L5.91633 1.02415L5.89473 0.993951L5.9996 0.92364L5.94634 0.839914L5.837 0.913223L5.8032 0.865958L5.72469 0.92514L5.75533 0.967985L5.47982 1.15271ZM5.33372 0.852711L5.38698 0.936438L5.66696 0.748713L5.69172 0.783335L5.77023 0.724153L5.74863 0.693951L5.8535 0.62364L5.80024 0.539914L5.6909 0.613223L5.6571 0.565958L5.57859 0.62514L5.60923 0.667985L5.33372 0.852711ZM4.99281 0.752711L5.04607 0.836438L5.32605 0.648713L5.35081 0.683335L5.42932 0.624153L5.40772 0.593951L5.51259 0.52364L5.45933 0.439914L5.34999 0.513223L5.31619 0.465958L5.23768 0.52514L5.26832 0.567985L4.99281 0.752711Z" fill="#C51918"/>
<path fill-rule="evenodd" clip-rule="evenodd" d="M3.87973 0.720484L4.43131 0.427979V1.22798H5.79495L5.47002 1.462V1.76817H4.95575L4.40416 2.06068V1.26068H3.04053L3.36545 1.02666V0.720484H3.87973Z" fill="#C51918"/>
<path fill-rule="evenodd" clip-rule="evenodd" d="M4.95578 0.720484L4.4042 0.427979V1.22798H3.04056L3.36549 1.462V1.76817H3.87976L4.43135 2.06068V1.26068H5.79498L5.47006 1.02666V0.720484H4.95578Z" fill="#29AE66"/>
<path fill-rule="evenodd" clip-rule="evenodd" d="M3.61182 0.927862L3.70182 0.750488L3.93078 0.87295L3.99386 0.779099L4.1542 0.89269L4.10488 0.966067L4.78257 1.32853L4.82435 1.26637L4.98469 1.37997L4.95667 1.42165L5.02987 1.46081L4.93987 1.63818L4.84517 1.58753L4.76831 1.70189L4.60797 1.5883L4.67108 1.49442L3.99339 1.13195L3.93782 1.21462L3.77748 1.10103L3.81929 1.03883L3.61182 0.927862Z" fill="#29AE66"/>
<path fill-rule="evenodd" clip-rule="evenodd" d="M5.05601 0.87909L4.95385 0.708427L4.73399 0.846562L4.66452 0.757339L4.5125 0.881838L4.56682 0.951596L3.91606 1.36045L3.87005 1.30136L3.71802 1.42586L3.74888 1.46549L3.67859 1.50966L3.78075 1.68032L3.87168 1.62319L3.95633 1.73191L4.10835 1.60741L4.03885 1.51815L4.68961 1.1093L4.75081 1.18789L4.90283 1.06339L4.85679 1.00426L5.05601 0.87909Z" fill="#C51918"/>
</g>
<path fill-rule="evenodd" clip-rule="evenodd" d="M11.9209 1.25C11.9209 1.25 13.3772 4.701 12.0833 6.16657C10.7894 7.63215 7.5 7.34959 7.5 7.34959C7.5 7.34959 11.7228 9.25687 13.5626 6.63066C15.4024 4.00446 11.9209 1.25 11.9209 1.25Z" fill="#F7FCFF"/>
<path fill-rule="evenodd" clip-rule="evenodd" d="M9.27765 3.28019L8.89231 3.55142L9.02825 3.09691L8.65416 2.81002L9.12352 2.80034L9.27765 2.35181L9.43179 2.80034L9.90115 2.81002L9.52705 3.09691L9.66299 3.55142L9.27765 3.28019ZM9.35219 4.53353L8.96685 4.80476L9.1028 4.35024L8.7287 4.06335L9.19806 4.05368L9.35219 3.60514L9.50633 4.05368L9.97569 4.06335L9.60159 4.35024L9.73754 4.80476L9.35219 4.53353ZM7.79541 4.90156L8.18075 4.63032L8.56609 4.90156L8.43015 4.44704L8.80424 4.16015L8.33488 4.15048L8.18075 3.70194L8.02661 4.15048L7.55725 4.16015L7.93135 4.44704L7.79541 4.90156ZM9.35219 5.84819L8.96685 6.11942L9.1028 5.66491L8.7287 5.37802L9.19806 5.36835L9.35219 4.91981L9.50633 5.36835L9.97569 5.37802L9.60159 5.66491L9.73754 6.11942L9.35219 5.84819ZM10.2404 4.42171L10.6257 4.15048L11.011 4.42171L10.8751 3.96719L11.2492 3.68031L10.7798 3.67063L10.6257 3.22209L10.4716 3.67063L10.0022 3.68031L10.3763 3.96719L10.2404 4.42171Z" fill="#F7FCFF"/>
</g>
</g>
</svg>
