<svg width="20" height="15" viewBox="0 0 20 15" fill="none" xmlns="http://www.w3.org/2000/svg">
<mask id="mask0" mask-type="alpha" maskUnits="userSpaceOnUse" x="0" y="0" width="20" height="15">
<rect width="20" height="15" fill="white"/>
</mask>
<g mask="url(#mask0)">
<path fill-rule="evenodd" clip-rule="evenodd" d="M5 0H20V15H5V0Z" fill="#EF0000"/>
<path fill-rule="evenodd" clip-rule="evenodd" d="M0 0H7.5V15H0V0Z" fill="#2F8D00"/>
<mask id="mask1" mask-type="alpha" maskUnits="userSpaceOnUse" x="2" y="2" width="11" height="11">
<path fill-rule="evenodd" clip-rule="evenodd" d="M7.44045 12.3794C4.77765 12.3794 2.61902 10.1948 2.61902 7.49988C2.61902 4.805 4.77765 2.62036 7.44045 2.62036C10.1032 2.62036 12.2619 4.805 12.2619 7.49988C12.2619 10.1948 10.1032 12.3794 7.44045 12.3794Z" fill="white"/>
</mask>
<g mask="url(#mask1)">
<path fill-rule="evenodd" clip-rule="evenodd" d="M7.14282 2.5H7.76782V4.18675H7.14282V2.5Z" fill="#FFE017"/>
<path fill-rule="evenodd" clip-rule="evenodd" d="M7.14282 10.9336H7.76782V12.4999H7.14282V10.9336Z" fill="#FFE017"/>
<path d="M2.69653 7.75227L2.52179 7.30396C4.45003 6.53416 5.90538 6.03772 6.89287 5.81399C8.3417 5.48573 9.93362 5.24286 11.6687 5.08521L11.7113 5.5652C9.99611 5.72105 8.4246 5.9608 6.9969 6.28427C6.03881 6.50135 4.60367 6.99089 2.69653 7.75227Z" fill="#FFE017"/>
<path d="M11.963 4.78993L11.8212 5.25C10.3639 4.78993 9.17676 4.59216 8.26424 4.65342L8.23273 4.17255C9.21247 4.10678 10.4544 4.31367 11.963 4.78993Z" fill="#FFE017"/>
<path d="M12.4673 7.36233L12.1979 7.75973C11.455 7.24394 10.5397 6.98486 9.4458 6.98486V6.50293C10.6317 6.50293 11.6409 6.78861 12.4673 7.36233Z" fill="#FFE017"/>
<path d="M12.0637 7.50659L12.1868 7.97213C10.5852 8.40597 9.08148 8.65211 7.67558 8.71007C6.25998 8.76843 4.61007 8.52141 2.72443 7.97089L2.85642 7.50784C4.69623 8.04499 6.29663 8.28459 7.6562 8.22854C9.02546 8.17209 10.4947 7.9316 12.0637 7.50659Z" fill="#FFE017"/>
<path d="M11.8823 9.77221L11.1296 10.5439C9.69914 9.11478 8.43981 8.09293 7.35933 7.47895C6.26039 6.85447 4.82727 6.22037 3.06219 5.57918L3.42416 4.55859C5.24129 5.21869 6.72713 5.87612 7.88389 6.53345C9.05912 7.20128 10.3893 8.28065 11.8823 9.77221Z" fill="#FFE017"/>
<path d="M3.41144 10.2094L3.12653 9.82329C3.16631 9.79322 3.2373 9.74308 3.33512 9.67953C3.49662 9.57462 3.67595 9.46987 3.86891 9.37199C4.40035 9.1024 4.93343 8.93408 5.44188 8.91862C5.46675 8.91786 5.49151 8.91748 5.51616 8.91748V9.39941C5.4963 9.39941 5.47631 9.39972 5.45618 9.40033C5.0277 9.41336 4.55716 9.56193 4.08229 9.80282C3.90529 9.89261 3.74037 9.98894 3.59236 10.0851C3.54084 10.1186 3.49526 10.1495 3.4562 10.1771C3.43342 10.1932 3.41831 10.2042 3.41144 10.2094Z" fill="#FFE017"/>
<path d="M3.63257 10.3765L3.75249 9.91014C5.34006 10.3282 6.56399 10.5366 7.41817 10.5366C8.26916 10.5366 9.53578 10.2908 11.2098 9.79761L11.3429 10.2603C9.62929 10.7652 8.32379 11.0185 7.41817 11.0185C6.51575 11.0185 5.25591 10.804 3.63257 10.3765Z" fill="#FFE017"/>
<path d="M3.01398 6.05878L3.7684 5.28882L4.87298 6.39734L4.11855 7.1673L3.01398 6.05878Z" fill="#FFE017"/>
<path d="M9.2724 9.90468L9.83355 8.98096L11.5858 10.0712L11.0247 10.995L9.2724 9.90468Z" fill="#FFE017"/>
</g>
<path fill-rule="evenodd" clip-rule="evenodd" d="M2.61902 7.49988C2.61902 10.1948 4.77765 12.3794 7.44045 12.3794C10.1032 12.3794 12.2619 10.1948 12.2619 7.49988C12.2619 4.805 10.1032 2.62036 7.44045 2.62036C4.77765 2.62036 2.61902 4.805 2.61902 7.49988ZM11.6666 7.56012C11.6666 9.88903 9.80116 11.777 7.49997 11.777C5.19878 11.777 3.3333 9.88903 3.3333 7.56012C3.3333 5.23121 5.19878 3.34325 7.49997 3.34325C9.80116 3.34325 11.6666 5.23121 11.6666 7.56012Z" fill="#F9E813"/>
<path d="M4.7854 4.49048V8.40342C5.04298 9.95222 5.91077 10.7266 7.38877 10.7266C8.86676 10.7266 9.73455 9.95222 9.99213 8.40342V4.49048H4.7854Z" fill="white"/>
<path d="M4.42828 4.12915H10.3493V8.43375L10.3443 8.46353C10.0583 10.1833 9.04435 11.0882 7.38879 11.0882C5.73324 11.0882 4.71926 10.1833 4.43324 8.46353L4.42828 8.43375V4.12915Z" fill="#C51918"/>
<path d="M5.78265 5.44409H8.99498V8.21965C8.99498 8.21965 8.7566 9.65296 7.38882 9.65296C6.02103 9.65296 5.78265 8.21965 5.78265 8.21965V5.44409Z" fill="#F7FCFF"/>
<path fill-rule="evenodd" clip-rule="evenodd" d="M5 4.42749H5.45181V4.7287H5V4.42749Z" fill="#F9E813"/>
<path fill-rule="evenodd" clip-rule="evenodd" d="M4.7619 4.54785H5.59524V4.69845H4.7619V4.54785Z" fill="#060101"/>
<path fill-rule="evenodd" clip-rule="evenodd" d="M4.7619 4.66846H5.21371V4.81906H4.7619V4.66846Z" fill="#F9E813"/>
<path fill-rule="evenodd" clip-rule="evenodd" d="M5.2381 4.66846H5.68991V4.81906H5.2381V4.66846Z" fill="#F9E813"/>
<path fill-rule="evenodd" clip-rule="evenodd" d="M4.7619 5.02979H5.06311V5.48159H4.7619V5.02979Z" fill="#F9E813"/>
<path fill-rule="evenodd" clip-rule="evenodd" d="M5.35712 5.02979H5.65832V5.48159H5.35712V5.02979Z" fill="#F9E813"/>
<path fill-rule="evenodd" clip-rule="evenodd" d="M5.11902 5.02979H5.26962V5.48159H5.11902V5.02979Z" fill="#F9E813"/>
<path fill-rule="evenodd" clip-rule="evenodd" d="M4.7619 4.90942H5.59524V5.06003H4.7619V4.90942Z" fill="#060101"/>
<path fill-rule="evenodd" clip-rule="evenodd" d="M4.7619 5.27075H5.59524V5.42135H4.7619V5.27075Z" fill="#060101"/>
<path fill-rule="evenodd" clip-rule="evenodd" d="M4.88092 4.78882H5.03152V4.93942H4.88092V4.78882Z" fill="#F9E813"/>
<path fill-rule="evenodd" clip-rule="evenodd" d="M5.35712 4.78882H5.50772V4.93942H5.35712V4.78882Z" fill="#F9E813"/>
<path fill-rule="evenodd" clip-rule="evenodd" d="M5.11902 4.66846H5.26962V4.96966H5.11902V4.66846Z" fill="#F9E813"/>
<path fill-rule="evenodd" clip-rule="evenodd" d="M7.2619 4.42749H7.71371V4.7287H7.2619V4.42749Z" fill="#F9E813"/>
<path fill-rule="evenodd" clip-rule="evenodd" d="M7.0238 4.54785H7.85714V4.69845H7.0238V4.54785Z" fill="#060101"/>
<path fill-rule="evenodd" clip-rule="evenodd" d="M7.0238 4.66846H7.47561V4.81906H7.0238V4.66846Z" fill="#F9E813"/>
<path fill-rule="evenodd" clip-rule="evenodd" d="M7.5 4.66846H7.95181V4.81906H7.5V4.66846Z" fill="#F9E813"/>
<path fill-rule="evenodd" clip-rule="evenodd" d="M7.0238 5.02979H7.32501V5.48159H7.0238V5.02979Z" fill="#F9E813"/>
<path fill-rule="evenodd" clip-rule="evenodd" d="M7.61902 5.02979H7.92022V5.48159H7.61902V5.02979Z" fill="#F9E813"/>
<path fill-rule="evenodd" clip-rule="evenodd" d="M7.38092 5.02979H7.53152V5.48159H7.38092V5.02979Z" fill="#F9E813"/>
<path fill-rule="evenodd" clip-rule="evenodd" d="M7.0238 4.90942H7.85714V5.06003H7.0238V4.90942Z" fill="#060101"/>
<path fill-rule="evenodd" clip-rule="evenodd" d="M7.0238 5.27075H7.85714V5.42135H7.0238V5.27075Z" fill="#060101"/>
<path fill-rule="evenodd" clip-rule="evenodd" d="M7.14282 4.78882H7.29342V4.93942H7.14282V4.78882Z" fill="#F9E813"/>
<path fill-rule="evenodd" clip-rule="evenodd" d="M7.61902 4.78882H7.76962V4.93942H7.61902V4.78882Z" fill="#F9E813"/>
<path fill-rule="evenodd" clip-rule="evenodd" d="M7.38092 4.66846H7.53152V4.96966H7.38092V4.66846Z" fill="#F9E813"/>
<path fill-rule="evenodd" clip-rule="evenodd" d="M9.40479 4.42749H9.85659V4.7287H9.40479V4.42749Z" fill="#F9E813"/>
<path fill-rule="evenodd" clip-rule="evenodd" d="M9.16669 4.54785H10V4.69845H9.16669V4.54785Z" fill="#060101"/>
<path fill-rule="evenodd" clip-rule="evenodd" d="M9.16669 4.66846H9.61849V4.81906H9.16669V4.66846Z" fill="#F9E813"/>
<path fill-rule="evenodd" clip-rule="evenodd" d="M9.64288 4.66846H10.0947V4.81906H9.64288V4.66846Z" fill="#F9E813"/>
<path fill-rule="evenodd" clip-rule="evenodd" d="M9.16669 5.02979H9.46789V5.48159H9.16669V5.02979Z" fill="#F9E813"/>
<path fill-rule="evenodd" clip-rule="evenodd" d="M9.7619 5.02979H10.0631V5.48159H9.7619V5.02979Z" fill="#F9E813"/>
<path fill-rule="evenodd" clip-rule="evenodd" d="M9.5238 5.02979H9.67441V5.48159H9.5238V5.02979Z" fill="#F9E813"/>
<path fill-rule="evenodd" clip-rule="evenodd" d="M9.16669 4.90942H10V5.06003H9.16669V4.90942Z" fill="#060101"/>
<path fill-rule="evenodd" clip-rule="evenodd" d="M9.16669 5.27075H10V5.42135H9.16669V5.27075Z" fill="#060101"/>
<path fill-rule="evenodd" clip-rule="evenodd" d="M9.28571 4.78882H9.43631V4.93942H9.28571V4.78882Z" fill="#F9E813"/>
<path fill-rule="evenodd" clip-rule="evenodd" d="M9.7619 4.78882H9.9125V4.93942H9.7619V4.78882Z" fill="#F9E813"/>
<path fill-rule="evenodd" clip-rule="evenodd" d="M9.5238 4.66846H9.67441V4.96966H9.5238V4.66846Z" fill="#F9E813"/>
<path fill-rule="evenodd" clip-rule="evenodd" d="M9.40479 6.59619H9.85659V6.8974H9.40479V6.59619Z" fill="#F9E813"/>
<path fill-rule="evenodd" clip-rule="evenodd" d="M9.16669 6.71655H10V6.86716H9.16669V6.71655Z" fill="#060101"/>
<path fill-rule="evenodd" clip-rule="evenodd" d="M9.16669 6.83716H9.61849V6.98776H9.16669V6.83716Z" fill="#F9E813"/>
<path fill-rule="evenodd" clip-rule="evenodd" d="M9.64288 6.83716H10.0947V6.98776H9.64288V6.83716Z" fill="#F9E813"/>
<path fill-rule="evenodd" clip-rule="evenodd" d="M9.16669 7.19849H9.46789V7.65029H9.16669V7.19849Z" fill="#F9E813"/>
<path fill-rule="evenodd" clip-rule="evenodd" d="M9.7619 7.19849H10.0631V7.65029H9.7619V7.19849Z" fill="#F9E813"/>
<path fill-rule="evenodd" clip-rule="evenodd" d="M9.5238 7.19849H9.67441V7.65029H9.5238V7.19849Z" fill="#F9E813"/>
<path fill-rule="evenodd" clip-rule="evenodd" d="M9.16669 7.07812H10V7.22873H9.16669V7.07812Z" fill="#060101"/>
<path fill-rule="evenodd" clip-rule="evenodd" d="M9.16669 7.43945H10V7.59006H9.16669V7.43945Z" fill="#060101"/>
<path fill-rule="evenodd" clip-rule="evenodd" d="M9.28571 6.95752H9.43631V7.10812H9.28571V6.95752Z" fill="#F9E813"/>
<path fill-rule="evenodd" clip-rule="evenodd" d="M9.7619 6.95752H9.9125V7.10812H9.7619V6.95752Z" fill="#F9E813"/>
<path fill-rule="evenodd" clip-rule="evenodd" d="M9.5238 6.83716H9.67441V7.13836H9.5238V6.83716Z" fill="#F9E813"/>
<path fill-rule="evenodd" clip-rule="evenodd" d="M5 6.59619H5.45181V6.8974H5V6.59619Z" fill="#F9E813"/>
<path fill-rule="evenodd" clip-rule="evenodd" d="M4.7619 6.71655H5.59524V6.86716H4.7619V6.71655Z" fill="#060101"/>
<path fill-rule="evenodd" clip-rule="evenodd" d="M4.7619 6.83716H5.21371V6.98776H4.7619V6.83716Z" fill="#F9E813"/>
<path fill-rule="evenodd" clip-rule="evenodd" d="M5.2381 6.83716H5.68991V6.98776H5.2381V6.83716Z" fill="#F9E813"/>
<path fill-rule="evenodd" clip-rule="evenodd" d="M4.7619 7.19849H5.06311V7.65029H4.7619V7.19849Z" fill="#F9E813"/>
<path fill-rule="evenodd" clip-rule="evenodd" d="M5.35712 7.19849H5.65832V7.65029H5.35712V7.19849Z" fill="#F9E813"/>
<path fill-rule="evenodd" clip-rule="evenodd" d="M5.11902 7.19849H5.26962V7.65029H5.11902V7.19849Z" fill="#F9E813"/>
<path fill-rule="evenodd" clip-rule="evenodd" d="M4.7619 7.07812H5.59524V7.22873H4.7619V7.07812Z" fill="#060101"/>
<path fill-rule="evenodd" clip-rule="evenodd" d="M4.7619 7.43945H5.59524V7.59006H4.7619V7.43945Z" fill="#060101"/>
<path fill-rule="evenodd" clip-rule="evenodd" d="M4.88092 6.95752H5.03152V7.10812H4.88092V6.95752Z" fill="#F9E813"/>
<path fill-rule="evenodd" clip-rule="evenodd" d="M5.35712 6.95752H5.50772V7.10812H5.35712V6.95752Z" fill="#F9E813"/>
<path fill-rule="evenodd" clip-rule="evenodd" d="M5.11902 6.83716H5.26962V7.13836H5.11902V6.83716Z" fill="#F9E813"/>
<path fill-rule="evenodd" clip-rule="evenodd" d="M5.28979 9.3147L5.58021 8.96859L5.81095 9.1622L5.52053 9.50831L5.28979 9.3147Z" fill="#F9E813"/>
<path fill-rule="evenodd" clip-rule="evenodd" d="M5.22906 9.57446L5.76472 8.93609L5.88009 9.0329L5.34443 9.67127L5.22906 9.57446Z" fill="#060101"/>
<path fill-rule="evenodd" clip-rule="evenodd" d="M5.32135 9.65186L5.61177 9.30575L5.72713 9.40256L5.43672 9.74866L5.32135 9.65186Z" fill="#F9E813"/>
<path fill-rule="evenodd" clip-rule="evenodd" d="M5.62744 9.28711L5.91786 8.941L6.03323 9.03781L5.74281 9.38391L5.62744 9.28711Z" fill="#F9E813"/>
<path fill-rule="evenodd" clip-rule="evenodd" d="M5.59827 9.88428L5.79188 9.65354L6.13798 9.94396L5.94437 10.1747L5.59827 9.88428Z" fill="#F9E813"/>
<path fill-rule="evenodd" clip-rule="evenodd" d="M5.98083 9.42822L6.17445 9.19749L6.52055 9.4879L6.32694 9.71864L5.98083 9.42822Z" fill="#F9E813"/>
<path fill-rule="evenodd" clip-rule="evenodd" d="M5.82782 9.6106L5.92463 9.49523L6.27073 9.78564L6.17392 9.90101L5.82782 9.6106Z" fill="#F9E813"/>
<path fill-rule="evenodd" clip-rule="evenodd" d="M5.50598 9.80688L6.04164 9.16851L6.15701 9.26532L5.62135 9.90369L5.50598 9.80688Z" fill="#060101"/>
<path fill-rule="evenodd" clip-rule="evenodd" d="M5.78284 10.0391L6.31849 9.40069L6.43386 9.4975L5.89821 10.1359L5.78284 10.0391Z" fill="#060101"/>
<path fill-rule="evenodd" clip-rule="evenodd" d="M5.49017 9.63818L5.58698 9.52282L5.70235 9.61962L5.60554 9.73499L5.49017 9.63818Z" fill="#F9E813"/>
<path fill-rule="evenodd" clip-rule="evenodd" d="M5.79626 9.27344L5.89307 9.15807L6.00844 9.25487L5.91163 9.37024L5.79626 9.27344Z" fill="#F9E813"/>
<path fill-rule="evenodd" clip-rule="evenodd" d="M5.55096 9.37842L5.64777 9.26305L5.87851 9.45666L5.7817 9.57203L5.55096 9.37842Z" fill="#F9E813"/>
<path fill-rule="evenodd" clip-rule="evenodd" d="M9.36151 9.04126L9.65193 9.38736L9.42119 9.58097L9.13077 9.23487L9.36151 9.04126Z" fill="#F9E813"/>
<path fill-rule="evenodd" clip-rule="evenodd" d="M9.11621 8.93628L9.65187 9.57465L9.5365 9.67146L9.00084 9.03308L9.11621 8.93628Z" fill="#060101"/>
<path fill-rule="evenodd" clip-rule="evenodd" d="M9.02393 9.01367L9.31434 9.35978L9.19897 9.45658L8.90856 9.11048L9.02393 9.01367Z" fill="#F9E813"/>
<path fill-rule="evenodd" clip-rule="evenodd" d="M9.33002 9.37866L9.62043 9.72477L9.50507 9.82157L9.21465 9.47547L9.33002 9.37866Z" fill="#F9E813"/>
<path fill-rule="evenodd" clip-rule="evenodd" d="M8.74701 9.24609L8.94062 9.47683L8.59452 9.76725L8.4009 9.53651L8.74701 9.24609Z" fill="#F9E813"/>
<path fill-rule="evenodd" clip-rule="evenodd" d="M9.12964 9.70215L9.32325 9.93288L8.97714 10.2233L8.78353 9.99256L9.12964 9.70215Z" fill="#F9E813"/>
<path fill-rule="evenodd" clip-rule="evenodd" d="M8.97656 9.51978L9.07337 9.63514L8.72726 9.92556L8.63046 9.81019L8.97656 9.51978Z" fill="#F9E813"/>
<path fill-rule="evenodd" clip-rule="evenodd" d="M8.83929 9.1687L9.37495 9.80707L9.25958 9.90388L8.72393 9.26551L8.83929 9.1687Z" fill="#060101"/>
<path fill-rule="evenodd" clip-rule="evenodd" d="M8.56244 9.40088L9.0981 10.0392L8.98273 10.1361L8.44707 9.49768L8.56244 9.40088Z" fill="#060101"/>
<path fill-rule="evenodd" clip-rule="evenodd" d="M9.00812 9.18237L9.10492 9.29774L8.98955 9.39455L8.89275 9.27918L9.00812 9.18237Z" fill="#F9E813"/>
<path fill-rule="evenodd" clip-rule="evenodd" d="M9.31421 9.54712L9.41101 9.66249L9.29565 9.75929L9.19884 9.64392L9.31421 9.54712Z" fill="#F9E813"/>
<path fill-rule="evenodd" clip-rule="evenodd" d="M9.25348 9.28735L9.35028 9.40272L9.11955 9.59633L9.02274 9.48096L9.25348 9.28735Z" fill="#F9E813"/>
<path fill-rule="evenodd" clip-rule="evenodd" d="M7.84901 5.75293H7.0238V6.35385C7.0238 6.35385 7.08504 6.66417 7.43641 6.66417C7.78778 6.66417 7.84901 6.35385 7.84901 6.35385V5.75293ZM7.38095 5.99389C7.38095 6.06043 7.32765 6.11438 7.2619 6.11438C7.19615 6.11438 7.14285 6.06043 7.14285 5.99389C7.14285 5.92735 7.19615 5.87341 7.2619 5.87341C7.32765 5.87341 7.38095 5.92735 7.38095 5.99389ZM7.2619 6.5963C7.32765 6.5963 7.38095 6.54236 7.38095 6.47582C7.38095 6.40928 7.32765 6.35534 7.2619 6.35534C7.19615 6.35534 7.14285 6.40928 7.14285 6.47582C7.14285 6.54236 7.19615 6.5963 7.2619 6.5963ZM7.73809 6.47582C7.73809 6.54236 7.68479 6.5963 7.61904 6.5963C7.55329 6.5963 7.49999 6.54236 7.49999 6.47582C7.49999 6.40928 7.55329 6.35534 7.61904 6.35534C7.68479 6.35534 7.73809 6.40928 7.73809 6.47582ZM7.44047 6.35534C7.50622 6.35534 7.55952 6.3014 7.55952 6.23486C7.55952 6.16832 7.50622 6.11438 7.44047 6.11438C7.37472 6.11438 7.32142 6.16832 7.32142 6.23486C7.32142 6.3014 7.37472 6.35534 7.44047 6.35534ZM7.73809 5.99389C7.73809 6.06043 7.68479 6.11438 7.61904 6.11438C7.55329 6.11438 7.49999 6.06043 7.49999 5.99389C7.49999 5.92735 7.55329 5.87341 7.61904 5.87341C7.68479 5.87341 7.73809 5.92735 7.73809 5.99389Z" fill="#013399"/>
<path fill-rule="evenodd" clip-rule="evenodd" d="M7.84901 7.07812H7.0238V7.67905C7.0238 7.67905 7.08504 7.98936 7.43641 7.98936C7.78778 7.98936 7.84901 7.67905 7.84901 7.67905V7.07812ZM7.38095 7.31909C7.38095 7.38563 7.32765 7.43957 7.2619 7.43957C7.19615 7.43957 7.14285 7.38563 7.14285 7.31909C7.14285 7.25255 7.19615 7.19861 7.2619 7.19861C7.32765 7.19861 7.38095 7.25255 7.38095 7.31909ZM7.2619 7.9215C7.32765 7.9215 7.38095 7.86756 7.38095 7.80102C7.38095 7.73448 7.32765 7.68053 7.2619 7.68053C7.19615 7.68053 7.14285 7.73448 7.14285 7.80102C7.14285 7.86756 7.19615 7.9215 7.2619 7.9215ZM7.73809 7.80102C7.73809 7.86756 7.68479 7.9215 7.61904 7.9215C7.55329 7.9215 7.49999 7.86756 7.49999 7.80102C7.49999 7.73448 7.55329 7.68053 7.61904 7.68053C7.68479 7.68053 7.73809 7.73448 7.73809 7.80102ZM7.44047 7.68053C7.50622 7.68053 7.55952 7.62659 7.55952 7.56005C7.55952 7.49351 7.50622 7.43957 7.44047 7.43957C7.37472 7.43957 7.32142 7.49351 7.32142 7.56005C7.32142 7.62659 7.37472 7.68053 7.44047 7.68053ZM7.73809 7.31909C7.73809 7.38563 7.68479 7.43957 7.61904 7.43957C7.55329 7.43957 7.49999 7.38563 7.49999 7.31909C7.49999 7.25255 7.55329 7.19861 7.61904 7.19861C7.68479 7.19861 7.73809 7.25255 7.73809 7.31909Z" fill="#013399"/>
<path fill-rule="evenodd" clip-rule="evenodd" d="M8.92042 7.07812H8.09521V7.67905C8.09521 7.67905 8.15645 7.98936 8.50782 7.98936C8.85919 7.98936 8.92042 7.67905 8.92042 7.67905V7.07812ZM8.45236 7.31909C8.45236 7.38563 8.39906 7.43957 8.33331 7.43957C8.26756 7.43957 8.21426 7.38563 8.21426 7.31909C8.21426 7.25255 8.26756 7.19861 8.33331 7.19861C8.39906 7.19861 8.45236 7.25255 8.45236 7.31909ZM8.33331 7.9215C8.39906 7.9215 8.45236 7.86756 8.45236 7.80102C8.45236 7.73448 8.39906 7.68053 8.33331 7.68053C8.26756 7.68053 8.21426 7.73448 8.21426 7.80102C8.21426 7.86756 8.26756 7.9215 8.33331 7.9215ZM8.8095 7.80102C8.8095 7.86756 8.7562 7.9215 8.69045 7.9215C8.6247 7.9215 8.57141 7.86756 8.57141 7.80102C8.57141 7.73448 8.6247 7.68053 8.69045 7.68053C8.7562 7.68053 8.8095 7.73448 8.8095 7.80102ZM8.51188 7.68053C8.57763 7.68053 8.63093 7.62659 8.63093 7.56005C8.63093 7.49351 8.57763 7.43957 8.51188 7.43957C8.44613 7.43957 8.39283 7.49351 8.39283 7.56005C8.39283 7.62659 8.44613 7.68053 8.51188 7.68053ZM8.8095 7.31909C8.8095 7.38563 8.7562 7.43957 8.69045 7.43957C8.6247 7.43957 8.57141 7.38563 8.57141 7.31909C8.57141 7.25255 8.6247 7.19861 8.69045 7.19861C8.7562 7.19861 8.8095 7.25255 8.8095 7.31909Z" fill="#013399"/>
<path fill-rule="evenodd" clip-rule="evenodd" d="M6.7776 7.07812H5.95239V7.67905C5.95239 7.67905 6.01363 7.98936 6.365 7.98936C6.71636 7.98936 6.7776 7.67905 6.7776 7.67905V7.07812ZM6.30954 7.31909C6.30954 7.38563 6.25624 7.43957 6.19049 7.43957C6.12474 7.43957 6.07144 7.38563 6.07144 7.31909C6.07144 7.25255 6.12474 7.19861 6.19049 7.19861C6.25624 7.19861 6.30954 7.25255 6.30954 7.31909ZM6.19049 7.9215C6.25624 7.9215 6.30954 7.86756 6.30954 7.80102C6.30954 7.73448 6.25624 7.68053 6.19049 7.68053C6.12474 7.68053 6.07144 7.73448 6.07144 7.80102C6.07144 7.86756 6.12474 7.9215 6.19049 7.9215ZM6.66668 7.80102C6.66668 7.86756 6.61338 7.9215 6.54763 7.9215C6.48188 7.9215 6.42858 7.86756 6.42858 7.80102C6.42858 7.73448 6.48188 7.68053 6.54763 7.68053C6.61338 7.68053 6.66668 7.73448 6.66668 7.80102ZM6.36906 7.68053C6.43481 7.68053 6.48811 7.62659 6.48811 7.56005C6.48811 7.49351 6.43481 7.43957 6.36906 7.43957C6.30331 7.43957 6.25001 7.49351 6.25001 7.56005C6.25001 7.62659 6.30331 7.68053 6.36906 7.68053ZM6.66668 7.31909C6.66668 7.38563 6.61338 7.43957 6.54763 7.43957C6.48188 7.43957 6.42858 7.38563 6.42858 7.31909C6.42858 7.25255 6.48188 7.19861 6.54763 7.19861C6.61338 7.19861 6.66668 7.25255 6.66668 7.31909Z" fill="#013399"/>
<path fill-rule="evenodd" clip-rule="evenodd" d="M7.84901 8.40332H7.0238V9.00424C7.0238 9.00424 7.08504 9.31456 7.43641 9.31456C7.78778 9.31456 7.84901 9.00424 7.84901 9.00424V8.40332ZM7.38095 8.64428C7.38095 8.71082 7.32765 8.76477 7.2619 8.76477C7.19615 8.76477 7.14285 8.71082 7.14285 8.64428C7.14285 8.57774 7.19615 8.5238 7.2619 8.5238C7.32765 8.5238 7.38095 8.57774 7.38095 8.64428ZM7.2619 9.24669C7.32765 9.24669 7.38095 9.19275 7.38095 9.12621C7.38095 9.05967 7.32765 9.00573 7.2619 9.00573C7.19615 9.00573 7.14285 9.05967 7.14285 9.12621C7.14285 9.19275 7.19615 9.24669 7.2619 9.24669ZM7.73809 9.12621C7.73809 9.19275 7.68479 9.24669 7.61904 9.24669C7.55329 9.24669 7.49999 9.19275 7.49999 9.12621C7.49999 9.05967 7.55329 9.00573 7.61904 9.00573C7.68479 9.00573 7.73809 9.05967 7.73809 9.12621ZM7.44047 9.00573C7.50622 9.00573 7.55952 8.95179 7.55952 8.88525C7.55952 8.81871 7.50622 8.76477 7.44047 8.76477C7.37472 8.76477 7.32142 8.81871 7.32142 8.88525C7.32142 8.95179 7.37472 9.00573 7.44047 9.00573ZM7.73809 8.64428C7.73809 8.71082 7.68479 8.76477 7.61904 8.76477C7.55329 8.76477 7.49999 8.71082 7.49999 8.64428C7.49999 8.57774 7.55329 8.5238 7.61904 8.5238C7.68479 8.5238 7.73809 8.57774 7.73809 8.64428Z" fill="#013399"/>
</g>
</svg>
