<svg width="32" height="24" viewBox="0 0 32 24" fill="none" xmlns="http://www.w3.org/2000/svg">
<mask id="mask0" mask-type="alpha" maskUnits="userSpaceOnUse" x="0" y="0" width="32" height="24">
<rect width="32" height="24" fill="white"/>
</mask>
<g mask="url(#mask0)">
<path fill-rule="evenodd" clip-rule="evenodd" d="M0 0V24H32V0H0Z" fill="#0168B4"/>
<mask id="mask1" mask-type="alpha" maskUnits="userSpaceOnUse" x="0" y="0" width="32" height="24">
<path fill-rule="evenodd" clip-rule="evenodd" d="M0 0V24H32V0H0Z" fill="white"/>
</mask>
<g mask="url(#mask1)">
<path fill-rule="evenodd" clip-rule="evenodd" d="M0 0V3H32V0H0Z" fill="#E93C43"/>
<path fill-rule="evenodd" clip-rule="evenodd" d="M0 21V24H32V21H0Z" fill="#E93C43"/>
<path d="M16 18C12.6863 18 10 15.3137 10 12C10 8.68629 12.6863 6 16 6C19.3137 6 22 8.68629 22 12C22 15.3137 19.3137 18 16 18Z" fill="#F7FCFF"/>
<path d="M16 20C11.5817 20 8 16.4183 8 12C8 7.58172 11.5817 4 16 4C20.4183 4 24 7.58172 24 12C24 16.4183 20.4183 20 16 20Z" fill="white"/>
<path fill-rule="evenodd" clip-rule="evenodd" d="M16 19C19.866 19 23 15.866 23 12C23 8.13401 19.866 5 16 5C12.134 5 9 8.13401 9 12C9 15.866 12.134 19 16 19Z" stroke="#9C4C17" stroke-width="0.5"/>
<path fill-rule="evenodd" clip-rule="evenodd" d="M15.5729 4.08289L15.4176 4.41778C15.6738 4.55686 15.7709 4.87164 15.7709 5.06234C15.7709 5.25106 15.6708 5.39502 15.4176 5.52722L15.5729 5.87339C15.679 5.81799 15.7839 5.77139 15.883 5.72733C16.2387 5.56933 16.5209 5.44396 16.5209 5.06234C16.5209 4.59603 16.0934 4.36463 15.6318 4.11481L15.5729 4.08289ZM17.8133 4.29274L17.5718 4.57187C17.7796 4.77616 17.7863 5.10553 17.7337 5.28884C17.6817 5.47025 17.5457 5.58102 17.266 5.63833L17.3198 6.01388C17.437 5.98987 17.5507 5.97399 17.6582 5.95897C18.0436 5.90513 18.3495 5.8624 18.4546 5.49556C18.5832 5.04732 18.236 4.70704 17.8611 4.33966L17.8133 4.29274ZM19.6082 5.32244L19.9207 5.12612L19.9528 5.18497C20.2038 5.6459 20.4364 6.07282 20.1824 6.4639C19.9745 6.78395 19.6696 6.73539 19.2852 6.67419C19.1781 6.65713 19.0647 6.63908 18.9456 6.62776L19.0039 6.25289C19.2882 6.27988 19.4506 6.2137 19.5534 6.05542C19.6573 5.89549 19.7472 5.57858 19.6082 5.32244ZM21.6917 6.51516L21.3371 6.61771C21.4001 6.90226 21.2263 7.1821 21.0824 7.30721C20.94 7.43102 20.7656 7.44988 20.4998 7.34557L20.3404 7.68984C20.4518 7.73355 20.5558 7.78215 20.6541 7.8281L20.6541 7.8281C21.0066 7.99286 21.2864 8.12361 21.5744 7.87324C21.9264 7.56732 21.8205 7.09283 21.7062 6.58056L21.6917 6.51516ZM22.6314 8.34626L23.0005 8.34542L22.9964 8.4123C22.9651 8.93622 22.9361 9.42151 22.5135 9.61857C22.1676 9.77985 21.9347 9.57706 21.6412 9.3215C21.5593 9.25023 21.4728 9.17485 21.3777 9.10212L21.6259 8.81513C21.8526 8.98867 22.0254 9.0186 22.1965 8.93884C22.3693 8.85825 22.6135 8.63717 22.6314 8.34626ZM23.7511 10.4836L23.3978 10.3765C23.2958 10.6494 22.9976 10.7895 22.8087 10.816C22.6218 10.8423 22.4653 10.7631 22.2992 10.5309L21.978 10.7328C22.0476 10.8301 22.1084 10.9275 22.1658 11.0196C22.3718 11.3498 22.5352 11.6118 22.9131 11.5587C23.3749 11.4938 23.5445 11.0382 23.7277 10.5464L23.7511 10.4836ZM23.5514 12.5311L23.8614 12.7314L23.8216 12.7853C23.51 13.2076 23.2213 13.5988 22.7596 13.5339C22.3816 13.4808 22.2968 13.1839 22.1898 12.8097C22.16 12.7053 22.1284 12.595 22.0883 12.4822L22.4527 12.3767C22.5484 12.6457 22.6771 12.7649 22.8639 12.7912C23.0528 12.8177 23.378 12.7653 23.5514 12.5311ZM23.3355 14.9361L23.0976 14.6539C22.8633 14.8272 22.537 14.7823 22.3641 14.7017C22.1931 14.6219 22.105 14.4703 22.0921 14.185L21.7128 14.1794C21.7182 14.299 21.7161 14.4137 21.7141 14.5223C21.707 14.9114 21.7013 15.2201 22.0472 15.3814C22.4698 15.5785 22.8602 15.2888 23.2817 14.976L23.3355 14.9361ZM22.0609 16.5497L22.2118 16.8866L22.1491 16.9101C21.6577 17.0946 21.2025 17.2654 20.8506 16.9595C20.5626 16.7091 20.6531 16.4139 20.7672 16.0418C20.7991 15.938 20.8327 15.8283 20.8605 15.7119L21.2236 15.8218C21.1573 16.0996 21.2002 16.2696 21.3427 16.3935C21.4866 16.5186 21.7879 16.6518 22.0609 16.5497ZM20.5857 18.4422L20.5334 18.0767C20.2429 18.0996 19.99 17.8885 19.8861 17.7286C19.7833 17.5703 19.7889 17.395 19.9292 17.1463L19.6105 16.9405C19.5517 17.0448 19.4891 17.141 19.4299 17.2319C19.2177 17.5581 19.0493 17.817 19.2571 18.1371C19.5111 18.5281 19.9957 18.4893 20.5189 18.4475L20.5857 18.4422ZM18.6323 19.1241L18.5754 19.4888L18.51 19.4744C17.9974 19.3614 17.5226 19.2569 17.3941 18.8086C17.2889 18.4418 17.5256 18.2435 17.824 17.9936C17.9072 17.9239 17.9952 17.8502 18.0819 17.7677L18.3265 18.0576C18.1196 18.2545 18.063 18.4205 18.115 18.6019C18.1676 18.7852 18.3478 19.061 18.6323 19.1241ZM16.3657 19.9172L16.5209 19.5823C16.2648 19.4432 16.1676 19.1284 16.1676 18.9377C16.1676 18.749 16.2678 18.6051 16.5209 18.4729L16.3657 18.1267C16.2596 18.1821 16.1547 18.2287 16.0555 18.2727C15.6999 18.4307 15.4176 18.5561 15.4176 18.9377C15.4176 19.404 15.8452 19.6354 16.3068 19.8853L16.3657 19.9172ZM14.3668 19.4282L14.1253 19.7073L14.0774 19.6604C13.7026 19.293 13.3554 18.9527 13.4839 18.5045C13.5891 18.1377 13.895 18.0949 14.2804 18.0411L14.2804 18.0411C14.3879 18.0261 14.5016 18.0102 14.6188 17.9862L14.6726 18.3617C14.3928 18.4191 14.2569 18.5298 14.2049 18.7112C14.1523 18.8945 14.1589 19.2239 14.3668 19.4282ZM12.0178 18.874L12.3304 18.6776C12.1914 18.4215 12.2813 18.1046 12.3852 17.9447C12.488 17.7864 12.6504 17.7202 12.9347 17.7472L12.993 17.3723C12.8739 17.361 12.7605 17.3429 12.6533 17.3259C12.269 17.2647 11.964 17.2161 11.7562 17.5362C11.5022 17.9272 11.7347 18.3542 11.9858 18.8151L12.0178 18.874ZM10.6015 17.3824L10.2469 17.4849L10.2323 17.4195C10.1181 16.9072 10.0122 16.4328 10.3641 16.1268C10.6521 15.8765 10.9319 16.0072 11.2845 16.172C11.3828 16.2179 11.4868 16.2665 11.5982 16.3102L11.4388 16.6545C11.173 16.5502 10.9986 16.5691 10.8562 16.6929C10.7123 16.818 10.5384 17.0978 10.6015 17.3824ZM8.93809 15.6547L9.30721 15.6538C9.32502 15.3629 9.56925 15.1418 9.74208 15.0612C9.91312 14.9815 10.0859 15.0114 10.3127 15.1849L10.5608 14.898C10.4658 14.8252 10.3792 14.7498 10.2974 14.6786C10.0039 14.423 9.77098 14.2202 9.42512 14.3815C9.0025 14.5786 8.97347 15.0639 8.94213 15.5878L8.93809 15.6547ZM8.54072 13.6236L8.18749 13.5165L8.2109 13.4537C8.39405 12.9619 8.5637 12.5063 9.02546 12.4414C9.40337 12.3883 9.56681 12.6503 9.77276 12.9805C9.83019 13.0726 9.89094 13.17 9.96057 13.2673L9.63937 13.4692C9.47323 13.2369 9.31673 13.1578 9.12984 13.1841C8.94101 13.2106 8.64281 13.3506 8.54072 13.6236ZM8.07715 11.2687L8.38718 11.469C8.56055 11.2347 8.88579 11.1823 9.07463 11.2089C9.26152 11.2351 9.39014 11.3543 9.48582 11.6234L9.85023 11.5179C9.81013 11.4051 9.77858 11.2947 9.74875 11.1904L9.74875 11.1904C9.64179 10.8162 9.55692 10.5193 9.17901 10.4662C8.71724 10.4013 8.42859 10.7924 8.11696 11.2148L8.07715 11.2687ZM8.84095 9.34617L8.60304 9.06395L8.65686 9.02405C9.07836 8.71129 9.46877 8.42159 9.89138 8.61866C10.2373 8.77994 10.2316 9.08871 10.2245 9.47781C10.2225 9.58633 10.2204 9.7011 10.2258 9.82065L9.84644 9.81504C9.8336 9.52976 9.74546 9.37815 9.57442 9.29839C9.40159 9.2178 9.07524 9.17283 8.84095 9.34617ZM9.72676 7.11351L9.87767 7.45037C10.1507 7.34832 10.452 7.48151 10.5959 7.60661C10.7383 7.73043 10.7813 7.90046 10.715 8.17823L11.0781 8.28818C11.1059 8.17177 11.1395 8.06203 11.1713 7.95826C11.2854 7.5862 11.376 7.29095 11.0879 7.04058C10.736 6.73466 10.2809 6.90552 9.7895 7.08999L9.72676 7.11351ZM11.4051 5.92333L11.3529 5.55792L11.4197 5.5526C11.9429 5.51072 12.4275 5.47194 12.6815 5.86301C12.8893 6.18307 12.7209 6.44193 12.5087 6.76813C12.4495 6.85911 12.3869 6.95532 12.3281 7.05956L12.0094 6.85378C12.1497 6.60505 12.1552 6.42977 12.0525 6.27149C11.9486 6.11156 11.6957 5.90048 11.4051 5.92333ZM13.3632 4.51127L13.3063 4.87597C13.5908 4.93907 13.771 5.21488 13.8235 5.39819C13.8755 5.5796 13.8189 5.74559 13.6121 5.94244L13.8567 6.23241C13.9434 6.14992 14.0314 6.07621 14.1146 6.00651C14.4129 5.75661 14.6497 5.5583 14.5445 5.19146C14.4159 4.74322 13.9412 4.63863 13.4286 4.52571C13.4068 4.52092 13.385 4.51612 13.3632 4.51127Z" fill="#5B8C39"/>
<path fill-rule="evenodd" clip-rule="evenodd" d="M12.2788 13.9869C12.2788 13.9869 11.179 13.9628 11.179 14.4681C11.179 14.9734 11.179 15.5332 11.7289 15.2533C12.2788 14.9734 12.9511 14.8628 13.3067 15.058C13.6623 15.2533 14.4909 15.65 15.659 15.65C16.827 15.65 16.7491 15.2533 17.8248 15.2533C18.9006 15.2533 20.8212 15.1676 20.3764 14.8179C19.9316 14.4681 19.4081 14.2467 19.0084 14.2467C18.6087 14.2467 18.3023 14.2467 17.4619 13.8349C16.6216 13.423 15.6834 13.3857 14.7381 13.5185C13.7928 13.6513 13.668 13.9869 13.109 13.9869C12.5499 13.9869 12.2788 13.9869 12.2788 13.9869Z" fill="#247805"/>
<path d="M16.1 15.65C16.1706 15.8898 16.1707 15.8898 16.1708 15.8897L16.171 15.8897L16.1717 15.8895L16.1736 15.8889L16.1796 15.8871L16.2 15.8806C16.2172 15.875 16.2414 15.8669 16.2717 15.856C16.3323 15.8342 16.4173 15.8013 16.5187 15.756C16.7208 15.6656 16.9915 15.524 17.2637 15.3189C17.8085 14.9084 18.3764 14.2277 18.3764 13.1917V13.1838V13.1758V13.1679V13.1599V13.152V13.144V13.1361V13.1282V13.1203V13.1123V13.1044V13.0965V13.0886V13.0807V13.0729V13.065V13.0571V13.0492V13.0414V13.0335V13.0257V13.0178V13.01V13.0021V12.9943V12.9865V12.9787V12.9709V12.9631V12.9553V12.9475V12.9397V12.9319V12.9242V12.9164V12.9086V12.9009V12.8931V12.8854V12.8777V12.87V12.8622V12.8545V12.8468V12.8391V12.8314V12.8238V12.8161V12.8084V12.8008V12.7931V12.7855V12.7778V12.7702V12.7626V12.755V12.7474V12.7397V12.7322V12.7246V12.717V12.7094V12.7019V12.6943V12.6868V12.6792V12.6717V12.6642V12.6567V12.6491V12.6416V12.6342V12.6267V12.6192V12.6117V12.6043V12.5968V12.5894V12.5819V12.5745V12.5671V12.5597V12.5523V12.5449V12.5375V12.5302V12.5228V12.5154V12.5081V12.5007V12.4934V12.4861V12.4788V12.4715V12.4642V12.4569V12.4496V12.4424V12.4351V12.4278V12.4206V12.4134V12.4062V12.3989V12.3917V12.3846V12.3774V12.3702V12.363V12.3559V12.3487V12.3416V12.3345V12.3274V12.3203V12.3132V12.3061V12.299V12.2919V12.2849V12.2778V12.2708V12.2638V12.2568V12.2498V12.2428V12.2358V12.2288V12.2218V12.2149V12.2079V12.201V12.1941V12.1872V12.1803V12.1734V12.1665V12.1596V12.1528V12.1459V12.1391V12.1323V12.1255V12.1187V12.1119V12.1051V12.0983V12.0916V12.0848V12.0781V12.0713V12.0646V12.0579V12.0512V12.0446V12.0379V12.0312V12.0246V12.018V12.0113V12.0047V11.9981V11.9915V11.985V11.9784V11.9718V11.9653V11.9588V11.9523V11.9458V11.9393V11.9328V11.9263V11.9199V11.9134V11.907V11.9006V11.8942V11.8878V11.8814V11.875V11.8687V11.8623V11.856V11.8497V11.8434V11.8371V11.8308V11.8245V11.8183V11.812V11.8058V11.7996V11.7934V11.7872V11.781V11.7749V11.7687V11.7626V11.7565V11.7504V11.7443V11.7382V11.7321V11.7261V11.72V11.714V11.708V11.702V11.696V11.69V11.684V11.6781V11.6722V11.6662V11.6603V11.6544V11.6486V11.6427V11.6369V11.631V11.6252V11.6194V11.6136V11.6078V11.6021V11.5963V11.5906V11.5848V11.5791V11.5734V11.5678V11.5621V11.5565V11.5508V11.5452V11.5396V11.534V11.5284V11.5229V11.5173V11.5118V11.5063V11.5008V11.4953V11.4898V11.4844V11.4789V11.4735V11.4681V11.4627V11.4573V11.452V11.4466V11.4413V11.436V11.4307V11.4254V11.4201V11.4149V11.4096V11.4044V11.3992V11.394V11.3888V11.3837V11.3785V11.3734V11.3683V11.3632V11.3581V11.3531V11.348V11.343V11.338V11.333V11.328V11.323V11.3181V11.3131V11.3082V11.3033V11.2985V11.2936V11.2887V11.2839V11.2791V11.2743V11.2695V11.2647V11.26V11.2553V11.2506V11.2459V11.2412V11.2365V11.2319V11.2272V11.2226V11.218V11.2135V11.2089V11.2044V11.1998V11.1953V11.1908V11.1864V11.1819V11.1775V11.1731V11.1687V11.1643V11.1599V11.1556V11.1512V11.1469V11.1426V11.1384V11.1341V11.1299V11.1256V11.1214V11.1173V11.1131V11.1089V11.1048V11.1007V11.0966V11.0925V11.0885V11.0844V11.0804V11.0764V11.0724V11.0685V11.0645V11.0606V11.0567V11.0528V11.049V11.0451V11.0413V11.0375V11.0337V11.0299V11.0261V11.0224V11.0187V11.015V11.0113V11.0077V11.004V11.0004V10.9968V10.9932V10.9897V10.9861V10.9826V10.9791V10.9756V10.9722V10.9687V10.9653V10.9619V10.9585V10.9552V10.9518V10.9485V10.9452V10.9419V10.9386V10.9354V10.9322V10.929V10.9258V10.9226V10.9195V10.9164V10.9133V10.9102V10.9071V10.9041V10.9011V10.8981V10.8951V10.8922V10.8892V10.8863V10.8834V10.8806V10.8777V10.8749V10.8721V10.8693V10.8665V10.8638V10.861V10.8583V10.8557V10.853V10.8504V10.8478V10.8452V10.8426V10.84V10.8375V10.835V10.8325V10.83V10.8276V10.8252V10.8228V10.8204V10.818V10.8157V10.8134V10.8111V10.8088V10.8066V10.8044V10.8022V10.8V10.7978V10.7957V10.7936V10.7915V10.7894V10.7874V10.7854V10.7834V10.7814V10.7794V10.7775V10.7756V10.7737V10.7718V10.77V10.7682V10.7664V10.7646V10.7629V10.7611V10.7594V10.7577V10.7561V10.7545V10.7528V10.7513V10.7497V10.7481V10.7466V10.7451V10.7437V10.7422V10.7408V10.7394V10.738V10.7367V10.7353V10.734V10.7328V10.7315V10.7303V10.7291V10.7279V10.7267V10.7256V10.7245V10.7234V10.7223V10.7213V10.7202V10.7193V10.7183V10.7173V10.7164V10.7155V10.7147V10.7138V10.713V10.7122V10.7114V10.7107V10.71V10.7093V10.7086V10.7079V10.7073V10.7067V10.7062V10.7056V10.7051V10.7046V10.7041V10.7037V10.7032V10.7028V10.7025V10.7021V10.7018V10.7015V10.7012V10.701V10.7008V10.7006V10.7004V10.7003V10.7002V10.7001V10.7V10.7L18.1264 10.7H18.3764V10.45H18.1264H14.0737H13.8237V10.7H14.0737L13.8237 10.7V10.7V10.7001V10.7002V10.7003V10.7005V10.7007V10.7009V10.7012V10.7015V10.7018V10.7022V10.7025V10.7029V10.7034V10.7039V10.7043V10.7049V10.7054V10.706V10.7066V10.7073V10.708V10.7087V10.7094V10.7102V10.711V10.7118V10.7126V10.7135V10.7144V10.7154V10.7163V10.7173V10.7183V10.7194V10.7205V10.7216V10.7227V10.7239V10.7251V10.7263V10.7275V10.7288V10.7301V10.7314V10.7328V10.7342V10.7356V10.737V10.7385V10.74V10.7415V10.7431V10.7447V10.7463V10.7479V10.7496V10.7512V10.753V10.7547V10.7565V10.7582V10.7601V10.7619V10.7638V10.7657V10.7676V10.7696V10.7715V10.7735V10.7756V10.7776V10.7797V10.7818V10.7839V10.7861V10.7883V10.7905V10.7927V10.795V10.7972V10.7995V10.8019V10.8042V10.8066V10.809V10.8115V10.8139V10.8164V10.8189V10.8214V10.824V10.8266V10.8292V10.8318V10.8345V10.8371V10.8398V10.8426V10.8453V10.8481V10.8509V10.8537V10.8565V10.8594V10.8623V10.8652V10.8682V10.8711V10.8741V10.8771V10.8801V10.8832V10.8863V10.8894V10.8925V10.8956V10.8988V10.902V10.9052V10.9084V10.9117V10.915V10.9183V10.9216V10.9249V10.9283V10.9317V10.9351V10.9385V10.942V10.9455V10.949V10.9525V10.956V10.9596V10.9632V10.9668V10.9704V10.9741V10.9777V10.9814V10.9851V10.9889V10.9926V10.9964V11.0002V11.004V11.0078V11.0117V11.0156V11.0195V11.0234V11.0273V11.0313V11.0353V11.0393V11.0433V11.0473V11.0514V11.0554V11.0595V11.0636V11.0678V11.0719V11.0761V11.0803V11.0845V11.0887V11.093V11.0973V11.1016V11.1059V11.1102V11.1145V11.1189V11.1233V11.1277V11.1321V11.1365V11.141V11.1455V11.1499V11.1545V11.159V11.1635V11.1681V11.1727V11.1773V11.1819V11.1865V11.1912V11.1958V11.2005V11.2052V11.21V11.2147V11.2195V11.2242V11.229V11.2338V11.2386V11.2435V11.2483V11.2532V11.2581V11.263V11.2679V11.2729V11.2778V11.2828V11.2878V11.2928V11.2978V11.3028V11.3079V11.313V11.318V11.3231V11.3283V11.3334V11.3385V11.3437V11.3489V11.3541V11.3593V11.3645V11.3697V11.375V11.3803V11.3855V11.3908V11.3961V11.4015V11.4068V11.4122V11.4175V11.4229V11.4283V11.4337V11.4391V11.4446V11.45V11.4555V11.461V11.4665V11.472V11.4775V11.4831V11.4886V11.4942V11.4997V11.5053V11.5109V11.5166V11.5222V11.5278V11.5335V11.5392V11.5448V11.5505V11.5562V11.562V11.5677V11.5734V11.5792V11.585V11.5907V11.5965V11.6023V11.6082V11.614V11.6198V11.6257V11.6316V11.6374V11.6433V11.6492V11.6551V11.6611V11.667V11.6729V11.6789V11.6849V11.6908V11.6968V11.7028V11.7088V11.7149V11.7209V11.7269V11.733V11.7391V11.7451V11.7512V11.7573V11.7634V11.7696V11.7757V11.7818V11.788V11.7941V11.8003V11.8065V11.8127V11.8189V11.8251V11.8313V11.8375V11.8437V11.85V11.8562V11.8625V11.8688V11.875V11.8813V11.8876V11.8939V11.9003V11.9066V11.9129V11.9192V11.9256V11.932V11.9383V11.9447V11.9511V11.9575V11.9639V11.9703V11.9767V11.9831V11.9895V11.996V12.0024V12.0089V12.0153V12.0218V12.0283V12.0348V12.0413V12.0478V12.0543V12.0608V12.0673V12.0738V12.0804V12.0869V12.0934V12.1V12.1065V12.1131V12.1197V12.1263V12.1328V12.1394V12.146V12.1526V12.1592V12.1659V12.1725V12.1791V12.1857V12.1924V12.199V12.2057V12.2123V12.219V12.2256V12.2323V12.239V12.2457V12.2523V12.259V12.2657V12.2724V12.2791V12.2858V12.2926V12.2993V12.306V12.3127V12.3195V12.3262V12.3329V12.3397V12.3464V12.3532V12.3599V12.3667V12.3734V12.3802V12.387V12.3938V12.4005V12.4073V12.4141V12.4209V12.4277V12.4345V12.4413V12.4481V12.4549V12.4617V12.4685V12.4753V12.4821V12.4889V12.4957V12.5026V12.5094V12.5162V12.523V12.5299V12.5367V12.5435V12.5504V12.5572V12.564V12.5709V12.5777V12.5846V12.5914V12.5983V12.6051V12.612V12.6188V12.6257V12.6325V12.6394V12.6462V12.6531V12.6599V12.6668V12.6737V12.6805V12.6874V12.6942V12.7011V12.708V12.7148V12.7217V12.7286V12.756V12.8109V12.8383V12.852V12.8657V12.8931V12.9205V12.9478V12.9751V13.0296V13.0839V13.1109V13.1379V13.1917C13.8237 14.2017 14.3934 14.8816 14.9347 15.2969C15.2059 15.5049 15.4757 15.6516 15.6771 15.7463C15.7782 15.7937 15.8629 15.8285 15.9232 15.8518C15.9533 15.8634 15.9774 15.8721 15.9945 15.8781L16.0147 15.885L16.0206 15.887L16.0225 15.8876L16.0231 15.8878L16.0234 15.8879C16.0235 15.8879 16.0236 15.888 16.1 15.65ZM16.1 15.65L16.1706 15.8898L16.0968 15.9115L16.0236 15.888L16.1 15.65Z" fill="white" stroke="#565656" stroke-width="0.5"/>
<mask id="mask2" mask-type="alpha" maskUnits="userSpaceOnUse" x="13" y="10" width="6" height="7">
<path d="M16.1 15.65C16.1706 15.8898 16.1707 15.8898 16.1708 15.8897L16.171 15.8897L16.1717 15.8895L16.1736 15.8889L16.1796 15.8871L16.2 15.8806C16.2172 15.875 16.2414 15.8669 16.2717 15.856C16.3323 15.8342 16.4173 15.8013 16.5187 15.756C16.7208 15.6656 16.9915 15.524 17.2637 15.3189C17.8085 14.9084 18.3764 14.2277 18.3764 13.1917V13.1838V13.1758V13.1679V13.1599V13.152V13.144V13.1361V13.1282V13.1203V13.1123V13.1044V13.0965V13.0886V13.0807V13.0729V13.065V13.0571V13.0492V13.0414V13.0335V13.0257V13.0178V13.01V13.0021V12.9943V12.9865V12.9787V12.9709V12.9631V12.9553V12.9475V12.9397V12.9319V12.9242V12.9164V12.9086V12.9009V12.8931V12.8854V12.8777V12.87V12.8622V12.8545V12.8468V12.8391V12.8314V12.8238V12.8161V12.8084V12.8008V12.7931V12.7855V12.7778V12.7702V12.7626V12.755V12.7474V12.7397V12.7322V12.7246V12.717V12.7094V12.7019V12.6943V12.6868V12.6792V12.6717V12.6642V12.6567V12.6491V12.6416V12.6342V12.6267V12.6192V12.6117V12.6043V12.5968V12.5894V12.5819V12.5745V12.5671V12.5597V12.5523V12.5449V12.5375V12.5302V12.5228V12.5154V12.5081V12.5007V12.4934V12.4861V12.4788V12.4715V12.4642V12.4569V12.4496V12.4424V12.4351V12.4278V12.4206V12.4134V12.4062V12.3989V12.3917V12.3846V12.3774V12.3702V12.363V12.3559V12.3487V12.3416V12.3345V12.3274V12.3203V12.3132V12.3061V12.299V12.2919V12.2849V12.2778V12.2708V12.2638V12.2568V12.2498V12.2428V12.2358V12.2288V12.2218V12.2149V12.2079V12.201V12.1941V12.1872V12.1803V12.1734V12.1665V12.1596V12.1528V12.1459V12.1391V12.1323V12.1255V12.1187V12.1119V12.1051V12.0983V12.0916V12.0848V12.0781V12.0713V12.0646V12.0579V12.0512V12.0446V12.0379V12.0312V12.0246V12.018V12.0113V12.0047V11.9981V11.9915V11.985V11.9784V11.9718V11.9653V11.9588V11.9523V11.9458V11.9393V11.9328V11.9263V11.9199V11.9134V11.907V11.9006V11.8942V11.8878V11.8814V11.875V11.8687V11.8623V11.856V11.8497V11.8434V11.8371V11.8308V11.8245V11.8183V11.812V11.8058V11.7996V11.7934V11.7872V11.781V11.7749V11.7687V11.7626V11.7565V11.7504V11.7443V11.7382V11.7321V11.7261V11.72V11.714V11.708V11.702V11.696V11.69V11.684V11.6781V11.6722V11.6662V11.6603V11.6544V11.6486V11.6427V11.6369V11.631V11.6252V11.6194V11.6136V11.6078V11.6021V11.5963V11.5906V11.5848V11.5791V11.5734V11.5678V11.5621V11.5565V11.5508V11.5452V11.5396V11.534V11.5284V11.5229V11.5173V11.5118V11.5063V11.5008V11.4953V11.4898V11.4844V11.4789V11.4735V11.4681V11.4627V11.4573V11.452V11.4466V11.4413V11.436V11.4307V11.4254V11.4201V11.4149V11.4096V11.4044V11.3992V11.394V11.3888V11.3837V11.3785V11.3734V11.3683V11.3632V11.3581V11.3531V11.348V11.343V11.338V11.333V11.328V11.323V11.3181V11.3131V11.3082V11.3033V11.2985V11.2936V11.2887V11.2839V11.2791V11.2743V11.2695V11.2647V11.26V11.2553V11.2506V11.2459V11.2412V11.2365V11.2319V11.2272V11.2226V11.218V11.2135V11.2089V11.2044V11.1998V11.1953V11.1908V11.1864V11.1819V11.1775V11.1731V11.1687V11.1643V11.1599V11.1556V11.1512V11.1469V11.1426V11.1384V11.1341V11.1299V11.1256V11.1214V11.1173V11.1131V11.1089V11.1048V11.1007V11.0966V11.0925V11.0885V11.0844V11.0804V11.0764V11.0724V11.0685V11.0645V11.0606V11.0567V11.0528V11.049V11.0451V11.0413V11.0375V11.0337V11.0299V11.0261V11.0224V11.0187V11.015V11.0113V11.0077V11.004V11.0004V10.9968V10.9932V10.9897V10.9861V10.9826V10.9791V10.9756V10.9722V10.9687V10.9653V10.9619V10.9585V10.9552V10.9518V10.9485V10.9452V10.9419V10.9386V10.9354V10.9322V10.929V10.9258V10.9226V10.9195V10.9164V10.9133V10.9102V10.9071V10.9041V10.9011V10.8981V10.8951V10.8922V10.8892V10.8863V10.8834V10.8806V10.8777V10.8749V10.8721V10.8693V10.8665V10.8638V10.861V10.8583V10.8557V10.853V10.8504V10.8478V10.8452V10.8426V10.84V10.8375V10.835V10.8325V10.83V10.8276V10.8252V10.8228V10.8204V10.818V10.8157V10.8134V10.8111V10.8088V10.8066V10.8044V10.8022V10.8V10.7978V10.7957V10.7936V10.7915V10.7894V10.7874V10.7854V10.7834V10.7814V10.7794V10.7775V10.7756V10.7737V10.7718V10.77V10.7682V10.7664V10.7646V10.7629V10.7611V10.7594V10.7577V10.7561V10.7545V10.7528V10.7513V10.7497V10.7481V10.7466V10.7451V10.7437V10.7422V10.7408V10.7394V10.738V10.7367V10.7353V10.734V10.7328V10.7315V10.7303V10.7291V10.7279V10.7267V10.7256V10.7245V10.7234V10.7223V10.7213V10.7202V10.7193V10.7183V10.7173V10.7164V10.7155V10.7147V10.7138V10.713V10.7122V10.7114V10.7107V10.71V10.7093V10.7086V10.7079V10.7073V10.7067V10.7062V10.7056V10.7051V10.7046V10.7041V10.7037V10.7032V10.7028V10.7025V10.7021V10.7018V10.7015V10.7012V10.701V10.7008V10.7006V10.7004V10.7003V10.7002V10.7001V10.7V10.7L18.1264 10.7H18.3764V10.45H18.1264H14.0737H13.8237V10.7H14.0737L13.8237 10.7V10.7V10.7001V10.7002V10.7003V10.7005V10.7007V10.7009V10.7012V10.7015V10.7018V10.7022V10.7025V10.7029V10.7034V10.7039V10.7043V10.7049V10.7054V10.706V10.7066V10.7073V10.708V10.7087V10.7094V10.7102V10.711V10.7118V10.7126V10.7135V10.7144V10.7154V10.7163V10.7173V10.7183V10.7194V10.7205V10.7216V10.7227V10.7239V10.7251V10.7263V10.7275V10.7288V10.7301V10.7314V10.7328V10.7342V10.7356V10.737V10.7385V10.74V10.7415V10.7431V10.7447V10.7463V10.7479V10.7496V10.7512V10.753V10.7547V10.7565V10.7582V10.7601V10.7619V10.7638V10.7657V10.7676V10.7696V10.7715V10.7735V10.7756V10.7776V10.7797V10.7818V10.7839V10.7861V10.7883V10.7905V10.7927V10.795V10.7972V10.7995V10.8019V10.8042V10.8066V10.809V10.8115V10.8139V10.8164V10.8189V10.8214V10.824V10.8266V10.8292V10.8318V10.8345V10.8371V10.8398V10.8426V10.8453V10.8481V10.8509V10.8537V10.8565V10.8594V10.8623V10.8652V10.8682V10.8711V10.8741V10.8771V10.8801V10.8832V10.8863V10.8894V10.8925V10.8956V10.8988V10.902V10.9052V10.9084V10.9117V10.915V10.9183V10.9216V10.9249V10.9283V10.9317V10.9351V10.9385V10.942V10.9455V10.949V10.9525V10.956V10.9596V10.9632V10.9668V10.9704V10.9741V10.9777V10.9814V10.9851V10.9889V10.9926V10.9964V11.0002V11.004V11.0078V11.0117V11.0156V11.0195V11.0234V11.0273V11.0313V11.0353V11.0393V11.0433V11.0473V11.0514V11.0554V11.0595V11.0636V11.0678V11.0719V11.0761V11.0803V11.0845V11.0887V11.093V11.0973V11.1016V11.1059V11.1102V11.1145V11.1189V11.1233V11.1277V11.1321V11.1365V11.141V11.1455V11.1499V11.1545V11.159V11.1635V11.1681V11.1727V11.1773V11.1819V11.1865V11.1912V11.1958V11.2005V11.2052V11.21V11.2147V11.2195V11.2242V11.229V11.2338V11.2386V11.2435V11.2483V11.2532V11.2581V11.263V11.2679V11.2729V11.2778V11.2828V11.2878V11.2928V11.2978V11.3028V11.3079V11.313V11.318V11.3231V11.3283V11.3334V11.3385V11.3437V11.3489V11.3541V11.3593V11.3645V11.3697V11.375V11.3803V11.3855V11.3908V11.3961V11.4015V11.4068V11.4122V11.4175V11.4229V11.4283V11.4337V11.4391V11.4446V11.45V11.4555V11.461V11.4665V11.472V11.4775V11.4831V11.4886V11.4942V11.4997V11.5053V11.5109V11.5166V11.5222V11.5278V11.5335V11.5392V11.5448V11.5505V11.5562V11.562V11.5677V11.5734V11.5792V11.585V11.5907V11.5965V11.6023V11.6082V11.614V11.6198V11.6257V11.6316V11.6374V11.6433V11.6492V11.6551V11.6611V11.667V11.6729V11.6789V11.6849V11.6908V11.6968V11.7028V11.7088V11.7149V11.7209V11.7269V11.733V11.7391V11.7451V11.7512V11.7573V11.7634V11.7696V11.7757V11.7818V11.788V11.7941V11.8003V11.8065V11.8127V11.8189V11.8251V11.8313V11.8375V11.8437V11.85V11.8562V11.8625V11.8688V11.875V11.8813V11.8876V11.8939V11.9003V11.9066V11.9129V11.9192V11.9256V11.932V11.9383V11.9447V11.9511V11.9575V11.9639V11.9703V11.9767V11.9831V11.9895V11.996V12.0024V12.0089V12.0153V12.0218V12.0283V12.0348V12.0413V12.0478V12.0543V12.0608V12.0673V12.0738V12.0804V12.0869V12.0934V12.1V12.1065V12.1131V12.1197V12.1263V12.1328V12.1394V12.146V12.1526V12.1592V12.1659V12.1725V12.1791V12.1857V12.1924V12.199V12.2057V12.2123V12.219V12.2256V12.2323V12.239V12.2457V12.2523V12.259V12.2657V12.2724V12.2791V12.2858V12.2926V12.2993V12.306V12.3127V12.3195V12.3262V12.3329V12.3397V12.3464V12.3532V12.3599V12.3667V12.3734V12.3802V12.387V12.3938V12.4005V12.4073V12.4141V12.4209V12.4277V12.4345V12.4413V12.4481V12.4549V12.4617V12.4685V12.4753V12.4821V12.4889V12.4957V12.5026V12.5094V12.5162V12.523V12.5299V12.5367V12.5435V12.5504V12.5572V12.564V12.5709V12.5777V12.5846V12.5914V12.5983V12.6051V12.612V12.6188V12.6257V12.6325V12.6394V12.6462V12.6531V12.6599V12.6668V12.6737V12.6805V12.6874V12.6942V12.7011V12.708V12.7148V12.7217V12.7286V12.756V12.8109V12.8383V12.852V12.8657V12.8931V12.9205V12.9478V12.9751V13.0296V13.0839V13.1109V13.1379V13.1917C13.8237 14.2017 14.3934 14.8816 14.9347 15.2969C15.2059 15.5049 15.4757 15.6516 15.6771 15.7463C15.7782 15.7937 15.8629 15.8285 15.9232 15.8518C15.9533 15.8634 15.9774 15.8721 15.9945 15.8781L16.0147 15.885L16.0206 15.887L16.0225 15.8876L16.0231 15.8878L16.0234 15.8879C16.0235 15.8879 16.0236 15.888 16.1 15.65ZM16.1 15.65L16.1706 15.8898L16.0968 15.9115L16.0236 15.888L16.1 15.65Z" fill="white" stroke="white" stroke-width="0.5"/>
</mask>
<g mask="url(#mask2)">
<path opacity="0.4" fill-rule="evenodd" clip-rule="evenodd" d="M14.1968 13.9088L16.1301 12.4846L18.163 14.0702V16.3271H14.1968V13.9088Z" fill="#84CEFF"/>
<path fill-rule="evenodd" clip-rule="evenodd" d="M14.2579 14.4125H17.85V14.9125H14.2579V14.4125Z" fill="#006AC9"/>
<path fill-rule="evenodd" clip-rule="evenodd" d="M14.4421 14.9075H17.7579V15.1726H14.4421V14.9075Z" fill="#59C800"/>
<path fill-rule="evenodd" clip-rule="evenodd" d="M14.4421 15.2374H17.7579V15.7374H14.4421V15.2374Z" fill="#FFD800"/>
<path fill-rule="evenodd" clip-rule="evenodd" d="M18.7265 14.5106L16.1362 12.5326L16.1362 9.8623H18.7265V14.5106Z" fill="#F7D85D"/>
<path fill-rule="evenodd" clip-rule="evenodd" d="M15.5474 13.4225C15.5474 13.4225 15.6292 13.8474 15.6919 13.8474C15.7545 13.8474 15.8677 13.4225 15.8677 13.4225C15.8677 13.4225 15.8811 13.8474 15.9441 13.8474C16.0072 13.8474 15.9994 13.4913 16.1 13.4225C16.1364 13.3976 16.1824 13.8452 16.2384 13.8474C16.2854 13.8492 16.4004 13.4225 16.4004 13.4225C16.4004 13.4225 16.4352 13.8474 16.4895 13.8474C16.5439 13.8474 16.6526 13.4225 16.6526 13.4225V14.495H15.5474V13.4225Z" fill="#F5F6F6"/>
<path fill-rule="evenodd" clip-rule="evenodd" d="M16.1001 14.84C16.6596 14.84 17.1132 14.7443 17.1132 14.6262C17.1132 14.5082 16.6596 14.4125 16.1001 14.4125C15.5405 14.4125 15.0869 14.5082 15.0869 14.6262C15.0869 14.7443 15.5405 14.84 16.1001 14.84Z" fill="#892E2E"/>
<path d="M14.2894 11.104L14.4977 10.9414L15.8985 12.3809L15.6902 12.5435L14.2894 11.104Z" fill="#A46031"/>
<path d="M14.5147 12.7674L14.2935 12.6191L15.6557 10.988L15.877 11.1363L14.5147 12.7674Z" fill="#892E2E"/>
<path d="M16.4078 11.3181L16.6161 11.189L18.0169 12.332L17.8086 12.4611L16.4078 11.3181Z" fill="#A46031"/>
<path d="M16.701 12.4859L16.4418 12.3098L17.7741 11.2355L18.0582 11.4695L16.701 12.4859Z" fill="#F5F6F6"/>
</g>
<path fill-rule="evenodd" clip-rule="evenodd" d="M14.567 16.5348L15.2174 16.7386V17.3H14.567V16.5348Z" fill="#6699FF"/>
<path fill-rule="evenodd" clip-rule="evenodd" d="M14.1024 15.387L14.4683 15.5907V16.1522H14.1024V15.387Z" fill="#6699FF"/>
<path fill-rule="evenodd" clip-rule="evenodd" d="M17.5403 16.5348L16.8899 16.7386V17.3H17.5403V16.5348Z" fill="#6699FF"/>
<path fill-rule="evenodd" clip-rule="evenodd" d="M18.0049 15.387L17.639 15.5907V16.1522H18.0049V15.387Z" fill="#6699FF"/>
<path d="M13.7479 16.5761C13.6288 16.5761 13.5297 16.5789 13.4164 16.5843C13.1418 16.5975 13.1245 16.5972 13.0487 16.566C13.0032 16.5473 12.9577 16.5171 12.8923 16.4634C12.7372 16.336 12.5701 16.0435 12.3887 15.5846L12.3892 15.5653C12.6131 15.0812 13.0736 15.0212 13.7584 15.3801C13.9388 15.4746 14.4648 15.7605 14.4605 15.7582C14.6997 15.8862 14.8675 15.9682 15.0324 16.0346C15.3742 16.1722 15.6965 16.2347 16.1098 16.2347C16.3581 16.2347 16.6456 16.1642 16.981 16.031C17.1748 15.954 17.3765 15.86 17.6225 15.7351C17.6549 15.7187 18.1696 15.451 18.2969 15.3897C18.5196 15.2825 18.6665 15.2306 18.7678 15.2306C18.7954 15.2306 18.8167 15.2305 18.8702 15.2302C18.9627 15.2296 19.0067 15.2296 19.0601 15.2302C19.5538 15.2362 19.7974 15.3185 19.7974 15.5756C19.7974 15.8185 19.6394 16.1482 19.3244 16.5668L19.3091 16.5759C18.6859 16.6599 18.3245 16.6599 18.2133 16.5711C18.183 16.5469 18.0999 16.5579 17.9472 16.6068C17.878 16.629 17.5075 16.7615 17.393 16.7994C16.9165 16.9574 16.5081 17.0423 16.0922 17.0423C15.4588 17.0423 14.7655 16.7966 14.0123 16.3058C14.1488 16.4793 14.0624 16.5761 13.7479 16.5761Z" fill="white"/>
<path fill-rule="evenodd" clip-rule="evenodd" d="M13.4164 16.5843C13.5297 16.5789 13.6288 16.5761 13.7479 16.5761C14.0624 16.5761 14.1488 16.4793 14.0123 16.3058C14.7655 16.7966 15.4588 17.0423 16.0922 17.0423C16.5081 17.0423 16.9165 16.9574 17.393 16.7994C17.4513 16.7801 17.5756 16.7364 17.6929 16.6952C17.8064 16.6553 17.9132 16.6177 17.9472 16.6068C18.0999 16.5579 18.183 16.5469 18.2133 16.5711C18.3245 16.6599 18.6859 16.6599 19.3091 16.5759L19.3244 16.5668C19.6394 16.1482 19.7974 15.8185 19.7974 15.5756C19.7974 15.3185 19.5538 15.2362 19.0601 15.2302C19.0067 15.2296 18.9627 15.2296 18.8702 15.2302C18.8167 15.2305 18.7954 15.2306 18.7678 15.2306C18.6665 15.2306 18.5196 15.2825 18.2969 15.3897C18.1962 15.4382 17.8534 15.6156 17.6983 15.6959C17.6572 15.7172 17.6293 15.7317 17.6225 15.7351C17.3765 15.86 17.1748 15.954 16.981 16.031C16.6456 16.1642 16.3581 16.2347 16.1098 16.2347C15.6965 16.2347 15.3742 16.1722 15.0324 16.0346C14.8675 15.9682 14.6997 15.8862 14.4605 15.7582C14.4648 15.7605 13.9388 15.4746 13.7584 15.3801C13.0736 15.0212 12.6131 15.0812 12.3892 15.5653L12.3887 15.5846C12.5701 16.0435 12.7372 16.336 12.8923 16.4634C12.9577 16.5171 13.0032 16.5473 13.0487 16.566C13.1245 16.5972 13.1418 16.5975 13.4164 16.5843ZM13.066 16.5216C13.0255 16.505 12.9834 16.477 12.9213 16.426C12.7753 16.3061 12.6127 16.0225 12.4356 15.5764C12.6477 15.13 13.0776 15.077 13.7374 15.4227C13.9174 15.5171 14.4431 15.8028 14.439 15.8006C14.6797 15.9294 14.8487 16.012 15.0154 16.0792C15.3626 16.219 15.6907 16.2825 16.1098 16.2825C16.3647 16.2825 16.6574 16.2107 16.9978 16.0756C17.1931 15.998 17.3959 15.9034 17.643 15.778C17.65 15.7745 17.6784 15.7598 17.7201 15.7382C17.8759 15.6575 18.2167 15.4811 18.3166 15.4331C18.5331 15.3288 18.6757 15.2784 18.7678 15.2784C18.7955 15.2784 18.8169 15.2783 18.8704 15.278C18.9627 15.2774 19.0065 15.2774 19.0595 15.278C19.5271 15.2837 19.751 15.3593 19.751 15.5756C19.751 15.8037 19.5988 16.1225 19.2936 16.5298C18.6921 16.6103 18.3377 16.6099 18.2418 16.5333C18.1936 16.4948 18.1032 16.5067 17.9334 16.5612C17.8988 16.5723 17.7907 16.6103 17.6766 16.6504C17.5597 16.6915 17.4363 16.7348 17.3788 16.7539C16.9065 16.9105 16.5025 16.9945 16.0922 16.9945C15.3923 16.9945 14.6153 16.6887 13.7612 16.0764L13.7342 16.1154C14.1241 16.4082 14.1241 16.5283 13.7479 16.5283C13.6281 16.5283 13.5282 16.5311 13.4143 16.5365C13.1493 16.5492 13.1325 16.5489 13.066 16.5216Z" fill="#666666"/>
<path d="M13.0283 15.8085L12.9612 15.7424C13.1127 15.5793 13.3134 15.5382 13.5552 15.6181C13.6492 15.6492 14.2617 16.0033 14.4254 16.0863C15.0232 16.3899 15.5924 16.5594 16.1969 16.5594C17.0659 16.5594 17.9054 16.285 18.713 15.7379C19.0182 15.4904 19.2091 15.4904 19.2091 15.7755H19.1162C19.1162 15.6055 19.0265 15.6055 18.7673 15.8154C17.9418 16.3749 17.0847 16.655 16.1969 16.655C15.5761 16.655 14.9939 16.4816 14.3843 16.1721C14.2128 16.0851 13.6103 15.7368 13.5268 15.7092C13.3173 15.6399 13.1539 15.6734 13.0283 15.8085Z" fill="#565757"/>
<path fill-rule="evenodd" clip-rule="evenodd" d="M16.4904 6.9436L16.3094 6.9445C16.3138 7.68703 16.1475 8.15608 15.8237 8.35753C15.7982 8.37342 15.7662 8.39235 15.7312 8.41268C15.7006 8.3302 15.6608 8.23059 15.61 8.10593L15.5939 8.06637C15.4017 7.59341 15.3588 7.37526 15.4575 7.31698L15.3596 7.17735C15.142 7.30587 15.189 7.54516 15.4244 8.12439L15.4405 8.16413C15.499 8.30748 15.5421 8.41638 15.5731 8.50277L15.5536 8.51377L15.5536 8.51377L15.5536 8.51377C15.5438 8.51926 15.5343 8.52466 15.5249 8.52993C15.4309 8.48212 15.3221 8.45807 15.1981 8.45807C14.6224 8.45807 14.2236 8.30726 13.9918 8.0089L13.8445 8.10529C14.114 8.45225 14.5685 8.62411 15.1981 8.62411C15.2495 8.62411 15.2977 8.63028 15.3427 8.64269C15.251 8.72084 15.2388 8.80271 15.2388 9.08426C15.2388 9.26052 15.2768 9.49438 15.3528 9.78668C15.2943 9.71173 15.2397 9.6763 15.1843 9.6763V9.84234C15.1763 9.84234 15.1711 9.84115 15.1689 9.84067L15.1681 9.8405L15.1673 9.83977L15.1664 9.83924L15.1684 9.84075L15.1681 9.8405C15.1736 9.84457 15.1813 9.85198 15.1904 9.86265C15.2157 9.89213 15.2466 9.93964 15.2818 10.0043C15.3554 10.1393 15.4457 10.3444 15.5522 10.6187L15.6079 10.6004L15.6123 10.6128L15.6423 10.6039V10.6089H15.6994L15.7003 10.6549L15.8812 10.6512C15.8807 10.6336 15.8804 10.6163 15.8802 10.5991L15.9141 10.6029C15.9508 10.3317 15.9723 10.0856 15.9781 9.86487C16.0415 9.68925 16.1352 9.56219 16.2579 9.48308C16.5666 9.28393 16.7479 9.09244 16.7974 8.90241L16.6215 8.86376C16.5844 9.00595 16.4299 9.16917 16.1538 9.34724C16.0856 9.39123 16.0253 9.44547 15.9726 9.50988C15.9553 9.23707 15.9057 9.01645 15.8232 8.84904V8.8C15.8232 8.73261 15.8133 8.66681 15.7869 8.5768C15.8383 8.54731 15.8872 8.51862 15.9252 8.49497C16.311 8.25497 16.495 7.73589 16.4904 6.9436ZM15.513 8.73189C15.5624 8.77317 15.6055 8.8264 15.6423 8.89168V10.1391C15.4938 9.66876 15.4197 9.31634 15.4197 9.08426C15.4197 8.82429 15.4271 8.7914 15.4874 8.74755C15.4911 8.74484 15.5 8.73943 15.513 8.73189Z" fill="#984800"/>
<path fill-rule="evenodd" clip-rule="evenodd" d="M16.9833 7.08529C16.8465 7.12546 16.6709 7.1354 16.4846 7.10588C16.2785 7.07324 16.0999 6.99882 15.9809 6.90614C15.9882 6.9292 15.9918 6.95285 15.9914 6.9769C15.9874 7.20611 15.6197 7.38557 15.1701 7.37772C14.7205 7.36987 14.3593 7.17769 14.3633 6.94848C14.3673 6.71926 14.735 6.53981 15.1846 6.54766C15.455 6.55238 15.6934 6.62377 15.8396 6.72979C15.8268 6.69463 15.8226 6.65898 15.8282 6.62369C15.8605 6.4199 16.2067 6.30539 16.6014 6.36791C16.9962 6.43043 17.2901 6.64632 17.2578 6.8501C17.2519 6.88708 17.2357 6.92112 17.2108 6.9517C17.4052 6.89572 17.6729 6.90892 17.9463 7.00304C18.4186 7.16569 18.729 7.50841 18.6394 7.76853C18.5498 8.02864 18.0943 8.10765 17.6219 7.94499C17.5651 7.92542 17.5106 7.90325 17.4589 7.87893C17.3315 8.07672 16.9739 8.18125 16.5779 8.11852C16.1091 8.04427 15.764 7.76382 15.807 7.4921C15.85 7.22039 16.2649 7.06031 16.7337 7.13456C16.8016 7.14532 16.867 7.1604 16.9289 7.17916C16.9408 7.14463 16.9592 7.11329 16.9833 7.08529ZM14.2733 6.98398C14.3733 7.16444 14.171 7.46781 13.8215 7.66157C13.4719 7.85534 13.1074 7.86613 13.0074 7.68568C12.9074 7.50522 13.1096 7.20185 13.4592 7.00808C13.8088 6.81432 14.1733 6.80352 14.2733 6.98398ZM15.3666 8.11812C15.3622 8.37026 14.9132 8.56688 14.3638 8.55729C13.8143 8.5477 13.3724 8.33553 13.3768 8.08339C13.3812 7.83126 13.8302 7.63463 14.3797 7.64422C14.9292 7.65382 15.371 7.86599 15.3666 8.11812ZM14.7335 9.88176C15.2294 9.82088 15.6088 9.58706 15.5808 9.35952C15.5529 9.13198 15.1282 8.99688 14.6324 9.05776C14.1365 9.11865 13.7572 9.35247 13.7851 9.58001C13.813 9.80755 14.2377 9.94265 14.7335 9.88176ZM16.5625 10.1855C17.0006 10.2866 17.4018 10.1694 17.4585 9.92373C17.5152 9.67802 17.2061 9.39684 16.768 9.29569C16.3298 9.19454 15.9287 9.31174 15.872 9.55745C15.8152 9.80316 16.1244 10.0843 16.5625 10.1855ZM16.949 9.25273C17.6111 9.38142 18.1868 9.28507 18.2349 9.03753C18.2831 8.78999 17.7854 8.48499 17.1233 8.3563C16.4612 8.2276 15.8855 8.32395 15.8374 8.57149C15.7893 8.81903 16.287 9.12403 16.949 9.25273Z" fill="#247805"/>
<path fill-rule="evenodd" clip-rule="evenodd" d="M12.2451 10.9392C12.2451 10.9392 11.9323 13.9094 11.9323 14.3119C11.9323 14.7144 12.5081 14.3119 12.5081 14.3119C12.5081 14.3119 12.5926 12.8935 12.7887 12.3666C12.9848 11.8396 13.0774 12.4185 13.0774 12.7262C13.0774 13.0338 13.0774 14.473 13.0774 14.473C13.0774 14.473 13.7939 14.5705 13.7939 14.3119C13.7939 14.0533 13.4958 10.9392 13.4958 10.9392H12.4119H12.2451Z" fill="white"/>
<path fill-rule="evenodd" clip-rule="evenodd" d="M12.2052 10.8975L12.2013 10.9351C11.9924 12.9177 11.8882 14.0414 11.8882 14.3119C11.8882 14.6304 12.1267 14.6304 12.5342 14.3455L12.5508 14.3339L12.552 14.3143C12.6082 13.3724 12.7013 12.727 12.8302 12.3805C12.9079 12.1717 12.9305 12.1624 12.9654 12.2485C13.0063 12.3491 13.0333 12.5543 13.0333 12.7262V14.5092L13.0711 14.5143C13.5737 14.5828 13.838 14.5234 13.838 14.3119C13.838 14.201 13.7862 13.5892 13.6984 12.6305L13.6887 12.525C13.6561 12.1702 13.6212 11.7961 13.5862 11.4261L13.5525 11.0698L13.543 10.9705L13.5396 10.9355L13.536 10.8975H12.2052ZM12.4652 14.2899C12.1171 14.5301 11.9763 14.5268 11.9763 14.3119C11.9763 14.0474 12.0793 12.9352 12.285 10.981H13.4555L13.4647 11.0773L13.4985 11.4336C13.5334 11.8035 13.5684 12.1775 13.601 12.5322L13.6106 12.6377C13.6978 13.5894 13.7499 14.205 13.7499 14.3119C13.7499 14.4416 13.5483 14.4905 13.1214 14.4366V12.7262C13.1214 12.5449 13.0932 12.3306 13.0477 12.2184C12.9724 12.0332 12.8467 12.0852 12.7472 12.3527C12.6156 12.7063 12.522 13.3512 12.4652 14.2899Z" fill="#979797"/>
<path fill-rule="evenodd" clip-rule="evenodd" d="M11.2067 9.91757C11.2067 9.91757 11.4524 10.8021 11.5612 10.8021C11.6699 10.8021 12.3302 10.2593 12.3302 10.2593V10.996H13.5605V10.6697L13.7183 10.996L13.9334 10.8954L14.3056 10.4568H13.9334C13.9334 10.4568 13.8253 9.7524 13.8253 9.641C13.8253 9.52961 13.8297 9.30923 13.5605 9.22947C13.2912 9.14971 13.1592 9.00848 13.1592 9.00848C13.1592 9.00848 13.7389 8.17822 13.2975 8.17822C12.856 8.17822 12.6562 8.28466 12.6562 8.28466C12.6562 8.28466 12.6562 8.77762 12.6562 8.89305C12.6562 9.00848 12.0229 8.87181 12.0229 9.22947C12.0229 9.58713 11.7276 9.91757 11.7276 9.91757L11.6525 9.67803L11.2067 9.91757Z" fill="#FF863B"/>
<path fill-rule="evenodd" clip-rule="evenodd" d="M13.0668 8.38286C13.3101 8.38286 13.5073 8.28595 13.5073 8.16641C13.5073 8.04686 13.3101 7.94995 13.0668 7.94995C12.8236 7.94995 12.6263 8.04686 12.6263 8.16641C12.6263 8.28595 12.8236 8.38286 13.0668 8.38286Z" fill="black"/>
<path d="M10.8471 10.2599L10.6483 10.0948C11.0314 9.68007 11.4576 9.37835 11.9265 9.19106C12.3706 9.01371 12.9509 8.73065 13.6664 8.34216L13.7977 8.55967C13.0737 8.95277 12.4846 9.24013 12.0291 9.42204C11.5985 9.59401 11.2047 9.87282 10.8471 10.2599Z" fill="#740000"/>
<path fill-rule="evenodd" clip-rule="evenodd" d="M13.6578 8.43301L13.8248 9.21719L14.5661 8.8251L13.9823 8.17627L13.6578 8.43301Z" fill="#F9FCFF" stroke="#6C6C6C" stroke-width="0.5"/>
<path fill-rule="evenodd" clip-rule="evenodd" d="M19.8592 11.307C19.8592 11.307 20.1696 14.407 20.1696 14.8271C20.1696 15.2472 19.5984 14.8271 19.5984 14.8271C19.5984 14.8271 19.5145 13.3467 19.32 12.7967C19.1255 12.2468 19.0337 12.851 19.0337 13.1721C19.0337 13.4932 19.0337 14.9952 19.0337 14.9952C19.0337 14.9952 18.3229 15.097 18.3229 14.8271C18.3229 14.5571 18.6187 11.307 18.6187 11.307H19.6937H19.8592Z" fill="white"/>
<path fill-rule="evenodd" clip-rule="evenodd" d="M19.8988 11.2634L19.9027 11.3027C20.1099 13.372 20.2133 14.5448 20.2133 14.8271C20.2133 15.1595 19.9766 15.1595 19.5725 14.8622L19.556 14.85L19.5548 14.8296C19.4991 13.8465 19.4067 13.1729 19.2788 12.8113C19.2018 12.5934 19.1794 12.5836 19.1447 12.6735C19.1042 12.7785 19.0774 12.9926 19.0774 13.1721V15.033L19.0399 15.0384C18.5414 15.1098 18.2792 15.0478 18.2792 14.8271C18.2792 14.7114 18.3306 14.0728 18.4177 13.0722L18.4273 12.962C18.4596 12.5918 18.4943 12.2014 18.5289 11.8152L18.5624 11.4433L18.5718 11.3397L18.5752 11.3031L18.5788 11.2634H19.8988ZM19.6409 14.8041C19.9862 15.0548 20.1259 15.0514 20.1259 14.8271C20.1259 14.551 20.0237 13.3902 19.8197 11.3506H18.6586L18.6495 11.4511L18.616 11.823C18.5813 12.2091 18.5467 12.5994 18.5143 12.9696L18.5047 13.0797C18.4183 14.073 18.3666 14.7155 18.3666 14.8271C18.3666 14.9624 18.5666 15.0135 18.99 14.9572V13.1721C18.99 12.9828 19.018 12.7592 19.0632 12.6421C19.1378 12.4488 19.2625 12.5031 19.3612 12.7823C19.4918 13.1513 19.5846 13.8244 19.6409 14.8041Z" fill="#979797"/>
<path fill-rule="evenodd" clip-rule="evenodd" d="M20.9109 10.178C20.9109 10.178 20.6671 11.1012 20.5592 11.1012C20.4514 11.1012 19.7964 10.5347 19.7964 10.5347V11.3036H18.5761V10.9631L18.4196 11.3036L18.2062 11.1986L17.837 10.7408H18.2062C18.2062 10.7408 18.3134 10.0056 18.3134 9.88937C18.3134 9.77311 18.3091 9.54311 18.5761 9.45986C18.8432 9.37661 18.9742 9.22921 18.9742 9.22921C18.9742 9.22921 18.3991 8.36267 18.837 8.36267C19.2749 8.36267 19.4731 8.47376 19.4731 8.47376C19.4731 8.47376 19.4731 8.98827 19.4731 9.10874C19.4731 9.22921 20.1012 9.08657 20.1012 9.45986C20.1012 9.83315 20.3941 10.178 20.3941 10.178L20.4687 9.92802L20.9109 10.178Z" fill="#824028"/>
<path fill-rule="evenodd" clip-rule="evenodd" d="M19.0657 8.57622C18.8244 8.57622 18.6288 8.47507 18.6288 8.3503C18.6288 8.22554 18.8244 8.12439 19.0657 8.12439C19.3071 8.12439 19.5027 8.22554 19.5027 8.3503C19.5027 8.47507 19.3071 8.57622 19.0657 8.57622Z" fill="black"/>
<path d="M21.5252 10.3456L18.8526 8.95253C18.8526 8.95253 18.8031 8.48455 18.2869 8.34366C17.7707 8.20276 17.359 7.98474 17.359 7.98474L17.124 8.34366C17.124 8.34366 16.7054 8.23318 18.2869 8.95253C19.8684 9.67187 18.2273 8.56263 18.6769 8.95253L21.5252 10.3456Z" fill="#BA611F"/>
</g>
</g>
</svg>
