<svg width="32" height="24" viewBox="0 0 32 24" fill="none" xmlns="http://www.w3.org/2000/svg">
<path d="M0 0V7H32V0L0 0Z" fill="#002488"/>
<path d="M0.000732422 7V24H32.0007V7L0.000732422 7Z" fill="#DA121A"/>
<path d="M5.02799 0.789522C4.6458 1.41978 4.6002 1.92393 4.86105 2.79447C4.98664 3.20072 5.1246 3.80738 5.18256 4.13625C5.25985 4.60054 5.25176 4.64468 5.26261 4.74563C5.35922 4.74563 5.57877 4.746 5.68029 4.74539C5.69488 4.58465 5.70668 4.39911 5.74096 4.14398C5.78092 3.84651 5.89944 3.22436 6.02691 2.79223C6.28164 1.9287 6.26458 1.3989 5.86849 0.799195C5.72357 0.576724 5.53036 0.392944 5.44341 0.392944C5.35646 0.392944 5.15976 0.5628 5.02799 0.789522Z" fill="#FCDD09"/>
<path d="M5.86076 4.33313C5.82793 4.49943 5.81993 4.55813 5.80347 4.74557C5.92057 4.74604 5.96659 4.74684 6.08074 4.74616C6.10573 4.62007 6.12372 4.5535 6.1788 4.37453C6.39712 3.68235 7.04016 3.40456 7.01117 4.05262C7.00151 4.23157 6.92608 4.33148 6.84212 4.42741C6.94591 4.4015 7.16633 4.29851 7.34506 4.19694C8.34013 3.59724 7.94828 2.12777 6.9049 2.57271C6.36389 2.80486 6.0385 3.4475 5.86076 4.33313Z" fill="#FCDD09"/>
<path d="M4.69434 4.9896C5.13096 4.99184 5.88557 4.99585 6.24802 4.99361C6.24844 4.88611 6.24979 4.94097 6.25068 4.8541C5.98385 4.85153 4.96208 4.85577 4.6964 4.85577C4.69701 4.91197 4.6958 4.93919 4.69434 4.9896L4.69434 4.9896Z" fill="#FCDD09"/>
<path d="M4.41943 5.78025C4.41943 5.78025 4.63693 5.80473 4.83977 5.78992C5.0426 5.77511 5.15515 5.74976 5.27503 5.69146C5.24248 5.93346 5.24061 6.16715 5.24061 6.16715C5.27011 6.47858 5.30349 6.55829 5.37094 6.70986C5.46246 6.8363 5.51568 6.83699 5.58296 6.70348C5.65568 6.55399 5.70355 6.40024 5.71874 6.1657C5.71346 5.98991 5.70364 5.90936 5.66206 5.69448C5.8024 5.75528 5.89105 5.77104 6.10043 5.78992C6.31469 5.80923 6.51162 5.79976 6.51162 5.79976C6.51162 5.79976 6.22221 5.65434 6.09482 5.47599C5.96907 5.29994 5.99589 5.32987 5.90446 5.10307C5.79336 5.0978 5.23006 5.10299 5.05134 5.10299C4.95345 5.30975 4.94361 5.35293 4.8227 5.48341C4.6653 5.65326 4.41943 5.78025 4.41943 5.78025Z" fill="#FCDD09"/>
<path d="M4.02731 2.57247C4.56832 2.80461 4.89371 3.44726 5.07146 4.33289C5.10428 4.49919 5.11229 4.55789 5.12875 4.74532C5.01164 4.7458 4.96562 4.7466 4.85147 4.74591C4.82648 4.61982 4.80849 4.55326 4.75342 4.37429C4.53509 3.68211 3.89206 3.40431 3.92104 4.05238C3.9307 4.23132 4.00613 4.33124 4.09009 4.42717C3.9863 4.40126 3.76588 4.29826 3.58715 4.1967C2.59208 3.597 2.98393 2.12753 4.02731 2.57247V2.57247Z" fill="#FCDD09"/>
<path d="M15.028 0.789522C14.6458 1.41978 14.6002 1.92393 14.861 2.79447C14.9866 3.20072 15.1246 3.80738 15.1826 4.13625C15.2599 4.60054 15.2518 4.64468 15.2626 4.74563C15.3592 4.74563 15.5788 4.746 15.6803 4.74539C15.6949 4.58465 15.7067 4.39911 15.741 4.14398C15.7809 3.84651 15.8994 3.22436 16.0269 2.79223C16.2816 1.9287 16.2646 1.3989 15.8685 0.799195C15.7236 0.576724 15.5304 0.392944 15.4434 0.392944C15.3565 0.392944 15.1598 0.5628 15.028 0.789522Z" fill="#FCDD09"/>
<path d="M16.9049 2.57271C16.3639 2.80486 16.0385 3.4475 15.8608 4.33313C15.8279 4.49943 15.8199 4.55813 15.8035 4.74557C15.9206 4.74604 15.9666 4.74684 16.0807 4.74616C16.1057 4.62007 16.1237 4.5535 16.1788 4.37453C16.3971 3.68235 17.0402 3.40456 17.0112 4.05262C17.0015 4.23157 16.9261 4.33148 16.8421 4.42741C16.9459 4.4015 17.1663 4.29851 17.3451 4.19694C18.3401 3.59724 17.9483 2.12777 16.9049 2.57271V2.57271Z" fill="#FCDD09"/>
<path d="M14.6943 4.9896C15.131 4.99184 15.8856 4.99585 16.248 4.99361C16.2484 4.88611 16.2498 4.94097 16.2507 4.8541C15.9839 4.85153 14.9621 4.85577 14.6964 4.85577C14.697 4.91197 14.6958 4.93919 14.6943 4.9896L14.6943 4.9896Z" fill="#FCDD09"/>
<path d="M14.8227 5.48341C14.6653 5.65326 14.4194 5.78025 14.4194 5.78025C14.4194 5.78025 14.6369 5.80473 14.8398 5.78992C15.0426 5.77511 15.1552 5.74976 15.275 5.69146C15.2425 5.93346 15.2406 6.16715 15.2406 6.16715C15.2701 6.47858 15.3035 6.55829 15.3709 6.70986C15.4625 6.8363 15.5157 6.83699 15.583 6.70348C15.6557 6.55399 15.7035 6.40024 15.7187 6.1657C15.7135 5.98991 15.7036 5.90936 15.6621 5.69448C15.8024 5.75528 15.891 5.77104 16.1004 5.78992C16.3147 5.80923 16.5116 5.79976 16.5116 5.79976C16.5116 5.79976 16.2222 5.65434 16.0948 5.47599C15.9691 5.29994 15.9959 5.32987 15.9045 5.10307C15.7934 5.0978 15.2301 5.10299 15.0513 5.10299C14.9534 5.30975 14.9436 5.35293 14.8227 5.48341V5.48341Z" fill="#FCDD09"/>
<path d="M14.0273 2.57247C14.5683 2.80461 14.8937 3.44726 15.0715 4.33289C15.1043 4.49919 15.1123 4.55789 15.1287 4.74532C15.0116 4.7458 14.9656 4.7466 14.8515 4.74591C14.8265 4.61982 14.8085 4.55326 14.7534 4.37429C14.5351 3.68211 13.8921 3.40431 13.921 4.05238C13.9307 4.23132 14.0061 4.33124 14.0901 4.42717C13.9863 4.40126 13.7659 4.29826 13.5872 4.1967C12.5921 3.597 12.9839 2.12753 14.0273 2.57247V2.57247Z" fill="#FCDD09"/>
<path d="M25.028 0.789522C24.6458 1.41978 24.6002 1.92393 24.861 2.79447C24.9866 3.20072 25.1246 3.80738 25.1826 4.13625C25.2599 4.60054 25.2518 4.64468 25.2626 4.74563C25.3592 4.74563 25.5788 4.746 25.6803 4.74539C25.6949 4.58465 25.7067 4.39911 25.741 4.14398C25.7809 3.84651 25.8994 3.22436 26.0269 2.79223C26.2816 1.9287 26.2646 1.3989 25.8685 0.799195C25.7236 0.576724 25.5304 0.392944 25.4434 0.392944C25.3565 0.392944 25.1598 0.5628 25.028 0.789522Z" fill="#FCDD09"/>
<path d="M26.9049 2.57271C26.3639 2.80486 26.0385 3.4475 25.8608 4.33313C25.8279 4.49943 25.8199 4.55813 25.8035 4.74557C25.9206 4.74604 25.9666 4.74684 26.0807 4.74616C26.1057 4.62007 26.1237 4.5535 26.1788 4.37453C26.3971 3.68235 27.0402 3.40456 27.0112 4.05262C27.0015 4.23157 26.9261 4.33148 26.8421 4.42741C26.9459 4.4015 27.1663 4.29851 27.3451 4.19694C28.3401 3.59724 27.9483 2.12777 26.9049 2.57271V2.57271Z" fill="#FCDD09"/>
<path d="M24.6943 4.9896C25.131 4.99184 25.8856 4.99585 26.248 4.99361C26.2484 4.88611 26.2498 4.94097 26.2507 4.8541C25.9839 4.85153 24.9621 4.85577 24.6964 4.85577C24.697 4.91197 24.6958 4.93919 24.6943 4.9896L24.6943 4.9896Z" fill="#FCDD09"/>
<path d="M24.8227 5.48341C24.6653 5.65326 24.4194 5.78025 24.4194 5.78025C24.4194 5.78025 24.6369 5.80473 24.8398 5.78992C25.0426 5.77511 25.1552 5.74976 25.275 5.69146C25.2425 5.93346 25.2406 6.16715 25.2406 6.16715C25.2701 6.47858 25.3035 6.55829 25.3709 6.70986C25.4625 6.8363 25.5157 6.83699 25.583 6.70348C25.6557 6.55399 25.7035 6.40024 25.7187 6.1657C25.7135 5.98991 25.7036 5.90936 25.6621 5.69448C25.8024 5.75528 25.891 5.77104 26.1004 5.78992C26.3147 5.80923 26.5116 5.79976 26.5116 5.79976C26.5116 5.79976 26.2222 5.65434 26.0948 5.47599C25.9691 5.29994 25.9959 5.32987 25.9045 5.10307C25.7934 5.0978 25.2301 5.10299 25.0513 5.10299C24.9534 5.30975 24.9436 5.35293 24.8227 5.48341V5.48341Z" fill="#FCDD09"/>
<path d="M24.0273 2.57247C24.5683 2.80461 24.8937 3.44726 25.0715 4.33289C25.1043 4.49919 25.1123 4.55789 25.1287 4.74532C25.0116 4.7458 24.9656 4.7466 24.8515 4.74591C24.8265 4.61982 24.8085 4.55326 24.7534 4.37429C24.5351 3.68211 23.8921 3.40431 23.921 4.05238C23.9307 4.23132 24.0061 4.33124 24.0901 4.42717C23.9863 4.40126 23.7659 4.29826 23.5872 4.1967C22.5921 3.597 22.9839 2.12753 24.0273 2.57247V2.57247Z" fill="#FCDD09"/>
<path d="M11.2988 13.1284C11.5086 13.2263 11.7764 13.3035 11.9115 13.308C12.0711 13.3134 12.0287 13.2741 11.7308 13.1581C11.4976 13.067 11.2187 12.9138 11.0949 12.8187C10.873 12.6372 10.873 12.6372 10.8962 12.7969C10.9095 12.8882 11.0768 13.0301 11.2988 13.1284Z" fill="#008000"/>
<path d="M9.99406 11.2412C10.1293 11.7829 10.6896 12.7792 10.8829 12.8179C11.0568 12.8469 11.0568 12.8372 10.9118 12.6728C10.6703 12.3923 10.1486 11.367 10.1486 11.1735C10.1486 11.0671 10.1003 10.9897 10.0424 10.9897C9.97474 10.9897 9.95542 11.0865 9.99406 11.2412Z" fill="#008000"/>
<path d="M4.18706 10.562C4.1837 10.5811 4.36505 10.7211 4.59228 10.8791C4.81952 11.0371 5.08426 11.2606 5.17214 11.3743C5.32271 11.5777 6.17567 12.0819 6.25569 12.0174C6.33403 11.9625 5.23533 11.0712 4.7708 10.8124C4.21783 10.4987 4.1988 10.4953 4.18706 10.562Z" fill="#008000"/>
<path d="M4.49829 11.3061C4.49829 11.3255 4.70117 11.4319 4.95235 11.548C5.20354 11.664 5.50302 11.8381 5.60929 11.9349C5.79285 12.109 6.7203 12.4572 6.78792 12.3798C6.85555 12.3121 5.61895 11.6253 5.11659 11.4512C4.51761 11.2384 4.49829 11.2384 4.49829 11.3061Z" fill="#008000"/>
<path d="M9.28198 11.3835C9.28198 11.4899 9.65876 12.2251 9.88096 12.5346C10.0065 12.7087 10.1515 12.8054 10.3157 12.8054C10.5572 12.8054 10.5572 12.8054 10.1901 12.3895C9.97757 12.167 9.6974 11.8285 9.55249 11.6447C9.40757 11.4609 9.28198 11.3448 9.28198 11.3835H9.28198Z" fill="#008000"/>
<path d="M7.72648 14.3614C7.08887 14.6128 6.95361 14.6999 6.95361 14.8353C6.95361 14.8934 7.02124 14.8837 7.12751 14.7966C7.21446 14.7096 7.53327 14.5935 7.82309 14.5258C8.11292 14.4581 8.46071 14.342 8.59597 14.2743L8.83749 14.1486H8.54766C8.39309 14.1582 8.01631 14.255 7.72648 14.3614Z" fill="#008000"/>
<path d="M6.46237 12.8455C6.29813 12.9712 6.30779 12.9809 6.66525 12.9228C6.87779 12.8938 7.18694 12.8358 7.34151 12.7971C7.59269 12.7294 7.57337 12.7197 7.13863 12.71C6.8488 12.7004 6.5783 12.7584 6.46237 12.8455Z" fill="#008000"/>
<path d="M4.06229 11.8284C5.65633 12.1186 8.85409 13.1923 8.66087 13.3761C8.61257 13.4244 7.7141 13.202 7.58851 13.1149C7.54021 13.0665 7.06682 13.0859 6.54513 13.1536C5.56938 13.26 5.40515 13.347 5.42447 13.7436C5.43413 13.9371 5.43413 13.9371 5.48244 13.7436C5.56938 13.3857 5.7143 13.3084 6.26497 13.3084C6.86394 13.3084 8.5063 13.5502 9.23086 13.7436C10.197 14.0145 10.2259 14.0145 9.90712 13.8403C9.49171 13.6082 8.86375 13.1826 8.74782 13.0569C8.53528 12.815 4.68058 11.7511 4.12025 11.7704C3.85941 11.7897 3.84975 11.7897 4.06229 11.8284Z" fill="#008000"/>
<path d="M4.79519 12.3439C4.67926 12.4309 4.55367 12.6341 4.52468 12.7985C4.46672 13.079 4.46672 13.079 4.62129 12.8952C5.02705 12.3826 5.05603 12.3632 5.5584 12.3535C5.96416 12.3439 6.02212 12.3245 5.8289 12.2665C5.42315 12.1408 5.01739 12.1698 4.79519 12.3439Z" fill="#008000"/>
<path d="M9.71956 12.9408C9.79685 13.0763 10.5504 13.4535 10.6084 13.3955C10.6373 13.3664 10.5504 13.2891 10.4345 13.2214C10.3089 13.1536 10.1446 13.0472 10.077 12.9699C9.92244 12.8248 9.63261 12.7958 9.71956 12.9408Z" fill="#008000"/>
<path d="M9.77766 13.8598C9.85495 13.9952 10.6085 14.3724 10.6665 14.3144C10.6954 14.2854 10.6085 14.208 10.4926 14.1403C10.367 14.0726 10.2027 13.9662 10.1351 13.8888C9.98054 13.7437 9.69072 13.7147 9.77766 13.8598Z" fill="#008000"/>
<path d="M8.69756 12.7082C8.71146 12.6947 8.92883 12.7669 9.18671 12.8672C9.4446 12.9675 9.77772 13.0622 9.92104 13.0716C10.1736 13.0828 11.0681 13.5089 11.0595 13.6113C11.0578 13.7071 9.70537 13.2935 9.23131 13.0527C8.66233 12.7691 8.64891 12.7552 8.69756 12.7082Z" fill="#008000"/>
<path d="M10.2976 13.415C10.1174 13.4847 9.93614 13.6108 9.87982 13.7011C9.81327 13.8077 9.86959 13.8087 10.102 13.6918C10.2843 13.6006 10.5475 13.5257 10.6919 13.5134C10.9622 13.5 10.9622 13.5 10.7902 13.3924C10.6919 13.3309 10.483 13.337 10.2976 13.415Z" fill="#008000"/>
<path d="M5.77654 10.1551C6.07603 10.7258 7.2933 12.0413 7.96956 12.5443C8.15312 12.6797 8.48159 12.8151 8.68447 12.8441L9.06124 12.9022L8.78108 12.5926C8.32702 12.0993 7.63143 11.1514 7.40923 10.7355C7.16771 10.2809 7.13873 10.3969 7.34161 10.9773C7.41889 11.2094 7.72804 11.6737 8.02753 12.0026C8.32702 12.3411 8.52023 12.6217 8.47193 12.6217C8.34634 12.6217 7.53482 11.6641 6.95517 10.8322C6.32721 9.92299 6.29823 9.89397 6.47212 10.3969C6.55907 10.6388 6.75229 10.9966 6.91653 11.1901C7.0711 11.3932 7.16771 11.5577 7.1194 11.5577C7.0228 11.5577 6.59772 11.074 6.06637 10.3776C5.92145 10.1745 5.71858 9.91332 5.63163 9.79724C5.53502 9.6715 5.60264 9.83593 5.77654 10.1551Z" fill="#008000"/>
<path d="M6.34221 13.8985C5.92679 13.9952 5.70459 14.1403 5.70459 14.3144C5.70459 14.3821 5.74323 14.3724 5.79154 14.295C5.86883 14.1693 6.66102 13.9372 6.73831 14.0145C6.75763 14.0339 6.72864 14.179 6.67068 14.3241C6.61271 14.4692 6.59339 14.6142 6.62237 14.6433C6.65136 14.682 6.69966 14.6046 6.72864 14.4982C6.84458 14.0822 7.20203 13.9565 8.06185 14.0339C8.49659 14.0726 8.97963 14.1209 9.13421 14.1306C9.29844 14.1403 9.52064 14.1983 9.63657 14.266C9.88776 14.4014 10.8635 14.4111 10.7766 14.2757C10.7476 14.2273 10.564 14.1596 10.3611 14.1306C10.1679 14.1016 9.76217 14.0049 9.46268 13.9275C8.8637 13.7727 6.95085 13.7534 6.34221 13.8985Z" fill="#008000"/>
<path d="M9.87022 15.0149C9.1421 14.8849 8.79582 15.001 8.5013 15.4555L8.25 15.8458L8.5732 15.5391C9.01226 15.1122 9.33134 15.071 10.1205 15.3006C10.4897 15.4099 10.8028 15.4814 10.8136 15.4653C10.8731 15.3771 10.2504 15.0733 9.87022 15.0149Z" fill="#008000"/>
<path d="M10.0685 15.2181C9.39228 15.5179 9.17008 15.8081 9.17974 16.3498L9.1894 16.814L9.28601 16.3788C9.4116 15.7791 9.65313 15.5663 10.4357 15.3148C10.8028 15.1987 11.1023 15.0826 11.1023 15.0633C11.1023 14.9569 10.4163 15.0536 10.0685 15.2181Z" fill="#008000"/>
<path d="M9.94018 16.0485C9.82425 16.2032 9.7373 16.4063 9.7373 16.5127C9.7373 16.6385 9.78561 16.6095 9.92086 16.387C10.0271 16.2129 10.2107 16.0098 10.3266 15.9227C10.5488 15.7679 10.5488 15.7679 10.3459 15.7679C10.23 15.7679 10.0561 15.884 9.94018 16.0485Z" fill="#008000"/>
<path d="M20.3853 17.6248C20.699 17.7609 22.3266 18.1719 23.4782 18.5095C24.6298 18.8472 25.9763 19.2359 26.2743 19.2778C26.7003 18.3482 25.925 20.087 26.3675 19.0331C25.7923 18.8865 23.5253 18.3525 22.6155 18.0907C21.8312 17.8709 20.7186 17.5279 20.4336 17.4651C20.1487 17.4023 20.1448 17.5201 20.3853 17.6248Z" fill="#008000"/>
<path d="M20.5843 17.3835C20.9026 17.5086 22.5435 17.8624 23.7062 18.1596C24.8689 18.4568 26.2281 18.7983 26.5274 18.8297C26.9207 17.8858 26.2065 19.6506 26.612 18.5819C26.032 18.4555 23.7478 18.001 22.8294 17.7712C22.0379 17.5789 20.914 17.275 20.6271 17.2222C20.3401 17.1694 20.3403 17.2873 20.5843 17.3835Z" fill="#008000"/>
<path d="M20.1338 17.8001C20.4399 17.9525 22.0438 18.4482 23.1762 18.8457C24.3086 19.2433 25.6329 19.702 25.9283 19.7594C26.4023 18.8534 25.5372 20.5492 26.0341 19.52C25.4674 19.3435 23.2314 18.6914 22.3366 18.3823C21.5649 18.1216 20.4717 17.7208 20.1904 17.6432C19.9091 17.5655 19.8991 17.683 20.1338 17.8001Z" fill="#008000"/>
<path d="M19.9383 17.9983C20.2361 18.1665 21.8118 18.7455 22.9219 19.2018C24.0319 19.6582 25.3304 20.1857 25.6225 20.2585C26.1432 19.3786 25.1906 21.0267 25.7407 20.025C25.184 19.819 22.9851 19.0506 22.1076 18.6951C21.3506 18.3943 20.2799 17.9368 20.003 17.8445C19.7262 17.7522 19.71 17.869 19.9383 17.9983Z" fill="#008000"/>
<path d="M19.7542 18.2477C20.046 18.4262 21.6006 19.0599 22.6941 19.5548C23.7875 20.0496 25.0668 20.6222 25.3562 20.7052C25.9072 19.8439 24.8978 21.4578 25.4824 20.4759C24.9333 20.2506 22.7625 19.4058 21.898 19.0198C21.1519 18.6928 20.0978 18.1982 19.8243 18.0962C19.5508 17.9943 19.5306 18.1105 19.7542 18.2477Z" fill="#008000"/>
<path d="M16.4952 20.755C16.9437 21.0679 17.1904 21.5027 17.166 21.9514L17.1494 22.3221L17.2967 21.9574C17.4577 21.5758 17.4356 20.998 17.2453 20.5701L17.1343 20.3205L17.4868 20.4742C17.9905 20.6869 18.3222 21.0608 18.3914 21.505L18.4522 21.8709L18.5205 21.4835C18.5988 21.0766 18.4572 20.5163 18.1821 20.1373L18.0217 19.9162L18.3984 19.9931C18.9353 20.0963 19.3373 20.3931 19.4974 20.8131L19.6328 21.1585L19.6191 20.7653C19.6112 20.351 19.3563 19.8323 19.0086 19.5189L18.8058 19.336L19.1902 19.3329C19.7368 19.3221 20.1917 19.5286 20.4354 19.9063L20.6395 20.2158L20.5445 19.8341C20.4508 19.4307 20.0938 18.9764 19.6886 18.7421L19.4522 18.6054L19.8277 18.5224C20.36 18.3979 20.8479 18.5054 21.1647 18.824L21.4286 19.0843L21.2564 18.7307C21.081 18.3555 20.6373 17.9854 20.1924 17.8406L19.9328 17.7563L20.2828 17.5969C20.7776 17.3644 21.2771 17.3679 21.6531 17.6135L21.9654 17.8132L21.7236 17.5031C21.474 17.1726 20.9633 16.903 20.4979 16.8541L20.2266 16.8256L20.5358 16.5968C20.9716 16.2664 21.4609 16.1657 21.8797 16.3278L22.2267 16.4581L21.9257 16.2052C21.613 15.9339 21.0574 15.7764 20.5921 15.8255L20.3207 15.854L20.5756 15.5658C20.9332 15.1519 21.391 14.9516 21.8343 15.023L22.2007 15.0782L21.8538 14.8935C21.4916 14.6933 20.9154 14.6549 20.4705 14.7996L20.2109 14.884L20.4003 14.5491C20.6642 14.0698 21.0704 13.7787 21.5188 13.7561L21.8887 13.7339L21.511 13.6255C21.1151 13.505 20.5436 13.5875 20.1384 13.8216L19.902 13.9582L20.0179 13.5911C20.1765 13.0674 20.5132 12.6981 20.9472 12.5827L21.3044 12.4839L20.9125 12.4565C20.5002 12.421 19.9583 12.6206 19.6106 12.934L19.4078 13.1169L19.4449 12.7338C19.4912 12.1883 19.744 11.7571 20.1445 11.5537L20.4734 11.3829L20.0843 11.4376C19.6737 11.4887 19.1851 11.7967 18.9101 12.1757L18.7497 12.3968L18.7064 12.0143C18.6385 11.4713 18.7961 10.9967 19.1457 10.7145L19.4318 10.4789L19.0626 10.6134C18.6716 10.7489 18.2577 11.1519 18.0673 11.5798L17.9563 11.8296L17.8345 11.4644C17.6553 10.9474 17.711 10.4503 17.9943 10.1016L18.2254 9.81156L17.8921 10.0199C17.5378 10.2338 17.2166 10.7142 17.1193 11.1724L17.0625 11.4397L16.8676 11.108C16.5849 10.6394 16.5362 10.1418 16.7409 9.74159L16.9066 9.40984L16.6239 9.68298C16.3217 9.96606 16.1073 10.5029 16.1073 10.9713V11.2445L15.8477 10.9605C15.474 10.5613 15.323 10.0845 15.4401 9.65047L15.5332 9.29138L15.3134 9.61759C15.0766 9.95722 14.9783 10.5269 15.0756 10.9852L15.1323 11.2525L14.8194 11.0287C14.3709 10.7159 14.1242 10.281 14.1486 9.83211L14.1651 9.4615L14.0179 9.82632C13.8569 10.2079 13.8791 10.7855 14.0693 11.2135L14.1803 11.4632L13.8278 11.3095C13.3241 11.0969 12.9924 10.7229 12.9231 10.2788L12.8624 9.91281L12.7942 10.3002C12.7159 10.7069 12.8574 11.2675 13.1325 11.6464L13.2929 11.8674L12.9162 11.7905C12.3793 11.6873 11.9773 11.3906 11.8173 10.9705L11.6818 10.6252L11.6955 11.0184C11.7034 11.4326 11.9584 11.9513 12.306 12.2647L12.5089 12.4476L12.1244 12.4507C11.5778 12.4615 11.1229 12.2549 10.8792 11.8774L10.675 11.5678L10.7701 11.9495C10.8638 12.353 11.2208 12.8074 11.626 13.0416L11.8623 13.1782L11.4869 13.2613C10.9546 13.3856 10.4667 13.2783 10.1499 12.9598L9.88597 12.6994L10.0582 13.053C10.2337 13.4282 10.6773 13.7982 11.1223 13.943L11.3819 14.0274L11.0319 14.1868C10.537 14.4194 10.0375 14.4158 9.66141 14.1702L9.34912 13.9705L9.59099 14.2804C9.84052 14.6109 10.3513 14.8805 10.8166 14.9295L11.088 14.9581L10.7788 15.1868C10.343 15.5173 9.85368 15.6178 9.43484 15.4558L9.08789 15.3256L9.38885 15.5784C9.70156 15.8498 10.2572 16.0072 10.7225 15.9582L10.9939 15.9297L10.7389 16.2178C10.3813 16.6318 9.92356 16.8319 9.48023 16.7607L9.11384 16.7054L9.4608 16.8902C9.82304 17.0905 10.3992 17.1288 10.8442 16.984L11.1037 16.8996L10.9142 17.2346C10.6504 17.7139 10.2442 18.0051 9.79575 18.0276L9.42589 18.0497L9.8036 18.1582C10.1995 18.2787 10.771 18.1962 11.1762 17.9621L11.4126 17.8254L11.2967 18.1924C11.1382 18.7163 10.8014 19.0856 10.3674 19.201L10.0102 19.2998L10.4022 19.3272C10.8144 19.3626 11.3563 19.163 11.704 18.8495L11.9068 18.6667L11.8697 19.05C11.8234 19.5952 11.5707 20.0266 11.1701 20.2298L10.8412 20.4008L11.2303 20.3461C11.641 20.295 12.1296 19.9868 12.4046 19.6079L12.565 19.3869L12.6083 19.7694C12.6762 20.3124 12.5185 20.7869 12.169 21.0691L11.8828 21.3048L12.252 21.1703C12.643 21.0349 13.057 20.6317 13.2473 20.2038L13.3582 19.9542L13.48 20.3192C13.6592 20.8364 13.6036 21.3333 13.3202 21.6821L13.0892 21.9722L13.4224 21.7637C13.7768 21.5498 14.098 21.0694 14.1953 20.6112L14.252 20.344L14.447 20.6758C14.7296 21.1442 14.7784 21.642 14.5737 22.0421L14.408 22.3739L14.6907 22.1006C14.9928 21.8177 15.2073 21.2809 15.2073 20.8124V20.5391L15.4669 20.8231C15.8406 21.2225 15.9916 21.6992 15.8746 22.1332L15.7813 22.4923L16.0011 22.1661C16.2379 21.8263 16.3362 21.2568 16.2389 20.7985L16.1822 20.5313L16.4952 20.755Z" fill="#FCDD09"/>
</svg>
