<svg width="32" height="24" viewBox="0 0 32 24" fill="none" xmlns="http://www.w3.org/2000/svg">
<mask id="mask0" mask-type="alpha" maskUnits="userSpaceOnUse" x="0" y="0" width="32" height="24">
<rect width="32" height="24" fill="white"/>
</mask>
<g mask="url(#mask0)">
<path fill-rule="evenodd" clip-rule="evenodd" d="M8 0H32V24H8V0Z" fill="#EF0000"/>
<path fill-rule="evenodd" clip-rule="evenodd" d="M0 0H12V24H0V0Z" fill="#2F8D00"/>
<mask id="mask1" mask-type="alpha" maskUnits="userSpaceOnUse" x="4" y="4" width="16" height="16">
<path fill-rule="evenodd" clip-rule="evenodd" d="M11.9047 19.8073C7.64423 19.8073 4.19043 16.3119 4.19043 12.0001C4.19043 7.68829 7.64423 4.19287 11.9047 4.19287C16.1652 4.19287 19.619 7.68829 19.619 12.0001C19.619 16.3119 16.1652 19.8073 11.9047 19.8073Z" fill="white"/>
</mask>
<g mask="url(#mask1)">
<path fill-rule="evenodd" clip-rule="evenodd" d="M11.4285 4H12.4285V6.6988H11.4285V4Z" fill="#FFE017"/>
<path fill-rule="evenodd" clip-rule="evenodd" d="M11.4285 17.4941H12.4285V20.0002H11.4285V17.4941Z" fill="#FFE017"/>
<path d="M4.3145 12.4038L4.03491 11.6865C7.1201 10.4548 9.44866 9.6605 11.0286 9.30252C13.3468 8.77732 15.8938 8.38873 18.67 8.13647L18.7382 8.90447C15.9938 9.15383 13.4794 9.53743 11.1951 10.055C9.66214 10.4023 7.36592 11.1856 4.3145 12.4038Z" fill="#FFE017"/>
<path d="M19.1408 7.66409L18.914 8.40019C16.5822 7.66408 14.6828 7.34766 13.2228 7.44567L13.1724 6.67627C14.74 6.57104 16.7271 6.90207 19.1408 7.66409Z" fill="#FFE017"/>
<path d="M19.9476 11.7798L19.5166 12.4157C18.3279 11.5904 16.8635 11.1759 15.1133 11.1759V10.4048C17.0107 10.4048 18.6254 10.8619 19.9476 11.7798Z" fill="#FFE017"/>
<path d="M19.302 12.0107L19.499 12.7556C16.9364 13.4497 14.5304 13.8436 12.281 13.9363C10.016 14.0297 7.37616 13.6345 4.35913 12.7536L4.57031 12.0127C7.51401 12.8722 10.0747 13.2555 12.25 13.1659C14.4408 13.0755 16.7915 12.6908 19.302 12.0107Z" fill="#FFE017"/>
<path d="M19.0116 15.636L17.8072 16.8707C15.5185 14.5841 13.5036 12.9491 11.7748 11.9668C10.0165 10.9676 7.72353 9.95302 4.89941 8.92712L5.47856 7.29419C8.38597 8.35034 10.7633 9.40224 12.6141 10.454C14.4945 11.5225 16.6228 13.2495 19.0116 15.636Z" fill="#FFE017"/>
<path d="M5.4583 16.3354L5.00244 15.7176C5.0661 15.6695 5.17969 15.5893 5.33619 15.4876C5.59459 15.3197 5.88153 15.1521 6.19025 14.9955C7.04055 14.5642 7.89349 14.2949 8.70701 14.2701C8.74679 14.2689 8.78641 14.2683 8.82586 14.2683V15.0394C8.79408 15.0394 8.76209 15.0399 8.72989 15.0409C8.04432 15.0617 7.29145 15.2994 6.53166 15.6849C6.24846 15.8285 5.98459 15.9826 5.74777 16.1365C5.66534 16.19 5.59241 16.2396 5.52991 16.2837C5.49348 16.3094 5.4693 16.3271 5.4583 16.3354Z" fill="#FFE017"/>
<path d="M5.81201 16.6028L6.00388 15.8566C8.544 16.5255 10.5023 16.8589 11.869 16.8589C13.2306 16.8589 15.2571 16.4657 17.9356 15.6765L18.1485 16.4169C15.4068 17.2247 13.318 17.6299 11.869 17.6299C10.4251 17.6299 8.40936 17.2868 5.81201 16.6028Z" fill="#FFE017"/>
<path d="M4.82251 9.69458L6.02959 8.46265L7.79691 10.2363L6.58983 11.4682L4.82251 9.69458Z" fill="#FFE017"/>
<path d="M14.8359 15.8478L15.7338 14.3699L18.5374 16.1143L17.6396 17.5923L14.8359 15.8478Z" fill="#FFE017"/>
</g>
<path fill-rule="evenodd" clip-rule="evenodd" d="M4.19043 12.0001C4.19043 16.3119 7.64423 19.8073 11.9047 19.8073C16.1652 19.8073 19.619 16.3119 19.619 12.0001C19.619 7.68829 16.1652 4.19287 11.9047 4.19287C7.64423 4.19287 4.19043 7.68829 4.19043 12.0001ZM18.6666 12.0965C18.6666 15.8227 15.6819 18.8435 12 18.8435C8.31806 18.8435 5.33329 15.8227 5.33329 12.0965C5.33329 8.37023 8.31806 5.3495 12 5.3495C15.6819 5.3495 18.6666 8.37023 18.6666 12.0965Z" fill="#F9E813"/>
<path d="M7.65674 7.1853V13.446C8.06887 15.9241 9.45734 17.1631 11.8221 17.1631C14.1869 17.1631 15.5754 15.9241 15.9875 13.446V7.1853H7.65674Z" fill="white"/>
<path d="M7.08521 6.60693H16.5588V13.4943L16.5509 13.5419C16.0933 16.2936 14.4709 17.7414 11.822 17.7414C9.17313 17.7414 7.55077 16.2936 7.09313 13.5419L7.08521 13.4943V6.60693Z" fill="#C51918"/>
<path d="M9.2522 8.71069H14.3919V13.1516C14.3919 13.1516 14.0105 15.4449 11.8221 15.4449C9.6336 15.4449 9.2522 13.1516 9.2522 13.1516V8.71069Z" fill="#F7FCFF"/>
<path fill-rule="evenodd" clip-rule="evenodd" d="M7.99976 7.08423H8.72265V7.56616H7.99976V7.08423Z" fill="#F9E813"/>
<path fill-rule="evenodd" clip-rule="evenodd" d="M7.6189 7.2771H8.95223V7.51806H7.6189V7.2771Z" fill="#060101"/>
<path fill-rule="evenodd" clip-rule="evenodd" d="M7.6189 7.46973H8.34179V7.71069H7.6189V7.46973Z" fill="#F9E813"/>
<path fill-rule="evenodd" clip-rule="evenodd" d="M8.38086 7.46973H9.10375V7.71069H8.38086V7.46973Z" fill="#F9E813"/>
<path fill-rule="evenodd" clip-rule="evenodd" d="M7.6189 8.0481H8.10082V8.77099H7.6189V8.0481Z" fill="#F9E813"/>
<path fill-rule="evenodd" clip-rule="evenodd" d="M8.57129 8.0481H9.05322V8.77099H8.57129V8.0481Z" fill="#F9E813"/>
<path fill-rule="evenodd" clip-rule="evenodd" d="M8.19043 8.0481H8.43139V8.77099H8.19043V8.0481Z" fill="#F9E813"/>
<path fill-rule="evenodd" clip-rule="evenodd" d="M7.6189 7.85522H8.95223V8.09619H7.6189V7.85522Z" fill="#060101"/>
<path fill-rule="evenodd" clip-rule="evenodd" d="M7.6189 8.43359H8.95223V8.67456H7.6189V8.43359Z" fill="#060101"/>
<path fill-rule="evenodd" clip-rule="evenodd" d="M7.80933 7.6626H8.05029V7.90356H7.80933V7.6626Z" fill="#F9E813"/>
<path fill-rule="evenodd" clip-rule="evenodd" d="M8.57129 7.6626H8.81225V7.90356H8.57129V7.6626Z" fill="#F9E813"/>
<path fill-rule="evenodd" clip-rule="evenodd" d="M8.19043 7.46973H8.43139V7.95165H8.19043V7.46973Z" fill="#F9E813"/>
<path fill-rule="evenodd" clip-rule="evenodd" d="M11.6189 7.08423H12.3418V7.56616H11.6189V7.08423Z" fill="#F9E813"/>
<path fill-rule="evenodd" clip-rule="evenodd" d="M11.238 7.2771H12.5714V7.51806H11.238V7.2771Z" fill="#060101"/>
<path fill-rule="evenodd" clip-rule="evenodd" d="M11.238 7.46973H11.9609V7.71069H11.238V7.46973Z" fill="#F9E813"/>
<path fill-rule="evenodd" clip-rule="evenodd" d="M12 7.46973H12.7229V7.71069H12V7.46973Z" fill="#F9E813"/>
<path fill-rule="evenodd" clip-rule="evenodd" d="M11.238 8.0481H11.72V8.77099H11.238V8.0481Z" fill="#F9E813"/>
<path fill-rule="evenodd" clip-rule="evenodd" d="M12.1904 8.0481H12.6724V8.77099H12.1904V8.0481Z" fill="#F9E813"/>
<path fill-rule="evenodd" clip-rule="evenodd" d="M11.8096 8.0481H12.0505V8.77099H11.8096V8.0481Z" fill="#F9E813"/>
<path fill-rule="evenodd" clip-rule="evenodd" d="M11.238 7.85522H12.5714V8.09619H11.238V7.85522Z" fill="#060101"/>
<path fill-rule="evenodd" clip-rule="evenodd" d="M11.238 8.43359H12.5714V8.67456H11.238V8.43359Z" fill="#060101"/>
<path fill-rule="evenodd" clip-rule="evenodd" d="M11.4285 7.6626H11.6694V7.90356H11.4285V7.6626Z" fill="#F9E813"/>
<path fill-rule="evenodd" clip-rule="evenodd" d="M12.1904 7.6626H12.4314V7.90356H12.1904V7.6626Z" fill="#F9E813"/>
<path fill-rule="evenodd" clip-rule="evenodd" d="M11.8096 7.46973H12.0505V7.95165H11.8096V7.46973Z" fill="#F9E813"/>
<path fill-rule="evenodd" clip-rule="evenodd" d="M15.0474 7.08423H15.7703V7.56616H15.0474V7.08423Z" fill="#F9E813"/>
<path fill-rule="evenodd" clip-rule="evenodd" d="M14.6665 7.2771H15.9998V7.51806H14.6665V7.2771Z" fill="#060101"/>
<path fill-rule="evenodd" clip-rule="evenodd" d="M14.6665 7.46973H15.3894V7.71069H14.6665V7.46973Z" fill="#F9E813"/>
<path fill-rule="evenodd" clip-rule="evenodd" d="M15.4285 7.46973H16.1514V7.71069H15.4285V7.46973Z" fill="#F9E813"/>
<path fill-rule="evenodd" clip-rule="evenodd" d="M14.6665 8.0481H15.1484V8.77099H14.6665V8.0481Z" fill="#F9E813"/>
<path fill-rule="evenodd" clip-rule="evenodd" d="M15.6189 8.0481H16.1008V8.77099H15.6189V8.0481Z" fill="#F9E813"/>
<path fill-rule="evenodd" clip-rule="evenodd" d="M15.238 8.0481H15.479V8.77099H15.238V8.0481Z" fill="#F9E813"/>
<path fill-rule="evenodd" clip-rule="evenodd" d="M14.6665 7.85522H15.9998V8.09619H14.6665V7.85522Z" fill="#060101"/>
<path fill-rule="evenodd" clip-rule="evenodd" d="M14.6665 8.43359H15.9998V8.67456H14.6665V8.43359Z" fill="#060101"/>
<path fill-rule="evenodd" clip-rule="evenodd" d="M14.8569 7.6626H15.0979V7.90356H14.8569V7.6626Z" fill="#F9E813"/>
<path fill-rule="evenodd" clip-rule="evenodd" d="M15.6189 7.6626H15.8599V7.90356H15.6189V7.6626Z" fill="#F9E813"/>
<path fill-rule="evenodd" clip-rule="evenodd" d="M15.238 7.46973H15.479V7.95165H15.238V7.46973Z" fill="#F9E813"/>
<path fill-rule="evenodd" clip-rule="evenodd" d="M15.0474 10.5542H15.7703V11.0361H15.0474V10.5542Z" fill="#F9E813"/>
<path fill-rule="evenodd" clip-rule="evenodd" d="M14.6665 10.7471H15.9998V10.988H14.6665V10.7471Z" fill="#060101"/>
<path fill-rule="evenodd" clip-rule="evenodd" d="M14.6665 10.9397H15.3894V11.1807H14.6665V10.9397Z" fill="#F9E813"/>
<path fill-rule="evenodd" clip-rule="evenodd" d="M15.4285 10.9397H16.1514V11.1807H15.4285V10.9397Z" fill="#F9E813"/>
<path fill-rule="evenodd" clip-rule="evenodd" d="M14.6665 11.5181H15.1484V12.241H14.6665V11.5181Z" fill="#F9E813"/>
<path fill-rule="evenodd" clip-rule="evenodd" d="M15.6189 11.5181H16.1008V12.241H15.6189V11.5181Z" fill="#F9E813"/>
<path fill-rule="evenodd" clip-rule="evenodd" d="M15.238 11.5181H15.479V12.241H15.238V11.5181Z" fill="#F9E813"/>
<path fill-rule="evenodd" clip-rule="evenodd" d="M14.6665 11.3252H15.9998V11.5662H14.6665V11.3252Z" fill="#060101"/>
<path fill-rule="evenodd" clip-rule="evenodd" d="M14.6665 11.9036H15.9998V12.1445H14.6665V11.9036Z" fill="#060101"/>
<path fill-rule="evenodd" clip-rule="evenodd" d="M14.8569 11.1326H15.0979V11.3735H14.8569V11.1326Z" fill="#F9E813"/>
<path fill-rule="evenodd" clip-rule="evenodd" d="M15.6189 11.1326H15.8599V11.3735H15.6189V11.1326Z" fill="#F9E813"/>
<path fill-rule="evenodd" clip-rule="evenodd" d="M15.238 10.9397H15.479V11.4216H15.238V10.9397Z" fill="#F9E813"/>
<path fill-rule="evenodd" clip-rule="evenodd" d="M7.99976 10.5542H8.72265V11.0361H7.99976V10.5542Z" fill="#F9E813"/>
<path fill-rule="evenodd" clip-rule="evenodd" d="M7.6189 10.7471H8.95223V10.988H7.6189V10.7471Z" fill="#060101"/>
<path fill-rule="evenodd" clip-rule="evenodd" d="M7.6189 10.9397H8.34179V11.1807H7.6189V10.9397Z" fill="#F9E813"/>
<path fill-rule="evenodd" clip-rule="evenodd" d="M8.38086 10.9397H9.10375V11.1807H8.38086V10.9397Z" fill="#F9E813"/>
<path fill-rule="evenodd" clip-rule="evenodd" d="M7.6189 11.5181H8.10082V12.241H7.6189V11.5181Z" fill="#F9E813"/>
<path fill-rule="evenodd" clip-rule="evenodd" d="M8.57129 11.5181H9.05322V12.241H8.57129V11.5181Z" fill="#F9E813"/>
<path fill-rule="evenodd" clip-rule="evenodd" d="M8.19043 11.5181H8.43139V12.241H8.19043V11.5181Z" fill="#F9E813"/>
<path fill-rule="evenodd" clip-rule="evenodd" d="M7.6189 11.3252H8.95223V11.5662H7.6189V11.3252Z" fill="#060101"/>
<path fill-rule="evenodd" clip-rule="evenodd" d="M7.6189 11.9036H8.95223V12.1445H7.6189V11.9036Z" fill="#060101"/>
<path fill-rule="evenodd" clip-rule="evenodd" d="M7.80933 11.1326H8.05029V11.3735H7.80933V11.1326Z" fill="#F9E813"/>
<path fill-rule="evenodd" clip-rule="evenodd" d="M8.57129 11.1326H8.81225V11.3735H8.57129V11.1326Z" fill="#F9E813"/>
<path fill-rule="evenodd" clip-rule="evenodd" d="M8.19043 10.9397H8.43139V11.4216H8.19043V10.9397Z" fill="#F9E813"/>
<path fill-rule="evenodd" clip-rule="evenodd" d="M8.46362 14.9038L8.92829 14.35L9.29747 14.6598L8.8328 15.2136L8.46362 14.9038Z" fill="#F9E813"/>
<path fill-rule="evenodd" clip-rule="evenodd" d="M8.36646 15.3196L9.22351 14.2982L9.40809 14.4531L8.55104 15.4745L8.36646 15.3196Z" fill="#060101"/>
<path fill-rule="evenodd" clip-rule="evenodd" d="M8.51416 15.4434L8.97883 14.8896L9.16341 15.0445L8.69875 15.5982L8.51416 15.4434Z" fill="#F9E813"/>
<path fill-rule="evenodd" clip-rule="evenodd" d="M9.00391 14.8596L9.46857 14.3059L9.65316 14.4607L9.1885 15.0145L9.00391 14.8596Z" fill="#F9E813"/>
<path fill-rule="evenodd" clip-rule="evenodd" d="M8.95703 15.8152L9.26681 15.446L9.82058 15.9107L9.5108 16.2799L8.95703 15.8152Z" fill="#F9E813"/>
<path fill-rule="evenodd" clip-rule="evenodd" d="M9.56934 15.0854L9.87911 14.7163L10.4329 15.1809L10.1231 15.5501L9.56934 15.0854Z" fill="#F9E813"/>
<path fill-rule="evenodd" clip-rule="evenodd" d="M9.32446 15.3774L9.47935 15.1929L10.0331 15.6575L9.87823 15.8421L9.32446 15.3774Z" fill="#F9E813"/>
<path fill-rule="evenodd" clip-rule="evenodd" d="M8.80933 15.6912L9.66638 14.6698L9.85097 14.8247L8.99392 15.8461L8.80933 15.6912Z" fill="#060101"/>
<path fill-rule="evenodd" clip-rule="evenodd" d="M9.25244 16.063L10.1095 15.0416L10.2941 15.1965L9.43703 16.2179L9.25244 16.063Z" fill="#060101"/>
<path fill-rule="evenodd" clip-rule="evenodd" d="M8.78418 15.4214L8.93907 15.2368L9.12366 15.3917L8.96877 15.5763L8.78418 15.4214Z" fill="#F9E813"/>
<path fill-rule="evenodd" clip-rule="evenodd" d="M9.27393 14.8376L9.42881 14.6531L9.6134 14.8079L9.45851 14.9925L9.27393 14.8376Z" fill="#F9E813"/>
<path fill-rule="evenodd" clip-rule="evenodd" d="M8.88135 15.0056L9.03624 14.821L9.40541 15.1308L9.25053 15.3154L8.88135 15.0056Z" fill="#F9E813"/>
<path fill-rule="evenodd" clip-rule="evenodd" d="M14.9783 14.4661L15.4429 15.0198L15.0738 15.3296L14.6091 14.7758L14.9783 14.4661Z" fill="#F9E813"/>
<path fill-rule="evenodd" clip-rule="evenodd" d="M14.5857 14.2983L15.4427 15.3197L15.2582 15.4746L14.4011 14.4532L14.5857 14.2983Z" fill="#060101"/>
<path fill-rule="evenodd" clip-rule="evenodd" d="M14.438 14.4221L14.9027 14.9759L14.7181 15.1308L14.2534 14.577L14.438 14.4221Z" fill="#F9E813"/>
<path fill-rule="evenodd" clip-rule="evenodd" d="M14.9277 15.0059L15.3924 15.5596L15.2078 15.7145L14.7431 15.1607L14.9277 15.0059Z" fill="#F9E813"/>
<path fill-rule="evenodd" clip-rule="evenodd" d="M13.9951 14.7939L14.3049 15.1631L13.7511 15.6278L13.4414 15.2586L13.9951 14.7939Z" fill="#F9E813"/>
<path fill-rule="evenodd" clip-rule="evenodd" d="M14.6072 15.5234L14.917 15.8926L14.3632 16.3573L14.0534 15.9881L14.6072 15.5234Z" fill="#F9E813"/>
<path fill-rule="evenodd" clip-rule="evenodd" d="M14.3623 15.2317L14.5172 15.4163L13.9634 15.8809L13.8085 15.6964L14.3623 15.2317Z" fill="#F9E813"/>
<path fill-rule="evenodd" clip-rule="evenodd" d="M14.1428 14.6699L14.9999 15.6913L14.8153 15.8462L13.9582 14.8248L14.1428 14.6699Z" fill="#060101"/>
<path fill-rule="evenodd" clip-rule="evenodd" d="M13.6997 15.0417L14.5568 16.0631L14.3722 16.218L13.5151 15.1966L13.6997 15.0417Z" fill="#060101"/>
<path fill-rule="evenodd" clip-rule="evenodd" d="M14.4128 14.6919L14.5677 14.8765L14.3831 15.0314L14.2283 14.8468L14.4128 14.6919Z" fill="#F9E813"/>
<path fill-rule="evenodd" clip-rule="evenodd" d="M14.9026 15.2756L15.0575 15.4602L14.8729 15.6151L14.718 15.4305L14.9026 15.2756Z" fill="#F9E813"/>
<path fill-rule="evenodd" clip-rule="evenodd" d="M14.8054 14.8599L14.9603 15.0445L14.5911 15.3542L14.4362 15.1696L14.8054 14.8599Z" fill="#F9E813"/>
<path fill-rule="evenodd" clip-rule="evenodd" d="M12.5584 9.20483H11.238V10.1663C11.238 10.1663 11.336 10.6628 11.8982 10.6628C12.4604 10.6628 12.5584 10.1663 12.5584 10.1663V9.20483ZM11.8095 9.59038C11.8095 9.69684 11.7242 9.78315 11.619 9.78315C11.5138 9.78315 11.4285 9.69684 11.4285 9.59038C11.4285 9.48391 11.5138 9.39761 11.619 9.39761C11.7242 9.39761 11.8095 9.48391 11.8095 9.59038ZM11.619 10.5542C11.7242 10.5542 11.8095 10.4679 11.8095 10.3615C11.8095 10.255 11.7242 10.1687 11.619 10.1687C11.5138 10.1687 11.4285 10.255 11.4285 10.3615C11.4285 10.4679 11.5138 10.5542 11.619 10.5542ZM12.3809 10.3615C12.3809 10.4679 12.2956 10.5542 12.1904 10.5542C12.0852 10.5542 11.9999 10.4679 11.9999 10.3615C11.9999 10.255 12.0852 10.1687 12.1904 10.1687C12.2956 10.1687 12.3809 10.255 12.3809 10.3615ZM11.9047 10.1687C12.0099 10.1687 12.0952 10.0824 12.0952 9.97592C12.0952 9.86945 12.0099 9.78315 11.9047 9.78315C11.7995 9.78315 11.7142 9.86945 11.7142 9.97592C11.7142 10.0824 11.7995 10.1687 11.9047 10.1687ZM12.3809 9.59038C12.3809 9.69684 12.2956 9.78315 12.1904 9.78315C12.0852 9.78315 11.9999 9.69684 11.9999 9.59038C11.9999 9.48391 12.0852 9.39761 12.1904 9.39761C12.2956 9.39761 12.3809 9.48391 12.3809 9.59038Z" fill="#013399"/>
<path fill-rule="evenodd" clip-rule="evenodd" d="M12.5584 11.3252H11.238V12.2867C11.238 12.2867 11.336 12.7832 11.8982 12.7832C12.4604 12.7832 12.5584 12.2867 12.5584 12.2867V11.3252ZM11.8095 11.7107C11.8095 11.8172 11.7242 11.9035 11.619 11.9035C11.5138 11.9035 11.4285 11.8172 11.4285 11.7107C11.4285 11.6043 11.5138 11.518 11.619 11.518C11.7242 11.518 11.8095 11.6043 11.8095 11.7107ZM11.619 12.6746C11.7242 12.6746 11.8095 12.5883 11.8095 12.4818C11.8095 12.3754 11.7242 12.2891 11.619 12.2891C11.5138 12.2891 11.4285 12.3754 11.4285 12.4818C11.4285 12.5883 11.5138 12.6746 11.619 12.6746ZM12.3809 12.4818C12.3809 12.5883 12.2956 12.6746 12.1904 12.6746C12.0852 12.6746 11.9999 12.5883 11.9999 12.4818C11.9999 12.3754 12.0852 12.2891 12.1904 12.2891C12.2956 12.2891 12.3809 12.3754 12.3809 12.4818ZM11.9047 12.2891C12.0099 12.2891 12.0952 12.2027 12.0952 12.0963C12.0952 11.9898 12.0099 11.9035 11.9047 11.9035C11.7995 11.9035 11.7142 11.9898 11.7142 12.0963C11.7142 12.2027 11.7995 12.2891 11.9047 12.2891ZM12.3809 11.7107C12.3809 11.8172 12.2956 11.9035 12.1904 11.9035C12.0852 11.9035 11.9999 11.8172 11.9999 11.7107C11.9999 11.6043 12.0852 11.518 12.1904 11.518C12.2956 11.518 12.3809 11.6043 12.3809 11.7107Z" fill="#013399"/>
<path fill-rule="evenodd" clip-rule="evenodd" d="M14.2727 11.3252H12.9524V12.2867C12.9524 12.2867 13.0504 12.7832 13.6126 12.7832C14.1747 12.7832 14.2727 12.2867 14.2727 12.2867V11.3252ZM13.5238 11.7107C13.5238 11.8172 13.4385 11.9035 13.3333 11.9035C13.2281 11.9035 13.1429 11.8172 13.1429 11.7107C13.1429 11.6043 13.2281 11.518 13.3333 11.518C13.4385 11.518 13.5238 11.6043 13.5238 11.7107ZM13.3333 12.6746C13.4385 12.6746 13.5238 12.5883 13.5238 12.4818C13.5238 12.3754 13.4385 12.2891 13.3333 12.2891C13.2281 12.2891 13.1429 12.3754 13.1429 12.4818C13.1429 12.5883 13.2281 12.6746 13.3333 12.6746ZM14.0952 12.4818C14.0952 12.5883 14.01 12.6746 13.9048 12.6746C13.7996 12.6746 13.7143 12.5883 13.7143 12.4818C13.7143 12.3754 13.7996 12.2891 13.9048 12.2891C14.01 12.2891 14.0952 12.3754 14.0952 12.4818ZM13.6191 12.2891C13.7243 12.2891 13.8095 12.2027 13.8095 12.0963C13.8095 11.9898 13.7243 11.9035 13.6191 11.9035C13.5139 11.9035 13.4286 11.9898 13.4286 12.0963C13.4286 12.2027 13.5139 12.2891 13.6191 12.2891ZM14.0952 11.7107C14.0952 11.8172 14.01 11.9035 13.9048 11.9035C13.7996 11.9035 13.7143 11.8172 13.7143 11.7107C13.7143 11.6043 13.7996 11.518 13.9048 11.518C14.01 11.518 14.0952 11.6043 14.0952 11.7107Z" fill="#013399"/>
<path fill-rule="evenodd" clip-rule="evenodd" d="M10.844 11.3252H9.52368V12.2867C9.52368 12.2867 9.62166 12.7832 10.1838 12.7832C10.746 12.7832 10.844 12.2867 10.844 12.2867V11.3252ZM10.0951 11.7107C10.0951 11.8172 10.0098 11.9035 9.90463 11.9035C9.79944 11.9035 9.71416 11.8172 9.71416 11.7107C9.71416 11.6043 9.79944 11.518 9.90463 11.518C10.0098 11.518 10.0951 11.6043 10.0951 11.7107ZM9.90463 12.6746C10.0098 12.6746 10.0951 12.5883 10.0951 12.4818C10.0951 12.3754 10.0098 12.2891 9.90463 12.2891C9.79944 12.2891 9.71416 12.3754 9.71416 12.4818C9.71416 12.5883 9.79944 12.6746 9.90463 12.6746ZM10.6665 12.4818C10.6665 12.5883 10.5813 12.6746 10.4761 12.6746C10.3709 12.6746 10.2856 12.5883 10.2856 12.4818C10.2856 12.3754 10.3709 12.2891 10.4761 12.2891C10.5813 12.2891 10.6665 12.3754 10.6665 12.4818ZM10.1903 12.2891C10.2955 12.2891 10.3808 12.2027 10.3808 12.0963C10.3808 11.9898 10.2955 11.9035 10.1903 11.9035C10.0852 11.9035 9.99987 11.9898 9.99987 12.0963C9.99987 12.2027 10.0852 12.2891 10.1903 12.2891ZM10.6665 11.7107C10.6665 11.8172 10.5813 11.9035 10.4761 11.9035C10.3709 11.9035 10.2856 11.8172 10.2856 11.7107C10.2856 11.6043 10.3709 11.518 10.4761 11.518C10.5813 11.518 10.6665 11.6043 10.6665 11.7107Z" fill="#013399"/>
<path fill-rule="evenodd" clip-rule="evenodd" d="M12.5584 13.4458H11.238V14.4073C11.238 14.4073 11.336 14.9038 11.8982 14.9038C12.4604 14.9038 12.5584 14.4073 12.5584 14.4073V13.4458ZM11.8095 13.8313C11.8095 13.9378 11.7242 14.0241 11.619 14.0241C11.5138 14.0241 11.4285 13.9378 11.4285 13.8313C11.4285 13.7249 11.5138 13.6386 11.619 13.6386C11.7242 13.6386 11.8095 13.7249 11.8095 13.8313ZM11.619 14.7952C11.7242 14.7952 11.8095 14.7089 11.8095 14.6024C11.8095 14.496 11.7242 14.4097 11.619 14.4097C11.5138 14.4097 11.4285 14.496 11.4285 14.6024C11.4285 14.7089 11.5138 14.7952 11.619 14.7952ZM12.3809 14.6024C12.3809 14.7089 12.2956 14.7952 12.1904 14.7952C12.0852 14.7952 11.9999 14.7089 11.9999 14.6024C11.9999 14.496 12.0852 14.4097 12.1904 14.4097C12.2956 14.4097 12.3809 14.496 12.3809 14.6024ZM11.9047 14.4097C12.0099 14.4097 12.0952 14.3233 12.0952 14.2169C12.0952 14.1104 12.0099 14.0241 11.9047 14.0241C11.7995 14.0241 11.7142 14.1104 11.7142 14.2169C11.7142 14.3233 11.7995 14.4097 11.9047 14.4097ZM12.3809 13.8313C12.3809 13.9378 12.2956 14.0241 12.1904 14.0241C12.0852 14.0241 11.9999 13.9378 11.9999 13.8313C11.9999 13.7249 12.0852 13.6386 12.1904 13.6386C12.2956 13.6386 12.3809 13.7249 12.3809 13.8313Z" fill="#013399"/>
</g>
</svg>
