<svg width="20" height="15" viewBox="0 0 20 15" fill="none" xmlns="http://www.w3.org/2000/svg">
<mask id="mask0" mask-type="alpha" maskUnits="userSpaceOnUse" x="0" y="0" width="20" height="15">
<rect width="20" height="15" fill="white"/>
</mask>
<g mask="url(#mask0)">
<path fill-rule="evenodd" clip-rule="evenodd" d="M0 0V15H20V0H0Z" fill="#FFB400"/>
<mask id="mask1" mask-type="alpha" maskUnits="userSpaceOnUse" x="0" y="0" width="20" height="15">
<path fill-rule="evenodd" clip-rule="evenodd" d="M0 0V15H20V0H0Z" fill="white"/>
</mask>
<g mask="url(#mask1)">
<path fill-rule="evenodd" clip-rule="evenodd" d="M0 0V3.75H20V0H0Z" fill="#C51918"/>
<path fill-rule="evenodd" clip-rule="evenodd" d="M0 11.25V15H20V11.25H0Z" fill="#C51918"/>
<rect x="3.13" y="6.41992" width="0.7" height="3.64" fill="#F1F9FF"/>
<path fill-rule="evenodd" clip-rule="evenodd" d="M4.11001 5.78992H2.85001V6.13992H3.06001V6.41992H3.90001V6.13992H4.11001V5.78992Z" fill="#C88A02"/>
<path fill-rule="evenodd" clip-rule="evenodd" d="M3.90001 10.27H4.11001V10.62H2.85001V10.27H3.06001V9.98999H3.90001V10.27Z" fill="#C88A02"/>
<path fill-rule="evenodd" clip-rule="evenodd" d="M3.47999 5.85997C3.63232 5.85997 3.64781 5.80261 3.73768 5.71693C3.80746 5.65041 3.96999 5.56791 3.96999 5.47497C3.96999 5.26234 3.75061 5.08997 3.47999 5.08997C3.20937 5.08997 2.98999 5.26234 2.98999 5.47497C2.98999 5.57851 3.10191 5.64774 3.18654 5.71693C3.2757 5.78983 3.34115 5.85997 3.47999 5.85997Z" fill="#AD1619"/>
<path fill-rule="evenodd" clip-rule="evenodd" d="M2.85001 10.62H4.11001V11.18C4.11001 11.18 3.95251 11.11 3.79501 11.11C3.63751 11.11 3.48001 11.18 3.48001 11.18C3.48001 11.18 3.32251 11.11 3.16501 11.11C3.00751 11.11 2.85001 11.18 2.85001 11.18V10.62Z" fill="#005BBF"/>
<mask id="mask2" mask-type="alpha" maskUnits="userSpaceOnUse" x="2" y="10" width="3" height="2">
<path fill-rule="evenodd" clip-rule="evenodd" d="M2.85001 10.62H4.11001V11.18C4.11001 11.18 3.95251 11.11 3.79501 11.11C3.63751 11.11 3.48001 11.18 3.48001 11.18C3.48001 11.18 3.32251 11.11 3.16501 11.11C3.00751 11.11 2.85001 11.18 2.85001 11.18V10.62Z" fill="white"/>
</mask>
<g mask="url(#mask2)">
<path d="M2.83863 11.0699L2.81113 11.0029C2.92461 10.9523 3.0385 10.927 3.15257 10.927C3.22626 10.927 3.26474 10.9373 3.33016 10.9664C3.38763 10.992 3.41741 10.9999 3.48026 10.9999C3.5431 10.9999 3.57289 10.992 3.63035 10.9664C3.69577 10.9373 3.73425 10.927 3.80795 10.927C3.92201 10.927 4.0359 10.9523 4.14939 11.0029L4.12188 11.0699C4.01691 11.0232 3.91234 10.9999 3.80795 10.9999C3.7451 10.9999 3.71531 11.0079 3.65785 11.0334C3.59243 11.0626 3.55395 11.0728 3.48026 11.0728C3.40656 11.0728 3.36808 11.0626 3.30266 11.0334C3.2452 11.0079 3.21541 10.9999 3.15257 10.9999C3.04817 10.9999 2.9436 11.0232 2.83863 11.0699Z" fill="white"/>
<path d="M2.83863 10.8599L2.81113 10.7929C2.92461 10.7424 3.0385 10.717 3.15257 10.717C3.22626 10.717 3.26474 10.7273 3.33016 10.7564C3.38763 10.782 3.41741 10.79 3.48026 10.79C3.5431 10.79 3.57289 10.782 3.63035 10.7564C3.69577 10.7273 3.73425 10.717 3.80795 10.717C3.92201 10.717 4.0359 10.7424 4.14939 10.7929L4.12188 10.8599C4.01691 10.8132 3.91234 10.79 3.80795 10.79C3.7451 10.79 3.71531 10.7979 3.65785 10.8235C3.59243 10.8526 3.55395 10.8629 3.48026 10.8629C3.40656 10.8629 3.36808 10.8526 3.30266 10.8235C3.2452 10.7979 3.21541 10.79 3.15257 10.79C3.04817 10.79 2.9436 10.8132 2.83863 10.8599Z" fill="white"/>
</g>
<rect x="9.98999" y="6.41992" width="0.7" height="3.64" fill="#F1F9FF"/>
<path fill-rule="evenodd" clip-rule="evenodd" d="M10.97 5.78992H9.70999V6.13992H9.91999V6.41992H10.76V6.13992H10.97V5.78992Z" fill="#C88A02"/>
<path fill-rule="evenodd" clip-rule="evenodd" d="M10.76 10.27H10.97V10.62H9.70999V10.27H9.91999V9.98999H10.76V10.27Z" fill="#C88A02"/>
<path fill-rule="evenodd" clip-rule="evenodd" d="M10.34 5.85997C10.4923 5.85997 10.5078 5.80261 10.5977 5.71693C10.6675 5.65041 10.83 5.56791 10.83 5.47497C10.83 5.26234 10.6106 5.08997 10.34 5.08997C10.0694 5.08997 9.85001 5.26234 9.85001 5.47497C9.85001 5.57851 9.96193 5.64774 10.0466 5.71693C10.1357 5.78983 10.2012 5.85997 10.34 5.85997Z" fill="#AD1619"/>
<path fill-rule="evenodd" clip-rule="evenodd" d="M9.70999 10.62H10.97V11.18C10.97 11.18 10.8125 11.11 10.655 11.11C10.4975 11.11 10.34 11.18 10.34 11.18C10.34 11.18 10.1825 11.11 10.025 11.11C9.86749 11.11 9.70999 11.18 9.70999 11.18V10.62Z" fill="#005BBF"/>
<mask id="mask3" mask-type="alpha" maskUnits="userSpaceOnUse" x="9" y="10" width="2" height="2">
<path fill-rule="evenodd" clip-rule="evenodd" d="M9.70999 10.62H10.97V11.18C10.97 11.18 10.8125 11.11 10.655 11.11C10.4975 11.11 10.34 11.18 10.34 11.18C10.34 11.18 10.1825 11.11 10.025 11.11C9.86749 11.11 9.70999 11.18 9.70999 11.18V10.62Z" fill="white"/>
</mask>
<g mask="url(#mask3)">
<path d="M9.69861 11.0699L9.67111 11.0029C9.7846 10.9523 9.89849 10.927 10.0126 10.927C10.0862 10.927 10.1247 10.9373 10.1901 10.9664C10.2476 10.992 10.2774 10.9999 10.3402 10.9999C10.4031 10.9999 10.4329 10.992 10.4903 10.9664C10.5558 10.9373 10.5942 10.927 10.6679 10.927C10.782 10.927 10.8959 10.9523 11.0094 11.0029L10.9819 11.0699C10.8769 11.0232 10.7723 10.9999 10.6679 10.9999C10.6051 10.9999 10.5753 11.0079 10.5178 11.0334C10.4524 11.0626 10.4139 11.0728 10.3402 11.0728C10.2665 11.0728 10.2281 11.0626 10.1626 11.0334C10.1052 11.0079 10.0754 10.9999 10.0126 10.9999C9.90816 10.9999 9.80359 11.0232 9.69861 11.0699Z" fill="white"/>
<path d="M9.69861 10.8599L9.67111 10.7929C9.7846 10.7424 9.89849 10.717 10.0126 10.717C10.0862 10.717 10.1247 10.7273 10.1901 10.7564C10.2476 10.782 10.2774 10.79 10.3402 10.79C10.4031 10.79 10.4329 10.782 10.4903 10.7564C10.5558 10.7273 10.5942 10.717 10.6679 10.717C10.782 10.717 10.8959 10.7424 11.0094 10.7929L10.9819 10.8599C10.8769 10.8132 10.7723 10.79 10.6679 10.79C10.6051 10.79 10.5753 10.7979 10.5178 10.8235C10.4524 10.8526 10.4139 10.8629 10.3402 10.8629C10.2665 10.8629 10.2281 10.8526 10.1626 10.8235C10.1052 10.7979 10.0754 10.79 10.0126 10.79C9.90816 10.79 9.80359 10.8132 9.69861 10.8599Z" fill="white"/>
</g>
<path fill-rule="evenodd" clip-rule="evenodd" d="M3.11747 9.79993C3.24367 9.64692 3.31425 9.50773 3.31425 9.35989C3.31425 9.26667 3.28651 9.18616 3.23791 9.12039L3.24612 9.11669C3.24536 9.11704 3.38457 9.05636 3.43303 9.03312C3.52313 8.98992 3.6025 8.94416 3.67989 8.88788C3.7293 8.85195 3.7955 8.81282 3.89641 8.75863L3.99125 8.70819L4.01685 8.69459C4.06589 8.66843 4.10242 8.64837 4.13635 8.62869C4.24208 8.56736 4.31195 8.51667 4.36539 8.4489C4.49196 8.2884 4.46568 8.07082 4.28831 7.95006C4.20141 7.89089 4.08415 7.85694 3.91225 7.83022L3.87665 7.82471L3.6664 7.79212C3.58415 7.7792 3.51075 7.76714 3.44531 7.75571C3.87566 7.6841 4.49019 7.71042 4.7605 7.84999L5.01741 7.35239C4.46657 7.06799 3.21149 7.09703 2.74265 7.4199C2.39878 7.65672 2.44492 8.0147 2.80271 8.16885C2.95221 8.23326 3.1471 8.276 3.50776 8.33394C3.44732 8.369 3.39721 8.40103 3.35052 8.43498C3.30318 8.46942 3.25245 8.49866 3.19092 8.52816C3.16149 8.54227 3.07434 8.58054 3.0344 8.59808L3.01432 8.60692C2.72289 8.73943 2.58146 8.92274 2.62372 9.25366L2.6466 9.43279L2.68764 9.4454L3.11747 9.79993ZM2.75723 9.337L2.75634 9.33958L2.75702 9.33775L2.75723 9.337ZM10.4412 9.35989C10.4412 9.50773 10.5118 9.64692 10.638 9.79993L11.0678 9.4454L11.1089 9.43279L11.1317 9.25366C11.174 8.92274 11.0326 8.73943 10.7411 8.60692L10.7211 8.59808L10.721 8.59804C10.681 8.58049 10.594 8.54226 10.5645 8.52816C10.503 8.49866 10.4523 8.46942 10.4049 8.43498C10.3583 8.40103 10.3081 8.369 10.2477 8.33394C10.6084 8.276 10.8033 8.23326 10.9528 8.16885C11.3105 8.0147 11.3567 7.65672 11.0128 7.4199C10.544 7.09703 9.2889 7.06799 8.73806 7.35239L8.99497 7.84999C9.26528 7.71042 9.8798 7.6841 10.3102 7.75571C10.2447 7.76714 10.1713 7.7792 10.0891 7.79212L9.87879 7.82472L9.84321 7.83022C9.67132 7.85694 9.55405 7.89089 9.46715 7.95006C9.28978 8.07082 9.2635 8.2884 9.39008 8.4489C9.44352 8.51667 9.51339 8.56736 9.61912 8.62869C9.65305 8.64837 9.68957 8.66843 9.73862 8.69459L9.76429 8.70823L9.85905 8.75863C9.95997 8.81282 10.0262 8.85195 10.0756 8.88788C10.153 8.94416 10.2323 8.98992 10.3224 9.03312C10.3709 9.05636 10.5101 9.11704 10.5093 9.11669L10.5176 9.12039C10.469 9.18616 10.4412 9.26667 10.4412 9.35989Z" fill="#AD1619"/>
<path d="M3.7021 7.75L3.90872 7.79274V8.1007C3.68866 8.27629 3.13 8.57223 3.13 8.57223V7.75H3.7021Z" fill="#F1F9FF"/>
<path d="M10.1966 7.75L9.99003 7.79274V8.1007C10.2101 8.27629 10.7687 8.57223 10.7687 8.57223V7.75H10.1966Z" fill="#F1F9FF"/>
<path fill-rule="evenodd" clip-rule="evenodd" d="M9.235 4.50374V4.40125C8.87495 4.14284 8.4979 4.01364 8.10385 4.01364C7.72609 3.84647 7.34372 3.78158 6.95674 3.81897C6.95684 3.81777 6.9569 3.81717 6.9569 3.81717C6.37504 3.76023 5.78864 4.01364 5.78864 4.01364C5.19758 4.01364 4.6575 4.40125 4.6575 4.40125V4.50374L5.36352 5.21282C5.36352 5.21282 5.56225 5.89531 6.95402 5.73491V5.73664C6.95402 5.73664 7.87549 5.71149 7.94024 5.68995C7.96593 5.68141 7.99257 5.67363 8.0198 5.66568C8.20029 5.61299 8.40633 5.55283 8.52898 5.21282L9.235 4.50374ZM6.95402 3.85033C6.93393 4.0864 6.8192 5.50948 6.95402 5.73011V3.85033Z" fill="#AD1619"/>
<path fill-rule="evenodd" clip-rule="evenodd" d="M5.19606 5.09346L5.19652 5.0913L4.69983 4.624L4.7478 4.57301L5.21387 5.01151L5.2258 4.95665C5.30205 4.97323 5.35778 4.97933 5.39027 4.97588V4.88075L5.49358 4.93667C5.5444 4.96417 5.61718 4.97156 5.71303 4.95596C5.78343 4.94451 5.83094 4.86275 5.84647 4.68852L5.87783 4.33679L5.98302 4.67388C6.03061 4.82642 6.10323 4.89366 6.2066 4.89366C6.30757 4.89366 6.34815 4.85665 6.35263 4.76335L6.36534 4.49874L6.485 4.73508C6.52811 4.82023 6.58757 4.85886 6.6721 4.85886C6.79301 4.85886 6.87377 4.75807 6.87377 4.59991H6.87606H7.01377H7.01606C7.01606 4.75807 7.09682 4.85886 7.21772 4.85886C7.30226 4.85886 7.36171 4.82023 7.40482 4.73508L7.52449 4.49874L7.53719 4.76335C7.54167 4.85665 7.58226 4.89366 7.68322 4.89366C7.7866 4.89366 7.85921 4.82642 7.90681 4.67388L8.012 4.33679L8.04336 4.68852C8.05889 4.86275 8.10639 4.94451 8.1768 4.95596C8.27265 4.97156 8.34543 4.96417 8.39624 4.93667L8.49956 4.88075V4.97588C8.53204 4.97933 8.58778 4.97323 8.66403 4.95665L8.68616 5.05844L9.20212 4.57301L9.25009 4.624L8.60802 5.22807C8.51435 5.40058 8.46717 5.51445 8.46717 5.56175C8.46717 5.63392 8.27943 5.67675 7.91302 5.72074C7.62596 5.75521 7.28719 5.77834 7.01009 5.7818V5.78225L6.97496 5.78213L6.93983 5.78225V5.7818C6.66272 5.77834 6.32395 5.75521 6.0369 5.72074C5.67048 5.67675 5.48274 5.63392 5.48274 5.56175C5.48274 5.55281 5.48105 5.54147 5.47768 5.52782C5.44073 5.48076 5.41476 5.40379 5.39747 5.33435C5.38125 5.30188 5.36272 5.26642 5.34189 5.22807L5.19964 5.09423L5.19606 5.09346ZM8.63696 5.10473C8.52232 5.12502 8.43954 5.12297 8.39561 5.08721C8.32691 5.1072 8.24632 5.10912 8.15431 5.09415C8.05604 5.07816 7.9876 5.01279 7.94642 4.90435C7.89266 4.97284 7.82469 5.01512 7.74326 5.02879C8.19121 5.09232 8.505 5.18162 8.505 5.18162C8.505 5.18162 8.49726 5.24796 8.47845 5.32596C8.49836 5.28513 8.52195 5.23976 8.54922 5.18968L8.55597 5.18093L8.63696 5.10473ZM7.53188 5.00219C7.49292 4.98283 7.46181 4.95476 7.43932 4.91858C7.40592 4.94808 7.36794 4.96965 7.32575 4.98296C7.39618 4.98835 7.46505 4.99486 7.53188 5.00219ZM7.07864 4.96934C7.02411 4.94414 6.97877 4.90379 6.94491 4.85209C6.91129 4.90343 6.86636 4.94357 6.81235 4.9688C6.84434 4.96785 6.87653 4.96718 6.90886 4.96682V4.9665L6.93693 4.96658L6.965 4.9665V4.96682C7.00311 4.96724 7.04101 4.9681 7.07864 4.96934ZM5.38885 5.17614L5.32359 5.11473C5.40193 5.1225 5.45992 5.11513 5.49421 5.08721C5.56292 5.1072 5.6435 5.10912 5.73552 5.09415C5.83379 5.07816 5.90222 5.01279 5.9434 4.90435C5.99561 4.97086 6.06121 5.01265 6.13952 5.02754C5.75331 5.0818 5.46515 5.15562 5.38885 5.17614ZM6.56104 4.98199C6.49322 4.98702 6.42682 4.99312 6.36225 4.99999C6.3992 4.98073 6.42885 4.95342 6.45051 4.91858C6.4831 4.94737 6.52006 4.96861 6.56104 4.98199ZM8.28313 5.56312C8.33218 5.58608 8.37149 5.56318 8.40257 5.51923C8.39988 5.53137 8.3982 5.54234 8.39752 5.55217C8.39341 5.55486 8.38712 5.5581 8.37886 5.56157C8.3558 5.57126 8.32059 5.58159 8.27478 5.59204C8.18473 5.61258 8.05657 5.633 7.90467 5.65124C7.60806 5.68685 7.25535 5.71029 6.97496 5.71213C6.69456 5.71029 6.34186 5.68685 6.04524 5.65124C5.89335 5.633 5.76518 5.61258 5.67514 5.59204C5.63674 5.58328 5.60579 5.57461 5.5832 5.56632C5.58568 5.56538 5.5882 5.56431 5.59074 5.56312C5.74365 5.49157 6.75483 5.42442 6.93693 5.41284C7.11903 5.42442 8.13021 5.49157 8.28313 5.56312ZM8.47597 5.5503L8.4749 5.55153L8.47554 5.55064L8.47597 5.5503Z" fill="#C88A02"/>
<path fill-rule="evenodd" clip-rule="evenodd" d="M6.94514 3.34187C7.06112 3.34187 7.15514 3.24785 7.15514 3.13187C7.15514 3.0159 7.06112 2.92188 6.94514 2.92188C6.82916 2.92188 6.73514 3.0159 6.73514 3.13187C6.73514 3.24785 6.82916 3.34187 6.94514 3.34187Z" fill="#005BBF"/>
<path fill-rule="evenodd" clip-rule="evenodd" d="M6.80854 4.37293C6.81302 4.39598 6.82001 4.41744 6.82886 4.43656C6.80173 4.4262 6.76953 4.4202 6.735 4.4202C6.63835 4.4202 6.56 4.46721 6.56 4.5252C6.56 4.58319 6.63835 4.6302 6.735 4.6302C6.83165 4.6302 6.91 4.58319 6.91 4.5252C6.91 4.58319 6.98835 4.6302 7.085 4.6302C7.18165 4.6302 7.26 4.58319 7.26 4.5252C7.26 4.46721 7.18165 4.4202 7.085 4.4202C7.06067 4.4202 7.0375 4.42318 7.01645 4.42856C7.02152 4.39985 7.0213 4.36694 7.01468 4.33286C6.99624 4.23799 6.93514 4.17005 6.87821 4.18111C6.82129 4.19218 6.79009 4.27806 6.80854 4.37293ZM6.91 4.5252L6.90992 4.52199L6.91008 4.52204L6.91 4.5252ZM5.77886 4.50656C5.77001 4.48744 5.76302 4.46598 5.75854 4.44293C5.74009 4.34806 5.77129 4.26218 5.82821 4.25111C5.88514 4.24005 5.94624 4.30799 5.96468 4.40286C5.9713 4.43694 5.97152 4.46985 5.96645 4.49856C5.9875 4.49318 6.01067 4.4902 6.035 4.4902C6.13165 4.4902 6.21 4.53721 6.21 4.5952C6.21 4.65319 6.13165 4.7002 6.035 4.7002C5.93835 4.7002 5.86 4.65319 5.86 4.5952L5.86008 4.59204L5.85992 4.59199L5.86 4.5952C5.86 4.65319 5.78165 4.7002 5.685 4.7002C5.58835 4.7002 5.51 4.65319 5.51 4.5952C5.51 4.53721 5.58835 4.4902 5.685 4.4902C5.71953 4.4902 5.75173 4.4962 5.77886 4.50656ZM7.9712 4.57055C7.96313 4.62797 7.879 4.66362 7.78329 4.65017C7.68759 4.63672 7.61654 4.57926 7.62461 4.52184C7.63268 4.46441 7.71681 4.42876 7.81252 4.44221C7.84672 4.44702 7.87777 4.45745 7.90319 4.47148C7.89709 4.45131 7.89315 4.42909 7.89192 4.40564C7.88686 4.30913 7.92971 4.22842 7.98762 4.22539C8.04553 4.22235 8.09658 4.29814 8.10163 4.39465C8.10345 4.42932 8.09909 4.46194 8.09007 4.48966C8.11166 4.48726 8.13502 4.48754 8.15912 4.49092C8.25482 4.50438 8.32587 4.56183 8.3178 4.61926C8.30973 4.67668 8.2256 4.71233 8.12989 4.69888C8.03418 4.68543 7.96313 4.62797 7.9712 4.57055ZM7.9712 4.57055L7.97157 4.56736L7.97172 4.56744L7.9712 4.57055ZM8.63772 4.84821C8.72305 4.89358 8.8143 4.88886 8.84153 4.83765L8.84296 4.83479C8.85137 4.84369 8.86132 4.85016 8.87267 4.85363C8.92813 4.87059 8.99599 4.8094 9.02425 4.71698C9.05251 4.62455 9.03046 4.53588 8.975 4.51892C8.91954 4.50197 8.85168 4.56315 8.82342 4.65558C8.81656 4.67803 8.81266 4.70026 8.81149 4.7213C8.79241 4.69942 8.7668 4.679 8.7363 4.66279C8.65097 4.61741 8.55972 4.62214 8.53249 4.67334C8.50527 4.72454 8.55238 4.80283 8.63772 4.84821ZM5.20301 4.86965C5.11767 4.91502 5.02642 4.9103 4.9992 4.8591C4.9987 4.85815 4.99822 4.8572 4.99776 4.85623C4.98936 4.86513 4.97941 4.8716 4.96805 4.87507C4.9126 4.89203 4.84473 4.83085 4.81648 4.73842C4.78822 4.64599 4.81027 4.55732 4.86572 4.54037C4.92118 4.52341 4.98904 4.5846 5.0173 4.67702C5.02417 4.69948 5.02806 4.72171 5.02923 4.74274C5.04831 4.72086 5.07393 4.70044 5.10442 4.68423C5.18976 4.63886 5.28101 4.64358 5.30823 4.69478C5.33545 4.74598 5.28835 4.82428 5.20301 4.86965Z" fill="#C88A02"/>
<path fill-rule="evenodd" clip-rule="evenodd" d="M6.86676 2.54785H7.01259V2.63998H7.10788V2.78581H7.01259V3.07748H7.10788V3.22331H6.76999V3.07748H6.86676V2.78581H6.76999V2.63998H6.86676V2.54785Z" fill="#C88A02"/>
<rect x="6.84" y="3.33997" width="0.28" height="0.91" fill="#C88A02"/>
<path d="M5.71286 3.49235L5.71164 3.56234C5.09095 3.5515 4.73492 3.64208 4.64454 3.82261C4.5511 4.00925 4.56848 4.23614 4.6994 4.50566L4.63644 4.53624C4.49675 4.24868 4.47767 3.99956 4.58194 3.79127C4.68928 3.57687 5.06591 3.48105 5.71286 3.49235Z" fill="white"/>
<path d="M5.83295 4.11309L5.79706 4.17319C5.66189 4.09249 5.59424 3.95475 5.59424 3.76494C5.59424 3.49214 5.73477 3.33217 6.04561 3.22269C6.244 3.15282 6.51501 3.18147 6.85939 3.30633L6.83553 3.37214C6.50493 3.25228 6.24912 3.22523 6.06886 3.28872C5.78375 3.38913 5.66424 3.52518 5.66424 3.76494C5.66424 3.93151 5.72043 4.04591 5.83295 4.11309Z" fill="white"/>
<path d="M4.7876 4.39833L4.65551 4.44472C4.51846 4.05451 4.5576 3.7895 4.79178 3.67518C4.99813 3.57445 5.29887 3.53346 5.6955 3.54953L5.68983 3.68942C5.31431 3.6742 5.03493 3.71228 4.85319 3.80099C4.69929 3.87612 4.67114 4.06674 4.7876 4.39833Z" fill="#C88A02"/>
<path d="M6.33079 3.39916C6.0107 3.39916 5.87926 3.47711 5.80416 3.70729C5.75631 3.85398 5.80272 3.97918 5.95322 4.09604L5.86735 4.20662C5.67251 4.05532 5.60381 3.87002 5.67107 3.66387C5.76677 3.37053 5.95456 3.25916 6.33079 3.25916C6.57739 3.25916 6.76949 3.32394 6.90324 3.45579L6.9241 3.47635V4.15133H6.7841V3.53619C6.67964 3.44546 6.52959 3.39916 6.33079 3.39916Z" fill="#C88A02"/>
<path d="M8.15561 3.56241L8.15683 3.6324C8.77752 3.62157 9.13355 3.71215 9.22393 3.89268C9.31737 4.07932 9.29999 4.30621 9.16907 4.57573L9.23203 4.60631C9.37172 4.31875 9.3908 4.06963 9.28653 3.86134C9.17919 3.64694 8.80255 3.55112 8.15561 3.56241Z" fill="white"/>
<path d="M7.93643 4.12762L7.97232 4.18772C8.10749 4.10701 8.17514 3.96928 8.17514 3.77946C8.17514 3.50666 8.03461 3.34669 7.72377 3.23722C7.52538 3.16735 7.25437 3.196 6.90999 3.32086L6.93385 3.38667C7.26445 3.2668 7.52026 3.23976 7.70051 3.30324C7.98563 3.40366 8.10514 3.5397 8.10514 3.77946C8.10514 3.94603 8.04895 4.06044 7.93643 4.12762Z" fill="white"/>
<path d="M9.12451 4.4684L9.2566 4.51479C9.39365 4.12457 9.35451 3.85957 9.12033 3.74525C8.91398 3.64452 8.61324 3.60353 8.21661 3.6196L8.22228 3.75948C8.5978 3.74427 8.87718 3.78235 9.05892 3.87106C9.21282 3.94619 9.24097 4.13681 9.12451 4.4684Z" fill="#C88A02"/>
<path d="M7.57329 3.41002C7.89338 3.41002 8.02482 3.48798 8.09992 3.71816C8.14777 3.86485 8.10136 3.99004 7.95087 4.10691L8.03674 4.21748C8.23157 4.06618 8.30027 3.88088 8.23301 3.67474C8.13731 3.38139 7.94953 3.27002 7.57329 3.27002C7.32669 3.27002 7.1346 3.33481 7.00084 3.46666L6.97998 3.48722V4.1622H7.11998V3.54706C7.22445 3.45632 7.3745 3.41002 7.57329 3.41002Z" fill="#C88A02"/>
<path opacity="0.3" fill-rule="evenodd" clip-rule="evenodd" d="M4.66998 5.79004H9.21998V9.87806C9.21998 9.87806 8.882 11.25 6.94498 11.25C5.00797 11.25 4.66998 9.84188 4.66998 9.84188V5.79004Z" fill="#E1E5E8"/>
<mask id="mask4" mask-type="alpha" maskUnits="userSpaceOnUse" x="4" y="5" width="6" height="7">
<path fill-rule="evenodd" clip-rule="evenodd" d="M4.66998 5.79004H9.21998V9.87806C9.21998 9.87806 8.882 11.25 6.94498 11.25C5.00797 11.25 4.66998 9.84188 4.66998 9.84188V5.79004Z" fill="white"/>
</mask>
<g mask="url(#mask4)">
<rect x="4.66998" y="8.31006" width="2.31" height="2.73" fill="#FFC034"/>
<rect x="4.94998" y="8.45007" width="0.28" height="2.59" fill="#AD1619"/>
<rect x="5.92999" y="8.45007" width="0.28" height="2.59" fill="#AD1619"/>
<rect x="5.43997" y="8.45007" width="0.28" height="2.59" fill="#AD1619"/>
<rect x="6.41998" y="8.45007" width="0.28" height="2.59" fill="#AD1619"/>
<rect x="4.66998" y="5.72009" width="2.31" height="2.66" fill="#AD1619"/>
<rect x="6.90997" y="8.23999" width="2.31" height="2.66" fill="#AD1619"/>
<rect x="6.90997" y="5.79004" width="2.45" height="2.59" fill="#F1F9FF"/>
<path fill-rule="evenodd" clip-rule="evenodd" d="M5.64997 6H5.85997V6.58074H5.99997V6.29037H6.20997V6.58074H6.41997V6.9437H6.20997V7.59704H6.41997V7.96H5.15997V7.59704H5.36997V6.9437H5.15997V6.58074H5.29997V6.29037H5.50997V6.58074H5.64997V6Z" fill="#C88A02"/>
<path d="M8.11176 6.12197L8.25511 5.96851L8.55607 6.24965L8.41272 6.40311L8.11176 6.12197Z" fill="#C88A02"/>
<path fill-rule="evenodd" clip-rule="evenodd" d="M8.97498 10.0876V8.55505H7.22498V10.0748L7.22775 10.0866C7.31634 10.4641 7.61803 10.6551 8.09998 10.6551C8.58146 10.6551 8.88311 10.469 8.97206 10.0997L8.97498 10.0876ZM8.09998 10.4451C7.71328 10.4451 7.50211 10.3148 7.43498 10.05V8.76505H8.76498V10.0622C8.69801 10.3183 8.48682 10.4451 8.09998 10.4451Z" fill="#FFC034"/>
<path fill-rule="evenodd" clip-rule="evenodd" d="M8.17223 8.68311H8.0264V9.3779L7.45151 8.75264L7.34845 8.84739L7.86836 9.41285H7.39729V9.62285H7.75915H7.87981L7.34845 10.2008L7.45151 10.2955L8.0264 9.67027V10.4824H8.17223V9.74335L8.67992 10.2955L8.78298 10.2008L8.25162 9.62285H8.84472V9.41285H8.26308L8.78298 8.84739L8.67992 8.75264L8.17223 9.30481V8.68311Z" fill="#FFC034"/>
<path fill-rule="evenodd" clip-rule="evenodd" d="M8.42669 10.9017C8.42669 10.9017 6.94407 11.0182 6.94407 10.062C6.94407 10.062 6.92993 10.9017 5.38181 10.9017V11.6566H8.42669V10.9017Z" fill="#F1F9FF"/>
<path fill-rule="evenodd" clip-rule="evenodd" d="M6.94498 8.87C7.23493 8.87 7.46998 8.61928 7.46998 8.31C7.46998 8.00072 7.23493 7.75 6.94498 7.75C6.65503 7.75 6.41998 8.00072 6.41998 8.31C6.41998 8.61928 6.65503 8.87 6.94498 8.87Z" fill="#005BBF" stroke="#AD1619" stroke-width="0.729167"/>
</g>
</g>
</g>
</svg>
