<svg width="32" height="24" viewBox="0 0 32 24" fill="none" xmlns="http://www.w3.org/2000/svg">
<mask id="mask0" mask-type="alpha" maskUnits="userSpaceOnUse" x="0" y="0" width="32" height="24">
<rect width="32" height="24" fill="white"/>
</mask>
<g mask="url(#mask0)">
<path fill-rule="evenodd" clip-rule="evenodd" d="M8 0H25V24H8V0Z" fill="#F7FCFF"/>
<path fill-rule="evenodd" clip-rule="evenodd" d="M24 0H32V24H24V0Z" fill="#F50101"/>
<path fill-rule="evenodd" clip-rule="evenodd" d="M0 0H8V24H0V0Z" fill="#F50101"/>
<path d="M15.7413 8.74515L15.7748 9.10709C14.7764 9.20807 14.2369 8.72021 14.2369 7.70768C14.2369 6.70297 14.7647 6.16892 15.757 6.1626L15.7591 6.52623C14.9551 6.53135 14.5848 6.90614 14.5848 7.70768C14.5848 8.5014 14.9435 8.82584 15.7413 8.74515Z" fill="#A2BB6A"/>
<path d="M16.1835 8.74515L16.15 9.10709C17.1485 9.20807 17.6879 8.72021 17.6879 7.70768C17.6879 6.70297 17.1601 6.16892 16.1678 6.1626L16.1657 6.52623C16.9697 6.53135 17.34 6.90614 17.34 7.70768C17.34 8.5014 16.9813 8.82584 16.1835 8.74515Z" fill="#A2BB6A"/>
<path fill-rule="evenodd" clip-rule="evenodd" d="M15.1396 17.1229C14.8525 17.2257 12.906 17.1229 12.906 17.1229V17.665H14.1965C14.6271 17.665 14.7898 17.7421 14.9392 17.8128C15.0657 17.8727 15.1826 17.928 15.4446 17.928C15.9549 17.928 15.9456 17.5484 15.9378 17.2324C15.9368 17.1948 15.9359 17.158 15.9359 17.1229C15.9359 16.9886 15.9569 16.9137 15.9732 16.8554C15.997 16.7706 16.0109 16.721 15.9359 16.5751C15.8095 16.3288 14.6074 16.3617 14.6074 16.5751C14.6074 16.6757 14.7896 16.7804 14.9521 16.8737C15.1341 16.9783 15.2913 17.0685 15.1396 17.1229ZM16.889 17.1229C17.1761 17.2257 19.1226 17.1229 19.1226 17.1229V17.665H17.8321C17.4015 17.665 17.2387 17.7421 17.0894 17.8128C16.9629 17.8727 16.846 17.928 16.584 17.928C16.0736 17.928 16.083 17.5484 16.0908 17.2324C16.0917 17.1948 16.0926 17.158 16.0926 17.1229C16.0926 16.9886 16.0717 16.9137 16.0553 16.8554C16.0316 16.7706 16.0177 16.721 16.0926 16.5751C16.219 16.3288 17.4212 16.3617 17.4212 16.5751C17.4212 16.6757 17.2389 16.7804 17.0765 16.8737C16.8945 16.9783 16.7373 17.0685 16.889 17.1229Z" fill="#E31D1C"/>
<path fill-rule="evenodd" clip-rule="evenodd" d="M16.4071 17.1747C16.4071 17.1747 17.9261 17.0238 18.2696 16.476C18.6131 15.9282 19.1853 14.9931 19.3865 14.7667C19.5877 14.5402 19.6008 15.09 19.6008 15.09C19.6008 15.09 19.9327 15.5609 19.9327 14.9588C19.9327 14.3568 19.6966 14.7774 19.3865 13.8716C19.0765 12.9658 18.9021 12.0773 18.9893 11.9428C19.0765 11.8083 19.283 12.0773 19.283 11.9428C19.283 11.8083 19.283 11.5451 19.283 11.5451L19.6008 11.9428L19.9327 11.8168C19.9327 11.8168 20.206 12.402 20.3743 12.5832C20.5426 12.7644 20.641 12.3405 20.5918 11.9428C20.5426 11.5451 19.9327 11.5451 19.9327 11.5451C19.9327 11.5451 19.1527 11.1246 19.1527 10.9484C19.1527 10.7722 19.4899 10.8247 19.4899 10.8247L19.3865 10.2791C19.3865 10.2791 19.6653 10.6105 19.799 10.4448C19.9327 10.2791 19.6008 9.98836 19.6008 9.98836H20.13V9.73285L20.3743 9.8696L20.13 9.31165C20.13 9.31165 19.4133 9.41956 19.283 9.31165C19.1527 9.20374 18.7423 8.78313 18.7423 8.78313V8.58346H18.5058L18.7423 8.18295V7.54518L19.6008 7.71633V7.24475C19.6008 7.24475 20.8093 7.83391 20.5918 8.30852C20.3743 8.78313 20.3743 9.31165 20.3743 9.31165V9.73285C20.3743 9.73285 20.4105 9.60391 20.5918 9.60391C20.7731 9.60391 20.9795 9.69761 20.9795 9.98836C20.9795 10.2791 21.3488 9.8696 21.3488 9.8696V11.0792C21.3488 11.0792 21.4356 11.21 21.6253 11.0792C21.8151 10.9484 21.7319 11.0504 21.1619 11.8168C20.5918 12.5832 20.7971 12.5853 20.9795 12.3975C21.1619 12.2097 21.9019 11.6759 21.6253 11.9428C21.3488 12.2097 21.3304 12.7689 21.6253 12.5832C21.9203 12.3975 21.8633 12.2654 21.8633 12.5832C21.8633 12.901 21.3443 13.9829 21.1619 14.1523C20.9795 14.3218 20.8093 14.426 20.5918 14.5963C20.3743 14.7667 20.13 14.9679 20.13 15.09C20.13 15.2122 20.5918 14.9588 20.5918 14.9588L20.3743 15.7354H20.797C20.797 15.7354 20.4606 16.7666 19.799 16.7666C19.1374 16.7666 18.6387 16.7666 18.5058 16.7666C18.3729 16.7666 17.7722 17.0499 17.7722 17.0499L17.3328 17.1747C17.3328 17.1747 18.0333 17.2416 18.2696 17.452C18.5058 17.6623 18.2696 17.809 18.2696 17.809C18.2696 17.809 17.6212 17.7447 17.1373 17.5983C16.6533 17.452 16.4071 17.7293 16.4071 17.452C16.4071 17.1747 16.4071 17.1747 16.4071 17.1747Z" fill="#00A854"/>
<path fill-rule="evenodd" clip-rule="evenodd" d="M20.7827 8.90911C20.7827 9.00953 20.7048 9.09093 20.6087 9.09093C20.5127 9.09093 20.4348 9.00953 20.4348 8.90911C20.4348 8.8087 20.5127 8.72729 20.6087 8.72729C20.7048 8.72729 20.7827 8.8087 20.7827 8.90911ZM19.9131 9.63639C19.9131 9.7368 19.8352 9.8182 19.7392 9.8182C19.6431 9.8182 19.5653 9.7368 19.5653 9.63639C19.5653 9.53597 19.6431 9.45457 19.7392 9.45457C19.8352 9.45457 19.9131 9.53597 19.9131 9.63639ZM20.7827 9.45457C20.8787 9.45457 20.9566 9.37316 20.9566 9.27275C20.9566 9.17233 20.8787 9.09093 20.7827 9.09093C20.6866 9.09093 20.6087 9.17233 20.6087 9.27275C20.6087 9.37316 20.6866 9.45457 20.7827 9.45457ZM20.4348 12.1818C20.4348 12.2823 20.357 12.3637 20.2609 12.3637C20.1649 12.3637 20.087 12.2823 20.087 12.1818C20.087 12.0814 20.1649 12 20.2609 12C20.357 12 20.4348 12.0814 20.4348 12.1818ZM19.5653 14.5455C19.6613 14.5455 19.7392 14.4641 19.7392 14.3637C19.7392 14.2632 19.6613 14.1818 19.5653 14.1818C19.4692 14.1818 19.3914 14.2632 19.3914 14.3637C19.3914 14.4641 19.4692 14.5455 19.5653 14.5455ZM20.9566 14.9091C20.9566 15.0095 20.8787 15.0909 20.7827 15.0909C20.6866 15.0909 20.6087 15.0095 20.6087 14.9091C20.6087 14.8087 20.6866 14.7273 20.7827 14.7273C20.8787 14.7273 20.9566 14.8087 20.9566 14.9091ZM21.1305 14.7273C21.2265 14.7273 21.3044 14.6459 21.3044 14.5455C21.3044 14.4451 21.2265 14.3637 21.1305 14.3637C21.0344 14.3637 20.9566 14.4451 20.9566 14.5455C20.9566 14.6459 21.0344 14.7273 21.1305 14.7273ZM21.1305 12C21.1305 12.1004 21.0526 12.1818 20.9566 12.1818C20.8605 12.1818 20.7827 12.1004 20.7827 12C20.7827 11.8996 20.8605 11.8182 20.9566 11.8182C21.0526 11.8182 21.1305 11.8996 21.1305 12Z" fill="#C51918"/>
<path fill-rule="evenodd" clip-rule="evenodd" d="M15.6855 16.8546C15.6855 16.8546 12.9219 16.3084 12.7707 15.2512C12.6196 14.1939 12.6217 13.0684 12.6217 13.0684L12.3654 13.7562C12.3654 13.7562 12.3525 12.8199 12.8781 12.152C13.4038 11.484 12.2211 12.5945 12.2211 12.5945C12.2211 12.5945 12.8199 11.6503 13.0692 11.5604C13.3186 11.4705 12.0675 12.152 12.0675 12.152C12.0675 12.152 12.4259 11.3596 12.7045 11.1355C12.9831 10.9114 12.0675 11.5604 12.0675 11.5604C12.0675 11.5604 12.2746 10.7745 12.5224 10.5871C12.7702 10.3996 11.7127 11.5604 11.7127 11.5604C11.7127 11.5604 12.2706 9.76474 12.5849 9.59716C12.8992 9.42958 12.0675 9.92639 12.0675 9.92639C12.0675 9.92639 12.5769 9.1584 13.0333 8.77662C13.4896 8.39483 12.2085 8.93942 12.3654 8.93942C12.3654 8.93942 12.8287 8.41625 13.0949 8.26858C13.361 8.12091 12.0675 8.77662 12.0675 8.77662C12.0675 8.77662 12.996 7.75195 13.2744 7.6011C13.5527 7.45024 11.9079 8.41483 11.9079 8.41483C11.9079 8.41483 12.004 7.96802 12.0455 7.6487C12.0869 7.32938 11.2834 8.52383 11.3925 9.59716C11.5016 10.6705 10.9554 8.77662 10.9554 8.77662C10.9554 8.77662 10.7356 9.18777 11.2696 10.2647L10.6908 9.45365C10.6908 9.45365 10.77 10.1897 10.9554 10.5871C11.1408 10.9844 10.4291 9.92639 10.4291 9.92639C10.4291 9.92639 10.2929 10.5871 10.4291 10.5871C10.4291 10.5871 11.2418 11.6729 11.2719 11.9894C11.3021 12.306 10.3592 10.8591 10.233 10.8591C10.1068 10.8591 10.0369 11.3238 10.233 11.3238C10.4291 11.3238 10.8005 11.9894 10.8005 11.9894C10.8005 11.9894 10.3178 11.6406 10.2143 11.6199C10.1108 11.5993 10.2955 11.8269 10.4291 11.9894C10.4291 11.9894 10.0515 12.2973 10.0802 12.5306C10.1088 12.7638 11.1094 12.8132 11.5454 13.9204C11.5454 13.9204 10.6439 13.4437 10.4291 13.4437C10.2143 13.4437 10.775 13.9414 10.9554 14.1057C11.1358 14.27 10.6774 13.9414 10.5532 14.1057C10.4291 14.27 11.2397 14.9718 11.3925 14.9718C11.5454 14.9718 10.8005 14.9718 10.8005 14.9718C10.8005 14.9718 10.9985 15.2512 11.2719 15.2512C11.5454 15.2512 12.5224 15.6903 12.5224 15.8326C12.5224 15.9748 11.6982 15.6505 11.5454 15.6505C11.3925 15.6505 12.6215 16.8103 13.2744 16.8546C13.9273 16.8988 14.3399 17.0741 14.6214 17.0741C14.9029 17.0741 15.1007 17.0741 15.1007 17.0741L13.7709 17.7517C13.7709 17.7517 13.6366 17.7517 14.2135 17.7517C14.7905 17.7517 15.2317 17.912 15.4586 17.5805C15.6855 17.2491 15.6855 16.8546 15.6855 16.8546Z" fill="#00A854"/>
<mask id="path-12-outside-1" maskUnits="userSpaceOnUse" x="11.177" y="6.88147" width="9" height="11" fill="black">
<rect fill="white" x="11.177" y="6.88147" width="9" height="11"/>
<path fill-rule="evenodd" clip-rule="evenodd" d="M16.0868 8.90541C16.1134 8.89033 16.1283 8.88147 16.1283 8.88147V8.9286C16.3208 9.03481 16.8055 9.28369 17.1207 9.28369C17.5214 9.28369 18.066 8.88147 18.066 8.88147L18.9773 10.1682C18.9773 10.1682 18.3636 11.4545 18.8332 13.0263C19.3028 14.5981 18.8083 15.8101 16.72 15.9447C16.72 15.9447 16.3086 16.0229 16.1283 16.1475V16.2626C16.1283 16.2339 16.1129 16.2067 16.0868 16.1811C16.0607 16.2067 16.0453 16.2339 16.0453 16.2626V16.1475C15.8651 16.0229 15.4536 15.9447 15.4536 15.9447C13.3653 15.8101 12.8708 14.5981 13.3404 13.0263C13.81 11.4545 13.1963 10.1682 13.1963 10.1682L14.1076 8.88147C14.1076 8.88147 14.6522 9.28369 15.0529 9.28369C15.3681 9.28369 15.8528 9.03481 16.0453 8.9286V8.88147C16.0453 8.88147 16.0602 8.89033 16.0868 8.90541Z"/>
</mask>
<path fill-rule="evenodd" clip-rule="evenodd" d="M16.0868 8.90541C16.1134 8.89033 16.1283 8.88147 16.1283 8.88147V8.9286C16.3208 9.03481 16.8055 9.28369 17.1207 9.28369C17.5214 9.28369 18.066 8.88147 18.066 8.88147L18.9773 10.1682C18.9773 10.1682 18.3636 11.4545 18.8332 13.0263C19.3028 14.5981 18.8083 15.8101 16.72 15.9447C16.72 15.9447 16.3086 16.0229 16.1283 16.1475V16.2626C16.1283 16.2339 16.1129 16.2067 16.0868 16.1811C16.0607 16.2067 16.0453 16.2339 16.0453 16.2626V16.1475C15.8651 16.0229 15.4536 15.9447 15.4536 15.9447C13.3653 15.8101 12.8708 14.5981 13.3404 13.0263C13.81 11.4545 13.1963 10.1682 13.1963 10.1682L14.1076 8.88147C14.1076 8.88147 14.6522 9.28369 15.0529 9.28369C15.3681 9.28369 15.8528 9.03481 16.0453 8.9286V8.88147C16.0453 8.88147 16.0602 8.89033 16.0868 8.90541Z" fill="#E8AA00"/>
<path d="M16.1283 8.88147H17.1283V7.12111L15.6162 8.02252L16.1283 8.88147ZM16.0868 8.90541L15.5937 9.77538L16.0868 10.0549L16.5799 9.77538L16.0868 8.90541ZM16.1283 8.9286H15.1283V9.51898L15.6452 9.80418L16.1283 8.9286ZM18.066 8.88147L18.8821 8.30351L18.2925 7.47105L17.472 8.07706L18.066 8.88147ZM18.9773 10.1682L19.8798 10.5988L20.1326 10.0692L19.7934 9.59025L18.9773 10.1682ZM18.8332 13.0263L17.875 13.3126L18.8332 13.0263ZM16.72 15.9447L16.6557 14.9467L16.5941 14.9507L16.5334 14.9622L16.72 15.9447ZM16.1283 16.1475L15.5597 15.3248L15.1283 15.623V16.1475H16.1283ZM16.0868 16.1811L16.787 15.4672L16.0868 14.7804L15.3866 15.4672L16.0868 16.1811ZM16.0453 16.1475H17.0453V15.623L16.6139 15.3248L16.0453 16.1475ZM15.4536 15.9447L15.6403 14.9622L15.5795 14.9507L15.5179 14.9467L15.4536 15.9447ZM13.1963 10.1682L12.3802 9.59025L12.041 10.0692L12.2938 10.5988L13.1963 10.1682ZM14.1076 8.88147L14.7017 8.07706L13.8811 7.47105L13.2915 8.30351L14.1076 8.88147ZM16.0453 8.9286L16.5284 9.80418L17.0453 9.51898V8.9286H16.0453ZM16.0453 8.88147L16.5574 8.02252L15.0453 7.12111V8.88147H16.0453ZM16.1283 8.88147C15.6162 8.02252 15.6162 8.02251 15.6162 8.0225C15.6163 8.0225 15.6163 8.02249 15.6163 8.02248C15.6163 8.02247 15.6163 8.02246 15.6163 8.02244C15.6164 8.02242 15.6164 8.02239 15.6165 8.02237C15.6165 8.02232 15.6166 8.02228 15.6167 8.02223C15.6168 8.02215 15.617 8.02207 15.6171 8.022C15.6173 8.02186 15.6175 8.02175 15.6176 8.02167C15.6179 8.02152 15.6179 8.0215 15.6178 8.0216C15.6174 8.02179 15.6163 8.02248 15.6143 8.02361C15.6104 8.02589 15.6034 8.02994 15.5937 8.03545L16.5799 9.77538C16.5968 9.7658 16.6105 9.75788 16.6207 9.75196C16.6258 9.74899 16.63 9.74652 16.6333 9.74458C16.6349 9.74362 16.6364 9.74278 16.6375 9.74209C16.6381 9.74174 16.6386 9.74142 16.6391 9.74115C16.6393 9.74101 16.6396 9.74088 16.6398 9.74076C16.6399 9.7407 16.64 9.74064 16.6401 9.74058C16.6401 9.74055 16.6402 9.74053 16.6402 9.7405C16.6402 9.74049 16.6402 9.74047 16.6403 9.74046C16.6403 9.74045 16.6403 9.74044 16.6403 9.74044C16.6403 9.74043 16.6403 9.74042 16.1283 8.88147ZM17.1283 8.9286V8.88147H15.1283V8.9286H17.1283ZM15.6452 9.80418C15.7587 9.86679 15.9655 9.97569 16.2 10.0716C16.4027 10.1545 16.756 10.2837 17.1207 10.2837V8.28369C17.1626 8.28369 17.1668 8.29021 17.1199 8.27757C17.0791 8.26657 17.0239 8.24772 16.957 8.22036C16.8222 8.16527 16.6904 8.09662 16.6113 8.05301L15.6452 9.80418ZM17.1207 10.2837C17.5886 10.2837 18.0148 10.0726 18.2187 9.96252C18.3435 9.89516 18.4494 9.82898 18.5243 9.77975C18.5622 9.75482 18.5933 9.73343 18.6162 9.71735C18.6277 9.70929 18.6372 9.7025 18.6446 9.6972C18.6482 9.69454 18.6514 9.69226 18.654 9.69036C18.6553 9.68942 18.6564 9.68857 18.6575 9.68782C18.658 9.68744 18.6585 9.6871 18.6589 9.68677C18.6591 9.68661 18.6593 9.68646 18.6595 9.68631C18.6596 9.68623 18.6598 9.68612 18.6598 9.68609C18.66 9.68598 18.6601 9.68588 18.066 8.88147C17.472 8.07706 17.4721 8.07696 17.4722 8.07686C17.4723 8.07683 17.4724 8.07673 17.4725 8.07667C17.4726 8.07655 17.4728 8.07643 17.473 8.07631C17.4733 8.07609 17.4735 8.07588 17.4738 8.0757C17.4743 8.07534 17.4747 8.07507 17.4749 8.07488C17.4754 8.07451 17.4755 8.07449 17.4751 8.07478C17.4742 8.07537 17.4717 8.07722 17.4675 8.08016C17.459 8.08607 17.4445 8.09611 17.4251 8.10889C17.3853 8.13507 17.33 8.16944 17.2685 8.20264C17.2051 8.23691 17.149 8.26227 17.1062 8.2773C17.0562 8.29487 17.0657 8.28369 17.1207 8.28369V10.2837ZM17.25 9.45942L18.1612 10.7462L19.7934 9.59025L18.8821 8.30351L17.25 9.45942ZM18.9773 10.1682C18.0748 9.73759 18.0746 9.73793 18.0745 9.73828C18.0744 9.73841 18.0742 9.73876 18.0741 9.73901C18.0739 9.73951 18.0736 9.74002 18.0734 9.74056C18.0729 9.74163 18.0723 9.74279 18.0717 9.74403C18.0706 9.7465 18.0693 9.74931 18.0678 9.75245C18.0649 9.75871 18.0615 9.76629 18.0575 9.77513C18.0496 9.79283 18.0397 9.81566 18.0282 9.84337C18.0052 9.89874 17.9758 9.97394 17.9437 10.0669C17.8796 10.2523 17.8033 10.5116 17.7455 10.828C17.6302 11.4585 17.5841 12.3387 17.875 13.3126L19.7913 12.74C19.6127 12.1421 19.6387 11.5933 19.7128 11.1877C19.7497 10.986 19.7976 10.8255 19.8338 10.7206C19.8519 10.6684 19.8668 10.6308 19.8755 10.6097C19.8799 10.5992 19.8827 10.5929 19.8836 10.5909C19.884 10.59 19.8839 10.5901 19.8833 10.5914C19.883 10.5921 19.8826 10.593 19.882 10.5943C19.8817 10.5949 19.8814 10.5956 19.881 10.5963C19.8809 10.5967 19.8807 10.5971 19.8805 10.5975C19.8804 10.5977 19.8802 10.5981 19.8802 10.5982C19.88 10.5985 19.8798 10.5988 18.9773 10.1682ZM17.875 13.3126C18.0726 13.9738 17.9937 14.3267 17.8902 14.4906C17.8039 14.6273 17.5347 14.8901 16.6557 14.9467L16.7843 16.9426C17.9937 16.8647 19.0158 16.4542 19.5814 15.5583C20.1298 14.6896 20.0634 13.6507 19.7913 12.74L17.875 13.3126ZM16.72 15.9447C16.5334 14.9622 16.5332 14.9623 16.5331 14.9623C16.5331 14.9623 16.533 14.9623 16.5329 14.9623C16.5328 14.9624 16.5326 14.9624 16.5325 14.9624C16.5321 14.9625 16.5318 14.9625 16.5314 14.9626C16.5307 14.9628 16.5298 14.9629 16.5288 14.9631C16.5269 14.9635 16.5246 14.9639 16.5219 14.9645C16.5164 14.9656 16.5094 14.967 16.501 14.9687C16.4841 14.9721 16.4614 14.9769 16.4342 14.983C16.3805 14.9951 16.3058 15.0129 16.2221 15.0364C16.0966 15.0715 15.8013 15.1578 15.5597 15.3248L16.6969 16.9701C16.6492 17.003 16.6265 17.0079 16.6591 16.9953C16.683 16.986 16.7182 16.9744 16.7615 16.9623C16.8031 16.9506 16.8425 16.9411 16.8716 16.9346C16.8858 16.9314 16.8967 16.9292 16.903 16.9279C16.9062 16.9272 16.9082 16.9268 16.9089 16.9267C16.9092 16.9266 16.9092 16.9266 16.9089 16.9267C16.9087 16.9267 16.9084 16.9268 16.9081 16.9268C16.9079 16.9269 16.9077 16.9269 16.9074 16.927C16.9073 16.927 16.9072 16.927 16.9071 16.927C16.907 16.927 16.9069 16.927 16.9069 16.9271C16.9068 16.9271 16.9067 16.9271 16.72 15.9447ZM17.1283 16.2626V16.1475H15.1283V16.2626H17.1283ZM15.3866 16.895C15.3166 16.8264 15.1283 16.6121 15.1283 16.2626H17.1283C17.1283 15.8558 16.9092 15.587 16.787 15.4672L15.3866 16.895ZM15.3866 15.4672C15.2644 15.587 15.0453 15.8558 15.0453 16.2626H17.0453C17.0453 16.6121 16.857 16.8264 16.787 16.895L15.3866 15.4672ZM17.0453 16.2626V16.1475H15.0453V16.2626H17.0453ZM15.4536 15.9447C15.2669 16.9271 15.2668 16.9271 15.2667 16.9271C15.2667 16.927 15.2666 16.927 15.2665 16.927C15.2664 16.927 15.2663 16.927 15.2662 16.927C15.2659 16.9269 15.2657 16.9269 15.2655 16.9268C15.2652 16.9268 15.2649 16.9267 15.2648 16.9267C15.2644 16.9266 15.2644 16.9266 15.2647 16.9267C15.2654 16.9268 15.2674 16.9272 15.2706 16.9279C15.2769 16.9292 15.2878 16.9314 15.302 16.9346C15.3311 16.9411 15.3705 16.9506 15.4122 16.9623C15.4554 16.9744 15.4906 16.986 15.5145 16.9953C15.5471 17.0079 15.5244 17.003 15.4767 16.9701L16.6139 15.3248C16.3723 15.1578 16.077 15.0715 15.9515 15.0364C15.8678 15.0129 15.7931 14.9951 15.7394 14.983C15.7122 14.9769 15.6895 14.9721 15.6726 14.9687C15.6642 14.967 15.6572 14.9656 15.6517 14.9645C15.649 14.9639 15.6467 14.9635 15.6448 14.9631C15.6438 14.9629 15.6429 14.9628 15.6422 14.9626C15.6418 14.9625 15.6415 14.9625 15.6411 14.9624C15.641 14.9624 15.6408 14.9624 15.6407 14.9623C15.6406 14.9623 15.6405 14.9623 15.6405 14.9623C15.6404 14.9623 15.6403 14.9622 15.4536 15.9447ZM12.3823 12.74C12.1102 13.6507 12.0438 14.6896 12.5922 15.5583C13.1578 16.4542 14.1799 16.8647 15.3893 16.9426L15.5179 14.9467C14.6389 14.8901 14.3697 14.6273 14.2834 14.4906C14.1799 14.3267 14.101 13.9738 14.2986 13.3126L12.3823 12.74ZM13.1963 10.1682C12.2938 10.5988 12.2936 10.5985 12.2934 10.5982C12.2934 10.5981 12.2932 10.5977 12.2931 10.5975C12.2929 10.5971 12.2927 10.5967 12.2926 10.5963C12.2922 10.5956 12.2919 10.5949 12.2916 10.5943C12.291 10.593 12.2906 10.5921 12.2903 10.5914C12.2897 10.5901 12.2896 10.59 12.29 10.5909C12.2909 10.5929 12.2937 10.5992 12.2981 10.6097C12.3068 10.6308 12.3217 10.6684 12.3398 10.7206C12.376 10.8255 12.4239 10.986 12.4608 11.1877C12.5349 11.5933 12.5609 12.1421 12.3823 12.74L14.2986 13.3126C14.5895 12.3387 14.5434 11.4585 14.4281 10.828C14.3703 10.5116 14.294 10.2523 14.2299 10.0669C14.1978 9.97394 14.1684 9.89874 14.1454 9.84337C14.1339 9.81566 14.124 9.79283 14.1161 9.77513C14.1121 9.76629 14.1087 9.75871 14.1058 9.75245C14.1043 9.74931 14.103 9.7465 14.1019 9.74403C14.1013 9.74279 14.1007 9.74163 14.1002 9.74056C14.1 9.74002 14.0997 9.73951 14.0995 9.73901C14.0994 9.73876 14.0992 9.73841 14.0992 9.73828C14.099 9.73793 14.0988 9.73759 13.1963 10.1682ZM13.2915 8.30351L12.3802 9.59025L14.0124 10.7462L14.9236 9.45942L13.2915 8.30351ZM15.0529 8.28369C15.1079 8.28369 15.1175 8.29487 15.0674 8.2773C15.0246 8.26227 14.9685 8.23691 14.9051 8.20264C14.8436 8.16944 14.7883 8.13507 14.7485 8.10889C14.7291 8.09611 14.7146 8.08607 14.7061 8.08016C14.7019 8.07722 14.6994 8.07537 14.6985 8.07478C14.6981 8.07449 14.6982 8.07451 14.6987 8.07488C14.6989 8.07507 14.6993 8.07534 14.6998 8.0757C14.7001 8.07588 14.7003 8.07609 14.7006 8.07631C14.7008 8.07643 14.701 8.07655 14.7011 8.07667C14.7012 8.07673 14.7013 8.07683 14.7014 8.07686C14.7015 8.07696 14.7017 8.07706 14.1076 8.88147C13.5135 9.68588 13.5136 9.68598 13.5138 9.68609C13.5138 9.68612 13.514 9.68623 13.5141 9.68631C13.5143 9.68646 13.5145 9.68661 13.5147 9.68677C13.5152 9.6871 13.5156 9.68744 13.5161 9.68782C13.5172 9.68857 13.5183 9.68942 13.5196 9.69036C13.5222 9.69226 13.5254 9.69454 13.529 9.6972C13.5364 9.7025 13.5459 9.70929 13.5574 9.71735C13.5803 9.73343 13.6114 9.75482 13.6493 9.77975C13.7242 9.82898 13.8301 9.89516 13.9549 9.96252C14.1588 10.0726 14.585 10.2837 15.0529 10.2837V8.28369ZM15.5623 8.05301C15.4832 8.09662 15.3514 8.16527 15.2166 8.22036C15.1497 8.24772 15.0945 8.26657 15.0537 8.27757C15.0068 8.29021 15.011 8.28369 15.0529 8.28369V10.2837C15.4176 10.2837 15.7709 10.1545 15.9736 10.0716C16.2081 9.97569 16.4149 9.86679 16.5284 9.80418L15.5623 8.05301ZM17.0453 8.9286V8.88147H15.0453V8.9286H17.0453ZM16.0453 8.88147C15.5333 9.74042 15.5333 9.74043 15.5333 9.74044C15.5333 9.74044 15.5333 9.74045 15.5333 9.74046C15.5334 9.74047 15.5334 9.74049 15.5334 9.7405C15.5334 9.74053 15.5335 9.74055 15.5335 9.74058C15.5336 9.74064 15.5337 9.7407 15.5338 9.74076C15.534 9.74088 15.5343 9.74101 15.5345 9.74115C15.535 9.74142 15.5355 9.74174 15.5361 9.74209C15.5372 9.74278 15.5387 9.74362 15.5403 9.74458C15.5436 9.74652 15.5478 9.74899 15.5529 9.75196C15.5631 9.75788 15.5768 9.7658 15.5937 9.77538L16.5799 8.03545C16.5702 8.02994 16.5632 8.02589 16.5593 8.02361C16.5573 8.02248 16.5562 8.02179 16.5558 8.0216C16.5557 8.0215 16.5557 8.02152 16.556 8.02167C16.5561 8.02175 16.5563 8.02186 16.5565 8.022C16.5566 8.02207 16.5568 8.02215 16.5569 8.02223C16.557 8.02228 16.5571 8.02232 16.5571 8.02237C16.5572 8.02239 16.5572 8.02242 16.5573 8.02244C16.5573 8.02246 16.5573 8.02247 16.5573 8.02248C16.5573 8.02249 16.5573 8.0225 16.5574 8.0225C16.5574 8.02251 16.5574 8.02252 16.0453 8.88147Z" fill="#E8AA00" mask="url(#path-12-outside-1)"/>
<mask id="mask1" mask-type="alpha" maskUnits="userSpaceOnUse" x="12" y="7" width="9" height="11">
<mask id="path-14-outside-2" mask-type="luminance" maskUnits="userSpaceOnUse" x="11.177" y="6.88147" width="9" height="11" fill="black">
<rect fill="white" x="11.177" y="6.88147" width="9" height="11"/>
<path fill-rule="evenodd" clip-rule="evenodd" d="M16.0868 8.90541C16.1134 8.89033 16.1283 8.88147 16.1283 8.88147V8.9286C16.3208 9.03481 16.8055 9.28369 17.1207 9.28369C17.5214 9.28369 18.066 8.88147 18.066 8.88147L18.9773 10.1682C18.9773 10.1682 18.3636 11.4545 18.8332 13.0263C19.3028 14.5981 18.8083 15.8101 16.72 15.9447C16.72 15.9447 16.3086 16.0229 16.1283 16.1475V16.2626C16.1283 16.2339 16.1129 16.2067 16.0868 16.1811C16.0607 16.2067 16.0453 16.2339 16.0453 16.2626V16.1475C15.8651 16.0229 15.4536 15.9447 15.4536 15.9447C13.3653 15.8101 12.8708 14.5981 13.3404 13.0263C13.81 11.4545 13.1963 10.1682 13.1963 10.1682L14.1076 8.88147C14.1076 8.88147 14.6522 9.28369 15.0529 9.28369C15.3681 9.28369 15.8528 9.03481 16.0453 8.9286V8.88147C16.0453 8.88147 16.0602 8.89033 16.0868 8.90541Z"/>
</mask>
<path fill-rule="evenodd" clip-rule="evenodd" d="M16.0868 8.90541C16.1134 8.89033 16.1283 8.88147 16.1283 8.88147V8.9286C16.3208 9.03481 16.8055 9.28369 17.1207 9.28369C17.5214 9.28369 18.066 8.88147 18.066 8.88147L18.9773 10.1682C18.9773 10.1682 18.3636 11.4545 18.8332 13.0263C19.3028 14.5981 18.8083 15.8101 16.72 15.9447C16.72 15.9447 16.3086 16.0229 16.1283 16.1475V16.2626C16.1283 16.2339 16.1129 16.2067 16.0868 16.1811C16.0607 16.2067 16.0453 16.2339 16.0453 16.2626V16.1475C15.8651 16.0229 15.4536 15.9447 15.4536 15.9447C13.3653 15.8101 12.8708 14.5981 13.3404 13.0263C13.81 11.4545 13.1963 10.1682 13.1963 10.1682L14.1076 8.88147C14.1076 8.88147 14.6522 9.28369 15.0529 9.28369C15.3681 9.28369 15.8528 9.03481 16.0453 8.9286V8.88147C16.0453 8.88147 16.0602 8.89033 16.0868 8.90541Z" fill="white"/>
<path d="M16.1283 8.88147H17.1283V7.12111L15.6162 8.02252L16.1283 8.88147ZM16.0868 8.90541L15.5937 9.77538L16.0868 10.0549L16.5799 9.77538L16.0868 8.90541ZM16.1283 8.9286H15.1283V9.51898L15.6452 9.80418L16.1283 8.9286ZM18.066 8.88147L18.8821 8.30351L18.2925 7.47105L17.472 8.07706L18.066 8.88147ZM18.9773 10.1682L19.8798 10.5988L20.1326 10.0692L19.7934 9.59025L18.9773 10.1682ZM18.8332 13.0263L17.875 13.3126L18.8332 13.0263ZM16.72 15.9447L16.6557 14.9467L16.5941 14.9507L16.5334 14.9622L16.72 15.9447ZM16.1283 16.1475L15.5597 15.3248L15.1283 15.623V16.1475H16.1283ZM16.0868 16.1811L16.787 15.4672L16.0868 14.7804L15.3866 15.4672L16.0868 16.1811ZM16.0453 16.1475H17.0453V15.623L16.6139 15.3248L16.0453 16.1475ZM15.4536 15.9447L15.6403 14.9622L15.5795 14.9507L15.5179 14.9467L15.4536 15.9447ZM13.1963 10.1682L12.3802 9.59025L12.041 10.0692L12.2938 10.5988L13.1963 10.1682ZM14.1076 8.88147L14.7017 8.07706L13.8811 7.47105L13.2915 8.30351L14.1076 8.88147ZM16.0453 8.9286L16.5284 9.80418L17.0453 9.51898V8.9286H16.0453ZM16.0453 8.88147L16.5574 8.02252L15.0453 7.12111V8.88147H16.0453ZM16.1283 8.88147C15.6162 8.02252 15.6162 8.02251 15.6162 8.0225C15.6163 8.0225 15.6163 8.02249 15.6163 8.02248C15.6163 8.02247 15.6163 8.02246 15.6163 8.02244C15.6164 8.02242 15.6164 8.02239 15.6165 8.02237C15.6165 8.02232 15.6166 8.02228 15.6167 8.02223C15.6168 8.02215 15.617 8.02207 15.6171 8.022C15.6173 8.02186 15.6175 8.02175 15.6176 8.02167C15.6179 8.02152 15.6179 8.0215 15.6178 8.0216C15.6174 8.02179 15.6163 8.02248 15.6143 8.02361C15.6104 8.02589 15.6034 8.02994 15.5937 8.03545L16.5799 9.77538C16.5968 9.7658 16.6105 9.75788 16.6207 9.75196C16.6258 9.74899 16.63 9.74652 16.6333 9.74458C16.6349 9.74362 16.6364 9.74278 16.6375 9.74209C16.6381 9.74174 16.6386 9.74142 16.6391 9.74115C16.6393 9.74101 16.6396 9.74088 16.6398 9.74076C16.6399 9.7407 16.64 9.74064 16.6401 9.74058C16.6401 9.74055 16.6402 9.74053 16.6402 9.7405C16.6402 9.74049 16.6402 9.74047 16.6403 9.74046C16.6403 9.74045 16.6403 9.74044 16.6403 9.74044C16.6403 9.74043 16.6403 9.74042 16.1283 8.88147ZM17.1283 8.9286V8.88147H15.1283V8.9286H17.1283ZM15.6452 9.80418C15.7587 9.86679 15.9655 9.97569 16.2 10.0716C16.4027 10.1545 16.756 10.2837 17.1207 10.2837V8.28369C17.1626 8.28369 17.1668 8.29021 17.1199 8.27757C17.0791 8.26657 17.0239 8.24772 16.957 8.22036C16.8222 8.16527 16.6904 8.09662 16.6113 8.05301L15.6452 9.80418ZM17.1207 10.2837C17.5886 10.2837 18.0148 10.0726 18.2187 9.96252C18.3435 9.89516 18.4494 9.82898 18.5243 9.77975C18.5622 9.75482 18.5933 9.73343 18.6162 9.71735C18.6277 9.70929 18.6372 9.7025 18.6446 9.6972C18.6482 9.69454 18.6514 9.69226 18.654 9.69036C18.6553 9.68942 18.6564 9.68857 18.6575 9.68782C18.658 9.68744 18.6585 9.6871 18.6589 9.68677C18.6591 9.68661 18.6593 9.68646 18.6595 9.68631C18.6596 9.68623 18.6598 9.68612 18.6598 9.68609C18.66 9.68598 18.6601 9.68588 18.066 8.88147C17.472 8.07706 17.4721 8.07696 17.4722 8.07686C17.4723 8.07683 17.4724 8.07673 17.4725 8.07667C17.4726 8.07655 17.4728 8.07643 17.473 8.07631C17.4733 8.07609 17.4735 8.07588 17.4738 8.0757C17.4743 8.07534 17.4747 8.07507 17.4749 8.07488C17.4754 8.07451 17.4755 8.07449 17.4751 8.07478C17.4742 8.07537 17.4717 8.07722 17.4675 8.08016C17.459 8.08607 17.4445 8.09611 17.4251 8.10889C17.3853 8.13507 17.33 8.16944 17.2685 8.20264C17.2051 8.23691 17.149 8.26227 17.1062 8.2773C17.0562 8.29487 17.0657 8.28369 17.1207 8.28369V10.2837ZM17.25 9.45942L18.1612 10.7462L19.7934 9.59025L18.8821 8.30351L17.25 9.45942ZM18.9773 10.1682C18.0748 9.73759 18.0746 9.73793 18.0745 9.73828C18.0744 9.73841 18.0742 9.73876 18.0741 9.73901C18.0739 9.73951 18.0736 9.74002 18.0734 9.74056C18.0729 9.74163 18.0723 9.74279 18.0717 9.74403C18.0706 9.7465 18.0693 9.74931 18.0678 9.75245C18.0649 9.75871 18.0615 9.76629 18.0575 9.77513C18.0496 9.79283 18.0397 9.81566 18.0282 9.84337C18.0052 9.89874 17.9758 9.97394 17.9437 10.0669C17.8796 10.2523 17.8033 10.5116 17.7455 10.828C17.6302 11.4585 17.5841 12.3387 17.875 13.3126L19.7913 12.74C19.6127 12.1421 19.6387 11.5933 19.7128 11.1877C19.7497 10.986 19.7976 10.8255 19.8338 10.7206C19.8519 10.6684 19.8668 10.6308 19.8755 10.6097C19.8799 10.5992 19.8827 10.5929 19.8836 10.5909C19.884 10.59 19.8839 10.5901 19.8833 10.5914C19.883 10.5921 19.8826 10.593 19.882 10.5943C19.8817 10.5949 19.8814 10.5956 19.881 10.5963C19.8809 10.5967 19.8807 10.5971 19.8805 10.5975C19.8804 10.5977 19.8802 10.5981 19.8802 10.5982C19.88 10.5985 19.8798 10.5988 18.9773 10.1682ZM17.875 13.3126C18.0726 13.9738 17.9937 14.3267 17.8902 14.4906C17.8039 14.6273 17.5347 14.8901 16.6557 14.9467L16.7843 16.9426C17.9937 16.8647 19.0158 16.4542 19.5814 15.5583C20.1298 14.6896 20.0634 13.6507 19.7913 12.74L17.875 13.3126ZM16.72 15.9447C16.5334 14.9622 16.5332 14.9623 16.5331 14.9623C16.5331 14.9623 16.533 14.9623 16.5329 14.9623C16.5328 14.9624 16.5326 14.9624 16.5325 14.9624C16.5321 14.9625 16.5318 14.9625 16.5314 14.9626C16.5307 14.9628 16.5298 14.9629 16.5288 14.9631C16.5269 14.9635 16.5246 14.9639 16.5219 14.9645C16.5164 14.9656 16.5094 14.967 16.501 14.9687C16.4841 14.9721 16.4614 14.9769 16.4342 14.983C16.3805 14.9951 16.3058 15.0129 16.2221 15.0364C16.0966 15.0715 15.8013 15.1578 15.5597 15.3248L16.6969 16.9701C16.6492 17.003 16.6265 17.0079 16.6591 16.9953C16.683 16.986 16.7182 16.9744 16.7615 16.9623C16.8031 16.9506 16.8425 16.9411 16.8716 16.9346C16.8858 16.9314 16.8967 16.9292 16.903 16.9279C16.9062 16.9272 16.9082 16.9268 16.9089 16.9267C16.9092 16.9266 16.9092 16.9266 16.9089 16.9267C16.9087 16.9267 16.9084 16.9268 16.9081 16.9268C16.9079 16.9269 16.9077 16.9269 16.9074 16.927C16.9073 16.927 16.9072 16.927 16.9071 16.927C16.907 16.927 16.9069 16.927 16.9069 16.9271C16.9068 16.9271 16.9067 16.9271 16.72 15.9447ZM17.1283 16.2626V16.1475H15.1283V16.2626H17.1283ZM15.3866 16.895C15.3166 16.8264 15.1283 16.6121 15.1283 16.2626H17.1283C17.1283 15.8558 16.9092 15.587 16.787 15.4672L15.3866 16.895ZM15.3866 15.4672C15.2644 15.587 15.0453 15.8558 15.0453 16.2626H17.0453C17.0453 16.6121 16.857 16.8264 16.787 16.895L15.3866 15.4672ZM17.0453 16.2626V16.1475H15.0453V16.2626H17.0453ZM15.4536 15.9447C15.2669 16.9271 15.2668 16.9271 15.2667 16.9271C15.2667 16.927 15.2666 16.927 15.2665 16.927C15.2664 16.927 15.2663 16.927 15.2662 16.927C15.2659 16.9269 15.2657 16.9269 15.2655 16.9268C15.2652 16.9268 15.2649 16.9267 15.2648 16.9267C15.2644 16.9266 15.2644 16.9266 15.2647 16.9267C15.2654 16.9268 15.2674 16.9272 15.2706 16.9279C15.2769 16.9292 15.2878 16.9314 15.302 16.9346C15.3311 16.9411 15.3705 16.9506 15.4122 16.9623C15.4554 16.9744 15.4906 16.986 15.5145 16.9953C15.5471 17.0079 15.5244 17.003 15.4767 16.9701L16.6139 15.3248C16.3723 15.1578 16.077 15.0715 15.9515 15.0364C15.8678 15.0129 15.7931 14.9951 15.7394 14.983C15.7122 14.9769 15.6895 14.9721 15.6726 14.9687C15.6642 14.967 15.6572 14.9656 15.6517 14.9645C15.649 14.9639 15.6467 14.9635 15.6448 14.9631C15.6438 14.9629 15.6429 14.9628 15.6422 14.9626C15.6418 14.9625 15.6415 14.9625 15.6411 14.9624C15.641 14.9624 15.6408 14.9624 15.6407 14.9623C15.6406 14.9623 15.6405 14.9623 15.6405 14.9623C15.6404 14.9623 15.6403 14.9622 15.4536 15.9447ZM12.3823 12.74C12.1102 13.6507 12.0438 14.6896 12.5922 15.5583C13.1578 16.4542 14.1799 16.8647 15.3893 16.9426L15.5179 14.9467C14.6389 14.8901 14.3697 14.6273 14.2834 14.4906C14.1799 14.3267 14.101 13.9738 14.2986 13.3126L12.3823 12.74ZM13.1963 10.1682C12.2938 10.5988 12.2936 10.5985 12.2934 10.5982C12.2934 10.5981 12.2932 10.5977 12.2931 10.5975C12.2929 10.5971 12.2927 10.5967 12.2926 10.5963C12.2922 10.5956 12.2919 10.5949 12.2916 10.5943C12.291 10.593 12.2906 10.5921 12.2903 10.5914C12.2897 10.5901 12.2896 10.59 12.29 10.5909C12.2909 10.5929 12.2937 10.5992 12.2981 10.6097C12.3068 10.6308 12.3217 10.6684 12.3398 10.7206C12.376 10.8255 12.4239 10.986 12.4608 11.1877C12.5349 11.5933 12.5609 12.1421 12.3823 12.74L14.2986 13.3126C14.5895 12.3387 14.5434 11.4585 14.4281 10.828C14.3703 10.5116 14.294 10.2523 14.2299 10.0669C14.1978 9.97394 14.1684 9.89874 14.1454 9.84337C14.1339 9.81566 14.124 9.79283 14.1161 9.77513C14.1121 9.76629 14.1087 9.75871 14.1058 9.75245C14.1043 9.74931 14.103 9.7465 14.1019 9.74403C14.1013 9.74279 14.1007 9.74163 14.1002 9.74056C14.1 9.74002 14.0997 9.73951 14.0995 9.73901C14.0994 9.73876 14.0992 9.73841 14.0992 9.73828C14.099 9.73793 14.0988 9.73759 13.1963 10.1682ZM13.2915 8.30351L12.3802 9.59025L14.0124 10.7462L14.9236 9.45942L13.2915 8.30351ZM15.0529 8.28369C15.1079 8.28369 15.1175 8.29487 15.0674 8.2773C15.0246 8.26227 14.9685 8.23691 14.9051 8.20264C14.8436 8.16944 14.7883 8.13507 14.7485 8.10889C14.7291 8.09611 14.7146 8.08607 14.7061 8.08016C14.7019 8.07722 14.6994 8.07537 14.6985 8.07478C14.6981 8.07449 14.6982 8.07451 14.6987 8.07488C14.6989 8.07507 14.6993 8.07534 14.6998 8.0757C14.7001 8.07588 14.7003 8.07609 14.7006 8.07631C14.7008 8.07643 14.701 8.07655 14.7011 8.07667C14.7012 8.07673 14.7013 8.07683 14.7014 8.07686C14.7015 8.07696 14.7017 8.07706 14.1076 8.88147C13.5135 9.68588 13.5136 9.68598 13.5138 9.68609C13.5138 9.68612 13.514 9.68623 13.5141 9.68631C13.5143 9.68646 13.5145 9.68661 13.5147 9.68677C13.5152 9.6871 13.5156 9.68744 13.5161 9.68782C13.5172 9.68857 13.5183 9.68942 13.5196 9.69036C13.5222 9.69226 13.5254 9.69454 13.529 9.6972C13.5364 9.7025 13.5459 9.70929 13.5574 9.71735C13.5803 9.73343 13.6114 9.75482 13.6493 9.77975C13.7242 9.82898 13.8301 9.89516 13.9549 9.96252C14.1588 10.0726 14.585 10.2837 15.0529 10.2837V8.28369ZM15.5623 8.05301C15.4832 8.09662 15.3514 8.16527 15.2166 8.22036C15.1497 8.24772 15.0945 8.26657 15.0537 8.27757C15.0068 8.29021 15.011 8.28369 15.0529 8.28369V10.2837C15.4176 10.2837 15.7709 10.1545 15.9736 10.0716C16.2081 9.97569 16.4149 9.86679 16.5284 9.80418L15.5623 8.05301ZM17.0453 8.9286V8.88147H15.0453V8.9286H17.0453ZM16.0453 8.88147C15.5333 9.74042 15.5333 9.74043 15.5333 9.74044C15.5333 9.74044 15.5333 9.74045 15.5333 9.74046C15.5334 9.74047 15.5334 9.74049 15.5334 9.7405C15.5334 9.74053 15.5335 9.74055 15.5335 9.74058C15.5336 9.74064 15.5337 9.7407 15.5338 9.74076C15.534 9.74088 15.5343 9.74101 15.5345 9.74115C15.535 9.74142 15.5355 9.74174 15.5361 9.74209C15.5372 9.74278 15.5387 9.74362 15.5403 9.74458C15.5436 9.74652 15.5478 9.74899 15.5529 9.75196C15.5631 9.75788 15.5768 9.7658 15.5937 9.77538L16.5799 8.03545C16.5702 8.02994 16.5632 8.02589 16.5593 8.02361C16.5573 8.02248 16.5562 8.02179 16.5558 8.0216C16.5557 8.0215 16.5557 8.02152 16.556 8.02167C16.5561 8.02175 16.5563 8.02186 16.5565 8.022C16.5566 8.02207 16.5568 8.02215 16.5569 8.02223C16.557 8.02228 16.5571 8.02232 16.5571 8.02237C16.5572 8.02239 16.5572 8.02242 16.5573 8.02244C16.5573 8.02246 16.5573 8.02247 16.5573 8.02248C16.5573 8.02249 16.5573 8.0225 16.5574 8.0225C16.5574 8.02251 16.5574 8.02252 16.0453 8.88147Z" fill="white" mask="url(#path-14-outside-2)"/>
</mask>
<g mask="url(#mask1)">
<rect x="13.3043" y="8.72729" width="2.78261" height="3.81818" fill="#67BAFF"/>
<rect x="16.0869" y="8.72729" width="2.78261" height="3.81818" fill="white"/>
<rect x="12.9565" y="12.9091" width="6.95652" height="4.36364" fill="#C51918"/>
<path d="M17.4347 12.275H17.0869V9.66028H17.4347V12.275Z" fill="#C9A951"/>
<path d="M17.2939 11.0856L17.1243 11.3893L16.5239 11.0541L16.6935 10.7504L17.2939 11.0856Z" fill="#C9A951"/>
<path d="M17.2939 10.3583L17.1243 10.662L16.5239 10.3268L16.6935 10.0231L17.2939 10.3583Z" fill="#C9A951"/>
<path d="M17.2196 11.0856L17.3891 11.3893L17.9895 11.0541L17.8199 10.7504L17.2196 11.0856Z" fill="#C9A951"/>
<path d="M17.2196 10.3583L17.3891 10.662L17.9895 10.3268L17.8199 10.0231L17.2196 10.3583Z" fill="#C9A951"/>
<path fill-rule="evenodd" clip-rule="evenodd" d="M17.7292 13.705C17.7292 13.705 17.9711 13.4283 17.9711 13.5666C17.9711 13.705 17.9711 13.9376 17.8501 13.9376C17.7292 13.9376 17.1656 13.8269 16.9509 13.5666C16.7362 13.3064 16.282 12.8533 15.6973 12.9599C15.1126 13.0666 14.4191 13.8246 14.2482 13.8246C14.0773 13.8246 13.7026 14.4088 13.9754 14.8651C14.2482 15.3213 14.7122 15.1798 14.7122 15.3121C14.7122 15.4445 14.8282 15.4597 15.2628 15.4597C15.6973 15.4597 15.8562 15.613 16.2323 15.613C16.6085 15.613 16.1082 15.6074 16.714 15.4597C17.3199 15.3121 17.7788 14.8651 17.4257 14.8651C17.0727 14.8651 16.9586 14.8651 16.714 14.8651C16.4694 14.8651 15.925 15.0413 15.925 14.8651C15.925 14.6888 16.0459 14.3114 16.38 14.5001C16.714 14.6888 17.6422 14.8327 17.9711 14.5001C18.3001 14.1675 18.4151 13.967 18.3576 13.5666C18.3001 13.1663 17.8501 13.2815 17.8501 13.2815L17.7292 13.705Z" fill="#FBCD17"/>
<path fill-rule="evenodd" clip-rule="evenodd" d="M15.3762 9.56982C15.1666 9.75321 15.3018 10.4234 14.9583 10.4234C14.6147 10.4234 14.1313 9.92155 14.0095 10.2527C13.8878 10.5838 14.0095 10.4726 14.0095 10.7546C14.0095 11.0366 13.7179 11.8203 13.8637 11.9528C14.0095 12.0853 14.1589 12.4344 14.133 12.271C14.1071 12.1076 13.9969 11.8676 14.0428 11.6069C13.9984 11.3376 14.2885 11.0785 14.2885 11.0785C14.2885 11.0785 14.2571 11.3581 14.2342 11.4624C14.2342 11.4624 14.1386 11.6728 14.1774 11.8126C14.1774 11.8126 14.2756 12.2065 14.3161 12.2337C14.3161 12.2337 14.3424 11.301 14.3723 11.1473C14.4022 10.9936 14.6155 11.3207 14.6864 11.2836C14.6864 11.2836 14.7107 11.9214 14.6739 11.9974C14.6739 11.9974 14.5991 12.1482 14.6269 12.1964C14.6269 12.1964 14.6963 12.371 14.7554 12.3202C14.7554 12.3202 14.7575 12.3165 14.7875 12.1466C14.7875 12.1466 14.7527 12.044 14.8072 11.8103C14.8072 11.8103 14.8647 11.2958 14.8884 11.4074C14.8884 11.4074 14.8778 11.6503 14.9052 11.7755C14.9052 11.7755 14.9489 12.0864 14.9577 12.1205C14.9577 12.1205 15.1676 12.4195 15.1732 12.2932C15.1732 12.2932 14.972 12.0533 15.0151 11.8707C15.0151 11.8707 14.8999 11.3535 15.0607 11.2382C15.0607 11.2382 15.4873 11.0408 15.513 10.7031C15.513 10.7031 15.5748 10.3181 15.5859 10.1416C15.5859 10.1416 15.4923 10.0898 15.6857 9.99865C15.6857 9.99865 15.9971 9.87912 15.8031 9.71291" fill="#D18219"/>
</g>
</g>
</svg>
