<svg width="32" height="24" viewBox="0 0 32 24" fill="none" xmlns="http://www.w3.org/2000/svg">
<mask id="mask0" mask-type="alpha" maskUnits="userSpaceOnUse" x="0" y="0" width="32" height="24">
<rect width="32" height="24" fill="white"/>
</mask>
<g mask="url(#mask0)">
<path fill-rule="evenodd" clip-rule="evenodd" d="M0 0V24H32V0H0Z" fill="#FECA00"/>
<mask id="mask1" mask-type="alpha" maskUnits="userSpaceOnUse" x="0" y="0" width="32" height="24">
<path fill-rule="evenodd" clip-rule="evenodd" d="M0 0V24H32V0H0Z" fill="white"/>
</mask>
<g mask="url(#mask1)">
<path fill-rule="evenodd" clip-rule="evenodd" d="M0 0V8H32V0H0Z" fill="#DB501C"/>
<path fill-rule="evenodd" clip-rule="evenodd" d="M0 16V24H32V16H0Z" fill="#5EAA22"/>
<path d="M12.446 9.95908L12.4824 9.92383L19.702 16.8686L19.6657 16.9038L12.446 9.95908Z" fill="#864C26"/>
<path d="M20.2213 16.4173L20.1901 16.4569L11.791 10.2874L11.8222 10.2478L20.2213 16.4173Z" fill="#864C26"/>
<path d="M20.3983 15.8016L20.373 15.845L11.03 10.7594L11.0553 10.7161L20.3983 15.8016Z" fill="#A05A2C"/>
<path fill-rule="evenodd" clip-rule="evenodd" d="M11.6018 9.11218L12.3093 9.58026L12.2698 9.60723C12.2859 9.6165 12.3026 9.62645 12.3197 9.63706C12.3396 9.6494 12.3536 9.66427 12.3618 9.68136C12.3761 9.6391 12.3758 9.58778 12.3605 9.5266L12.3233 9.37756L12.4072 9.5082C12.5405 9.71579 12.5604 9.86432 12.4567 9.94836C12.3554 10.0305 12.196 10.009 11.9806 9.89071L11.8931 9.84262L11.9929 9.84413C12.075 9.84537 12.1453 9.83569 12.2041 9.81528L12.1633 9.80434C12.1287 9.79507 12.1031 9.77084 12.0857 9.73289L12.0163 9.78024L11.6018 9.11218ZM10.7533 9.64126L11.5314 9.97936L11.4963 10.0137C11.5144 10.0202 11.5333 10.0274 11.5528 10.0352C11.5745 10.0439 11.5909 10.0561 11.6019 10.0715C11.6086 10.0274 11.5993 9.97705 11.5737 9.91958L11.5112 9.77927L11.6165 9.89335C11.7839 10.0746 11.8292 10.2175 11.7417 10.3182C11.6562 10.4167 11.4955 10.4233 11.2628 10.3441L11.1683 10.312L11.2669 10.2961C11.3481 10.2831 11.4158 10.2612 11.4703 10.2308L11.4278 10.2271C11.3915 10.2239 11.3617 10.2039 11.3378 10.1684L11.2776 10.2272L10.7533 9.64126ZM10.8046 10.453L10 10.184L10.5733 10.722L10.628 10.6584C10.6551 10.6922 10.6867 10.7098 10.7235 10.7098H10.7662C10.7146 10.7449 10.649 10.7726 10.5691 10.7927L10.4723 10.8171L10.5693 10.8409C10.8079 10.8995 10.9674 10.8789 11.044 10.7734C11.1224 10.6654 11.0648 10.527 10.8823 10.361L10.7674 10.2565L10.8419 10.3909C10.8724 10.4458 10.8861 10.4951 10.8833 10.5395C10.8709 10.5252 10.8536 10.5145 10.8312 10.5077C10.8107 10.5016 10.791 10.496 10.772 10.4909L10.8046 10.453ZM10.7166 10.4775L10.7174 10.4766L10.202 10.3042L10.5693 10.6489L10.5995 10.6137C10.5941 10.6033 10.5889 10.592 10.5839 10.5799L10.5873 10.5786L10.5628 10.5522L10.6614 10.4669L10.6738 10.469C10.6875 10.4714 10.7018 10.4743 10.7166 10.4775Z" fill="#E7E7E7"/>
<path fill-rule="evenodd" clip-rule="evenodd" d="M13.4713 16.2132L14.306 14.7245L15.4769 15.0398L14.6343 16.3986H14.306V16.5468L13.4713 16.2132Z" fill="#925229"/>
<path fill-rule="evenodd" clip-rule="evenodd" d="M13.1135 10.4886L12.561 11.0628L12.36 14.857L14.3508 15.1472C14.3508 15.1472 13.4833 14.3855 13.3554 13.9155C13.2275 13.4454 13.1867 11.6906 13.4286 11.4238L13.6176 11.5341L13.7696 11.0826" fill="#FFE000"/>
<path fill-rule="evenodd" clip-rule="evenodd" d="M11.1892 10.7474C11.1892 10.7474 10.9752 13.71 10.9752 14.2304C10.9752 14.7507 11.417 15.9897 12.424 15.9897C13.431 15.9897 14.8127 15.4353 14.8127 15.2092C14.8127 14.9832 14.4002 14.8212 14.4002 14.8212C14.4002 14.8212 12.5483 14.9478 12.5483 14.2304C12.5483 13.5129 12.6741 11.3892 12.784 11.1388C12.894 10.8884 13.275 10.5108 13.275 10.5108L12.5483 9.9707L12.424 10.5108L11.958 10.3522L11.8158 11.1388L11.1892 10.7474Z" fill="#D52C1E"/>
<path fill-rule="evenodd" clip-rule="evenodd" d="M13.7765 11.0762L13.6426 11.4952L13.3721 11.3811C13.3721 11.3811 12.9677 13.2773 13.3721 14.0716C13.7765 14.8659 14.7948 14.9236 14.7948 14.9236L14.3646 11.4952L13.7765 11.0762Z" fill="#027934"/>
<path fill-rule="evenodd" clip-rule="evenodd" d="M13.7171 13.6383L12.7466 14.4058C12.7466 14.4058 12.4804 14.7873 12.7466 15.0761C13.0128 15.3649 13.7507 15.6594 13.9248 15.3107C14.0989 14.9621 14.6161 14.5537 14.6161 14.5537L13.7171 13.6383Z" fill="#E8A30C"/>
<path fill-rule="evenodd" clip-rule="evenodd" d="M14.4787 10.7425C14.7148 10.5372 14.8332 10.2867 14.7431 10.183C14.6529 10.0794 14.3884 10.1617 14.1523 10.367C13.9162 10.5722 13.7978 10.8227 13.8879 10.9264C13.9781 11.0301 14.2426 10.9477 14.4787 10.7425Z" fill="#E1E5E8"/>
<path fill-rule="evenodd" clip-rule="evenodd" d="M13.8833 9.30331C13.8833 9.30331 13.7882 9.28385 13.7452 9.27733C13.4383 9.2308 13.2848 9.2934 13.2848 9.46512C13.2848 9.75879 13.4805 10.0759 13.4805 10.2977C13.4805 10.5195 13.49 10.8648 13.584 10.6922C13.6781 10.5195 14.1568 10.0007 14.1568 10.0007L13.8833 9.55058C13.8833 9.55058 14.5621 9.62693 14.2641 9.46512" fill="#D52C1E"/>
<path fill-rule="evenodd" clip-rule="evenodd" d="M15.9699 15.3781L15.4608 15.373C15.0828 15.7467 15.048 16.2496 15.3456 16.8569C15.3456 16.8569 15.4432 16.9981 15.4774 16.9849C15.5253 16.9665 15.5919 16.762 15.5919 16.762C15.5692 16.1689 15.9472 15.7761 15.9699 15.3781Z" fill="#D52C1E"/>
<path fill-rule="evenodd" clip-rule="evenodd" d="M15.3252 15.3936L15.5083 15.3085C15.6887 15.6833 15.5983 16.0714 15.2502 16.4569L15.0988 16.3248C15.2502 15.8827 15.2502 15.6995 15.3252 15.3936Z" fill="#FFE000"/>
<path d="M15.0914 15.3816L15.2824 15.3257C15.3742 15.6396 15.3283 15.9634 15.148 16.292L14.9735 16.1963C15.1295 15.9122 15.1677 15.6424 15.0914 15.3816Z" fill="#027934"/>
<path d="M19.554 9.95908L19.5176 9.92383L12.298 16.8686L12.3343 16.9038L19.554 9.95908Z" fill="#864C26"/>
<path d="M11.7787 16.4173L11.8099 16.4569L20.209 10.2874L20.1778 10.2478L11.7787 16.4173Z" fill="#864C26"/>
<path d="M11.6017 15.8016L11.627 15.845L20.97 10.7594L20.9447 10.7161L11.6017 15.8016Z" fill="#A05A2C"/>
<path fill-rule="evenodd" clip-rule="evenodd" d="M20.3982 9.11218L19.6907 9.58026L19.7302 9.60723C19.7141 9.6165 19.6974 9.62645 19.6803 9.63706C19.6604 9.6494 19.6464 9.66427 19.6382 9.68136C19.6239 9.6391 19.6242 9.58778 19.6395 9.5266L19.6767 9.37756L19.5928 9.5082C19.4595 9.71579 19.4396 9.86432 19.5433 9.94836C19.6446 10.0305 19.804 10.009 20.0194 9.89071L20.1069 9.84262L20.0071 9.84413C19.925 9.84537 19.8547 9.83569 19.7959 9.81528L19.8367 9.80434C19.8713 9.79507 19.8969 9.77084 19.9143 9.73289L19.9837 9.78024L20.3982 9.11218ZM21.2467 9.64126L20.4686 9.97936L20.5037 10.0137C20.4856 10.0202 20.4667 10.0274 20.4472 10.0352C20.4255 10.0439 20.4091 10.0561 20.3981 10.0715C20.3914 10.0274 20.4007 9.97705 20.4263 9.91958L20.4888 9.77927L20.3835 9.89335C20.2161 10.0746 20.1708 10.2175 20.2583 10.3182C20.3438 10.4167 20.5045 10.4233 20.7372 10.3441L20.8317 10.312L20.7331 10.2961C20.6519 10.2831 20.5842 10.2612 20.5297 10.2308L20.5722 10.2271C20.6085 10.2239 20.6383 10.2039 20.6622 10.1684L20.7224 10.2272L21.2467 9.64126ZM21.1954 10.453L22 10.184L21.4267 10.722L21.372 10.6584C21.3449 10.6922 21.3133 10.7098 21.2765 10.7098H21.2338C21.2854 10.7449 21.351 10.7726 21.4309 10.7927L21.5277 10.8171L21.4307 10.8409C21.1921 10.8995 21.0326 10.8789 20.956 10.7734C20.8776 10.6654 20.9352 10.527 21.1177 10.361L21.2326 10.2565L21.1581 10.3909C21.1276 10.4458 21.1139 10.4951 21.1167 10.5395C21.1291 10.5252 21.1464 10.5145 21.1688 10.5077C21.1893 10.5016 21.209 10.496 21.228 10.4909L21.1954 10.453ZM21.2834 10.4775L21.2826 10.4766L21.798 10.3042L21.4307 10.6489L21.4005 10.6137C21.4059 10.6033 21.4111 10.592 21.4161 10.5799L21.4127 10.5786L21.4372 10.5522L21.3386 10.4669L21.3262 10.469C21.3125 10.4714 21.2982 10.4743 21.2834 10.4775Z" fill="#E7E7E7"/>
<path fill-rule="evenodd" clip-rule="evenodd" d="M18.5287 16.2132L17.694 14.7245L16.5231 15.0398L17.3657 16.3986H17.694V16.5468L18.5287 16.2132Z" fill="#925229"/>
<path fill-rule="evenodd" clip-rule="evenodd" d="M18.8865 10.4886L19.439 11.0628L19.64 14.857L17.6492 15.1472C17.6492 15.1472 18.5167 14.3855 18.6446 13.9155C18.7725 13.4454 18.8133 11.6906 18.5714 11.4238L18.3824 11.5341L18.2304 11.0826" fill="#FFE000"/>
<path fill-rule="evenodd" clip-rule="evenodd" d="M20.8108 10.7474C20.8108 10.7474 21.0248 13.71 21.0248 14.2304C21.0248 14.7507 20.583 15.9897 19.576 15.9897C18.569 15.9897 17.1873 15.4353 17.1873 15.2092C17.1873 14.9832 17.5998 14.8212 17.5998 14.8212C17.5998 14.8212 19.4517 14.9478 19.4517 14.2304C19.4517 13.5129 19.3259 11.3892 19.216 11.1388C19.106 10.8884 18.725 10.5108 18.725 10.5108L19.4517 9.9707L19.576 10.5108L20.042 10.3522L20.1842 11.1388L20.8108 10.7474Z" fill="#D52C1E"/>
<path fill-rule="evenodd" clip-rule="evenodd" d="M18.2235 11.0762L18.3574 11.4952L18.6279 11.3811C18.6279 11.3811 19.0323 13.2773 18.6279 14.0716C18.2235 14.8659 17.2052 14.9236 17.2052 14.9236L17.6354 11.4952L18.2235 11.0762Z" fill="#027934"/>
<path fill-rule="evenodd" clip-rule="evenodd" d="M18.2829 13.6383L19.2534 14.4058C19.2534 14.4058 19.5196 14.7873 19.2534 15.0761C18.9872 15.3649 18.2493 15.6594 18.0752 15.3107C17.9011 14.9621 17.3839 14.5537 17.3839 14.5537L18.2829 13.6383Z" fill="#E8A30C"/>
<path fill-rule="evenodd" clip-rule="evenodd" d="M17.5213 10.7425C17.2852 10.5372 17.1668 10.2867 17.2569 10.183C17.3471 10.0794 17.6116 10.1617 17.8477 10.367C18.0838 10.5722 18.2022 10.8227 18.1121 10.9264C18.0219 11.0301 17.7574 10.9477 17.5213 10.7425Z" fill="#E1E5E8"/>
<path fill-rule="evenodd" clip-rule="evenodd" d="M16.0301 15.3781L16.5392 15.373C16.9172 15.7467 16.952 16.2496 16.6544 16.8569C16.6544 16.8569 16.5568 16.9981 16.5226 16.9849C16.4747 16.9665 16.4081 16.762 16.4081 16.762C16.4308 16.1689 16.0528 15.7761 16.0301 15.3781Z" fill="#D52C1E"/>
<path fill-rule="evenodd" clip-rule="evenodd" d="M16.6748 15.3936L16.4917 15.3085C16.3113 15.6833 16.4017 16.0714 16.7498 16.4569L16.9012 16.3248C16.7498 15.8827 16.7498 15.6995 16.6748 15.3936Z" fill="#FFE000"/>
<path d="M16.9086 15.3816L16.7176 15.3257C16.6258 15.6396 16.6717 15.9634 16.852 16.292L17.0265 16.1963C16.8705 15.9122 16.8323 15.6424 16.9086 15.3816Z" fill="#027934"/>
<path fill-rule="evenodd" clip-rule="evenodd" d="M13.5536 12.8209C13.5536 14.2601 14.6163 15.4577 15.9742 15.4577C17.3321 15.4577 18.3948 14.2601 18.3948 12.8209C18.3948 11.3817 17.3321 10.1841 15.9742 10.1841C14.6163 10.1841 13.5536 11.3817 13.5536 12.8209ZM17.8283 12.8209C17.8283 13.9749 16.9982 14.9104 15.9742 14.9104C14.9502 14.9104 14.1201 13.9749 14.1201 12.8209C14.1201 11.6669 14.9502 10.7313 15.9742 10.7313C16.9982 10.7313 17.8283 11.6669 17.8283 12.8209Z" fill="#00A6DE"/>
<path fill-rule="evenodd" clip-rule="evenodd" d="M15.9742 14.9104C16.9982 14.9104 17.8283 13.9749 17.8283 12.8209C17.8283 11.6668 16.9982 10.7313 15.9742 10.7313C14.9502 10.7313 14.1201 11.6668 14.1201 12.8209C14.1201 13.9749 14.9502 14.9104 15.9742 14.9104Z" fill="#FFC036"/>
<mask id="mask2" mask-type="alpha" maskUnits="userSpaceOnUse" x="14" y="10" width="4" height="5">
<path fill-rule="evenodd" clip-rule="evenodd" d="M15.9742 14.9104C16.9982 14.9104 17.8283 13.9749 17.8283 12.8209C17.8283 11.6668 16.9982 10.7313 15.9742 10.7313C14.9502 10.7313 14.1201 11.6668 14.1201 12.8209C14.1201 13.9749 14.9502 14.9104 15.9742 14.9104Z" fill="white"/>
</mask>
<g mask="url(#mask2)">
<path fill-rule="evenodd" clip-rule="evenodd" d="M15.9742 12.4478L15.7336 12.944L15.7396 12.396L15.2999 12.7422L15.5515 12.2511L14.9998 12.3787L15.447 12.0416L14.8927 11.9254L15.447 11.8091L14.9998 11.4721L15.5515 11.5997L15.2999 11.1086L15.7396 11.4547L15.7336 10.9068L15.9742 11.403L16.2149 10.9068L16.2089 11.4547L16.6486 11.1086L16.397 11.5997L16.9487 11.4721L16.5015 11.8091L17.0558 11.9254L16.5015 12.0416L16.9487 12.3787L16.397 12.2511L16.6486 12.7422L16.2089 12.396L16.2149 12.944L15.9742 12.4478Z" fill="#D52C1E"/>
<path fill-rule="evenodd" clip-rule="evenodd" d="M14.0411 12.941C14.0411 12.941 15.491 11.92 15.8472 11.92C16.2034 11.92 17.7229 12.9466 18.0338 13.0862C18.3446 13.2259 18.0338 15.9641 18.0338 15.9641H13.9209L14.0411 12.941Z" fill="#027934"/>
</g>
<path fill-rule="evenodd" clip-rule="evenodd" d="M14.0304 11.7258L14.1198 11.7752C14.6083 10.9507 15.23 10.5418 15.9882 10.5418C16.8371 10.589 17.4729 11.0524 17.8972 11.9383L17.9907 11.8966C17.5511 10.9788 16.883 10.4919 15.9911 10.4424C15.1898 10.4423 14.5361 10.8724 14.0304 11.7258ZM13.6704 13.3159L13.8369 13.2039L14.0034 13.3159L13.9447 13.1283L14.1063 13.0099L13.9035 13.0059L13.8369 12.8209L13.7703 13.0059L13.5675 13.0099L13.7291 13.1283L13.6704 13.3159ZM14.0429 13.9502L13.8764 14.0621L13.9352 13.8746L13.7735 13.7562L13.9763 13.7522L14.0429 13.5671L14.1095 13.7522L14.3123 13.7562L14.1507 13.8746L14.2094 14.0621L14.0429 13.9502ZM14.2884 14.6592L14.4549 14.5472L14.6214 14.6592L14.5627 14.4716L14.7243 14.3532L14.5215 14.3492L14.4549 14.1641L14.3883 14.3492L14.1855 14.3532L14.3472 14.4716L14.2884 14.6592ZM15.073 15.0447L14.9065 15.1567L14.9652 14.9691L14.8036 14.8507L15.0064 14.8467L15.073 14.6617L15.1396 14.8467L15.3424 14.8507L15.1807 14.9691L15.2395 15.1567L15.073 15.0447ZM15.782 15.4054L15.9485 15.2935L16.115 15.4054L16.0563 15.2179L16.2179 15.0995L16.0151 15.0955L15.9485 14.9104L15.8819 15.0955L15.6791 15.0995L15.8407 15.2179L15.782 15.4054ZM18.1116 13.2039L18.2781 13.3159L18.2193 13.1283L18.381 13.0099L18.1782 13.0059L18.1116 12.8209L18.045 13.0059L17.8422 13.0099L18.0038 13.1283L17.9451 13.3159L18.1116 13.2039ZM18.0721 14.0621L17.9056 13.9502L17.7391 14.0621L17.7978 13.8746L17.6362 13.7562L17.839 13.7522L17.9056 13.5671L17.9722 13.7522L18.175 13.7562L18.0133 13.8746L18.0721 14.0621ZM17.4936 14.5472L17.6601 14.6592L17.6013 14.4716L17.763 14.3532L17.5602 14.3492L17.4936 14.1641L17.427 14.3492L17.2242 14.3532L17.3858 14.4716L17.3271 14.6592L17.4936 14.5472ZM17.042 15.1567L16.8755 15.0447L16.709 15.1567L16.7678 14.9691L16.6061 14.8507L16.8089 14.8467L16.8755 14.6617L16.9421 14.8467L17.1449 14.8507L16.9833 14.9691L17.042 15.1567Z" fill="#FFC036"/>
<path d="M14.6834 7.00696L14.8821 7.15158C14.3727 7.60867 14.2769 8.11838 14.3745 8.55628C14.4761 9.01249 14.9278 9.49913 15.7491 9.99886L15.4472 10.4619C14.5094 9.89128 13.9693 9.36326 13.8292 8.73444C13.685 8.08731 14.0389 7.58517 14.6834 7.00696Z" fill="#036A2D"/>
<path d="M17.3866 7.00696L17.1878 7.15158C17.6973 7.60867 17.793 8.11838 17.6955 8.55628C17.5939 9.01249 17.1421 9.49913 16.3208 9.99886L16.6228 10.4619C17.5606 9.89128 18.1007 9.36326 18.2408 8.73444C18.3849 8.08731 18.031 7.58517 17.3866 7.00696Z" fill="#036A2D"/>
<path fill-rule="evenodd" clip-rule="evenodd" d="M12.7751 8.86142C12.7751 8.86142 13.6445 8.2603 14.057 8.2603C14.4696 8.2603 15.0202 8.12261 15.1065 8.43887C15.1928 8.75513 15.356 8.66354 15.6755 8.66354C15.9951 8.66354 16.6229 8.66354 16.6229 8.66354C16.6229 8.66354 16.4354 8.2603 16.783 8.2603C17.1305 8.2603 18.5819 8.46566 19.02 8.66354C19.4581 8.86142 19.4801 8.97841 19.4801 8.97841C19.4801 8.97841 19.0747 8.74444 18.6262 8.86142C18.1776 8.97841 17.3641 9.49347 16.9935 9.49347C16.6229 9.49347 16.3264 9.8916 16.3264 9.8916C16.3264 9.8916 16.3508 9.68752 16.0132 9.78956C15.6755 9.8916 15.6834 10.3723 15.395 10.284C15.1065 10.1958 15.4781 9.49347 15.395 9.49347C15.3119 9.49347 14.7229 9.26263 14.7229 9.26263C14.7229 9.26263 14.1514 8.74444 13.3028 8.86142C12.4542 8.97841 12.7751 8.86142 12.7751 8.86142Z" fill="#452C24"/>
<path fill-rule="evenodd" clip-rule="evenodd" d="M15.8713 9.28847C16.0419 9.28847 16.1803 9.16597 16.1803 9.01484C16.1803 8.86372 16.0419 8.74121 15.8713 8.74121C15.7006 8.74121 15.5623 8.86372 15.5623 9.01484C15.5623 9.16597 15.7006 9.28847 15.8713 9.28847Z" fill="#E7E7E7"/>
<path fill-rule="evenodd" clip-rule="evenodd" d="M15.2037 9.00707C15.2037 9.00707 15.3036 8.81812 15.5017 8.81812C15.6998 8.81812 16.0711 8.81812 16.0711 8.91259C16.0711 9.00707 16.1009 9.13049 15.8013 9.13049C15.5017 9.13049 15.6937 9.00707 15.5017 9.00707C15.3097 9.00707 15.2037 9.00707 15.2037 9.00707Z" fill="#E8A30C"/>
<path fill-rule="evenodd" clip-rule="evenodd" d="M18.7363 10.2833C18.8514 10.1628 18.9158 9.87037 18.9158 9.87037C18.9158 9.87037 18.4016 9.95267 18.2819 9.87037C18.1622 9.78807 18.1001 9.54688 18.1001 9.54688C18.1001 9.54688 17.6369 9.75855 17.8135 9.75855C17.9902 9.75855 18.1001 9.9151 18.1001 9.9151L18.4596 10.0475C18.4596 10.0475 18.2209 10.2833 18.3403 10.2833C18.4596 10.2833 18.6212 10.4039 18.7363 10.2833Z" fill="#E1E5E8"/>
<path d="M17.8307 10.3838L17.766 10.3064L18.2177 9.95288L18.2824 10.0302L17.8307 10.3838Z" fill="#925229"/>
</g>
</g>
</svg>
