<svg width="20" height="15" viewBox="0 0 20 15" fill="none" xmlns="http://www.w3.org/2000/svg">
<mask id="mask0" mask-type="alpha" maskUnits="userSpaceOnUse" x="0" y="0" width="20" height="15">
<rect width="20" height="15" fill="white"/>
</mask>
<g mask="url(#mask0)">
<path fill-rule="evenodd" clip-rule="evenodd" d="M0 0V15H20V0H0Z" fill="#19724D"/>
<mask id="mask1" mask-type="alpha" maskUnits="userSpaceOnUse" x="0" y="0" width="20" height="15">
<path fill-rule="evenodd" clip-rule="evenodd" d="M0 0V15H20V0H0Z" fill="white"/>
</mask>
<g mask="url(#mask1)">
<path d="M9.73495 9.38633L8.66386 12.3181L9.25576 9.25344L7.46236 11.8081L8.82729 9.00106L6.4338 11.0045L8.47875 8.64638L5.64828 9.96211L8.23388 8.21357L5.15932 8.75189L8.10937 7.73214L5.00024 7.45636L8.11371 7.23488L5.1819 6.1638L8.2466 6.7557L5.69191 4.9623L8.49899 6.32723L6.49551 3.93374L8.85367 5.97869L7.53794 3.14821L9.28647 5.73382L8.74815 2.65925L9.76791 5.60931L10.0437 2.50018L10.2652 5.61365L11.3362 2.68184L10.7443 5.74654L12.5377 3.19185L11.1728 5.99893L13.5663 3.99545L11.5214 6.35361L14.3518 5.03787L11.7662 6.78641L14.8408 6.24809L11.8907 7.26785L14.9999 7.54363L11.8864 7.7651L14.8182 8.83618L11.7535 8.24429L14.3082 10.0377L11.5011 8.67275L13.5046 11.0662L11.1464 9.0213L12.4622 11.8518L10.7136 9.26616L11.252 12.3407L10.2322 9.39067L9.95642 12.4998L9.73495 9.38633Z" fill="#F7FCFF"/>
<mask id="path-6-outside-1" maskUnits="userSpaceOnUse" x="5" y="2" width="10" height="11" fill="black">
<rect fill="white" x="5" y="2" width="10" height="11"/>
<path fill-rule="evenodd" clip-rule="evenodd" d="M10.5575 11.882L10.3068 12L10.1319 11.7508V11.622L10 11.3259L9.79087 11.0869L9.70438 10.4836L9.44843 10.0402L9.41837 9.99088L9.38342 9.87605V9.71697L9.44843 9.49183L9.56199 9.22638V8.99098V8.69605L9.44843 8.3361L9.14034 8.03871L8.99144 7.81037L9.14034 7.53786L9.25197 7.29827L8.99144 7.13118H8.69601L8.39627 6.84266L7.98354 6.98569L7.46535 7.13118H7.16988H6.82999L6.54837 6.84266L6.39809 6.50233L6.11332 6.15009L6 5.97175L6.11332 5.7196V5.3374V4.98869L6.29162 4.80264L6.54837 4.32083L6.82999 4.06754L7.07003 3.8488L7.16988 3.62449L7.46535 3.27972L7.73242 3.12815V3.27972H7.98354L9.25197 3V3.44582L9.79087 3.74354L10.3068 3.8488V3.62449L11.1966 3.8488L11.8312 3.74354V4.19176L12.1534 4.80264L12.4218 5.3374L12.5704 5.59759L12.8034 5.84055L13.1778 6.15009V6.29755H13.5463L14 6.15009V6.50233L13.7583 7.13118L13.2864 7.53786L12.6849 8.3361V8.69605L12.8034 9.22638L12.6849 9.71697L12.0279 10.1224V10.3699V10.8814H11.7058V11.2453L10.9875 11.882H10.5575ZM13.0874 10.8L12.9396 10.712L12.8892 10.5878L12.8571 10.269L13.1082 9.99108L13.0563 9.68282L13.1389 9.52052L13.2824 9.47539L13.6034 9.38065L13.8472 9L14 9.06172L13.9791 9.47539L13.3499 10.712L13.0874 10.8Z"/>
</mask>
<path fill-rule="evenodd" clip-rule="evenodd" d="M10.5575 11.882L10.3068 12L10.1319 11.7508V11.622L10 11.3259L9.79087 11.0869L9.70438 10.4836L9.44843 10.0402L9.41837 9.99088L9.38342 9.87605V9.71697L9.44843 9.49183L9.56199 9.22638V8.99098V8.69605L9.44843 8.3361L9.14034 8.03871L8.99144 7.81037L9.14034 7.53786L9.25197 7.29827L8.99144 7.13118H8.69601L8.39627 6.84266L7.98354 6.98569L7.46535 7.13118H7.16988H6.82999L6.54837 6.84266L6.39809 6.50233L6.11332 6.15009L6 5.97175L6.11332 5.7196V5.3374V4.98869L6.29162 4.80264L6.54837 4.32083L6.82999 4.06754L7.07003 3.8488L7.16988 3.62449L7.46535 3.27972L7.73242 3.12815V3.27972H7.98354L9.25197 3V3.44582L9.79087 3.74354L10.3068 3.8488V3.62449L11.1966 3.8488L11.8312 3.74354V4.19176L12.1534 4.80264L12.4218 5.3374L12.5704 5.59759L12.8034 5.84055L13.1778 6.15009V6.29755H13.5463L14 6.15009V6.50233L13.7583 7.13118L13.2864 7.53786L12.6849 8.3361V8.69605L12.8034 9.22638L12.6849 9.71697L12.0279 10.1224V10.3699V10.8814H11.7058V11.2453L10.9875 11.882H10.5575ZM13.0874 10.8L12.9396 10.712L12.8892 10.5878L12.8571 10.269L13.1082 9.99108L13.0563 9.68282L13.1389 9.52052L13.2824 9.47539L13.6034 9.38065L13.8472 9L14 9.06172L13.9791 9.47539L13.3499 10.712L13.0874 10.8Z" fill="#19724D"/>
<path d="M10.3068 12L10.143 12.1149L10.2397 12.2526L10.3919 12.181L10.3068 12ZM10.5575 11.882V11.682H10.5128L10.4723 11.701L10.5575 11.882ZM10.1319 11.7508H9.9319V11.8139L9.96817 11.8656L10.1319 11.7508ZM10.1319 11.622H10.3319V11.5795L10.3146 11.5406L10.1319 11.622ZM10 11.3259L10.1827 11.2445L10.1704 11.2169L10.1505 11.1941L10 11.3259ZM9.79087 11.0869L9.59289 11.1153L9.60131 11.174L9.64038 11.2187L9.79087 11.0869ZM9.70438 10.4836L9.90235 10.4552L9.89688 10.4171L9.8776 10.3837L9.70438 10.4836ZM9.44843 10.0402L9.62171 9.94016L9.61917 9.93601L9.44843 10.0402ZM9.41837 9.99088L9.22703 10.0491L9.23442 10.0734L9.24763 10.095L9.41837 9.99088ZM9.38342 9.87605H9.18342V9.90581L9.19209 9.93427L9.38342 9.87605ZM9.38342 9.71697L9.19128 9.66148L9.18342 9.68867V9.71697H9.38342ZM9.44843 9.49183L9.26455 9.41317L9.2597 9.4245L9.25628 9.43635L9.44843 9.49183ZM9.56199 9.22638L9.74587 9.30504L9.76199 9.26736V9.22638H9.56199ZM9.56199 8.69605H9.76199V8.66525L9.75272 8.63588L9.56199 8.69605ZM9.44843 8.3361L9.63917 8.27593L9.62388 8.22748L9.58733 8.1922L9.44843 8.3361ZM9.14034 8.03871L8.97281 8.14795L8.98516 8.1669L9.00144 8.18261L9.14034 8.03871ZM8.99144 7.81037L8.81593 7.71447L8.75859 7.81943L8.82391 7.91961L8.99144 7.81037ZM9.14034 7.53786L9.31621 7.63395L9.32162 7.62232L9.14034 7.53786ZM9.25197 7.29827L9.43325 7.38273L9.50708 7.22429L9.35994 7.12992L9.25197 7.29827ZM8.99144 7.13118L9.09942 6.96283L9.05007 6.93118H8.99144V7.13118ZM8.69601 7.13118L8.55731 7.27527L8.61539 7.33118H8.69601V7.13118ZM8.39627 6.84266L8.53496 6.69857L8.44663 6.61354L8.33078 6.65368L8.39627 6.84266ZM7.98354 6.98569L8.0377 7.17859L8.04903 7.17466L7.98354 6.98569ZM7.46535 7.13118V7.33118H7.4929L7.51942 7.32374L7.46535 7.13118ZM6.82999 7.13118L6.68686 7.27088L6.74572 7.33118H6.82999V7.13118ZM6.54837 6.84266L6.36541 6.92344L6.38001 6.9565L6.40525 6.98236L6.54837 6.84266ZM6.39809 6.50233L6.58105 6.42154L6.57032 6.39724L6.55362 6.37659L6.39809 6.50233ZM6.11332 6.15009L5.94452 6.25735L5.95063 6.26697L5.95779 6.27583L6.11332 6.15009ZM6 5.97175L5.81758 5.88977L5.7734 5.98806L5.8312 6.07902L6 5.97175ZM6.11332 5.7196L6.29575 5.80159L6.31332 5.76248V5.7196H6.11332ZM6.11332 4.98869L5.96893 4.85031L5.91332 4.90833V4.98869H6.11332ZM6.29162 4.80264L6.43602 4.94102L6.45513 4.92107L6.46813 4.89669L6.29162 4.80264ZM6.54837 4.32083L6.41462 4.17214L6.38843 4.19569L6.37187 4.22678L6.54837 4.32083ZM6.82999 4.06754L6.96374 4.21624L6.96469 4.21537L6.82999 4.06754ZM7.07003 3.8488L7.20474 3.99663L7.23571 3.96841L7.25274 3.93014L7.07003 3.8488ZM7.16988 3.62449L7.01802 3.49434L6.99903 3.5165L6.98716 3.54315L7.16988 3.62449ZM7.46535 3.27972L7.36663 3.10578L7.33624 3.12303L7.31349 3.14957L7.46535 3.27972ZM7.73242 3.12815H7.93242V2.78468L7.6337 2.95421L7.73242 3.12815ZM7.73242 3.27972H7.53242V3.47972H7.73242V3.27972ZM7.98354 3.27972V3.47972H8.00534L8.02661 3.47503L7.98354 3.27972ZM9.25197 3H9.45197V2.75109L9.20889 2.80469L9.25197 3ZM9.25197 3.44582H9.05197V3.56382L9.15525 3.62089L9.25197 3.44582ZM9.79087 3.74354L9.69415 3.9186L9.72092 3.93339L9.75088 3.9395L9.79087 3.74354ZM10.3068 3.8488L10.2668 4.04477L10.5068 4.09373V3.8488H10.3068ZM10.3068 3.62449L10.3556 3.43055L10.1068 3.36782V3.62449H10.3068ZM11.1966 3.8488L11.1477 4.04274L11.1882 4.05293L11.2294 4.04611L11.1966 3.8488ZM11.8312 3.74354H12.0312V3.50763L11.7984 3.54624L11.8312 3.74354ZM11.8312 4.19176H11.6312V4.24128L11.6543 4.28507L11.8312 4.19176ZM12.1534 4.80264L12.3322 4.7129L12.3303 4.70933L12.1534 4.80264ZM12.4218 5.3374L12.2428 5.42724L12.2481 5.43657L12.4218 5.3374ZM12.5704 5.59759L12.3967 5.69677L12.4089 5.71822L12.426 5.73604L12.5704 5.59759ZM12.8034 5.84055L12.6591 5.97899L12.6671 5.98733L12.676 5.99468L12.8034 5.84055ZM13.1778 6.15009H13.3778V6.05594L13.3052 5.99595L13.1778 6.15009ZM13.1778 6.29755H12.9778V6.49755H13.1778V6.29755ZM13.5463 6.29755V6.49755H13.578L13.6081 6.48776L13.5463 6.29755ZM14 6.15009H14.2V5.87478L13.9382 5.95988L14 6.15009ZM14 6.50233L14.1867 6.57409L14.2 6.53944V6.50233H14ZM13.7583 7.13118L13.8888 7.28268L13.9269 7.24986L13.9449 7.20294L13.7583 7.13118ZM13.2864 7.53786L13.1558 7.38636L13.1396 7.40037L13.1267 7.4175L13.2864 7.53786ZM12.6849 8.3361L12.5252 8.21574L12.4849 8.26918V8.3361H12.6849ZM12.6849 8.69605H12.4849V8.71812L12.4897 8.73966L12.6849 8.69605ZM12.8034 9.22638L12.9978 9.27333L13.0087 9.22814L12.9986 9.18277L12.8034 9.22638ZM12.6849 9.71697L12.79 9.88717L12.86 9.84394L12.8793 9.76392L12.6849 9.71697ZM12.0279 10.1224L11.9229 9.95221L11.8279 10.0108V10.1224H12.0279ZM12.0279 10.8814V11.0814H12.2279V10.8814H12.0279ZM11.7058 10.8814V10.6814H11.5058V10.8814H11.7058ZM11.7058 11.2453L11.8385 11.395L11.9058 11.3353V11.2453H11.7058ZM10.9875 11.882V12.082H11.0634L11.1202 12.0316L10.9875 11.882ZM12.9396 10.712L12.7543 10.7873L12.7796 10.8495L12.8373 10.8839L12.9396 10.712ZM13.0874 10.8L12.9851 10.9718L13.064 11.0188L13.151 10.9896L13.0874 10.8ZM12.8892 10.5878L12.6902 10.6078L12.6931 10.6364L12.7039 10.6631L12.8892 10.5878ZM12.8571 10.269L12.7087 10.1349L12.6493 10.2007L12.6581 10.289L12.8571 10.269ZM13.1082 9.99108L13.2566 10.1252L13.3215 10.0533L13.3054 9.95783L13.1082 9.99108ZM13.0563 9.68282L12.878 9.59203L12.848 9.65091L12.859 9.71607L13.0563 9.68282ZM13.1389 9.52052L13.0789 9.32975L12.9988 9.35495L12.9607 9.42973L13.1389 9.52052ZM13.2824 9.47539L13.2257 9.28354L13.2223 9.28461L13.2824 9.47539ZM13.6034 9.38065L13.66 9.57247L13.7315 9.55135L13.7718 9.48853L13.6034 9.38065ZM13.8472 9L13.9221 8.81456L13.7683 8.75242L13.6788 8.89211L13.8472 9ZM14 9.06172L14.1997 9.07183L14.2069 8.92962L14.0749 8.87628L14 9.06172ZM13.9791 9.47539L14.1573 9.56608L14.1767 9.52808L14.1788 9.4855L13.9791 9.47539ZM13.3499 10.712L13.4134 10.9017L13.491 10.8756L13.5281 10.8027L13.3499 10.712ZM10.3919 12.181L10.6427 12.0629L10.4723 11.701L10.2216 11.819L10.3919 12.181ZM9.96817 11.8656L10.143 12.1149L10.4705 11.8851L10.2956 11.6359L9.96817 11.8656ZM9.9319 11.622V11.7508H10.3319V11.622H9.9319ZM9.8173 11.4072L9.9492 11.7034L10.3146 11.5406L10.1827 11.2445L9.8173 11.4072ZM9.64038 11.2187L9.84951 11.4576L10.1505 11.1941L9.94136 10.9552L9.64038 11.2187ZM9.5064 10.512L9.59289 11.1153L9.98884 11.0586L9.90235 10.4552L9.5064 10.512ZM9.27521 10.1401L9.53115 10.5836L9.8776 10.3837L9.62166 9.94019L9.27521 10.1401ZM9.24763 10.095L9.27769 10.1443L9.61917 9.93601L9.58911 9.88672L9.24763 10.095ZM9.19209 9.93427L9.22703 10.0491L9.60971 9.93265L9.57476 9.81782L9.19209 9.93427ZM9.18342 9.71697V9.87605H9.58343V9.71697H9.18342ZM9.25628 9.43635L9.19128 9.66148L9.57557 9.77245L9.64058 9.54731L9.25628 9.43635ZM9.37811 9.14772L9.26455 9.41317L9.63232 9.57049L9.74587 9.30504L9.37811 9.14772ZM9.36199 8.99098V9.22638H9.76199V8.99098H9.36199ZM9.36199 8.69605V8.99098H9.76199V8.69605H9.36199ZM9.2577 8.39627L9.37125 8.75622L9.75272 8.63588L9.63917 8.27593L9.2577 8.39627ZM9.00144 8.18261L9.30954 8.48L9.58733 8.1922L9.27923 7.89481L9.00144 8.18261ZM8.82391 7.91961L8.97281 8.14795L9.30787 7.92947L9.15898 7.70113L8.82391 7.91961ZM8.96482 7.44196L8.81593 7.71447L9.16696 7.90626L9.31585 7.63375L8.96482 7.44196ZM9.07068 7.2138L8.95905 7.45339L9.32162 7.62232L9.43325 7.38273L9.07068 7.2138ZM8.88347 7.29953L9.14399 7.46662L9.35994 7.12992L9.09942 6.96283L8.88347 7.29953ZM8.69601 7.33118H8.99144V6.93118H8.69601V7.33118ZM8.25757 6.98675L8.55731 7.27527L8.83471 6.98709L8.53496 6.69857L8.25757 6.98675ZM8.04903 7.17466L8.46176 7.03163L8.33078 6.65368L7.91805 6.79671L8.04903 7.17466ZM7.51942 7.32374L8.03761 7.17824L7.92948 6.79313L7.41129 6.93863L7.51942 7.32374ZM7.16988 7.33118H7.46535V6.93118H7.16988V7.33118ZM6.82999 7.33118H7.16988V6.93118H6.82999V7.33118ZM6.40525 6.98236L6.68686 7.27088L6.97311 6.99148L6.6915 6.70296L6.40525 6.98236ZM6.21514 6.58311L6.36541 6.92344L6.73133 6.76187L6.58105 6.42154L6.21514 6.58311ZM5.95779 6.27583L6.24256 6.62807L6.55362 6.37659L6.26885 6.02435L5.95779 6.27583ZM5.8312 6.07902L5.94452 6.25735L6.28213 6.04282L6.1688 5.86449L5.8312 6.07902ZM5.9309 5.63762L5.81758 5.88977L6.18242 6.05374L6.29575 5.80159L5.9309 5.63762ZM5.91332 5.3374V5.7196H6.31332V5.3374H5.91332ZM5.91332 4.98869V5.3374H6.31332V4.98869H5.91332ZM6.14722 4.66426L5.96893 4.85031L6.25772 5.12707L6.43602 4.94102L6.14722 4.66426ZM6.37187 4.22678L6.11512 4.70858L6.46813 4.89669L6.72487 4.41489L6.37187 4.22678ZM6.69624 3.91884L6.41462 4.17214L6.68212 4.46953L6.96373 4.21623L6.69624 3.91884ZM6.93532 3.70097L6.69528 3.9197L6.96469 4.21537L7.20474 3.99663L6.93532 3.70097ZM6.98716 3.54315L6.88731 3.76747L7.25274 3.93014L7.35259 3.70582L6.98716 3.54315ZM7.31349 3.14957L7.01802 3.49434L7.32174 3.75464L7.61721 3.40987L7.31349 3.14957ZM7.6337 2.95421L7.36663 3.10578L7.56407 3.45366L7.83113 3.30209L7.6337 2.95421ZM7.93242 3.27972V3.12815H7.53242V3.27972H7.93242ZM7.98354 3.07972H7.73242V3.47972H7.98354V3.07972ZM9.20889 2.80469L7.94047 3.08441L8.02661 3.47503L9.29504 3.19531L9.20889 2.80469ZM9.45197 3.44582V3H9.05197V3.44582H9.45197ZM9.88758 3.56848L9.34868 3.27076L9.15525 3.62089L9.69415 3.9186L9.88758 3.56848ZM10.3467 3.65284L9.83085 3.54758L9.75088 3.9395L10.2668 4.04477L10.3467 3.65284ZM10.1068 3.62449V3.8488H10.5068V3.62449H10.1068ZM11.2455 3.65487L10.3556 3.43055L10.2579 3.81842L11.1477 4.04274L11.2455 3.65487ZM11.7984 3.54624L11.1639 3.6515L11.2294 4.04611L11.8639 3.94085L11.7984 3.54624ZM12.0312 4.19176V3.74354H11.6312V4.19176H12.0312ZM12.3303 4.70933L12.008 4.09845L11.6543 4.28507L11.9765 4.89595L12.3303 4.70933ZM12.6005 5.24768L12.3321 4.71292L11.9746 4.89235L12.243 5.42712L12.6005 5.24768ZM12.744 5.49842L12.5955 5.23822L12.2481 5.43657L12.3967 5.69677L12.744 5.49842ZM12.9477 5.7021L12.7147 5.45915L12.426 5.73604L12.6591 5.97899L12.9477 5.7021ZM13.3052 5.99595L12.9308 5.68641L12.676 5.99468L13.0503 6.30423L13.3052 5.99595ZM13.3778 6.29755V6.15009H12.9778V6.29755H13.3778ZM13.5463 6.09755H13.1778V6.49755H13.5463V6.09755ZM13.9382 5.95988L13.4845 6.10735L13.6081 6.48776L14.0618 6.34029L13.9382 5.95988ZM14.2 6.50233V6.15009H13.8V6.50233H14.2ZM13.9449 7.20294L14.1867 6.57409L13.8133 6.43056L13.5716 7.05942L13.9449 7.20294ZM13.417 7.68935L13.8888 7.28268L13.6277 6.97969L13.1558 7.38636L13.417 7.68935ZM12.8447 8.45646L13.4461 7.65822L13.1267 7.4175L12.5252 8.21574L12.8447 8.45646ZM12.8849 8.69605V8.3361H12.4849V8.69605H12.8849ZM12.9986 9.18277L12.8801 8.65245L12.4897 8.73966L12.6082 9.26998L12.9986 9.18277ZM12.8793 9.76392L12.9978 9.27333L12.609 9.17943L12.4905 9.67002L12.8793 9.76392ZM12.133 10.2926L12.79 9.88717L12.5799 9.54677L11.9229 9.95221L12.133 10.2926ZM12.2279 10.3699V10.1224H11.8279V10.3699H12.2279ZM12.2279 10.8814V10.3699H11.8279V10.8814H12.2279ZM11.7058 11.0814H12.0279V10.6814H11.7058V11.0814ZM11.9058 11.2453V10.8814H11.5058V11.2453H11.9058ZM11.1202 12.0316L11.8385 11.395L11.5732 11.0956L10.8549 11.7323L11.1202 12.0316ZM10.5575 12.082H10.9875V11.682H10.5575V12.082ZM12.8373 10.8839L12.9851 10.9718L13.1897 10.6282L13.042 10.5402L12.8373 10.8839ZM12.7039 10.6631L12.7543 10.7873L13.125 10.6368L13.0745 10.5126L12.7039 10.6631ZM12.6581 10.289L12.6902 10.6078L13.0882 10.5678L13.0561 10.249L12.6581 10.289ZM12.9598 9.857L12.7087 10.1349L13.0055 10.403L13.2566 10.1252L12.9598 9.857ZM12.859 9.71607L12.911 10.0243L13.3054 9.95783L13.2535 9.64958L12.859 9.71607ZM12.9607 9.42973L12.878 9.59203L13.2345 9.77362L13.3171 9.61132L12.9607 9.42973ZM13.2223 9.28461L13.0789 9.32975L13.199 9.7113L13.3424 9.66616L13.2223 9.28461ZM13.5467 9.18883L13.2257 9.28357L13.339 9.66721L13.66 9.57247L13.5467 9.18883ZM13.6788 8.89211L13.435 9.27276L13.7718 9.48853L14.0156 9.10789L13.6788 8.89211ZM14.0749 8.87628L13.9221 8.81456L13.7723 9.18544L13.9251 9.24716L14.0749 8.87628ZM14.1788 9.4855L14.1997 9.07183L13.8003 9.05161L13.7793 9.46528L14.1788 9.4855ZM13.5281 10.8027L14.1573 9.56608L13.8008 9.38469L13.1716 10.6213L13.5281 10.8027ZM13.151 10.9896L13.4134 10.9017L13.2863 10.5224L13.0238 10.6104L13.151 10.9896Z" fill="#F7FCFF" mask="url(#path-6-outside-1)"/>
<path fill-rule="evenodd" clip-rule="evenodd" d="M10 1.625L9.55916 1.85676L9.64335 1.36588L9.28671 1.01824L9.77958 0.946619L10 0.5L10.2204 0.946619L10.7133 1.01824L10.3566 1.36588L10.4408 1.85676L10 1.625Z" fill="#FECA00"/>
<path fill-rule="evenodd" clip-rule="evenodd" d="M11.5206 1.82521L11.0348 1.93498L11.2431 1.48262L10.9886 1.05451L11.4832 1.1129L11.8117 0.738548L11.909 1.227L12.3666 1.42374L11.9321 1.66723L11.8864 2.16318L11.5206 1.82521Z" fill="#FECA00"/>
<path fill-rule="evenodd" clip-rule="evenodd" d="M12.9375 2.41208L12.4398 2.39238L12.7582 2.00936L12.6231 1.52997L13.0858 1.71438L13.5 1.43781L13.4676 1.9348L13.8586 2.24326L13.3759 2.366L13.2034 2.83322L12.9375 2.41208Z" fill="#FECA00"/>
<path fill-rule="evenodd" clip-rule="evenodd" d="M14.1543 3.34572L13.6787 3.19788L14.0853 2.91031L14.0789 2.4123L14.4781 2.71017L14.9498 2.55023L14.7898 3.02189L15.0877 3.42105L14.5897 3.41469L14.3021 3.82132L14.1543 3.34572Z" fill="#FECA00"/>
<path fill-rule="evenodd" clip-rule="evenodd" d="M15.0879 4.56248L14.6667 4.29659L15.1339 4.12406L15.2567 3.64137L15.5651 4.0324L16.0621 3.99998L15.7856 4.41418L15.97 4.87683L15.4906 4.74179L15.1076 5.06014L15.0879 4.56248Z" fill="#FECA00"/>
<path fill-rule="evenodd" clip-rule="evenodd" d="M15.6748 5.97942L15.3369 5.61359L15.8328 5.56786L16.0763 5.13339L16.273 5.59094L16.7615 5.68825L16.3871 6.01675L16.4455 6.51137L16.0174 6.25685L15.5651 6.46522L15.6748 5.97942Z" fill="#FECA00"/>
<path fill-rule="evenodd" clip-rule="evenodd" d="M15.875 7.5L15.6432 7.05916L16.1341 7.14335L16.4818 6.78671L16.5534 7.27958L17 7.5L16.5534 7.72042L16.4818 8.21329L16.1341 7.85665L15.6432 7.94084L15.875 7.5Z" fill="#FECA00"/>
<path fill-rule="evenodd" clip-rule="evenodd" d="M15.6748 9.02055L15.565 8.53475L16.0174 8.74312L16.4455 8.48861L16.3871 8.98322L16.7615 9.31172L16.273 9.40904L16.0763 9.86658L15.8328 9.43211L15.3368 9.38639L15.6748 9.02055Z" fill="#FECA00"/>
<path fill-rule="evenodd" clip-rule="evenodd" d="M15.0879 10.4375L15.1076 9.93982L15.4906 10.2582L15.97 10.1231L15.7856 10.5858L16.0621 11L15.5651 10.9676L15.2567 11.3586L15.1339 10.8759L14.6667 10.7034L15.0879 10.4375Z" fill="#FECA00"/>
<path fill-rule="evenodd" clip-rule="evenodd" d="M14.1543 11.6543L14.3021 11.1787L14.5897 11.5853L15.0877 11.5789L14.7898 11.9781L14.9498 12.4498L14.4781 12.2898L14.0789 12.5877L14.0853 12.0897L13.6787 11.8021L14.1543 11.6543Z" fill="#FECA00"/>
<path fill-rule="evenodd" clip-rule="evenodd" d="M12.9375 12.5879L13.2034 12.1668L13.3759 12.634L13.8586 12.7567L13.4676 13.0652L13.5 13.5622L13.0858 13.2856L12.6232 13.47L12.7582 12.9906L12.4399 12.6076L12.9375 12.5879Z" fill="#FECA00"/>
<path fill-rule="evenodd" clip-rule="evenodd" d="M11.5205 13.1748L11.8864 12.8369L11.9321 13.3328L12.3665 13.5763L11.909 13.773L11.8117 14.2615L11.4832 13.8871L10.9886 13.9455L11.2431 13.5174L11.0347 13.0651L11.5205 13.1748Z" fill="#FECA00"/>
<path fill-rule="evenodd" clip-rule="evenodd" d="M10 13.375L10.4408 13.1432L10.3566 13.6341L10.7133 13.9818L10.2204 14.0534L10 14.5L9.77958 14.0534L9.28671 13.9818L9.64335 13.6341L9.55916 13.1432L10 13.375Z" fill="#FECA00"/>
<path fill-rule="evenodd" clip-rule="evenodd" d="M8.47945 13.1748L8.96525 13.065L8.75688 13.5174L9.01139 13.9455L8.51678 13.8871L8.18828 14.2615L8.09096 13.773L7.63342 13.5763L8.06789 13.3328L8.11361 12.8368L8.47945 13.1748Z" fill="#FECA00"/>
<path fill-rule="evenodd" clip-rule="evenodd" d="M7.06252 12.5879L7.56018 12.6076L7.24182 12.9906L7.37687 13.47L6.91422 13.2856L6.50002 13.5622L6.53244 13.0652L6.14141 12.7567L6.62409 12.634L6.79662 12.1668L7.06252 12.5879Z" fill="#FECA00"/>
<path fill-rule="evenodd" clip-rule="evenodd" d="M5.84573 11.6543L6.32133 11.8021L5.91469 12.0897L5.92106 12.5877L5.5219 12.2898L5.05024 12.4498L5.21018 11.9781L4.91231 11.5789L5.41032 11.5853L5.69789 11.1787L5.84573 11.6543Z" fill="#FECA00"/>
<path fill-rule="evenodd" clip-rule="evenodd" d="M4.91214 10.4375L5.33328 10.7034L4.86606 10.8759L4.74332 11.3586L4.43486 10.9676L3.93787 11L4.21444 10.5858L4.03003 10.1232L4.50942 10.2582L4.89244 9.93986L4.91214 10.4375Z" fill="#FECA00"/>
<path fill-rule="evenodd" clip-rule="evenodd" d="M4.32517 9.02058L4.66313 9.38641L4.16719 9.43214L3.9237 9.86661L3.72695 9.40906L3.2385 9.31175L3.61285 8.98325L3.55447 8.48863L3.98257 8.74315L4.43494 8.53478L4.32517 9.02058Z" fill="#FECA00"/>
<path fill-rule="evenodd" clip-rule="evenodd" d="M4.125 7.5L4.35676 7.94084L3.86588 7.85665L3.51824 8.21329L3.44662 7.72042L3 7.5L3.44662 7.27958L3.51824 6.78671L3.86588 7.14335L4.35676 7.05916L4.125 7.5Z" fill="#FECA00"/>
<path fill-rule="evenodd" clip-rule="evenodd" d="M4.32521 5.97945L4.43498 6.46525L3.98262 6.25688L3.55451 6.51139L3.6129 6.01678L3.23855 5.68828L3.727 5.59096L3.92374 5.13342L4.16723 5.56789L4.66318 5.61361L4.32521 5.97945Z" fill="#FECA00"/>
<path fill-rule="evenodd" clip-rule="evenodd" d="M4.91214 4.56252L4.89244 5.06018L4.50942 4.74182L4.03003 4.87687L4.21444 4.41422L3.93787 4.00002L4.43486 4.03244L4.74332 3.64141L4.86606 4.12409L5.33328 4.29662L4.91214 4.56252Z" fill="#FECA00"/>
<path fill-rule="evenodd" clip-rule="evenodd" d="M5.84572 3.34573L5.69788 3.82133L5.41031 3.41469L4.9123 3.42106L5.21017 3.0219L5.05023 2.55024L5.52189 2.71018L5.92105 2.41231L5.91469 2.91032L6.32132 3.19789L5.84572 3.34573Z" fill="#FECA00"/>
<path fill-rule="evenodd" clip-rule="evenodd" d="M7.06248 2.41208L6.79659 2.83322L6.62406 2.366L6.14137 2.24326L6.5324 1.9348L6.49998 1.43781L6.91418 1.71438L7.37683 1.52997L7.24179 2.00936L7.56014 2.39238L7.06248 2.41208Z" fill="#FECA00"/>
<path fill-rule="evenodd" clip-rule="evenodd" d="M8.47948 1.82517L8.11365 2.16313L8.06792 1.66719L7.63345 1.4237L8.091 1.22695L8.18831 0.738503L8.51681 1.11285L9.01143 1.05447L8.75691 1.48257L8.96529 1.93494L8.47948 1.82517Z" fill="#FECA00"/>
</g>
</g>
</svg>
