<svg width="32" height="24" viewBox="0 0 32 24" fill="none" xmlns="http://www.w3.org/2000/svg">
<mask id="mask0" mask-type="alpha" maskUnits="userSpaceOnUse" x="0" y="0" width="32" height="24">
<rect width="32" height="24" fill="white"/>
</mask>
<g mask="url(#mask0)">
<path fill-rule="evenodd" clip-rule="evenodd" d="M0 0V24H32V0H0Z" fill="#F7FCFF"/>
<mask id="mask1" mask-type="alpha" maskUnits="userSpaceOnUse" x="0" y="0" width="32" height="24">
<path fill-rule="evenodd" clip-rule="evenodd" d="M0 0V24H32V0H0Z" fill="white"/>
</mask>
<g mask="url(#mask1)">
<path fill-rule="evenodd" clip-rule="evenodd" d="M-1.50574 3.29149L-0.0185926 4.70851C1.20943 3.54766 2.36815 3 3.46932 3C4.00134 3 4.22791 3.1285 4.84149 3.70851C5.81472 4.6285 6.46971 5 7.7008 5C8.93189 5 9.58688 4.6285 10.5601 3.70851C11.1737 3.1285 11.4003 3 11.9323 3C12.4643 3 12.6909 3.1285 13.3044 3.70851C14.2777 4.6285 14.9327 5 16.1638 5C17.3949 5 18.0498 4.6285 19.0231 3.70851C19.6366 3.1285 19.8632 3 20.3952 3C20.9273 3 21.1538 3.1285 21.7674 3.70851C22.7406 4.6285 23.3956 5 24.6267 5C25.8578 5 26.5128 4.6285 27.486 3.70851C28.0996 3.1285 28.3262 3 28.8582 3C29.9594 3 31.1181 3.54766 32.3461 4.70851L33.8333 3.29149C32.2403 1.78567 30.578 1 28.8582 1C27.6271 1 26.9721 1.3715 25.9989 2.29149C25.3853 2.8715 25.1588 3 24.6267 3C24.0947 3 23.8681 2.8715 23.2546 2.29149C22.2813 1.3715 21.6263 1 20.3952 1C19.1642 1 18.5092 1.3715 17.5359 2.29149C16.9224 2.8715 16.6958 3 16.1638 3C15.6317 3 15.4052 2.8715 14.7916 2.29149C13.8184 1.3715 13.1634 1 11.9323 1C10.7012 1 10.0462 1.3715 9.07297 2.29149C8.45939 2.8715 8.23283 3 7.7008 3C7.16877 3 6.9422 2.8715 6.32863 2.29149C5.3554 1.3715 4.70041 1 3.46932 1C1.7495 1 0.0872242 1.78567 -1.50574 3.29149ZM-0.0185926 8.70851L-1.50574 7.29149C0.0872242 5.78567 1.7495 5 3.46932 5C4.70041 5 5.3554 5.3715 6.32863 6.29149C6.9422 6.8715 7.16877 7 7.7008 7C8.23283 7 8.45939 6.8715 9.07297 6.29149C10.0462 5.3715 10.7012 5 11.9323 5C13.1634 5 13.8184 5.3715 14.7916 6.29149C15.4052 6.8715 15.6317 7 16.1638 7C16.6958 7 16.9224 6.8715 17.5359 6.29149C18.5092 5.3715 19.1642 5 20.3952 5C21.6263 5 22.2813 5.3715 23.2546 6.29149C23.8681 6.8715 24.0947 7 24.6267 7C25.1588 7 25.3853 6.8715 25.9989 6.29149C26.9721 5.3715 27.6271 5 28.8582 5C30.578 5 32.2403 5.78567 33.8333 7.29149L32.3461 8.70851C31.1181 7.54766 29.9594 7 28.8582 7C28.3262 7 28.0996 7.1285 27.486 7.70851C26.5128 8.6285 25.8578 9 24.6267 9C23.3956 9 22.7406 8.6285 21.7674 7.70851C21.1538 7.1285 20.9273 7 20.3952 7C19.8632 7 19.6366 7.1285 19.0231 7.70851C18.0498 8.6285 17.3949 9 16.1638 9C14.9327 9 14.2777 8.6285 13.3044 7.70851C12.6909 7.1285 12.4643 7 11.9323 7C11.4003 7 11.1737 7.1285 10.5601 7.70851C9.58688 8.6285 8.93189 9 7.7008 9C6.46971 9 5.81472 8.6285 4.84149 7.70851C4.22791 7.1285 4.00134 7 3.46932 7C2.36815 7 1.20943 7.54766 -0.0185926 8.70851ZM-0.0185926 12.7085L-1.50574 11.2915C0.0872242 9.78567 1.7495 9 3.46932 9C4.70041 9 5.3554 9.3715 6.32863 10.2915C6.9422 10.8715 7.16877 11 7.7008 11C8.23283 11 8.45939 10.8715 9.07297 10.2915C10.0462 9.3715 10.7012 9 11.9323 9C13.1634 9 13.8184 9.3715 14.7916 10.2915C15.4052 10.8715 15.6317 11 16.1638 11C16.6958 11 16.9224 10.8715 17.5359 10.2915C18.5092 9.3715 19.1642 9 20.3952 9C21.6263 9 22.2813 9.3715 23.2546 10.2915C23.8681 10.8715 24.0947 11 24.6267 11C25.1588 11 25.3853 10.8715 25.9989 10.2915C26.9721 9.3715 27.6271 9 28.8582 9C30.578 9 32.2403 9.78567 33.8333 11.2915L32.3461 12.7085C31.1181 11.5477 29.9594 11 28.8582 11C28.3262 11 28.0996 11.1285 27.486 11.7085C26.5128 12.6285 25.8578 13 24.6267 13C23.3956 13 22.7406 12.6285 21.7674 11.7085C21.1538 11.1285 20.9273 11 20.3952 11C19.8632 11 19.6366 11.1285 19.0231 11.7085C18.0498 12.6285 17.3949 13 16.1638 13C14.9327 13 14.2777 12.6285 13.3044 11.7085C12.6909 11.1285 12.4643 11 11.9323 11C11.4003 11 11.1737 11.1285 10.5601 11.7085C9.58688 12.6285 8.93189 13 7.7008 13C6.46971 13 5.81472 12.6285 4.84149 11.7085C4.22791 11.1285 4.00134 11 3.46932 11C2.36815 11 1.20943 11.5477 -0.0185926 12.7085ZM-0.0185926 16.7085L-1.50574 15.2915C0.0872242 13.7857 1.7495 13 3.46932 13C4.70041 13 5.3554 13.3715 6.32863 14.2915C6.9422 14.8715 7.16877 15 7.7008 15C8.23283 15 8.45939 14.8715 9.07297 14.2915C10.0462 13.3715 10.7012 13 11.9323 13C13.1634 13 13.8184 13.3715 14.7916 14.2915C15.4052 14.8715 15.6317 15 16.1638 15C16.6958 15 16.9224 14.8715 17.5359 14.2915C18.5092 13.3715 19.1642 13 20.3952 13C21.6263 13 22.2813 13.3715 23.2546 14.2915C23.8681 14.8715 24.0947 15 24.6267 15C25.1588 15 25.3853 14.8715 25.9989 14.2915C26.9721 13.3715 27.6271 13 28.8582 13C30.578 13 32.2403 13.7857 33.8333 15.2915L32.3461 16.7085C31.1181 15.5477 29.9594 15 28.8582 15C28.3262 15 28.0996 15.1285 27.486 15.7085C26.5128 16.6285 25.8578 17 24.6267 17C23.3956 17 22.7406 16.6285 21.7674 15.7085C21.1538 15.1285 20.9273 15 20.3952 15C19.8632 15 19.6366 15.1285 19.0231 15.7085C18.0498 16.6285 17.3949 17 16.1638 17C14.9327 17 14.2777 16.6285 13.3044 15.7085C12.6909 15.1285 12.4643 15 11.9323 15C11.4003 15 11.1737 15.1285 10.5601 15.7085C9.58688 16.6285 8.93189 17 7.7008 17C6.46971 17 5.81472 16.6285 4.84149 15.7085C4.22791 15.1285 4.00134 15 3.46932 15C2.36815 15 1.20943 15.5477 -0.0185926 16.7085ZM-0.0185926 20.7085L-1.50574 19.2915C0.0872242 17.7857 1.7495 17 3.46932 17C4.70041 17 5.3554 17.3715 6.32863 18.2915C6.9422 18.8715 7.16877 19 7.7008 19C8.23283 19 8.45939 18.8715 9.07297 18.2915C10.0462 17.3715 10.7012 17 11.9323 17C13.1634 17 13.8184 17.3715 14.7916 18.2915C15.4052 18.8715 15.6317 19 16.1638 19C16.6958 19 16.9224 18.8715 17.5359 18.2915C18.5092 17.3715 19.1642 17 20.3952 17C21.6263 17 22.2813 17.3715 23.2546 18.2915C23.8681 18.8715 24.0947 19 24.6267 19C25.1588 19 25.3853 18.8715 25.9989 18.2915C26.9721 17.3715 27.6271 17 28.8582 17C30.578 17 32.2403 17.7857 33.8333 19.2915L32.3461 20.7085C31.1181 19.5477 29.9594 19 28.8582 19C28.3262 19 28.0996 19.1285 27.486 19.7085C26.5128 20.6285 25.8578 21 24.6267 21C23.3956 21 22.7406 20.6285 21.7674 19.7085C21.1538 19.1285 20.9273 19 20.3952 19C19.8632 19 19.6366 19.1285 19.0231 19.7085C18.0498 20.6285 17.3949 21 16.1638 21C14.9327 21 14.2777 20.6285 13.3044 19.7085C12.6909 19.1285 12.4643 19 11.9323 19C11.4003 19 11.1737 19.1285 10.5601 19.7085C9.58688 20.6285 8.93189 21 7.7008 21C6.46971 21 5.81472 20.6285 4.84149 19.7085C4.22791 19.1285 4.00134 19 3.46932 19C2.36815 19 1.20943 19.5477 -0.0185926 20.7085ZM-0.0185926 24.7085L-1.50574 23.2915C0.0872242 21.7857 1.7495 21 3.46932 21C4.70041 21 5.3554 21.3715 6.32863 22.2915C6.9422 22.8715 7.16877 23 7.7008 23C8.23283 23 8.45939 22.8715 9.07297 22.2915C10.0462 21.3715 10.7012 21 11.9323 21C13.1634 21 13.8184 21.3715 14.7916 22.2915C15.4052 22.8715 15.6317 23 16.1638 23C16.6958 23 16.9224 22.8715 17.5359 22.2915C18.5092 21.3715 19.1642 21 20.3952 21C21.6263 21 22.2813 21.3715 23.2546 22.2915C23.8681 22.8715 24.0947 23 24.6267 23C25.1588 23 25.3853 22.8715 25.9989 22.2915C26.9721 21.3715 27.6271 21 28.8582 21C30.578 21 32.2403 21.7857 33.8333 23.2915L32.3461 24.7085C31.1181 23.5477 29.9594 23 28.8582 23C28.3262 23 28.0996 23.1285 27.486 23.7085C26.5128 24.6285 25.8578 25 24.6267 25C23.3956 25 22.7406 24.6285 21.7674 23.7085C21.1538 23.1285 20.9273 23 20.3952 23C19.8632 23 19.6366 23.1285 19.0231 23.7085C18.0498 24.6285 17.3949 25 16.1638 25C14.9327 25 14.2777 24.6285 13.3044 23.7085C12.6909 23.1285 12.4643 23 11.9323 23C11.4003 23 11.1737 23.1285 10.5601 23.7085C9.58688 24.6285 8.93189 25 7.7008 25C6.46971 25 5.81472 24.6285 4.84149 23.7085C4.22791 23.1285 4.00134 23 3.46932 23C2.36815 23 1.20943 23.5477 -0.0185926 24.7085Z" fill="#2E42A5"/>
<mask id="mask2" mask-type="alpha" maskUnits="userSpaceOnUse" x="0" y="0" width="14" height="10">
<rect width="14" height="10" fill="white"/>
</mask>
<g mask="url(#mask2)">
<rect width="14" height="12" fill="#2E42A5"/>
<path d="M-2.15784 11.3331L1.49843 12.8773L16.3906 1.45663L18.3192 -0.838067L14.4094 -1.35418L8.33519 3.56733L3.44611 6.88327L-2.15784 11.3331Z" fill="white"/>
<path d="M-1.65735 12.415L0.205348 13.3112L17.6266 -1.05126H15.0112L-1.65735 12.415Z" fill="#F50100"/>
<path d="M18.1577 11.3331L14.5015 12.8773L-0.390728 1.45663L-2.31932 -0.838067L1.59052 -1.35418L7.66469 3.56733L12.5538 6.88327L18.1577 11.3331Z" fill="white"/>
<path d="M18.033 12.1096L16.1703 13.0057L8.75211 6.85644L6.55279 6.1694L-2.5049 -0.830188H0.110548L9.16315 6.00326L11.5677 6.8271L18.033 12.1096Z" fill="#F50100"/>
<mask id="path-12-outside-1" maskUnits="userSpaceOnUse" x="-0.984619" y="-1" width="16" height="12" fill="black">
<rect fill="white" x="-0.984619" y="-1" width="16" height="12"/>
<path fill-rule="evenodd" clip-rule="evenodd" d="M7.99989 0H5.99989V4H0.0153809V6H5.99989V10H7.99989V6H14.0154V4H7.99989V0Z"/>
</mask>
<path fill-rule="evenodd" clip-rule="evenodd" d="M7.99989 0H5.99989V4H0.0153809V6H5.99989V10H7.99989V6H14.0154V4H7.99989V0Z" fill="#F50100"/>
<path d="M5.99989 0V-1H4.99989V0H5.99989ZM7.99989 0H8.99989V-1H7.99989V0ZM5.99989 4V5H6.99989V4H5.99989ZM0.0153809 4V3H-0.984619V4H0.0153809ZM0.0153809 6H-0.984619V7H0.0153809V6ZM5.99989 6H6.99989V5H5.99989V6ZM5.99989 10H4.99989V11H5.99989V10ZM7.99989 10V11H8.99989V10H7.99989ZM7.99989 6V5H6.99989V6H7.99989ZM14.0154 6V7H15.0154V6H14.0154ZM14.0154 4H15.0154V3H14.0154V4ZM7.99989 4H6.99989V5H7.99989V4ZM5.99989 1H7.99989V-1H5.99989V1ZM6.99989 4V0H4.99989V4H6.99989ZM0.0153809 5H5.99989V3H0.0153809V5ZM1.01538 6V4H-0.984619V6H1.01538ZM5.99989 5H0.0153809V7H5.99989V5ZM6.99989 10V6H4.99989V10H6.99989ZM7.99989 9H5.99989V11H7.99989V9ZM6.99989 6V10H8.99989V6H6.99989ZM14.0154 5H7.99989V7H14.0154V5ZM13.0154 4V6H15.0154V4H13.0154ZM7.99989 5H14.0154V3H7.99989V5ZM6.99989 0V4H8.99989V0H6.99989Z" fill="#F7FCFF" mask="url(#path-12-outside-1)"/>
</g>
<rect x="20.3999" y="9.37866" width="1" height="12.6214" rx="0.5" fill="#D86D00"/>
<mask id="path-15-outside-2" maskUnits="userSpaceOnUse" x="14.5125" y="0.0574951" width="12" height="12" fill="black">
<rect fill="white" x="14.5125" y="0.0574951" width="12" height="12"/>
<path fill-rule="evenodd" clip-rule="evenodd" d="M20.4043 2.0575C21.2315 3.192 21.5707 4.53268 21.6012 5.8967C22.5351 4.6312 24.0928 3.5974 24.8212 3.1553C24.1528 3.62274 23.8056 4.31572 23.415 5.09549C23.2233 5.47816 23.0211 5.88174 22.7654 6.28982C24.357 5.71805 25.9379 5.57125 25.9379 5.57125C24.8773 5.8722 23.8989 6.48665 22.9483 7.0837L22.9483 7.08371L22.9482 7.08376L22.9481 7.08382L22.948 7.0839C22.6012 7.30169 22.2581 7.51717 21.916 7.71427C24.9878 8.87125 25.4603 10.5444 25.4603 10.5444C25.0838 10.212 24.2714 9.85632 22.7372 9.1846L22.7369 9.18445C22.443 9.05578 22.1227 8.91552 21.7738 8.7616C22.0029 9.60532 22.2809 10.2653 22.5462 10.8954L22.6251 11.0831C22.6251 11.0831 20.4995 10.5092 20.0957 8.86129C18.9033 9.81889 17.6148 10.364 17.0104 10.5799C17.0104 10.5799 18.4497 9.01751 19.5067 7.98065C18.1188 7.82421 15.5125 7.69612 15.5125 7.69612L15.6977 7.65206C16.7457 7.40236 18.3672 7.01605 19.853 7.03627C18.2596 6.14345 17.2798 4.93485 16.9787 4.52867C17.2323 4.75286 17.9387 5.03355 18.9026 5.41656C19.3094 5.57821 19.762 5.75809 20.2459 5.95963C20.338 4.27569 20.4043 2.0575 20.4043 2.0575ZM16.8792 4.38902C16.8892 4.43318 16.9231 4.47957 16.9787 4.52867C16.9126 4.43951 16.8792 4.38902 16.8792 4.38902ZM25.2195 2.92371C25.0747 2.99291 24.9426 3.07039 24.8212 3.1553C25.0679 3.00557 25.2195 2.92371 25.2195 2.92371ZM20.6896 7.01627C20.7515 6.98879 20.8201 6.97353 20.8922 6.97353C20.9301 6.97353 20.967 6.97774 21.0025 6.98574C21.0129 6.95619 21.0238 6.9267 21.0352 6.89728L20.704 6.92008L20.6896 7.01627Z"/>
</mask>
<path fill-rule="evenodd" clip-rule="evenodd" d="M20.4043 2.0575C21.2315 3.192 21.5707 4.53268 21.6012 5.8967C22.5351 4.6312 24.0928 3.5974 24.8212 3.1553C24.1528 3.62274 23.8056 4.31572 23.415 5.09549C23.2233 5.47816 23.0211 5.88174 22.7654 6.28982C24.357 5.71805 25.9379 5.57125 25.9379 5.57125C24.8773 5.8722 23.8989 6.48665 22.9483 7.0837L22.9483 7.08371L22.9482 7.08376L22.9481 7.08382L22.948 7.0839C22.6012 7.30169 22.2581 7.51717 21.916 7.71427C24.9878 8.87125 25.4603 10.5444 25.4603 10.5444C25.0838 10.212 24.2714 9.85632 22.7372 9.1846L22.7369 9.18445C22.443 9.05578 22.1227 8.91552 21.7738 8.7616C22.0029 9.60532 22.2809 10.2653 22.5462 10.8954L22.6251 11.0831C22.6251 11.0831 20.4995 10.5092 20.0957 8.86129C18.9033 9.81889 17.6148 10.364 17.0104 10.5799C17.0104 10.5799 18.4497 9.01751 19.5067 7.98065C18.1188 7.82421 15.5125 7.69612 15.5125 7.69612L15.6977 7.65206C16.7457 7.40236 18.3672 7.01605 19.853 7.03627C18.2596 6.14345 17.2798 4.93485 16.9787 4.52867C17.2323 4.75286 17.9387 5.03355 18.9026 5.41656C19.3094 5.57821 19.762 5.75809 20.2459 5.95963C20.338 4.27569 20.4043 2.0575 20.4043 2.0575ZM16.8792 4.38902C16.8892 4.43318 16.9231 4.47957 16.9787 4.52867C16.9126 4.43951 16.8792 4.38902 16.8792 4.38902ZM25.2195 2.92371C25.0747 2.99291 24.9426 3.07039 24.8212 3.1553C25.0679 3.00557 25.2195 2.92371 25.2195 2.92371ZM20.6896 7.01627C20.7515 6.98879 20.8201 6.97353 20.8922 6.97353C20.9301 6.97353 20.967 6.97774 21.0025 6.98574C21.0129 6.95619 21.0238 6.9267 21.0352 6.89728L20.704 6.92008L20.6896 7.01627Z" fill="#449A01"/>
<path d="M21.6012 5.8967L21.2513 5.90451L21.2742 6.92931L21.8828 6.10452L21.6012 5.8967ZM20.4043 2.0575L20.6871 1.85128L20.0849 1.02554L20.0544 2.04704L20.4043 2.0575ZM23.415 5.09549L23.1021 4.93872V4.93872L23.415 5.09549ZM22.7654 6.28982L22.4688 6.10395L21.9315 6.96129L22.8837 6.61921L22.7654 6.28982ZM25.9379 5.57125L26.0334 5.90796L25.9055 5.22275L25.9379 5.57125ZM22.9483 7.0837L22.7621 6.78731L22.7547 6.79196L22.7476 6.79697L22.9483 7.0837ZM22.9483 7.08371L23.1358 7.37923L23.1425 7.37498L23.149 7.37044L22.9483 7.08371ZM22.9482 7.08376L23.1356 7.37938L23.1357 7.37927L22.9482 7.08376ZM22.9481 7.08382L23.1339 7.38042L23.1355 7.37945L22.9481 7.08382ZM22.948 7.0839L22.7621 6.7873L22.7618 6.7875L22.948 7.0839ZM21.916 7.71427L21.7413 7.411L21.0995 7.78075L21.7926 8.0418L21.916 7.71427ZM25.4603 10.5444L25.2287 10.8068L26.1205 11.594L25.7972 10.4493L25.4603 10.5444ZM22.7372 9.1846L22.8776 8.86398L22.8774 8.86389L22.7372 9.1846ZM22.7369 9.18445L22.5965 9.50507L22.5967 9.50516L22.7369 9.18445ZM21.7738 8.7616L21.9151 8.44139L21.2438 8.14517L21.4361 8.85332L21.7738 8.7616ZM22.5462 10.8954L22.8688 10.7598L22.8687 10.7596L22.5462 10.8954ZM22.6251 11.0831L22.5338 11.421L23.2253 11.6077L22.9477 10.9475L22.6251 11.0831ZM20.0957 8.86129L20.4356 8.778L20.3049 8.2444L19.8765 8.5884L20.0957 8.86129ZM17.0104 10.5799L16.753 10.3428L17.1282 10.9095L17.0104 10.5799ZM19.5067 7.98065L19.7518 8.23051L20.277 7.71527L19.5459 7.63286L19.5067 7.98065ZM15.5125 7.69612L15.4315 7.35562L15.4953 8.0457L15.5125 7.69612ZM15.6977 7.65206L15.7787 7.99256L15.7789 7.99253L15.6977 7.65206ZM19.853 7.03627L19.8483 7.38624L20.0241 6.73094L19.853 7.03627ZM18.9026 5.41656L19.0318 5.0913H19.0318L18.9026 5.41656ZM20.2459 5.95963L20.1113 6.28272L20.5683 6.47309L20.5953 5.97874L20.2459 5.95963ZM16.8792 4.38902L17.1711 4.19595L16.5379 4.4669L16.8792 4.38902ZM25.2195 2.92371L25.3858 3.23168L25.0686 2.60791L25.2195 2.92371ZM20.6896 7.01627L20.3434 6.9646L20.2494 7.59452L20.8316 7.33619L20.6896 7.01627ZM21.0025 6.98574L20.9256 7.32719L21.2293 7.39557L21.3326 7.10199L21.0025 6.98574ZM21.0352 6.89728L21.3617 7.02324L21.5595 6.51034L21.0111 6.5481L21.0352 6.89728ZM20.704 6.92008L20.6799 6.57091L20.3993 6.59023L20.3578 6.86841L20.704 6.92008ZM21.9511 5.88888C21.9195 4.47307 21.5667 3.05758 20.6871 1.85128L20.1215 2.26371C20.8964 3.32641 21.222 4.59229 21.2513 5.90451L21.9511 5.88888ZM24.6396 2.8561C23.9066 3.30101 22.297 4.3643 21.3196 5.68887L21.8828 6.10452C22.7731 4.89811 24.279 3.8938 25.0028 3.45451L24.6396 2.8561ZM23.7279 5.25225C24.126 4.45757 24.4381 3.85032 25.0218 3.44213L24.6206 2.86848C23.8675 3.39516 23.4852 4.17387 23.1021 4.93872L23.7279 5.25225ZM23.062 6.47569C23.3279 6.05139 23.537 5.63335 23.7279 5.25225L23.1021 4.93872C22.9096 5.32298 22.7144 5.71209 22.4688 6.10395L23.062 6.47569ZM25.9379 5.57125C25.9055 5.22275 25.9055 5.22276 25.9054 5.22276C25.9054 5.22276 25.9053 5.22277 25.9053 5.22277C25.9052 5.22278 25.905 5.2228 25.9049 5.22281C25.9046 5.22284 25.9042 5.22288 25.9037 5.22293C25.9027 5.22302 25.9013 5.22316 25.8995 5.22333C25.896 5.22367 25.8909 5.22417 25.8844 5.22483C25.8714 5.22615 25.8526 5.22812 25.8283 5.2308C25.7798 5.23617 25.7095 5.24442 25.6205 5.25609C25.4425 5.27943 25.1894 5.31651 24.8858 5.37178C24.28 5.48207 23.4668 5.66594 22.6471 5.96043L22.8837 6.61921C23.6555 6.34193 24.4286 6.16652 25.0112 6.06046C25.3018 6.00756 25.5433 5.97221 25.7115 5.95015C25.7956 5.93913 25.8612 5.93144 25.9054 5.92655C25.9275 5.92411 25.9442 5.92236 25.9551 5.92125C25.9606 5.9207 25.9646 5.9203 25.9671 5.92005C25.9684 5.91993 25.9693 5.91984 25.9698 5.91979C25.9701 5.91977 25.9703 5.91975 25.9703 5.91975C25.9704 5.91974 25.9704 5.91974 25.9704 5.91974C25.9704 5.91974 25.9703 5.91975 25.9703 5.91975C25.9703 5.91975 25.9703 5.91975 25.9379 5.57125ZM23.1344 7.3801C24.0937 6.77761 25.0296 6.19282 26.0334 5.90796L25.8424 5.23454C24.7251 5.55158 23.7041 6.19569 22.7621 6.78731L23.1344 7.3801ZM23.149 7.37044L23.149 7.37043L22.7476 6.79697L22.7476 6.79698L23.149 7.37044ZM23.1357 7.37927L23.1358 7.37923L22.7607 6.7882L22.7607 6.78824L23.1357 7.37927ZM23.1355 7.37945L23.1356 7.37938L22.7608 6.78813L22.7607 6.7882L23.1355 7.37945ZM23.1338 7.3805L23.1339 7.38042L22.7623 6.78722L22.7621 6.7873L23.1338 7.3805ZM22.0907 8.01753C22.4396 7.81653 22.7884 7.59742 23.1341 7.38029L22.7618 6.7875C22.414 7.00597 22.0766 7.21781 21.7413 7.411L22.0907 8.01753ZM25.4603 10.5444C25.7972 10.4493 25.7971 10.4491 25.797 10.4488C25.797 10.4487 25.7969 10.4484 25.7968 10.4482C25.7967 10.4478 25.7966 10.4474 25.7965 10.447C25.7962 10.4461 25.796 10.4451 25.7956 10.4441C25.795 10.4419 25.7942 10.4394 25.7933 10.4364C25.7915 10.4305 25.7891 10.423 25.7861 10.4139C25.78 10.3958 25.7714 10.3717 25.7596 10.342C25.7362 10.2825 25.7004 10.2009 25.648 10.1016C25.5432 9.90279 25.3721 9.63388 25.1013 9.33024C24.5583 8.7215 23.6234 7.98336 22.0394 7.38673L21.7926 8.0418C23.2804 8.60216 24.1176 9.2791 24.5789 9.7962C24.8102 10.0555 24.9492 10.2772 25.0289 10.4282C25.0688 10.5039 25.094 10.562 25.1084 10.5986C25.1156 10.6169 25.1201 10.6298 25.1225 10.6368C25.1237 10.6403 25.1243 10.6423 25.1244 10.6428C25.1245 10.6431 25.1245 10.6429 25.1243 10.6424C25.1242 10.6421 25.1241 10.6417 25.124 10.6413C25.1239 10.641 25.1238 10.6408 25.1238 10.6405C25.1237 10.6404 25.1237 10.6401 25.1236 10.6401C25.1236 10.6398 25.1235 10.6396 25.4603 10.5444ZM22.5969 9.50521C23.3666 9.84224 23.9458 10.0959 24.3801 10.3066C24.8204 10.5203 25.0793 10.6749 25.2287 10.8068L25.692 10.282C25.4648 10.0815 25.1292 9.89211 24.6857 9.67687C24.2361 9.45873 23.642 9.19868 22.8776 8.86398L22.5969 9.50521ZM22.5967 9.50516L22.5971 9.50531L22.8774 8.86389L22.8771 8.86374L22.5967 9.50516ZM21.6326 9.08182C21.9819 9.23596 22.3027 9.37641 22.5965 9.50507L22.8773 8.86384C22.5834 8.73515 22.2635 8.59508 21.9151 8.44139L21.6326 9.08182ZM22.8687 10.7596C22.6034 10.1294 22.3339 9.48866 22.1116 8.66989L21.4361 8.85332C21.672 9.72198 21.9583 10.4012 22.2236 11.0313L22.8687 10.7596ZM22.9477 10.9475L22.8688 10.7598L22.2235 11.0311L22.3024 11.2188L22.9477 10.9475ZM19.7558 8.94459C19.9901 9.90081 20.716 10.5205 21.3316 10.8902C21.6439 11.0778 21.9413 11.2094 22.1603 11.2941C22.2702 11.3366 22.3613 11.3678 22.426 11.3885C22.4583 11.3989 22.4841 11.4067 22.5024 11.4121C22.5115 11.4148 22.5188 11.4168 22.5241 11.4183C22.5267 11.4191 22.5289 11.4197 22.5305 11.4201C22.5313 11.4203 22.532 11.4205 22.5326 11.4207C22.5328 11.4208 22.5331 11.4208 22.5333 11.4209C22.5334 11.4209 22.5335 11.421 22.5336 11.421C22.5337 11.421 22.5338 11.421 22.6251 11.0831C22.7163 10.7452 22.7164 10.7453 22.7165 10.7453C22.7165 10.7453 22.7166 10.7453 22.7167 10.7453C22.7168 10.7454 22.7168 10.7454 22.7168 10.7454C22.7169 10.7454 22.7168 10.7454 22.7166 10.7453C22.7162 10.7452 22.7153 10.7449 22.7139 10.7445C22.7111 10.7438 22.7064 10.7424 22.6998 10.7405C22.6868 10.7367 22.6665 10.7305 22.6399 10.722C22.5868 10.7049 22.5087 10.6783 22.413 10.6413C22.2209 10.567 21.9616 10.452 21.692 10.2901C21.1439 9.96093 20.6051 9.46969 20.4356 8.778L19.7558 8.94459ZM17.1282 10.9095C17.7536 10.6861 19.0813 10.1249 20.3148 9.13419L19.8765 8.5884C18.7253 9.51294 17.4761 10.0419 16.8926 10.2503L17.1282 10.9095ZM19.2616 7.73079C18.7283 8.25394 18.1006 8.90759 17.6079 9.42864C17.3611 9.68954 17.1475 9.91793 16.9956 10.0811C16.9196 10.1627 16.8591 10.2281 16.8174 10.273C16.7966 10.2955 16.7806 10.3129 16.7697 10.3247C16.7642 10.3306 16.7601 10.3351 16.7573 10.3381C16.7559 10.3397 16.7548 10.3408 16.7541 10.3416C16.7537 10.342 16.7534 10.3423 16.7533 10.3425C16.7532 10.3426 16.7531 10.3427 16.753 10.3427C16.753 10.3427 16.753 10.3428 16.753 10.3428C16.753 10.3428 16.753 10.3428 17.0104 10.5799C17.2678 10.8171 17.2678 10.8171 17.2678 10.8171C17.2678 10.8171 17.2678 10.817 17.2679 10.817C17.2679 10.817 17.268 10.8169 17.268 10.8168C17.2682 10.8166 17.2685 10.8164 17.2688 10.816C17.2695 10.8153 17.2705 10.8142 17.2718 10.8127C17.2746 10.8098 17.2786 10.8054 17.284 10.7996C17.2947 10.788 17.3105 10.7708 17.3312 10.7485C17.3724 10.704 17.4325 10.6392 17.508 10.5581C17.6589 10.3959 17.8712 10.1689 18.1165 9.9096C18.6076 9.39022 19.2281 8.74423 19.7518 8.23051L19.2616 7.73079ZM15.5125 7.69612C15.4953 8.0457 15.4953 8.0457 15.4953 8.0457C15.4953 8.0457 15.4953 8.0457 15.4954 8.0457C15.4954 8.04571 15.4956 8.04571 15.4957 8.04572C15.496 8.04573 15.4965 8.04576 15.4971 8.04579C15.4983 8.04585 15.5001 8.04594 15.5026 8.04606C15.5075 8.04631 15.5148 8.04667 15.5245 8.04716C15.5438 8.04813 15.5723 8.04957 15.6092 8.05147C15.6828 8.05526 15.7897 8.06086 15.9224 8.06806C16.1877 8.08248 16.5559 8.10332 16.9673 8.12904C17.7922 8.18061 18.783 8.2513 19.4675 8.32845L19.5459 7.63286C18.8424 7.55356 17.8361 7.48199 17.0109 7.4304C16.5972 7.40454 16.2271 7.38358 15.9604 7.36909C15.827 7.36185 15.7194 7.35622 15.6451 7.35239C15.608 7.35048 15.5792 7.34902 15.5596 7.34804C15.5498 7.34755 15.5424 7.34717 15.5373 7.34692C15.5348 7.3468 15.5329 7.3467 15.5316 7.34664C15.531 7.34661 15.5305 7.34658 15.5302 7.34657C15.53 7.34656 15.5299 7.34655 15.5298 7.34655C15.5297 7.34655 15.5297 7.34655 15.5297 7.34654C15.5296 7.34654 15.5296 7.34654 15.5125 7.69612ZM15.6168 7.31155L15.4315 7.35562L15.5934 8.03663L15.7787 7.99256L15.6168 7.31155ZM19.8578 6.6863C18.3212 6.66539 16.6576 7.06357 15.6166 7.31159L15.7789 7.99253C16.8339 7.74116 18.4131 7.36671 19.8483 7.38624L19.8578 6.6863ZM16.6975 4.73711C17.0138 5.16376 18.0285 6.41516 19.6819 7.34161L20.0241 6.73094C18.4907 5.87174 17.5458 4.70593 17.2598 4.32024L16.6975 4.73711ZM19.0318 5.0913C18.5475 4.89886 18.1374 4.73581 17.8164 4.5932C17.4824 4.4448 17.2911 4.33771 17.2104 4.26641L16.7469 4.79094C16.9199 4.94382 17.2087 5.08917 17.5322 5.23291C17.8688 5.38245 18.2937 5.55125 18.7733 5.74182L19.0318 5.0913ZM20.3804 5.63654C19.8936 5.43374 19.4384 5.25286 19.0318 5.0913L18.7733 5.74182C19.1803 5.90356 19.6305 6.08244 20.1113 6.28272L20.3804 5.63654ZM20.4043 2.0575C20.0544 2.04704 20.0544 2.04704 20.0544 2.04706C20.0544 2.04707 20.0544 2.0471 20.0544 2.04713C20.0544 2.04719 20.0544 2.04729 20.0544 2.04742C20.0544 2.04768 20.0544 2.04807 20.0544 2.0486C20.0543 2.04966 20.0543 2.05124 20.0542 2.05335C20.0541 2.05756 20.0539 2.06386 20.0537 2.07215C20.0531 2.08873 20.0524 2.1133 20.0514 2.14519C20.0494 2.20898 20.0465 2.30203 20.0426 2.41897C20.035 2.65287 20.0239 2.98228 20.0098 3.36424C19.9818 4.12858 19.9423 5.10167 19.8964 5.94052L20.5953 5.97874C20.6416 5.13365 20.6812 4.15567 20.7094 3.38992C20.7234 3.00684 20.7346 2.67647 20.7423 2.44183C20.7461 2.3245 20.7491 2.2311 20.7511 2.167C20.7521 2.13495 20.7528 2.11022 20.7533 2.09349C20.7536 2.08512 20.7538 2.07875 20.7539 2.07447C20.754 2.07233 20.754 2.07071 20.754 2.06962C20.7541 2.06907 20.7541 2.06866 20.7541 2.06838C20.7541 2.06824 20.7541 2.06814 20.7541 2.06807C20.7541 2.06803 20.7541 2.068 20.7541 2.06798C20.7541 2.06796 20.7541 2.06795 20.4043 2.0575ZM16.5379 4.4669C16.5724 4.61806 16.6723 4.725 16.7469 4.79094L17.2104 4.26641C17.1962 4.25383 17.1935 4.2492 17.1963 4.2531C17.1991 4.25696 17.2125 4.27658 17.2204 4.31113L16.5379 4.4669ZM17.2598 4.32024C17.2288 4.27839 17.2058 4.24613 17.191 4.22492C17.1836 4.21432 17.1782 4.20648 17.1749 4.20159C17.1732 4.19914 17.1721 4.19743 17.1715 4.19649C17.1711 4.19601 17.171 4.19573 17.1709 4.19564C17.1709 4.1956 17.1709 4.1956 17.1709 4.19565C17.1709 4.19568 17.1709 4.19571 17.171 4.19577C17.171 4.19579 17.171 4.19582 17.171 4.19585C17.171 4.19587 17.1711 4.19588 17.1711 4.1959C17.1711 4.19591 17.1711 4.19592 17.1711 4.19592C17.1711 4.19594 17.1711 4.19595 16.8792 4.38902C16.5872 4.58208 16.5872 4.58209 16.5872 4.58211C16.5873 4.58211 16.5873 4.58213 16.5873 4.58214C16.5873 4.58216 16.5873 4.58218 16.5873 4.5822C16.5873 4.58224 16.5874 4.58229 16.5874 4.58234C16.5875 4.58244 16.5875 4.58255 16.5876 4.58268C16.5878 4.58292 16.588 4.58322 16.5882 4.58357C16.5887 4.58426 16.5893 4.58515 16.59 4.58623C16.5914 4.5884 16.5934 4.59133 16.5959 4.59501C16.6009 4.60238 16.608 4.61273 16.6172 4.6259C16.6356 4.65222 16.6624 4.68979 16.6975 4.73711L17.2598 4.32024ZM25.0686 2.60791C24.9066 2.68532 24.7579 2.77247 24.6206 2.86848L25.0218 3.44213C25.1274 3.36831 25.2428 3.3005 25.3704 3.23952L25.0686 2.60791ZM25.0028 3.45451C25.1232 3.38145 25.22 3.32517 25.2862 3.28743C25.3193 3.26856 25.3447 3.25433 25.3616 3.24496C25.3701 3.24028 25.3764 3.23681 25.3805 3.23459C25.3825 3.23347 25.384 3.23267 25.3849 3.23219C25.3853 3.23194 25.3856 3.23178 25.3858 3.23169C25.3859 3.23165 25.3859 3.23163 25.3859 3.23163C25.3859 3.23162 25.3859 3.23163 25.3859 3.23164C25.3859 3.23164 25.3859 3.23165 25.3859 3.23165C25.3858 3.23166 25.3858 3.23166 25.3858 3.23166C25.3858 3.23167 25.3858 3.23168 25.2195 2.92371C25.0532 2.61575 25.0532 2.61576 25.0532 2.61577C25.0532 2.61577 25.0531 2.61578 25.0531 2.61578C25.0531 2.61579 25.0531 2.61581 25.0531 2.61582C25.053 2.61585 25.0529 2.61588 25.0529 2.61592C25.0527 2.616 25.0526 2.61609 25.0523 2.61621C25.0519 2.61644 25.0513 2.61676 25.0506 2.61715C25.0492 2.61794 25.0471 2.61904 25.0445 2.62046C25.0393 2.6233 25.0319 2.6274 25.0223 2.63273C25.003 2.64339 24.9752 2.65898 24.9395 2.67929C24.8683 2.71991 24.7659 2.77943 24.6396 2.8561L25.0028 3.45451ZM20.8922 6.62353C20.7702 6.62353 20.6534 6.64943 20.5476 6.69636L20.8316 7.33619C20.8496 7.32816 20.8699 7.32353 20.8922 7.32353V6.62353ZM21.0794 6.64429C21.0189 6.63065 20.9561 6.62353 20.8922 6.62353V7.32353C20.9041 7.32353 20.9152 7.32484 20.9256 7.32719L21.0794 6.64429ZM21.3326 7.10199C21.3419 7.07575 21.3516 7.0495 21.3617 7.02324L20.7086 6.77132C20.696 6.8039 20.684 6.83662 20.6724 6.86949L21.3326 7.10199ZM21.0111 6.5481L20.6799 6.57091L20.728 7.26926L21.0592 7.24645L21.0111 6.5481ZM20.3578 6.86841L20.3434 6.9646L21.0358 7.06795L21.0501 6.97176L20.3578 6.86841Z" fill="white" mask="url(#path-15-outside-2)"/>
<path fill-rule="evenodd" clip-rule="evenodd" d="M24.2851 15.8188V15.6384C23.7584 15.1835 23.2068 14.956 22.6304 14.956C22.0778 14.6617 21.5184 14.5474 20.9523 14.6133C20.9525 14.6112 20.9526 14.6101 20.9526 14.6101C20.1014 14.5099 19.2436 14.956 19.2436 14.956C18.3789 14.956 17.5889 15.6384 17.5889 15.6384V15.8188L18.6217 17.0672C18.6217 17.0672 18.9124 18.2687 20.9484 17.9863V17.9894C20.9484 17.9894 22.2963 17.9451 22.391 17.9072C22.4286 17.8921 22.4676 17.8784 22.5074 17.8644C22.7715 17.7717 23.0729 17.6658 23.2523 17.0672L24.2851 15.8188ZM20.9484 14.6685C20.919 15.0841 20.7511 17.5894 20.9484 17.9779V14.6685Z" fill="#F50100"/>
<path fill-rule="evenodd" clip-rule="evenodd" d="M19.2662 14.4166C19.376 14.0114 19.5683 13.8742 20.0366 13.8742C20.3274 13.8742 20.5469 13.9557 20.6997 14.1154V15.1984H20.7815V15.3267C20.7165 15.3743 20.6833 15.4781 20.7047 15.5886C20.7121 15.6264 20.7251 15.6611 20.7422 15.6912C20.7078 15.6788 20.6689 15.6718 20.6279 15.6718C20.4865 15.6718 20.3719 15.7546 20.3719 15.8566C20.3719 15.9587 20.4865 16.0415 20.6279 16.0415C20.7692 16.0415 20.8839 15.9587 20.8839 15.8566C20.8839 15.9081 20.9129 15.9546 20.9599 15.9881H20.8342H20.8309C20.8309 16.2665 20.7127 16.444 20.5358 16.444C20.4122 16.444 20.3252 16.376 20.2621 16.2261L20.0871 15.81L20.0685 16.2758C20.062 16.4401 20.0026 16.5053 19.8549 16.5053C19.7115 16.5053 19.6085 16.3988 19.5389 16.1587C19.5596 16.1626 19.5814 16.1647 19.6039 16.1647C19.7452 16.1647 19.8599 16.082 19.8599 15.9799C19.8599 15.8778 19.7452 15.795 19.6039 15.795C19.5756 15.795 19.5484 15.7983 19.5229 15.8044C19.539 15.7569 19.5431 15.7 19.5317 15.6413C19.5047 15.5025 19.4016 15.4058 19.3014 15.4252C19.2011 15.4447 19.1418 15.573 19.1687 15.7118C19.1761 15.7497 19.1891 15.7844 19.2062 15.8144C19.1718 15.802 19.1329 15.795 19.0919 15.795C18.9505 15.795 18.8359 15.8778 18.8359 15.9799C18.8359 16.082 18.9505 16.1647 19.0919 16.1647C19.2065 16.1647 19.3035 16.1103 19.3361 16.0354L19.3281 16.1441C19.3053 16.4508 19.2358 16.5948 19.1329 16.6149C18.9926 16.6424 18.8862 16.6294 18.8118 16.581L18.6607 16.4825V16.65C18.6132 16.6561 18.5317 16.6453 18.4201 16.6162L18.4027 16.7127L18.2148 16.5C18.2717 16.5082 18.3385 16.4965 18.4014 16.4631C18.5263 16.3967 18.5886 16.2698 18.5407 16.1797C18.4928 16.0895 18.3527 16.0703 18.2279 16.1366C18.2017 16.1506 18.1782 16.1671 18.158 16.1855C18.1556 16.1653 18.1513 16.1446 18.145 16.1239C18.1037 15.9887 17.991 15.9033 17.8934 15.9332C17.8497 15.9465 17.8164 15.9807 17.7966 16.0266L17.7209 15.9408L17.6507 16.0305L17.7791 16.1759C17.7816 16.1944 17.7857 16.2132 17.7914 16.232C17.8271 16.3488 17.916 16.4284 18.0024 16.4287L18.3773 16.8532L18.3766 16.857L18.3818 16.8584L18.5899 17.094C18.6204 17.1615 18.6475 17.2239 18.6712 17.2811C18.6965 17.4033 18.7345 17.5389 18.7886 17.6217C18.7935 17.6457 18.796 17.6657 18.796 17.6814C18.796 17.8085 19.0706 17.8839 19.6066 17.9613C20.0266 18.022 20.5221 18.0628 20.9275 18.0688V18.0696L20.9789 18.0694L21.0303 18.0696V18.0688C21.4356 18.0628 21.9312 18.022 22.3511 17.9613C22.8871 17.8839 23.1618 17.8085 23.1618 17.6814C23.1618 17.5982 23.2308 17.3977 23.3678 17.094L24.3071 16.0305L24.2369 15.9408L24.0029 16.2057L24.0066 16.1943C24.0479 16.0591 24.0023 15.9253 23.9047 15.8954C23.807 15.8656 23.6944 15.951 23.653 16.0862C23.6467 16.1069 23.6424 16.1275 23.64 16.1478C23.6198 16.1294 23.5963 16.1128 23.5701 16.0989C23.4453 16.0325 23.3053 16.0518 23.2573 16.1419C23.2094 16.232 23.2717 16.3589 23.3966 16.4253C23.5214 16.4917 23.6615 16.4724 23.7094 16.3823C23.7122 16.3771 23.7146 16.3718 23.7166 16.3663C23.7283 16.3745 23.7411 16.3808 23.755 16.385C23.7853 16.3943 23.817 16.3925 23.8477 16.3815L23.4821 16.7954L23.4497 16.6162C23.3382 16.6453 23.2567 16.6561 23.2092 16.65V16.4825L23.058 16.581C22.9837 16.6294 22.8772 16.6424 22.737 16.6149C22.634 16.5948 22.5645 16.4508 22.5418 16.1441L22.54 16.1197C22.5752 16.1407 22.6175 16.1559 22.664 16.1624C22.804 16.1821 22.9291 16.1161 22.9433 16.015C22.9575 15.9139 22.8555 15.816 22.7155 15.7963C22.6833 15.7918 22.6519 15.7918 22.6224 15.7957C22.6479 15.7495 22.6616 15.6904 22.6583 15.6268C22.6509 15.4856 22.5622 15.3755 22.4603 15.3808C22.3583 15.3862 22.2817 15.505 22.2891 15.6462C22.2908 15.6794 22.297 15.7109 22.3069 15.7396C22.2774 15.7257 22.2442 15.7156 22.2085 15.7106C22.0685 15.6909 21.9434 15.7569 21.9292 15.858C21.915 15.9591 22.017 16.057 22.157 16.0767C22.2364 16.0878 22.3109 16.0714 22.3632 16.0367L22.342 16.1183C22.2724 16.3869 22.1662 16.5053 22.015 16.5053C21.8673 16.5053 21.8079 16.4401 21.8014 16.2758L21.7828 15.81L21.6077 16.2261C21.5446 16.376 21.4577 16.444 21.334 16.444C21.1655 16.444 21.0503 16.2829 21.0398 16.0268C21.0705 16.0363 21.1043 16.0415 21.1399 16.0415C21.2812 16.0415 21.3959 15.9587 21.3959 15.8566C21.3959 15.7546 21.2812 15.6718 21.1399 15.6718C21.1116 15.6718 21.0844 15.6751 21.0589 15.6812C21.075 15.6337 21.0791 15.5768 21.0677 15.518C21.0564 15.4603 21.0321 15.4099 21.0002 15.372H21.1911V15.2174V14.1345C21.3439 13.9747 21.5634 13.8932 21.8542 13.8932C22.3224 13.8932 22.5147 14.0304 22.6246 14.4357C22.6946 14.6939 22.6267 14.9143 22.4065 15.1201L22.5321 15.3148C22.7781 15.0849 22.8866 14.8105 22.8485 14.5064C23.3753 14.4854 23.7689 14.553 24.0274 14.7048C24.2526 14.8371 24.2937 15.1727 24.1234 15.7565L24.3166 15.8381C24.5171 15.1512 24.4598 14.6846 24.1173 14.4834C23.8154 14.306 23.3755 14.2338 22.7953 14.2621L22.7959 14.2799C22.6494 13.8226 22.3754 13.6467 21.8542 13.6467C21.5895 13.6467 21.3677 13.7081 21.1911 13.8326V13.77H20.7815V13.8785C20.5933 13.7105 20.3439 13.6277 20.0366 13.6277C19.526 13.6277 19.2527 13.7964 19.104 14.2331L19.1072 14.1389C18.527 14.1106 18.0871 14.1828 17.7852 14.3601C17.4426 14.5614 17.3854 15.0279 17.5858 15.7149L17.7791 15.6332C17.6087 15.0495 17.6499 14.7139 17.875 14.5816C18.1347 14.4291 18.5306 14.3616 19.0607 14.3835C18.9814 14.7291 19.085 15.04 19.3586 15.2957L19.4842 15.101C19.2641 14.8953 19.1962 14.6749 19.2662 14.4166ZM20.8839 15.8566C20.8839 15.8392 20.8872 15.8222 20.8935 15.8062C20.8865 15.8054 20.8795 15.8041 20.8726 15.8023C20.8799 15.8195 20.8839 15.8377 20.8839 15.8566ZM19.3429 15.9436C19.3412 15.9375 19.3391 15.9314 19.3366 15.9255L19.3441 15.9273L19.3429 15.9436ZM23.4102 16.8768C23.2424 16.9126 23.1213 16.909 23.0571 16.846C22.9566 16.8812 22.8387 16.8846 22.7041 16.8582C22.5603 16.8301 22.4602 16.715 22.4 16.5241C22.3214 16.6447 22.2219 16.7191 22.1028 16.7432C22.7581 16.855 23.2171 17.0122 23.2171 17.0122C23.2171 17.0122 23.2058 17.129 23.1783 17.2663C23.2074 17.1944 23.2419 17.1146 23.2818 17.0264L23.2917 17.011L23.4102 16.8768ZM21.7936 16.6963C21.7366 16.6622 21.6911 16.6128 21.6582 16.5491C21.6093 16.6011 21.5538 16.639 21.492 16.6625C21.5951 16.672 21.6958 16.6834 21.7936 16.6963ZM21.1305 16.6385C21.0508 16.5941 20.9845 16.5231 20.9349 16.4321C20.8858 16.5225 20.82 16.5931 20.741 16.6375C20.7878 16.6359 20.8349 16.6347 20.8822 16.6341V16.6335L20.9233 16.6336L20.9643 16.6335V16.6341C21.0201 16.6348 21.0755 16.6363 21.1305 16.6385ZM18.6586 17.0026L18.5632 16.8945C18.6778 16.9081 18.7626 16.8952 18.8128 16.846C18.9133 16.8812 19.0312 16.8846 19.1658 16.8582C19.3095 16.8301 19.4096 16.715 19.4699 16.5241C19.5462 16.6412 19.6422 16.7147 19.7568 16.7409C19.1918 16.8365 18.7703 16.9664 18.6586 17.0026ZM20.3734 16.6608C20.2742 16.6696 20.177 16.6804 20.0826 16.6925C20.1366 16.6586 20.18 16.6105 20.2117 16.5491C20.2594 16.5998 20.3134 16.6372 20.3734 16.6608ZM22.8925 17.6839C22.9643 17.7243 23.0218 17.684 23.0673 17.6066C23.0633 17.628 23.0609 17.6473 23.0599 17.6646C23.0539 17.6693 23.0447 17.675 23.0326 17.6811C22.9989 17.6982 22.9473 17.7164 22.8803 17.7348C22.7486 17.7709 22.5611 17.8069 22.3389 17.839C21.905 17.9017 21.3891 17.9429 20.9789 17.9462C20.5687 17.9429 20.0527 17.9017 19.6188 17.839C19.3966 17.8069 19.2091 17.7709 19.0774 17.7348C19.0213 17.7193 18.976 17.7041 18.9429 17.6895C18.9466 17.6878 18.9502 17.686 18.954 17.6839C19.1777 17.5579 20.6569 17.4397 20.9233 17.4193C21.1896 17.4397 22.6689 17.5579 22.8925 17.6839ZM23.1899 17.6613C23.1895 17.6616 23.189 17.6622 23.1884 17.6631L23.1892 17.6619L23.1899 17.6613Z" fill="#FECA00"/>
<path d="M19.1327 14.0383L19.1309 14.1615C18.223 14.1425 17.7021 14.3019 17.5699 14.6197C17.4332 14.9483 17.4587 15.3478 17.6502 15.8223L17.5581 15.8761C17.3537 15.3699 17.3258 14.9313 17.4784 14.5646C17.6354 14.1871 18.1863 14.0184 19.1327 14.0383Z" fill="white"/>
<path d="M19.3084 15.1311L19.2559 15.2369C19.0582 15.0948 18.9592 14.8523 18.9592 14.5182C18.9592 14.0379 19.1648 13.7563 19.6195 13.5635C19.9097 13.4405 20.3062 13.491 20.81 13.7108L20.7751 13.8266C20.2914 13.6156 19.9172 13.568 19.6535 13.6798C19.2365 13.8566 19.0616 14.0961 19.0616 14.5182C19.0616 14.8114 19.1438 15.0128 19.3084 15.1311Z" fill="white"/>
<path d="M22.7061 14.1616L22.7079 14.2848C23.6159 14.2657 24.1367 14.4252 24.2689 14.743C24.4056 15.0716 24.3802 15.4711 24.1887 15.9456L24.2808 15.9994C24.4851 15.4931 24.513 15.0546 24.3605 14.6879C24.2035 14.3104 23.6525 14.1417 22.7061 14.1616Z" fill="white"/>
<path d="M22.3854 15.1567L22.4379 15.2625C22.6357 15.1205 22.7346 14.878 22.7346 14.5438C22.7346 14.0635 22.529 13.7819 22.0743 13.5892C21.7841 13.4662 21.3877 13.5166 20.8839 13.7364L20.9188 13.8523C21.4024 13.6413 21.7766 13.5936 22.0403 13.7054C22.4574 13.8822 22.6322 14.1217 22.6322 14.5438C22.6322 14.8371 22.55 15.0385 22.3854 15.1567Z" fill="white"/>
</g>
</g>
</svg>
