<svg width="16" height="12" viewBox="0 0 16 12" fill="none" xmlns="http://www.w3.org/2000/svg">
<mask id="mask0" mask-type="alpha" maskUnits="userSpaceOnUse" x="0" y="0" width="16" height="12">
<rect width="16" height="12" fill="white"/>
</mask>
<g mask="url(#mask0)">
<path fill-rule="evenodd" clip-rule="evenodd" d="M0 0V12H16V0H0Z" fill="#F7FCFF"/>
<mask id="mask1" mask-type="alpha" maskUnits="userSpaceOnUse" x="0" y="0" width="16" height="12">
<path fill-rule="evenodd" clip-rule="evenodd" d="M0 0V12H16V0H0Z" fill="white"/>
</mask>
<g mask="url(#mask1)">
<path fill-rule="evenodd" clip-rule="evenodd" d="M0 6V12H16V6H0Z" fill="#56C6F5"/>
<path fill-rule="evenodd" clip-rule="evenodd" d="M5.12706 4.51412C5.12335 4.47186 5.11451 4.43534 5.09923 4.40686C4.97079 4.16748 5.01229 3.86795 5.01229 3.86795C5.01229 3.86795 4.85892 4.21873 4.76893 4.54898C4.67434 4.39519 4.64127 4.24111 4.64127 4.24111C4.64127 4.24111 4.58005 5.2099 4.76722 5.43944C4.95439 5.66899 5.07918 5.76985 5.07918 5.76985C5.07918 5.76985 5.09334 5.36757 5.03885 5.05296C5.07725 4.92171 5.11189 4.77794 5.1243 4.65415C5.14887 4.63596 5.21361 4.58735 5.29463 4.52124C5.26049 4.70963 5.25879 4.81199 5.25879 4.81199C5.25879 4.81199 5.96408 4.29989 5.982 4.02883C5.99993 3.75776 6.19385 3.52573 6.19385 3.52573C6.19385 3.52573 6.0335 3.63546 5.8504 3.7826C5.89881 3.55507 6.04869 3.37573 6.04869 3.37573C6.04869 3.37573 5.24758 3.92394 5.18193 4.21275C5.15338 4.33837 5.13674 4.43971 5.12706 4.51412ZM5.16136 6.17932C5.08455 6.03428 4.75028 5.42633 4.51713 5.37342C4.2522 5.31331 4.05337 5.08548 4.05337 5.08548C4.05337 5.08548 4.4695 5.96248 4.74449 6.0725C4.96532 6.16086 5.11073 6.19613 5.15944 6.2066C5.15142 6.32483 5.15002 6.4065 5.15002 6.4065C5.15002 6.4065 5.27991 6.31231 5.47884 6.09287C5.67776 5.87344 5.66733 4.90278 5.66733 4.90278C5.66733 4.90278 5.58849 5.19471 5.37673 5.36487C5.23467 5.47902 5.18119 5.90877 5.16136 6.17932ZM4.53566 6.08756C4.83831 6.08578 5.30392 6.82793 5.30392 6.82793C5.30392 6.82793 5.12354 6.83782 4.80842 6.78803C4.49331 6.73824 4.00217 5.89259 4.00217 5.89259C4.00217 5.89259 4.233 6.08934 4.53566 6.08756ZM6.01098 7.81601C6.01098 7.81601 6.19058 6.87027 5.92089 6.64981C5.65121 6.42934 5.60363 6.09987 5.60363 6.09987C5.60363 6.09987 5.36406 7.14862 5.60363 7.42021C5.8432 7.6918 6.01098 7.81601 6.01098 7.81601ZM4.92283 7.56068C5.09894 7.76948 5.66004 7.56068 5.66004 7.56068C5.66004 7.56068 5.78367 7.67296 5.33869 7.26626C4.8937 6.85956 3.98824 7.11643 4.23192 7.11643C4.4756 7.11643 4.74671 7.35188 4.92283 7.56068ZM5.33869 8.67086C5.66515 8.94735 6.37057 8.28993 6.37057 8.28993C6.37057 8.28993 6.18897 8.07001 5.8524 7.90792C5.51584 7.74583 4.27433 7.90792 4.27433 7.90792L4.82683 8.15384C4.82683 8.15384 4.21182 8.39436 4.37507 8.38095C4.53831 8.36755 5.01223 8.39436 5.33869 8.67086Z" fill="#006923"/>
<path fill-rule="evenodd" clip-rule="evenodd" d="M9.60671 8.09799C9.60671 8.09799 9.32603 7.62631 9.60671 7.39843C9.8874 7.17056 9.99848 7.32212 9.99848 7.06014C9.99848 6.79815 10.0269 6.87615 10.1648 6.74609C10.3027 6.61602 10.205 6.30011 10.3897 6.45807C10.5744 6.61602 10.6089 6.31313 10.6089 6.94236C10.6089 7.57159 10.6089 6.37165 10.6089 6.01824C10.6089 5.66482 10.3897 5.74849 10.3897 5.51148C10.3897 5.27447 10.1705 4.92048 10.3897 4.92048C10.6089 4.92048 10.7377 5.18385 10.7377 5.18385C10.7377 5.18385 10.9531 5.55092 10.9531 5.18385C10.9531 4.81677 10.5697 4.9259 10.3897 4.52083C10.2097 4.11576 10.2382 4.56626 9.99848 4.0443C9.75879 3.52234 9.47341 3.35671 9.73595 3.35671C9.99848 3.35671 9.93989 3.35671 10.1648 3.35671C10.3897 3.35671 10.7377 3.1699 10.7377 3.35671C10.7377 3.54352 10.7377 3.45792 10.7377 3.75111C10.7377 4.0443 10.9531 4.0443 10.9531 4.0443C10.9531 4.0443 11.0702 3.45792 11.2173 3.75111C11.3643 4.0443 11.2642 4.52083 11.3719 4.52083C11.4795 4.52083 11.3904 4.02838 11.6255 4.40556C11.8606 4.78274 11.6255 5.03834 11.6255 5.18385C11.6255 5.32935 11.3719 5.68584 11.3719 5.68584C11.3719 5.68584 11.4214 5.86019 11.6255 5.68584C11.8296 5.51148 12.0232 5.33712 12.0232 5.51148C12.0232 5.68584 12.4209 5.74 12.0232 6.01824C11.6255 6.29648 11.8791 6.57504 11.6255 6.57504C11.3719 6.57504 11.073 6.94236 10.9531 6.94236C10.8332 6.94236 10.3846 7.22359 10.6089 7.22359C10.8332 7.22359 11.0627 6.66113 11.2173 6.94236C11.3719 7.22359 11.3698 6.89668 11.4977 7.06014C11.6255 7.22359 11.7533 8.11044 11.6255 7.75444C11.4977 7.39843 11.2973 7.39843 10.9531 7.39843C10.6089 7.39843 9.93989 7.42414 10.1648 7.58929C10.3897 7.75444 10.6423 7.42414 10.7377 7.58929C10.8332 7.75444 10.8054 7.91958 10.9531 7.75444C11.1008 7.58929 11.2461 7.75444 11.3719 7.75444C11.4977 7.75444 11.2461 7.93931 11.3719 8.09799C11.4977 8.25667 11.778 8.46806 11.4977 8.46806C11.2173 8.46806 11.073 8.2439 10.9531 8.46806C10.8332 8.69222 10.8281 9.08153 10.6089 8.77479C10.3897 8.46806 9.99848 8.62375 9.99848 8.46806C9.99848 8.31237 10.0841 8.28723 9.84539 8.28723C9.60671 8.28723 9.60671 8.09799 9.60671 8.09799Z" fill="#009933"/>
<path fill-rule="evenodd" clip-rule="evenodd" d="M10.758 4.72485C10.758 4.79389 10.7039 4.84985 10.6371 4.84985C10.5703 4.84985 10.5161 4.79389 10.5161 4.72485C10.5161 4.65582 10.5703 4.59985 10.6371 4.59985C10.7039 4.59985 10.758 4.65582 10.758 4.72485ZM5.16934 4.99985C5.23615 4.99985 5.29031 4.94389 5.29031 4.87485C5.29031 4.80582 5.23615 4.74985 5.16934 4.74985C5.10253 4.74985 5.04837 4.80582 5.04837 4.87485C5.04837 4.94389 5.10253 4.99985 5.16934 4.99985ZM5.29031 5.52485C5.29031 5.59389 5.23615 5.64985 5.16934 5.64985C5.10253 5.64985 5.04837 5.59389 5.04837 5.52485C5.04837 5.45582 5.10253 5.39985 5.16934 5.39985C5.23615 5.39985 5.29031 5.45582 5.29031 5.52485ZM5.36289 6.79985C5.4297 6.79985 5.48385 6.74389 5.48385 6.67485C5.48385 6.60582 5.4297 6.54985 5.36289 6.54985C5.29608 6.54985 5.24192 6.60582 5.24192 6.67485C5.24192 6.74389 5.29608 6.79985 5.36289 6.79985ZM6.33063 8.04985C6.39744 8.04985 6.4516 7.99389 6.4516 7.92485C6.4516 7.85582 6.39744 7.79985 6.33063 7.79985C6.26382 7.79985 6.20966 7.85582 6.20966 7.92485C6.20966 7.99389 6.26382 8.04985 6.33063 8.04985ZM10.9758 6.14985C11.0426 6.14985 11.0968 6.09389 11.0968 6.02485C11.0968 5.95582 11.0426 5.89985 10.9758 5.89985C10.909 5.89985 10.8548 5.95582 10.8548 6.02485C10.8548 6.09389 10.909 6.14985 10.9758 6.14985ZM10.7097 7.02485C10.7097 7.09389 10.6555 7.14985 10.5887 7.14985C10.5219 7.14985 10.4677 7.09389 10.4677 7.02485C10.4677 6.95582 10.5219 6.89985 10.5887 6.89985C10.6555 6.89985 10.7097 6.95582 10.7097 7.02485ZM9.57256 8.24985C9.63937 8.24985 9.69353 8.19389 9.69353 8.12485C9.69353 8.05582 9.63937 7.99985 9.57256 7.99985C9.50576 7.99985 9.4516 8.05582 9.4516 8.12485C9.4516 8.19389 9.50576 8.24985 9.57256 8.24985ZM6.49998 8.27485C6.49998 8.34389 6.44582 8.39985 6.37902 8.39985C6.31221 8.39985 6.25805 8.34389 6.25805 8.27485C6.25805 8.20582 6.31221 8.14985 6.37902 8.14985C6.44582 8.14985 6.49998 8.20582 6.49998 8.27485Z" fill="#C51918"/>
<path fill-rule="evenodd" clip-rule="evenodd" d="M9.0189 9.9098C9.0189 9.80738 7.46863 8.73899 7.05253 8.50334C6.63644 8.26769 4.60453 6.97067 5.15787 5H5.07414C5.07414 5 4.69966 7.42823 7.27968 8.93762C8.45442 9.72567 8.51289 9.9098 8.51289 9.9098C8.51289 9.9098 9.0189 10.0122 9.0189 9.9098Z" fill="#FECA00"/>
<path fill-rule="evenodd" clip-rule="evenodd" d="M6.96215 9.9098C6.96215 9.80738 8.51242 8.73899 8.92852 8.50334C9.34461 8.26769 11.3765 6.97067 10.8232 5H10.9069C10.9069 5 11.2814 7.42823 8.70137 8.93762C7.52662 9.72567 7.46815 9.9098 7.46815 9.9098C7.46815 9.9098 6.96215 10.0122 6.96215 9.9098Z" fill="#FECA00"/>
<path fill-rule="evenodd" clip-rule="evenodd" d="M8.02419 8.44269C9.10649 8.44269 9.98387 7.04176 9.98387 5.67485C9.98387 4.30795 9.10649 3.59985 8.02419 3.59985C6.94189 3.59985 6.06451 4.30795 6.06451 5.67485C6.06451 7.04176 6.94189 8.44269 8.02419 8.44269Z" fill="#56C6F5"/>
<path fill-rule="evenodd" clip-rule="evenodd" d="M7.15659 4.76943C7.15659 4.76943 7.4584 4.50324 7.3075 4.50324C7.27823 4.50324 7.2426 4.49752 7.20418 4.49136C7.04449 4.46574 6.83654 4.43238 6.83654 4.76943V5.34863L6.83646 5.34999H6.79194C6.76432 5.34999 6.74194 5.37238 6.74194 5.39999C6.74194 5.42761 6.76432 5.44999 6.79194 5.44999H6.83105C6.82437 5.57371 6.81252 5.79372 6.80091 6.01362L6.74369 6.01862C6.71411 6.02121 6.69223 6.04729 6.69482 6.07687L6.69852 6.11918C6.70111 6.14876 6.72719 6.17064 6.75676 6.16805L6.79295 6.16489C6.77952 6.42181 6.76819 6.64665 6.76819 6.67417C6.76819 6.74175 7.22733 6.71558 7.22733 6.71558C7.22733 6.71558 7.21305 6.44454 7.19732 6.12951L7.22808 6.12682C7.25766 6.12423 7.27954 6.09815 7.27696 6.06857L7.27325 6.02626C7.27067 5.99668 7.24459 5.9748 7.21501 5.97739L7.18989 5.97959C7.18063 5.79091 7.17155 5.59933 7.16522 5.44999H7.22419C7.25181 5.44999 7.27419 5.42761 7.27419 5.39999C7.27419 5.37238 7.25181 5.34999 7.22419 5.34999H7.16116C7.15829 5.27537 7.15659 5.21928 7.15659 5.19102V4.76943Z" fill="white"/>
<path fill-rule="evenodd" clip-rule="evenodd" d="M6.93549 5.5H7.09678V5.71505H6.93549V5.5Z" fill="black"/>
<path fill-rule="evenodd" clip-rule="evenodd" d="M6.88708 6.25H7.1559V6.75H6.88708V6.25Z" fill="black"/>
<path fill-rule="evenodd" clip-rule="evenodd" d="M8.17271 4.76943C8.17271 4.76943 8.47451 4.50324 8.32361 4.50324C8.29434 4.50324 8.25871 4.49752 8.22029 4.49136C8.0606 4.46574 7.85265 4.43238 7.85265 4.76943V5.34863L7.85258 5.34999H7.80805C7.78043 5.34999 7.75805 5.37238 7.75805 5.39999C7.75805 5.42761 7.78043 5.44999 7.80805 5.44999H7.84716C7.84048 5.57371 7.82864 5.79372 7.81702 6.01362L7.7598 6.01862C7.73023 6.02121 7.70834 6.04729 7.71093 6.07687L7.71463 6.11918C7.71722 6.14876 7.7433 6.17064 7.77288 6.16805L7.80907 6.16489C7.79563 6.42181 7.7843 6.64665 7.7843 6.67417C7.7843 6.74175 8.24344 6.71558 8.24344 6.71558C8.24344 6.71558 8.22916 6.44454 8.21343 6.12951L8.2442 6.12682C8.27378 6.12423 8.29566 6.09815 8.29307 6.06857L8.28937 6.02626C8.28678 5.99668 8.2607 5.9748 8.23112 5.97739L8.206 5.97959C8.19674 5.79091 8.18767 5.59933 8.18134 5.44999H8.24031C8.26792 5.44999 8.29031 5.42761 8.29031 5.39999C8.29031 5.37238 8.26792 5.34999 8.24031 5.34999H8.17727C8.17441 5.27537 8.17271 5.21928 8.17271 5.19102V4.76943Z" fill="white"/>
<path fill-rule="evenodd" clip-rule="evenodd" d="M9.14045 4.76943C9.14045 4.76943 9.44226 4.50324 9.29135 4.50324C9.26209 4.50324 9.22646 4.49752 9.18803 4.49136C9.02834 4.46574 8.82039 4.43238 8.82039 4.76943V5.34863L8.82032 5.34999H8.77579C8.74818 5.34999 8.72579 5.37238 8.72579 5.39999C8.72579 5.42761 8.74818 5.44999 8.77579 5.44999H8.81491C8.80822 5.57371 8.79638 5.79372 8.78476 6.01362L8.72755 6.01862C8.69797 6.02121 8.67609 6.04729 8.67867 6.07687L8.68238 6.11918C8.68496 6.14876 8.71104 6.17064 8.74062 6.16805L8.77681 6.16489C8.76338 6.42181 8.75205 6.64665 8.75205 6.67417C8.75205 6.74175 9.21119 6.71558 9.21119 6.71558C9.21119 6.71558 9.1969 6.44454 9.18117 6.12951L9.21194 6.12682C9.24152 6.12423 9.2634 6.09815 9.26081 6.06857L9.25711 6.02626C9.25452 5.99668 9.22845 5.9748 9.19887 5.97739L9.17375 5.97959C9.16448 5.79091 9.15541 5.59933 9.14908 5.44999H9.20805C9.23566 5.44999 9.25805 5.42761 9.25805 5.39999C9.25805 5.37238 9.23566 5.34999 9.20805 5.34999H9.14502C9.14215 5.27537 9.14045 5.21928 9.14045 5.19102V4.76943Z" fill="white"/>
<path fill-rule="evenodd" clip-rule="evenodd" d="M8.91934 5.5H9.08063V5.71505H8.91934V5.5Z" fill="black"/>
<path fill-rule="evenodd" clip-rule="evenodd" d="M8.87094 6.25H9.13976V6.75H8.87094V6.25Z" fill="black"/>
<path fill-rule="evenodd" clip-rule="evenodd" d="M9.25804 3.19995H6.69352V3.58277L6.67632 3.58431C6.67632 3.58431 5.41987 4.56067 5.76858 6.02327C6.11728 7.48587 7.50236 8.57052 7.50236 8.57052L7.57219 8.31811C7.57219 8.31811 6.25237 6.52353 6.25237 5.80643C6.25237 5.08934 6.50138 4.41629 6.76503 4.31164C6.92361 4.24869 6.95097 4.26147 6.99418 4.28165C7.02281 4.29502 7.0584 4.31164 7.14375 4.31164C7.3579 4.31164 7.57219 4.15835 7.57219 4.15835C7.57219 4.15835 7.72117 4.31164 7.85957 4.31164C7.99797 4.31164 7.99991 4.15835 7.99991 4.15835V3.64995H8.0154V4.15835C8.0154 4.15835 8.01734 4.31164 8.15574 4.31164C8.29414 4.31164 8.44312 4.15835 8.44312 4.15835C8.44312 4.15835 8.65742 4.31164 8.87156 4.31164C8.95691 4.31164 8.9925 4.29502 9.02113 4.28165C9.06434 4.26147 9.0917 4.24869 9.25028 4.31164C9.51393 4.41629 9.76294 5.08934 9.76294 5.80643C9.76294 6.52353 8.44312 8.31811 8.44312 8.31811L8.51295 8.57052C8.51295 8.57052 9.89803 7.48587 10.2467 6.02327C10.5954 4.56067 9.33899 3.58431 9.33899 3.58431L9.25804 3.57707V3.19995Z" fill="#E8AA00"/>
<path d="M6.69352 3.19995V2.94995H6.44352V3.19995H6.69352ZM9.25804 3.19995H9.50804V2.94995H9.25804V3.19995ZM6.69352 3.58277L6.71579 3.83178L6.94352 3.81142V3.58277H6.69352ZM6.67632 3.58431L6.65406 3.3353L6.58091 3.34184L6.52292 3.3869L6.67632 3.58431ZM5.76858 6.02327L5.52539 6.08125L5.76858 6.02327ZM7.50236 8.57052L7.34822 8.76735L7.64336 8.99847L7.74331 8.63717L7.50236 8.57052ZM7.57219 8.31811L7.81314 8.38476L7.8455 8.26777L7.77358 8.16999L7.57219 8.31811ZM6.76503 4.31164L6.6728 4.07927L6.6728 4.07927L6.76503 4.31164ZM6.99418 4.28165L6.8884 4.50816L6.8884 4.50816L6.99418 4.28165ZM7.57219 4.15835L7.75146 3.98411L7.60161 3.82993L7.42674 3.95502L7.57219 4.15835ZM7.99991 4.15835L8.24991 4.16151V4.15835H7.99991ZM7.99991 3.64995V3.39995H7.74991V3.64995H7.99991ZM8.0154 3.64995H8.2654V3.39995H8.0154V3.64995ZM8.0154 4.15835H7.76538L7.76542 4.16151L8.0154 4.15835ZM8.44312 4.15835L8.58857 3.95502L8.4137 3.82993L8.26385 3.98411L8.44312 4.15835ZM9.02113 4.28165L9.12691 4.50816L9.02113 4.28165ZM9.25028 4.31164L9.15805 4.544L9.25028 4.31164ZM8.44312 8.31811L8.24173 8.16999L8.16981 8.26777L8.20217 8.38476L8.44312 8.31811ZM8.51295 8.57052L8.272 8.63717L8.37195 8.99847L8.66709 8.76735L8.51295 8.57052ZM9.33899 3.58431L9.49239 3.3869L9.4344 3.34184L9.36125 3.3353L9.33899 3.58431ZM9.25804 3.57707H9.00804V3.80572L9.23578 3.82608L9.25804 3.57707ZM6.69352 3.44995H9.25804V2.94995H6.69352V3.44995ZM6.94352 3.58277V3.19995H6.44352V3.58277H6.94352ZM6.69859 3.83331L6.71579 3.83178L6.67126 3.33376L6.65406 3.3353L6.69859 3.83331ZM6.01176 5.96529C5.85787 5.31981 6.05558 4.77936 6.30286 4.38913C6.42655 4.19393 6.56071 4.03988 6.66381 3.93489C6.71519 3.88258 6.75836 3.84296 6.78792 3.81702C6.80269 3.80406 6.81402 3.79455 6.82122 3.78862C6.82482 3.78565 6.82739 3.78358 6.82884 3.78242C6.82956 3.78185 6.83 3.7815 6.83015 3.78138C6.83023 3.78132 6.83023 3.78132 6.83016 3.78137C6.83012 3.7814 6.83007 3.78144 6.83 3.7815C6.82996 3.78153 6.82989 3.78158 6.82987 3.78159C6.8298 3.78165 6.82972 3.78171 6.67632 3.58431C6.52292 3.3869 6.52284 3.38697 6.52274 3.38704C6.52271 3.38707 6.52261 3.38715 6.52253 3.38721C6.52238 3.38732 6.52222 3.38745 6.52203 3.3876C6.52165 3.3879 6.5212 3.38825 6.52067 3.38867C6.51962 3.3895 6.51827 3.39057 6.51662 3.39188C6.51334 3.39451 6.50889 3.3981 6.50337 3.40264C6.49234 3.41173 6.47702 3.42462 6.45811 3.44122C6.42033 3.47438 6.36806 3.52247 6.30709 3.58454C6.18551 3.70833 6.02735 3.88978 5.88051 4.1215C5.58675 4.5851 5.33058 5.26413 5.52539 6.08125L6.01176 5.96529ZM7.50236 8.57052C7.6565 8.37369 7.65654 8.37372 7.65658 8.37375C7.65659 8.37376 7.65662 8.37379 7.65664 8.3738C7.65666 8.37382 7.65667 8.37382 7.65665 8.37381C7.65662 8.37379 7.65651 8.3737 7.65632 8.37354C7.65593 8.37324 7.65521 8.37267 7.65418 8.37185C7.65211 8.3702 7.64878 8.36753 7.64425 8.36385C7.63519 8.3565 7.62136 8.34514 7.60334 8.32994C7.56728 8.29954 7.51455 8.25385 7.4498 8.19425C7.32013 8.07489 7.14321 7.90062 6.9559 7.68249C6.57822 7.24269 6.17298 6.64153 6.01176 5.96529L5.52539 6.08125C5.71287 6.86761 6.17453 7.54007 6.57657 8.00824C6.77911 8.2441 6.97025 8.4324 7.11118 8.56213C7.18173 8.62707 7.23993 8.67754 7.28099 8.71216C7.30152 8.72948 7.31779 8.74285 7.32919 8.7521C7.33489 8.75673 7.33938 8.76033 7.34257 8.76287C7.34417 8.76415 7.34545 8.76516 7.34639 8.7659C7.34686 8.76628 7.34725 8.76658 7.34756 8.76682C7.34771 8.76694 7.34784 8.76705 7.34795 8.76714C7.34801 8.76718 7.34808 8.76723 7.3481 8.76725C7.34817 8.7673 7.34822 8.76735 7.50236 8.57052ZM7.33124 8.25145L7.26141 8.50386L7.74331 8.63717L7.81314 8.38476L7.33124 8.25145ZM6.00237 5.80643C6.00237 6.04448 6.10653 6.33417 6.23146 6.60585C6.36102 6.88762 6.53165 7.18859 6.69914 7.46183C6.86714 7.73592 7.03475 7.98655 7.16015 8.16841C7.22293 8.25946 7.27531 8.33353 7.31211 8.385C7.33052 8.41075 7.34504 8.43085 7.35504 8.44462C7.36003 8.45151 7.3639 8.45681 7.36655 8.46044C7.36787 8.46225 7.3689 8.46365 7.36961 8.46462C7.36996 8.4651 7.37024 8.46548 7.37044 8.46574C7.37053 8.46588 7.37061 8.46599 7.37067 8.46607C7.3707 8.46611 7.37073 8.46615 7.37074 8.46617C7.37077 8.4662 7.37079 8.46622 7.57219 8.31811C7.77358 8.16999 7.77359 8.17 7.7736 8.17001C7.77359 8.17 7.77359 8.17 7.77358 8.16998C7.77356 8.16995 7.77352 8.1699 7.77345 8.16981C7.77333 8.16965 7.77313 8.16937 7.77285 8.16899C7.77229 8.16823 7.77142 8.16704 7.77025 8.16544C7.76791 8.16223 7.76436 8.15737 7.75969 8.15093C7.75035 8.13806 7.73652 8.11891 7.71884 8.09418C7.68347 8.04472 7.63274 7.97299 7.57178 7.88458C7.44971 7.70755 7.28737 7.46472 7.12542 7.20053C6.96296 6.93548 6.80363 6.65336 6.68573 6.39696C6.56319 6.13048 6.50237 5.92694 6.50237 5.80643H6.00237ZM6.6728 4.07927C6.53941 4.13222 6.43934 4.24131 6.36685 4.34811C6.29097 4.4599 6.22643 4.59718 6.17397 4.7465C6.0689 5.04555 6.00237 5.42123 6.00237 5.80643H6.50237C6.50237 5.47455 6.56035 5.15516 6.6457 4.91224C6.68844 4.79059 6.73559 4.69515 6.78055 4.62891C6.82891 4.55767 6.85882 4.54338 6.85726 4.544L6.6728 4.07927ZM7.09996 4.05513C7.0701 4.04118 7.00417 4.00945 6.90612 4.01603C6.8324 4.02098 6.75494 4.04667 6.6728 4.07927L6.85726 4.544C6.8926 4.52998 6.9158 4.52212 6.9307 4.51784C6.9459 4.51347 6.94712 4.5144 6.93961 4.51491C6.93532 4.5152 6.92875 4.51531 6.92048 4.51451C6.91203 4.5137 6.90382 4.51212 6.89628 4.51005C6.88903 4.50806 6.88405 4.50607 6.88251 4.50543C6.88187 4.50516 6.88208 4.50521 6.8884 4.50816L7.09996 4.05513ZM7.14375 4.06164C7.13049 4.06164 7.12163 4.06099 7.11621 4.06038C7.11095 4.05979 7.10874 4.05922 7.10873 4.05922C7.10866 4.0592 7.10883 4.05925 7.10916 4.05935C7.10948 4.05946 7.10965 4.05953 7.10954 4.05948C7.10879 4.05919 7.10758 4.05869 7.09996 4.05513L6.8884 4.50816C6.90463 4.51574 6.9389 4.53207 6.98666 4.54409C7.03343 4.55586 7.08466 4.56164 7.14375 4.56164V4.06164ZM7.57219 4.15835C7.42674 3.95502 7.42678 3.95498 7.42683 3.95495C7.42684 3.95494 7.42689 3.95491 7.42692 3.95489C7.42697 3.95485 7.42703 3.95481 7.42708 3.95478C7.42718 3.9547 7.42727 3.95464 7.42734 3.95459C7.42749 3.95448 7.4276 3.95441 7.42765 3.95437C7.42777 3.95429 7.42769 3.95434 7.42743 3.95452C7.42691 3.95488 7.42566 3.95574 7.42374 3.95702C7.41988 3.9596 7.41339 3.96383 7.40467 3.96918C7.38704 3.97999 7.36134 3.99471 7.33064 4.00935C7.26442 4.04094 7.19675 4.06164 7.14375 4.06164V4.56164C7.30489 4.56164 7.45145 4.50569 7.5459 4.46064C7.59555 4.43696 7.6368 4.41335 7.66604 4.39543C7.68076 4.3864 7.69268 4.37866 7.70138 4.37286C7.70573 4.36995 7.7093 4.36751 7.71202 4.36563C7.71338 4.36468 7.71454 4.36388 7.71547 4.36322C7.71594 4.36289 7.71636 4.36259 7.71672 4.36234C7.7169 4.36221 7.71706 4.36209 7.71722 4.36198C7.71729 4.36193 7.71737 4.36188 7.71744 4.36183C7.71747 4.3618 7.71752 4.36177 7.71754 4.36175C7.71759 4.36172 7.71763 4.36169 7.57219 4.15835ZM7.85957 4.06164C7.86966 4.06164 7.86892 4.06399 7.85501 4.05801C7.84203 4.05243 7.82571 4.04308 7.80769 4.03043C7.79019 4.01814 7.77486 4.00537 7.76393 3.99564C7.7586 3.99089 7.75468 3.98718 7.75244 3.98503C7.75133 3.98396 7.75067 3.9833 7.75049 3.98311C7.7504 3.98302 7.75043 3.98306 7.75059 3.98322C7.75067 3.9833 7.75078 3.98341 7.75093 3.98356C7.751 3.98363 7.75108 3.98372 7.75117 3.98381C7.75121 3.98385 7.75126 3.9839 7.75131 3.98395C7.75133 3.98397 7.75137 3.98401 7.75138 3.98403C7.75142 3.98407 7.75146 3.98411 7.57219 4.15835C7.39291 4.3326 7.39295 4.33264 7.39299 4.33268C7.39301 4.33269 7.39305 4.33274 7.39308 4.33277C7.39314 4.33283 7.3932 4.33289 7.39326 4.33295C7.39338 4.33308 7.39352 4.33322 7.39366 4.33336C7.39395 4.33366 7.39428 4.33399 7.39465 4.33436C7.39538 4.33511 7.39626 4.336 7.3973 4.33703C7.39937 4.33909 7.40204 4.34173 7.40527 4.34485C7.41173 4.35108 7.42052 4.35934 7.43132 4.36897C7.45266 4.38797 7.48322 4.41353 7.52026 4.43956C7.58391 4.48427 7.70961 4.56164 7.85957 4.56164V4.06164ZM7.99991 4.15835C7.74993 4.15519 7.74993 4.15508 7.74993 4.15497C7.74993 4.15493 7.74993 4.15483 7.74993 4.15475C7.74993 4.15461 7.74994 4.15447 7.74994 4.15433C7.74994 4.15405 7.74995 4.15378 7.74995 4.15351C7.74996 4.15298 7.74998 4.15247 7.74999 4.15199C7.75001 4.15103 7.75005 4.15017 7.75008 4.1494C7.75014 4.14786 7.75022 4.14665 7.75029 4.14571C7.75043 4.14391 7.75058 4.1428 7.7507 4.14205C7.75075 4.14178 7.75133 4.13738 7.75487 4.12975C7.75856 4.1218 7.76902 4.10293 7.79228 4.08591C7.81838 4.06682 7.84482 4.06164 7.85957 4.06164V4.56164C7.94352 4.56164 8.0221 4.5373 8.08749 4.48946C8.15003 4.4437 8.18693 4.38651 8.20841 4.34023C8.22973 4.29428 8.23945 4.25156 8.24418 4.22255C8.24665 4.20743 8.24803 4.19435 8.24881 4.18417C8.24921 4.17904 8.24946 4.17453 8.24962 4.17075C8.2497 4.16885 8.24976 4.16713 8.2498 4.16559C8.24982 4.16482 8.24984 4.16409 8.24985 4.16341C8.24986 4.16307 8.24987 4.16275 8.24987 4.16243C8.24987 4.16227 8.24988 4.16212 8.24988 4.16196C8.24988 4.16189 8.24988 4.16177 8.24988 4.16174C8.24988 4.16162 8.24989 4.16151 7.99991 4.15835ZM7.74991 3.64995V4.15835H8.24991V3.64995H7.74991ZM8.0154 3.39995H7.99991V3.89995H8.0154V3.39995ZM7.7654 3.64995V4.15835H8.2654V3.64995H7.7654ZM8.0154 4.15835C7.76542 4.16151 7.76543 4.16162 7.76543 4.16174C7.76543 4.16177 7.76543 4.16189 7.76543 4.16196C7.76543 4.16212 7.76544 4.16227 7.76544 4.16243C7.76544 4.16275 7.76545 4.16307 7.76546 4.16341C7.76547 4.16409 7.76549 4.16482 7.76551 4.16559C7.76555 4.16713 7.76561 4.16885 7.76569 4.17075C7.76585 4.17453 7.7661 4.17904 7.7665 4.18417C7.76728 4.19435 7.76867 4.20743 7.77113 4.22255C7.77586 4.25156 7.78558 4.29428 7.8069 4.34023C7.82838 4.38651 7.86528 4.4437 7.92782 4.48946C7.99321 4.5373 8.07179 4.56164 8.15574 4.56164V4.06164C8.17049 4.06164 8.19693 4.06682 8.22303 4.08591C8.24629 4.10293 8.25675 4.1218 8.26044 4.12975C8.26398 4.13738 8.26456 4.14178 8.26461 4.14205C8.26473 4.1428 8.26488 4.14391 8.26502 4.14571C8.26509 4.14665 8.26517 4.14786 8.26523 4.1494C8.26527 4.15017 8.2653 4.15103 8.26532 4.15199C8.26534 4.15247 8.26535 4.15298 8.26536 4.15351C8.26536 4.15378 8.26537 4.15405 8.26537 4.15433C8.26537 4.15447 8.26538 4.15461 8.26538 4.15475C8.26538 4.15483 8.26538 4.15493 8.26538 4.15497C8.26538 4.15508 8.26538 4.15519 8.0154 4.15835ZM8.15574 4.56164C8.3057 4.56164 8.4314 4.48427 8.49505 4.43956C8.53209 4.41353 8.56265 4.38797 8.58399 4.36897C8.59479 4.35934 8.60358 4.35108 8.61004 4.34485C8.61327 4.34173 8.61595 4.33909 8.61801 4.33703C8.61905 4.336 8.61993 4.33511 8.62067 4.33436C8.62103 4.33399 8.62136 4.33366 8.62165 4.33336C8.62179 4.33322 8.62193 4.33308 8.62205 4.33295C8.62211 4.33289 8.62217 4.33283 8.62223 4.33277C8.62226 4.33274 8.6223 4.33269 8.62232 4.33268C8.62236 4.33264 8.6224 4.3326 8.44312 4.15835C8.26385 3.98411 8.26389 3.98407 8.26393 3.98403C8.26394 3.98401 8.26398 3.98397 8.264 3.98395C8.26405 3.9839 8.2641 3.98385 8.26414 3.98381C8.26423 3.98372 8.26431 3.98363 8.26438 3.98356C8.26453 3.98341 8.26464 3.9833 8.26472 3.98322C8.26488 3.98306 8.26491 3.98302 8.26482 3.98311C8.26464 3.9833 8.26398 3.98396 8.26287 3.98503C8.26063 3.98718 8.25671 3.99089 8.25138 3.99564C8.24045 4.00537 8.22512 4.01814 8.20762 4.03043C8.18961 4.04308 8.17328 4.05243 8.1603 4.05801C8.14639 4.06399 8.14565 4.06164 8.15574 4.06164V4.56164ZM8.44312 4.15835C8.29768 4.36169 8.29772 4.36172 8.29777 4.36175C8.29779 4.36177 8.29784 4.3618 8.29787 4.36183C8.29794 4.36188 8.29802 4.36193 8.29809 4.36198C8.29825 4.36209 8.29841 4.36221 8.29859 4.36234C8.29895 4.36259 8.29937 4.36289 8.29984 4.36322C8.30077 4.36388 8.30193 4.36468 8.30329 4.36563C8.30601 4.36751 8.30958 4.36995 8.31393 4.37285C8.32263 4.37866 8.33456 4.3864 8.34927 4.39543C8.37851 4.41335 8.41976 4.43696 8.46941 4.46064C8.56386 4.50569 8.71042 4.56164 8.87156 4.56164V4.06164C8.81856 4.06164 8.75089 4.04094 8.68467 4.00935C8.65398 3.99471 8.62827 3.97999 8.61064 3.96918C8.60192 3.96383 8.59543 3.9596 8.59157 3.95702C8.58965 3.95574 8.5884 3.95488 8.58788 3.95452C8.58762 3.95434 8.58754 3.95429 8.58766 3.95437C8.58771 3.95441 8.58782 3.95448 8.58797 3.95459C8.58805 3.95464 8.58813 3.9547 8.58823 3.95478C8.58828 3.95481 8.58834 3.95485 8.58839 3.95489C8.58842 3.95491 8.58847 3.95494 8.58848 3.95495C8.58853 3.95498 8.58857 3.95502 8.44312 4.15835ZM8.87156 4.56164C8.93065 4.56164 8.98188 4.55586 9.02865 4.54409C9.07641 4.53207 9.11068 4.51574 9.12691 4.50816L8.91535 4.05513C8.90773 4.05869 8.90652 4.05919 8.90577 4.05948C8.90566 4.05953 8.90583 4.05946 8.90615 4.05935C8.90648 4.05925 8.90665 4.0592 8.90658 4.05922C8.90657 4.05922 8.90436 4.05979 8.8991 4.06038C8.89368 4.06099 8.88482 4.06164 8.87156 4.06164V4.56164ZM9.12691 4.50816C9.13323 4.50521 9.13345 4.50516 9.1328 4.50543C9.13126 4.50607 9.12628 4.50806 9.11903 4.51005C9.11149 4.51212 9.10328 4.5137 9.09483 4.51451C9.08656 4.51531 9.07999 4.5152 9.0757 4.51491C9.06819 4.5144 9.06941 4.51347 9.08461 4.51784C9.09951 4.52212 9.12272 4.52998 9.15805 4.544L9.34251 4.07927C9.26037 4.04667 9.18291 4.02098 9.10919 4.01603C9.01114 4.00945 8.94521 4.04118 8.91535 4.05513L9.12691 4.50816ZM9.15805 4.544C9.15649 4.54338 9.18641 4.55767 9.23476 4.62891C9.27972 4.69515 9.32687 4.79059 9.36961 4.91224C9.45496 5.15516 9.51294 5.47455 9.51294 5.80643H10.0129C10.0129 5.42123 9.94641 5.04555 9.84134 4.7465C9.78888 4.59718 9.72434 4.4599 9.64846 4.34811C9.57597 4.24131 9.4759 4.13222 9.34251 4.07927L9.15805 4.544ZM9.51294 5.80643C9.51294 5.92694 9.45212 6.13048 9.32958 6.39696C9.21168 6.65336 9.05235 6.93548 8.88989 7.20053C8.72794 7.46472 8.5656 7.70755 8.44353 7.88458C8.38257 7.97299 8.33185 8.04472 8.29647 8.09418C8.27879 8.11891 8.26496 8.13806 8.25562 8.15093C8.25095 8.15737 8.2474 8.16223 8.24506 8.16544C8.24389 8.16704 8.24302 8.16823 8.24246 8.16899C8.24218 8.16937 8.24198 8.16965 8.24186 8.16981C8.24179 8.1699 8.24175 8.16995 8.24173 8.16998C8.24172 8.17 8.24172 8.17 8.24171 8.17001C8.24172 8.17 8.24173 8.16999 8.44312 8.31811C8.64452 8.46622 8.64454 8.4662 8.64457 8.46617C8.64458 8.46615 8.64461 8.46611 8.64464 8.46607C8.6447 8.46599 8.64478 8.46588 8.64487 8.46574C8.64507 8.46548 8.64535 8.4651 8.6457 8.46462C8.64641 8.46365 8.64744 8.46225 8.64876 8.46044C8.65141 8.45681 8.65528 8.45151 8.66027 8.44462C8.67027 8.43085 8.68479 8.41075 8.7032 8.385C8.74 8.33353 8.79239 8.25946 8.85516 8.16841C8.98056 7.98655 9.14817 7.73592 9.31617 7.46183C9.48366 7.18859 9.65429 6.88762 9.78385 6.60585C9.90878 6.33417 10.0129 6.04448 10.0129 5.80643H9.51294ZM8.20217 8.38476L8.272 8.63717L8.7539 8.50386L8.68407 8.25145L8.20217 8.38476ZM8.51295 8.57052C8.66709 8.76735 8.66714 8.7673 8.66721 8.76725C8.66723 8.76723 8.6673 8.76718 8.66736 8.76714C8.66747 8.76705 8.6676 8.76694 8.66775 8.76682C8.66806 8.76658 8.66845 8.76628 8.66892 8.7659C8.66986 8.76516 8.67114 8.76415 8.67274 8.76287C8.67593 8.76033 8.68042 8.75673 8.68612 8.7521C8.69752 8.74285 8.71379 8.72948 8.73432 8.71216C8.77538 8.67754 8.83358 8.62707 8.90413 8.56213C9.04506 8.4324 9.2362 8.2441 9.43874 8.00824C9.84078 7.54007 10.3024 6.86761 10.4899 6.08125L10.0036 5.96529C9.84233 6.64153 9.43709 7.24269 9.05942 7.68249C8.8721 7.90062 8.69518 8.07489 8.56551 8.19425C8.50076 8.25385 8.44803 8.29954 8.41197 8.32994C8.39395 8.34514 8.38012 8.3565 8.37106 8.36385C8.36653 8.36753 8.3632 8.3702 8.36113 8.37185C8.3601 8.37267 8.35938 8.37324 8.35899 8.37354C8.3588 8.3737 8.35869 8.37379 8.35866 8.37381C8.35864 8.37382 8.35865 8.37382 8.35867 8.3738C8.35869 8.37379 8.35872 8.37376 8.35873 8.37375C8.35877 8.37372 8.35881 8.37369 8.51295 8.57052ZM10.4899 6.08125C10.6847 5.26413 10.4286 4.5851 10.1348 4.1215C9.98797 3.88978 9.8298 3.70833 9.70822 3.58454C9.64726 3.52247 9.59499 3.47438 9.5572 3.44122C9.53829 3.42462 9.52297 3.41173 9.51194 3.40264C9.50642 3.3981 9.50198 3.39451 9.49869 3.39188C9.49704 3.39057 9.49569 3.3895 9.49464 3.38867C9.49411 3.38825 9.49366 3.3879 9.49328 3.3876C9.4931 3.38745 9.49293 3.38732 9.49278 3.38721C9.4927 3.38715 9.49261 3.38707 9.49257 3.38704C9.49248 3.38697 9.49239 3.3869 9.33899 3.58431C9.18559 3.78171 9.18551 3.78165 9.18544 3.78159C9.18542 3.78158 9.18535 3.78153 9.18531 3.7815C9.18524 3.78144 9.18519 3.7814 9.18515 3.78137C9.18508 3.78132 9.18508 3.78132 9.18516 3.78138C9.18531 3.7815 9.18575 3.78185 9.18648 3.78242C9.18792 3.78358 9.19049 3.78565 9.19409 3.78862C9.2013 3.79455 9.21262 3.80406 9.22739 3.81702C9.25695 3.84296 9.30012 3.88258 9.3515 3.93489C9.45461 4.03988 9.58876 4.19393 9.71245 4.38913C9.95973 4.77936 10.1574 5.31981 10.0036 5.96529L10.4899 6.08125ZM9.36125 3.3353L9.2803 3.32806L9.23578 3.82608L9.31672 3.83331L9.36125 3.3353ZM9.00804 3.19995V3.57707H9.50804V3.19995H9.00804Z" fill="#FFD018"/>
<path fill-rule="evenodd" clip-rule="evenodd" d="M6.55173 6.89234C6.55173 6.89234 6.70897 6.47013 6.98394 6.61087C7.25891 6.7516 7.2349 7.24155 7.48507 7.06694C7.73525 6.89234 7.59342 6.61087 7.96414 6.61087C8.33487 6.61087 8.28026 7.06694 8.50259 7.06694C8.72492 7.06694 8.74416 6.61087 8.99269 6.61087C9.24122 6.61087 9.49328 6.89234 9.49328 6.89234L8.0225 8.8936L6.55173 6.89234Z" fill="#8FC753"/>
<path fill-rule="evenodd" clip-rule="evenodd" d="M7.94718 1.01465H8.04718V1.12183H8.17001V1.22183H8.04718V1.40385C8.18507 1.42715 8.2903 1.55083 8.2903 1.69991C8.2903 1.86559 8.16032 1.99991 7.99998 1.99991C7.83964 1.99991 7.70966 1.86559 7.70966 1.69991C7.70966 1.55286 7.81205 1.43051 7.94718 1.40486V1.22183H7.8343V1.12183H7.94718V1.01465Z" fill="#FFD018"/>
<path fill-rule="evenodd" clip-rule="evenodd" d="M6.87338 2.5829C6.73341 2.5829 6.43823 2.76527 6.43823 2.76527L6.66774 3.38536L8.05207 3.32208L9.4364 3.38536L9.66591 2.76527C9.66591 2.76527 9.37074 2.5829 9.23076 2.5829C9.1693 2.5829 9.16149 2.53884 9.15274 2.48941C9.14156 2.42628 9.12883 2.35439 9.00075 2.35439C8.91013 2.35439 8.8461 2.37271 8.79426 2.38754C8.71546 2.41008 8.66484 2.42456 8.59184 2.35439C8.58879 2.35147 8.58575 2.34853 8.58269 2.3456C8.46453 2.23188 8.3418 2.11377 8.14326 2.11377C8.10365 2.11377 8.07405 2.1594 8.05207 2.2329C8.0301 2.1594 8.0005 2.11377 7.96088 2.11377C7.76235 2.11377 7.63961 2.23188 7.52145 2.3456C7.5184 2.34853 7.51535 2.35147 7.51231 2.35439C7.43931 2.42456 7.38868 2.41008 7.30989 2.38754C7.25805 2.37271 7.19402 2.35439 7.1034 2.35439C6.97531 2.35439 6.96258 2.42628 6.95141 2.48941C6.94265 2.53884 6.93485 2.5829 6.87338 2.5829Z" fill="#E31D1C"/>
<path fill-rule="evenodd" clip-rule="evenodd" d="M7.5 1.99983C7.5 1.99983 7.83332 1.75854 8 1.75854C8.16668 1.75854 8.5 1.99983 8.5 1.99983V3.99983H7.5V1.99983Z" fill="#FFD018"/>
<path fill-rule="evenodd" clip-rule="evenodd" d="M7.80402 1.78418L7.70685 1.81789C7.45007 1.90697 7.22771 1.93635 7.03988 1.9074C6.65316 1.84781 6.14857 2.04902 6.2118 2.34368C6.2395 2.47281 6.32038 2.71669 6.40449 2.92339C6.52119 3.2102 6.60288 3.35488 6.69842 3.35488C6.71079 3.35488 6.84051 3.36196 6.88375 3.36432C6.89153 3.36475 6.89651 3.36502 6.8975 3.36507C7.03802 3.37218 7.16189 3.37594 7.28104 3.37539C7.6256 3.37378 7.83917 3.33995 7.91544 3.23658L7.93789 3.20616L7.92723 3.16952C7.83675 2.85838 7.79487 2.43155 7.80252 1.89009L7.80402 1.78418ZM6.35351 2.31121C6.32251 2.16672 6.7172 2.00934 7.01847 2.05576C7.20614 2.08469 7.41879 2.06292 7.6565 1.99139C7.65525 2.47268 7.6945 2.86362 7.77491 3.16496C7.70602 3.20101 7.52498 3.22425 7.28039 3.22539C7.16424 3.22593 7.04276 3.22224 6.9046 3.21525C6.90583 3.21531 6.76228 3.20736 6.71313 3.20534C6.71149 3.20368 6.70957 3.2016 6.70743 3.1991C6.69447 3.184 6.67827 3.15959 6.66002 3.12726C6.62404 3.06354 6.58203 2.97271 6.5383 2.86525C6.45729 2.66616 6.37906 2.43026 6.35351 2.31121Z" fill="#FFD018"/>
<path fill-rule="evenodd" clip-rule="evenodd" d="M8.22735 1.78418L8.32452 1.81789C8.5813 1.90697 8.80366 1.93635 8.99149 1.9074C9.37821 1.84781 9.8828 2.04902 9.81958 2.34368C9.79187 2.47281 9.71099 2.71669 9.62689 2.92339C9.51018 3.2102 9.4285 3.35488 9.33295 3.35488C9.32059 3.35488 9.19086 3.36196 9.14762 3.36432C9.13984 3.36475 9.13486 3.36502 9.13387 3.36507C8.99335 3.37218 8.86948 3.37594 8.75033 3.37539C8.40578 3.37378 8.19221 3.33995 8.11593 3.23658L8.09349 3.20616L8.10414 3.16952C8.19462 2.85838 8.2365 2.43155 8.22885 1.89009L8.22735 1.78418ZM9.67786 2.31121C9.70886 2.16672 9.31417 2.00934 9.01291 2.05576C8.82524 2.08469 8.61258 2.06292 8.37487 1.99139C8.37613 2.47268 8.33688 2.86362 8.25646 3.16496C8.32535 3.20101 8.5064 3.22425 8.75099 3.22539C8.86713 3.22593 8.98861 3.22224 9.12677 3.21525C9.12554 3.21531 9.26909 3.20736 9.31825 3.20534C9.31988 3.20368 9.3218 3.2016 9.32394 3.1991C9.33691 3.184 9.3531 3.15959 9.37135 3.12726C9.40733 3.06354 9.44935 2.97271 9.49307 2.86525C9.57408 2.66616 9.65231 2.43026 9.67786 2.31121Z" fill="#FFD018"/>
<path d="M3.9786 10.1603L3.60822 9.23139C5.13871 8.62111 6.60306 8.31421 7.99999 8.31421C9.37952 8.31421 10.6818 8.50307 11.9053 8.88146L11.6099 9.83682C10.484 9.48864 9.28127 9.31421 7.99999 9.31421C6.7361 9.31421 5.39607 9.59506 3.9786 10.1603Z" fill="white"/>
<path d="M6.88696 8.94248L6.91734 8.69434C7.45462 8.7601 7.81337 8.79299 7.99412 8.79311C8.26672 8.80537 8.59163 8.78563 8.96832 8.73358L9.00254 8.98123C8.61177 9.03522 8.27205 9.05586 7.98851 9.04299C7.79982 9.04299 7.43433 9.00948 6.88696 8.94248Z" fill="#272727"/>
<path fill-rule="evenodd" clip-rule="evenodd" d="M5.16188 4C5.16188 4 3.77069 5.25531 4.04526 6.48285C4.35717 8.35159 6.22934 9.00414 6.22934 9.00414L7.22114 8.65267C7.22114 8.65267 5.32094 7.56378 5.32094 6.48285C5.32094 5.40192 5.60554 4 5.60554 4H5.16188Z" fill="#006923"/>
<path fill-rule="evenodd" clip-rule="evenodd" d="M11.0592 4C11.0592 4 12.4504 5.25531 12.1759 6.48285C11.864 8.35159 9.99179 9.00414 9.99179 9.00414L8.99999 8.65267C8.99999 8.65267 10.9002 7.56378 10.9002 6.48285C10.9002 5.40192 10.6156 4 10.6156 4H11.0592Z" fill="#009933"/>
</g>
</g>
</svg>
