<svg width="16" height="12" viewBox="0 0 16 12" fill="none" xmlns="http://www.w3.org/2000/svg">
<mask id="mask0" mask-type="alpha" maskUnits="userSpaceOnUse" x="0" y="0" width="16" height="12">
<rect width="16" height="12" fill="white"/>
</mask>
<g mask="url(#mask0)">
<path fill-rule="evenodd" clip-rule="evenodd" d="M0 0V12H16V0H0Z" fill="#4EC7EE"/>
<mask id="mask1" mask-type="alpha" maskUnits="userSpaceOnUse" x="0" y="0" width="16" height="12">
<path fill-rule="evenodd" clip-rule="evenodd" d="M0 0V12H16V0H0Z" fill="white"/>
</mask>
<g mask="url(#mask1)">
<path d="M2.04498 11.6185C2.01325 11.8535 2.16377 12.0209 2.41629 12.1286C2.75575 12.2734 3.09827 12.1378 3.41333 11.7887L3.00503 11.4202C2.86507 11.5753 2.76394 11.635 2.68586 11.634C2.83873 11.5248 3.03458 11.39 3.27315 11.2298L3.38766 11.0639C3.47962 10.6694 3.19366 10.4557 2.75754 10.4557C2.50066 10.4557 2.29529 10.5065 2.16499 10.6157C1.95092 10.7952 1.98757 11.0818 2.21284 11.2308C2.23071 11.2427 2.24885 11.2533 2.26723 11.2628C2.14085 11.3695 2.06373 11.4797 2.04498 11.6185Z" fill="#FFE402"/>
<path d="M2.28244 11.2477C2.28244 11.2477 2.34483 11.1094 2.31364 11.0375" stroke="#FFE402" stroke-width="0.55"/>
<path d="M4.2847 11.6185C4.31643 11.8535 4.16591 12.0209 3.91339 12.1286C3.57394 12.2734 3.23142 12.1378 2.91635 11.7887L3.32465 11.4202C3.46461 11.5753 3.56575 11.635 3.64382 11.634C3.49095 11.5248 3.2951 11.39 3.05653 11.2298L2.94202 11.0639C2.85006 10.6694 3.13602 10.4557 3.57215 10.4557C3.82902 10.4557 4.03439 10.5065 4.16469 10.6157C4.37876 10.7952 4.34211 11.0818 4.11684 11.2308C4.09897 11.2427 4.08084 11.2533 4.06245 11.2628C4.18883 11.3695 4.26596 11.4797 4.2847 11.6185Z" fill="#FFE402"/>
<path d="M4.29788 11.1346L3.79655 11.3608C3.72618 11.2049 3.70515 11.0632 3.76371 10.9281L4.26833 11.1469C4.28529 11.1078 4.28506 11.1062 4.29788 11.1346Z" fill="#FFE402"/>
<path d="M2.04498 0.381499C2.01325 0.1465 2.16377 -0.0208841 2.41629 -0.128612C2.75575 -0.273434 3.09827 -0.137822 3.41333 0.211284L3.00503 0.579778C2.86507 0.424701 2.76394 0.364953 2.68586 0.365969C2.83873 0.475178 3.03458 0.609999 3.27315 0.770209L3.38766 0.936072C3.47962 1.33057 3.19366 1.54433 2.75754 1.54433C2.50066 1.54433 2.29529 1.4935 2.16499 1.38425C1.95092 1.20476 1.98757 0.918239 2.21284 0.769172C2.23071 0.757347 2.24885 0.746707 2.26723 0.737226C2.14085 0.630504 2.06373 0.520327 2.04498 0.381499Z" fill="#FFE402"/>
<path d="M4.2847 0.381499C4.31643 0.1465 4.16591 -0.0208841 3.91339 -0.128612C3.57394 -0.273434 3.23142 -0.137822 2.91635 0.211284L3.32465 0.579778C3.46461 0.424701 3.56575 0.364953 3.64382 0.365969C3.49095 0.475178 3.2951 0.609999 3.05653 0.770209L2.94202 0.936072C2.85006 1.33057 3.13602 1.54433 3.57215 1.54433C3.82902 1.54433 4.03439 1.4935 4.16469 1.38425C4.37876 1.20476 4.34211 0.918239 4.11684 0.769172C4.09897 0.757347 4.08084 0.746707 4.06245 0.737226C4.18883 0.630504 4.26596 0.520327 4.2847 0.381499Z" fill="#FFE402"/>
<path fill-rule="evenodd" clip-rule="evenodd" d="M2.54689 10.0315C2.23138 10.0406 2.03507 10.1057 2.03507 10.4098C2.03507 10.7452 2.36089 10.8501 2.70754 10.8501C3.02155 10.8501 3.3753 10.6552 3.3753 10.3062C3.3753 10.0938 3.10532 9.66536 2.42551 8.73651C2.40195 8.71457 2.38897 8.70339 2.37858 8.70331C2.41981 8.68036 2.49241 8.65348 2.58821 8.65348C2.62147 8.65348 2.66469 8.6703 2.70754 8.69185V9.05613H3.42727V8.78113C3.42727 8.47044 2.96799 8.10348 2.58821 8.10348C2.25653 8.10348 1.99026 8.26125 1.85539 8.48824C1.7221 8.71256 1.82402 8.92789 2.01544 9.09917C2.30028 9.49202 2.52144 9.81721 2.66015 10.0309C2.60919 10.0304 2.58121 10.0305 2.54689 10.0315ZM2.58069 10.2851C2.57071 10.2829 2.56111 10.2804 2.55214 10.2778C2.55882 10.2848 2.58507 10.3161 2.58507 10.4098C2.58507 10.4608 2.58261 10.4967 2.57932 10.5219C2.48653 10.44 2.46059 10.2973 2.52849 10.1875L2.53017 10.1847L2.51982 10.1642C2.52119 10.1635 2.52257 10.1628 2.52392 10.1621C2.53991 10.1538 2.55305 10.1471 2.53017 10.1847L2.58069 10.2851ZM2.55214 10.2778L2.54261 10.2749C2.54363 10.2753 2.54498 10.2759 2.54655 10.2769L2.55214 10.2778ZM2.8253 10.3062C2.8253 10.2968 2.82211 10.2912 2.81659 10.2882L2.8198 10.2917C2.82345 10.2992 2.8253 10.3041 2.8253 10.3062Z" fill="#FFE402"/>
<path fill-rule="evenodd" clip-rule="evenodd" d="M3.78276 10.0315C4.09827 10.0406 4.29458 10.1057 4.29458 10.4098C4.29458 10.7452 3.96876 10.8501 3.62211 10.8501C3.3081 10.8501 2.95435 10.6552 2.95435 10.3062C2.95435 10.0938 3.22433 9.66536 3.90414 8.73651C3.92771 8.71457 3.94068 8.70339 3.95107 8.70331C3.90985 8.68036 3.83724 8.65348 3.74144 8.65348C3.70818 8.65348 3.66496 8.6703 3.62211 8.69185V9.05613H2.90238V8.78113C2.90238 8.47044 3.36166 8.10348 3.74144 8.10348C4.07312 8.10348 4.33939 8.26125 4.47426 8.48824C4.60755 8.71256 4.50563 8.92789 4.31421 9.09917C4.02937 9.49202 3.80821 9.81721 3.66951 10.0309C3.72046 10.0304 3.74845 10.0305 3.78276 10.0315ZM3.74896 10.2851C3.75894 10.2829 3.76854 10.2804 3.77751 10.2778C3.77083 10.2848 3.74458 10.3161 3.74458 10.4098C3.74458 10.4608 3.74704 10.4967 3.75033 10.5219C3.84312 10.44 3.86906 10.2973 3.80116 10.1875L3.79948 10.1847L3.80983 10.1642C3.80846 10.1635 3.80708 10.1628 3.80573 10.1621C3.78974 10.1538 3.7766 10.1471 3.79948 10.1847L3.74896 10.2851ZM3.77751 10.2778L3.78705 10.2749C3.78602 10.2753 3.78467 10.2759 3.7831 10.2769L3.77751 10.2778ZM3.50435 10.3062C3.50435 10.2968 3.50754 10.2912 3.51306 10.2882L3.50985 10.2917C3.5062 10.2992 3.50435 10.3041 3.50435 10.3062Z" fill="#FFE402"/>
<path fill-rule="evenodd" clip-rule="evenodd" d="M2.54689 6.67737C2.23138 6.66828 2.03507 6.6032 2.03507 6.29906C2.03507 5.96369 2.36089 5.85876 2.70754 5.85876C3.02155 5.85876 3.3753 6.05366 3.3753 6.40269C3.3753 6.61502 3.10532 7.0435 2.42551 7.97235C2.40195 7.99429 2.38897 8.00548 2.37858 8.00555C2.41981 8.0285 2.49241 8.05539 2.58821 8.05539C2.62147 8.05539 2.66469 8.03856 2.70754 8.01701V7.65273H3.42727V7.92773C3.42727 8.23843 2.96799 8.60539 2.58821 8.60539C2.25653 8.60539 1.99026 8.44761 1.85539 8.22062C1.7221 7.9963 1.82402 7.78097 2.01544 7.60969C2.30028 7.21684 2.52144 6.89166 2.66015 6.678C2.60919 6.67842 2.58121 6.67835 2.54689 6.67737ZM2.58069 6.42377C2.57071 6.42599 2.56111 6.42842 2.55214 6.43102C2.55882 6.42402 2.58507 6.39273 2.58507 6.29906C2.58507 6.24807 2.58261 6.21219 2.57932 6.18697C2.48653 6.26883 2.46059 6.41153 2.52849 6.52138L2.53017 6.52412L2.51982 6.54469C2.52119 6.54538 2.52257 6.54609 2.52392 6.54679C2.53991 6.55502 2.55305 6.56178 2.53017 6.52412L2.58069 6.42377ZM2.55214 6.43102L2.54261 6.43394C2.54363 6.43361 2.54498 6.43297 2.54655 6.43195L2.55214 6.43102ZM2.8253 6.40269C2.8253 6.41208 2.82211 6.41766 2.81659 6.42065L2.8198 6.41714C2.82345 6.40962 2.8253 6.40477 2.8253 6.40269Z" fill="#FFE402"/>
<path fill-rule="evenodd" clip-rule="evenodd" d="M3.78276 6.67737C4.09827 6.66828 4.29458 6.6032 4.29458 6.29906C4.29458 5.96369 3.96876 5.85876 3.62211 5.85876C3.3081 5.85876 2.95435 6.05366 2.95435 6.40269C2.95435 6.61502 3.22433 7.0435 3.90414 7.97235C3.92771 7.99429 3.94068 8.00548 3.95107 8.00555C3.90985 8.0285 3.83724 8.05539 3.74144 8.05539C3.70818 8.05539 3.66496 8.03856 3.62211 8.01701V7.65273H2.90238V7.92773C2.90238 8.23843 3.36166 8.60539 3.74144 8.60539C4.07312 8.60539 4.33939 8.44761 4.47426 8.22062C4.60755 7.9963 4.50563 7.78097 4.31421 7.60969C4.02937 7.21684 3.80821 6.89166 3.66951 6.678C3.72046 6.67842 3.74845 6.67835 3.78276 6.67737ZM3.74896 6.42377C3.75894 6.42599 3.76854 6.42842 3.77751 6.43102C3.77083 6.42402 3.74458 6.39273 3.74458 6.29906C3.74458 6.24807 3.74704 6.21219 3.75033 6.18697C3.84312 6.26883 3.86906 6.41153 3.80116 6.52138L3.79948 6.52412L3.80983 6.54469C3.80846 6.54538 3.80708 6.54609 3.80573 6.54679C3.78974 6.55502 3.7766 6.56178 3.79948 6.52412L3.74896 6.42377ZM3.77751 6.43102L3.78705 6.43394C3.78602 6.43361 3.78467 6.43297 3.7831 6.43195L3.77751 6.43102ZM3.50435 6.40269C3.50435 6.41208 3.50754 6.41766 3.51306 6.42065L3.50985 6.41714C3.5062 6.40962 3.50435 6.40477 3.50435 6.40269Z" fill="#FFE402"/>
<path fill-rule="evenodd" clip-rule="evenodd" d="M2.54689 5.32263C2.23138 5.33172 2.03507 5.3968 2.03507 5.70094C2.03507 6.03631 2.36089 6.14124 2.70754 6.14124C3.02155 6.14124 3.3753 5.94634 3.3753 5.59731C3.3753 5.38498 3.10532 4.9565 2.42551 4.02765C2.40195 4.00571 2.38897 3.99452 2.37858 3.99445C2.41981 3.9715 2.49241 3.94461 2.58821 3.94461C2.62147 3.94461 2.66469 3.96144 2.70754 3.98299V4.34727H3.42727V4.07227C3.42727 3.76157 2.96799 3.39461 2.58821 3.39461C2.25653 3.39461 1.99026 3.55239 1.85539 3.77938C1.7221 4.0037 1.82402 4.21903 2.01544 4.39031C2.30028 4.78316 2.52144 5.10834 2.66015 5.322C2.60919 5.32158 2.58121 5.32165 2.54689 5.32263ZM2.58069 5.57623C2.57071 5.57401 2.56111 5.57158 2.55214 5.56898C2.55882 5.57598 2.58507 5.60727 2.58507 5.70094C2.58507 5.75193 2.58261 5.78781 2.57932 5.81303C2.48653 5.73117 2.46059 5.58847 2.52849 5.47862L2.53017 5.47588L2.51982 5.45531C2.52119 5.45462 2.52257 5.45391 2.52392 5.45321C2.53991 5.44498 2.55305 5.43822 2.53017 5.47588L2.58069 5.57623ZM2.55214 5.56898L2.54261 5.56606C2.54363 5.56639 2.54498 5.56703 2.54655 5.56805L2.55214 5.56898ZM2.8253 5.59731C2.8253 5.58792 2.82211 5.58234 2.81659 5.57935L2.8198 5.58286C2.82345 5.59038 2.8253 5.59523 2.8253 5.59731Z" fill="#FFE402"/>
<path fill-rule="evenodd" clip-rule="evenodd" d="M3.78276 5.32263C4.09827 5.33172 4.29458 5.3968 4.29458 5.70094C4.29458 6.03631 3.96876 6.14124 3.62211 6.14124C3.3081 6.14124 2.95435 5.94634 2.95435 5.59731C2.95435 5.38498 3.22433 4.9565 3.90414 4.02765C3.92771 4.00571 3.94068 3.99452 3.95107 3.99445C3.90985 3.9715 3.83724 3.94461 3.74144 3.94461C3.70818 3.94461 3.66496 3.96144 3.62211 3.98299V4.34727H2.90238V4.07227C2.90238 3.76157 3.36166 3.39461 3.74144 3.39461C4.07312 3.39461 4.33939 3.55239 4.47426 3.77938C4.60755 4.0037 4.50563 4.21903 4.31421 4.39031C4.02937 4.78316 3.80821 5.10834 3.66951 5.322C3.72046 5.32158 3.74845 5.32165 3.78276 5.32263ZM3.74896 5.57623C3.75894 5.57401 3.76854 5.57158 3.77751 5.56898C3.77083 5.57598 3.74458 5.60727 3.74458 5.70094C3.74458 5.75193 3.74704 5.78781 3.75033 5.81303C3.84312 5.73117 3.86906 5.58847 3.80116 5.47862L3.79948 5.47588L3.80983 5.45531C3.80846 5.45462 3.80708 5.45391 3.80573 5.45321C3.78974 5.44498 3.7766 5.43822 3.79948 5.47588L3.74896 5.57623ZM3.77751 5.56898L3.78705 5.56606C3.78602 5.56639 3.78467 5.56703 3.7831 5.56805L3.77751 5.56898ZM3.50435 5.59731C3.50435 5.58792 3.50754 5.58234 3.51306 5.57935L3.50985 5.58286C3.5062 5.59038 3.50435 5.59523 3.50435 5.59731Z" fill="#FFE402"/>
<path fill-rule="evenodd" clip-rule="evenodd" d="M2.54689 1.9685C2.23138 1.95942 2.03507 1.89434 2.03507 1.5902C2.03507 1.25483 2.36089 1.1499 2.70754 1.1499C3.02155 1.1499 3.3753 1.34479 3.3753 1.69382C3.3753 1.90616 3.10532 2.33464 2.42551 3.26349C2.40195 3.28543 2.38897 3.29661 2.37858 3.29669C2.41981 3.31964 2.49241 3.34652 2.58821 3.34652C2.62147 3.34652 2.66469 3.3297 2.70754 3.30815V2.94387H3.42727V3.21887C3.42727 3.52956 2.96799 3.89652 2.58821 3.89652C2.25653 3.89652 1.99026 3.73875 1.85539 3.51176C1.7221 3.28744 1.82402 3.07211 2.01544 2.90083C2.30028 2.50798 2.52144 2.18279 2.66015 1.96913C2.60919 1.96956 2.58121 1.96949 2.54689 1.9685ZM2.58069 1.71491C2.57071 1.71713 2.56111 1.71956 2.55214 1.72216C2.55882 1.71516 2.58507 1.68386 2.58507 1.5902C2.58507 1.53921 2.58261 1.50333 2.57932 1.47811C2.48653 1.55997 2.46059 1.70267 2.52849 1.81252L2.53017 1.81526L2.51982 1.83583C2.52119 1.83652 2.52257 1.83723 2.52392 1.83792C2.53991 1.84616 2.55305 1.85292 2.53017 1.81526L2.58069 1.71491ZM2.55214 1.72216L2.54261 1.72508C2.54363 1.72474 2.54498 1.72411 2.54655 1.72309L2.55214 1.72216ZM2.8253 1.69382C2.8253 1.70321 2.82211 1.7088 2.81659 1.71179L2.8198 1.70828C2.82345 1.70076 2.8253 1.6959 2.8253 1.69382Z" fill="#FFE402"/>
<path fill-rule="evenodd" clip-rule="evenodd" d="M3.78276 1.9685C4.09827 1.95942 4.29458 1.89434 4.29458 1.5902C4.29458 1.25483 3.96876 1.1499 3.62211 1.1499C3.3081 1.1499 2.95435 1.34479 2.95435 1.69382C2.95435 1.90616 3.22433 2.33464 3.90414 3.26349C3.92771 3.28543 3.94068 3.29661 3.95107 3.29669C3.90985 3.31964 3.83724 3.34652 3.74144 3.34652C3.70818 3.34652 3.66496 3.3297 3.62211 3.30815V2.94387H2.90238V3.21887C2.90238 3.52956 3.36166 3.89652 3.74144 3.89652C4.07312 3.89652 4.33939 3.73875 4.47426 3.51176C4.60755 3.28744 4.50563 3.07211 4.31421 2.90083C4.02937 2.50798 3.80821 2.18279 3.66951 1.96913C3.72046 1.96956 3.74845 1.96949 3.78276 1.9685ZM3.74896 1.71491C3.75894 1.71713 3.76854 1.71956 3.77751 1.72216C3.77083 1.71516 3.74458 1.68386 3.74458 1.5902C3.74458 1.53921 3.74704 1.50333 3.75033 1.47811C3.84312 1.55997 3.86906 1.70267 3.80116 1.81252L3.79948 1.81526L3.80983 1.83583C3.80846 1.83652 3.80708 1.83723 3.80573 1.83792C3.78974 1.84616 3.7766 1.85292 3.79948 1.81526L3.74896 1.71491ZM3.77751 1.72216L3.78705 1.72508C3.78602 1.72474 3.78467 1.72411 3.7831 1.72309L3.77751 1.72216ZM3.50435 1.69382C3.50435 1.70321 3.50754 1.7088 3.51306 1.71179L3.50985 1.70828C3.5062 1.70076 3.50435 1.6959 3.50435 1.69382Z" fill="#FFE402"/>
<path fill-rule="evenodd" clip-rule="evenodd" d="M9.49336 1.39233L9.69808 2.15619C9.69808 2.15619 9.70049 2.32973 9.50444 2.32973C9.30838 2.32973 9.29849 2.15619 9.29849 2.15619L9.49336 1.39233ZM11.2252 4.30992C11.2252 5.30404 10.4663 6.10992 9.53017 6.10992C8.59405 6.10992 7.83517 5.30404 7.83517 4.30992C7.83517 3.31581 8.59405 2.50992 9.53017 2.50992C10.4663 2.50992 11.2252 3.31581 11.2252 4.30992ZM10.2906 2.31022L10.3182 1.51989L9.90849 2.1934C9.90849 2.1934 9.8672 2.36225 10.0547 2.41957C10.2422 2.47689 10.2906 2.31022 10.2906 2.31022ZM11.0703 1.89414L10.8129 2.64189C10.8129 2.64189 10.7179 2.78711 10.5553 2.67748C10.3928 2.56784 10.4816 2.41844 10.4816 2.41844L11.0703 1.89414ZM11.2184 3.12174L11.6832 2.48193L10.9669 2.8112C10.9669 2.8112 10.8383 2.9281 10.9616 3.08046C11.085 3.23282 11.2184 3.12174 11.2184 3.12174ZM12.1055 3.23873L11.4657 3.7036C11.4657 3.7036 11.3046 3.76804 11.2343 3.585C11.1641 3.40197 11.3225 3.33055 11.3225 3.33055L12.1055 3.23873ZM11.5439 4.34107L12.2916 4.08356L11.516 3.94245C11.516 3.94245 11.3436 3.96442 11.3573 4.16C11.371 4.35557 11.5439 4.34107 11.5439 4.34107ZM12.2303 4.94789L11.4399 4.97554C11.4399 4.97554 11.2703 4.93885 11.3144 4.74782C11.3585 4.55679 11.5298 4.58619 11.5298 4.58619L12.2303 4.94789ZM11.1629 5.55051L11.9268 5.75514L11.3627 5.20446C11.3627 5.20446 11.2075 5.12625 11.1095 5.29603C11.0114 5.46582 11.1629 5.55051 11.1629 5.55051ZM11.4082 6.43376L10.7375 6.01473C10.7375 6.01473 10.6174 5.88945 10.7608 5.75574C10.9041 5.62204 11.0297 5.74221 11.0297 5.74221L11.4082 6.43376ZM10.2014 6.32681L10.7203 6.92361L10.5606 6.15164C10.5606 6.15164 10.4756 6 10.2994 6.08594C10.1232 6.17189 10.2014 6.32681 10.2014 6.32681ZM9.92417 7.18129L9.60247 6.45887C9.60247 6.45887 9.57295 6.28784 9.76659 6.25717C9.96023 6.2265 9.99714 6.39636 9.99714 6.39636L9.92417 7.18129ZM8.99949 6.39636L9.0822 7.18284L9.39416 6.45887C9.39416 6.45887 9.41155 6.28592 9.2179 6.25525C9.02426 6.22458 8.99949 6.39636 8.99949 6.39636ZM8.28519 6.92795L8.43604 6.15165C8.43604 6.15165 8.50995 5.99462 8.68616 6.08056C8.86237 6.16651 8.79518 6.32682 8.79518 6.32682L8.28519 6.92795ZM7.96689 5.74223L7.59567 6.44051L8.25913 6.01475C8.25913 6.01475 8.37026 5.88109 8.22687 5.74738C8.08349 5.61367 7.96689 5.74223 7.96689 5.74223ZM7.07475 5.76371L7.6339 5.20448C7.6339 5.20448 7.78299 5.11562 7.88102 5.28541C7.97905 5.4552 7.8337 5.55053 7.8337 5.55053L7.07475 5.76371ZM7.4668 4.58622L6.76857 4.95753L7.55669 4.97557C7.55669 4.97557 7.72356 4.9269 7.67946 4.73587C7.63535 4.54484 7.4668 4.58622 7.4668 4.58622ZM6.70428 4.09342L7.48056 3.94248C7.48056 3.94248 7.65385 3.95218 7.64017 4.14776C7.6265 4.34334 7.45269 4.34109 7.45269 4.34109L6.70428 4.09342ZM7.67406 3.33057L6.88757 3.24796L7.53086 3.70362C7.53086 3.70362 7.69642 3.75658 7.76668 3.57355C7.83694 3.39052 7.67406 3.33057 7.67406 3.33057ZM7.30721 2.48961L8.02968 2.81122C8.02968 2.81122 8.16606 2.91857 8.04268 3.07093C7.9193 3.22329 7.77821 3.12176 7.77821 3.12176L7.30721 2.48961ZM8.51495 2.41846L7.91809 1.89967L8.18368 2.64191C8.18368 2.64191 8.28892 2.78025 8.45146 2.67062C8.61399 2.56099 8.51495 2.41846 8.51495 2.41846ZM8.66898 1.52278L9.08809 2.1934C9.08809 2.1934 9.14113 2.35866 8.95364 2.41598C8.76616 2.4733 8.70596 2.31023 8.70596 2.31023L8.66898 1.52278Z" fill="#FFE402"/>
<path d="M5.77385 3.99997L6.49543 4.07295C6.14914 6.41998 7.08307 7.47742 9.51365 7.47742C11.974 7.47742 13.1134 6.37201 13.1134 3.99997C13.1134 3.99997 13.6256 3.97092 13.6214 4.07295C13.5109 6.80209 12.3396 8.55393 9.442 8.55393C6.4063 8.55393 5.33767 6.95621 5.77385 3.99997Z" fill="#FFE402"/>
<path d="M5.98921 5.39987L6.67071 5.47285C6.34366 7.81988 7.22571 8.87732 9.52128 8.87732C11.845 8.87732 12.921 7.77192 12.921 5.39987C12.921 5.39987 13.4048 5.37082 13.4009 5.47285C13.2965 8.202 12.1903 9.95383 9.45361 9.95383C6.58653 9.95383 5.57726 8.35611 5.98921 5.39987Z" fill="#FFE402"/>
</g>
</g>
</svg>
