<svg width="16" height="12" viewBox="0 0 16 12" fill="none" xmlns="http://www.w3.org/2000/svg">
<mask id="mask0" mask-type="alpha" maskUnits="userSpaceOnUse" x="0" y="0" width="16" height="12">
<rect width="16" height="12" fill="white"/>
</mask>
<g mask="url(#mask0)">
<path fill-rule="evenodd" clip-rule="evenodd" d="M0 0V12H16V0H0Z" fill="#F7FCFF"/>
<mask id="mask1" mask-type="alpha" maskUnits="userSpaceOnUse" x="0" y="0" width="16" height="12">
<path fill-rule="evenodd" clip-rule="evenodd" d="M0 0V12H16V0H0Z" fill="white"/>
</mask>
<g mask="url(#mask1)">
<path fill-rule="evenodd" clip-rule="evenodd" d="M-0.752838 1.64574L-0.00926578 2.35426C0.604747 1.77383 1.18411 1.5 1.73469 1.5C2.0007 1.5 2.11399 1.56425 2.42077 1.85426C2.90739 2.31425 3.23488 2.5 3.85043 2.5C4.46598 2.5 4.79347 2.31425 5.28009 1.85426C5.58687 1.56425 5.70016 1.5 5.96617 1.5C6.23218 1.5 6.34547 1.56425 6.65226 1.85426C7.13887 2.31425 7.46637 2.5 8.08191 2.5C8.69746 2.5 9.02495 2.31425 9.51157 1.85426C9.81835 1.56425 9.93164 1.5 10.1977 1.5C10.4637 1.5 10.577 1.56425 10.8837 1.85426C11.3704 2.31425 11.6978 2.5 12.3134 2.5C12.9289 2.5 13.2564 2.31425 13.7431 1.85426C14.0498 1.56425 14.1631 1.5 14.4291 1.5C14.9797 1.5 15.5591 1.77383 16.1731 2.35426L16.9167 1.64574C16.1202 0.892834 15.289 0.5 14.4291 0.5C13.8136 0.5 13.4861 0.685748 12.9995 1.14574C12.6927 1.43575 12.5794 1.5 12.3134 1.5C12.0474 1.5 11.9341 1.43575 11.6273 1.14574C11.1407 0.685748 10.8132 0.5 10.1977 0.5C9.58211 0.5 9.25461 0.685748 8.768 1.14574C8.46121 1.43575 8.34793 1.5 8.08191 1.5C7.8159 1.5 7.70261 1.43575 7.39583 1.14574C6.90921 0.685748 6.58172 0.5 5.96617 0.5C5.35063 0.5 5.02313 0.685748 4.53651 1.14574C4.22973 1.43575 4.11644 1.5 3.85043 1.5C3.58442 1.5 3.47113 1.43575 3.16435 1.14574C2.67773 0.685748 2.35023 0.5 1.73469 0.5C0.874778 0.5 0.0436426 0.892834 -0.752838 1.64574ZM-0.00926578 4.35426L-0.752838 3.64574C0.0436426 2.89283 0.874778 2.5 1.73469 2.5C2.35023 2.5 2.67773 2.68575 3.16435 3.14574C3.47113 3.43575 3.58442 3.5 3.85043 3.5C4.11644 3.5 4.22973 3.43575 4.53651 3.14574C5.02313 2.68575 5.35063 2.5 5.96617 2.5C6.58172 2.5 6.90921 2.68575 7.39583 3.14574C7.70261 3.43575 7.8159 3.5 8.08191 3.5C8.34793 3.5 8.46121 3.43575 8.768 3.14574C9.25461 2.68575 9.58211 2.5 10.1977 2.5C10.8132 2.5 11.1407 2.68575 11.6273 3.14574C11.9341 3.43575 12.0474 3.5 12.3134 3.5C12.5794 3.5 12.6927 3.43575 12.9995 3.14574C13.4861 2.68575 13.8136 2.5 14.4291 2.5C15.289 2.5 16.1202 2.89283 16.9167 3.64574L16.1731 4.35426C15.5591 3.77383 14.9797 3.5 14.4291 3.5C14.1631 3.5 14.0498 3.56425 13.7431 3.85426C13.2564 4.31425 12.9289 4.5 12.3134 4.5C11.6978 4.5 11.3704 4.31425 10.8837 3.85426C10.577 3.56425 10.4637 3.5 10.1977 3.5C9.93164 3.5 9.81835 3.56425 9.51157 3.85426C9.02495 4.31425 8.69746 4.5 8.08191 4.5C7.46637 4.5 7.13887 4.31425 6.65226 3.85426C6.34547 3.56425 6.23218 3.5 5.96617 3.5C5.70016 3.5 5.58687 3.56425 5.28009 3.85426C4.79347 4.31425 4.46598 4.5 3.85043 4.5C3.23488 4.5 2.90739 4.31425 2.42077 3.85426C2.11399 3.56425 2.0007 3.5 1.73469 3.5C1.18411 3.5 0.604747 3.77383 -0.00926578 4.35426ZM-0.00926578 6.35426L-0.752838 5.64574C0.0436426 4.89283 0.874778 4.5 1.73469 4.5C2.35023 4.5 2.67773 4.68575 3.16435 5.14574C3.47113 5.43575 3.58442 5.5 3.85043 5.5C4.11644 5.5 4.22973 5.43575 4.53651 5.14574C5.02313 4.68575 5.35063 4.5 5.96617 4.5C6.58172 4.5 6.90921 4.68575 7.39583 5.14574C7.70261 5.43575 7.8159 5.5 8.08191 5.5C8.34793 5.5 8.46121 5.43575 8.768 5.14574C9.25461 4.68575 9.58211 4.5 10.1977 4.5C10.8132 4.5 11.1407 4.68575 11.6273 5.14574C11.9341 5.43575 12.0474 5.5 12.3134 5.5C12.5794 5.5 12.6927 5.43575 12.9995 5.14574C13.4861 4.68575 13.8136 4.5 14.4291 4.5C15.289 4.5 16.1202 4.89283 16.9167 5.64574L16.1731 6.35426C15.5591 5.77383 14.9797 5.5 14.4291 5.5C14.1631 5.5 14.0498 5.56425 13.7431 5.85426C13.2564 6.31425 12.9289 6.5 12.3134 6.5C11.6978 6.5 11.3704 6.31425 10.8837 5.85426C10.577 5.56425 10.4637 5.5 10.1977 5.5C9.93164 5.5 9.81835 5.56425 9.51157 5.85426C9.02495 6.31425 8.69746 6.5 8.08191 6.5C7.46637 6.5 7.13887 6.31425 6.65226 5.85426C6.34547 5.56425 6.23218 5.5 5.96617 5.5C5.70016 5.5 5.58687 5.56425 5.28009 5.85426C4.79347 6.31425 4.46598 6.5 3.85043 6.5C3.23488 6.5 2.90739 6.31425 2.42077 5.85426C2.11399 5.56425 2.0007 5.5 1.73469 5.5C1.18411 5.5 0.604747 5.77383 -0.00926578 6.35426ZM-0.00926578 8.35426L-0.752838 7.64574C0.0436426 6.89283 0.874778 6.5 1.73469 6.5C2.35023 6.5 2.67773 6.68575 3.16435 7.14574C3.47113 7.43575 3.58442 7.5 3.85043 7.5C4.11644 7.5 4.22973 7.43575 4.53651 7.14574C5.02313 6.68575 5.35063 6.5 5.96617 6.5C6.58172 6.5 6.90921 6.68575 7.39583 7.14574C7.70261 7.43575 7.8159 7.5 8.08191 7.5C8.34793 7.5 8.46121 7.43575 8.768 7.14574C9.25461 6.68575 9.58211 6.5 10.1977 6.5C10.8132 6.5 11.1407 6.68575 11.6273 7.14574C11.9341 7.43575 12.0474 7.5 12.3134 7.5C12.5794 7.5 12.6927 7.43575 12.9995 7.14574C13.4861 6.68575 13.8136 6.5 14.4291 6.5C15.289 6.5 16.1202 6.89283 16.9167 7.64574L16.1731 8.35426C15.5591 7.77383 14.9797 7.5 14.4291 7.5C14.1631 7.5 14.0498 7.56425 13.7431 7.85426C13.2564 8.31425 12.9289 8.5 12.3134 8.5C11.6978 8.5 11.3704 8.31425 10.8837 7.85426C10.577 7.56425 10.4637 7.5 10.1977 7.5C9.93164 7.5 9.81835 7.56425 9.51157 7.85426C9.02495 8.31425 8.69746 8.5 8.08191 8.5C7.46637 8.5 7.13887 8.31425 6.65226 7.85426C6.34547 7.56425 6.23218 7.5 5.96617 7.5C5.70016 7.5 5.58687 7.56425 5.28009 7.85426C4.79347 8.31425 4.46598 8.5 3.85043 8.5C3.23488 8.5 2.90739 8.31425 2.42077 7.85426C2.11399 7.56425 2.0007 7.5 1.73469 7.5C1.18411 7.5 0.604747 7.77383 -0.00926578 8.35426ZM-0.00926578 10.3543L-0.752838 9.64574C0.0436426 8.89283 0.874778 8.5 1.73469 8.5C2.35023 8.5 2.67773 8.68575 3.16435 9.14574C3.47113 9.43575 3.58442 9.5 3.85043 9.5C4.11644 9.5 4.22973 9.43575 4.53651 9.14574C5.02313 8.68575 5.35063 8.5 5.96617 8.5C6.58172 8.5 6.90921 8.68575 7.39583 9.14574C7.70261 9.43575 7.8159 9.5 8.08191 9.5C8.34793 9.5 8.46121 9.43575 8.768 9.14574C9.25461 8.68575 9.58211 8.5 10.1977 8.5C10.8132 8.5 11.1407 8.68575 11.6273 9.14574C11.9341 9.43575 12.0474 9.5 12.3134 9.5C12.5794 9.5 12.6927 9.43575 12.9995 9.14574C13.4861 8.68575 13.8136 8.5 14.4291 8.5C15.289 8.5 16.1202 8.89283 16.9167 9.64574L16.1731 10.3543C15.5591 9.77383 14.9797 9.5 14.4291 9.5C14.1631 9.5 14.0498 9.56425 13.7431 9.85426C13.2564 10.3143 12.9289 10.5 12.3134 10.5C11.6978 10.5 11.3704 10.3143 10.8837 9.85426C10.577 9.56425 10.4637 9.5 10.1977 9.5C9.93164 9.5 9.81835 9.56425 9.51157 9.85426C9.02495 10.3143 8.69746 10.5 8.08191 10.5C7.46637 10.5 7.13887 10.3143 6.65226 9.85426C6.34547 9.56425 6.23218 9.5 5.96617 9.5C5.70016 9.5 5.58687 9.56425 5.28009 9.85426C4.79347 10.3143 4.46598 10.5 3.85043 10.5C3.23488 10.5 2.90739 10.3143 2.42077 9.85426C2.11399 9.56425 2.0007 9.5 1.73469 9.5C1.18411 9.5 0.604747 9.77383 -0.00926578 10.3543ZM-0.00926578 12.3543L-0.752838 11.6457C0.0436426 10.8928 0.874778 10.5 1.73469 10.5C2.35023 10.5 2.67773 10.6857 3.16435 11.1457C3.47113 11.4357 3.58442 11.5 3.85043 11.5C4.11644 11.5 4.22973 11.4357 4.53651 11.1457C5.02313 10.6857 5.35063 10.5 5.96617 10.5C6.58172 10.5 6.90921 10.6857 7.39583 11.1457C7.70261 11.4357 7.8159 11.5 8.08191 11.5C8.34793 11.5 8.46121 11.4357 8.768 11.1457C9.25461 10.6857 9.58211 10.5 10.1977 10.5C10.8132 10.5 11.1407 10.6857 11.6273 11.1457C11.9341 11.4357 12.0474 11.5 12.3134 11.5C12.5794 11.5 12.6927 11.4357 12.9995 11.1457C13.4861 10.6857 13.8136 10.5 14.4291 10.5C15.289 10.5 16.1202 10.8928 16.9167 11.6457L16.1731 12.3543C15.5591 11.7738 14.9797 11.5 14.4291 11.5C14.1631 11.5 14.0498 11.5643 13.7431 11.8543C13.2564 12.3143 12.9289 12.5 12.3134 12.5C11.6978 12.5 11.3704 12.3143 10.8837 11.8543C10.577 11.5643 10.4637 11.5 10.1977 11.5C9.93164 11.5 9.81835 11.5643 9.51157 11.8543C9.02495 12.3143 8.69746 12.5 8.08191 12.5C7.46637 12.5 7.13887 12.3143 6.65226 11.8543C6.34547 11.5643 6.23218 11.5 5.96617 11.5C5.70016 11.5 5.58687 11.5643 5.28009 11.8543C4.79347 12.3143 4.46598 12.5 3.85043 12.5C3.23488 12.5 2.90739 12.3143 2.42077 11.8543C2.11399 11.5643 2.0007 11.5 1.73469 11.5C1.18411 11.5 0.604747 11.7738 -0.00926578 12.3543Z" fill="#2E42A5"/>
<mask id="mask2" mask-type="alpha" maskUnits="userSpaceOnUse" x="0" y="0" width="7" height="5">
<rect width="7" height="5" fill="white"/>
</mask>
<g mask="url(#mask2)">
<rect width="7" height="6" fill="#2E42A5"/>
<path d="M-1.07889 5.66651L0.749243 6.4386L8.19533 0.728253L9.15963 -0.419095L7.20471 -0.677149L4.16763 1.7836L1.72309 3.44157L-1.07889 5.66651Z" fill="white"/>
<path d="M-0.828613 6.20746L0.102735 6.65552L8.81336 -0.525689H7.50564L-0.828613 6.20746Z" fill="#F50100"/>
<path d="M9.07889 5.66651L7.25076 6.4386L-0.195333 0.728253L-1.15963 -0.419095L0.795292 -0.677149L3.83237 1.7836L6.27691 3.44157L9.07889 5.66651Z" fill="white"/>
<path d="M9.01651 6.05475L8.08516 6.50281L4.37609 3.42816L3.27643 3.08464L-1.25242 -0.415155H0.0553045L4.5816 3.00157L5.78389 3.41349L9.01651 6.05475Z" fill="#F50100"/>
<mask id="path-12-outside-1" maskUnits="userSpaceOnUse" x="-0.992249" y="-1" width="9" height="7" fill="black">
<rect fill="white" x="-0.992249" y="-1" width="9" height="7"/>
<path fill-rule="evenodd" clip-rule="evenodd" d="M4.00001 0H3.00001V2H0.00775146V3H3.00001V5H4.00001V3H7.00775V2H4.00001V0Z"/>
</mask>
<path fill-rule="evenodd" clip-rule="evenodd" d="M4.00001 0H3.00001V2H0.00775146V3H3.00001V5H4.00001V3H7.00775V2H4.00001V0Z" fill="#F50100"/>
<path d="M3.00001 0V-0.5H2.50001V0H3.00001ZM4.00001 0H4.50001V-0.5H4.00001V0ZM3.00001 2V2.5H3.50001V2H3.00001ZM0.00775146 2V1.5H-0.492249V2H0.00775146ZM0.00775146 3H-0.492249V3.5H0.00775146V3ZM3.00001 3H3.50001V2.5H3.00001V3ZM3.00001 5H2.50001V5.5H3.00001V5ZM4.00001 5V5.5H4.50001V5H4.00001ZM4.00001 3V2.5H3.50001V3H4.00001ZM7.00775 3V3.5H7.50775V3H7.00775ZM7.00775 2H7.50775V1.5H7.00775V2ZM4.00001 2H3.50001V2.5H4.00001V2ZM3.00001 0.5H4.00001V-0.5H3.00001V0.5ZM3.50001 2V0H2.50001V2H3.50001ZM0.00775146 2.5H3.00001V1.5H0.00775146V2.5ZM0.507751 3V2H-0.492249V3H0.507751ZM3.00001 2.5H0.00775146V3.5H3.00001V2.5ZM3.50001 5V3H2.50001V5H3.50001ZM4.00001 4.5H3.00001V5.5H4.00001V4.5ZM3.50001 3V5H4.50001V3H3.50001ZM7.00775 2.5H4.00001V3.5H7.00775V2.5ZM6.50775 2V3H7.50775V2H6.50775ZM4.00001 2.5H7.00775V1.5H4.00001V2.5ZM3.50001 0V2H4.50001V0H3.50001Z" fill="#F7FCFF" mask="url(#path-12-outside-1)"/>
</g>
<rect x="10.2" y="4.68933" width="0.5" height="6.31068" rx="0.25" fill="#D86D00"/>
<path d="M10.2021 1.02881C10.713 1.72941 10.7777 2.67022 10.713 3.51309L10.3141 3.48421C10.3758 2.68016 10.2021 1.02881 10.2021 1.02881Z" fill="#449A01"/>
<path d="M10.8536 3.6921L10.4856 3.53973C10.8403 2.41748 12.6098 1.46191 12.6098 1.46191C11.8172 1.84062 11.5477 2.86743 10.8536 3.6921Z" fill="#449A01"/>
<path d="M10.6882 3.92521L10.495 3.58518C11.4408 2.92754 12.969 2.78564 12.969 2.78564C12.1806 3.00935 11.3844 3.55225 10.6882 3.92521Z" fill="#449A01"/>
<path d="M10.4421 4.09071L10.6088 3.73767C12.4589 4.312 12.7302 5.27232 12.7302 5.27232C12.4874 5.05802 11.7158 4.65742 10.4421 4.09071Z" fill="#449A01"/>
<path d="M10.2476 4.06487L10.6405 3.99182C10.7765 4.68127 11.1271 5.09902 11.3126 5.54158C11.3126 5.54158 10.2742 5.07781 10.2476 4.06487Z" fill="#449A01"/>
<path d="M10.2177 3.74158L10.6413 3.8481C9.9463 4.69777 8.91355 5.1441 8.50519 5.29001C8.50519 5.29001 9.4025 4.48069 10.2177 3.74158Z" fill="#449A01"/>
<path d="M10.4058 3.55771L10.3414 3.9525C9.51383 3.70009 8.02417 3.80584 8.02417 3.80584C8.6495 3.65774 9.51383 3.41239 10.4058 3.55771Z" fill="#449A01"/>
<path d="M10.4773 3.35568L10.3146 3.71044C9.09265 3.18211 8.43958 2.19458 8.43958 2.19458C8.48104 2.37623 9.39832 2.88915 10.4773 3.35568Z" fill="#449A01"/>
<path fill-rule="evenodd" clip-rule="evenodd" d="M10.5 4C10.7761 4 11 3.77614 11 3.5C11 3.22386 10.7761 3 10.5 3C10.2239 3 10 3.22386 10 3.5C10 3.77614 10.2239 4 10.5 4Z" fill="#449A01"/>
<path fill-rule="evenodd" clip-rule="evenodd" d="M11.956 7.65387V7.58169C11.7255 7.39972 11.4842 7.30874 11.232 7.30874C10.9903 7.19101 10.7455 7.14532 10.4979 7.17165C10.4979 7.17081 10.498 7.17038 10.498 7.17038C10.1256 7.13029 9.7503 7.30874 9.7503 7.30874C9.37202 7.30874 9.02637 7.58169 9.02637 7.58169V7.65387L9.47822 8.15321C9.47822 8.15321 9.60541 8.63383 10.4961 8.52087V8.52209C10.4961 8.52209 11.0859 8.50438 11.1273 8.48921C11.1438 8.48319 11.1608 8.47771 11.1782 8.47212C11.2938 8.43501 11.4256 8.39265 11.5041 8.15321L11.956 7.65387ZM10.4961 7.19373C10.4833 7.35997 10.4099 8.36212 10.4961 8.51749V7.19373Z" fill="#F50100"/>
<path fill-rule="evenodd" clip-rule="evenodd" d="M10.0973 6.87593C9.89243 6.87593 9.8083 6.93083 9.76024 7.09293C9.72961 7.19622 9.75932 7.28439 9.85563 7.36669L9.80068 7.44455C9.68096 7.34226 9.63565 7.21789 9.67032 7.07965C9.43841 7.0709 9.26521 7.0979 9.15161 7.15891C9.05311 7.21182 9.03509 7.34605 9.10963 7.57956L9.02509 7.61223C8.93738 7.33744 8.96243 7.15082 9.11231 7.07032C9.24437 6.99938 9.43685 6.97051 9.69068 6.98183L9.6893 7.01953C9.75432 6.84484 9.8739 6.77734 10.0973 6.77734C10.2317 6.77734 10.3409 6.81045 10.4232 6.87767V6.83426H10.6024V6.8593C10.6796 6.80953 10.7767 6.78496 10.8925 6.78496C11.1205 6.78496 11.2404 6.8553 11.3045 7.03821L11.3042 7.03113C11.558 7.01981 11.7505 7.04868 11.8826 7.11961C12.0325 7.20011 12.0575 7.38673 11.9698 7.66153L11.8853 7.62886C11.9598 7.39535 11.9418 7.26111 11.8433 7.20821C11.7302 7.14745 11.558 7.12042 11.3275 7.12884C11.3442 7.25047 11.2967 7.36024 11.1891 7.45217L11.1341 7.3743C11.2304 7.29201 11.2602 7.20384 11.2295 7.10054C11.1815 6.93845 11.0973 6.88355 10.8925 6.88355C10.7653 6.88355 10.6692 6.91616 10.6024 6.98005V7.41324L10.6024 7.47508H10.4232V7.40562H10.3874V6.97243C10.3205 6.90854 10.2245 6.87593 10.0973 6.87593ZM9.08416 7.70257L9.05346 7.73847L9.46438 8.16386C9.47771 8.19088 9.48957 8.21585 9.49995 8.23871C9.51101 8.28761 9.52764 8.34182 9.55129 8.37495C9.55345 8.38457 9.55453 8.39255 9.55453 8.39885C9.55453 8.44967 9.67468 8.47983 9.90919 8.51081C10.0929 8.53508 10.3097 8.55137 10.4871 8.55381V8.55412L10.5095 8.55404L10.532 8.55412V8.55381C10.7094 8.55137 10.9262 8.53508 11.1099 8.51081C11.3444 8.47983 11.4646 8.44967 11.4646 8.39885C11.4646 8.36554 11.4948 8.28535 11.5547 8.16386L11.9656 7.73847L11.9349 7.70257L11.5214 8.13067L11.5171 8.13683C11.4996 8.1721 11.4845 8.20405 11.4718 8.2328C11.4838 8.17787 11.4888 8.13116 11.4888 8.13116C11.4888 8.13116 11.0263 7.98636 10.5032 7.97989V7.97967L10.4852 7.97972L10.4672 7.97967V7.97989C9.99505 7.98573 9.57232 8.10426 9.49444 8.12729L9.08416 7.70257ZM11.4232 8.36891C11.4033 8.39985 11.3782 8.41598 11.3468 8.39981C11.2489 8.34943 10.6017 8.30214 10.4852 8.29398C10.3687 8.30214 9.72151 8.34943 9.62364 8.39981L9.61882 8.40207C9.63328 8.4079 9.65309 8.41401 9.67766 8.42018C9.73529 8.43464 9.81731 8.44902 9.91453 8.46187C10.1044 8.48695 10.3301 8.50345 10.5095 8.50475C10.689 8.50345 10.9147 8.48695 11.1046 8.46187C11.2018 8.44902 11.2838 8.43464 11.3414 8.42018C11.3707 8.41282 11.3933 8.40555 11.408 8.39872C11.4133 8.39627 11.4174 8.394 11.42 8.3921C11.4204 8.38518 11.4215 8.37745 11.4232 8.36891ZM11.4761 8.39165L11.4769 8.39078L11.4766 8.39102L11.4761 8.39165Z" fill="#FECA00"/>
<path d="M9.70181 6.94167L9.70103 6.99095C9.30378 6.98332 9.07592 7.04711 9.01808 7.17424C8.95828 7.30568 8.9694 7.46545 9.05319 7.65525L9.0129 7.67679C8.9235 7.47428 8.91129 7.29885 8.97802 7.15217C9.04671 7.00119 9.28776 6.93371 9.70181 6.94167Z" fill="white"/>
<path d="M9.77866 7.37873L9.75569 7.42106C9.66918 7.36422 9.62589 7.26723 9.62589 7.13356C9.62589 6.94145 9.71582 6.8288 9.91476 6.75171C10.0417 6.70251 10.2152 6.72268 10.4356 6.81061L10.4203 6.85695C10.2087 6.77254 10.045 6.7535 9.92965 6.7982C9.74717 6.86891 9.67069 6.96472 9.67069 7.13356C9.67069 7.25086 9.70665 7.33142 9.77866 7.37873Z" fill="white"/>
<path d="M11.2652 6.99086L11.266 7.04015C11.6632 7.03252 11.8911 7.0963 11.9489 7.22344C12.0087 7.35487 11.9976 7.51465 11.9138 7.70444L11.9541 7.72598C12.0435 7.52348 12.0557 7.34805 11.989 7.20137C11.9203 7.05039 11.6792 6.98291 11.2652 6.99086Z" fill="white"/>
<path d="M11.1249 7.38899L11.1479 7.43131C11.2344 7.37448 11.2777 7.27748 11.2777 7.14382C11.2777 6.95171 11.1877 6.83905 10.9888 6.76196C10.8618 6.71276 10.6884 6.73293 10.468 6.82086L10.4833 6.8672C10.6948 6.78279 10.8586 6.76375 10.9739 6.80846C11.1564 6.87917 11.2329 6.97497 11.2329 7.14382C11.2329 7.26112 11.1969 7.34168 11.1249 7.38899Z" fill="white"/>
</g>
</g>
</svg>
