<svg width="16" height="12" viewBox="0 0 16 12" fill="none" xmlns="http://www.w3.org/2000/svg">
<mask id="mask0" mask-type="alpha" maskUnits="userSpaceOnUse" x="0" y="0" width="16" height="12">
<rect width="16" height="12" fill="white"/>
</mask>
<g mask="url(#mask0)">
<path fill-rule="evenodd" clip-rule="evenodd" d="M0 0V12H16V0H0Z" fill="#F7FCFF"/>
<mask id="mask1" mask-type="alpha" maskUnits="userSpaceOnUse" x="0" y="0" width="16" height="12">
<path fill-rule="evenodd" clip-rule="evenodd" d="M0 0V12H16V0H0Z" fill="white"/>
</mask>
<g mask="url(#mask1)">
<path fill-rule="evenodd" clip-rule="evenodd" d="M0 0V4H16V0H0Z" fill="#BF2714"/>
<path fill-rule="evenodd" clip-rule="evenodd" d="M0 8V12H16V8H0Z" fill="#272727"/>
<path fill-rule="evenodd" clip-rule="evenodd" d="M2.66831 6.4056C3.12311 7.0583 2.5 7.5 2.5 7.5C2.5 7.5 3.04475 7.5 3.25337 7.06282H7.71206V6.09991C7.71206 6.09991 7.6188 5.63749 7.22178 5.63749C6.82476 5.63749 6.7353 6.09991 6.7353 6.09991H5.16706L6.68441 4.76043L6.38939 4.5L4.70401 5.98781V6.30326H7.09656V6.11756C7.09656 6.11756 7.10999 6.01006 7.22178 6.01006C7.33356 6.01006 7.30635 6.11756 7.30635 6.11756V6.51419H4.29131V5.97184L3.96484 6.11756V6.51419C3.96484 6.51419 3.56501 6.4056 3.31233 6.4056C3.05965 6.4056 3.04475 6.11756 3.04475 6.11756L2.66831 6.4056ZM8.72329 6.44265L8.9678 7.05153H7.99482V4.60719L8.40524 4.73857V6.44265H8.72329ZM13.2555 6.44265L13.5 7.05153H12.527V4.60719L12.9374 4.73857V6.44265H13.2555ZM12.0507 4.63248L11.7972 4.80407V6.44097H11.539V5.12814L11.1136 5.3734V6.44097H10.8281V5.69975L10.5047 5.90788V6.1091C10.5047 6.1091 9.88267 6.15199 9.88267 7.03142H12.0482L12.0507 4.63248ZM3.74589 7.48282C3.82411 7.48282 3.88752 7.42685 3.88752 7.3578C3.88752 7.28875 3.82411 7.23277 3.74589 7.23277C3.66767 7.23277 3.60426 7.28875 3.60426 7.3578C3.60426 7.42685 3.66767 7.48282 3.74589 7.48282ZM10.9573 4.82083C10.8473 4.96579 10.5136 4.82083 10.5136 4.82083L11.4599 4.7112C11.3621 4.90199 10.9573 4.82083 10.9573 4.82083Z" fill="#009C4E"/>
<path d="M2.5 7.5L2.35542 7.29604L1.71502 7.75H2.5V7.5ZM2.66831 6.4056L2.51639 6.20706L2.32651 6.35236L2.4632 6.54853L2.66831 6.4056ZM3.25337 7.06282V6.81282H3.09567L3.02775 6.95515L3.25337 7.06282ZM7.71206 7.06282V7.31282H7.96206V7.06282H7.71206ZM7.71206 6.09991H7.96206V6.07495L7.95712 6.05048L7.71206 6.09991ZM6.7353 6.09991V6.34991H6.94157L6.98075 6.14739L6.7353 6.09991ZM5.16706 6.09991L5.00161 5.91249L4.5061 6.34991H5.16706V6.09991ZM6.68441 4.76043L6.84986 4.94785L7.06217 4.76043L6.84986 4.57301L6.68441 4.76043ZM6.38939 4.5L6.55484 4.31258L6.38939 4.16653L6.22394 4.31258L6.38939 4.5ZM4.70401 5.98781L4.53856 5.80039L4.45401 5.87502V5.98781H4.70401ZM4.70401 6.30326H4.45401V6.55326H4.70401V6.30326ZM7.09656 6.30326V6.55326H7.34656V6.30326H7.09656ZM7.09656 6.11756L6.84849 6.08655L6.84656 6.102V6.11756H7.09656ZM7.30635 6.11756L7.064 6.05621L7.05635 6.08641V6.11756H7.30635ZM7.30635 6.51419V6.76419H7.55635V6.51419H7.30635ZM4.29131 6.51419H4.04131V6.76419H4.29131V6.51419ZM4.29131 5.97184H4.54131V5.58649L4.18941 5.74355L4.29131 5.97184ZM3.96484 6.11756L3.86295 5.88926L3.71484 5.95537V6.11756H3.96484ZM3.96484 6.51419L3.89932 6.75545L4.21484 6.84114V6.51419H3.96484ZM3.04475 6.11756L3.29441 6.10464L3.26987 5.6305L2.89282 5.91901L3.04475 6.11756ZM8.9678 7.05153V7.30153H9.3376L9.1998 6.95837L8.9678 7.05153ZM8.72329 6.44265L8.95528 6.34949L8.8923 6.19265H8.72329V6.44265ZM7.99482 7.05153H7.74482V7.30153H7.99482V7.05153ZM7.99482 4.60719L8.07104 4.36909L7.74482 4.26466V4.60719H7.99482ZM8.40524 4.73857H8.65524V4.5561L8.48145 4.50047L8.40524 4.73857ZM8.40524 6.44265H8.15524V6.69265H8.40524V6.44265ZM13.5 7.05153V7.30153H13.8698L13.732 6.95837L13.5 7.05153ZM13.2555 6.44265L13.4875 6.34949L13.4245 6.19265H13.2555V6.44265ZM12.527 7.05153H12.277V7.30153H12.527V7.05153ZM12.527 4.60719L12.6032 4.36909L12.277 4.26466V4.60719H12.527ZM12.9374 4.73857H13.1874V4.5561L13.0136 4.50047L12.9374 4.73857ZM12.9374 6.44265H12.6874V6.69265H12.9374V6.44265ZM11.7972 4.80407L11.6571 4.59704L11.5472 4.67141V4.80407H11.7972ZM12.0507 4.63248L12.3007 4.63274L12.3012 4.16105L11.9106 4.42545L12.0507 4.63248ZM11.7972 6.44097V6.69097H12.0472V6.44097H11.7972ZM11.539 6.44097H11.289V6.69097H11.539V6.44097ZM11.539 5.12814H11.789V4.69544L11.4141 4.91156L11.539 5.12814ZM11.1136 5.3734L10.9887 5.15682L10.8636 5.22896V5.3734H11.1136ZM11.1136 6.44097V6.69097H11.3636V6.44097H11.1136ZM10.8281 6.44097H10.5781V6.69097H10.8281V6.44097ZM10.8281 5.69975H11.0781V5.24155L10.6928 5.48953L10.8281 5.69975ZM10.5047 5.90788L10.3694 5.69766L10.2547 5.77148V5.90788H10.5047ZM10.5047 6.1091L10.5219 6.35851L10.7547 6.34246V6.1091H10.5047ZM9.88267 7.03142H9.63267V7.28142H9.88267V7.03142ZM12.0482 7.03142V7.28142H12.298L12.2982 7.03168L12.0482 7.03142ZM10.5136 4.82083L10.4848 4.57249L9.56078 4.67954L10.414 5.05013L10.5136 4.82083ZM10.9573 4.82083L11.0064 4.57571L10.8528 4.54491L10.7581 4.66975L10.9573 4.82083ZM11.4599 4.7112L11.6824 4.82517L11.8955 4.40905L11.4311 4.46286L11.4599 4.7112ZM2.5 7.5C2.64458 7.70396 2.64468 7.70388 2.64479 7.7038C2.64483 7.70377 2.64494 7.7037 2.64502 7.70364C2.64518 7.70353 2.64535 7.70341 2.64552 7.70328C2.64588 7.70303 2.64627 7.70274 2.64671 7.70243C2.64757 7.70181 2.64859 7.70107 2.64975 7.70021C2.65208 7.6985 2.655 7.69633 2.65845 7.6937C2.66534 7.68844 2.67441 7.68133 2.68519 7.67242C2.70668 7.65465 2.73538 7.6294 2.76754 7.59705C2.83107 7.53316 2.91247 7.43719 2.97694 7.31206C3.04201 7.18578 3.09136 7.0265 3.08367 6.84157C3.07592 6.65534 3.01099 6.46009 2.87343 6.26268L2.4632 6.54853C2.55304 6.67746 2.58077 6.78219 2.5841 6.86235C2.58749 6.94381 2.56633 7.01733 2.53247 7.08306C2.49801 7.14994 2.45207 7.2052 2.41297 7.24452C2.39382 7.26378 2.37739 7.27814 2.36659 7.28707C2.36122 7.29151 2.35733 7.29453 2.35532 7.29606C2.35432 7.29683 2.35379 7.29721 2.35379 7.29721C2.35379 7.29721 2.35392 7.29712 2.35419 7.29692C2.35433 7.29683 2.3545 7.2967 2.3547 7.29656C2.3548 7.29648 2.35492 7.29641 2.35504 7.29632C2.3551 7.29628 2.35519 7.29621 2.35522 7.29619C2.35532 7.29612 2.35542 7.29604 2.5 7.5ZM3.02775 6.95515C2.96288 7.09109 2.84378 7.16629 2.71866 7.20843C2.65698 7.2292 2.59932 7.23983 2.55719 7.24512C2.53639 7.24774 2.52009 7.24897 2.50989 7.24953C2.5048 7.24982 2.5013 7.24993 2.49957 7.24998C2.4987 7.25 2.49829 7.25001 2.49835 7.25001C2.49838 7.25001 2.49853 7.25001 2.49881 7.25C2.49894 7.25 2.49911 7.25 2.49931 7.25C2.49941 7.25 2.49952 7.25 2.49963 7.25C2.49969 7.25 2.49978 7.25 2.49981 7.25C2.4999 7.25 2.5 7.25 2.5 7.5C2.5 7.75 2.5001 7.75 2.5002 7.75C2.50024 7.75 2.50034 7.75 2.50042 7.75C2.50057 7.75 2.50072 7.75 2.50089 7.75C2.50122 7.75 2.50158 7.75 2.50198 7.74999C2.50278 7.74999 2.50372 7.74998 2.50478 7.74997C2.50692 7.74994 2.50959 7.74989 2.51277 7.74981C2.51912 7.74964 2.52752 7.74933 2.53774 7.74876C2.55814 7.74762 2.58604 7.74543 2.61956 7.74122C2.68609 7.73285 2.77766 7.71615 2.87824 7.68228C3.07765 7.61512 3.33524 7.47173 3.479 7.17049L3.02775 6.95515ZM7.71206 6.81282H3.25337V7.31282H7.71206V6.81282ZM7.46206 6.09991V7.06282H7.96206V6.09991H7.46206ZM7.22178 5.88749C7.30392 5.88749 7.35812 5.9288 7.40437 6.0021C7.42775 6.03917 7.44428 6.07824 7.45493 6.10914C7.46012 6.12417 7.46354 6.13619 7.4655 6.14362C7.46647 6.14731 7.46705 6.14978 7.46729 6.15082C7.46741 6.15133 7.46744 6.15149 7.46739 6.15125C7.46736 6.15113 7.46732 6.15091 7.46725 6.15059C7.46722 6.15043 7.46718 6.15025 7.46713 6.15004C7.46711 6.14993 7.46709 6.14982 7.46707 6.1497C7.46705 6.14964 7.46704 6.14955 7.46703 6.14952C7.46701 6.14943 7.46699 6.14933 7.71206 6.09991C7.95712 6.05048 7.9571 6.05038 7.95708 6.05028C7.95707 6.05024 7.95705 6.05014 7.95704 6.05007C7.95701 6.04992 7.95698 6.04977 7.95694 6.0496C7.95688 6.04928 7.9568 6.04893 7.95673 6.04855C7.95657 6.04778 7.95638 6.0469 7.95617 6.04591C7.95574 6.04392 7.9552 6.04148 7.95454 6.03861C7.95322 6.03287 7.95141 6.02541 7.94905 6.01645C7.94436 5.99859 7.93739 5.97449 7.92763 5.94617C7.90839 5.89037 7.87679 5.81384 7.82723 5.73529C7.7276 5.5774 7.53666 5.38749 7.22178 5.38749V5.88749ZM6.7353 6.09991C6.98075 6.14739 6.98073 6.14749 6.98071 6.14758C6.9807 6.14761 6.98069 6.14771 6.98068 6.14777C6.98065 6.14789 6.98063 6.148 6.98061 6.1481C6.98057 6.14832 6.98053 6.1485 6.9805 6.14866C6.98043 6.14898 6.98039 6.1492 6.98036 6.14933C6.98031 6.14957 6.98034 6.14942 6.98045 6.14891C6.98068 6.14788 6.98124 6.14543 6.98218 6.14176C6.98406 6.13436 6.98738 6.12238 6.99242 6.1074C7.00279 6.07658 7.01893 6.03769 7.04187 6.00086C7.08708 5.92826 7.1401 5.88749 7.22178 5.88749V5.38749C6.90643 5.38749 6.71622 5.57793 6.61744 5.73654C6.56839 5.81531 6.53735 5.89203 6.51854 5.94791C6.50899 5.97628 6.50222 6.00042 6.49766 6.01831C6.49537 6.02729 6.49362 6.03477 6.49235 6.04051C6.49171 6.04339 6.49119 6.04584 6.49077 6.04783C6.49057 6.04883 6.49039 6.04971 6.49023 6.05048C6.49016 6.05086 6.49009 6.05121 6.49002 6.05154C6.48999 6.0517 6.48996 6.05186 6.48993 6.052C6.48992 6.05208 6.4899 6.05218 6.48989 6.05222C6.48987 6.05232 6.48985 6.05242 6.7353 6.09991ZM5.16706 6.34991H6.7353V5.84991H5.16706V6.34991ZM6.51896 4.57301L5.00161 5.91249L5.33251 6.28733L6.84986 4.94785L6.51896 4.57301ZM6.22394 4.68742L6.51896 4.94785L6.84986 4.57301L6.55484 4.31258L6.22394 4.68742ZM4.86946 6.17523L6.55484 4.68742L6.22394 4.31258L4.53856 5.80039L4.86946 6.17523ZM4.95401 6.30326V5.98781H4.45401V6.30326H4.95401ZM7.09656 6.05326H4.70401V6.55326H7.09656V6.05326ZM6.84656 6.11756V6.30326H7.34656V6.11756H6.84656ZM7.22178 5.76006C7.0675 5.76006 6.96272 5.84214 6.90715 5.92831C6.88239 5.96671 6.8686 6.00328 6.86084 6.0293C6.85683 6.04273 6.85407 6.05456 6.85218 6.06409C6.85122 6.06888 6.85046 6.07319 6.84986 6.07694C6.84957 6.07882 6.8493 6.08056 6.84908 6.08216C6.84896 6.08296 6.84886 6.08373 6.84876 6.08446C6.84871 6.08483 6.84866 6.08519 6.84862 6.08554C6.8486 6.08571 6.84858 6.08588 6.84855 6.08605C6.84854 6.08614 6.84853 6.08626 6.84852 6.08631C6.84851 6.08643 6.84849 6.08655 7.09656 6.11756C7.34463 6.14856 7.34462 6.14868 7.3446 6.14881C7.34459 6.14885 7.34458 6.14897 7.34457 6.14905C7.34455 6.14922 7.34453 6.14938 7.34451 6.14954C7.34446 6.14986 7.34442 6.15018 7.34438 6.15049C7.3443 6.15112 7.34421 6.15174 7.34413 6.15233C7.34396 6.15353 7.34379 6.15467 7.34361 6.15576C7.34327 6.15793 7.34291 6.15993 7.34254 6.16179C7.34181 6.16544 7.34097 6.16887 7.33998 6.17222C7.33823 6.17809 7.33478 6.18778 7.32735 6.1993C7.31948 6.21151 7.30535 6.22837 7.28266 6.24184C7.25862 6.2561 7.23587 6.26006 7.22178 6.26006V5.76006ZM7.30635 6.11756C7.54871 6.1789 7.54874 6.17879 7.54877 6.17867C7.54878 6.17863 7.54881 6.17851 7.54883 6.17843C7.54887 6.17828 7.54891 6.17811 7.54895 6.17795C7.54903 6.17762 7.54911 6.17729 7.5492 6.17694C7.54937 6.17625 7.54954 6.17552 7.54972 6.17475C7.55009 6.17322 7.55047 6.17154 7.55087 6.16971C7.55167 6.16606 7.55253 6.16178 7.5534 6.15695C7.5551 6.14741 7.55691 6.13507 7.55806 6.12065C7.5602 6.09393 7.56096 6.04969 7.54753 5.99936C7.53344 5.94655 7.50138 5.87982 7.43409 5.82832C7.36692 5.77692 7.28995 5.76006 7.22178 5.76006V6.26006C7.2095 6.26006 7.17105 6.25664 7.13022 6.22539C7.08926 6.19405 7.07135 6.15419 7.06443 6.12826C7.05818 6.1048 7.05913 6.08743 7.05965 6.08087C7.06 6.07653 7.06055 6.07258 7.06121 6.06892C7.06155 6.06703 7.06194 6.06507 7.06239 6.06299C7.06262 6.06195 7.06286 6.06087 7.06313 6.05974C7.06326 6.05918 7.0634 6.05861 7.06355 6.05802C7.06362 6.05772 7.06369 6.05743 7.06377 6.05712C7.0638 6.05697 7.06384 6.05682 7.06388 6.05667C7.0639 6.05659 7.06393 6.05648 7.06394 6.05644C7.06397 6.05633 7.064 6.05621 7.30635 6.11756ZM7.55635 6.51419V6.11756H7.05635V6.51419H7.55635ZM4.29131 6.76419H7.30635V6.26419H4.29131V6.76419ZM4.04131 5.97184V6.51419H4.54131V5.97184H4.04131ZM4.06674 6.34585L4.3932 6.20014L4.18941 5.74355L3.86295 5.88926L4.06674 6.34585ZM4.21484 6.51419V6.11756H3.71484V6.51419H4.21484ZM3.31233 6.6556C3.41159 6.6556 3.55366 6.67808 3.68281 6.70474C3.74484 6.71754 3.7996 6.73038 3.83877 6.74C3.8583 6.7448 3.87383 6.74877 3.88429 6.75149C3.88952 6.75285 3.89348 6.75389 3.89603 6.75457C3.8973 6.75491 3.89823 6.75516 3.89878 6.75531C3.89906 6.75538 3.89924 6.75543 3.89933 6.75545C3.89938 6.75547 3.8994 6.75547 3.8994 6.75547C3.8994 6.75547 3.89939 6.75547 3.89938 6.75547C3.89937 6.75546 3.89936 6.75546 3.89935 6.75546C3.89934 6.75546 3.89932 6.75545 3.96484 6.51419C4.03036 6.27293 4.03034 6.27292 4.03032 6.27292C4.03031 6.27291 4.03029 6.27291 4.03027 6.2729C4.03023 6.27289 4.03019 6.27288 4.03014 6.27287C4.03004 6.27284 4.02992 6.27281 4.02977 6.27277C4.02947 6.27269 4.02908 6.27258 4.02859 6.27245C4.02762 6.27219 4.02626 6.27183 4.02455 6.27137C4.02112 6.27046 4.01624 6.26917 4.01004 6.26756C3.99765 6.26434 3.97997 6.25982 3.95807 6.25444C3.91437 6.24371 3.85338 6.2294 3.78387 6.21506C3.64994 6.18742 3.46574 6.1556 3.31233 6.1556V6.6556ZM3.04475 6.11756C2.79508 6.13048 2.79509 6.13059 2.79509 6.1307C2.79509 6.13073 2.7951 6.13084 2.7951 6.13092C2.79511 6.13107 2.79512 6.13123 2.79513 6.13139C2.79515 6.13171 2.79517 6.13206 2.79519 6.13242C2.79523 6.13314 2.79528 6.13395 2.79534 6.13482C2.79545 6.13658 2.7956 6.13863 2.79579 6.14097C2.79617 6.14565 2.79672 6.1515 2.7975 6.15835C2.79906 6.17199 2.80161 6.19004 2.80578 6.21111C2.8139 6.25212 2.82929 6.3104 2.85932 6.37165C2.9231 6.50171 3.06331 6.6556 3.31233 6.6556V6.1556C3.3002 6.1556 3.30399 6.15331 3.31149 6.15879C3.3159 6.16202 3.31349 6.1622 3.30825 6.15151C3.30297 6.14075 3.29884 6.12702 3.29626 6.11402C3.29509 6.10809 3.2945 6.10363 3.29426 6.10152C3.29414 6.1005 3.29412 6.10015 3.29416 6.10061C3.29418 6.10084 3.29421 6.10128 3.29425 6.10194C3.29428 6.10228 3.2943 6.10266 3.29433 6.10311C3.29434 6.10334 3.29435 6.10357 3.29437 6.10383C3.29438 6.10396 3.29438 6.10409 3.29439 6.10422C3.29439 6.10429 3.2944 6.10439 3.2944 6.10443C3.29441 6.10453 3.29441 6.10464 3.04475 6.11756ZM2.82024 6.60415L3.19667 6.3161L2.89282 5.91901L2.51639 6.20706L2.82024 6.60415ZM9.1998 6.95837L8.95528 6.34949L8.4913 6.53582L8.73581 7.1447L9.1998 6.95837ZM7.99482 7.30153H8.9678V6.80153H7.99482V7.30153ZM7.74482 4.60719V7.05153H8.24482V4.60719H7.74482ZM8.48145 4.50047L8.07104 4.36909L7.91861 4.84529L8.32902 4.97666L8.48145 4.50047ZM8.65524 6.44265V4.73857H8.15524V6.44265H8.65524ZM8.72329 6.19265H8.40524V6.69265H8.72329V6.19265ZM13.732 6.95837L13.4875 6.34949L13.0235 6.53582L13.268 7.1447L13.732 6.95837ZM12.527 7.30153H13.5V6.80153H12.527V7.30153ZM12.277 4.60719V7.05153H12.777V4.60719H12.277ZM13.0136 4.50047L12.6032 4.36909L12.4508 4.84529L12.8612 4.97666L13.0136 4.50047ZM13.1874 6.44265V4.73857H12.6874V6.44265H13.1874ZM13.2555 6.19265H12.9374V6.69265H13.2555V6.19265ZM11.9374 5.01111L12.1909 4.83951L11.9106 4.42545L11.6571 4.59704L11.9374 5.01111ZM12.0472 6.44097V4.80407H11.5472V6.44097H12.0472ZM11.539 6.69097H11.7972V6.19097H11.539V6.69097ZM11.289 5.12814V6.44097H11.789V5.12814H11.289ZM11.2384 5.58999L11.6638 5.34473L11.4141 4.91156L10.9887 5.15682L11.2384 5.58999ZM11.3636 6.44097V5.3734H10.8636V6.44097H11.3636ZM10.8281 6.69097H11.1136V6.19097H10.8281V6.69097ZM10.5781 5.69975V6.44097H11.0781V5.69975H10.5781ZM10.64 6.11811L10.9634 5.90997L10.6928 5.48953L10.3694 5.69766L10.64 6.11811ZM10.7547 6.1091V5.90788H10.2547V6.1091H10.7547ZM10.1327 7.03142C10.1327 6.65863 10.2602 6.5053 10.3469 6.438C10.3957 6.40019 10.4444 6.37964 10.4803 6.3687C10.4981 6.36328 10.512 6.36047 10.5199 6.35913C10.5238 6.35847 10.5261 6.35819 10.5265 6.35813C10.5268 6.35811 10.5265 6.35814 10.5258 6.35821C10.5254 6.35824 10.5249 6.35829 10.5242 6.35834C10.5239 6.35836 10.5236 6.35839 10.5232 6.35842C10.523 6.35843 10.5228 6.35845 10.5226 6.35846C10.5225 6.35847 10.5223 6.35848 10.5222 6.35849C10.5221 6.3585 10.5219 6.35851 10.5047 6.1091C10.4875 5.85969 10.4873 5.85971 10.4872 5.85972C10.4871 5.85972 10.4869 5.85974 10.4868 5.85974C10.4865 5.85976 10.4863 5.85978 10.486 5.8598C10.4855 5.85984 10.4849 5.85989 10.4843 5.85994C10.483 5.86004 10.4816 5.86016 10.4801 5.8603C10.477 5.86058 10.4732 5.86096 10.4689 5.86147C10.4602 5.86247 10.4492 5.86397 10.4361 5.8662C10.41 5.87064 10.3752 5.87805 10.3347 5.89039C10.2539 5.91498 10.1472 5.96011 10.0404 6.04295C9.81617 6.21694 9.63267 6.52477 9.63267 7.03142H10.1327ZM12.0482 6.78142H9.88267V7.28142H12.0482V6.78142ZM11.8007 4.63222L11.7982 7.03115L12.2982 7.03168L12.3007 4.63274L11.8007 4.63222ZM3.63752 7.3578C3.63752 7.31241 3.65893 7.2779 3.68059 7.25878C3.70177 7.24009 3.72559 7.23282 3.74589 7.23282V7.73282C3.93198 7.73282 4.13752 7.5933 4.13752 7.3578H3.63752ZM3.74589 7.48277C3.72559 7.48277 3.70177 7.47551 3.68059 7.45681C3.65893 7.43769 3.63752 7.40318 3.63752 7.3578H4.13752C4.13752 7.12229 3.93198 6.98277 3.74589 6.98277V7.48277ZM3.85426 7.3578C3.85426 7.40318 3.83285 7.43769 3.81119 7.45681C3.79001 7.47551 3.76619 7.48277 3.74589 7.48277V6.98277C3.55981 6.98277 3.35426 7.12229 3.35426 7.3578H3.85426ZM3.74589 7.23282C3.76619 7.23282 3.79001 7.24009 3.81119 7.25878C3.83285 7.2779 3.85426 7.31241 3.85426 7.3578H3.35426C3.35426 7.5933 3.55981 7.73282 3.74589 7.73282V7.23282ZM10.5136 4.82083C10.414 5.05013 10.414 5.05016 10.4141 5.05018C10.4141 5.05019 10.4142 5.05022 10.4142 5.05024C10.4143 5.05027 10.4144 5.05031 10.4145 5.05035C10.4147 5.05043 10.4149 5.05052 10.4151 5.05062C10.4156 5.05082 10.4161 5.05105 10.4167 5.05132C10.418 5.05185 10.4196 5.05252 10.4215 5.0533C10.4252 5.05488 10.4303 5.05694 10.4365 5.05937C10.4488 5.06422 10.4658 5.07064 10.4863 5.07768C10.5265 5.09149 10.584 5.10896 10.6484 5.12095C10.7104 5.13252 10.7927 5.14172 10.8775 5.12939C10.9638 5.11684 11.0761 5.07784 11.1564 4.97191L10.7581 4.66975C10.7834 4.6363 10.8128 4.63354 10.8056 4.63458C10.7969 4.63584 10.7752 4.63598 10.74 4.62943C10.7072 4.6233 10.6743 4.61359 10.6486 4.60475C10.6361 4.60046 10.6262 4.59669 10.6198 4.59418C10.6166 4.59294 10.6144 4.59202 10.6132 4.59154C10.6127 4.5913 10.6124 4.59117 10.6123 4.59117C10.6123 4.59116 10.6124 4.59119 10.6125 4.59125C10.6126 4.59128 10.6127 4.59132 10.6128 4.59136C10.6128 4.59139 10.6129 4.59141 10.613 4.59144C10.613 4.59145 10.6131 4.59147 10.6131 4.59148C10.6131 4.5915 10.6132 4.59153 10.5136 4.82083ZM11.4311 4.46286L10.4848 4.57249L10.5423 5.06917L11.4886 4.95954L11.4311 4.46286ZM10.9573 4.82083C10.9081 5.06595 10.9082 5.06597 10.9082 5.06598C10.9083 5.06598 10.9083 5.066 10.9084 5.06601C10.9085 5.06602 10.9086 5.06604 10.9087 5.06607C10.9089 5.06611 10.9091 5.06615 10.9094 5.06621C10.9099 5.06631 10.9105 5.06643 10.9113 5.06657C10.9127 5.06685 10.9145 5.06719 10.9168 5.0676C10.9212 5.06841 10.9271 5.06946 10.9344 5.07065C10.9489 5.07303 10.9689 5.07601 10.9929 5.07883C11.0402 5.08437 11.1069 5.08972 11.1798 5.08744C11.2505 5.08522 11.3402 5.07549 11.4272 5.04315C11.5155 5.01033 11.6203 4.94637 11.6824 4.82517L11.2374 4.59722C11.2506 4.57142 11.2681 4.56886 11.253 4.57449C11.2366 4.58059 11.2068 4.58634 11.1641 4.58768C11.1235 4.58896 11.0828 4.58594 11.0511 4.58223C11.0357 4.58042 11.0233 4.57856 11.0153 4.57724C11.0113 4.57658 11.0084 4.57608 11.0069 4.57579C11.0061 4.57565 11.0057 4.57556 11.0056 4.57555C11.0055 4.57554 11.0056 4.57555 11.0057 4.57557C11.0058 4.57558 11.0059 4.5756 11.006 4.57562C11.006 4.57564 11.0061 4.57565 11.0062 4.57566C11.0062 4.57567 11.0063 4.57568 11.0063 4.57568C11.0063 4.57569 11.0064 4.57571 10.9573 4.82083Z" fill="#009C4E"/>
</g>
</g>
</svg>
