<svg width="32" height="24" viewBox="0 0 32 24" fill="none" xmlns="http://www.w3.org/2000/svg">
<g opacity="0.9">
<mask id="mask0" mask-type="alpha" maskUnits="userSpaceOnUse" x="0" y="0" width="32" height="24">
<rect width="32" height="24" fill="white"/>
</mask>
<g mask="url(#mask0)">
<path fill-rule="evenodd" clip-rule="evenodd" d="M0 0V24H32V0H0Z" fill="#006239"/>
<mask id="mask1" mask-type="alpha" maskUnits="userSpaceOnUse" x="0" y="0" width="32" height="24">
<path fill-rule="evenodd" clip-rule="evenodd" d="M0 0V24H32V0H0Z" fill="white"/>
</mask>
<g mask="url(#mask1)">
<path d="M15.7905 15.9919L15.0058 20.9452L15.3279 15.9407L13.9727 20.7695L14.8743 15.8361L12.9669 20.4751L14.436 15.6796L12.0022 20.0662L14.0188 15.4734L11.0915 19.5482L13.6284 15.2203L10.2472 18.9281L13.2701 14.9235L9.48074 18.2143L12.9487 14.5873L8.80242 17.4164L12.6685 14.216L8.22142 16.5453L12.4334 13.8148L7.74562 15.6128L12.2466 13.389L7.38145 14.6314L12.1105 12.9445L7.13382 13.6144L12.027 12.4872L7.0061 12.5756L11.9972 12.0233L7 11.529L12.0216 11.559L7.11561 10.4887L12.0998 11.1008L7.35137 9.46893L12.2307 10.6547L7.70409 8.48336L12.4125 10.2268L8.16899 7.54535L12.6429 9.82285L8.7398 6.66757L12.9187 9.44837L9.40878 5.86191L13.2362 9.10839L10.1669 5.13926L13.591 8.80752L11.0039 4.50938L13.9784 8.54982L11.9085 3.98081L14.3932 8.33878L12.8684 3.56067L14.8297 8.17725L13.8706 3.25467L15.282 8.06742L14.9017 3.06693L15.744 8.01077L15.9476 3L16.2095 8.00806L16.9942 3.05478L16.6721 8.05934L18.0273 3.23052L17.1257 8.16391L19.0331 3.52486L17.564 8.32036L19.9978 3.93381L17.9812 8.52657L20.9085 4.45184L18.3716 8.77975L21.7528 5.07194L18.7299 9.07647L22.5193 5.78574L19.0513 9.41274L23.1976 6.58357L19.3315 9.78399L23.7786 7.45465L19.5666 10.1852L24.2544 8.3872L19.7534 10.611L24.6186 9.36861L19.8895 11.0555L24.8662 10.3856L19.973 11.5128L24.9939 11.4244L20.0028 11.9767L25 12.471L19.9784 12.441L24.8844 13.5113L19.9002 12.8992L24.6486 14.5311L19.7693 13.3453L24.2959 15.5166L19.5875 13.7732L23.831 16.4547L19.3571 14.1771L23.2602 17.3324L19.0813 14.5516L22.5912 18.1381L18.7638 14.8916L21.8331 18.8607L18.409 15.1925L20.9961 19.4906L18.0216 15.4502L20.0915 20.0192L17.6068 15.6612L19.1316 20.4393L17.1703 15.8227L18.1294 20.7453L16.718 15.9326L17.0983 20.9331L16.256 15.9892L16.0524 21L15.7905 15.9919Z" fill="#F7FCFF"/>
<path fill-rule="evenodd" clip-rule="evenodd" d="M15.9956 2.15002L15.7017 2.30453L15.7578 1.97728L15.5201 1.74552L15.8487 1.69777L15.9956 1.40002L16.1426 1.69777L16.4711 1.74552L16.2334 1.97728L16.2895 2.30453L15.9956 2.15002Z" fill="#FECA00"/>
<path fill-rule="evenodd" clip-rule="evenodd" d="M17.1375 2.21642L16.827 2.33396L16.9226 2.01598L16.7149 1.75697L17.0468 1.74962L17.2289 1.47201L17.3385 1.78544L17.6588 1.87288L17.3946 2.07393L17.4104 2.40559L17.1375 2.21642Z" fill="#FECA00"/>
<path fill-rule="evenodd" clip-rule="evenodd" d="M18.2684 2.41582L17.9473 2.50026L18.0756 2.19402L17.8961 1.91471L18.227 1.94211L18.4371 1.68505L18.5133 2.00822L18.8228 2.12865L18.539 2.30099L18.52 2.63248L18.2684 2.41582Z" fill="#FECA00"/>
<path fill-rule="evenodd" clip-rule="evenodd" d="M19.3645 2.744L19.0354 2.78868L19.2001 2.50036L19.056 2.20125L19.381 2.26877L19.621 2.03924L19.6572 2.36928L19.9497 2.52653L19.647 2.663L19.5878 2.98971L19.3645 2.744Z" fill="#FECA00"/>
<path fill-rule="evenodd" clip-rule="evenodd" d="M20.4148 3.19707L20.0828 3.20131L20.2814 2.93521L20.1748 2.62076L20.4892 2.7274L20.7553 2.52881L20.7511 2.86082L21.0222 3.05253L20.7051 3.15109L20.6065 3.46816L20.4148 3.19707Z" fill="#FECA00"/>
<path fill-rule="evenodd" clip-rule="evenodd" d="M21.4093 3.77126L21.0787 3.74077L21.304 3.49688L21.2308 3.17302L21.5324 3.31193L21.8178 3.14225L21.7788 3.472L22.0284 3.691L21.7028 3.75588L21.5716 4.0609L21.4093 3.77126Z" fill="#FECA00"/>
<path fill-rule="evenodd" clip-rule="evenodd" d="M22.327 4.45446L22.0025 4.38391L22.2559 4.1693L22.2227 3.83892L22.5051 4.01356L22.809 3.87993L22.7302 4.20247L22.9512 4.45025L22.6201 4.47496L22.4528 4.76173L22.327 4.45446Z" fill="#FECA00"/>
<path fill-rule="evenodd" clip-rule="evenodd" d="M23.1592 5.23948L22.8457 5.12992L23.1234 4.94778L23.1307 4.61583L23.3897 4.82357L23.7077 4.72798L23.5902 5.03851L23.7793 5.31139L23.4477 5.29556L23.2466 5.55979L23.1592 5.23948Z" fill="#FECA00"/>
<path fill-rule="evenodd" clip-rule="evenodd" d="M23.8972 6.11917L23.597 5.97745L23.8921 5.82532L23.9341 5.49596L24.17 5.72964L24.4962 5.66781L24.3469 5.96436L24.5065 6.25551L24.1783 6.2051L23.9507 6.44687L23.8972 6.11917Z" fill="#FECA00"/>
<path fill-rule="evenodd" clip-rule="evenodd" d="M24.5258 7.07498L24.245 6.89772L24.5565 6.7827L24.6383 6.46091L24.844 6.72159L25.1753 6.69998L24.9909 6.97611L25.1139 7.28455L24.7943 7.19452L24.5389 7.40675L24.5258 7.07498Z" fill="#FECA00"/>
<path fill-rule="evenodd" clip-rule="evenodd" d="M25.0394 8.09729L24.7824 7.88714L25.1055 7.81093L25.226 7.50151L25.3983 7.78532L25.7298 7.80425L25.5131 8.05585L25.5976 8.37697L25.2913 8.24866L25.012 8.4282L25.0394 8.09729Z" fill="#FECA00"/>
<path fill-rule="evenodd" clip-rule="evenodd" d="M25.4321 9.17637L25.1984 8.9405L25.5278 8.89849L25.6799 8.60336L25.8217 8.90362L26.1494 8.9571L25.9076 9.18467L25.958 9.51286L25.6668 9.35324L25.3703 9.5026L25.4321 9.17637Z" fill="#FECA00"/>
<path fill-rule="evenodd" clip-rule="evenodd" d="M25.6959 10.2896L25.4927 10.027L25.8247 10.0254L26.0117 9.75103L26.1157 10.0663L26.4345 10.1593L26.1668 10.3558L26.1768 10.6876L25.9073 10.4937L25.5947 10.6058L25.6959 10.2896Z" fill="#FECA00"/>
<path fill-rule="evenodd" clip-rule="evenodd" d="M25.8287 11.4258L25.659 11.1404L25.9888 11.1794L26.2078 10.9298L26.2727 11.2554L26.5777 11.3866L26.288 11.5489L26.2576 11.8795L26.0137 11.6542L25.6898 11.7274L25.8287 11.4258Z" fill="#FECA00"/>
<path fill-rule="evenodd" clip-rule="evenodd" d="M25.8289 12.5742L25.6899 12.2726L26.0138 12.3458L26.2577 12.1205L26.2882 12.4511L26.5778 12.6135L26.2728 12.7446L26.2079 13.0702L25.9889 12.8207L25.6592 12.8596L25.8289 12.5742Z" fill="#FECA00"/>
<path fill-rule="evenodd" clip-rule="evenodd" d="M25.6958 13.7104L25.5947 13.3942L25.9072 13.5063L26.1767 13.3124L26.1667 13.6443L26.4344 13.8407L26.1157 13.9337L26.0116 14.249L25.8246 13.9746L25.4926 13.973L25.6958 13.7104Z" fill="#FECA00"/>
<path fill-rule="evenodd" clip-rule="evenodd" d="M25.4322 14.8236L25.3704 14.4974L25.667 14.6468L25.9581 14.4871L25.9077 14.8153L26.1495 15.0429L25.8218 15.0964L25.68 15.3966L25.5279 15.1015L25.1986 15.0595L25.4322 14.8236Z" fill="#FECA00"/>
<path fill-rule="evenodd" clip-rule="evenodd" d="M25.0393 15.9027L25.0119 15.5718L25.2912 15.7514L25.5975 15.6231L25.513 15.9442L25.7297 16.1958L25.3982 16.2147L25.2259 16.4985L25.1054 16.1891L24.7822 16.1129L25.0393 15.9027Z" fill="#FECA00"/>
<path fill-rule="evenodd" clip-rule="evenodd" d="M24.5258 16.925L24.5389 16.5932L24.7943 16.8055L25.1139 16.7155L24.9909 17.0239L25.1753 17.3L24.844 17.2784L24.6383 17.5391L24.5565 17.2173L24.245 17.1023L24.5258 16.925Z" fill="#FECA00"/>
<path fill-rule="evenodd" clip-rule="evenodd" d="M23.8972 17.8808L23.9507 17.5531L24.1783 17.7949L24.5065 17.7445L24.3469 18.0356L24.4962 18.3322L24.17 18.2703L23.9341 18.504L23.8921 18.1747L23.597 18.0225L23.8972 17.8808Z" fill="#FECA00"/>
<path fill-rule="evenodd" clip-rule="evenodd" d="M23.1591 18.7606L23.2465 18.4402L23.4476 18.7045L23.7792 18.6886L23.59 18.9615L23.7076 19.272L23.3896 19.1765L23.1306 19.3842L23.1233 19.0523L22.8456 18.8701L23.1591 18.7606Z" fill="#FECA00"/>
<path fill-rule="evenodd" clip-rule="evenodd" d="M22.327 19.5456L22.4528 19.2383L22.6202 19.5251L22.9513 19.5498L22.7303 19.7976L22.8091 20.1201L22.5052 19.9865L22.2228 20.1611L22.2559 19.8307L22.0026 19.6161L22.327 19.5456Z" fill="#FECA00"/>
<path fill-rule="evenodd" clip-rule="evenodd" d="M21.4095 20.2288L21.5718 19.9391L21.703 20.2441L22.0286 20.309L21.779 20.528L21.818 20.8578L21.5326 20.6881L21.231 20.827L21.3042 20.5031L21.0789 20.2592L21.4095 20.2288Z" fill="#FECA00"/>
<path fill-rule="evenodd" clip-rule="evenodd" d="M20.4149 20.8029L20.6066 20.5318L20.7052 20.8489L21.0223 20.9475L20.7512 21.1392L20.7554 21.4712L20.4893 21.2726L20.1749 21.3792L20.2815 21.0648L20.0829 20.7987L20.4149 20.8029Z" fill="#FECA00"/>
<path fill-rule="evenodd" clip-rule="evenodd" d="M19.3645 21.256L19.5878 21.0103L19.647 21.337L19.9497 21.4734L19.6572 21.6307L19.621 21.9607L19.3811 21.7312L19.056 21.7987L19.2001 21.4996L19.0354 21.2113L19.3645 21.256Z" fill="#FECA00"/>
<path fill-rule="evenodd" clip-rule="evenodd" d="M18.2684 21.5842L18.52 21.3675L18.5389 21.699L18.8228 21.8713L18.5133 21.9918L18.4371 22.3149L18.227 22.0579L17.8961 22.0853L18.0756 21.806L17.9473 21.4997L18.2684 21.5842Z" fill="#FECA00"/>
<path fill-rule="evenodd" clip-rule="evenodd" d="M17.1377 21.7836L17.4105 21.5944L17.3947 21.926L17.6589 22.1271L17.3386 22.2145L17.2291 22.528L17.0469 22.2504L16.715 22.243L16.9227 21.984L16.8271 21.666L17.1377 21.7836Z" fill="#FECA00"/>
<path fill-rule="evenodd" clip-rule="evenodd" d="M15.9956 21.85L16.2895 21.6955L16.2334 22.0227L16.4711 22.2545L16.1426 22.3022L15.9956 22.6L15.8487 22.3022L15.5201 22.2545L15.7578 22.0227L15.7017 21.6955L15.9956 21.85Z" fill="#FECA00"/>
<path fill-rule="evenodd" clip-rule="evenodd" d="M14.8534 21.7836L15.164 21.666L15.0684 21.984L15.2761 22.243L14.9442 22.2504L14.762 22.528L14.6525 22.2146L14.3321 22.1271L14.5964 21.9261L14.5806 21.5944L14.8534 21.7836Z" fill="#FECA00"/>
<path fill-rule="evenodd" clip-rule="evenodd" d="M13.7225 21.5842L14.0437 21.4997L13.9154 21.806L14.0949 22.0853L13.764 22.0579L13.5538 22.315L13.4776 21.9918L13.1682 21.8713L13.452 21.699L13.4709 21.3675L13.7225 21.5842Z" fill="#FECA00"/>
<path fill-rule="evenodd" clip-rule="evenodd" d="M12.6265 21.256L12.9555 21.2113L12.7909 21.4996L12.935 21.7987L12.6099 21.7312L12.37 21.9608L12.3337 21.6307L12.0413 21.4735L12.344 21.337L12.4032 21.0103L12.6265 21.256Z" fill="#FECA00"/>
<path fill-rule="evenodd" clip-rule="evenodd" d="M11.5761 20.8029L11.9081 20.7987L11.7096 21.0648L11.8162 21.3792L11.5018 21.2726L11.2356 21.4712L11.2399 21.1392L10.9688 20.9475L11.2859 20.8489L11.3844 20.5318L11.5761 20.8029Z" fill="#FECA00"/>
<path fill-rule="evenodd" clip-rule="evenodd" d="M10.5817 20.2287L10.9123 20.2592L10.687 20.5031L10.7602 20.827L10.4586 20.6881L10.1732 20.8577L10.2121 20.528L9.96255 20.309L10.2882 20.2441L10.4193 19.9391L10.5817 20.2287Z" fill="#FECA00"/>
<path fill-rule="evenodd" clip-rule="evenodd" d="M9.66401 19.5455L9.98846 19.6161L9.73511 19.8307L9.76827 20.1611L9.48587 19.9864L9.18192 20.1201L9.26074 19.7975L9.03972 19.5497L9.37083 19.525L9.53819 19.2383L9.66401 19.5455Z" fill="#FECA00"/>
<path fill-rule="evenodd" clip-rule="evenodd" d="M8.83178 18.7605L9.14522 18.8701L8.8676 19.0522L8.86025 19.3842L8.60124 19.1764L8.28327 19.272L8.40081 18.9615L8.21164 18.6886L8.54329 18.7044L8.74435 18.4402L8.83178 18.7605Z" fill="#FECA00"/>
<path fill-rule="evenodd" clip-rule="evenodd" d="M8.09372 17.8808L8.39399 18.0226L8.09885 18.1747L8.05685 18.504L7.82097 18.2704L7.49475 18.3322L7.6441 18.0356L7.48449 17.7445L7.81267 17.7949L8.04025 17.5531L8.09372 17.8808Z" fill="#FECA00"/>
<path fill-rule="evenodd" clip-rule="evenodd" d="M7.46519 16.925L7.74595 17.1023L7.43447 17.2173L7.35264 17.5391L7.147 17.2784L6.81567 17.3L7.00006 17.0239L6.87711 16.7155L7.19671 16.8055L7.45205 16.5932L7.46519 16.925Z" fill="#FECA00"/>
<path fill-rule="evenodd" clip-rule="evenodd" d="M6.95156 15.9027L7.20861 16.1129L6.88544 16.1891L6.76501 16.4985L6.59267 16.2147L6.26118 16.1958L6.47784 15.9442L6.3934 15.623L6.69964 15.7513L6.97895 15.5718L6.95156 15.9027Z" fill="#FECA00"/>
<path fill-rule="evenodd" clip-rule="evenodd" d="M6.55884 14.8236L6.79252 15.0595L6.46315 15.1015L6.31103 15.3966L6.16931 15.0964L5.84161 15.0429L6.08338 14.8153L6.03297 14.4871L6.32412 14.6468L6.62067 14.4974L6.55884 14.8236Z" fill="#FECA00"/>
<path fill-rule="evenodd" clip-rule="evenodd" d="M6.29509 13.7104L6.49829 13.973L6.16626 13.9746L5.9793 14.249L5.87523 13.9337L5.55649 13.8407L5.82419 13.6442L5.81415 13.3124L6.08368 13.5063L6.39622 13.3942L6.29509 13.7104Z" fill="#FECA00"/>
<path fill-rule="evenodd" clip-rule="evenodd" d="M6.16226 12.5742L6.33194 12.8596L6.00219 12.8206L5.78319 13.0702L5.71831 12.7446L5.41329 12.6134L5.70293 12.4511L5.73342 12.1205L5.9773 12.3458L6.30117 12.2726L6.16226 12.5742Z" fill="#FECA00"/>
<path fill-rule="evenodd" clip-rule="evenodd" d="M6.16235 11.4258L6.30126 11.7274L5.97739 11.6542L5.73351 11.8795L5.70302 11.5489L5.41338 11.3865L5.7184 11.2554L5.78328 10.9298L6.00228 11.1793L6.33203 11.1404L6.16235 11.4258Z" fill="#FECA00"/>
<path fill-rule="evenodd" clip-rule="evenodd" d="M6.29516 10.2896L6.39628 10.6058L6.08375 10.4937L5.81422 10.6876L5.82426 10.3557L5.55655 10.1593L5.87529 10.0663L5.97937 9.75102L6.16632 10.0254L6.49835 10.027L6.29516 10.2896Z" fill="#FECA00"/>
<path fill-rule="evenodd" clip-rule="evenodd" d="M6.55897 9.17637L6.6208 9.50259L6.32426 9.35324L6.03311 9.51285L6.08352 9.18467L5.84174 8.95709L6.16944 8.90362L6.31117 8.60335L6.46329 8.89849L6.79265 8.94049L6.55897 9.17637Z" fill="#FECA00"/>
<path fill-rule="evenodd" clip-rule="evenodd" d="M6.95166 8.09726L6.97905 8.42816L6.69975 8.24863L6.39351 8.37693L6.47794 8.05582L6.26128 7.80421L6.59278 7.78529L6.76511 7.50148L6.88555 7.8109L7.20872 7.8871L6.95166 8.09726Z" fill="#FECA00"/>
<path fill-rule="evenodd" clip-rule="evenodd" d="M7.46519 7.07498L7.45205 7.40676L7.19671 7.19452L6.87711 7.28455L7.00006 6.97612L6.81567 6.69998L7.147 6.7216L7.35264 6.46091L7.43447 6.7827L7.74595 6.89772L7.46519 7.07498Z" fill="#FECA00"/>
<path fill-rule="evenodd" clip-rule="evenodd" d="M8.09373 6.11918L8.04026 6.44688L7.81268 6.20511L7.4845 6.25552L7.64411 5.96437L7.49476 5.66782L7.82098 5.72965L8.05686 5.49597L8.09886 5.82533L8.394 5.97745L8.09373 6.11918Z" fill="#FECA00"/>
<path fill-rule="evenodd" clip-rule="evenodd" d="M8.8319 5.23945L8.74446 5.55976L8.5434 5.29553L8.21175 5.31136L8.40092 5.03848L8.28338 4.72795L8.60136 4.82354L8.86037 4.6158L8.86771 4.94775L9.14533 5.12988L8.8319 5.23945Z" fill="#FECA00"/>
<path fill-rule="evenodd" clip-rule="evenodd" d="M9.66394 4.45443L9.53812 4.7617L9.37076 4.47493L9.03965 4.45023L9.26067 4.20244L9.18185 3.8799L9.48581 4.01353L9.7682 3.8389L9.73504 4.16927L9.98839 4.38388L9.66394 4.45443Z" fill="#FECA00"/>
<path fill-rule="evenodd" clip-rule="evenodd" d="M10.5817 3.77123L10.4194 4.06088L10.2882 3.75585L9.9626 3.69098L10.2122 3.47197L10.1732 3.14223L10.4586 3.31191L10.7602 3.17299L10.687 3.49686L10.9124 3.74075L10.5817 3.77123Z" fill="#FECA00"/>
<path fill-rule="evenodd" clip-rule="evenodd" d="M11.576 3.19706L11.3843 3.46815L11.2858 3.15108L10.9687 3.05252L11.2398 2.86081L11.2355 2.5288L11.5016 2.72738L11.8161 2.62075L11.7095 2.9352L11.908 3.2013L11.576 3.19706Z" fill="#FECA00"/>
<path fill-rule="evenodd" clip-rule="evenodd" d="M12.6265 2.74403L12.4032 2.98973L12.344 2.66302L12.0413 2.52655L12.3337 2.3693L12.37 2.03926L12.6099 2.26879L12.935 2.20127L12.7909 2.50038L12.9555 2.7887L12.6265 2.74403Z" fill="#FECA00"/>
<path fill-rule="evenodd" clip-rule="evenodd" d="M13.7225 2.41585L13.4709 2.63251L13.452 2.30102L13.1682 2.12868L13.4776 2.00824L13.5538 1.68507L13.764 1.94213L14.0949 1.91474L13.9154 2.19404L14.0437 2.50029L13.7225 2.41585Z" fill="#FECA00"/>
<path fill-rule="evenodd" clip-rule="evenodd" d="M14.8535 2.21643L14.5807 2.40561L14.5965 2.07395L14.3323 1.87289L14.6526 1.78546L14.7621 1.47202L14.9443 1.74964L15.2762 1.75699L15.0685 2.016L15.1641 2.33397L14.8535 2.21643Z" fill="#FECA00"/>
<mask id="path-60-outside-1" maskUnits="userSpaceOnUse" x="8" y="4" width="16" height="17" fill="black">
<rect fill="white" x="8" y="4" width="16" height="17"/>
<path fill-rule="evenodd" clip-rule="evenodd" d="M16.9756 19.8033L16.5368 20L16.2308 19.5846V19.37L16 18.8764L15.634 18.4782L15.4827 17.4727L15.0348 16.7336L14.9821 16.6515L14.921 16.4601V16.1949L15.0348 15.8197L15.2335 15.3773V14.985V14.4934L15.0348 13.8935L14.4956 13.3978L14.235 13.0173L14.4956 12.5631L14.6909 12.1638L14.235 11.8853H13.718L13.1935 11.4044L12.4712 11.6428L11.5644 11.8853H11.0473H10.4525L9.95965 11.4044L9.69667 10.8372L9.19832 10.2501L9 9.95292L9.19832 9.53267V8.89566V8.31448L9.51034 8.00439L9.95965 7.20139L10.4525 6.77923L10.8725 6.41467L11.0473 6.04081L11.5644 5.4662L12.0317 5.21359V5.4662H12.4712L14.6909 5V5.74304L15.634 6.23924L16.5368 6.41467V6.04081L18.0941 6.41467L19.2045 6.23924V6.98627L19.7684 8.00439L20.2381 8.89566L20.4981 9.32932L20.906 9.73424L21.5611 10.2501V10.4959H22.2061L23 10.2501V10.8372L22.577 11.8853L21.7512 12.5631L20.6986 13.8935V14.4934L20.906 15.3773L20.6986 16.1949L19.5489 16.8707V17.2831V18.1357H18.9852V18.7422L17.7282 19.8033H16.9756ZM21.403 18L21.1444 17.8534L21.0561 17.6464L21 17.115L21.4394 16.6518L21.3484 16.138L21.4931 15.8675L21.7441 15.7923L22.3059 15.6344L22.7326 15L23 15.1029L22.9634 15.7923L21.8623 17.8534L21.403 18Z"/>
</mask>
<path fill-rule="evenodd" clip-rule="evenodd" d="M16.9756 19.8033L16.5368 20L16.2308 19.5846V19.37L16 18.8764L15.634 18.4782L15.4827 17.4727L15.0348 16.7336L14.9821 16.6515L14.921 16.4601V16.1949L15.0348 15.8197L15.2335 15.3773V14.985V14.4934L15.0348 13.8935L14.4956 13.3978L14.235 13.0173L14.4956 12.5631L14.6909 12.1638L14.235 11.8853H13.718L13.1935 11.4044L12.4712 11.6428L11.5644 11.8853H11.0473H10.4525L9.95965 11.4044L9.69667 10.8372L9.19832 10.2501L9 9.95292L9.19832 9.53267V8.89566V8.31448L9.51034 8.00439L9.95965 7.20139L10.4525 6.77923L10.8725 6.41467L11.0473 6.04081L11.5644 5.4662L12.0317 5.21359V5.4662H12.4712L14.6909 5V5.74304L15.634 6.23924L16.5368 6.41467V6.04081L18.0941 6.41467L19.2045 6.23924V6.98627L19.7684 8.00439L20.2381 8.89566L20.4981 9.32932L20.906 9.73424L21.5611 10.2501V10.4959H22.2061L23 10.2501V10.8372L22.577 11.8853L21.7512 12.5631L20.6986 13.8935V14.4934L20.906 15.3773L20.6986 16.1949L19.5489 16.8707V17.2831V18.1357H18.9852V18.7422L17.7282 19.8033H16.9756ZM21.403 18L21.1444 17.8534L21.0561 17.6464L21 17.115L21.4394 16.6518L21.3484 16.138L21.4931 15.8675L21.7441 15.7923L22.3059 15.6344L22.7326 15L23 15.1029L22.9634 15.7923L21.8623 17.8534L21.403 18Z" fill="#19724D"/>
<path d="M16.5368 20L16.3355 20.1483L16.4551 20.3106L16.6391 20.2281L16.5368 20ZM16.9756 19.8033V19.5533H16.9222L16.8734 19.5751L16.9756 19.8033ZM16.2308 19.5846H15.9808V19.6667L16.0295 19.7329L16.2308 19.5846ZM16.2308 19.37H16.4808V19.3144L16.4573 19.2641L16.2308 19.37ZM16 18.8764L16.2265 18.7705L16.2101 18.7356L16.1841 18.7073L16 18.8764ZM15.634 18.4782L15.3868 18.5154L15.3982 18.5911L15.45 18.6474L15.634 18.4782ZM15.4827 17.4727L15.7299 17.4355L15.7224 17.386L15.6965 17.3432L15.4827 17.4727ZM15.0348 16.7336L15.2486 16.604L15.2453 16.5988L15.0348 16.7336ZM14.9821 16.6515L14.744 16.7276L14.754 16.7587L14.7716 16.7863L14.9821 16.6515ZM14.921 16.4601H14.671V16.4991L14.6829 16.5362L14.921 16.4601ZM14.921 16.1949L14.6817 16.1224L14.671 16.1579V16.1949H14.921ZM15.0348 15.8197L14.8067 15.7173L14.8002 15.7319L14.7955 15.7472L15.0348 15.8197ZM15.2335 15.3773L15.4615 15.4797L15.4835 15.4309V15.3773H15.2335ZM15.2335 14.4934H15.4835V14.4531L15.4708 14.4148L15.2335 14.4934ZM15.0348 13.8935L15.2721 13.8149L15.2517 13.7533L15.204 13.7094L15.0348 13.8935ZM14.4956 13.3978L14.2893 13.5391L14.3054 13.5626L14.3264 13.5819L14.4956 13.3978ZM14.235 13.0173L14.0182 12.8929L13.9401 13.029L14.0287 13.1585L14.235 13.0173ZM14.4956 12.5631L14.7124 12.6875L14.7165 12.6804L14.7202 12.673L14.4956 12.5631ZM14.6909 12.1638L14.9155 12.2736L15.0156 12.0691L14.8213 11.9504L14.6909 12.1638ZM14.235 11.8853L14.3653 11.672L14.3053 11.6353H14.235V11.8853ZM13.718 11.8853L13.5491 12.0696L13.6208 12.1353H13.718V11.8853ZM13.1935 11.4044L13.3624 11.2201L13.2543 11.1211L13.1151 11.167L13.1935 11.4044ZM12.4712 11.6428L12.5358 11.8843L12.5427 11.8825L12.5496 11.8802L12.4712 11.6428ZM11.5644 11.8853V12.1353H11.5972L11.6289 12.1268L11.5644 11.8853ZM10.4525 11.8853L10.2779 12.0642L10.3507 12.1353H10.4525V11.8853ZM9.95965 11.4044L9.73284 11.5096L9.75217 11.5513L9.78506 11.5834L9.95965 11.4044ZM9.69667 10.8372L9.92347 10.7321L9.90921 10.7013L9.88726 10.6754L9.69667 10.8372ZM9.19832 10.2501L8.99036 10.3889L8.99838 10.4009L9.00773 10.4119L9.19832 10.2501ZM9 9.95292L8.77391 9.84623L8.71358 9.97408L8.79204 10.0917L9 9.95292ZM9.19832 9.53267L9.42441 9.63936L9.44832 9.5887V9.53267H9.19832ZM9.19832 8.31448L9.02209 8.13716L8.94832 8.21047V8.31448H9.19832ZM9.51034 8.00439L9.68657 8.18172L9.71141 8.15703L9.72851 8.12647L9.51034 8.00439ZM9.95965 7.20139L9.79701 7.01153L9.76321 7.04048L9.74148 7.07932L9.95965 7.20139ZM10.4525 6.77923L10.6151 6.96909L10.6163 6.96804L10.4525 6.77923ZM10.8725 6.41467L11.0364 6.60349L11.0765 6.56866L11.099 6.52053L10.8725 6.41467ZM11.0473 6.04081L10.8615 5.87358L10.8366 5.90125L10.8208 5.93496L11.0473 6.04081ZM11.5644 5.4662L11.4455 5.24627L11.4075 5.26683L11.3785 5.29897L11.5644 5.4662ZM12.0317 5.21359H12.2817V4.79428L11.9129 4.99366L12.0317 5.21359ZM12.0317 5.4662H11.7817V5.7162H12.0317V5.4662ZM12.4712 5.4662V5.7162H12.4972L12.5226 5.71087L12.4712 5.4662ZM14.6909 5H14.9409V4.69204L14.6396 4.75534L14.6909 5ZM14.6909 5.74304H14.4409V5.894L14.5745 5.96428L14.6909 5.74304ZM15.634 6.23924L15.5176 6.46048L15.5502 6.47762L15.5863 6.48465L15.634 6.23924ZM16.5368 6.41467L16.4891 6.66008L16.7868 6.71793V6.41467H16.5368ZM16.5368 6.04081L16.5952 5.79772L16.2868 5.72369V6.04081H16.5368ZM18.0941 6.41467L18.0357 6.65777L18.0841 6.66936L18.1331 6.66161L18.0941 6.41467ZM19.2045 6.23924H19.4545V5.94664L19.1655 5.9923L19.2045 6.23924ZM19.2045 6.98627H18.9545V7.05088L18.9858 7.1074L19.2045 6.98627ZM19.7684 8.00439L19.9896 7.88781L19.9871 7.88327L19.7684 8.00439ZM20.2381 8.89566L20.0166 9.0124L20.0237 9.02422L20.2381 8.89566ZM20.4981 9.32932L20.2837 9.45788L20.2998 9.4847L20.322 9.50673L20.4981 9.32932ZM20.906 9.73424L20.7298 9.91165L20.74 9.92177L20.7513 9.93066L20.906 9.73424ZM21.5611 10.2501H21.8111V10.1288L21.7158 10.0537L21.5611 10.2501ZM21.5611 10.4959H21.3111V10.7459H21.5611V10.4959ZM22.2061 10.4959V10.7459H22.2439L22.28 10.7347L22.2061 10.4959ZM23 10.2501H23.25V9.91105L22.9261 10.0113L23 10.2501ZM23 10.8372L23.2318 10.9308L23.25 10.8858V10.8372H23ZM22.577 11.8853L22.7356 12.0785L22.7849 12.0381L22.8088 11.9789L22.577 11.8853ZM21.7512 12.5631L21.5926 12.3699L21.5718 12.3869L21.5552 12.408L21.7512 12.5631ZM20.6986 13.8935L20.5026 13.7384L20.4486 13.8066V13.8935H20.6986ZM20.6986 14.4934H20.4486V14.5223L20.4552 14.5505L20.6986 14.4934ZM20.906 15.3773L21.1483 15.4387L21.1633 15.3796L21.1494 15.3202L20.906 15.3773ZM20.6986 16.1949L20.8253 16.4105L20.9153 16.3576L20.941 16.2564L20.6986 16.1949ZM19.5489 16.8707L19.4222 16.6551L19.2989 16.7276V16.8707H19.5489ZM19.5489 18.1357V18.3857H19.7989V18.1357H19.5489ZM18.9852 18.1357V17.8857H18.7352V18.1357H18.9852ZM18.9852 18.7422L19.1464 18.9332L19.2352 18.8583V18.7422H18.9852ZM17.7282 19.8033V20.0533H17.8196L17.8895 19.9943L17.7282 19.8033ZM21.1444 17.8534L20.9144 17.9514L20.9476 18.0292L21.0211 18.0708L21.1444 17.8534ZM21.403 18L21.2797 18.2175L21.3748 18.2714L21.479 18.2382L21.403 18ZM21.0561 17.6464L20.8075 17.6726L20.8115 17.7099L20.8262 17.7444L21.0561 17.6464ZM21 17.115L20.8186 16.9429L20.7393 17.0265L20.7514 17.1412L21 17.115ZM21.4394 16.6518L21.6207 16.8239L21.7075 16.7324L21.6855 16.6082L21.4394 16.6518ZM21.3484 16.138L21.128 16.0201L21.0872 16.0964L21.1023 16.1816L21.3484 16.138ZM21.4931 15.8675L21.4214 15.6281L21.3218 15.6579L21.2727 15.7496L21.4931 15.8675ZM21.7441 15.7923L21.6765 15.5516L21.6723 15.5528L21.7441 15.7923ZM22.3059 15.6344L22.3735 15.8751L22.462 15.8502L22.5133 15.7739L22.3059 15.6344ZM22.7326 15L22.8224 14.7667L22.6364 14.6951L22.5252 14.8605L22.7326 15ZM23 15.1029L23.2496 15.1161L23.2593 14.9348L23.0898 14.8695L23 15.1029ZM22.9634 15.7923L23.1839 15.9101L23.2101 15.8611L23.213 15.8056L22.9634 15.7923ZM21.8623 17.8534L21.9383 18.0915L22.035 18.0607L22.0828 17.9712L21.8623 17.8534ZM16.6391 20.2281L17.0779 20.0314L16.8734 19.5751L16.4345 19.7719L16.6391 20.2281ZM16.0295 19.7329L16.3355 20.1483L16.7381 19.8517L16.4321 19.4363L16.0295 19.7329ZM15.9808 19.37V19.5846H16.4808V19.37H15.9808ZM15.7735 18.9823L16.0044 19.4759L16.4573 19.2641L16.2265 18.7705L15.7735 18.9823ZM15.45 18.6474L15.8159 19.0456L16.1841 18.7073L15.8181 18.3091L15.45 18.6474ZM15.2354 17.5099L15.3868 18.5154L15.8812 18.441L15.7299 17.4355L15.2354 17.5099ZM14.821 16.8632L15.2689 17.6023L15.6965 17.3432L15.2486 16.604L14.821 16.8632ZM14.7716 16.7863L14.8242 16.8684L15.2453 16.5988L15.1927 16.5166L14.7716 16.7863ZM14.6829 16.5362L14.744 16.7276L15.2203 16.5754L15.1591 16.384L14.6829 16.5362ZM14.671 16.1949V16.4601H15.171V16.1949H14.671ZM14.7955 15.7472L14.6817 16.1224L15.1602 16.2675L15.274 15.8923L14.7955 15.7472ZM15.0054 15.2749L14.8067 15.7173L15.2628 15.9221L15.4615 15.4797L15.0054 15.2749ZM14.9835 14.985V15.3773H15.4835V14.985H14.9835ZM14.9835 14.4934V14.985H15.4835V14.4934H14.9835ZM14.7974 13.9721L14.9962 14.572L15.4708 14.4148L15.2721 13.8149L14.7974 13.9721ZM14.3264 13.5819L14.8656 14.0775L15.204 13.7094L14.6648 13.2138L14.3264 13.5819ZM14.0287 13.1585L14.2893 13.5391L14.7019 13.2566L14.4413 12.876L14.0287 13.1585ZM14.2787 12.4387L14.0182 12.8929L14.4519 13.1417L14.7124 12.6875L14.2787 12.4387ZM14.4664 12.0539L14.271 12.4532L14.7202 12.673L14.9155 12.2736L14.4664 12.0539ZM14.1047 12.0986L14.5606 12.3771L14.8213 11.9504L14.3653 11.672L14.1047 12.0986ZM13.718 12.1353H14.235V11.6353H13.718V12.1353ZM13.0245 11.5887L13.5491 12.0696L13.887 11.701L13.3624 11.2201L13.0245 11.5887ZM12.5496 11.8802L13.2718 11.6418L13.1151 11.167L12.3928 11.4054L12.5496 11.8802ZM11.6289 12.1268L12.5358 11.8843L12.4066 11.4013L11.4998 11.6438L11.6289 12.1268ZM11.0473 12.1353H11.5644V11.6353H11.0473V12.1353ZM10.4525 12.1353H11.0473V11.6353H10.4525V12.1353ZM9.78506 11.5834L10.2779 12.0642L10.6271 11.7064L10.1342 11.2255L9.78506 11.5834ZM9.46986 10.9424L9.73284 11.5096L10.1865 11.2993L9.92347 10.7321L9.46986 10.9424ZM9.00773 10.4119L9.50608 10.999L9.88726 10.6754L9.38891 10.0884L9.00773 10.4119ZM8.79204 10.0917L8.99036 10.3889L9.40628 10.1114L9.20796 9.81417L8.79204 10.0917ZM8.97223 9.42598L8.77391 9.84623L9.22609 10.0596L9.42441 9.63936L8.97223 9.42598ZM8.94832 8.89566V9.53267H9.44832V8.89566H8.94832ZM8.94832 8.31448V8.89566H9.44832V8.31448H8.94832ZM9.33411 7.82707L9.02209 8.13716L9.37454 8.49181L9.68657 8.18172L9.33411 7.82707ZM9.74148 7.07932L9.29217 7.88232L9.72851 8.12647L10.1778 7.32346L9.74148 7.07932ZM10.2898 6.58936L9.79701 7.01153L10.1223 7.39125L10.6151 6.96909L10.2898 6.58936ZM10.7087 6.22586L10.2886 6.59041L10.6163 6.96804L11.0364 6.60349L10.7087 6.22586ZM10.8208 5.93496L10.6461 6.30882L11.099 6.52053L11.2738 6.14667L10.8208 5.93496ZM11.3785 5.29897L10.8615 5.87358L11.2331 6.20804L11.7502 5.63343L11.3785 5.29897ZM11.9129 4.99366L11.4455 5.24627L11.6832 5.68613L12.1506 5.43352L11.9129 4.99366ZM12.2817 5.4662V5.21359H11.7817V5.4662H12.2817ZM12.4712 5.2162H12.0317V5.7162H12.4712V5.2162ZM14.6396 4.75534L12.4198 5.22154L12.5226 5.71087L14.7423 5.24466L14.6396 4.75534ZM14.9409 5.74304V5H14.4409V5.74304H14.9409ZM15.7504 6.01799L14.8073 5.52179L14.5745 5.96428L15.5176 6.46048L15.7504 6.01799ZM16.5845 6.16926L15.6817 5.99383L15.5863 6.48465L16.4891 6.66008L16.5845 6.16926ZM16.2868 6.04081V6.41467H16.7868V6.04081H16.2868ZM18.1525 6.17158L16.5952 5.79772L16.4785 6.28391L18.0357 6.65777L18.1525 6.17158ZM19.1655 5.9923L18.0551 6.16773L18.1331 6.66161L19.2435 6.48617L19.1655 5.9923ZM19.4545 6.98627V6.23924H18.9545V6.98627H19.4545ZM19.9871 7.88327L19.4232 6.86514L18.9858 7.1074L19.5497 8.12552L19.9871 7.88327ZM20.4593 8.7791L19.9896 7.88783L19.5472 8.12095L20.017 9.01222L20.4593 8.7791ZM20.7126 9.20076L20.4525 8.7671L20.0237 9.02422L20.2837 9.45788L20.7126 9.20076ZM21.0821 9.55684L20.6743 9.15192L20.322 9.50673L20.7298 9.91165L21.0821 9.55684ZM21.7158 10.0537L21.0606 9.53783L20.7513 9.93066L21.4065 10.4466L21.7158 10.0537ZM21.8111 10.4959V10.2501H21.3111V10.4959H21.8111ZM22.2061 10.2459H21.5611V10.7459H22.2061V10.2459ZM22.9261 10.0113L22.1321 10.2571L22.28 10.7347L23.0739 10.489L22.9261 10.0113ZM23.25 10.8372V10.2501H22.75V10.8372H23.25ZM22.8088 11.9789L23.2318 10.9308L22.7682 10.7436L22.3451 11.7917L22.8088 11.9789ZM21.9098 12.7563L22.7356 12.0785L22.4183 11.6921L21.5926 12.3699L21.9098 12.7563ZM20.8947 14.0486L21.9473 12.7182L21.5552 12.408L20.5026 13.7384L20.8947 14.0486ZM20.9486 14.4934V13.8935H20.4486V14.4934H20.9486ZM21.1494 15.3202L20.942 14.4363L20.4552 14.5505L20.6626 15.4344L21.1494 15.3202ZM20.941 16.2564L21.1483 15.4387L20.6636 15.3159L20.4563 16.1335L20.941 16.2564ZM19.6755 17.0862L20.8253 16.4105L20.572 15.9794L19.4222 16.6551L19.6755 17.0862ZM19.7989 17.2831V16.8707H19.2989V17.2831H19.7989ZM19.7989 18.1357V17.2831H19.2989V18.1357H19.7989ZM18.9852 18.3857H19.5489V17.8857H18.9852V18.3857ZM19.2352 18.7422V18.1357H18.7352V18.7422H19.2352ZM17.8895 19.9943L19.1464 18.9332L18.8239 18.5511L17.5669 19.6122L17.8895 19.9943ZM16.9756 20.0533H17.7282V19.5533H16.9756V20.0533ZM21.0211 18.0708L21.2797 18.2175L21.5263 17.7825L21.2677 17.6359L21.0211 18.0708ZM20.8262 17.7444L20.9144 17.9514L21.3744 17.7553L21.2861 17.5483L20.8262 17.7444ZM20.7514 17.1412L20.8075 17.6726L21.3047 17.6201L21.2486 17.0887L20.7514 17.1412ZM21.258 16.4797L20.8186 16.9429L21.1814 17.287L21.6207 16.8239L21.258 16.4797ZM21.1023 16.1816L21.1932 16.6954L21.6855 16.6082L21.5946 16.0945L21.1023 16.1816ZM21.2727 15.7496L21.128 16.0201L21.5689 16.256L21.7136 15.9855L21.2727 15.7496ZM21.6723 15.5528L21.4214 15.6281L21.5649 16.107L21.8159 16.0318L21.6723 15.5528ZM22.2382 15.3937L21.6765 15.5516L21.8118 16.033L22.3735 15.8751L22.2382 15.3937ZM22.5252 14.8605L22.0984 15.4949L22.5133 15.7739L22.9401 15.1395L22.5252 14.8605ZM23.0898 14.8695L22.8224 14.7667L22.6429 15.2333L22.9102 15.3362L23.0898 14.8695ZM23.213 15.8056L23.2496 15.1161L22.7504 15.0896L22.7137 15.779L23.213 15.8056ZM22.0828 17.9712L23.1839 15.9101L22.7429 15.6745L21.6418 17.7356L22.0828 17.9712ZM21.479 18.2382L21.9383 18.0915L21.7862 17.6152L21.3269 17.7618L21.479 18.2382Z" fill="#F7FCFF" mask="url(#path-60-outside-1)"/>
</g>
</g>
</g>
</svg>
