<svg width="32" height="24" viewBox="0 0 32 24" fill="none" xmlns="http://www.w3.org/2000/svg">
<mask id="mask0" mask-type="alpha" maskUnits="userSpaceOnUse" x="0" y="0" width="32" height="24">
<rect width="32" height="24" fill="white"/>
</mask>
<g mask="url(#mask0)">
<path fill-rule="evenodd" clip-rule="evenodd" d="M0 0V24H32V0H0Z" fill="#AF0100"/>
<mask id="mask1" mask-type="alpha" maskUnits="userSpaceOnUse" x="0" y="0" width="32" height="24">
<path fill-rule="evenodd" clip-rule="evenodd" d="M0 0V24H32V0H0Z" fill="white"/>
</mask>
<g mask="url(#mask1)">
<path fill-rule="evenodd" clip-rule="evenodd" d="M21.0298 11.0427L29.9185 11.0427V20.0326C29.9185 20.0326 29.6426 21.2702 27.9315 22.0874C26.2205 22.9046 25.4742 22.9046 25.4742 22.9046C25.4742 22.9046 22.7487 22.2349 22.1852 21.6078C21.6217 20.9807 21.0298 20.7487 21.0298 19.6525C21.0298 18.5563 21.0298 11.0427 21.0298 11.0427Z" fill="white"/>
<mask id="mask2" mask-type="alpha" maskUnits="userSpaceOnUse" x="21" y="11" width="9" height="12">
<path fill-rule="evenodd" clip-rule="evenodd" d="M21.0298 11.0427L29.9185 11.0427V20.0326C29.9185 20.0326 29.6426 21.2702 27.9315 22.0874C26.2205 22.9046 25.4742 22.9046 25.4742 22.9046C25.4742 22.9046 22.7487 22.2349 22.1852 21.6078C21.6217 20.9807 21.0298 20.7487 21.0298 19.6525C21.0298 18.5563 21.0298 11.0427 21.0298 11.0427Z" fill="white"/>
</mask>
<g mask="url(#mask2)">
<path fill-rule="evenodd" clip-rule="evenodd" d="M25.4554 11.5701C25.4888 11.5219 25.5063 11.4758 25.5063 11.4758L25.5032 11.6262C25.535 11.6558 25.574 11.6779 25.6199 11.6779L25.8169 11.5612C25.8169 11.5612 25.7716 11.819 25.8311 11.8117C25.8311 11.8117 26.0148 11.6903 26.0877 11.7559C26.0877 11.7559 25.8738 12.0009 26.1313 12.0025C26.1313 12.0025 26.455 11.9504 26.427 12.1007C26.427 12.1007 26.1844 12.5461 26.2863 12.5743L26.6868 12.5626C26.6868 12.5626 26.4184 12.796 26.4256 12.8943L26.5593 12.9992C26.5593 12.9992 26.6343 12.8147 26.6974 12.9657C26.6974 12.9657 26.7056 13.2399 26.6636 13.2399L26.3076 13.3538C26.3076 13.3538 26.2845 13.4879 26.4118 13.4879C26.4118 13.4879 26.7064 13.3632 26.7148 13.4898C26.7148 13.4898 26.676 13.6363 26.6589 13.7599C26.6589 13.7599 26.6401 14.2085 26.6373 14.2472C26.6373 14.2472 26.6606 14.2304 26.8847 14.4943C26.8847 14.4943 27.4502 14.8517 27.5538 14.7694C27.5824 14.7467 27.6011 14.7003 27.6222 14.6477C27.6777 14.5099 27.75 14.33 28.0627 14.4271L28.0655 14.4279C28.4951 14.5612 28.5995 14.5936 28.4909 14.7694C28.382 14.9456 27.9685 15.3654 27.9685 15.3654L27.61 16.8035H28.3779C28.6096 16.8035 28.8224 16.8933 28.8632 17.0853C28.9041 17.2774 28.9147 17.6507 28.9147 17.6952C28.9147 17.7013 28.9137 17.7095 28.9126 17.7193C28.9053 17.7817 28.8907 17.9054 29.0741 17.9054C29.0741 17.9054 29.4414 17.9529 29.3653 17.9796C29.3653 17.9796 29.105 17.9294 29.1032 18.1585C29.1032 18.1585 29.0032 18.188 29.0516 18.4709C29.0516 18.4709 29.2535 19.0906 29.1195 18.9628C29.1195 18.9628 28.845 18.6406 28.845 18.5034C28.845 18.5034 28.649 18.5806 28.6551 18.7826C28.6551 18.7826 28.4696 19.0307 28.4752 18.7881C28.4752 18.7881 28.7894 18.192 28.6138 18.3271C28.6138 18.3271 28.3863 18.8193 28.3565 18.7447L27.5125 18.5164L27.191 19.9312C27.191 19.9312 27.2766 20.1967 27.5125 20.1967C27.598 20.1967 27.6739 20.1633 27.7432 20.1328C27.865 20.0793 27.9662 20.0348 28.0627 20.1967C28.2141 20.4506 28.2815 20.4744 28.3565 20.4744C28.4314 20.4744 28.519 20.5718 28.4752 20.7208C28.4314 20.8698 28.2347 20.9818 28.1487 20.9818C28.1171 20.9818 28.1255 21.0088 28.136 21.0428C28.1542 21.1012 28.1789 21.1806 28.0187 21.1806C27.8917 21.1806 27.8282 21.1654 27.7648 21.1502C27.7016 21.1351 27.6384 21.1199 27.5125 21.1199C27.483 21.1199 27.4537 21.1203 27.4249 21.1206C27.2082 21.123 27.024 21.1251 27.024 20.9818C27.024 20.8429 26.857 20.7198 26.7092 20.6108C26.6844 20.5925 26.6601 20.5747 26.6373 20.5572C26.4783 20.4354 26.1313 19.0593 26.1313 19.0593L25.475 14.9261L25.4554 13.9668L25.4358 14.9261L24.7796 19.0593C24.7796 19.0593 24.4326 20.4354 24.2735 20.5572C24.2507 20.5747 24.2265 20.5925 24.2017 20.6108C24.0538 20.7198 23.8868 20.8429 23.8868 20.9818C23.8868 21.1251 23.7026 21.123 23.4859 21.1206C23.4572 21.1203 23.4279 21.1199 23.3984 21.1199C23.2725 21.1199 23.2093 21.1351 23.146 21.1502C23.0826 21.1654 23.0191 21.1806 22.8922 21.1806C22.7319 21.1806 22.7566 21.1012 22.7748 21.0428C22.7854 21.0088 22.7938 20.9818 22.7621 20.9818C22.6761 20.9818 22.4794 20.8698 22.4356 20.7208C22.3919 20.5718 22.4794 20.4744 22.5544 20.4744C22.6294 20.4744 22.6967 20.4506 22.8481 20.1967C22.9446 20.0348 23.0459 20.0793 23.1677 20.1328C23.2369 20.1633 23.3129 20.1967 23.3984 20.1967C23.6343 20.1967 23.7199 19.9312 23.7199 19.9312L23.3984 18.5164L22.5544 18.7447C22.5245 18.8193 22.297 18.3271 22.297 18.3271C22.1214 18.192 22.4356 18.7881 22.4356 18.7881C22.4413 19.0307 22.2558 18.7826 22.2558 18.7826C22.2618 18.5806 22.0659 18.5034 22.0659 18.5034C22.0659 18.6406 21.7913 18.9628 21.7913 18.9628C21.6573 19.0906 21.8593 18.4709 21.8593 18.4709C21.9077 18.188 21.8077 18.1585 21.8077 18.1585C21.8059 17.9294 21.5455 17.9796 21.5455 17.9796C21.4694 17.9529 21.8367 17.9054 21.8367 17.9054C22.0202 17.9054 22.0056 17.7817 21.9983 17.7193C21.9971 17.7095 21.9961 17.7013 21.9961 17.6952C21.9961 17.6507 22.0068 17.2774 22.0476 17.0853C22.0884 16.8933 22.3013 16.8035 22.5329 16.8035H23.3008L22.9423 15.3654C22.9423 15.3654 22.5288 14.9456 22.42 14.7694C22.3114 14.5936 22.4158 14.5612 22.8453 14.4279L22.8481 14.4271C23.1608 14.33 23.2332 14.5099 23.2886 14.6477C23.3098 14.7003 23.3284 14.7467 23.357 14.7694C23.4607 14.8517 24.0261 14.4943 24.0261 14.4943C24.2502 14.2304 24.2735 14.2472 24.2735 14.2472C24.2707 14.2085 24.252 13.7599 24.252 13.7599C24.2349 13.6363 24.196 13.4898 24.196 13.4898C24.2044 13.3632 24.499 13.4879 24.499 13.4879C24.6263 13.4879 24.6033 13.3538 24.6033 13.3538L24.2472 13.2399C24.2053 13.2399 24.2135 12.9657 24.2135 12.9657C24.2766 12.8147 24.3516 12.9992 24.3516 12.9992L24.4852 12.8943C24.4924 12.796 24.224 12.5626 24.224 12.5626L24.6245 12.5743C24.7265 12.5461 24.4839 12.1007 24.4839 12.1007C24.4559 11.9504 24.7796 12.0025 24.7796 12.0025C25.0371 12.0009 24.8232 11.7559 24.8232 11.7559C24.896 11.6903 25.0797 11.8117 25.0797 11.8117C25.1393 11.819 25.0939 11.5612 25.0939 11.5612L25.291 11.6779C25.3368 11.6779 25.3759 11.6558 25.4076 11.6262L25.4046 11.4758C25.4046 11.4758 25.4221 11.5219 25.4554 11.5701Z" fill="#CF142B"/>
<path fill-rule="evenodd" clip-rule="evenodd" d="M21.2224 20L20.8954 19.6786V23.3214H24.7675H26.1279H30V19.6786L29.673 20C29.722 19.6158 29.6478 19.7393 29.5591 19.887C29.5171 19.9569 29.4719 20.0321 29.435 20.0615C29.4003 20.0892 29.3924 19.9769 29.3846 19.8669C29.3778 19.7696 29.371 19.674 29.346 19.6786C29.346 19.6786 29.2469 19.5206 29.1861 19.5804C29.174 19.5923 29.1649 19.6803 29.1546 19.7798C29.1435 19.8873 29.1311 20.0083 29.1118 20.0615C29.0894 20.1235 29.0189 20 29.0189 20C29.0189 20 29.0225 19.5332 28.951 19.4629C28.8795 19.3926 28.8724 20 28.8724 20C28.8724 20 28.7628 19.5501 28.6522 19.5804C28.6336 19.5855 28.624 19.7031 28.6136 19.8297C28.6035 19.9528 28.5927 20.0843 28.5723 20.1289C28.5306 20.2204 28.4327 19.5804 28.4327 19.5804C28.4327 19.5804 28.4036 20.1046 28.3059 20.1289C28.2896 20.133 28.2745 20.0482 28.2578 19.9547C28.2418 19.8648 28.2243 19.7669 28.2029 19.7314C28.1577 19.6565 27.9445 19.9495 27.9445 19.9495L27.7954 19.3447L27.3838 19.6786H26.1279H24.7675H23.5117L23.1 19.3447L22.9509 19.9495C22.9509 19.9495 22.7378 19.6565 22.6925 19.7314C22.6711 19.7669 22.6537 19.8648 22.6377 19.9547C22.621 20.0482 22.6059 20.133 22.5895 20.1289C22.4918 20.1046 22.4627 19.5804 22.4627 19.5804C22.4627 19.5804 22.3649 20.2204 22.3231 20.1289C22.3027 20.0843 22.2919 19.9528 22.2818 19.8297C22.2715 19.7031 22.2618 19.5855 22.2432 19.5804C22.1326 19.5501 22.023 20 22.023 20C22.023 20 22.0159 19.3926 21.9444 19.4629C21.8729 19.5332 21.8765 20 21.8765 20C21.8765 20 21.806 20.1235 21.7836 20.0615C21.7644 20.0083 21.7519 19.8873 21.7408 19.7798C21.7305 19.6803 21.7215 19.5923 21.7093 19.5804C21.6485 19.5206 21.5495 19.6786 21.5495 19.6786C21.5244 19.674 21.5177 19.7696 21.5108 19.8669C21.503 19.9769 21.4951 20.0892 21.4604 20.0615C21.4235 20.0321 21.3783 19.9569 21.3363 19.887C21.2476 19.7393 21.1734 19.6158 21.2224 20Z" fill="#5DC852"/>
<path fill-rule="evenodd" clip-rule="evenodd" d="M28.1804 14.94C28.1804 14.94 28.2233 15.0503 28.1804 15.1591V14.94ZM25.4859 14.7626C25.5596 14.7737 25.6257 14.7916 25.6822 14.8069C25.814 14.8425 25.8934 14.864 25.8934 14.752C25.8934 14.6703 26.1097 14.776 26.4079 14.9216C26.7964 15.1114 27.3241 15.3691 27.6938 15.3691C28.0159 15.3691 28.1386 15.2648 28.1804 15.1591V15.5843C28.1804 15.6602 28.1971 15.7503 28.2128 15.835C28.2416 15.9904 28.2671 16.1278 28.1804 16.1278C28.0463 16.1278 27.4458 16.5501 27.4458 17.0365C27.4458 17.5229 28.1804 17.9225 28.1804 17.9225C28.1804 17.9225 27.6938 19.6349 27.2681 19.8965C27.0098 20.0553 26.8566 19.925 26.7761 19.8565C26.724 19.8121 26.7023 19.7937 26.7023 19.8965C26.7023 20.1581 26.3334 20.5271 25.8934 20.6727C25.609 20.7669 25.6923 20.8391 25.7868 20.921C25.8384 20.9657 25.8934 21.0134 25.8934 21.069C25.8934 21.1949 25.5463 21.0189 25.407 20.9432C25.2677 21.0189 24.9206 21.1949 24.9206 21.069C24.9206 21.0134 24.9756 20.9657 25.0273 20.921C25.1217 20.8391 25.2051 20.7669 24.9206 20.6727C24.4807 20.5271 24.1117 20.1581 24.1117 19.8965C24.1117 19.7937 24.0901 19.8121 24.0379 19.8565C23.9574 19.925 23.8043 20.0553 23.5459 19.8965C23.1203 19.6349 22.6337 17.9225 22.6337 17.9225C22.6337 17.9225 23.3682 17.5229 23.3682 17.0365C23.3682 16.5501 22.7678 16.1278 22.6337 16.1278C22.5469 16.1278 22.5724 15.9904 22.6013 15.835C22.617 15.7503 22.6337 15.6602 22.6337 15.5843V15.1591C22.6754 15.2648 22.7982 15.3691 23.1203 15.3691C23.49 15.3691 24.0176 15.1114 24.4062 14.9216C24.7044 14.776 24.9206 14.6703 24.9206 14.752C24.9206 14.864 25 14.8425 25.1318 14.8069C25.1883 14.7916 25.2545 14.7737 25.3281 14.7626C25.3351 14.7556 25.3425 14.752 25.3502 14.752C25.3695 14.752 25.3884 14.7526 25.407 14.7539C25.4256 14.7526 25.4445 14.752 25.4638 14.752C25.4716 14.752 25.4789 14.7556 25.4859 14.7626ZM22.6337 14.94C22.6337 14.94 22.5908 15.0503 22.6337 15.1591V14.94Z" fill="#4ABCE6"/>
<mask id="mask3" mask-type="alpha" maskUnits="userSpaceOnUse" x="22" y="14" width="7" height="8">
<path fill-rule="evenodd" clip-rule="evenodd" d="M28.1804 14.94C28.1804 14.94 28.2233 15.0503 28.1804 15.1591V14.94ZM25.4859 14.7626C25.5596 14.7737 25.6257 14.7916 25.6822 14.8069C25.814 14.8425 25.8934 14.864 25.8934 14.752C25.8934 14.6703 26.1097 14.776 26.4079 14.9216C26.7964 15.1114 27.3241 15.3691 27.6938 15.3691C28.0159 15.3691 28.1386 15.2648 28.1804 15.1591V15.5843C28.1804 15.6602 28.1971 15.7503 28.2128 15.835C28.2416 15.9904 28.2671 16.1278 28.1804 16.1278C28.0463 16.1278 27.4458 16.5501 27.4458 17.0365C27.4458 17.5229 28.1804 17.9225 28.1804 17.9225C28.1804 17.9225 27.6938 19.6349 27.2681 19.8965C27.0098 20.0553 26.8566 19.925 26.7761 19.8565C26.724 19.8121 26.7023 19.7937 26.7023 19.8965C26.7023 20.1581 26.3334 20.5271 25.8934 20.6727C25.609 20.7669 25.6923 20.8391 25.7868 20.921C25.8384 20.9657 25.8934 21.0134 25.8934 21.069C25.8934 21.1949 25.5463 21.0189 25.407 20.9432C25.2677 21.0189 24.9206 21.1949 24.9206 21.069C24.9206 21.0134 24.9756 20.9657 25.0273 20.921C25.1217 20.8391 25.2051 20.7669 24.9206 20.6727C24.4807 20.5271 24.1117 20.1581 24.1117 19.8965C24.1117 19.7937 24.0901 19.8121 24.0379 19.8565C23.9574 19.925 23.8043 20.0553 23.5459 19.8965C23.1203 19.6349 22.6337 17.9225 22.6337 17.9225C22.6337 17.9225 23.3682 17.5229 23.3682 17.0365C23.3682 16.5501 22.7678 16.1278 22.6337 16.1278C22.5469 16.1278 22.5724 15.9904 22.6013 15.835C22.617 15.7503 22.6337 15.6602 22.6337 15.5843V15.1591C22.6754 15.2648 22.7982 15.3691 23.1203 15.3691C23.49 15.3691 24.0176 15.1114 24.4062 14.9216C24.7044 14.776 24.9206 14.6703 24.9206 14.752C24.9206 14.864 25 14.8425 25.1318 14.8069C25.1883 14.7916 25.2545 14.7737 25.3281 14.7626C25.3351 14.7556 25.3425 14.752 25.3502 14.752C25.3695 14.752 25.3884 14.7526 25.407 14.7539C25.4256 14.7526 25.4445 14.752 25.4638 14.752C25.4716 14.752 25.4789 14.7556 25.4859 14.7626ZM22.6337 14.94C22.6337 14.94 22.5908 15.0503 22.6337 15.1591V14.94Z" fill="white"/>
</mask>
<g mask="url(#mask3)">
<path fill-rule="evenodd" clip-rule="evenodd" d="M22.4652 16.8928C22.4652 16.8928 24.6518 16.6599 25.9357 16.6599C27.2197 16.6599 26.5293 16.7389 27.0228 16.7943C27.5163 16.8497 28.0117 16.8928 28.0117 16.8928V21.2857H22.4652V16.8928Z" fill="white"/>
<path fill-rule="evenodd" clip-rule="evenodd" d="M22.9849 16.2726C22.9849 16.2726 22.8062 15.9225 23.5312 15.7973C24.2561 15.672 24.4804 15.6193 24.7551 15.946C25.0299 16.2726 25.5882 17.6791 25.1717 18.057C24.7551 18.4349 24.4649 18.8326 24.3001 18.6943C24.1353 18.556 24.4878 18.057 23.6162 18.057C22.7447 18.057 22.4469 18.057 22.4469 18.057L22.9849 16.2726Z" fill="#FFDA3A"/>
<path fill-rule="evenodd" clip-rule="evenodd" d="M26.6573 16.6122L25.0945 17.0914C25.0945 17.0914 25.2361 18.1582 24.833 18.1582C24.4299 18.1582 24.2582 15.849 24.2582 15.849H24.0917L24.6227 18.3886L24.2582 18.6245L25.3745 19.1207L27.267 18.1582L26.6573 16.6122Z" fill="#B35A1F"/>
</g>
<path fill-rule="evenodd" clip-rule="evenodd" d="M24.4062 14.9216C24.0176 15.1114 23.49 15.3691 23.1203 15.3691C22.8619 15.3691 22.6997 15.3188 22.6337 15.2181V15.5843C22.6337 15.6602 22.617 15.7503 22.6013 15.835C22.5724 15.9904 22.5469 16.1278 22.6337 16.1278C22.7678 16.1278 23.3682 16.5501 23.3682 17.0365C23.3682 17.3608 23.1234 17.6561 22.6337 17.9225C22.9581 19.0641 23.2622 19.7221 23.5459 19.8965C23.7743 20.0369 23.9204 19.9513 24.0108 19.8791C24.0207 19.8712 24.0297 19.8635 24.0379 19.8565C24.0901 19.8121 24.1117 19.7937 24.1117 19.8965C24.1117 19.906 24.1122 19.9157 24.1138 19.9313C24.144 20.1898 24.4998 20.5334 24.9206 20.6727C25.2051 20.7669 25.1217 20.8391 25.0273 20.921C24.9756 20.9657 24.9206 21.0134 24.9206 21.069C24.9206 21.1684 25.0828 21.1267 25.407 20.9441C25.7313 21.1267 25.8934 21.1684 25.8934 21.069C25.8934 21.0134 25.8384 20.9657 25.7868 20.921C25.6923 20.8391 25.609 20.7669 25.8934 20.6727C26.3142 20.5334 26.6701 20.1898 26.7009 19.9254C26.7019 19.9157 26.7023 19.906 26.7023 19.8965C26.7023 19.7937 26.724 19.8121 26.7786 19.8585C26.7873 19.8658 26.7968 19.8739 26.8071 19.8823C26.8936 19.9513 27.0398 20.0369 27.2681 19.8965C27.5519 19.7221 27.856 19.0641 28.1804 17.9225C27.6907 17.6561 27.4458 17.3608 27.4458 17.0365C27.4458 16.5501 28.0463 16.1278 28.1804 16.1278C28.2671 16.1278 28.2416 15.9904 28.2128 15.835C28.1971 15.7503 28.1804 15.6602 28.1804 15.5843V15.2181C28.2256 15.1491 28.2256 15.0564 28.1804 14.94V15.2181C28.1144 15.3188 27.9522 15.3691 27.6938 15.3691C27.3241 15.3691 26.7964 15.1114 26.4079 14.9216C26.1097 14.776 25.8934 14.6703 25.8934 14.752C25.8934 14.864 25.814 14.8425 25.6822 14.8069C25.6268 14.7918 25.562 14.7743 25.49 14.7632C25.4816 14.7557 25.4729 14.752 25.4638 14.752C25.4445 14.752 25.4256 14.7526 25.407 14.7539C25.3884 14.7526 25.3695 14.752 25.3502 14.752C25.3411 14.752 25.3324 14.7557 25.3241 14.7632C25.252 14.7743 25.1873 14.7918 25.1318 14.8069C25 14.8425 24.9206 14.864 24.9206 14.752C24.9206 14.6703 24.7044 14.776 24.4062 14.9216Z" fill="#FFD129"/>
<path fill-rule="evenodd" clip-rule="evenodd" d="M29.9185 11.0427H21.0298V19.6525C21.0298 20.4978 21.3818 20.8292 21.8013 21.2242C21.9258 21.3414 22.0562 21.4642 22.1852 21.6078C22.5609 22.0259 23.6572 22.4581 25.4742 22.9046C25.9717 22.9046 26.7908 22.6322 27.9315 22.0874C29.0722 21.5426 29.7346 20.8577 29.9185 20.0326V11.0427ZM21.8093 20.9395C21.3898 20.5338 21.2391 20.2392 21.2391 19.6525V11.257H29.7092V20.0078C29.5344 20.7493 28.9194 21.3791 27.8431 21.8932C26.7477 22.4163 25.9596 22.6811 25.498 22.69C23.7384 22.2562 22.6742 21.8355 22.3392 21.4627C22.3128 21.4332 22.2856 21.4039 22.2576 21.3745C22.1877 21.301 22.1166 21.2309 22.0245 21.1434C22.0294 21.1481 21.8551 20.9839 21.8093 20.9395Z" fill="black"/>
</g>
<rect width="18" height="14" fill="#2B409A"/>
<mask id="mask4" mask-type="alpha" maskUnits="userSpaceOnUse" x="0" y="0" width="18" height="14">
<rect width="18" height="14" fill="white"/>
</mask>
<g mask="url(#mask4)">
<path d="M-2.00427 12.9997L1.95668 14.7369L18.0899 1.88866L20.1792 -0.692871L15.9435 -1.27349L9.36317 4.2632L4.06667 7.99363L-2.00427 12.9997Z" fill="#F7FCFF"/>
<path d="M-1.46204 14.217L0.555885 15.2251L19.4289 -0.932617H16.5955L-1.46204 14.217Z" fill="#F50100"/>
<path d="M20.0043 12.9997L16.0433 14.7369L-0.0898743 1.88866L-2.17919 -0.692871L2.05648 -1.27349L8.63683 4.2632L13.9333 7.99363L20.0043 12.9997Z" fill="#F7FCFF"/>
<path d="M19.8691 13.8733L17.8512 14.8815L9.81489 7.96351L7.43229 7.19059L-2.3802 -0.683947H0.453194L10.2602 7.00368L12.8651 7.9305L19.8691 13.8733Z" fill="#F50100"/>
<mask id="path-22-outside-1" maskUnits="userSpaceOnUse" x="-2" y="-2" width="22" height="18" fill="black">
<rect fill="white" x="-2" y="-2" width="22" height="18"/>
<path fill-rule="evenodd" clip-rule="evenodd" d="M9.98451 0H7.98451V6H0V8H7.98451V14H9.98451V8H18V6H9.98451V0Z"/>
</mask>
<path fill-rule="evenodd" clip-rule="evenodd" d="M9.98451 0H7.98451V6H0V8H7.98451V14H9.98451V8H18V6H9.98451V0Z" fill="#F50100"/>
<path d="M7.98451 0V-1.5H6.48451V0H7.98451ZM9.98451 0H11.4845V-1.5H9.98451V0ZM7.98451 6V7.5H9.48451V6H7.98451ZM0 6V4.5H-1.5V6H0ZM0 8H-1.5V9.5H0V8ZM7.98451 8H9.48451V6.5H7.98451V8ZM7.98451 14H6.48451V15.5H7.98451V14ZM9.98451 14V15.5H11.4845V14H9.98451ZM9.98451 8V6.5H8.48451V8H9.98451ZM18 8V9.5H19.5V8H18ZM18 6H19.5V4.5H18V6ZM9.98451 6H8.48451V7.5H9.98451V6ZM7.98451 1.5H9.98451V-1.5H7.98451V1.5ZM9.48451 6V0H6.48451V6H9.48451ZM0 7.5H7.98451V4.5H0V7.5ZM1.5 8V6H-1.5V8H1.5ZM7.98451 6.5H0V9.5H7.98451V6.5ZM9.48451 14V8H6.48451V14H9.48451ZM9.98451 12.5H7.98451V15.5H9.98451V12.5ZM8.48451 8V14H11.4845V8H8.48451ZM18 6.5H9.98451V9.5H18V6.5ZM16.5 6V8H19.5V6H16.5ZM9.98451 7.5H18V4.5H9.98451V7.5ZM8.48451 0V6H11.4845V0H8.48451Z" fill="#F7FCFF" mask="url(#path-22-outside-1)"/>
</g>
</g>
</g>
</svg>
