<svg width="20" height="15" viewBox="0 0 20 15" fill="none" xmlns="http://www.w3.org/2000/svg">
<path d="M0 0H20V15H0V0Z" fill="#032EA1"/>
<path d="M0 3.75H20V11.25H0V3.75Z" fill="#E00025"/>
<path d="M7.88751 7.06873H12.155V8.71123H7.88751V7.06873Z" fill="white" stroke="black" stroke-width="0.03" stroke-linejoin="bevel"/>
<path d="M7.88751 7.15125H12.155V7.3125H7.88751V7.15125Z" fill="white" stroke="black" stroke-width="0.03" stroke-linejoin="bevel"/>
<path d="M6.21875 8.79372C6.29716 8.75103 6.35622 8.6799 6.38375 8.59497H13.625C13.6525 8.6799 13.7116 8.75103 13.79 8.79372H6.21875Z" fill="white" stroke="black" stroke-width="0.03"/>
<path fill-rule="evenodd" clip-rule="evenodd" d="M9.99874 4.41003C9.90874 4.41378 9.91249 4.56753 9.91249 4.56753H10.0812C10.0812 4.56753 10.085 4.41003 9.99874 4.41003ZM9.44374 6.40503V6.61128H10.5537V6.40503C10.5558 6.34857 10.586 6.3203 10.6135 6.29457C10.6371 6.27245 10.6587 6.2522 10.6587 6.21753C10.6587 6.21753 10.6737 6.10503 10.64 6.05253C10.6025 6.20253 10.5275 6.17628 10.5275 6.11253C10.5275 6.06691 10.5586 6.02128 10.6234 5.92642L10.655 5.88003C10.685 5.83503 10.6662 5.70378 10.6287 5.65503C10.6137 5.77128 10.595 5.82378 10.5462 5.82378C10.5162 5.82378 10.49 5.80503 10.49 5.74878C10.49 5.70308 10.5095 5.6713 10.5298 5.63818C10.5428 5.61694 10.5562 5.59515 10.565 5.56878C10.5924 5.50089 10.5777 5.42328 10.5275 5.37003C10.5242 5.38976 10.5216 5.40741 10.5193 5.42311L10.5193 5.42312C10.5084 5.49693 10.5039 5.52753 10.4637 5.52753C10.3694 5.49957 10.4509 5.36733 10.4807 5.31914L10.4862 5.31003C10.505 5.23878 10.4487 5.18253 10.4487 5.18253C10.4187 5.28003 10.4112 5.29128 10.3737 5.28003C10.3287 5.26878 10.3362 5.20503 10.3887 5.15253C10.4225 5.11878 10.4187 5.06628 10.3812 5.02878C10.3437 5.10378 10.2837 5.09253 10.2912 5.04753L10.325 4.88628L10.28 4.88628L10.295 4.77003H10.239L10.25 4.67253H9.74374L9.75105 4.77003H9.69874L9.71374 4.88628L9.67249 4.88628L9.70249 5.05128C9.69874 5.09628 9.65374 5.10003 9.61624 5.02878C9.57874 5.06628 9.57499 5.11503 9.60874 5.15253C9.66124 5.20503 9.66874 5.26878 9.62374 5.28003C9.58624 5.29128 9.57874 5.28378 9.54874 5.18253C9.54874 5.18253 9.48874 5.26878 9.51124 5.31003L9.5177 5.32052C9.54812 5.36937 9.6272 5.49638 9.53374 5.52753C9.49354 5.52753 9.48904 5.49693 9.47818 5.42312C9.47587 5.40742 9.47328 5.38976 9.46999 5.37003C9.41847 5.42247 9.40234 5.50018 9.42874 5.56878C9.43826 5.59327 9.45075 5.61381 9.46279 5.63363C9.48394 5.66843 9.50374 5.70099 9.50374 5.74878C9.50374 5.80503 9.48124 5.82378 9.45124 5.82378C9.40249 5.82378 9.38374 5.76753 9.36874 5.65503C9.33124 5.70378 9.31249 5.83503 9.34249 5.87628L9.36164 5.90538C9.43432 6.01566 9.46624 6.0641 9.46624 6.11253C9.46624 6.17628 9.39499 6.20253 9.35374 6.05253C9.32374 6.10503 9.33874 6.21753 9.33874 6.21753C9.33874 6.25189 9.36077 6.27208 9.38464 6.29396C9.4129 6.31986 9.44374 6.34813 9.44374 6.40503ZM9.75105 4.77003L9.75124 4.77253H10.2387L10.239 4.77003H9.75105ZM9.83749 4.67128L9.82624 4.57128H10.1637L10.16 4.67128H9.83749ZM10.8875 8.60628C10.8875 8.68503 11 8.76753 11.075 8.79378H8.95624C9.03124 8.76753 9.10624 8.68503 9.10624 8.60628V7.69503L9.01249 7.56753H10.985L10.8875 7.69503V8.60628Z" fill="white"/>
<path d="M9.91249 4.56753L9.89749 4.5679L9.89785 4.58253H9.91249V4.56753ZM9.99874 4.41003V4.39502L9.99811 4.39505L9.99874 4.41003ZM10.0812 4.56753V4.58253H10.0959L10.0962 4.56789L10.0812 4.56753ZM9.44374 6.61128H9.42874V6.62628H9.44374V6.61128ZM10.5537 6.61128V6.62628H10.5687V6.61128H10.5537ZM10.5537 6.40503L10.5387 6.4045V6.40503H10.5537ZM10.6135 6.29457L10.6237 6.30552L10.6135 6.29457ZM10.6587 6.21753L10.6437 6.21553V6.21753H10.6587ZM10.64 6.05253L10.6526 6.04442L10.6338 6.01525L10.6254 6.0489L10.64 6.05253ZM10.6234 5.92642L10.6358 5.93488L10.6358 5.93486L10.6234 5.92642ZM10.655 5.88003L10.6674 5.88847L10.6675 5.88835L10.655 5.88003ZM10.6287 5.65503L10.6406 5.64589L10.6185 5.61713L10.6139 5.65311L10.6287 5.65503ZM10.5298 5.63818L10.5426 5.64602H10.5426L10.5298 5.63818ZM10.565 5.56878L10.551 5.56317L10.5508 5.56404L10.565 5.56878ZM10.5275 5.37003L10.5384 5.35974L10.5177 5.33775L10.5127 5.36757L10.5275 5.37003ZM10.5193 5.42311L10.5341 5.42548L10.5341 5.42529L10.5193 5.42311ZM10.5193 5.42312L10.5045 5.42075L10.5045 5.42093L10.5193 5.42312ZM10.4637 5.52753L10.4593 5.54253H10.4637V5.52753ZM10.4807 5.31914L10.4934 5.32702L10.4935 5.32698L10.4807 5.31914ZM10.4862 5.31003L10.4996 5.31821L10.5007 5.31385L10.4862 5.31003ZM10.4487 5.18253L10.4593 5.17193L10.4417 5.15431L10.4344 5.17812L10.4487 5.18253ZM10.3737 5.28003L10.3781 5.26565L10.3774 5.26548L10.3737 5.28003ZM10.3887 5.15253L10.3993 5.16314L10.3887 5.15253ZM10.3812 5.02878L10.3918 5.01818L10.3771 5.00346L10.3678 5.02208L10.3812 5.02878ZM10.2912 5.04753L10.2765 5.04446L10.2764 5.04507L10.2912 5.04753ZM10.325 4.88628L10.3397 4.88936L10.3435 4.87128L10.325 4.87128V4.88628ZM10.28 4.88628L10.2651 4.88436L10.2629 4.90128L10.28 4.90128V4.88628ZM10.295 4.77003L10.3099 4.77195L10.312 4.75503H10.295V4.77003ZM10.25 4.67253L10.2649 4.67421L10.2668 4.65753H10.25V4.67253ZM9.74374 4.67253V4.65753H9.72757L9.72878 4.67366L9.74374 4.67253ZM9.69874 4.77003V4.75503H9.68168L9.68386 4.77195L9.69874 4.77003ZM9.71374 4.88628V4.90128L9.7308 4.90128L9.72861 4.88436L9.71374 4.88628ZM9.67249 4.88628V4.87128L9.65451 4.87128L9.65773 4.88897L9.67249 4.88628ZM9.70249 5.05128L9.71797 5.05257L9.71725 5.0486L9.70249 5.05128ZM9.61624 5.02878L9.62951 5.0218L9.62003 5.00378L9.60563 5.01818L9.61624 5.02878ZM9.60874 5.15253L9.59757 5.16258L9.59813 5.16314L9.60874 5.15253ZM9.62374 5.28003L9.6201 5.26547L9.61943 5.26567L9.62374 5.28003ZM9.54874 5.18253L9.56312 5.17827L9.55425 5.14834L9.53642 5.17397L9.54874 5.18253ZM9.51124 5.31003L9.49805 5.31723L9.49847 5.31791L9.51124 5.31003ZM9.5177 5.32052L9.50493 5.32839L9.50497 5.32845L9.5177 5.32052ZM9.53374 5.52753V5.54335L9.53848 5.54176L9.53374 5.52753ZM9.47818 5.42312L9.46334 5.4253L9.47818 5.42312ZM9.46999 5.37003L9.48478 5.36757L9.47994 5.3385L9.45929 5.35952L9.46999 5.37003ZM9.42874 5.56878L9.41474 5.57417L9.41476 5.57422L9.42874 5.56878ZM9.46279 5.63363L9.47561 5.62584L9.46279 5.63363ZM9.36874 5.65503L9.38361 5.65305L9.37884 5.6173L9.35685 5.64589L9.36874 5.65503ZM9.34249 5.87628L9.35503 5.86803L9.35462 5.86746L9.34249 5.87628ZM9.36164 5.90538L9.34912 5.91363L9.34912 5.91364L9.36164 5.90538ZM9.35374 6.05253L9.3682 6.04856L9.35863 6.01374L9.34071 6.04509L9.35374 6.05253ZM9.33874 6.21753H9.35387L9.35361 6.21555L9.33874 6.21753ZM9.38464 6.29396L9.37451 6.30502H9.37451L9.38464 6.29396ZM9.75124 4.77253L9.73628 4.77366L9.73732 4.78753H9.75124V4.77253ZM10.2387 4.77253V4.78753H10.2521L10.2536 4.77421L10.2387 4.77253ZM9.82624 4.57128V4.55628H9.80946L9.81133 4.57296L9.82624 4.57128ZM9.83749 4.67128L9.82258 4.67296L9.82408 4.68628H9.83749V4.67128ZM10.1637 4.57128L10.1787 4.57185L10.1793 4.55628H10.1637V4.57128ZM10.16 4.67128V4.68628H10.1744L10.175 4.67185L10.16 4.67128ZM11.075 8.79378V8.80878L11.0799 8.77963L11.075 8.79378ZM8.95624 8.79378L8.95128 8.77963L8.95624 8.80878V8.79378ZM9.10624 7.69503H9.12486L9.11832 7.68615L9.10624 7.69503ZM9.01249 7.56753V7.55253H8.98284L9.0004 7.57642L9.01249 7.56753ZM10.985 7.56753L10.9969 7.57665L11.0153 7.55253H10.985V7.56753ZM10.8875 7.69503L10.8725 7.68356V7.69503H10.8875ZM9.91249 4.56753C9.92748 4.56717 9.92748 4.56717 9.92748 4.56718C9.92748 4.56718 9.92748 4.56718 9.92748 4.56718C9.92748 4.56718 9.92748 4.56718 9.92748 4.56718C9.92748 4.56717 9.92748 4.56715 9.92748 4.56713C9.92748 4.56708 9.92748 4.56699 9.92748 4.56687C9.92747 4.56663 9.92747 4.56625 9.92747 4.56573C9.92746 4.56471 9.92747 4.56317 9.9275 4.56118C9.92757 4.5572 9.92776 4.55146 9.92827 4.54454C9.92928 4.53063 9.93152 4.51229 9.93636 4.49403C9.94124 4.47562 9.94849 4.45837 9.95887 4.44576C9.9689 4.43358 9.98176 4.42575 9.99936 4.42502L9.99811 4.39505C9.97071 4.39619 9.95029 4.40899 9.93571 4.42669C9.92148 4.44397 9.9128 4.46585 9.90736 4.48635C9.90189 4.507 9.89944 4.52733 9.89835 4.54236C9.8978 4.54991 9.89758 4.55621 9.8975 4.56066C9.89747 4.56288 9.89746 4.56465 9.89747 4.56588C9.89747 4.5665 9.89748 4.56698 9.89748 4.56732C9.89748 4.56749 9.89749 4.56762 9.89749 4.56772C9.89749 4.56777 9.89749 4.56781 9.89749 4.56784C9.89749 4.56785 9.89749 4.56787 9.89749 4.56788C9.89749 4.56788 9.89749 4.56789 9.89749 4.56789C9.89749 4.5679 9.89749 4.5679 9.91249 4.56753ZM10.0812 4.55253H9.91249V4.58253H10.0812V4.55253ZM9.99874 4.42503C10.0149 4.42503 10.0268 4.43213 10.0363 4.444C10.0462 4.45636 10.0531 4.47369 10.0578 4.49242C10.0624 4.51095 10.0645 4.52969 10.0655 4.54393C10.066 4.55102 10.0662 4.55691 10.0662 4.561C10.0663 4.56304 10.0663 4.56463 10.0663 4.56568C10.0663 4.56621 10.0663 4.56661 10.0662 4.56686C10.0662 4.56698 10.0662 4.56707 10.0662 4.56713C10.0662 4.56715 10.0662 4.56717 10.0662 4.56718C10.0662 4.56718 10.0662 4.56719 10.0662 4.56719C10.0662 4.56719 10.0662 4.56718 10.0662 4.56718C10.0662 4.56718 10.0662 4.56718 10.0812 4.56753C10.0962 4.56789 10.0962 4.56789 10.0962 4.56788C10.0962 4.56788 10.0962 4.56787 10.0962 4.56787C10.0962 4.56786 10.0962 4.56785 10.0962 4.56783C10.0962 4.5678 10.0962 4.56776 10.0962 4.56771C10.0962 4.56761 10.0962 4.56748 10.0962 4.56731C10.0962 4.56696 10.0963 4.56647 10.0963 4.56585C10.0963 4.5646 10.0963 4.5628 10.0962 4.56054C10.0962 4.55601 10.096 4.5496 10.0954 4.54192C10.0944 4.52663 10.0921 4.50599 10.0869 4.48515C10.0817 4.4645 10.0734 4.44246 10.0597 4.42529C10.0457 4.40763 10.0257 4.39503 9.99874 4.39503V4.42503ZM9.45874 6.61128V6.40503H9.42874V6.61128H9.45874ZM10.5537 6.59628H9.44374V6.62628H10.5537V6.59628ZM10.5387 6.40503V6.61128H10.5687V6.40503H10.5387ZM10.6032 6.28362C10.5756 6.30949 10.541 6.34146 10.5387 6.4045L10.5687 6.40557C10.5705 6.35569 10.5964 6.33112 10.6237 6.30552L10.6032 6.28362ZM10.6437 6.21753C10.6437 6.2448 10.6276 6.26083 10.6032 6.28362L10.6237 6.30552C10.6466 6.28406 10.6737 6.25961 10.6737 6.21753H10.6437ZM10.6274 6.06065C10.6417 6.083 10.6466 6.12037 10.647 6.15492C10.6472 6.1717 10.6465 6.18693 10.6456 6.19798C10.6452 6.20349 10.6447 6.20794 10.6444 6.21098C10.6442 6.2125 10.6441 6.21367 10.644 6.21445C10.644 6.21484 10.6439 6.21513 10.6439 6.21531C10.6439 6.2154 10.6439 6.21547 10.6439 6.21551C10.6439 6.21553 10.6439 6.21555 10.6439 6.21555C10.6439 6.21556 10.6439 6.21556 10.6439 6.21556L10.6439 6.21556C10.6439 6.21555 10.6439 6.21555 10.6587 6.21753C10.6736 6.21952 10.6736 6.21951 10.6736 6.21951C10.6736 6.21951 10.6736 6.2195 10.6736 6.2195C10.6736 6.21949 10.6736 6.21949 10.6736 6.21948C10.6736 6.21945 10.6736 6.21943 10.6736 6.21939C10.6736 6.21932 10.6736 6.21923 10.6737 6.21911C10.6737 6.21886 10.6737 6.21852 10.6738 6.21807C10.6739 6.21717 10.674 6.21587 10.6742 6.21421C10.6746 6.2109 10.6751 6.20615 10.6755 6.20029C10.6764 6.1886 10.6773 6.17243 10.677 6.15452C10.6765 6.1197 10.672 6.07457 10.6526 6.04442L10.6274 6.06065ZM10.5125 6.11253C10.5125 6.13123 10.518 6.14847 10.5283 6.16079C10.5389 6.17341 10.5546 6.18064 10.5723 6.17745C10.5894 6.17439 10.6053 6.16222 10.6189 6.14274C10.6326 6.12312 10.6449 6.09476 10.6545 6.05617L10.6254 6.0489C10.6163 6.0853 10.6052 6.10992 10.5943 6.12557C10.5833 6.14137 10.5734 6.14678 10.567 6.14793C10.5613 6.14896 10.5559 6.14705 10.5513 6.14151C10.5464 6.13566 10.5425 6.12571 10.5425 6.11253H10.5125ZM10.611 5.91796C10.5788 5.96513 10.5543 6.00096 10.538 6.03073C10.5216 6.06066 10.5125 6.08608 10.5125 6.11253H10.5425C10.5425 6.09336 10.549 6.07316 10.5643 6.04515C10.5798 6.01698 10.6032 5.98257 10.6358 5.93488L10.611 5.91796ZM10.6426 5.87159L10.611 5.91798L10.6358 5.93486L10.6674 5.88847L10.6426 5.87159ZM10.6168 5.66418C10.6332 5.68542 10.6468 5.72727 10.6523 5.77082C10.655 5.79225 10.6556 5.81326 10.6539 5.83131C10.6521 5.84971 10.648 5.86347 10.6425 5.87171L10.6675 5.88835C10.677 5.8741 10.6818 5.85458 10.6837 5.83419C10.6858 5.81345 10.685 5.79016 10.6821 5.76706C10.6763 5.72155 10.6618 5.6734 10.6406 5.64589L10.6168 5.66418ZM10.5462 5.83878C10.5614 5.83878 10.5749 5.83463 10.5867 5.8257C10.5981 5.81697 10.6068 5.80443 10.6138 5.78924C10.6275 5.75929 10.6361 5.71501 10.6436 5.65695L10.6139 5.65311C10.6064 5.71131 10.5981 5.75141 10.5865 5.77676C10.5808 5.78923 10.5747 5.79708 10.5685 5.80183C10.5625 5.80638 10.5555 5.80878 10.5462 5.80878V5.83878ZM10.475 5.74878C10.475 5.77901 10.482 5.80186 10.4956 5.81729C10.5094 5.833 10.5281 5.83878 10.5462 5.83878V5.80878C10.5344 5.80878 10.5249 5.80519 10.5181 5.79747C10.5111 5.78946 10.505 5.77481 10.505 5.74878H10.475ZM10.517 5.63034C10.4968 5.66326 10.475 5.69836 10.475 5.74878H10.505C10.505 5.7078 10.5221 5.67935 10.5426 5.64602L10.517 5.63034ZM10.5508 5.56404C10.5426 5.58854 10.5301 5.60895 10.517 5.63034L10.5426 5.64602C10.5555 5.62494 10.5698 5.60176 10.5792 5.57353L10.5508 5.56404ZM10.5166 5.38033C10.5628 5.42932 10.5763 5.50072 10.5511 5.56318L10.5789 5.57439C10.6085 5.50107 10.5926 5.41725 10.5384 5.35974L10.5166 5.38033ZM10.5341 5.42529C10.5364 5.40959 10.539 5.39207 10.5423 5.3725L10.5127 5.36757C10.5094 5.38745 10.5068 5.40524 10.5045 5.42093L10.5341 5.42529ZM10.5341 5.42549L10.5341 5.42548L10.5045 5.42074L10.5045 5.42075L10.5341 5.42549ZM10.4637 5.54253C10.4757 5.54253 10.4866 5.54026 10.496 5.53421C10.5054 5.52814 10.5117 5.51929 10.5162 5.5091C10.5248 5.48986 10.5289 5.46117 10.5341 5.4253L10.5045 5.42093C10.4989 5.45888 10.4953 5.4824 10.4888 5.49691C10.4858 5.5036 10.4828 5.50702 10.4797 5.50899C10.4766 5.51098 10.4719 5.51253 10.4637 5.51253V5.54253ZM10.4679 5.31127C10.4532 5.33504 10.4242 5.38188 10.4112 5.42676C10.4048 5.44912 10.4016 5.47312 10.408 5.49429C10.4148 5.51673 10.4316 5.53365 10.4595 5.54192L10.468 5.51315C10.4487 5.50743 10.4403 5.49734 10.4367 5.48561C10.4328 5.47262 10.4342 5.4553 10.4401 5.43509C10.4517 5.39481 10.4784 5.35143 10.4934 5.32702L10.4679 5.31127ZM10.4734 5.3022L10.4679 5.31131L10.4935 5.32698L10.499 5.31787L10.4734 5.3022ZM10.4487 5.18253C10.4381 5.19314 10.4381 5.19314 10.4381 5.19313C10.4381 5.19313 10.4381 5.19313 10.4381 5.19313C10.4381 5.19312 10.4381 5.19312 10.4381 5.19312C10.4381 5.19311 10.4381 5.19311 10.4381 5.19311C10.4381 5.19312 10.4381 5.19314 10.4382 5.19317C10.4382 5.19323 10.4383 5.19334 10.4385 5.19351C10.4388 5.19384 10.4393 5.19437 10.4399 5.1951C10.4412 5.19655 10.4431 5.19876 10.4454 5.20166C10.4499 5.20748 10.4558 5.21593 10.4612 5.22638C10.4719 5.24738 10.4799 5.27536 10.4717 5.30622L10.5007 5.31385C10.5114 5.27346 10.5006 5.23769 10.4879 5.21275C10.4815 5.20023 10.4745 5.19017 10.4691 5.18321C10.4663 5.17972 10.464 5.17699 10.4623 5.17509C10.4614 5.17413 10.4607 5.17339 10.4602 5.17286C10.46 5.17259 10.4598 5.17238 10.4596 5.17223C10.4596 5.17215 10.4595 5.17209 10.4595 5.17204C10.4594 5.17201 10.4594 5.17199 10.4594 5.17197C10.4594 5.17196 10.4594 5.17195 10.4594 5.17195C10.4594 5.17194 10.4594 5.17194 10.4594 5.17194C10.4593 5.17193 10.4593 5.17193 10.4487 5.18253ZM10.3694 5.2944C10.3791 5.2973 10.3894 5.29962 10.3993 5.29808C10.4105 5.29637 10.419 5.2903 10.426 5.28113C10.4325 5.27253 10.4381 5.26065 10.4437 5.24578C10.4494 5.2307 10.4556 5.21131 10.4631 5.18695L10.4344 5.17812C10.4269 5.20251 10.4209 5.22108 10.4156 5.23519C10.4102 5.2495 10.4059 5.258 10.4021 5.263C10.3987 5.26742 10.3966 5.26816 10.3948 5.26843C10.3919 5.26888 10.3871 5.26839 10.378 5.26567L10.3694 5.2944ZM10.3781 5.14193C10.3503 5.16979 10.3331 5.2018 10.3298 5.23C10.3281 5.24419 10.3299 5.25831 10.3367 5.27021C10.3437 5.28243 10.3552 5.29087 10.3701 5.29459L10.3774 5.26548C10.3697 5.26357 10.3653 5.25982 10.3627 5.25529C10.3599 5.25043 10.3584 5.24322 10.3596 5.23351C10.3619 5.21389 10.3747 5.18778 10.3993 5.16314L10.3781 5.14193ZM10.3706 5.03939C10.4036 5.07235 10.4048 5.11527 10.3781 5.14193L10.3993 5.16314C10.4402 5.1223 10.4339 5.06022 10.3918 5.01818L10.3706 5.03939ZM10.2764 5.04507C10.274 5.0596 10.2768 5.07344 10.2853 5.08372C10.2939 5.09407 10.3067 5.09881 10.3201 5.09814C10.3465 5.09682 10.3747 5.07546 10.3947 5.03549L10.3678 5.02208C10.3503 5.05711 10.3297 5.06762 10.3186 5.06818C10.3133 5.06845 10.3101 5.06663 10.3084 5.06455C10.3066 5.06241 10.3047 5.05796 10.306 5.05L10.2764 5.04507ZM10.3103 4.88321L10.2766 5.04446L10.3059 5.05061L10.3397 4.88936L10.3103 4.88321ZM10.28 4.90128L10.325 4.90128V4.87128L10.28 4.87128V4.90128ZM10.2801 4.76811L10.2651 4.88436L10.2949 4.8882L10.3099 4.77195L10.2801 4.76811ZM10.239 4.78503H10.295V4.75503H10.239V4.78503ZM10.2539 4.77171L10.2649 4.67421L10.2351 4.67086L10.2241 4.76836L10.2539 4.77171ZM10.25 4.65753H9.74374V4.68753H10.25V4.65753ZM9.72878 4.67366L9.73609 4.77116L9.76601 4.76891L9.7587 4.67141L9.72878 4.67366ZM9.69874 4.78503H9.75105V4.75503H9.69874V4.78503ZM9.72861 4.88436L9.71361 4.76811L9.68386 4.77195L9.69886 4.8882L9.72861 4.88436ZM9.67249 4.90128L9.71374 4.90128V4.87128L9.67249 4.87128V4.90128ZM9.71725 5.0486L9.68725 4.8836L9.65773 4.88897L9.68773 5.05397L9.71725 5.0486ZM9.60296 5.03577C9.6223 5.07251 9.64606 5.09507 9.6699 5.09848C9.68267 5.1003 9.69471 5.09636 9.70353 5.08715C9.71195 5.07836 9.71631 5.06602 9.71744 5.05253L9.68754 5.05004C9.68679 5.05905 9.68412 5.06405 9.68187 5.0664C9.68003 5.06832 9.67777 5.0693 9.67414 5.06878C9.66517 5.0675 9.64768 5.05631 9.62951 5.0218L9.60296 5.03577ZM9.61989 5.1425C9.60548 5.12649 9.59962 5.10882 9.60074 5.09164C9.60187 5.07431 9.61021 5.05603 9.62684 5.03939L9.60563 5.01818C9.58477 5.03904 9.57248 5.06389 9.5708 5.08968C9.56911 5.11563 9.57825 5.14108 9.59759 5.16257L9.61989 5.1425ZM9.62738 5.29459C9.64223 5.29087 9.65376 5.28243 9.66077 5.27021C9.6676 5.25831 9.66937 5.24419 9.6677 5.23C9.66438 5.2018 9.64721 5.16979 9.61934 5.14193L9.59813 5.16314C9.62277 5.18778 9.6356 5.21389 9.6379 5.23351C9.63905 5.24322 9.63753 5.25043 9.63475 5.25529C9.63215 5.25982 9.62774 5.26357 9.6201 5.26548L9.62738 5.29459ZM9.53436 5.1868C9.54186 5.21212 9.54808 5.23201 9.55379 5.24731C9.5594 5.26236 9.56497 5.27427 9.57163 5.28274C9.57884 5.29192 9.58768 5.29748 9.59879 5.2987C9.60855 5.29976 9.61867 5.29722 9.62805 5.2944L9.61943 5.26567C9.61006 5.26848 9.60517 5.26921 9.60204 5.26887C9.60026 5.26868 9.59832 5.26815 9.59522 5.2642C9.59156 5.25955 9.58729 5.2513 9.58189 5.23682C9.57658 5.22259 9.57062 5.20357 9.56312 5.17827L9.53436 5.1868ZM9.52441 5.30285C9.52114 5.29686 9.52018 5.28774 9.52237 5.27533C9.52453 5.26318 9.52937 5.24982 9.5352 5.23704C9.54098 5.22436 9.54747 5.21282 9.55255 5.20441C9.55508 5.20022 9.55724 5.19684 9.55875 5.19454C9.55951 5.19338 9.5601 5.1925 9.5605 5.19191C9.56069 5.19162 9.56084 5.19141 9.56093 5.19127C9.56098 5.1912 9.56102 5.19115 9.56104 5.19112C9.56104 5.19111 9.56105 5.1911 9.56105 5.1911C9.56106 5.19109 9.56106 5.19109 9.56106 5.19109C9.56106 5.19109 9.56105 5.1911 9.56105 5.1911C9.56105 5.1911 9.56105 5.1911 9.54874 5.18253C9.53642 5.17397 9.53642 5.17397 9.53642 5.17397C9.53642 5.17398 9.53642 5.17398 9.53641 5.17398C9.53641 5.17399 9.53641 5.17399 9.5364 5.174C9.53639 5.17402 9.53637 5.17404 9.53635 5.17407C9.53632 5.17412 9.53626 5.1742 9.5362 5.1743C9.53607 5.17449 9.53588 5.17476 9.53564 5.17511C9.53517 5.17581 9.5345 5.17682 9.53365 5.1781C9.53197 5.18067 9.52962 5.18436 9.52687 5.1889C9.52141 5.19795 9.51431 5.21055 9.5079 5.22459C9.50154 5.23853 9.4956 5.25447 9.49284 5.27009C9.49011 5.28545 9.49009 5.30258 9.49807 5.31722L9.52441 5.30285ZM9.53047 5.31265L9.52401 5.30216L9.49847 5.31791L9.50493 5.32839L9.53047 5.31265ZM9.53848 5.54176C9.56591 5.53262 9.58244 5.51552 9.58927 5.49333C9.59577 5.47224 9.59288 5.4486 9.5866 5.42655C9.57403 5.38242 9.54543 5.33668 9.53043 5.31259L9.50497 5.32845C9.52038 5.35321 9.54653 5.39539 9.55775 5.43477C9.56336 5.45448 9.56461 5.47148 9.5606 5.4845C9.55693 5.49641 9.5483 5.50687 9.52899 5.5133L9.53848 5.54176ZM9.46334 5.4253C9.46862 5.46117 9.47269 5.48986 9.48125 5.5091C9.48578 5.51929 9.49208 5.52814 9.5015 5.53421C9.5109 5.54026 9.52182 5.54253 9.53374 5.54253V5.51253C9.52556 5.51253 9.52084 5.51098 9.51775 5.50899C9.51468 5.50702 9.51164 5.5036 9.50866 5.49691C9.5022 5.4824 9.4986 5.45888 9.49302 5.42093L9.46334 5.4253ZM9.45519 5.3725C9.45845 5.39207 9.46103 5.40959 9.46334 5.4253L9.49302 5.42093C9.49071 5.40524 9.4881 5.38746 9.48478 5.36757L9.45519 5.3725ZM9.44274 5.5634C9.41845 5.50028 9.43329 5.42879 9.48069 5.38055L9.45929 5.35952C9.40364 5.41615 9.38623 5.50007 9.41474 5.57417L9.44274 5.5634ZM9.47561 5.62584C9.4635 5.60592 9.4517 5.58644 9.44272 5.56335L9.41476 5.57422C9.42483 5.60011 9.43799 5.62171 9.44997 5.64142L9.47561 5.62584ZM9.51874 5.74878C9.51874 5.69633 9.49667 5.66048 9.47561 5.62584L9.44997 5.64142C9.47122 5.67638 9.48874 5.70566 9.48874 5.74878H9.51874ZM9.45124 5.83878C9.46955 5.83878 9.48753 5.8329 9.50045 5.81675C9.51286 5.80124 9.51874 5.77851 9.51874 5.74878H9.48874C9.48874 5.77531 9.48337 5.79008 9.47702 5.79801C9.47119 5.8053 9.46293 5.80878 9.45124 5.80878V5.83878ZM9.35387 5.65702C9.36136 5.71321 9.37 5.7574 9.38365 5.78775C9.39056 5.8031 9.39919 5.81595 9.41056 5.82498C9.42223 5.83425 9.43588 5.83878 9.45124 5.83878V5.80878C9.44222 5.80878 9.43525 5.80628 9.42922 5.80149C9.42289 5.79646 9.41676 5.78822 9.41101 5.77544C9.39935 5.74954 9.39111 5.70936 9.38361 5.65305L9.35387 5.65702ZM9.35462 5.86746C9.34946 5.86036 9.34537 5.84761 9.34359 5.82968C9.34185 5.8122 9.34247 5.79157 9.34518 5.77037C9.35068 5.72729 9.36428 5.68543 9.38063 5.66418L9.35685 5.64589C9.3357 5.67339 9.32117 5.72153 9.31542 5.76657C9.3125 5.78943 9.31172 5.8124 9.31373 5.83265C9.3157 5.85246 9.32052 5.87158 9.33036 5.88511L9.35462 5.86746ZM9.37417 5.89713L9.35502 5.86804L9.32996 5.88453L9.34912 5.91363L9.37417 5.89713ZM9.48124 6.11253C9.48124 6.08475 9.47199 6.05797 9.45442 6.02508C9.43696 5.99238 9.41034 5.95201 9.37417 5.89713L9.34912 5.91364C9.38563 5.96903 9.4113 6.00803 9.42796 6.03922C9.44452 6.07022 9.45124 6.09188 9.45124 6.11253H9.48124ZM9.33927 6.05651C9.34987 6.09504 9.36266 6.1233 9.37647 6.14282C9.39016 6.16215 9.40592 6.17435 9.42275 6.17744C9.44041 6.18069 9.45588 6.17328 9.46614 6.16056C9.47609 6.14822 9.48124 6.13105 9.48124 6.11253H9.45124C9.45124 6.12589 9.44748 6.13591 9.44278 6.14173C9.43839 6.14718 9.43347 6.14891 9.42817 6.14794C9.42202 6.14681 9.41224 6.14143 9.40096 6.12549C9.38982 6.10974 9.37823 6.08503 9.3682 6.04856L9.33927 6.05651ZM9.33874 6.21753C9.35361 6.21555 9.35361 6.21555 9.35361 6.21556C9.35361 6.21555 9.35361 6.21556 9.35361 6.21556C9.35361 6.21556 9.35361 6.21555 9.35361 6.21555C9.35361 6.21554 9.3536 6.21553 9.3536 6.21551C9.3536 6.21547 9.35359 6.2154 9.35357 6.2153C9.35355 6.21512 9.35351 6.21482 9.35347 6.21443C9.35337 6.21365 9.35323 6.21248 9.35306 6.21095C9.35272 6.20789 9.35227 6.20343 9.35181 6.1979C9.3509 6.18683 9.34999 6.17155 9.34999 6.15472C9.34999 6.13785 9.3509 6.1197 9.35356 6.10279C9.35624 6.08571 9.36054 6.07086 9.36676 6.05998L9.34071 6.04509C9.33193 6.06046 9.32686 6.07936 9.32392 6.09814C9.32095 6.11709 9.31999 6.1369 9.31999 6.15472C9.31999 6.17258 9.32095 6.18871 9.32191 6.20037C9.3224 6.20621 9.32288 6.21095 9.32324 6.21425C9.32343 6.2159 9.32358 6.21719 9.32369 6.21808C9.32374 6.21853 9.32379 6.21887 9.32382 6.21912C9.32383 6.21924 9.32384 6.21933 9.32385 6.2194C9.32386 6.21943 9.32386 6.21946 9.32386 6.21948C9.32387 6.21949 9.32387 6.2195 9.32387 6.2195C9.32387 6.21951 9.32387 6.21951 9.32387 6.21951C9.32387 6.21951 9.32387 6.21952 9.33874 6.21753ZM9.39478 6.28291C9.37011 6.26029 9.35374 6.24435 9.35374 6.21753H9.32374C9.32374 6.25942 9.35142 6.28386 9.37451 6.30502L9.39478 6.28291ZM9.45874 6.40503C9.45874 6.34109 9.42313 6.30889 9.39478 6.28291L9.37451 6.30502C9.40267 6.33083 9.42874 6.35516 9.42874 6.40503H9.45874ZM9.73609 4.77116L9.73628 4.77366L9.7662 4.77141L9.76601 4.76891L9.73609 4.77116ZM9.75124 4.78753H10.2387V4.75753H9.75124V4.78753ZM10.2536 4.77421L10.2539 4.77171L10.2241 4.76836L10.2238 4.77086L10.2536 4.77421ZM9.75105 4.78503H10.239V4.75503H9.75105V4.78503ZM9.81133 4.57296L9.82258 4.67296L9.85239 4.66961L9.84114 4.56961L9.81133 4.57296ZM10.1637 4.55628H9.82624V4.58628H10.1637V4.55628ZM10.175 4.67185L10.1787 4.57185L10.1487 4.57072L10.145 4.67072L10.175 4.67185ZM9.83749 4.68628H10.16V4.65628H9.83749V4.68628ZM11.0799 8.77963C11.0444 8.7672 10.9993 8.74107 10.9631 8.70857C10.9264 8.67552 10.9025 8.63901 10.9025 8.60628H10.8725C10.8725 8.65231 10.9048 8.69643 10.9431 8.73087C10.982 8.76587 11.0305 8.79412 11.07 8.80794L11.0799 8.77963ZM8.95624 8.80878H11.075V8.77878H8.95624V8.80878ZM9.09124 8.60628C9.09124 8.64105 9.07454 8.67808 9.04784 8.71012C9.02121 8.74207 8.98589 8.76751 8.95128 8.77963L8.96119 8.80794C9.00159 8.7938 9.04127 8.76487 9.07089 8.72932C9.10044 8.69386 9.12124 8.65027 9.12124 8.60628H9.09124ZM9.09124 7.69503V8.60628H9.12124V7.69503H9.09124ZM9.0004 7.57642L9.09415 7.70392L9.11832 7.68615L9.02457 7.55865L9.0004 7.57642ZM10.985 7.55253H9.01249V7.58253H10.985V7.55253ZM10.8994 7.70415L10.9969 7.57665L10.9731 7.55842L10.8756 7.68592L10.8994 7.70415ZM10.9025 8.60628V7.69503H10.8725V8.60628H10.9025Z" fill="black"/>
<path fill-rule="evenodd" clip-rule="evenodd" d="M9.49248 7.97253H9.35748V8.97253H9.49248V7.97253ZM10.6325 7.97253H10.4975V8.97253H10.6325V7.97253Z" fill="white"/>
<path d="M9.35748 7.97253V7.95753L9.34248 7.97253H9.35748ZM9.49248 7.97253H9.50748L9.49248 7.95753V7.97253ZM9.35748 8.97253H9.34248L9.35748 8.98753V8.97253ZM9.49248 8.97253V8.98753L9.50748 8.97253H9.49248ZM10.4975 7.97253V7.95753L10.4825 7.97253H10.4975ZM10.6325 7.97253H10.6475L10.6325 7.95753V7.97253ZM10.4975 8.97253H10.4825L10.4975 8.98753V8.97253ZM10.6325 8.97253V8.98753L10.6475 8.97253H10.6325ZM9.35748 7.98753H9.49248V7.95753H9.35748V7.98753ZM9.37248 8.97253V7.97253H9.34248V8.97253H9.37248ZM9.49248 8.95753H9.35748V8.98753H9.49248V8.95753ZM9.47748 7.97253V8.97253H9.50748V7.97253H9.47748ZM10.4975 7.98753H10.6325V7.95753H10.4975V7.98753ZM10.5125 8.97253V7.97253H10.4825V8.97253H10.5125ZM10.6325 8.95753H10.4975V8.98753H10.6325V8.95753ZM10.6175 7.97253V8.97253H10.6475V7.97253H10.6175Z" fill="black"/>
<path d="M8.97494 6.53259V7.56759H10.9999V6.53259C10.9525 6.54993 10.9162 6.58898 10.9024 6.63759V7.08009H9.07619V6.63759C9.07619 6.63759 9.05369 6.56259 8.97119 6.53259H8.97494Z" fill="white" stroke="black" stroke-width="0.03"/>
<path d="M10.7225 8.79374C10.655 8.76749 10.5125 8.68499 10.5125 8.60624V7.58624C10.5275 7.52999 10.6025 7.49624 10.6512 7.45874H9.31245C9.3762 7.49624 9.44745 7.52249 9.4737 7.58624V8.60624C9.4737 8.68499 9.3612 8.76749 9.2937 8.79374H10.7225Z" fill="white" stroke="black" stroke-width="0.03"/>
<path fill-rule="evenodd" clip-rule="evenodd" d="M10.9025 6.73507V7.47007H9.07623V6.73882H9.26373V6.66382H10.7187V6.73507H10.9025ZM10.2762 8.60632C10.2762 8.68507 10.37 8.76757 10.4375 8.79382H9.55998C9.62373 8.76757 9.72123 8.68507 9.72123 8.60632V7.73257L9.66498 7.65757H10.3287L10.2762 7.73632V8.60632Z" fill="white"/>
<path d="M10.9025 7.47007V7.48507H10.9175V7.47007H10.9025ZM10.9025 6.73507H10.9175V6.72007H10.9025V6.73507ZM9.07623 7.47007H9.06123V7.48507H9.07623V7.47007ZM9.07623 6.73882V6.72382H9.06123V6.73882H9.07623ZM9.26373 6.73882V6.75382H9.27873V6.73882H9.26373ZM9.26373 6.66382V6.64882H9.24873V6.66382H9.26373ZM10.7187 6.66382H10.7337V6.64882H10.7187V6.66382ZM10.7187 6.73507H10.7037V6.75007H10.7187V6.73507ZM10.4375 8.79382V8.80882L10.4429 8.77984L10.4375 8.79382ZM9.55998 8.79382L9.55427 8.77995L9.55998 8.80882V8.79382ZM9.72123 7.73257H9.73998L9.73323 7.72357L9.72123 7.73257ZM9.66498 7.65757V7.64257H9.63498L9.65298 7.66657L9.66498 7.65757ZM10.3287 7.65757L10.3412 7.66589L10.3568 7.64257H10.3287V7.65757ZM10.2762 7.73632L10.2612 7.72632V7.73632H10.2762ZM10.9175 7.47007V6.73507H10.8875V7.47007H10.9175ZM9.07623 7.48507H10.9025V7.45507H9.07623V7.48507ZM9.06123 6.73882V7.47007H9.09123V6.73882H9.06123ZM9.26373 6.72382H9.07623V6.75382H9.26373V6.72382ZM9.24873 6.66382V6.73882H9.27873V6.66382H9.24873ZM10.7187 6.64882H9.26373V6.67882H10.7187V6.64882ZM10.7337 6.73507V6.66382H10.7037V6.73507H10.7337ZM10.9025 6.72007H10.7187V6.75007H10.9025V6.72007ZM10.4429 8.77984C10.4115 8.76761 10.373 8.74179 10.3425 8.70946C10.3116 8.67683 10.2912 8.64007 10.2912 8.60632H10.2612C10.2612 8.65132 10.2877 8.69518 10.3206 8.73006C10.3539 8.76522 10.396 8.79377 10.432 8.8078L10.4429 8.77984ZM9.55998 8.80882H10.4375V8.77882H9.55998V8.80882ZM9.70623 8.60632C9.70623 8.63989 9.68509 8.67661 9.65368 8.70938C9.62262 8.74179 9.58401 8.7677 9.55427 8.77995L9.56569 8.80769C9.59971 8.79368 9.64172 8.76522 9.67534 8.73013C9.70863 8.6954 9.73623 8.6515 9.73623 8.60632H9.70623ZM9.70623 7.73257V8.60632H9.73623V7.73257H9.70623ZM9.65298 7.66657L9.70923 7.74157L9.73323 7.72357L9.67698 7.64857L9.65298 7.66657ZM10.3287 7.64257H9.66498V7.67257H10.3287V7.64257ZM10.2887 7.74464L10.3412 7.66589L10.3163 7.64925L10.2638 7.728L10.2887 7.74464ZM10.2912 8.60632V7.73632H10.2612V8.60632H10.2912Z" fill="black"/>
<path fill-rule="evenodd" clip-rule="evenodd" d="M10.85 6.30383C10.85 6.30383 10.6662 6.32718 10.6662 6.54508V6.3622C10.61 6.3622 10.6025 6.43224 10.6025 6.6229L9.39123 6.61901C9.39123 6.43613 9.39123 6.35831 9.32373 6.35831V6.96142C9.46248 7.0159 9.55998 7.19488 9.55998 7.19488H10.43C10.43 7.19488 10.5275 7.0159 10.6662 6.96142V7.30383H10.8012V6.7513C10.8012 6.7513 10.745 6.7513 10.745 6.65403C10.745 6.56064 10.7787 6.49449 10.85 6.49839V6.30383Z" fill="white"/>
<path d="M10.85 6.30383H10.865V6.28681L10.8481 6.28895L10.85 6.30383ZM10.6662 6.3622H10.6812V6.3472H10.6662V6.3622ZM10.6025 6.6229L10.6024 6.6379L10.6175 6.63795V6.6229H10.6025ZM9.39123 6.61901H9.37623V6.63396L9.39118 6.63401L9.39123 6.61901ZM9.32373 6.35831V6.34331H9.30873V6.35831H9.32373ZM9.32373 6.96142H9.30873V6.97165L9.31825 6.97538L9.32373 6.96142ZM9.55998 7.19488L9.54681 7.20206L9.55107 7.20988H9.55998V7.19488ZM10.43 7.19488V7.20988H10.4389L10.4432 7.20206L10.43 7.19488ZM10.6662 6.96142H10.6812V6.93942L10.6607 6.94746L10.6662 6.96142ZM10.6662 7.30383H10.6512V7.31883H10.6662V7.30383ZM10.8012 7.30383V7.31883H10.8162V7.30383H10.8012ZM10.8012 6.7513H10.8162V6.7363H10.8012V6.7513ZM10.85 6.49839L10.8492 6.51336L10.865 6.51423V6.49839H10.85ZM10.6812 6.54508C10.6812 6.44117 10.7247 6.3853 10.7669 6.35492C10.7883 6.3395 10.8098 6.33039 10.8259 6.32515C10.834 6.32254 10.8406 6.32091 10.8452 6.31994C10.8475 6.31945 10.8492 6.31914 10.8504 6.31894C10.851 6.31885 10.8514 6.31879 10.8516 6.31875C10.8517 6.31873 10.8518 6.31872 10.8519 6.31871C10.8519 6.31871 10.8519 6.31871 10.8519 6.31871C10.8519 6.31871 10.8519 6.31871 10.8519 6.31871C10.8519 6.31871 10.8519 6.31871 10.8519 6.31871C10.8519 6.31871 10.8519 6.31871 10.85 6.30383C10.8481 6.28895 10.8481 6.28895 10.8481 6.28896C10.8481 6.28896 10.8481 6.28896 10.848 6.28896C10.848 6.28896 10.848 6.28896 10.848 6.28897C10.8479 6.28897 10.8479 6.28898 10.8478 6.28899C10.8477 6.28901 10.8475 6.28903 10.8473 6.28906C10.8468 6.28913 10.8462 6.28922 10.8455 6.28935C10.8439 6.28961 10.8417 6.29001 10.839 6.29059C10.8335 6.29175 10.8258 6.29364 10.8166 6.29662C10.7983 6.30256 10.7739 6.31291 10.7493 6.33057C10.6997 6.36633 10.6512 6.43109 10.6512 6.54508H10.6812ZM10.6512 6.3622V6.54508H10.6812V6.3622H10.6512ZM10.6175 6.6229C10.6175 6.52712 10.6194 6.46368 10.6279 6.42421C10.6322 6.40452 10.6377 6.39284 10.6437 6.38617C10.649 6.38025 10.6557 6.3772 10.6662 6.3772V6.3472C10.6486 6.3472 10.6333 6.35291 10.6214 6.36607C10.6102 6.37849 10.6033 6.39624 10.5986 6.41789C10.5893 6.46111 10.5875 6.52801 10.5875 6.6229H10.6175ZM9.39118 6.63401L10.6024 6.6379L10.6025 6.6079L9.39128 6.60401L9.39118 6.63401ZM9.32373 6.37331C9.33742 6.37331 9.34574 6.37709 9.3518 6.38357C9.35848 6.39071 9.36407 6.40291 9.36808 6.42301C9.37615 6.46349 9.37623 6.52677 9.37623 6.61901H9.40623C9.40623 6.52837 9.40631 6.46129 9.3975 6.41714C9.39307 6.39493 9.38602 6.37624 9.37371 6.36308C9.36078 6.34925 9.34379 6.34331 9.32373 6.34331V6.37331ZM9.33873 6.96142V6.35831H9.30873V6.96142H9.33873ZM9.55998 7.19488C9.57315 7.18771 9.57315 7.1877 9.57315 7.1877C9.57315 7.1877 9.57314 7.18769 9.57314 7.18769C9.57314 7.18768 9.57313 7.18767 9.57312 7.18765C9.57311 7.18762 9.57308 7.18758 9.57305 7.18753C9.573 7.18743 9.57292 7.18728 9.57281 7.18709C9.57261 7.18672 9.57231 7.18618 9.57191 7.18548C9.57112 7.18409 9.56997 7.18207 9.56845 7.17949C9.56543 7.17434 9.56097 7.16696 9.5552 7.15797C9.54367 7.13999 9.52683 7.11544 9.50555 7.08914C9.46329 7.03692 9.40223 6.97612 9.32921 6.94746L9.31825 6.97538C9.38398 7.00119 9.44104 7.05712 9.48223 7.10802C9.50266 7.13327 9.51887 7.15688 9.52995 7.17416C9.53549 7.1828 9.53974 7.18983 9.54259 7.19468C9.54401 7.19711 9.54508 7.19898 9.54579 7.20024C9.54615 7.20086 9.54641 7.20134 9.54658 7.20164C9.54666 7.2018 9.54673 7.20191 9.54676 7.20198C9.54678 7.20201 9.5468 7.20204 9.5468 7.20205C9.54681 7.20206 9.54681 7.20206 9.54681 7.20206C9.54681 7.20206 9.54681 7.20206 9.54681 7.20206C9.54681 7.20206 9.54681 7.20206 9.55998 7.19488ZM10.43 7.17988H9.55998V7.20988H10.43V7.17988ZM10.6607 6.94746C10.5877 6.97612 10.5267 7.03692 10.4844 7.08914C10.4631 7.11544 10.4463 7.13999 10.4348 7.15797C10.429 7.16696 10.4245 7.17434 10.4215 7.17949C10.42 7.18207 10.4188 7.18409 10.418 7.18548C10.4177 7.18618 10.4174 7.18672 10.4171 7.18709C10.417 7.18728 10.417 7.18743 10.4169 7.18753C10.4169 7.18758 10.4169 7.18762 10.4168 7.18765C10.4168 7.18767 10.4168 7.18768 10.4168 7.18769C10.4168 7.18769 10.4168 7.1877 10.4168 7.1877C10.4168 7.1877 10.4168 7.18771 10.43 7.19488C10.4432 7.20206 10.4432 7.20206 10.4432 7.20206C10.4432 7.20206 10.4432 7.20206 10.4432 7.20206C10.4432 7.20206 10.4432 7.20206 10.4432 7.20205C10.4432 7.20204 10.4432 7.20201 10.4432 7.20198C10.4432 7.20191 10.4433 7.2018 10.4434 7.20164C10.4436 7.20134 10.4438 7.20086 10.4442 7.20024C10.4449 7.19898 10.446 7.19711 10.4474 7.19468C10.4502 7.18983 10.4545 7.1828 10.46 7.17416C10.4711 7.15688 10.4873 7.13327 10.5077 7.10802C10.5489 7.05712 10.606 7.00119 10.6717 6.97538L10.6607 6.94746ZM10.6812 7.30383V6.96142H10.6512V7.30383H10.6812ZM10.8012 7.28883H10.6662V7.31883H10.8012V7.28883ZM10.7862 6.7513V7.30383H10.8162V6.7513H10.7862ZM10.73 6.65403C10.73 6.70559 10.745 6.73466 10.7633 6.75049C10.7722 6.75822 10.7813 6.76218 10.7883 6.7642C10.7918 6.7652 10.7948 6.76573 10.797 6.766C10.7981 6.76614 10.799 6.76621 10.7997 6.76626C10.8001 6.76628 10.8004 6.76629 10.8007 6.7663C10.8008 6.7663 10.8009 6.7663 10.801 6.7663C10.801 6.7663 10.8011 6.7663 10.8011 6.7663C10.8011 6.7663 10.8012 6.7663 10.8012 6.7663C10.8012 6.7663 10.8012 6.7663 10.8012 6.7663C10.8012 6.7663 10.8012 6.7663 10.8012 6.7513C10.8012 6.7363 10.8012 6.7363 10.8013 6.7363C10.8013 6.7363 10.8013 6.7363 10.8013 6.7363C10.8013 6.7363 10.8013 6.7363 10.8013 6.7363C10.8013 6.7363 10.8014 6.7363 10.8014 6.7363C10.8014 6.73631 10.8015 6.73631 10.8015 6.73631C10.8015 6.73631 10.8015 6.73631 10.8015 6.7363C10.8014 6.7363 10.8011 6.73628 10.8007 6.73623C10.7998 6.73612 10.7984 6.73589 10.7966 6.73537C10.793 6.73434 10.788 6.73222 10.7829 6.7278C10.7731 6.71931 10.76 6.69974 10.76 6.65403H10.73ZM10.8508 6.48341C10.8093 6.48114 10.7781 6.49974 10.758 6.53177C10.7386 6.56284 10.73 6.60593 10.73 6.65403H10.76C10.76 6.60874 10.7682 6.57206 10.7835 6.54768C10.7981 6.52427 10.8194 6.51174 10.8492 6.51336L10.8508 6.48341ZM10.835 6.30383V6.49839H10.865V6.30383H10.835Z" fill="black"/>
<path d="M9.3237 6.53633C9.3237 6.32633 9.13995 6.30383 9.13995 6.30383V6.49133C9.2112 6.48758 9.24495 6.55133 9.24495 6.64133C9.24495 6.73508 9.1887 6.73508 9.1887 6.73508V7.26758H9.3237V6.53633Z" fill="white" stroke="black" stroke-width="0.03"/>
<path d="M9.67999 5.13133H10.325V5.10133H9.67999V5.13133ZM9.60499 5.33383H10.3925V5.30383H9.60499V5.33383ZM9.52999 5.57758H10.4637V5.54758H9.52999V5.57758ZM9.45124 5.87383H10.5575V5.84383H9.45124V5.87383ZM9.42499 6.21133H10.565V6.18133H9.42499V6.21133Z" fill="black"/>
<path fill-rule="evenodd" clip-rule="evenodd" d="M9.82301 5.13384L9.9292 5.18259L10.0796 5.17884L10.1814 5.13384V5.00259C10.1761 5.0041 10.1705 5.00548 10.1648 5.00687C10.1283 5.01586 10.0885 5.02565 10.0885 5.07759C10.0747 5.01041 10.0582 5.00011 10.0307 4.98289C10.0229 4.978 10.0142 4.97255 10.0044 4.96509C9.99428 4.97368 9.98472 4.9796 9.97587 4.98508C9.94997 5.0011 9.93025 5.0133 9.92035 5.07759C9.91242 5.02383 9.87608 5.01523 9.83677 5.00593C9.83221 5.00485 9.82761 5.00376 9.82301 5.00259V5.13384ZM9.61541 7.1758C9.61708 7.03911 9.6195 6.84161 9.5 6.72009H10.5C10.3805 6.84161 10.3829 7.03911 10.3846 7.1758C10.3848 7.19096 10.385 7.20536 10.385 7.21884H9.61504C9.61504 7.20536 9.61522 7.19096 9.61541 7.1758Z" fill="white"/>
<path d="M9.9292 5.18259L9.92224 5.19777L9.92958 5.19758L9.9292 5.18259ZM9.82301 5.13384H9.80801V5.14346L9.81675 5.14747L9.82301 5.13384ZM10.0796 5.17884L10.0801 5.19506L10.0857 5.19256L10.0796 5.17884ZM10.1814 5.13384L10.1875 5.14756L10.1964 5.14361V5.13384H10.1814ZM10.1814 5.00259H10.1964V4.98276L10.1773 4.98815L10.1814 5.00259ZM10.1648 5.00687L10.1612 4.99231L10.1612 4.99231L10.1648 5.00687ZM10.0885 5.07759L10.0738 5.0806L10.1035 5.07759H10.0885ZM10.0307 4.98289L10.0387 4.97017V4.97017L10.0307 4.98289ZM10.0044 4.96509L10.0135 4.95316L10.0039 4.94584L9.99473 4.95364L10.0044 4.96509ZM9.97587 4.98508L9.96798 4.97232V4.97232L9.97587 4.98508ZM9.92035 5.07759L9.90551 5.07978L9.93518 5.07987L9.92035 5.07759ZM9.83677 5.00593L9.84023 4.99133L9.84023 4.99133L9.83677 5.00593ZM9.82301 5.00259L9.8267 4.98805L9.80801 4.9833V5.00259H9.82301ZM9.5 6.72009V6.70509H9.46421L9.4893 6.7306L9.5 6.72009ZM9.61541 7.1758L9.60041 7.17562L9.61541 7.1758ZM10.5 6.72009L10.5107 6.7306L10.5358 6.70509H10.5V6.72009ZM10.3846 7.1758L10.3996 7.17562L10.3846 7.1758ZM10.385 7.21884V7.23384H10.4V7.21884H10.385ZM9.61504 7.21884H9.60004V7.23384H9.61504V7.21884ZM9.93546 5.16896L9.82927 5.12021L9.81675 5.14747L9.92295 5.19622L9.93546 5.16896ZM10.0793 5.16384L9.92883 5.16759L9.92958 5.19758L10.08 5.19383L10.0793 5.16384ZM10.1753 5.12012L10.0736 5.16512L10.0857 5.19256L10.1875 5.14756L10.1753 5.12012ZM10.1664 5.00259V5.13384H10.1964V5.00259H10.1664ZM10.1684 5.02144C10.174 5.02005 10.1799 5.01862 10.1855 5.01702L10.1773 4.98815C10.1723 4.98958 10.1669 4.9909 10.1612 4.99231L10.1684 5.02144ZM10.1035 5.07759C10.1035 5.05637 10.1112 5.04562 10.1215 5.03845C10.1333 5.03027 10.1494 5.0261 10.1684 5.02144L10.1612 4.99231C10.1436 4.99664 10.1216 5.00186 10.1044 5.0138C10.0857 5.02676 10.0735 5.04687 10.0735 5.07759H10.1035ZM10.0228 4.9956C10.0367 5.00434 10.0452 5.00982 10.0525 5.02016C10.06 5.03077 10.0671 5.04773 10.0738 5.0806L10.1032 5.07457C10.0962 5.04027 10.0881 5.01849 10.077 5.00284C10.0658 4.98694 10.0522 4.97865 10.0387 4.97017L10.0228 4.9956ZM9.99533 4.97701C10.0057 4.98494 10.015 4.99071 10.0228 4.9956L10.0387 4.97017C10.0309 4.96528 10.0227 4.96016 10.0135 4.95316L9.99533 4.97701ZM9.98376 4.99783C9.99259 4.99237 10.003 4.98593 10.0141 4.97653L9.99473 4.95364C9.98554 4.96143 9.97684 4.96683 9.96798 4.97232L9.98376 4.99783ZM9.93518 5.07987C9.93995 5.0489 9.94682 5.03239 9.95429 5.02199C9.96173 5.01164 9.97062 5.00597 9.98376 4.99783L9.96798 4.97232C9.95523 4.98021 9.94131 4.98865 9.92993 5.00448C9.91859 5.02026 9.91066 5.04199 9.90553 5.07531L9.93518 5.07987ZM9.83332 5.02052C9.85362 5.02533 9.86967 5.02931 9.88199 5.03755C9.89309 5.04498 9.9021 5.05663 9.90551 5.07978L9.93519 5.0754C9.93068 5.04479 9.91755 5.02525 9.89867 5.01262C9.881 5.00079 9.85923 4.99582 9.84023 4.99133L9.83332 5.02052ZM9.81931 5.01713C9.82405 5.01833 9.82878 5.01945 9.83332 5.02052L9.84023 4.99133C9.83565 4.99024 9.83117 4.98918 9.8267 4.98805L9.81931 5.01713ZM9.83801 5.13384V5.00259H9.80801V5.13384H9.83801ZM9.4893 6.7306C9.54611 6.78837 9.57452 6.86479 9.58836 6.94482C9.60221 7.0249 9.60125 7.1071 9.60041 7.17562L9.6304 7.17599C9.63124 7.10782 9.63232 7.02292 9.61792 6.9397C9.60352 6.85642 9.57339 6.77333 9.5107 6.70957L9.4893 6.7306ZM10.5 6.70509H9.5V6.73509H10.5V6.70509ZM10.3996 7.17562C10.3988 7.1071 10.3978 7.0249 10.4116 6.94482C10.4255 6.86479 10.4539 6.78837 10.5107 6.7306L10.4893 6.70957C10.4266 6.77333 10.3965 6.85642 10.3821 6.9397C10.3677 7.02292 10.3688 7.10782 10.3696 7.17599L10.3996 7.17562ZM10.4 7.21884C10.4 7.20526 10.3998 7.19075 10.3996 7.17562L10.3696 7.17599C10.3698 7.19116 10.37 7.20547 10.37 7.21884H10.4ZM9.61504 7.23384H10.385V7.20384H9.61504V7.23384ZM9.60041 7.17562C9.60022 7.19075 9.60004 7.20526 9.60004 7.21884H9.63004C9.63004 7.20547 9.63022 7.19116 9.6304 7.17599L9.60041 7.17562Z" fill="black"/>
<path d="M9.93125 5.3963L9.78125 5.2913V5.17505C9.8375 5.1863 9.89375 5.1938 9.90125 5.25755C9.91625 5.1638 9.95 5.1188 10.0025 5.0813C10.0512 5.1188 10.085 5.1638 10.1037 5.25755C10.1075 5.1938 10.1675 5.1863 10.2163 5.17505V5.29505L10.07 5.3963H9.93125Z" fill="white" stroke="black" stroke-width="0.03"/>
<path fill-rule="evenodd" clip-rule="evenodd" d="M9.88636 5.73001L9.63068 5.58001V5.40376L9.65392 5.40746C9.73823 5.42065 9.82482 5.43419 9.83523 5.52001C9.86364 5.38876 9.92045 5.31751 10.0057 5.26501C10.0966 5.31751 10.1534 5.38876 10.1875 5.52001C10.1979 5.43419 10.2845 5.42065 10.3688 5.40746L10.392 5.40376V5.58001L10.1307 5.73001H9.88636ZM10.3636 5.92876L10.1364 6.14251H9.86932L9.63636 5.92876H10.3636ZM9.67045 6.57001C9.65909 6.41251 9.61364 6.32626 9.5 6.28501H10.5C10.3864 6.32626 10.3409 6.41251 10.3295 6.57001H9.67045Z" fill="white"/>
<path d="M9.63068 5.58001H9.61568V5.58861L9.62309 5.59295L9.63068 5.58001ZM9.88636 5.73001L9.87756 5.74501H9.88636V5.73001ZM9.63068 5.40376L9.63304 5.38895L9.61568 5.38619V5.40376H9.63068ZM9.65392 5.40746L9.65156 5.42228L9.6516 5.42228L9.65392 5.40746ZM9.83523 5.52001L9.82034 5.52182L9.84989 5.52319L9.83523 5.52001ZM10.0057 5.26501L10.0132 5.25203L10.0054 5.24755L9.99781 5.25224L10.0057 5.26501ZM10.1875 5.52001L10.173 5.52379L10.2024 5.52182L10.1875 5.52001ZM10.3688 5.40746L10.3711 5.42228L10.3712 5.42228L10.3688 5.40746ZM10.392 5.40376H10.407V5.38619L10.3897 5.38895L10.392 5.40376ZM10.392 5.58001L10.3995 5.59302L10.407 5.5887V5.58001H10.392ZM10.1307 5.73001V5.74731L10.1381 5.74302L10.1307 5.73001ZM10.1364 6.14251V6.16311L10.1466 6.15344L10.1364 6.14251ZM10.3636 5.92876L10.3739 5.93969L10.4015 5.91376H10.3636V5.92876ZM9.86932 6.14251L9.85555 6.15751H9.86932V6.14251ZM9.63636 5.92876V5.91376H9.59783L9.62622 5.93982L9.63636 5.92876ZM9.5 6.28501V6.27001L9.49488 6.29911L9.5 6.28501ZM9.67045 6.57001L9.65549 6.57109L9.6565 6.58501H9.67045V6.57001ZM10.5 6.28501L10.5051 6.29911L10.5 6.27001V6.28501ZM10.3295 6.57001V6.58501H10.3435L10.3445 6.57109L10.3295 6.57001ZM9.62309 5.59295L9.87877 5.74295L9.89395 5.71708L9.63827 5.56708L9.62309 5.59295ZM9.61568 5.40376V5.58001H9.64568V5.40376H9.61568ZM9.65628 5.39265L9.63304 5.38895L9.62832 5.41858L9.65156 5.42228L9.65628 5.39265ZM9.85012 5.51821C9.84416 5.46905 9.81571 5.44036 9.77868 5.42293C9.74285 5.40607 9.69778 5.39914 9.65624 5.39264L9.6516 5.42228C9.69437 5.42897 9.73475 5.43541 9.7659 5.45007C9.79584 5.46416 9.81589 5.48515 9.82034 5.52182L9.85012 5.51821ZM9.99781 5.25224C9.90897 5.30697 9.8498 5.38176 9.82057 5.51684L9.84989 5.52319C9.87747 5.39577 9.93194 5.32806 10.0135 5.27779L9.99781 5.25224ZM10.202 5.51624C10.1846 5.4493 10.1612 5.39681 10.13 5.35413C10.0987 5.31137 10.0601 5.27912 10.0132 5.25203L9.99818 5.278C10.0422 5.30341 10.0774 5.33304 10.1058 5.37184C10.1342 5.41072 10.1563 5.45948 10.173 5.52379L10.202 5.51624ZM10.3665 5.39264C10.3249 5.39914 10.2799 5.40607 10.2441 5.42293C10.207 5.44036 10.1786 5.46905 10.1726 5.51821L10.2024 5.52182C10.2068 5.48515 10.2269 5.46416 10.2568 5.45007C10.288 5.43541 10.3284 5.42897 10.3711 5.42228L10.3665 5.39264ZM10.3897 5.38895L10.3665 5.39265L10.3712 5.42228L10.3944 5.41858L10.3897 5.38895ZM10.407 5.58001V5.40376H10.377V5.58001H10.407ZM10.1381 5.74302L10.3995 5.59302L10.3846 5.567L10.1232 5.717L10.1381 5.74302ZM9.88636 5.74501H10.1307V5.71501H9.88636V5.74501ZM10.1466 6.15344L10.3739 5.93969L10.3534 5.91784L10.1261 6.13159L10.1466 6.15344ZM9.86932 6.15751H10.1364V6.12751H9.86932V6.15751ZM9.62622 5.93982L9.85918 6.15357L9.87946 6.13146L9.6465 5.91771L9.62622 5.93982ZM10.3636 5.91376H9.63636V5.94376H10.3636V5.91376ZM9.49488 6.29911C9.54883 6.3187 9.58561 6.34847 9.61061 6.39146C9.63594 6.43501 9.64988 6.49331 9.65549 6.57109L9.68542 6.56894C9.67966 6.48922 9.6652 6.42565 9.63655 6.37638C9.60757 6.32656 9.56481 6.29258 9.50512 6.27091L9.49488 6.29911ZM10.5 6.27001H9.5V6.30001H10.5V6.27001ZM10.3445 6.57109C10.3501 6.49331 10.3641 6.43501 10.3894 6.39146C10.4144 6.34847 10.4512 6.3187 10.5051 6.29911L10.4949 6.27091C10.4352 6.29258 10.3924 6.32656 10.3635 6.37638C10.3348 6.42565 10.3203 6.48922 10.3146 6.56894L10.3445 6.57109ZM9.67045 6.58501H10.3295V6.55501H9.67045V6.58501Z" fill="black"/>
<path d="M10.3325 5.92502V5.71502C10.2668 5.729 10.213 5.77575 10.19 5.83877C10.19 5.76377 10.0962 5.60252 9.99497 5.52002C9.89372 5.61002 9.79622 5.76002 9.79997 5.83502C9.78122 5.77877 9.73247 5.73377 9.65747 5.71502V5.92877L10.3325 5.92502Z" fill="white" stroke="black" stroke-width="0.03" stroke-linejoin="bevel"/>
<path d="M10.3624 6.285V6.075C10.2837 6.0975 10.2312 6.13875 10.2087 6.19875C10.2087 6.12375 10.1074 5.9625 9.99494 5.88C9.88244 5.97375 9.77744 6.12 9.78119 6.19875C9.76244 6.1425 9.70619 6.0975 9.62744 6.075V6.28875L10.3624 6.285Z" fill="white" stroke="black" stroke-width="0.03" stroke-linejoin="bevel"/>
<path d="M10.4524 6.72378V6.47628C10.3744 6.50067 10.3069 6.55093 10.2612 6.61878C10.2612 6.48753 10.1112 6.28128 9.99494 6.21753C9.87494 6.28503 9.72869 6.49503 9.72869 6.61878C9.68182 6.55046 9.61302 6.50018 9.53369 6.47628V6.72378H10.4524Z" fill="white" stroke="black" stroke-width="0.03" stroke-linejoin="bevel"/>
<path d="M6.38747 8.59501V7.83001C6.36122 7.73251 6.27497 7.64251 6.21497 7.62751V6.95251L6.35372 7.02751L6.51497 7.73626V8.59876L6.38747 8.59501Z" fill="white" stroke="black" stroke-width="0.03"/>
<path d="M6.28619 8.79379C6.34994 8.76754 6.44369 8.68504 6.44369 8.60629V7.64629L6.39869 7.57129H8.03744L7.97369 7.64629V8.60629C7.97929 8.6872 8.02801 8.75884 8.10119 8.79379H6.28619Z" fill="white" stroke="black" stroke-width="0.03"/>
<path d="M7.76749 8.79375C7.70374 8.7675 7.60999 8.685 7.60999 8.60625V7.695L7.74499 7.5675H6.63499L6.76999 7.695V8.60625C6.76999 8.685 6.67624 8.7675 6.61249 8.79375H7.76749Z" fill="white" stroke="black" stroke-width="0.03"/>
<path d="M7.61374 8.79384C7.54999 8.76759 7.45249 8.68509 7.45249 8.60634V7.78134L7.54249 7.65759H6.83749L6.92749 7.78134V8.60634C6.92749 8.68509 6.83374 8.76759 6.76624 8.79384H7.61374Z" fill="white" stroke="black" stroke-width="0.03"/>
<path fill-rule="evenodd" clip-rule="evenodd" d="M6.44745 6.81006H6.6087V6.93006H6.61245V7.56756H6.44745V6.93006V6.81006ZM6.5637 7.97256H6.6987V8.59131H6.5637V7.97256ZM7.7187 7.97256H7.84995V8.59131H7.71495L7.7187 7.97256ZM8.0112 7.06881H7.78245V7.55631H8.0112V7.06881Z" fill="white"/>
<path d="M6.6087 6.81006H6.6237L6.6087 6.79506V6.81006ZM6.44745 6.81006V6.79506L6.43245 6.81006H6.44745ZM6.6087 6.93006H6.5937L6.6087 6.94506V6.93006ZM6.61245 6.93006H6.62745L6.61245 6.91506V6.93006ZM6.61245 7.56756V7.58256L6.62745 7.56756H6.61245ZM6.44745 7.56756H6.43245L6.44745 7.58256V7.56756ZM6.6987 7.97256H6.7137L6.6987 7.95756V7.97256ZM6.5637 7.97256V7.95756L6.5487 7.97256H6.5637ZM6.6987 8.59131V8.60631L6.7137 8.59131H6.6987ZM6.5637 8.59131H6.5487L6.5637 8.60631V8.59131ZM7.84995 7.97256H7.86495L7.84995 7.95756V7.97256ZM7.7187 7.97256V7.95756L7.7037 7.97247L7.7187 7.97256ZM7.84995 8.59131V8.60631L7.86495 8.59131H7.84995ZM7.71495 8.59131L7.69995 8.59122L7.71495 8.60631V8.59131ZM7.78245 7.06881V7.05381L7.76745 7.06881H7.78245ZM8.0112 7.06881H8.0262L8.0112 7.05381V7.06881ZM7.78245 7.55631H7.76745L7.78245 7.57131V7.55631ZM8.0112 7.55631V7.57131L8.0262 7.55631H8.0112ZM6.6087 6.79506H6.44745V6.82506H6.6087V6.79506ZM6.6237 6.93006V6.81006H6.5937V6.93006H6.6237ZM6.61245 6.91506H6.6087V6.94506H6.61245V6.91506ZM6.62745 7.56756V6.93006H6.59745V7.56756H6.62745ZM6.44745 7.58256H6.61245V7.55256H6.44745V7.58256ZM6.43245 6.93006V7.56756H6.46245V6.93006H6.43245ZM6.43245 6.81006V6.93006H6.46245V6.81006H6.43245ZM6.6987 7.95756H6.5637V7.98756H6.6987V7.95756ZM6.7137 8.59131V7.97256H6.6837V8.59131H6.7137ZM6.5637 8.60631H6.6987V8.57631H6.5637V8.60631ZM6.5487 7.97256V8.59131H6.5787V7.97256H6.5487ZM7.84995 7.95756H7.7187V7.98756H7.84995V7.95756ZM7.86495 8.59131V7.97256H7.83495V8.59131H7.86495ZM7.71495 8.60631H7.84995V8.57631H7.71495V8.60631ZM7.7037 7.97247L7.69995 8.59122L7.72995 8.5914L7.7337 7.97265L7.7037 7.97247ZM7.78245 7.08381H8.0112V7.05381H7.78245V7.08381ZM7.79745 7.55631V7.06881H7.76745V7.55631H7.79745ZM8.0112 7.54131H7.78245V7.57131H8.0112V7.54131ZM7.9962 7.06881V7.55631H8.0262V7.06881H7.9962Z" fill="black"/>
<path fill-rule="evenodd" clip-rule="evenodd" d="M6.60873 6.47256V7.56006H7.78998V6.47631C7.77217 6.47631 7.76024 6.50096 7.74581 6.53076C7.72378 6.57628 7.69593 6.63381 7.63248 6.63381C7.57623 6.63381 7.58373 6.56631 7.61373 6.51381C7.63998 6.46506 7.67373 6.40131 7.62873 6.27756C7.59498 6.37131 7.51248 6.40131 7.52748 6.34506C7.53576 6.31309 7.54928 6.28935 7.56202 6.26699C7.58962 6.21851 7.61353 6.17652 7.57248 6.07131C7.55373 6.19881 7.47123 6.19506 7.48998 6.12006C7.49544 6.09911 7.50246 6.08103 7.50909 6.06395C7.52974 6.01072 7.54665 5.96716 7.50123 5.87631C7.46748 6.01506 7.42623 6.00756 7.42623 5.92131C7.42623 5.91856 7.42623 5.91581 7.42623 5.91306C7.42631 5.79145 7.4264 5.65773 7.26873 5.61006C7.26873 5.61006 7.25748 5.49756 7.20123 5.49756C7.14123 5.49756 7.12998 5.61006 7.12998 5.61006C6.97248 5.65881 6.97248 5.79381 6.97248 5.92131C6.97248 6.00756 6.93123 6.01506 6.89748 5.87631C6.85205 5.96716 6.86896 6.01072 6.88962 6.06395C6.89624 6.08103 6.90326 6.09911 6.90873 6.12006C6.92748 6.19506 6.84498 6.19881 6.82623 6.07131C6.78517 6.17652 6.80908 6.21851 6.83668 6.26699C6.84942 6.28935 6.86294 6.31309 6.87123 6.34506C6.88623 6.40131 6.80373 6.37131 6.76998 6.27756C6.72498 6.40131 6.75873 6.46506 6.78498 6.51381C6.81873 6.56631 6.82248 6.63381 6.76623 6.63381C6.70277 6.63381 6.67492 6.57491 6.65289 6.52831C6.63846 6.4978 6.62653 6.47256 6.60873 6.47256ZM6.34998 7.56756V6.73881C6.38198 6.72006 6.41398 6.72006 6.44998 6.73881V7.56756H6.34998Z" fill="white"/>
<path d="M6.60873 7.56006H6.59373V7.57506H6.60873V7.56006ZM6.60873 6.47256V6.45756H6.59373V6.47256H6.60873ZM7.78998 7.56006V7.57506H7.80498V7.56006H7.78998ZM7.78998 6.47631H7.80498V6.46131H7.78998V6.47631ZM7.74581 6.53076L7.75931 6.5373L7.74581 6.53076ZM7.61373 6.51381L7.62675 6.52125L7.62693 6.52092L7.61373 6.51381ZM7.62873 6.27756L7.64282 6.27243L7.62865 6.23347L7.61461 6.27248L7.62873 6.27756ZM7.52748 6.34506L7.54197 6.34892L7.542 6.34882L7.52748 6.34506ZM7.56202 6.26699L7.54898 6.25957L7.56202 6.26699ZM7.57248 6.07131L7.58645 6.06586L7.56587 6.01312L7.55764 6.06913L7.57248 6.07131ZM7.48998 6.12006L7.47546 6.11627L7.47542 6.11642L7.48998 6.12006ZM7.50909 6.06395L7.4951 6.05852V6.05852L7.50909 6.06395ZM7.50123 5.87631L7.51464 5.8696L7.49633 5.83297L7.48665 5.87276L7.50123 5.87631ZM7.42623 5.91306L7.41123 5.91305V5.91305L7.42623 5.91306ZM7.26873 5.61006L7.2538 5.61155L7.2548 5.62152L7.26438 5.62442L7.26873 5.61006ZM7.12998 5.61006L7.13441 5.62439L7.14391 5.62145L7.1449 5.61155L7.12998 5.61006ZM6.89748 5.87631L6.91205 5.87276L6.90237 5.83297L6.88406 5.8696L6.89748 5.87631ZM6.88962 6.06395L6.9036 6.05852L6.88962 6.06395ZM6.90873 6.12006L6.92328 6.11642L6.92324 6.11627L6.90873 6.12006ZM6.82623 6.07131L6.84107 6.06913L6.83283 6.01312L6.81225 6.06586L6.82623 6.07131ZM6.83668 6.26699L6.84972 6.25957L6.83668 6.26699ZM6.87123 6.34506L6.85671 6.34882L6.85673 6.34892L6.87123 6.34506ZM6.76998 6.27756L6.78409 6.27248L6.77005 6.23347L6.75588 6.27243L6.76998 6.27756ZM6.78498 6.51381L6.77173 6.52094L6.77236 6.52192L6.78498 6.51381ZM6.65289 6.52831L6.66645 6.5219L6.65289 6.52831ZM6.34998 6.73881L6.34239 6.72587L6.33498 6.73021V6.73881H6.34998ZM6.34998 7.56756H6.33498V7.58256H6.34998V7.56756ZM6.44998 6.73881H6.46498V6.72971L6.4569 6.7255L6.44998 6.73881ZM6.44998 7.56756V7.58256H6.46498V7.56756H6.44998ZM6.62373 7.56006V6.47256H6.59373V7.56006H6.62373ZM7.78998 7.54506H6.60873V7.57506H7.78998V7.54506ZM7.77498 6.47631V7.56006H7.80498V6.47631H7.77498ZM7.75931 6.5373C7.76672 6.522 7.77273 6.50968 7.77886 6.50104C7.78526 6.49202 7.78878 6.49131 7.78998 6.49131V6.46131C7.77337 6.46131 7.76202 6.47293 7.75439 6.48368C7.7465 6.49482 7.73933 6.50972 7.73231 6.52423L7.75931 6.5373ZM7.63248 6.64881C7.66955 6.64881 7.69621 6.6317 7.71594 6.60926C7.73517 6.58739 7.74847 6.5597 7.75931 6.5373L7.73231 6.52423C7.72112 6.54735 7.70948 6.57118 7.69341 6.58945C7.67785 6.60715 7.65886 6.61881 7.63248 6.61881V6.64881ZM7.6007 6.50637C7.5849 6.53401 7.57414 6.56697 7.57578 6.59439C7.57662 6.60829 7.58075 6.6222 7.59068 6.63273C7.60088 6.64354 7.61528 6.64881 7.63248 6.64881V6.61881C7.62154 6.61881 7.61579 6.61563 7.61251 6.61215C7.60896 6.60839 7.6063 6.60214 7.60573 6.5926C7.60456 6.57315 7.61255 6.5461 7.62675 6.52125L7.6007 6.50637ZM7.61463 6.28268C7.6364 6.34255 7.63876 6.38682 7.63314 6.4214C7.62749 6.45618 7.61363 6.48235 7.60052 6.5067L7.62693 6.52092C7.64007 6.49652 7.65621 6.46644 7.66275 6.42621C7.66932 6.3858 7.66605 6.33632 7.64282 6.27243L7.61463 6.28268ZM7.51298 6.34119C7.50886 6.35664 7.5091 6.37519 7.52459 6.38434C7.53151 6.38843 7.53928 6.38895 7.54611 6.38799C7.553 6.38703 7.56005 6.38442 7.56685 6.38081C7.59372 6.36655 7.62495 6.33232 7.64284 6.28264L7.61461 6.27248C7.59875 6.31655 7.57186 6.34419 7.55279 6.35431C7.54811 6.35679 7.54443 6.35793 7.54194 6.35829C7.53937 6.35865 7.53908 6.35806 7.53985 6.35851C7.54304 6.36039 7.53859 6.3616 7.54197 6.34892L7.51298 6.34119ZM7.54898 6.25957C7.53626 6.2819 7.5218 6.30719 7.51296 6.34129L7.542 6.34882C7.54973 6.31899 7.5623 6.2968 7.57505 6.27441L7.54898 6.25957ZM7.5585 6.07676C7.57844 6.12786 7.58196 6.16195 7.57815 6.18828C7.57431 6.2148 7.56291 6.2351 7.54898 6.25957L7.57505 6.27441C7.58872 6.2504 7.60308 6.22547 7.60784 6.19257C7.61263 6.15948 7.60757 6.11997 7.58645 6.06586L7.5585 6.07676ZM7.47542 6.11642C7.47022 6.13723 7.47123 6.15613 7.47949 6.16978C7.48372 6.17677 7.48984 6.18225 7.49749 6.1852C7.50512 6.18815 7.5133 6.18822 7.52111 6.18609C7.53642 6.18192 7.5506 6.16937 7.56182 6.15111C7.57321 6.13258 7.58241 6.10685 7.58732 6.07349L7.55764 6.06913C7.55317 6.09952 7.54503 6.12114 7.53626 6.13541C7.52732 6.14996 7.51853 6.1557 7.51322 6.15715C7.51072 6.15783 7.50917 6.15755 7.5083 6.15722C7.50746 6.15689 7.50631 6.15616 7.50515 6.15424C7.50263 6.15008 7.50036 6.14038 7.50453 6.1237L7.47542 6.11642ZM7.4951 6.05852C7.48849 6.07555 7.48117 6.09437 7.47546 6.11627L7.50449 6.12384C7.50971 6.10384 7.51642 6.08651 7.52307 6.06938L7.4951 6.05852ZM7.48781 5.88302C7.50974 5.92689 7.51595 5.95796 7.51495 5.98365C7.51393 6.00968 7.50554 6.03162 7.4951 6.05852L7.52307 6.06938C7.53329 6.04305 7.54368 6.0166 7.54492 5.98482C7.54618 5.95271 7.53813 5.91658 7.51464 5.8696L7.48781 5.88302ZM7.41123 5.92131C7.41123 5.94367 7.41384 5.96258 7.41933 5.97589C7.42205 5.9825 7.42606 5.98915 7.43218 5.99365C7.43901 5.99867 7.44739 6.00013 7.45567 5.99746C7.46307 5.99507 7.46917 5.98981 7.47413 5.98393C7.47923 5.97789 7.48408 5.97004 7.48872 5.96064C7.498 5.94182 7.50722 5.91512 7.5158 5.87985L7.48665 5.87276C7.47835 5.90687 7.46976 5.93126 7.46182 5.94737C7.45784 5.95543 7.45423 5.961 7.4512 5.96459C7.44802 5.96836 7.44633 5.96895 7.44646 5.96891C7.44748 5.96858 7.44912 5.96887 7.44994 5.96947C7.45003 5.96954 7.44874 5.96852 7.44707 5.96446C7.44376 5.95644 7.44123 5.94208 7.44123 5.92131H7.41123ZM7.41123 5.91305C7.41123 5.9158 7.41123 5.91856 7.41123 5.92131H7.44123C7.44123 5.91857 7.44123 5.91582 7.44123 5.91307L7.41123 5.91305ZM7.26438 5.62442C7.33863 5.64686 7.37444 5.68873 7.39252 5.73892C7.41114 5.79058 7.41127 5.85161 7.41123 5.91305L7.44123 5.91307C7.44127 5.85289 7.44148 5.78627 7.42075 5.72874C7.39948 5.66975 7.3565 5.62092 7.27307 5.5957L7.26438 5.62442ZM7.20123 5.51256C7.20961 5.51256 7.21701 5.51654 7.22407 5.52485C7.23134 5.5334 7.23727 5.5455 7.24191 5.55876C7.24649 5.57185 7.24949 5.5851 7.25133 5.59519C7.25225 5.6002 7.25288 5.60436 7.25327 5.60724C7.25346 5.60868 7.2536 5.6098 7.25369 5.61053C7.25373 5.6109 7.25376 5.61118 7.25378 5.61135C7.25379 5.61143 7.25379 5.61149 7.2538 5.61153C7.2538 5.61155 7.2538 5.61156 7.2538 5.61156C7.2538 5.61156 7.2538 5.61156 7.2538 5.61156C7.2538 5.61156 7.2538 5.61156 7.2538 5.61156C7.2538 5.61155 7.2538 5.61155 7.26873 5.61006C7.28365 5.60857 7.28365 5.60856 7.28365 5.60856C7.28365 5.60856 7.28365 5.60855 7.28365 5.60855C7.28365 5.60854 7.28365 5.60853 7.28365 5.60852C7.28364 5.60849 7.28364 5.60846 7.28364 5.60843C7.28363 5.60835 7.28362 5.60825 7.2836 5.60812C7.28358 5.60787 7.28354 5.60751 7.28348 5.60706C7.28338 5.60615 7.28322 5.60484 7.283 5.60321C7.28255 5.59994 7.28186 5.59531 7.28084 5.58978C7.27882 5.57877 7.27549 5.56389 7.27023 5.54885C7.26502 5.53399 7.2576 5.51797 7.24693 5.50542C7.23607 5.49264 7.22097 5.48256 7.20123 5.48256V5.51256ZM7.12998 5.61006C7.1449 5.61155 7.1449 5.61155 7.1449 5.61156C7.1449 5.61156 7.1449 5.61156 7.1449 5.61156C7.1449 5.61156 7.1449 5.61156 7.1449 5.61156C7.1449 5.61156 7.1449 5.61155 7.1449 5.61153C7.14491 5.6115 7.14491 5.61144 7.14492 5.61136C7.14494 5.61119 7.14497 5.61092 7.14501 5.61055C7.1451 5.60982 7.14524 5.60871 7.14544 5.60728C7.14583 5.60441 7.14647 5.60026 7.14741 5.59526C7.14931 5.58521 7.1524 5.57201 7.15718 5.55897C7.16202 5.54578 7.16824 5.53371 7.17593 5.52517C7.18337 5.5169 7.19154 5.51256 7.20123 5.51256V5.48256C7.18091 5.48256 7.16517 5.49228 7.15363 5.5051C7.14233 5.51766 7.13449 5.53371 7.12902 5.54864C7.12348 5.56373 7.12002 5.57866 7.11793 5.5897C7.11688 5.59525 7.11617 5.59989 7.11572 5.60317C7.11549 5.60482 7.11533 5.60612 7.11522 5.60704C7.11517 5.6075 7.11513 5.60786 7.1151 5.60812C7.11508 5.60824 7.11507 5.60835 7.11506 5.60842C7.11506 5.60846 7.11506 5.60849 7.11506 5.60851C7.11505 5.60853 7.11505 5.60854 7.11505 5.60855C7.11505 5.60855 7.11505 5.60855 7.11505 5.60856C7.11505 5.60856 7.11505 5.60857 7.12998 5.61006ZM6.98748 5.92131C6.98748 5.85692 6.98764 5.79404 7.00631 5.74114C7.02445 5.68973 7.06029 5.64733 7.13441 5.62439L7.12554 5.59573C7.04216 5.62154 6.99925 5.67101 6.97802 5.73116C6.95731 5.78982 6.95748 5.8582 6.95748 5.92131H6.98748ZM6.8829 5.87985C6.89148 5.91512 6.9007 5.94182 6.90998 5.96064C6.91462 5.97004 6.91947 5.97789 6.92457 5.98393C6.92953 5.98981 6.93563 5.99507 6.94303 5.99746C6.95131 6.00013 6.95969 5.99867 6.96653 5.99365C6.97264 5.98915 6.97665 5.9825 6.97937 5.97589C6.98486 5.96258 6.98748 5.94367 6.98748 5.92131H6.95748C6.95748 5.94208 6.95494 5.95644 6.95163 5.96446C6.94996 5.96852 6.94867 5.96954 6.94876 5.96947C6.94958 5.96887 6.95122 5.96858 6.95224 5.96891C6.95237 5.96895 6.95068 5.96836 6.9475 5.96459C6.94447 5.961 6.94086 5.95543 6.93688 5.94737C6.92894 5.93126 6.92035 5.90687 6.91205 5.87276L6.8829 5.87985ZM6.9036 6.05852C6.89316 6.03162 6.88477 6.00968 6.88375 5.98365C6.88275 5.95796 6.88896 5.92689 6.91089 5.88302L6.88406 5.8696C6.86057 5.91658 6.85252 5.95271 6.85378 5.98482C6.85502 6.0166 6.86541 6.04305 6.87563 6.06938L6.9036 6.05852ZM6.92324 6.11627C6.91753 6.09437 6.91021 6.07555 6.9036 6.05852L6.87563 6.06938C6.88228 6.08651 6.88899 6.10384 6.89421 6.12384L6.92324 6.11627ZM6.81139 6.07349C6.81629 6.10685 6.82549 6.13258 6.83688 6.15111C6.8481 6.16937 6.86228 6.18192 6.87759 6.18609C6.88541 6.18822 6.89359 6.18815 6.90121 6.1852C6.90887 6.18225 6.91498 6.17677 6.91921 6.16978C6.92748 6.15613 6.92848 6.13723 6.92328 6.11642L6.89417 6.1237C6.89834 6.14038 6.89607 6.15008 6.89355 6.15424C6.89239 6.15616 6.89124 6.15689 6.8904 6.15722C6.88953 6.15755 6.88798 6.15783 6.88548 6.15715C6.88017 6.1557 6.87138 6.14996 6.86244 6.13541C6.85368 6.12114 6.84553 6.09952 6.84107 6.06913L6.81139 6.07349ZM6.84972 6.25957C6.83579 6.2351 6.82439 6.2148 6.82055 6.18828C6.81675 6.16195 6.82026 6.12786 6.8402 6.07676L6.81225 6.06586C6.79113 6.11997 6.78608 6.15948 6.79086 6.19257C6.79562 6.22547 6.80998 6.2504 6.82365 6.27441L6.84972 6.25957ZM6.88575 6.34129C6.8769 6.30719 6.86244 6.2819 6.84972 6.25957L6.82365 6.27441C6.8364 6.2968 6.84897 6.31899 6.85671 6.34882L6.88575 6.34129ZM6.75586 6.28264C6.77375 6.33232 6.80498 6.36655 6.83185 6.38081C6.83865 6.38442 6.8457 6.38703 6.85259 6.38799C6.85942 6.38895 6.86719 6.38843 6.87411 6.38434C6.8896 6.37519 6.88984 6.35664 6.88572 6.34119L6.85673 6.34892C6.86011 6.3616 6.85566 6.36039 6.85885 6.35851C6.85962 6.35806 6.85933 6.35865 6.85677 6.35829C6.85427 6.35793 6.8506 6.35679 6.84591 6.35431C6.82684 6.34419 6.79995 6.31655 6.78409 6.27248L6.75586 6.28264ZM6.79818 6.5067C6.78507 6.48235 6.77121 6.45618 6.76556 6.4214C6.75994 6.38682 6.7623 6.34255 6.78407 6.28268L6.75588 6.27243C6.73265 6.33632 6.72938 6.3858 6.73595 6.42621C6.74249 6.46644 6.75863 6.49652 6.77177 6.52092L6.79818 6.5067ZM6.76623 6.64881C6.78342 6.64881 6.79791 6.64355 6.80833 6.63296C6.81854 6.62258 6.82318 6.60876 6.8243 6.59469C6.82652 6.56696 6.8156 6.5337 6.79759 6.5057L6.77236 6.52192C6.78811 6.54642 6.79593 6.57316 6.7944 6.5923C6.79365 6.60167 6.79079 6.60801 6.78694 6.61192C6.7833 6.61563 6.77716 6.61881 6.76623 6.61881V6.64881ZM6.63933 6.53472C6.65017 6.55765 6.66345 6.58596 6.68264 6.60831C6.70233 6.63123 6.72901 6.64881 6.76623 6.64881V6.61881C6.73998 6.61881 6.72102 6.60694 6.7054 6.58876C6.6893 6.57002 6.67764 6.54557 6.66645 6.5219L6.63933 6.53472ZM6.60873 6.48756C6.60976 6.48756 6.61327 6.48819 6.61974 6.49753C6.6259 6.50642 6.63193 6.51907 6.63933 6.53472L6.66645 6.5219C6.65942 6.50704 6.65228 6.49181 6.64441 6.48045C6.63685 6.46954 6.6255 6.45756 6.60873 6.45756V6.48756ZM6.33498 6.73881V7.56756H6.36498V6.73881H6.33498ZM6.4569 6.7255C6.43729 6.71529 6.41791 6.70975 6.39848 6.70975C6.37895 6.70975 6.36036 6.71534 6.34239 6.72587L6.35756 6.75175C6.37159 6.74353 6.385 6.73975 6.39848 6.73975C6.41204 6.73975 6.42666 6.74358 6.44305 6.75211L6.4569 6.7255ZM6.46498 7.56756V6.73881H6.43498V7.56756H6.46498ZM6.34998 7.58256H6.44998V7.55256H6.34998V7.58256Z" fill="black"/>
<path fill-rule="evenodd" clip-rule="evenodd" d="M7.34745 5.95505L7.27995 6.0113H7.1112L7.0437 5.9513V5.8763C7.06995 5.8838 7.0812 5.88755 7.09995 5.9138C7.11642 5.86587 7.15159 5.82663 7.19745 5.80505C7.24266 5.8283 7.27649 5.8689 7.2912 5.91755C7.30995 5.8913 7.32495 5.88005 7.34745 5.88005V5.95505ZM7.78995 7.5638C7.81995 7.3988 7.9362 7.3313 8.05245 7.27505V7.5638H7.78995Z" fill="white"/>
<path d="M7.27995 6.0113V6.03083L7.28955 6.02283L7.27995 6.0113ZM7.34745 5.95505L7.36245 5.97305V5.95505H7.34745ZM7.1112 6.0113L7.09787 6.0263H7.1112V6.0113ZM7.0437 5.9513H7.02112L7.03374 5.96251L7.0437 5.9513ZM7.0437 5.8763L7.04782 5.86188L7.0287 5.85642V5.8763H7.0437ZM7.09995 5.9138L7.08775 5.92252L7.10468 5.94623L7.11414 5.91868L7.09995 5.9138ZM7.19745 5.80505L7.20869 5.78319L7.19106 5.79148L7.19745 5.80505ZM7.2912 5.91755L7.27684 5.92189L7.28567 5.9511L7.30341 5.92627L7.2912 5.91755ZM7.34745 5.88005H7.36245V5.86505H7.34745V5.88005ZM8.05245 7.27505H8.06745V7.25113L8.04592 7.26155L8.05245 7.27505ZM7.78995 7.5638L7.77519 7.56112L7.77198 7.5788H7.78995V7.5638ZM8.05245 7.5638V7.5788H8.06745V7.5638H8.05245ZM7.28955 6.02283L7.35705 5.96658L7.33785 5.94353L7.27035 5.99978L7.28955 6.02283ZM7.1112 6.0263H7.27995V5.9963H7.1112V6.0263ZM7.03374 5.96251L7.10124 6.02251L7.12117 6.00009L7.05367 5.94009L7.03374 5.96251ZM7.0287 5.8763V5.9513H7.0587V5.8763H7.0287ZM7.11216 5.90509C7.10217 5.89111 7.09329 5.88184 7.08246 5.87522C7.072 5.86883 7.06062 5.86554 7.04782 5.86188L7.03958 5.89073C7.05304 5.89457 7.06041 5.8969 7.06682 5.90082C7.07286 5.90452 7.07898 5.91025 7.08775 5.92252L7.11216 5.90509ZM7.19106 5.79148C7.14153 5.81479 7.10355 5.85716 7.08576 5.90893L7.11414 5.91868C7.12929 5.87457 7.16164 5.83848 7.20384 5.81863L7.19106 5.79148ZM7.30556 5.91321C7.28967 5.86066 7.25313 5.81681 7.20431 5.79171L7.19059 5.81839C7.23218 5.83978 7.26331 5.87713 7.27684 5.92189L7.30556 5.91321ZM7.34745 5.86505C7.33334 5.86505 7.32098 5.86869 7.30945 5.87658C7.29839 5.88415 7.28874 5.89519 7.279 5.90884L7.30341 5.92627C7.31241 5.91367 7.31964 5.90596 7.32639 5.90134C7.33267 5.89704 7.33907 5.89505 7.34745 5.89505V5.86505ZM7.36245 5.95505V5.88005H7.33245V5.95505H7.36245ZM8.04592 7.26155C7.92924 7.31801 7.8066 7.38836 7.77519 7.56112L7.80471 7.56649C7.8333 7.40925 7.94316 7.3446 8.05898 7.28856L8.04592 7.26155ZM8.06745 7.5638V7.27505H8.03745V7.5638H8.06745ZM7.78995 7.5788H8.05245V7.5488H7.78995V7.5788Z" fill="black"/>
<path d="M7.31745 6.19508L7.34745 6.12383V6.03008C7.32495 6.03008 7.30995 6.04133 7.2912 6.06758C7.27649 6.01892 7.24266 5.97832 7.19745 5.95508C7.15159 5.97666 7.11642 6.01589 7.09995 6.06383C7.0812 6.03758 7.06995 6.03383 7.0437 6.03008V6.12383L7.0737 6.19508H7.31745Z" fill="white" stroke="black" stroke-width="0.03"/>
<path d="M7.32494 6.44258L7.42244 6.31883V6.19883C7.38494 6.19883 7.36619 6.21758 7.33994 6.25883C7.31369 6.17258 7.26494 6.15758 7.19744 6.11633C7.12619 6.15383 7.07744 6.17258 7.05494 6.25508C7.02494 6.21383 7.00619 6.20258 6.96869 6.19883V6.31883L7.06994 6.44258H7.32494Z" fill="white" stroke="black" stroke-width="0.03"/>
<path d="M7.3512 6.68625C7.3512 6.68625 7.4712 6.585 7.47495 6.52875V6.3975C7.42995 6.40125 7.3887 6.4125 7.35495 6.46875C7.32495 6.36 7.27995 6.33 7.19745 6.28125C7.1112 6.33 7.0662 6.36 7.03995 6.46875C7.00245 6.4125 6.96495 6.40125 6.9162 6.39375V6.52875C6.94769 6.58823 6.98961 6.64158 7.03995 6.68625H7.3512Z" fill="white" stroke="black" stroke-width="0.03"/>
<path d="M7.39998 7.13636C7.39998 7.13636 7.56498 6.96011 7.56873 6.88886V6.68636C7.50873 6.69386 7.44873 6.73511 7.40373 6.82136C7.36623 6.65261 7.30623 6.53636 7.19748 6.45386C7.08498 6.53636 7.02498 6.65261 6.98748 6.82136C6.94248 6.73511 6.88623 6.69386 6.82623 6.68636V6.88886C6.83748 6.96011 6.99123 7.13636 6.99123 7.13636H7.39998Z" fill="white" stroke="black" stroke-width="0.03"/>
<path d="M7.39998 7.4026C7.39998 7.4026 7.53873 7.26385 7.56873 7.20385V7.00135C7.50873 7.00885 7.44873 7.0501 7.40373 7.1326C7.38347 6.99479 7.30928 6.87068 7.19748 6.7876C7.08498 6.8701 7.02498 6.96385 6.98748 7.1326C6.94248 7.0501 6.88623 7.00885 6.82623 7.00135V7.20385C6.86373 7.26385 6.99123 7.4026 6.99123 7.4026H7.39998Z" fill="white" stroke="black" stroke-width="0.03"/>
<path d="M7.45623 7.56009C7.41873 7.38384 7.38123 7.25259 7.18998 7.12134C6.99498 7.25259 6.96123 7.38384 6.91998 7.56009H7.45623Z" fill="white" stroke="black" stroke-width="0.03"/>
<path d="M13.6137 8.59501V7.83001C13.6399 7.73251 13.7262 7.64251 13.7862 7.62751V6.95251L13.6474 7.02751L13.4862 7.73626V8.59876L13.6137 8.59501Z" fill="white" stroke="black" stroke-width="0.03"/>
<path d="M13.715 8.79379C13.6512 8.76754 13.5575 8.68504 13.5575 8.60629V7.64629L13.6025 7.57129H11.9637L12.0275 7.64629V8.60629C12.0219 8.6872 11.9732 8.75884 11.9 8.79379H13.715Z" fill="white" stroke="black" stroke-width="0.03"/>
<path d="M12.2337 8.79375C12.2974 8.7675 12.3912 8.685 12.3912 8.60625V7.695L12.2562 7.5675H13.3662L13.2312 7.695V8.60625C13.2312 8.685 13.3249 8.7675 13.3887 8.79375H12.2337Z" fill="white" stroke="black" stroke-width="0.03"/>
<path d="M12.3874 8.79384C12.4512 8.76759 12.5487 8.68509 12.5487 8.60634V7.78134L12.4587 7.65759H13.1637L13.0737 7.78134V8.60634C13.0737 8.68509 13.1674 8.76759 13.2349 8.79384H12.3874Z" fill="white" stroke="black" stroke-width="0.03"/>
<path fill-rule="evenodd" clip-rule="evenodd" d="M13.5537 6.81006H13.3925V6.93006H13.3887V7.56756H13.5537V6.93006V6.81006ZM13.4375 7.97256H13.3025V8.59131H13.4375V7.97256ZM12.2825 7.97256H12.1512V8.59131H12.2862L12.2825 7.97256ZM11.99 7.06881H12.2187V7.55631H11.99V7.06881Z" fill="white"/>
<path d="M13.3925 6.81006H13.3775L13.3925 6.79506V6.81006ZM13.5537 6.81006V6.79506L13.5687 6.81006H13.5537ZM13.3925 6.93006H13.4075L13.3925 6.94506V6.93006ZM13.3887 6.93006H13.3737L13.3887 6.91506V6.93006ZM13.3887 7.56756V7.58256L13.3737 7.56756H13.3887ZM13.5537 7.56756H13.5687L13.5537 7.58256V7.56756ZM13.3025 7.97256H13.2875L13.3025 7.95756V7.97256ZM13.4375 7.97256V7.95756L13.4525 7.97256H13.4375ZM13.3025 8.59131V8.60631L13.2875 8.59131H13.3025ZM13.4375 8.59131H13.4525L13.4375 8.60631V8.59131ZM12.1512 7.97256H12.1362L12.1512 7.95756V7.97256ZM12.2825 7.97256V7.95756L12.2975 7.97247L12.2825 7.97256ZM12.1512 8.59131V8.60631L12.1362 8.59131H12.1512ZM12.2862 8.59131L12.3012 8.59122L12.2862 8.60631V8.59131ZM12.2187 7.06881V7.05381L12.2337 7.06881H12.2187ZM11.99 7.06881H11.975L11.99 7.05381V7.06881ZM12.2187 7.55631H12.2337L12.2187 7.57131V7.55631ZM11.99 7.55631V7.57131L11.975 7.55631H11.99ZM13.3925 6.79506H13.5537V6.82506H13.3925V6.79506ZM13.3775 6.93006V6.81006H13.4075V6.93006H13.3775ZM13.3887 6.91506H13.3925V6.94506H13.3887V6.91506ZM13.3737 7.56756V6.93006H13.4037V7.56756H13.3737ZM13.5537 7.58256H13.3887V7.55256H13.5537V7.58256ZM13.5687 6.93006V7.56756H13.5387V6.93006H13.5687ZM13.5687 6.81006V6.93006H13.5387V6.81006H13.5687ZM13.3025 7.95756H13.4375V7.98756H13.3025V7.95756ZM13.2875 8.59131V7.97256H13.3175V8.59131H13.2875ZM13.4375 8.60631H13.3025V8.57631H13.4375V8.60631ZM13.4525 7.97256V8.59131H13.4225V7.97256H13.4525ZM12.1512 7.95756H12.2825V7.98756H12.1512V7.95756ZM12.1362 8.59131V7.97256H12.1662V8.59131H12.1362ZM12.2862 8.60631H12.1512V8.57631H12.2862V8.60631ZM12.2975 7.97247L12.3012 8.59122L12.2712 8.5914L12.2675 7.97265L12.2975 7.97247ZM12.2187 7.08381H11.99V7.05381H12.2187V7.08381ZM12.2037 7.55631V7.06881H12.2337V7.55631H12.2037ZM11.99 7.54131H12.2187V7.57131H11.99V7.54131ZM12.005 7.06881V7.55631H11.975V7.06881H12.005Z" fill="black"/>
<path fill-rule="evenodd" clip-rule="evenodd" d="M13.3924 6.47256V7.56006H12.2112V6.47631C12.229 6.47631 12.2409 6.50096 12.2553 6.53076C12.2774 6.57628 12.3052 6.63381 12.3687 6.63381C12.4249 6.63381 12.4174 6.56631 12.3874 6.51381C12.3612 6.46506 12.3274 6.40131 12.3724 6.27756C12.4062 6.37131 12.4887 6.40131 12.4737 6.34506C12.4654 6.31309 12.4519 6.28935 12.4391 6.26699C12.4115 6.21851 12.3876 6.17652 12.4287 6.07131C12.4474 6.19881 12.5299 6.19506 12.5112 6.12006C12.5057 6.09911 12.4987 6.08103 12.4921 6.06395C12.4714 6.01072 12.4545 5.96716 12.4999 5.87631C12.5337 6.01506 12.5749 6.00756 12.5749 5.92131C12.5749 5.91856 12.5749 5.91581 12.5749 5.91306C12.5748 5.79145 12.5748 5.65773 12.7324 5.61006C12.7324 5.61006 12.7437 5.49756 12.7999 5.49756C12.8599 5.49756 12.8712 5.61006 12.8712 5.61006C13.0287 5.65881 13.0287 5.79381 13.0287 5.92131C13.0287 6.00756 13.0699 6.01506 13.1037 5.87631C13.1491 5.96716 13.1322 6.01072 13.1115 6.06395C13.1049 6.08103 13.0979 6.09911 13.0924 6.12006C13.0737 6.19506 13.1562 6.19881 13.1749 6.07131C13.216 6.17652 13.1921 6.21851 13.1645 6.26699C13.1517 6.28935 13.1382 6.31309 13.1299 6.34506C13.1149 6.40131 13.1974 6.37131 13.2312 6.27756C13.2762 6.40131 13.2424 6.46506 13.2162 6.51381C13.1824 6.56631 13.1787 6.63381 13.2349 6.63381C13.2984 6.63381 13.3262 6.57491 13.3483 6.52831C13.3627 6.4978 13.3746 6.47256 13.3924 6.47256ZM13.6512 7.56756V6.73881C13.6192 6.72006 13.5872 6.72006 13.5512 6.73881V7.56756H13.6512Z" fill="white"/>
<path d="M13.3924 7.56006H13.4074V7.57506H13.3924V7.56006ZM13.3924 6.47256V6.45756H13.4074V6.47256H13.3924ZM12.2112 7.56006V7.57506H12.1962V7.56006H12.2112ZM12.2112 6.47631H12.1962V6.46131H12.2112V6.47631ZM12.2553 6.53076L12.2418 6.5373L12.2553 6.53076ZM12.3874 6.51381L12.3744 6.52125L12.3742 6.52092L12.3874 6.51381ZM12.3724 6.27756L12.3583 6.27243L12.3725 6.23347L12.3865 6.27248L12.3724 6.27756ZM12.4737 6.34506L12.4592 6.34892L12.4592 6.34882L12.4737 6.34506ZM12.4391 6.26699L12.4522 6.25957L12.4391 6.26699ZM12.4287 6.07131L12.4147 6.06586L12.4353 6.01312L12.4435 6.06913L12.4287 6.07131ZM12.5112 6.12006L12.5257 6.11627L12.5257 6.11642L12.5112 6.12006ZM12.4921 6.06395L12.5061 6.05852V6.05852L12.4921 6.06395ZM12.4999 5.87631L12.4865 5.8696L12.5048 5.83297L12.5145 5.87276L12.4999 5.87631ZM12.5749 5.91306L12.5899 5.91305V5.91305L12.5749 5.91306ZM12.7324 5.61006L12.7474 5.61155L12.7464 5.62152L12.7368 5.62442L12.7324 5.61006ZM12.8712 5.61006L12.8667 5.62439L12.8572 5.62145L12.8563 5.61155L12.8712 5.61006ZM13.1037 5.87631L13.0891 5.87276L13.0988 5.83297L13.1171 5.8696L13.1037 5.87631ZM13.1115 6.06395L13.0976 6.05852L13.1115 6.06395ZM13.0924 6.12006L13.0779 6.11642L13.0779 6.11627L13.0924 6.12006ZM13.1749 6.07131L13.1601 6.06913L13.1683 6.01312L13.1889 6.06586L13.1749 6.07131ZM13.1645 6.26699L13.1514 6.25957L13.1645 6.26699ZM13.1299 6.34506L13.1445 6.34882L13.1444 6.34892L13.1299 6.34506ZM13.2312 6.27756L13.2171 6.27248L13.2311 6.23347L13.2453 6.27243L13.2312 6.27756ZM13.2162 6.51381L13.2294 6.52094L13.2288 6.52192L13.2162 6.51381ZM13.3483 6.52831L13.3347 6.5219L13.3483 6.52831ZM13.6512 6.73881L13.6588 6.72587L13.6662 6.73021V6.73881H13.6512ZM13.6512 7.56756H13.6662V7.58256H13.6512V7.56756ZM13.5512 6.73881H13.5362V6.72971L13.5443 6.7255L13.5512 6.73881ZM13.5512 7.56756V7.58256H13.5362V7.56756H13.5512ZM13.3774 7.56006V6.47256H13.4074V7.56006H13.3774ZM12.2112 7.54506H13.3924V7.57506H12.2112V7.54506ZM12.2262 6.47631V7.56006H12.1962V6.47631H12.2262ZM12.2418 6.5373C12.2344 6.522 12.2284 6.50968 12.2223 6.50104C12.2159 6.49202 12.2124 6.49131 12.2112 6.49131V6.46131C12.2278 6.46131 12.2391 6.47293 12.2468 6.48368C12.2547 6.49482 12.2618 6.50972 12.2688 6.52423L12.2418 6.5373ZM12.3687 6.64881C12.3316 6.64881 12.3049 6.6317 12.2852 6.60926C12.266 6.58739 12.2527 6.5597 12.2418 6.5373L12.2688 6.52423C12.28 6.54735 12.2917 6.57118 12.3077 6.58945C12.3233 6.60715 12.3423 6.61881 12.3687 6.61881V6.64881ZM12.4005 6.50637C12.4163 6.53401 12.427 6.56697 12.4254 6.59439C12.4245 6.60829 12.4204 6.6222 12.4105 6.63273C12.4003 6.64354 12.3859 6.64881 12.3687 6.64881V6.61881C12.3796 6.61881 12.3854 6.61563 12.3886 6.61215C12.3922 6.60839 12.3949 6.60214 12.3954 6.5926C12.3966 6.57315 12.3886 6.5461 12.3744 6.52125L12.4005 6.50637ZM12.3865 6.28268C12.3648 6.34255 12.3624 6.38682 12.368 6.4214C12.3737 6.45618 12.3875 6.48235 12.4006 6.5067L12.3742 6.52092C12.3611 6.49652 12.3449 6.46644 12.3384 6.42621C12.3318 6.3858 12.3351 6.33632 12.3583 6.27243L12.3865 6.28268ZM12.4882 6.34119C12.4923 6.35664 12.4921 6.37519 12.4766 6.38434C12.4696 6.38843 12.4619 6.38895 12.4551 6.38799C12.4482 6.38703 12.4411 6.38442 12.4343 6.38081C12.4074 6.36655 12.3762 6.33232 12.3583 6.28264L12.3865 6.27248C12.4024 6.31655 12.4293 6.34419 12.4484 6.35431C12.4531 6.35679 12.4567 6.35793 12.4592 6.35829C12.4618 6.35865 12.4621 6.35806 12.4613 6.35851C12.4581 6.36039 12.4626 6.3616 12.4592 6.34892L12.4882 6.34119ZM12.4522 6.25957C12.4649 6.2819 12.4794 6.30719 12.4882 6.34129L12.4592 6.34882C12.4514 6.31899 12.4389 6.2968 12.4261 6.27441L12.4522 6.25957ZM12.4427 6.07676C12.4227 6.12786 12.4192 6.16195 12.423 6.18828C12.4268 6.2148 12.4382 6.2351 12.4522 6.25957L12.4261 6.27441C12.4124 6.2504 12.3981 6.22547 12.3933 6.19257C12.3885 6.15948 12.3936 6.11997 12.4147 6.06586L12.4427 6.07676ZM12.5257 6.11642C12.5309 6.13723 12.5299 6.15613 12.5217 6.16978C12.5174 6.17677 12.5113 6.18225 12.5037 6.1852C12.496 6.18815 12.4879 6.18822 12.48 6.18609C12.4647 6.18192 12.4506 6.16937 12.4393 6.15111C12.428 6.13258 12.4187 6.10685 12.4138 6.07349L12.4435 6.06913C12.448 6.09952 12.4561 6.12114 12.4649 6.13541C12.4738 6.14996 12.4826 6.1557 12.4879 6.15715C12.4904 6.15783 12.492 6.15755 12.4929 6.15722C12.4937 6.15689 12.4949 6.15616 12.496 6.15424C12.4985 6.15008 12.5008 6.14038 12.4966 6.1237L12.5257 6.11642ZM12.5061 6.05852C12.5127 6.07555 12.52 6.09437 12.5257 6.11627L12.4967 6.12384C12.4915 6.10384 12.4847 6.08651 12.4781 6.06938L12.5061 6.05852ZM12.5134 5.88302C12.4914 5.92689 12.4852 5.95796 12.4862 5.98365C12.4872 6.00968 12.4956 6.03162 12.5061 6.05852L12.4781 6.06938C12.4679 6.04305 12.4575 6.0166 12.4562 5.98482C12.455 5.95271 12.463 5.91658 12.4865 5.8696L12.5134 5.88302ZM12.5899 5.92131C12.5899 5.94367 12.5873 5.96258 12.5818 5.97589C12.5791 5.9825 12.5751 5.98915 12.569 5.99365C12.5621 5.99867 12.5538 6.00013 12.5455 5.99746C12.5381 5.99507 12.532 5.98981 12.527 5.98393C12.5219 5.97789 12.5171 5.97004 12.5124 5.96064C12.5032 5.94182 12.4939 5.91512 12.4854 5.87985L12.5145 5.87276C12.5228 5.90687 12.5314 5.93126 12.5393 5.94737C12.5433 5.95543 12.5469 5.961 12.55 5.96459C12.5531 5.96836 12.5548 5.96895 12.5547 5.96891C12.5537 5.96858 12.552 5.96887 12.5512 5.96947C12.5511 5.96954 12.5524 5.96852 12.5541 5.96446C12.5574 5.95644 12.5599 5.94208 12.5599 5.92131H12.5899ZM12.5899 5.91305C12.5899 5.9158 12.5899 5.91856 12.5899 5.92131H12.5599C12.5599 5.91857 12.5599 5.91582 12.5599 5.91307L12.5899 5.91305ZM12.7368 5.62442C12.6625 5.64686 12.6267 5.68873 12.6086 5.73892C12.59 5.79058 12.5899 5.85161 12.5899 5.91305L12.5599 5.91307C12.5599 5.85289 12.5597 5.78627 12.5804 5.72874C12.6017 5.66975 12.6447 5.62092 12.7281 5.5957L12.7368 5.62442ZM12.7999 5.51256C12.7916 5.51256 12.7842 5.51654 12.7771 5.52485C12.7698 5.5334 12.7639 5.5455 12.7592 5.55876C12.7547 5.57185 12.7517 5.5851 12.7498 5.59519C12.7489 5.6002 12.7483 5.60436 12.7479 5.60724C12.7477 5.60868 12.7476 5.6098 12.7475 5.61053C12.7474 5.6109 12.7474 5.61118 12.7474 5.61135C12.7474 5.61143 12.7474 5.61149 12.7474 5.61153C12.7474 5.61155 12.7474 5.61156 12.7474 5.61156C12.7474 5.61156 12.7474 5.61156 12.7474 5.61156C12.7474 5.61156 12.7474 5.61156 12.7474 5.61156C12.7474 5.61155 12.7474 5.61155 12.7324 5.61006C12.7175 5.60857 12.7175 5.60856 12.7175 5.60856C12.7175 5.60856 12.7175 5.60855 12.7175 5.60855C12.7175 5.60854 12.7175 5.60853 12.7175 5.60852C12.7175 5.60849 12.7175 5.60846 12.7175 5.60843C12.7175 5.60835 12.7175 5.60825 12.7176 5.60812C12.7176 5.60787 12.7176 5.60751 12.7177 5.60706C12.7178 5.60615 12.7179 5.60484 12.7182 5.60321C12.7186 5.59994 12.7193 5.59531 12.7203 5.58978C12.7223 5.57877 12.7257 5.56389 12.7309 5.54885C12.7361 5.53399 12.7436 5.51797 12.7542 5.50542C12.7651 5.49264 12.7802 5.48256 12.7999 5.48256V5.51256ZM12.8712 5.61006C12.8563 5.61155 12.8563 5.61155 12.8563 5.61156C12.8563 5.61156 12.8563 5.61156 12.8563 5.61156C12.8563 5.61156 12.8563 5.61156 12.8563 5.61156C12.8563 5.61156 12.8563 5.61155 12.8563 5.61153C12.8563 5.6115 12.8562 5.61144 12.8562 5.61136C12.8562 5.61119 12.8562 5.61092 12.8561 5.61055C12.8561 5.60982 12.8559 5.60871 12.8557 5.60728C12.8553 5.60441 12.8547 5.60026 12.8537 5.59526C12.8519 5.58521 12.8488 5.57201 12.844 5.55897C12.8391 5.54578 12.8329 5.53371 12.8252 5.52517C12.8178 5.5169 12.8096 5.51256 12.7999 5.51256V5.48256C12.8202 5.48256 12.836 5.49228 12.8475 5.5051C12.8588 5.51766 12.8667 5.53371 12.8721 5.54864C12.8777 5.56373 12.8811 5.57866 12.8832 5.5897C12.8843 5.59525 12.885 5.59989 12.8854 5.60317C12.8857 5.60482 12.8858 5.60612 12.8859 5.60704C12.886 5.6075 12.886 5.60786 12.8861 5.60812C12.8861 5.60824 12.8861 5.60835 12.8861 5.60842C12.8861 5.60846 12.8861 5.60849 12.8861 5.60851C12.8861 5.60853 12.8861 5.60854 12.8861 5.60855C12.8861 5.60855 12.8861 5.60855 12.8861 5.60856C12.8861 5.60856 12.8861 5.60857 12.8712 5.61006ZM13.0137 5.92131C13.0137 5.85692 13.0135 5.79404 12.9949 5.74114C12.9767 5.68973 12.9409 5.64733 12.8667 5.62439L12.8756 5.59573C12.959 5.62154 13.0019 5.67101 13.0231 5.73116C13.0438 5.78982 13.0437 5.8582 13.0437 5.92131H13.0137ZM13.1183 5.87985C13.1097 5.91512 13.1005 5.94182 13.0912 5.96064C13.0865 5.97004 13.0817 5.97789 13.0766 5.98393C13.0716 5.98981 13.0655 5.99507 13.0581 5.99746C13.0499 6.00013 13.0415 5.99867 13.0346 5.99365C13.0285 5.98915 13.0245 5.9825 13.0218 5.97589C13.0163 5.96258 13.0137 5.94367 13.0137 5.92131H13.0437C13.0437 5.94208 13.0462 5.95644 13.0495 5.96446C13.0512 5.96852 13.0525 5.96954 13.0524 5.96947C13.0516 5.96887 13.0499 5.96858 13.0489 5.96891C13.0488 5.96895 13.0505 5.96836 13.0537 5.96459C13.0567 5.961 13.0603 5.95543 13.0643 5.94737C13.0722 5.93126 13.0808 5.90687 13.0891 5.87276L13.1183 5.87985ZM13.0976 6.05852C13.108 6.03162 13.1164 6.00968 13.1174 5.98365C13.1184 5.95796 13.1122 5.92689 13.0903 5.88302L13.1171 5.8696C13.1406 5.91658 13.1486 5.95271 13.1474 5.98482C13.1461 6.0166 13.1357 6.04305 13.1255 6.06938L13.0976 6.05852ZM13.0779 6.11627C13.0836 6.09437 13.091 6.07555 13.0976 6.05852L13.1255 6.06938C13.1189 6.08651 13.1122 6.10384 13.1069 6.12384L13.0779 6.11627ZM13.1898 6.07349C13.1849 6.10685 13.1757 6.13258 13.1643 6.15111C13.1531 6.16937 13.1389 6.18192 13.1236 6.18609C13.1158 6.18822 13.1076 6.18815 13.0999 6.1852C13.0923 6.18225 13.0862 6.17677 13.0819 6.16978C13.0737 6.15613 13.0727 6.13723 13.0779 6.11642L13.107 6.1237C13.1028 6.14038 13.1051 6.15008 13.1076 6.15424C13.1088 6.15616 13.1099 6.15689 13.1108 6.15722C13.1116 6.15755 13.1132 6.15783 13.1157 6.15715C13.121 6.1557 13.1298 6.14996 13.1387 6.13541C13.1475 6.12114 13.1556 6.09952 13.1601 6.06913L13.1898 6.07349ZM13.1514 6.25957C13.1654 6.2351 13.1768 6.2148 13.1806 6.18828C13.1844 6.16195 13.1809 6.12786 13.161 6.07676L13.1889 6.06586C13.21 6.11997 13.2151 6.15948 13.2103 6.19257C13.2055 6.22547 13.1912 6.2504 13.1775 6.27441L13.1514 6.25957ZM13.1154 6.34129C13.1243 6.30719 13.1387 6.2819 13.1514 6.25957L13.1775 6.27441C13.1648 6.2968 13.1522 6.31899 13.1445 6.34882L13.1154 6.34129ZM13.2453 6.28264C13.2274 6.33232 13.1962 6.36655 13.1693 6.38081C13.1625 6.38442 13.1555 6.38703 13.1486 6.38799C13.1417 6.38895 13.134 6.38843 13.1271 6.38434C13.1116 6.37519 13.1113 6.35664 13.1154 6.34119L13.1444 6.34892C13.141 6.3616 13.1455 6.36039 13.1423 6.35851C13.1415 6.35806 13.1418 6.35865 13.1444 6.35829C13.1469 6.35793 13.1506 6.35679 13.1552 6.35431C13.1743 6.34419 13.2012 6.31655 13.2171 6.27248L13.2453 6.28264ZM13.203 6.5067C13.2161 6.48235 13.2299 6.45618 13.2356 6.4214C13.2412 6.38682 13.2389 6.34255 13.2171 6.28268L13.2453 6.27243C13.2685 6.33632 13.2718 6.3858 13.2652 6.42621C13.2587 6.46644 13.2425 6.49652 13.2294 6.52092L13.203 6.5067ZM13.2349 6.64881C13.2177 6.64881 13.2033 6.64355 13.1928 6.63296C13.1826 6.62258 13.178 6.60876 13.1769 6.59469C13.1746 6.56696 13.1856 6.5337 13.2036 6.5057L13.2288 6.52192C13.2131 6.54642 13.2052 6.57316 13.2068 6.5923C13.2075 6.60167 13.2104 6.60801 13.2142 6.61192C13.2179 6.61563 13.224 6.61881 13.2349 6.61881V6.64881ZM13.3618 6.53472C13.351 6.55765 13.3377 6.58596 13.3185 6.60831C13.2988 6.63123 13.2721 6.64881 13.2349 6.64881V6.61881C13.2612 6.61881 13.2801 6.60694 13.2958 6.58876C13.3119 6.57002 13.3235 6.54557 13.3347 6.5219L13.3618 6.53472ZM13.3924 6.48756C13.3914 6.48756 13.3879 6.48819 13.3814 6.49753C13.3753 6.50642 13.3692 6.51907 13.3618 6.53472L13.3347 6.5219C13.3417 6.50704 13.3489 6.49181 13.3568 6.48045C13.3643 6.46954 13.3757 6.45756 13.3924 6.45756V6.48756ZM13.6662 6.73881V7.56756H13.6362V6.73881H13.6662ZM13.5443 6.7255C13.5639 6.71529 13.5832 6.70975 13.6027 6.70975C13.6222 6.70975 13.6408 6.71534 13.6588 6.72587L13.6436 6.75175C13.6296 6.74353 13.6162 6.73975 13.6027 6.73975C13.5891 6.73975 13.5745 6.74358 13.5581 6.75211L13.5443 6.7255ZM13.5362 7.56756V6.73881H13.5662V7.56756H13.5362ZM13.6512 7.58256H13.5512V7.55256H13.6512V7.58256Z" fill="black"/>
<path fill-rule="evenodd" clip-rule="evenodd" d="M12.6537 5.95505L12.7212 6.0113H12.89L12.9575 5.9513V5.8763C12.9312 5.8838 12.92 5.88755 12.9012 5.9138C12.8847 5.86587 12.8496 5.82663 12.8037 5.80505C12.7585 5.8283 12.7247 5.8689 12.71 5.91755C12.6912 5.8913 12.6762 5.88005 12.6537 5.88005V5.95505ZM12.2112 7.5638C12.1812 7.3988 12.065 7.3313 11.9487 7.27505V7.5638H12.2112Z" fill="white"/>
<path d="M12.7212 6.0113V6.03083L12.7116 6.02283L12.7212 6.0113ZM12.6537 5.95505L12.6387 5.97305V5.95505H12.6537ZM12.89 6.0113L12.9033 6.0263H12.89V6.0113ZM12.9575 5.9513H12.98L12.9674 5.96251L12.9575 5.9513ZM12.9575 5.8763L12.9533 5.86188L12.9725 5.85642V5.8763H12.9575ZM12.9012 5.9138L12.9134 5.92252L12.8965 5.94623L12.887 5.91868L12.9012 5.9138ZM12.8037 5.80505L12.7925 5.78319L12.8101 5.79148L12.8037 5.80505ZM12.71 5.91755L12.7243 5.92189L12.7155 5.9511L12.6978 5.92627L12.71 5.91755ZM12.6537 5.88005H12.6387V5.86505H12.6537V5.88005ZM11.9487 7.27505H11.9337V7.25113L11.9552 7.26155L11.9487 7.27505ZM12.2112 7.5638L12.226 7.56112L12.2292 7.5788H12.2112V7.5638ZM11.9487 7.5638V7.5788H11.9337V7.5638H11.9487ZM12.7116 6.02283L12.6441 5.96658L12.6633 5.94353L12.7308 5.99978L12.7116 6.02283ZM12.89 6.0263H12.7212V5.9963H12.89V6.0263ZM12.9674 5.96251L12.8999 6.02251L12.88 6.00009L12.9475 5.94009L12.9674 5.96251ZM12.9725 5.8763V5.9513H12.9425V5.8763H12.9725ZM12.889 5.90509C12.899 5.89111 12.9079 5.88184 12.9187 5.87522C12.9292 5.86883 12.9405 5.86554 12.9533 5.86188L12.9616 5.89073C12.9481 5.89457 12.9408 5.8969 12.9343 5.90082C12.9283 5.90452 12.9222 5.91025 12.9134 5.92252L12.889 5.90509ZM12.8101 5.79148C12.8596 5.81479 12.8976 5.85716 12.9154 5.90893L12.887 5.91868C12.8719 5.87457 12.8395 5.83848 12.7973 5.81863L12.8101 5.79148ZM12.6956 5.91321C12.7115 5.86066 12.748 5.81681 12.7969 5.79171L12.8106 5.81839C12.769 5.83978 12.7378 5.87713 12.7243 5.92189L12.6956 5.91321ZM12.6537 5.86505C12.6678 5.86505 12.6802 5.86869 12.6917 5.87658C12.7028 5.88415 12.7124 5.89519 12.7222 5.90884L12.6978 5.92627C12.6887 5.91367 12.6815 5.90596 12.6748 5.90134C12.6685 5.89704 12.6621 5.89505 12.6537 5.89505V5.86505ZM12.6387 5.95505V5.88005H12.6687V5.95505H12.6387ZM11.9552 7.26155C12.0719 7.31801 12.1946 7.38836 12.226 7.56112L12.1965 7.56649C12.1679 7.40925 12.058 7.3446 11.9422 7.28856L11.9552 7.26155ZM11.9337 7.5638V7.27505H11.9637V7.5638H11.9337ZM12.2112 7.5788H11.9487V7.5488H12.2112V7.5788Z" fill="black"/>
<path d="M12.6837 6.19508L12.6537 6.12383V6.03008C12.6762 6.03008 12.6912 6.04133 12.71 6.06758C12.7247 6.01892 12.7585 5.97832 12.8037 5.95508C12.8496 5.97666 12.8847 6.01589 12.9012 6.06383C12.92 6.03758 12.9312 6.03383 12.9575 6.03008V6.12383L12.9275 6.19508H12.6837Z" fill="white" stroke="black" stroke-width="0.03"/>
<path d="M12.6762 6.44258L12.5787 6.31883V6.19883C12.6162 6.19883 12.635 6.21758 12.6612 6.25883C12.6875 6.17258 12.7362 6.15758 12.8037 6.11633C12.875 6.15383 12.9237 6.17258 12.9462 6.25508C12.9762 6.21383 12.995 6.20258 13.0325 6.19883V6.31883L12.9312 6.44258H12.6762Z" fill="white" stroke="black" stroke-width="0.03"/>
<path d="M12.65 6.68625C12.65 6.68625 12.53 6.585 12.5262 6.52875V6.3975C12.5712 6.40125 12.6125 6.4125 12.6462 6.46875C12.6762 6.36 12.7212 6.33 12.8037 6.28125C12.89 6.33 12.935 6.36 12.9612 6.46875C12.9987 6.4125 13.0362 6.40125 13.085 6.39375V6.52875C13.0535 6.58823 13.0116 6.64158 12.9612 6.68625H12.65Z" fill="white" stroke="black" stroke-width="0.03"/>
<path d="M12.6012 7.13636C12.6012 7.13636 12.4362 6.96011 12.4324 6.88886V6.68636C12.4924 6.69386 12.5524 6.73511 12.5974 6.82136C12.6349 6.65261 12.6949 6.53636 12.8037 6.45386C12.9162 6.53636 12.9762 6.65261 13.0137 6.82136C13.0587 6.73511 13.1149 6.69386 13.1749 6.68636V6.88886C13.1637 6.96011 13.0099 7.13636 13.0099 7.13636H12.6012Z" fill="white" stroke="black" stroke-width="0.03"/>
<path d="M12.6012 7.4026C12.6012 7.4026 12.4624 7.26385 12.4324 7.20385V7.00135C12.4924 7.00885 12.5524 7.0501 12.5974 7.1326C12.6177 6.99479 12.6919 6.87068 12.8037 6.7876C12.9162 6.8701 12.9762 6.96385 13.0137 7.1326C13.0587 7.0501 13.1149 7.00885 13.1749 7.00135V7.20385C13.1374 7.26385 13.0099 7.4026 13.0099 7.4026H12.6012Z" fill="white" stroke="black" stroke-width="0.03"/>
<path d="M12.5449 7.56009C12.5824 7.38384 12.6199 7.25259 12.8112 7.12134C13.0062 7.25259 13.0399 7.38384 13.0812 7.56009H12.5449Z" fill="white" stroke="black" stroke-width="0.03"/>
<path fill-rule="evenodd" clip-rule="evenodd" d="M14.1125 9.03003H5.88497V9.33378H14.1125V9.03003ZM5.40122 9.73503H14.6V10.2038L14.8437 10.2038V10.6725H5.15747V10.2038L5.40122 10.2038V9.73503Z" fill="white"/>
<path d="M5.88497 9.03003V9.01503H5.86997V9.03003H5.88497ZM14.1125 9.03003H14.1275V9.01503H14.1125V9.03003ZM5.88497 9.33378H5.86997V9.34878H5.88497V9.33378ZM14.1125 9.33378V9.34878H14.1275V9.33378H14.1125ZM14.6 9.73503H14.615V9.72003H14.6V9.73503ZM5.40122 9.73503V9.72003H5.38622V9.73503H5.40122ZM14.6 10.2038H14.585V10.2188H14.6V10.2038ZM14.8437 10.2038H14.8587V10.1888H14.8437V10.2038ZM14.8437 10.6725V10.6875H14.8587V10.6725H14.8437ZM5.15747 10.6725H5.14247V10.6875H5.15747V10.6725ZM5.15747 10.2038L5.15747 10.1888H5.14247V10.2038H5.15747ZM5.40122 10.2038V10.2188H5.41622V10.2038H5.40122ZM5.88497 9.04503H14.1125V9.01503H5.88497V9.04503ZM5.89997 9.33378V9.03003H5.86997V9.33378H5.89997ZM14.1125 9.31878H5.88497V9.34878H14.1125V9.31878ZM14.0975 9.03003V9.33378H14.1275V9.03003H14.0975ZM14.6 9.72003H5.40122V9.75003H14.6V9.72003ZM14.615 10.2038V9.73503H14.585V10.2038H14.615ZM14.8437 10.1888L14.6 10.1888V10.2188L14.8437 10.2188V10.1888ZM14.8587 10.6725V10.2038H14.8287V10.6725H14.8587ZM5.15747 10.6875H14.8437V10.6575H5.15747V10.6875ZM5.14247 10.2038V10.6725H5.17247V10.2038H5.14247ZM5.40122 10.1888L5.15747 10.1888L5.15747 10.2188L5.40122 10.2188V10.1888ZM5.38622 9.73503V10.2038H5.41622V9.73503H5.38622Z" fill="black"/>
<path fill-rule="evenodd" clip-rule="evenodd" d="M13.9775 8.77002H6.02746V9.01902H13.9775V8.77002ZM14.36 9.34432H5.64496V9.77002H14.36V9.34432Z" fill="white"/>
<path d="M6.02746 8.77002V8.75502H6.01246V8.77002H6.02746ZM13.9775 8.77002H13.9925V8.75502H13.9775V8.77002ZM6.02746 9.01902H6.01246V9.03402H6.02746V9.01902ZM13.9775 9.01902V9.03402H13.9925V9.01902H13.9775ZM5.64496 9.34432V9.32932H5.62996V9.34432H5.64496ZM14.36 9.34432H14.375V9.32932H14.36V9.34432ZM5.64496 9.77002H5.62996V9.78502H5.64496V9.77002ZM14.36 9.77002V9.78502H14.375V9.77002H14.36ZM6.02746 8.78502H13.9775V8.75502H6.02746V8.78502ZM6.04246 9.01902V8.77002H6.01246V9.01902H6.04246ZM13.9775 9.00402H6.02746V9.03402H13.9775V9.00402ZM13.9625 8.77002V9.01902H13.9925V8.77002H13.9625ZM5.64496 9.35932H14.36V9.32932H5.64496V9.35932ZM5.65996 9.77002V9.34432H5.62996V9.77002H5.65996ZM14.36 9.75502H5.64496V9.78502H14.36V9.75502ZM14.345 9.34432V9.77002H14.375V9.34432H14.345Z" fill="black"/>
<path d="M6.88995 8.78625H7.48995V10.6613H6.88995V8.78625Z" fill="white" stroke="black" stroke-width="0.03"/>
<path fill-rule="evenodd" clip-rule="evenodd" d="M7.35874 8.78625H7.02499L7.02124 10.6613H7.35874V8.78625ZM10.2875 8.78625H9.68749V10.6613H10.2875V8.78625Z" fill="white"/>
<path d="M7.02499 8.78625V8.77125H7.01002L7.00999 8.78622L7.02499 8.78625ZM7.35874 8.78625H7.37374V8.77125H7.35874V8.78625ZM7.02124 10.6613L7.00624 10.6612L7.00621 10.6763H7.02124V10.6613ZM7.35874 10.6613V10.6763H7.37374V10.6613H7.35874ZM9.68749 8.78625V8.77125H9.67249V8.78625H9.68749ZM10.2875 8.78625H10.3025V8.77125H10.2875V8.78625ZM9.68749 10.6613H9.67249V10.6763H9.68749V10.6613ZM10.2875 10.6613V10.6763H10.3025V10.6613H10.2875ZM7.02499 8.80125H7.35874V8.77125H7.02499V8.80125ZM7.03624 10.6613L7.03999 8.78628L7.00999 8.78622L7.00624 10.6612L7.03624 10.6613ZM7.35874 10.6463H7.02124V10.6763H7.35874V10.6463ZM7.34374 8.78625V10.6613H7.37374V8.78625H7.34374ZM9.68749 8.80125H10.2875V8.77125H9.68749V8.80125ZM9.70249 10.6613V8.78625H9.67249V10.6613H9.70249ZM10.2875 10.6463H9.68749V10.6763H10.2875V10.6463ZM10.2725 8.78625V10.6613H10.3025V8.78625H10.2725Z" fill="black"/>
<path fill-rule="evenodd" clip-rule="evenodd" d="M10.1637 8.78625H9.82623V10.6613H10.1637V8.78625ZM13.1075 8.78625H12.5075V10.6613H13.1075V8.78625Z" fill="white"/>
<path d="M9.82623 8.78625V8.77125H9.81123V8.78625H9.82623ZM10.1637 8.78625H10.1787V8.77125H10.1637V8.78625ZM9.82623 10.6613H9.81123V10.6763H9.82623V10.6613ZM10.1637 10.6613V10.6763H10.1787V10.6613H10.1637ZM12.5075 8.78625V8.77125H12.4925V8.78625H12.5075ZM13.1075 8.78625H13.1225V8.77125H13.1075V8.78625ZM12.5075 10.6613H12.4925V10.6763H12.5075V10.6613ZM13.1075 10.6613V10.6763H13.1225V10.6613H13.1075ZM9.82623 8.80125H10.1637V8.77125H9.82623V8.80125ZM9.84123 10.6613V8.78625H9.81123V10.6613H9.84123ZM10.1637 10.6463H9.82623V10.6763H10.1637V10.6463ZM10.1487 8.78625V10.6613H10.1787V8.78625H10.1487ZM12.5075 8.80125H13.1075V8.77125H12.5075V8.80125ZM12.5225 10.6613V8.78625H12.4925V10.6613H12.5225ZM13.1075 10.6463H12.5075V10.6763H13.1075V10.6463ZM13.0925 8.78625V10.6613H13.1225V8.78625H13.0925Z" fill="black"/>
<path d="M12.6387 8.78625H12.9762V10.6613H12.6387V8.78625Z" fill="white" stroke="black" stroke-width="0.03"/>
</svg>
