<svg width="32" height="24" viewBox="0 0 32 24" fill="none" xmlns="http://www.w3.org/2000/svg">
<mask id="mask0" mask-type="alpha" maskUnits="userSpaceOnUse" x="0" y="0" width="32" height="24">
<rect width="32" height="24" fill="white"/>
</mask>
<g mask="url(#mask0)">
<path fill-rule="evenodd" clip-rule="evenodd" d="M0 0V24H32V0H0Z" fill="#F7FCFF"/>
<mask id="mask1" mask-type="alpha" maskUnits="userSpaceOnUse" x="0" y="0" width="32" height="24">
<path fill-rule="evenodd" clip-rule="evenodd" d="M0 0V24H32V0H0Z" fill="white"/>
</mask>
<g mask="url(#mask1)">
<rect y="2" width="32" height="3" fill="#2E42A5"/>
<rect y="8" width="32" height="3" fill="#2E42A5"/>
<rect y="14" width="32" height="3" fill="#2E42A5"/>
<rect y="19" width="32" height="3" fill="#2E42A5"/>
<rect width="14" height="14" fill="#F7FCFF"/>
<path fill-rule="evenodd" clip-rule="evenodd" d="M4.78251 2.58209C4.70922 2.57717 4.64524 2.63207 4.6396 2.70471C4.61218 3.05786 4.92303 3.3789 5.09512 3.55663L5.11209 3.57418C5.13927 3.60232 5.16711 3.63012 5.20199 3.66417C5.20197 3.66416 5.28337 3.74318 5.30565 3.7652C5.4551 3.913 5.4875 4.05143 5.52386 4.20687L5.53287 4.24509C5.5486 4.31096 5.56477 4.39058 5.58253 4.478L5.58254 4.47801C5.66125 4.86548 5.77112 5.40629 6.01112 5.58259C6.0699 5.62577 6.48171 5.36926 6.52584 5.31064C6.54141 5.28996 6.58744 5.25574 6.63792 5.21821L6.63793 5.2182C6.73055 5.14934 6.83816 5.06933 6.80012 5.04138C6.54881 4.85678 6.3579 4.40939 6.10986 3.7652C5.97743 3.4619 5.63065 3.2691 5.34288 3.10911C5.09708 2.97245 4.89434 2.85973 4.90499 2.72252C4.91063 2.64989 4.85579 2.58701 4.78251 2.58209ZM8.8298 2.68152C8.79402 2.61738 8.71313 2.59362 8.64913 2.62845C8.33803 2.79779 8.23808 3.23334 8.18275 3.47447L8.17728 3.49826C8.16848 3.53638 8.16033 3.57487 8.15076 3.62267C8.15077 3.62265 8.12883 3.73395 8.12249 3.76463C8.07993 3.97047 7.98148 4.07303 7.87093 4.18819L7.84377 4.21656C7.7971 4.26563 7.73913 4.32256 7.67548 4.38507C7.3934 4.66212 6.99967 5.04882 6.98253 5.34611C6.97833 5.41892 7.41774 5.62459 7.49094 5.62968C7.51676 5.63147 7.57054 5.65144 7.62951 5.67333C7.73771 5.71351 7.86342 5.76019 7.86614 5.71306C7.88409 5.40175 8.15533 4.99797 8.56049 4.4391C8.74274 4.16284 8.71556 3.767 8.69301 3.43852C8.67375 3.15795 8.65787 2.92652 8.77874 2.86073C8.84273 2.8259 8.86559 2.74566 8.8298 2.68152ZM11.4161 5.03042C11.4866 5.04859 11.5296 5.12113 11.512 5.19245C11.4945 5.26377 11.423 5.30686 11.3525 5.28869C11.2192 5.25437 11.073 5.43446 10.8957 5.6528C10.6882 5.90841 10.4381 6.21644 10.1164 6.29419C9.43892 6.4266 8.96518 6.53692 8.73974 6.75236C8.70561 6.78497 8.64551 6.6651 8.59377 6.56193L8.59377 6.56192L8.59377 6.56192C8.56557 6.50569 8.53986 6.45441 8.5222 6.43549C8.47213 6.38185 8.29103 5.93176 8.34376 5.88137C8.55905 5.67563 9.11073 5.66134 9.50599 5.6511L9.506 5.6511C9.59518 5.64879 9.6764 5.64669 9.74399 5.64264L9.7832 5.64041C9.94258 5.63158 10.0845 5.62372 10.256 5.5022C10.2812 5.48439 10.3705 5.41982 10.3735 5.41771L10.3735 5.41766C10.4131 5.38923 10.4453 5.36663 10.4778 5.34475L10.498 5.33109C10.7029 5.19247 11.0731 4.94209 11.4161 5.03042ZM2.3228 5.47369C2.2675 5.52203 2.26108 5.60609 2.30846 5.66144C2.53878 5.93054 2.98559 5.93775 3.23296 5.94174C3.24133 5.94187 3.24947 5.942 3.25736 5.94214C3.29648 5.94282 3.33583 5.94279 3.38457 5.94221C3.38454 5.94221 3.49798 5.94053 3.5293 5.94035C3.7395 5.93918 3.86029 6.01416 3.99591 6.09835C4.00693 6.10519 4.01804 6.11209 4.02931 6.11902C4.087 6.15447 4.15474 6.19933 4.22912 6.24859C4.55877 6.46691 5.01887 6.77164 5.31324 6.72659C5.38533 6.71556 5.49515 6.243 5.4849 6.17034C5.48129 6.14471 5.48964 6.08796 5.49879 6.02572C5.51559 5.91153 5.53511 5.77886 5.48845 5.786C5.18021 5.83317 4.72886 5.65181 4.09797 5.37169C3.78986 5.25087 3.40832 5.35975 3.0917 5.4501C2.82127 5.52727 2.5982 5.59093 2.50871 5.48638C2.46134 5.43102 2.3781 5.42534 2.3228 5.47369Z" fill="#FFC125"/>
<path d="M4.6396 2.70471L4.56482 2.69891V2.69891L4.6396 2.70471ZM4.78251 2.58209L4.77748 2.65693L4.78251 2.58209ZM5.09512 3.55663L5.14903 3.50449L5.149 3.50446L5.09512 3.55663ZM5.11209 3.57418L5.16604 3.52207L5.166 3.52203L5.11209 3.57418ZM5.20199 3.66417L5.14959 3.71783L5.25468 3.6108L5.20199 3.66417ZM5.30565 3.7652L5.25291 3.81853L5.25291 3.81853L5.30565 3.7652ZM5.52386 4.20687L5.45084 4.22395L5.45086 4.22407L5.52386 4.20687ZM5.53287 4.24509L5.45987 4.26229L5.45992 4.26251L5.53287 4.24509ZM5.58253 4.478L5.5089 4.49296L5.51007 4.49733L5.58253 4.478ZM5.58254 4.47801L5.65617 4.46305L5.655 4.45868L5.58254 4.47801ZM6.01112 5.58259L5.96672 5.64303H5.96672L6.01112 5.58259ZM6.52584 5.31064L6.58576 5.35575V5.35575L6.52584 5.31064ZM6.63792 5.21821L6.59626 5.15572L6.59317 5.15802L6.63792 5.21821ZM6.63793 5.2182L6.67958 5.28069L6.68267 5.27839L6.63793 5.2182ZM6.80012 5.04138L6.75572 5.10183L6.80012 5.04138ZM6.10986 3.7652L6.17992 3.73823L6.17859 3.73519L6.10986 3.7652ZM5.34288 3.10911L5.30644 3.17466L5.34288 3.10911ZM4.90499 2.72252L4.83021 2.71672V2.71672L4.90499 2.72252ZM8.64913 2.62845L8.61328 2.56258V2.56258L8.64913 2.62845ZM8.8298 2.68152L8.8953 2.64498V2.64498L8.8298 2.68152ZM8.18275 3.47447L8.25584 3.49128L8.25585 3.49125L8.18275 3.47447ZM8.17728 3.49826L8.25036 3.51513L8.25037 3.51507L8.17728 3.49826ZM8.15076 3.62267L8.07722 3.60795L8.22424 3.63771L8.15076 3.62267ZM8.12249 3.76463L8.19594 3.77982L8.19594 3.77981L8.12249 3.76463ZM7.87093 4.18819L7.81682 4.13625L7.81675 4.13633L7.87093 4.18819ZM7.84377 4.21656L7.78959 4.16471L7.78943 4.16487L7.84377 4.21656ZM7.67548 4.38507L7.62293 4.33156L7.67548 4.38507ZM6.98253 5.34611L7.0574 5.35043V5.35043L6.98253 5.34611ZM7.49094 5.62968L7.48574 5.7045L7.49094 5.62968ZM7.62951 5.67333L7.65562 5.60302L7.62951 5.67333ZM7.86614 5.71306L7.79127 5.70874V5.70874L7.86614 5.71306ZM8.56049 4.4391L8.62127 4.48316L8.6231 4.4804L8.56049 4.4391ZM8.69301 3.43852L8.76784 3.43339V3.43339L8.69301 3.43852ZM8.77874 2.86073L8.74288 2.79485V2.79485L8.77874 2.86073ZM11.4161 5.03042L11.4348 4.95779L11.4161 5.03042ZM11.3525 5.28869L11.3338 5.36132L11.3525 5.28869ZM10.8957 5.6528L10.8375 5.60552L10.8957 5.6528ZM10.1164 6.29419L10.1308 6.36787L10.134 6.36709L10.1164 6.29419ZM8.73974 6.75236L8.68792 6.69814H8.68792L8.73974 6.75236ZM8.59377 6.56193L8.52389 6.58988L8.52673 6.59555L8.59377 6.56193ZM8.59377 6.56192L8.66365 6.53397L8.66085 6.52838L8.59377 6.56192ZM8.59377 6.56192L8.66085 6.52838L8.66081 6.5283L8.59377 6.56192ZM8.5222 6.43549L8.46737 6.48667V6.48667L8.5222 6.43549ZM8.34376 5.88137L8.39558 5.93559L8.34376 5.88137ZM9.50599 5.6511L9.50793 5.72608L9.50887 5.72605L9.50599 5.6511ZM9.506 5.6511L9.50406 5.57612L9.50312 5.57616L9.506 5.6511ZM9.74399 5.64264L9.73973 5.56776L9.7395 5.56777L9.74399 5.64264ZM9.7832 5.64041L9.77905 5.56552L9.77894 5.56553L9.7832 5.64041ZM10.256 5.5022L10.2127 5.441L10.256 5.5022ZM10.3735 5.41771L10.3296 5.35687L10.3295 5.35692L10.3735 5.41771ZM10.3735 5.41766L10.3298 5.35674L10.3297 5.35682L10.3735 5.41766ZM10.4778 5.34475L10.5197 5.40693L10.5198 5.4069L10.4778 5.34475ZM10.498 5.33109L10.54 5.39323L10.54 5.39321L10.498 5.33109ZM2.30846 5.66144L2.36544 5.61267H2.36544L2.30846 5.66144ZM2.3228 5.47369L2.37217 5.53015L2.37217 5.53015L2.3228 5.47369ZM3.23296 5.94174L3.23175 6.01673H3.23175L3.23296 5.94174ZM3.25736 5.94214L3.25867 5.86715H3.25867L3.25736 5.94214ZM3.38457 5.94221L3.38546 6.01721L3.38389 5.86721L3.38457 5.94221ZM3.5293 5.94035L3.52972 6.01535H3.52972L3.5293 5.94035ZM3.99591 6.09835L4.03547 6.03463H4.03547L3.99591 6.09835ZM4.02931 6.11902L3.99004 6.18292H3.99004L4.02931 6.11902ZM4.22912 6.24859L4.18771 6.31112L4.22912 6.24859ZM5.31324 6.72659L5.32458 6.80073H5.32458L5.31324 6.72659ZM5.4849 6.17034L5.55917 6.15987V6.15987L5.4849 6.17034ZM5.49879 6.02572L5.573 6.03664H5.573L5.49879 6.02572ZM5.48845 5.786L5.47711 5.71186L5.48845 5.786ZM4.09797 5.37169L4.12843 5.30308L4.12535 5.30187L4.09797 5.37169ZM3.0917 5.4501L3.11228 5.52222H3.11228L3.0917 5.4501ZM2.50871 5.48638L2.56569 5.43761H2.56569L2.50871 5.48638ZM4.71437 2.71052C4.71679 2.67943 4.74466 2.65472 4.77748 2.65693L4.78753 2.50726C4.67378 2.49963 4.57369 2.58471 4.56482 2.69891L4.71437 2.71052ZM5.149 3.50446C5.06252 3.41514 4.94667 3.29522 4.85533 3.15543C4.7637 3.01518 4.7025 2.86347 4.71437 2.71052L4.56482 2.69891C4.54928 2.8991 4.62979 3.08448 4.72975 3.23747C4.83001 3.39092 4.95563 3.52039 5.04124 3.6088L5.149 3.50446ZM5.166 3.52203L5.14903 3.50449L5.04122 3.60878L5.05819 3.62632L5.166 3.52203ZM5.25439 3.61052C5.21984 3.57678 5.19255 3.54952 5.16604 3.52207L5.05814 3.62628C5.08599 3.65511 5.11439 3.68346 5.14959 3.71783L5.25439 3.61052ZM5.35838 3.71188C5.34698 3.7006 5.32081 3.67509 5.29776 3.65267C5.28618 3.6414 5.27529 3.63082 5.26731 3.62306C5.26332 3.61918 5.26005 3.61601 5.25778 3.6138C5.25664 3.6127 5.25575 3.61184 5.25515 3.61125C5.25485 3.61096 5.25462 3.61074 5.25446 3.61059C5.25439 3.61051 5.25433 3.61045 5.25429 3.61041C5.25427 3.6104 5.25425 3.61038 5.25424 3.61037C5.25423 3.61036 5.25423 3.61036 5.25422 3.61035C5.25422 3.61035 5.25421 3.61034 5.2542 3.61033C5.25419 3.61032 5.14837 3.61174 5.1493 3.71755L5.25468 3.6108C5.25562 3.71661 5.1498 3.71803 5.14978 3.71802C5.14978 3.71801 5.14977 3.71801 5.14977 3.71801C5.14977 3.718 5.14977 3.71801 5.14977 3.71801C5.14978 3.71802 5.14979 3.71803 5.14981 3.71805C5.14985 3.71808 5.14991 3.71814 5.14998 3.71821C5.15014 3.71836 5.15037 3.71858 5.15066 3.71888C5.15126 3.71946 5.15215 3.72031 5.15328 3.72141C5.15554 3.72361 5.1588 3.72678 5.16279 3.73065C5.17075 3.73839 5.18161 3.74894 5.19316 3.76018C5.21638 3.78277 5.24204 3.80778 5.25291 3.81853L5.35838 3.71188ZM5.59689 4.18978C5.56017 4.03283 5.52411 3.87576 5.35838 3.71187L5.25291 3.81853C5.3861 3.95024 5.41482 4.07004 5.45084 4.22395L5.59689 4.18978ZM5.60587 4.22789L5.59687 4.18967L5.45086 4.22407L5.45987 4.26229L5.60587 4.22789ZM5.65603 4.46307C5.63835 4.37605 5.62191 4.29504 5.60582 4.22767L5.45992 4.26251C5.47529 4.32687 5.49119 4.40511 5.50904 4.49294L5.65603 4.46307ZM5.655 4.45868L5.655 4.45868L5.51007 4.49733L5.51007 4.49733L5.655 4.45868ZM6.05552 5.52214C5.95637 5.44931 5.87471 5.29113 5.80763 5.08616C5.74191 4.88534 5.69556 4.65764 5.65603 4.46308L5.50904 4.49294C5.54823 4.68585 5.59617 4.92229 5.66507 5.13282C5.73261 5.3392 5.82588 5.53958 5.96672 5.64303L6.05552 5.52214ZM6.46592 5.26553C6.46659 5.26464 6.46201 5.26999 6.44647 5.28247C6.43274 5.29352 6.41437 5.30706 6.39241 5.32224C6.34858 5.35255 6.29297 5.38761 6.23682 5.41964C6.18026 5.4519 6.12534 5.47982 6.08245 5.49685C6.06068 5.5055 6.04499 5.51013 6.03526 5.51185C6.03042 5.5127 6.02967 5.51235 6.03183 5.51251C6.0335 5.51264 6.04384 5.51357 6.05552 5.52214L5.96672 5.64303C5.98574 5.65701 6.00619 5.66099 6.02038 5.66208C6.03505 5.6632 6.04922 5.6617 6.06134 5.65956C6.08556 5.65529 6.11204 5.6465 6.13782 5.63626C6.19006 5.61551 6.25187 5.58374 6.31113 5.54994C6.37079 5.51591 6.43008 5.47856 6.47771 5.44563C6.50149 5.42919 6.52299 5.41342 6.54045 5.39938C6.55612 5.38679 6.57406 5.37129 6.58576 5.35575L6.46592 5.26553ZM6.59317 5.15802C6.56826 5.17654 6.54294 5.19536 6.5219 5.21221C6.50277 5.22753 6.48015 5.24664 6.46592 5.26553L6.58576 5.35575C6.58561 5.35594 6.58755 5.35351 6.59357 5.34798C6.59914 5.34286 6.60649 5.33664 6.61568 5.32928C6.63417 5.31447 6.6571 5.29741 6.68267 5.27839L6.59317 5.15802ZM6.59632 5.1558L6.59632 5.1558L6.67952 5.28061L6.67953 5.28061L6.59632 5.1558ZM6.75572 5.10183C6.74512 5.09405 6.73514 5.07997 6.73327 5.06191C6.73176 5.04734 6.73644 5.03824 6.73663 5.03787C6.73664 5.03784 6.73216 5.04504 6.71631 5.06013C6.68663 5.08838 6.64081 5.1226 6.59318 5.15802L6.68267 5.27839C6.72767 5.24494 6.78197 5.20472 6.81973 5.16877C6.83761 5.15175 6.85869 5.12941 6.87108 5.10437C6.87745 5.09148 6.88502 5.07101 6.88247 5.04646C6.87957 5.0184 6.86463 4.99571 6.84452 4.98094L6.75572 5.10183ZM6.03987 3.79215C6.16379 4.11401 6.27481 4.39036 6.38698 4.60978C6.49852 4.82794 6.61557 4.99888 6.75572 5.10183L6.84452 4.98094C6.73336 4.89928 6.6293 4.75422 6.52054 4.54149C6.41242 4.33001 6.30396 4.06058 6.17985 3.73825L6.03987 3.79215ZM5.30644 3.17466C5.45114 3.25511 5.60496 3.34078 5.73916 3.44306C5.87331 3.54532 5.98208 3.65999 6.04112 3.79521L6.17859 3.73519C6.1052 3.56712 5.97436 3.43373 5.83008 3.32376C5.68585 3.21383 5.52239 3.1231 5.37933 3.04356L5.30644 3.17466ZM4.83021 2.71672C4.82167 2.82674 4.8996 2.91122 4.98166 2.97518C5.06735 3.04196 5.18537 3.10735 5.30644 3.17466L5.37933 3.04356C5.25459 2.97421 5.14835 2.91491 5.07387 2.85687C4.99577 2.79599 4.97765 2.75552 4.97976 2.72833L4.83021 2.71672ZM4.77748 2.65693C4.80972 2.65909 4.83258 2.68626 4.83021 2.71672L4.97976 2.72833C4.98868 2.61351 4.90187 2.51494 4.78753 2.50726L4.77748 2.65693ZM8.68499 2.69432C8.71238 2.67942 8.74828 2.68933 8.76431 2.71806L8.8953 2.64498C8.83975 2.54542 8.71388 2.50782 8.61328 2.56258L8.68499 2.69432ZM8.25585 3.49125C8.28366 3.37007 8.32113 3.20759 8.38863 3.05485C8.45634 2.90162 8.55025 2.76767 8.68499 2.69432L8.61328 2.56258C8.43691 2.65857 8.3253 2.82706 8.25143 2.99422C8.17734 3.16188 8.13718 3.33774 8.10965 3.4577L8.25585 3.49125ZM8.25037 3.51507L8.25584 3.49128L8.10966 3.45767L8.10419 3.48145L8.25037 3.51507ZM8.2243 3.63739C8.23378 3.59004 8.24178 3.55231 8.25036 3.51513L8.1042 3.48139C8.09519 3.52045 8.08688 3.55971 8.07722 3.60795L8.2243 3.63739ZM8.19594 3.77981C8.19918 3.76411 8.20632 3.72826 8.21257 3.69672C8.21572 3.68087 8.21866 3.66598 8.22082 3.65506C8.2219 3.6496 8.22278 3.64513 8.22339 3.64202C8.2237 3.64047 8.22394 3.63926 8.2241 3.63843C8.22418 3.63802 8.22424 3.63771 8.22428 3.6375C8.22431 3.63739 8.22432 3.63731 8.22433 3.63725C8.22434 3.63723 8.22434 3.6372 8.22435 3.63719C8.22435 3.63718 8.22435 3.63717 8.22435 3.63717C8.22435 3.63716 8.22435 3.63715 8.22435 3.63714C8.22436 3.63712 8.1655 3.54914 8.07729 3.60764L8.22424 3.63771C8.13603 3.69621 8.07717 3.60822 8.07717 3.60821C8.07717 3.6082 8.07717 3.60819 8.07717 3.60819C8.07717 3.60819 8.07717 3.60819 8.07717 3.6082C8.07717 3.60821 8.07717 3.60823 8.07716 3.60825C8.07715 3.6083 8.07714 3.60838 8.07712 3.60849C8.07708 3.6087 8.07701 3.60901 8.07693 3.60942C8.07677 3.61024 8.07653 3.61144 8.07623 3.61299C8.07562 3.61609 8.07474 3.62055 8.07366 3.626C8.07151 3.6369 8.06857 3.65175 8.06544 3.66755C8.05914 3.69933 8.05214 3.73448 8.04904 3.74945L8.19594 3.77981ZM7.92503 4.24013C8.03666 4.12385 8.14875 4.00806 8.19594 3.77982L8.04904 3.74945C8.01112 3.93288 7.92629 4.02222 7.81682 4.13625L7.92503 4.24013ZM7.89796 4.26842L7.92511 4.24005L7.81675 4.13633L7.78959 4.16471L7.89796 4.26842ZM7.72804 4.43858C7.79139 4.37635 7.85037 4.31844 7.89811 4.26826L7.78943 4.16487C7.74383 4.21281 7.68687 4.26876 7.62293 4.33156L7.72804 4.43858ZM7.0574 5.35043C7.06449 5.2276 7.15267 5.07296 7.28804 4.90507C7.42067 4.74059 7.58639 4.57769 7.72804 4.43858L7.62293 4.33156C7.48249 4.4695 7.31031 4.63848 7.17127 4.81092C7.03497 4.97997 6.91771 5.16733 6.90765 5.34179L7.0574 5.35043ZM7.49614 5.55486C7.49725 5.55494 7.49027 5.554 7.47134 5.54777C7.4546 5.54227 7.43323 5.53424 7.40854 5.52409C7.35925 5.50384 7.29956 5.4763 7.24211 5.44665C7.18426 5.41678 7.13093 5.38593 7.09328 5.35924C7.07417 5.34569 7.06174 5.33505 7.05501 5.32783C7.05165 5.32423 7.05154 5.32341 7.05258 5.32531C7.05338 5.32679 7.05824 5.33596 7.0574 5.35043L6.90765 5.34179C6.90629 5.36536 6.91409 5.38467 6.92091 5.39717C6.92796 5.41008 6.93693 5.42115 6.94533 5.43015C6.9621 5.44813 6.98389 5.46555 7.00652 5.4816C7.05237 5.51411 7.11268 5.54864 7.17331 5.57994C7.23434 5.61144 7.29796 5.64082 7.35152 5.66283C7.37825 5.67382 7.40319 5.68327 7.42447 5.69027C7.44356 5.69654 7.46633 5.70315 7.48574 5.7045L7.49614 5.55486ZM7.65562 5.60302C7.62651 5.59222 7.59694 5.58123 7.57135 5.57276C7.54807 5.56506 7.51973 5.5565 7.49614 5.55486L7.48574 5.7045C7.4855 5.70448 7.4886 5.70478 7.49652 5.70682C7.50384 5.7087 7.51307 5.71148 7.52424 5.71517C7.54673 5.72261 7.57353 5.73255 7.6034 5.74364L7.65562 5.60302ZM7.79127 5.70874C7.79202 5.69562 7.79839 5.67958 7.81252 5.66817C7.82391 5.65898 7.83409 5.65794 7.83451 5.65789C7.83454 5.65789 7.82606 5.65805 7.80478 5.65298C7.76491 5.64347 7.71126 5.62368 7.65562 5.60302L7.6034 5.74364C7.65596 5.76316 7.71927 5.7868 7.76999 5.79889C7.794 5.80461 7.82422 5.81012 7.85196 5.80687C7.86624 5.8052 7.88753 5.80039 7.90674 5.78489C7.92869 5.76717 7.93958 5.74228 7.94102 5.71738L7.79127 5.70874ZM8.49977 4.39508C8.29734 4.67431 8.12603 4.91792 8.00311 5.1315C7.88088 5.34387 7.80128 5.53513 7.79127 5.70874L7.94102 5.71738C7.94896 5.57968 8.01394 5.41339 8.13311 5.20633C8.25159 5.00047 8.41848 4.76276 8.62121 4.48312L8.49977 4.39508ZM8.61819 3.44366C8.62953 3.60883 8.64146 3.78449 8.62876 3.95275C8.61607 4.12096 8.57914 4.27463 8.49789 4.3978L8.6231 4.4804C8.72409 4.32731 8.76469 4.14493 8.77834 3.96404C8.79198 3.78319 8.77905 3.5967 8.76784 3.43339L8.61819 3.44366ZM8.74288 2.79485C8.64596 2.84761 8.61755 2.95898 8.6086 3.06263C8.59926 3.17087 8.6087 3.30547 8.61819 3.44366L8.76784 3.43339C8.75806 3.29101 8.74993 3.1696 8.75805 3.07553C8.76656 2.97688 8.79064 2.93964 8.81459 2.9266L8.74288 2.79485ZM8.76431 2.71806C8.78005 2.74628 8.76971 2.78025 8.74288 2.79485L8.81459 2.9266C8.91575 2.87154 8.95114 2.74505 8.8953 2.64498L8.76431 2.71806ZM11.5848 5.21039C11.6121 5.0997 11.5457 4.98635 11.4348 4.95779L11.3974 5.10305C11.4276 5.11083 11.4471 5.14256 11.4392 5.17451L11.5848 5.21039ZM11.3338 5.36132C11.4453 5.39004 11.5574 5.32166 11.5848 5.21039L11.4392 5.17451C11.4315 5.20588 11.4007 5.22367 11.3712 5.21606L11.3338 5.36132ZM10.9539 5.70007C11.0439 5.58927 11.1207 5.49494 11.1908 5.43167C11.2643 5.36533 11.3073 5.35452 11.3338 5.36132L11.3712 5.21606C11.2643 5.18854 11.1676 5.25062 11.0903 5.32032C11.0097 5.39311 10.9248 5.49798 10.8375 5.60552L10.9539 5.70007ZM10.134 6.36709C10.3123 6.32401 10.4664 6.21832 10.5997 6.09532C10.733 5.97237 10.8508 5.82715 10.9539 5.70007L10.8375 5.60552C10.7331 5.73405 10.622 5.87066 10.498 5.98506C10.374 6.09942 10.2422 6.18662 10.0988 6.22129L10.134 6.36709ZM8.79155 6.80658C8.89127 6.71129 9.0522 6.634 9.28058 6.56383C9.50762 6.49408 9.7918 6.43405 10.1308 6.3678L10.102 6.22058C9.76352 6.28674 9.47209 6.34808 9.23653 6.42045C9.00231 6.49241 8.81364 6.57799 8.68792 6.69814L8.79155 6.80658ZM8.52673 6.59555C8.55186 6.64566 8.58204 6.70612 8.61088 6.74956C8.62454 6.77012 8.64288 6.79476 8.66539 6.8113C8.67697 6.81982 8.69582 6.83082 8.72044 6.83258C8.74858 6.83459 8.77352 6.82382 8.79155 6.80658L8.68792 6.69814C8.69743 6.68906 8.71302 6.68167 8.73114 6.68296C8.74574 6.68401 8.75389 6.69019 8.75423 6.69044C8.75425 6.69046 8.74794 6.6848 8.73583 6.66657C8.71316 6.63243 8.68742 6.58137 8.66081 6.52831L8.52673 6.59555ZM8.52413 6.58978L8.52413 6.58978L8.66341 6.53407L8.6634 6.53407L8.52413 6.58978ZM8.52668 6.59546L8.52669 6.59547L8.66085 6.52838L8.66085 6.52838L8.52668 6.59546ZM8.46737 6.48667C8.46721 6.48649 8.46927 6.48882 8.47367 6.49571C8.47774 6.50208 8.48259 6.5104 8.48824 6.52073C8.49962 6.54151 8.51244 6.56705 8.52672 6.59554L8.66081 6.5283C8.64689 6.50055 8.63276 6.47235 8.61982 6.4487C8.60805 6.4272 8.59317 6.40161 8.57703 6.38432L8.46737 6.48667ZM8.29195 5.82715C8.27488 5.84345 8.26741 5.8629 8.26388 5.87668C8.26022 5.89093 8.25924 5.90515 8.25924 5.91746C8.25924 5.94205 8.2633 5.96965 8.26891 5.99682C8.28027 6.05187 8.30082 6.11826 8.32382 6.18249C8.34697 6.24715 8.37346 6.31203 8.39762 6.36466C8.40968 6.39092 8.42147 6.41484 8.43227 6.43447C8.44195 6.45208 8.45409 6.47244 8.46737 6.48667L8.57703 6.38432C8.57779 6.38513 8.57332 6.37969 8.56372 6.36222C8.55523 6.34678 8.54508 6.32633 8.53394 6.30208C8.51171 6.25365 8.48683 6.19279 8.46504 6.13193C8.4431 6.07064 8.42514 6.0117 8.41581 5.9665C8.41107 5.94356 8.40924 5.92731 8.40924 5.91743C8.40924 5.91251 8.40972 5.91183 8.40918 5.91393C8.40876 5.91556 8.40605 5.92558 8.39558 5.93559L8.29195 5.82715ZM9.50404 5.57613C9.30726 5.58123 9.06609 5.58738 8.84679 5.61868C8.63182 5.64935 8.41829 5.70641 8.29195 5.82715L8.39558 5.93559C8.48453 5.85059 8.65448 5.79764 8.86798 5.76717C9.07716 5.73732 9.30946 5.73122 9.50793 5.72608L9.50404 5.57613ZM9.50312 5.57616L9.5031 5.57616L9.50887 5.72605L9.50889 5.72605L9.50312 5.57616ZM9.7395 5.56777C9.67345 5.57173 9.59365 5.57381 9.50406 5.57613L9.50795 5.72608C9.59671 5.72378 9.67934 5.72165 9.74847 5.7175L9.7395 5.56777ZM9.77894 5.56553L9.73973 5.56776L9.74825 5.71752L9.78746 5.71529L9.77894 5.56553ZM10.2127 5.441C10.0598 5.5493 9.93688 5.55678 9.77905 5.56552L9.78734 5.71529C9.94829 5.70638 10.1092 5.69814 10.2994 5.56339L10.2127 5.441ZM10.3295 5.35692C10.3264 5.35918 10.2375 5.42345 10.2127 5.441L10.2994 5.56339C10.3249 5.54532 10.4147 5.48047 10.4174 5.47851L10.3295 5.35692ZM10.3297 5.35682L10.3296 5.35687L10.4173 5.47856L10.4174 5.4785L10.3297 5.35682ZM10.4358 5.28258C10.4026 5.305 10.3698 5.32804 10.3298 5.35674L10.4173 5.47858C10.4565 5.45041 10.4881 5.42827 10.5197 5.40693L10.4358 5.28258ZM10.456 5.26895L10.4358 5.28261L10.5198 5.4069L10.54 5.39323L10.456 5.26895ZM11.4348 4.95779C11.2403 4.90772 11.0438 4.95482 10.8758 5.02669C10.7072 5.09878 10.5579 5.20001 10.456 5.26897L10.54 5.39321C10.643 5.32355 10.7812 5.23028 10.9348 5.16461C11.0888 5.09872 11.2488 5.0648 11.3974 5.10305L11.4348 4.95779ZM2.36544 5.61267C2.34516 5.58899 2.3474 5.55181 2.37217 5.53015L2.27344 5.41722C2.18761 5.49225 2.177 5.62319 2.25148 5.71021L2.36544 5.61267ZM3.23417 5.86675C3.10986 5.86474 2.94314 5.86187 2.7797 5.8276C2.61574 5.79323 2.46519 5.72922 2.36544 5.61267L2.25148 5.71021C2.38204 5.86276 2.57006 5.93691 2.74892 5.97441C2.92832 6.01202 3.10869 6.01474 3.23175 6.01673L3.23417 5.86675ZM3.25867 5.86715C3.25072 5.86701 3.24253 5.86688 3.23417 5.86675L3.23175 6.01673C3.24013 6.01686 3.24822 6.01699 3.25606 6.01713L3.25867 5.86715ZM3.38368 5.86722C3.33539 5.86779 3.29682 5.86782 3.25867 5.86715L3.25606 6.01713C3.29614 6.01783 3.33626 6.01779 3.38546 6.01721L3.38368 5.86722ZM3.52889 5.86535C3.51285 5.86544 3.4763 5.86591 3.44415 5.86635C3.42799 5.86658 3.41282 5.86679 3.40169 5.86695C3.39612 5.86703 3.39156 5.8671 3.3884 5.86715C3.38681 5.86717 3.38558 5.86719 3.38474 5.8672C3.38432 5.86721 3.384 5.86721 3.38378 5.86721C3.38368 5.86722 3.38359 5.86722 3.38354 5.86722C3.38351 5.86722 3.38349 5.86722 3.38347 5.86722C3.38346 5.86722 3.38346 5.86722 3.38345 5.86722C3.38345 5.86722 3.38344 5.86722 3.38343 5.86722C3.38342 5.86722 3.30958 5.94314 3.38525 6.01721L3.38389 5.86721C3.45957 5.94128 3.38573 6.0172 3.38571 6.0172C3.38571 6.0172 3.3857 6.0172 3.3857 6.0172C3.3857 6.0172 3.3857 6.0172 3.38571 6.0172C3.38572 6.0172 3.38574 6.0172 3.38577 6.0172C3.38582 6.0172 3.3859 6.0172 3.38601 6.0172C3.38622 6.0172 3.38654 6.01719 3.38696 6.01718C3.38779 6.01717 3.38902 6.01715 3.3906 6.01713C3.39375 6.01708 3.3983 6.01702 3.40385 6.01694C3.41496 6.01678 3.4301 6.01656 3.44621 6.01634C3.4786 6.0159 3.51444 6.01544 3.52972 6.01535L3.52889 5.86535ZM4.03547 6.03463C3.89852 5.94962 3.76196 5.86405 3.52889 5.86535L3.52972 6.01535C3.71703 6.01431 3.82206 6.07871 3.95636 6.16207L4.03547 6.03463ZM4.06858 6.05512C4.05748 6.0483 4.04651 6.04149 4.03547 6.03463L3.95636 6.16207C3.96735 6.1689 3.97861 6.17589 3.99004 6.18292L4.06858 6.05512ZM4.27054 6.18606C4.1965 6.13703 4.12759 6.09138 4.06858 6.05512L3.99004 6.18292C4.04642 6.21756 4.11299 6.26163 4.18771 6.31112L4.27054 6.18606ZM5.30189 6.65246C5.18027 6.67107 5.01068 6.61696 4.81832 6.51946C4.62985 6.42393 4.43606 6.29569 4.27054 6.18606L4.18771 6.31112C4.35183 6.41982 4.55292 6.5531 4.7505 6.65325C4.94419 6.75143 5.15183 6.82717 5.32458 6.80073L5.30189 6.65246ZM5.41064 6.18081C5.41048 6.17971 5.41102 6.18672 5.40886 6.20654C5.40696 6.22406 5.40355 6.24663 5.39876 6.27289C5.38919 6.32531 5.37466 6.38943 5.3576 6.45178C5.34042 6.51458 5.32133 6.57316 5.30305 6.61553C5.29377 6.63705 5.28595 6.65141 5.28029 6.6595C5.27746 6.66353 5.27668 6.66381 5.27832 6.6624C5.2796 6.66131 5.28757 6.65465 5.30189 6.65246L5.32458 6.80073C5.34791 6.79716 5.36519 6.78552 5.37599 6.77625C5.38715 6.76668 5.39612 6.7556 5.40318 6.74551C5.41728 6.72536 5.42979 6.70043 5.44078 6.67495C5.46304 6.62335 5.48428 6.55718 5.50229 6.49137C5.52041 6.42512 5.53593 6.35678 5.54632 6.29982C5.55151 6.27138 5.55556 6.24503 5.55798 6.22275C5.56016 6.20278 5.56188 6.17913 5.55917 6.15987L5.41064 6.18081ZM5.42459 6.0148C5.42007 6.04551 5.41547 6.07673 5.41251 6.10352C5.40982 6.12788 5.40733 6.15739 5.41064 6.18081L5.55917 6.15987C5.5592 6.1601 5.55885 6.15701 5.55919 6.14884C5.55951 6.14129 5.56031 6.13169 5.56161 6.11999C5.56421 6.09644 5.56836 6.06816 5.573 6.03664L5.42459 6.0148ZM5.4998 5.86014C5.4868 5.86212 5.46979 5.85923 5.45569 5.84778C5.44433 5.83855 5.4412 5.82881 5.44107 5.82841C5.44106 5.82838 5.44298 5.83664 5.44244 5.85851C5.44143 5.89948 5.43323 5.95608 5.42459 6.0148L5.573 6.03664C5.58116 5.98117 5.59111 5.91433 5.5924 5.86221C5.59301 5.83753 5.59211 5.80682 5.58316 5.78036C5.57856 5.76674 5.56943 5.74692 5.55027 5.73135C5.52838 5.71357 5.50177 5.70809 5.47711 5.71186L5.4998 5.86014ZM4.06753 5.44024C4.38275 5.58019 4.65666 5.69711 4.89113 5.77294C5.12427 5.84834 5.3279 5.88644 5.4998 5.86014L5.47711 5.71186C5.34077 5.73272 5.16461 5.70373 4.93729 5.63021C4.71129 5.55713 4.44408 5.44331 4.1284 5.30314L4.06753 5.44024ZM3.11228 5.52222C3.27149 5.47679 3.44083 5.4286 3.60805 5.40603C3.77522 5.38347 3.93321 5.38764 4.07059 5.44151L4.12535 5.30187C3.95461 5.23491 3.76777 5.23311 3.58799 5.25738C3.40826 5.28163 3.22853 5.33306 3.07112 5.37798L3.11228 5.52222ZM2.45173 5.53514C2.52349 5.61898 2.63833 5.62361 2.74158 5.61081C2.84939 5.59745 2.97908 5.56023 3.11228 5.52222L3.07112 5.37798C2.93389 5.41714 2.81683 5.45034 2.72312 5.46195C2.62485 5.47414 2.58342 5.45833 2.56569 5.43761L2.45173 5.53514ZM2.37217 5.53015C2.39649 5.50889 2.43187 5.51194 2.45173 5.53514L2.56569 5.43761C2.4908 5.35011 2.35972 5.3418 2.27344 5.41722L2.37217 5.53015Z" fill="#984111"/>
<path fill-rule="evenodd" clip-rule="evenodd" d="M4.75565 11.2453C4.68236 11.2502 4.61838 11.1953 4.61274 11.1227C4.58532 10.7695 4.89617 10.4485 5.06827 10.2708L5.08524 10.2532C5.11241 10.2251 5.14026 10.1973 5.17514 10.1632C5.17512 10.1632 5.25652 10.0842 5.27879 10.0622C5.42825 9.91439 5.46064 9.77596 5.49701 9.62053L5.50602 9.5823C5.52174 9.51644 5.53792 9.43682 5.55568 9.34939L5.55568 9.34938C5.6344 8.96191 5.74427 8.4211 5.98427 8.2448C6.04304 8.20163 6.45485 8.45813 6.49899 8.51675C6.51455 8.53743 6.56058 8.57165 6.61107 8.60918L6.61107 8.60919C6.70369 8.67805 6.81131 8.75806 6.77326 8.78601C6.52196 8.97061 6.33104 9.41801 6.083 10.0622C5.95057 10.3655 5.60379 10.5583 5.31603 10.7183C5.07023 10.8549 4.86748 10.9677 4.87813 11.1049C4.88377 11.1775 4.82894 11.2404 4.75565 11.2453ZM8.80295 11.1459C8.76716 11.21 8.68627 11.2338 8.62228 11.1989C8.31117 11.0296 8.21123 10.5941 8.15589 10.3529L8.15042 10.3291C8.14162 10.291 8.13348 10.2525 8.12391 10.2047C8.12391 10.2047 8.10198 10.0934 8.09563 10.0628C8.05308 9.85692 7.95462 9.75436 7.84407 9.6392L7.81692 9.61083C7.77015 9.56167 7.71133 9.50393 7.64649 9.44028L7.64647 9.44026L7.64646 9.44025C7.35983 9.15888 6.95567 8.76214 6.95567 8.48128C6.95567 8.35371 7.39088 8.2028 7.46408 8.19771C7.48991 8.19592 7.54368 8.17596 7.60265 8.15406C7.71086 8.11388 7.83657 8.06721 7.83929 8.11433C7.85724 8.42564 8.12847 8.82942 8.53364 9.3883C8.71588 9.66455 8.68871 10.0604 8.66616 10.3889C8.6469 10.6694 8.63101 10.9009 8.75188 10.9667C8.81588 11.0015 8.83874 11.0817 8.80295 11.1459ZM11.3892 8.79697C11.4598 8.7788 11.5027 8.70626 11.4852 8.63494C11.4676 8.56362 11.3962 8.52054 11.3256 8.53871C11.1923 8.57302 11.0461 8.39293 10.8688 8.1746C10.6613 7.91898 10.4112 7.61095 10.0895 7.5332C9.41207 7.40079 8.93832 7.29047 8.71288 7.07503C8.67876 7.04242 8.61865 7.16229 8.56691 7.26546L8.56691 7.26547L8.56691 7.26547C8.53871 7.32171 8.513 7.37298 8.49534 7.3919C8.44528 7.44554 8.26418 7.89564 8.31691 7.94602C8.5322 8.15176 9.08388 8.16605 9.47913 8.17629L9.47915 8.17629C9.56833 8.1786 9.64954 8.1807 9.71713 8.18475L9.75634 8.18699C9.91573 8.19581 10.0577 8.20367 10.2292 8.32519C10.2543 8.34301 10.3437 8.40757 10.3466 8.40968L10.3467 8.40973C10.3863 8.43817 10.4185 8.46076 10.4509 8.48264L10.4711 8.4963C10.6761 8.63492 11.0462 8.8853 11.3892 8.79697ZM2.29595 8.35371C2.24065 8.30536 2.23423 8.2213 2.2816 8.16595C2.51192 7.89685 2.95873 7.88965 3.2061 7.88566C3.21447 7.88552 3.22261 7.88539 3.23051 7.88525C3.26962 7.88457 3.30897 7.8846 3.35772 7.88518C3.35769 7.88518 3.47112 7.88687 3.50245 7.88704C3.71264 7.88821 3.83343 7.81323 3.96906 7.72904C3.98007 7.7222 3.99119 7.7153 4.00245 7.70838C4.06015 7.67292 4.12789 7.62806 4.20227 7.5788C4.53191 7.36048 4.99202 7.05575 5.28638 7.1008C5.35847 7.11183 5.46829 7.5844 5.45805 7.65706C5.45443 7.68269 5.46278 7.73944 5.47194 7.80167C5.48874 7.91587 5.50826 8.04853 5.4616 8.04139C5.15336 7.99423 4.70201 8.17559 4.07111 8.4557C3.763 8.57653 3.38146 8.46765 3.06485 8.3773C2.79441 8.30012 2.57134 8.23646 2.48186 8.34102C2.43448 8.39637 2.35125 8.40205 2.29595 8.35371Z" fill="#FFC125"/>
<path d="M4.61274 11.1227L4.53797 11.1285V11.1285L4.61274 11.1227ZM4.75565 11.2453L4.75063 11.1705L4.75565 11.2453ZM5.06827 10.2708L5.12217 10.3229L5.12215 10.3229L5.06827 10.2708ZM5.08524 10.2532L5.13919 10.3053L5.13914 10.3054L5.08524 10.2532ZM5.17514 10.1632L5.12274 10.1096L5.22783 10.2166L5.17514 10.1632ZM5.27879 10.0622L5.22606 10.0089L5.22606 10.0089L5.27879 10.0622ZM5.49701 9.62053L5.42398 9.60344L5.42401 9.60333L5.49701 9.62053ZM5.50602 9.5823L5.43301 9.5651L5.43307 9.56488L5.50602 9.5823ZM5.55568 9.34939L5.48205 9.33443L5.48321 9.33006L5.55568 9.34939ZM5.55568 9.34938L5.62931 9.36434L5.62815 9.36871L5.55568 9.34938ZM5.98427 8.2448L5.93986 8.18436H5.93986L5.98427 8.2448ZM6.49899 8.51675L6.5589 8.47164V8.47164L6.49899 8.51675ZM6.61107 8.60918L6.56941 8.67167L6.56632 8.66937L6.61107 8.60918ZM6.61107 8.60919L6.65273 8.5467L6.65582 8.549L6.61107 8.60919ZM6.77326 8.78601L6.72886 8.72556L6.77326 8.78601ZM6.083 10.0622L6.15306 10.0892L6.15173 10.0922L6.083 10.0622ZM5.31603 10.7183L5.27958 10.6527L5.31603 10.7183ZM4.87813 11.1049L4.80336 11.1107V11.1107L4.87813 11.1049ZM8.62228 11.1989L8.58642 11.2648V11.2648L8.62228 11.1989ZM8.80295 11.1459L8.86844 11.1824V11.1824L8.80295 11.1459ZM8.15589 10.3529L8.22899 10.3361L8.22899 10.3361L8.15589 10.3529ZM8.15042 10.3291L8.2235 10.3123L8.22352 10.3123L8.15042 10.3291ZM8.12391 10.2047L8.05037 10.2194L8.19738 10.1897L8.12391 10.2047ZM8.09563 10.0628L8.16908 10.0476L8.16908 10.0476L8.09563 10.0628ZM7.84407 9.6392L7.78997 9.69114L7.78989 9.69106L7.84407 9.6392ZM7.81692 9.61083L7.76273 9.66269L7.76258 9.66252L7.81692 9.61083ZM7.64649 9.44028L7.59395 9.4938L7.59391 9.49376L7.64649 9.44028ZM7.64647 9.44026L7.69853 9.38627L7.69906 9.38678L7.64647 9.44026ZM7.64646 9.44025L7.5944 9.49424L7.59392 9.49377L7.64646 9.44025ZM7.46408 8.19771L7.45889 8.1229L7.46408 8.19771ZM7.60265 8.15406L7.62876 8.22437L7.60265 8.15406ZM7.83929 8.11433L7.76441 8.11865V8.11865L7.83929 8.11433ZM8.53364 9.3883L8.59442 9.34423L8.59624 9.347L8.53364 9.3883ZM8.66616 10.3889L8.74098 10.394V10.394L8.66616 10.3889ZM8.75188 10.9667L8.71603 11.0325V11.0325L8.75188 10.9667ZM11.3892 8.79697L11.4079 8.8696L11.3892 8.79697ZM11.3256 8.53871L11.3069 8.46607L11.3256 8.53871ZM10.8688 8.1746L10.8106 8.22187L10.8688 8.1746ZM10.0895 7.5332L10.1039 7.45952L10.1072 7.4603L10.0895 7.5332ZM8.71288 7.07503L8.66107 7.12926H8.66107L8.71288 7.07503ZM8.56691 7.26546L8.49703 7.23751L8.49987 7.23185L8.56691 7.26546ZM8.56691 7.26547L8.63679 7.29342L8.63399 7.29901L8.56691 7.26547ZM8.56691 7.26547L8.63399 7.29901L8.63395 7.29909L8.56691 7.26547ZM8.49534 7.3919L8.44051 7.34073V7.34073L8.49534 7.3919ZM8.31691 7.94602L8.36872 7.8918L8.31691 7.94602ZM9.47913 8.17629L9.48107 8.10131L9.48201 8.10135L9.47913 8.17629ZM9.47915 8.17629L9.47721 8.25127L9.47627 8.25124L9.47915 8.17629ZM9.71713 8.18475L9.71287 8.25963L9.71265 8.25962L9.71713 8.18475ZM9.75634 8.18699L9.7522 8.26187L9.75208 8.26186L9.75634 8.18699ZM10.2292 8.32519L10.1858 8.38639L10.2292 8.32519ZM10.3466 8.40968L10.3028 8.47052L10.3027 8.47047L10.3466 8.40968ZM10.3467 8.40973L10.3029 8.47065L10.3028 8.47057L10.3467 8.40973ZM10.4509 8.48264L10.4929 8.42046L10.4929 8.4205L10.4509 8.48264ZM10.4711 8.4963L10.5131 8.43416L10.5132 8.43418L10.4711 8.4963ZM2.2816 8.16595L2.33858 8.21472H2.33858L2.2816 8.16595ZM2.29595 8.35371L2.34531 8.29724L2.34531 8.29724L2.29595 8.35371ZM3.2061 7.88566L3.20489 7.81067H3.20489L3.2061 7.88566ZM3.23051 7.88525L3.23181 7.96024H3.23181L3.23051 7.88525ZM3.35772 7.88518L3.35861 7.81019L3.35703 7.96018L3.35772 7.88518ZM3.50245 7.88704L3.50287 7.81204H3.50287L3.50245 7.88704ZM3.96906 7.72904L4.00861 7.79276H4.00861L3.96906 7.72904ZM4.00245 7.70838L3.96319 7.64448H3.96319L4.00245 7.70838ZM4.20227 7.5788L4.16086 7.51627L4.20227 7.5788ZM5.28638 7.1008L5.29772 7.02666H5.29772L5.28638 7.1008ZM5.45805 7.65706L5.53231 7.66753V7.66753L5.45805 7.65706ZM5.47194 7.80167L5.54614 7.79076H5.54614L5.47194 7.80167ZM5.4616 8.04139L5.45025 8.11553L5.4616 8.04139ZM4.07111 8.4557L4.10157 8.52431L4.09849 8.52552L4.07111 8.4557ZM3.06485 8.3773L3.08543 8.30518H3.08543L3.06485 8.3773ZM2.48186 8.34102L2.53884 8.38979H2.53884L2.48186 8.34102ZM4.68752 11.1169C4.68993 11.148 4.7178 11.1727 4.75063 11.1705L4.76067 11.3201C4.64693 11.3278 4.54683 11.2427 4.53797 11.1285L4.68752 11.1169ZM5.12215 10.3229C5.03566 10.4122 4.91981 10.5322 4.82847 10.672C4.73684 10.8122 4.67564 10.9639 4.68752 11.1169L4.53797 11.1285C4.52242 10.9283 4.60294 10.7429 4.7029 10.5899C4.80316 10.4365 4.92877 10.307 5.01438 10.2186L5.12215 10.3229ZM5.13914 10.3054L5.12217 10.3229L5.01436 10.2186L5.03133 10.2011L5.13914 10.3054ZM5.22754 10.2169C5.19298 10.2506 5.16569 10.2779 5.13919 10.3053L5.03129 10.2011C5.05914 10.1723 5.08753 10.1439 5.12274 10.1096L5.22754 10.2169ZM5.33153 10.1155C5.32012 10.1268 5.29395 10.1523 5.27091 10.1747C5.25932 10.186 5.24844 10.1966 5.24045 10.2043C5.23646 10.2082 5.23319 10.2114 5.23092 10.2136C5.22978 10.2147 5.2289 10.2156 5.2283 10.2161C5.228 10.2164 5.22776 10.2167 5.22761 10.2168C5.22753 10.2169 5.22747 10.2169 5.22743 10.217C5.22741 10.217 5.2274 10.217 5.22738 10.217C5.22738 10.217 5.22737 10.217 5.22737 10.217C5.22736 10.217 5.22735 10.2171 5.22735 10.2171C5.22733 10.2171 5.12151 10.2157 5.12245 10.1098L5.22783 10.2166C5.22876 10.1108 5.12294 10.1094 5.12293 10.1094C5.12292 10.1094 5.12291 10.1094 5.12291 10.1094C5.12291 10.1094 5.12291 10.1094 5.12292 10.1094C5.12292 10.1094 5.12294 10.1094 5.12296 10.1093C5.12299 10.1093 5.12305 10.1093 5.12313 10.1092C5.12328 10.109 5.12351 10.1088 5.12381 10.1085C5.12441 10.1079 5.12529 10.1071 5.12642 10.106C5.12869 10.1038 5.13195 10.1006 5.13593 10.0967C5.1439 10.089 5.15475 10.0785 5.1663 10.0672C5.18952 10.0446 5.21519 10.0196 5.22606 10.0089L5.33153 10.1155ZM5.57004 9.63761C5.53331 9.79457 5.49726 9.95163 5.33153 10.1155L5.22606 10.0089C5.35924 9.87715 5.38797 9.75735 5.42398 9.60344L5.57004 9.63761ZM5.57902 9.5995L5.57001 9.63773L5.42401 9.60333L5.43301 9.5651L5.57902 9.5995ZM5.62918 9.36432C5.6115 9.45135 5.59505 9.53235 5.57896 9.59972L5.43307 9.56488C5.44843 9.50052 5.46434 9.42229 5.48218 9.33446L5.62918 9.36432ZM5.62815 9.36871L5.62815 9.36871L5.48321 9.33006L5.48321 9.33006L5.62815 9.36871ZM6.02867 8.30525C5.92951 8.37809 5.84785 8.53626 5.78077 8.74123C5.71506 8.94205 5.6687 9.16976 5.62918 9.36432L5.48218 9.33445C5.52137 9.14154 5.56932 8.90511 5.63821 8.69458C5.70575 8.4882 5.79902 8.28782 5.93986 8.18436L6.02867 8.30525ZM6.43907 8.56186C6.43974 8.56275 6.43515 8.55741 6.41962 8.54492C6.40588 8.53388 6.38751 8.52033 6.36556 8.50515C6.32172 8.47484 6.26612 8.43978 6.20996 8.40775C6.15341 8.3755 6.09849 8.34757 6.0556 8.33054C6.03382 8.32189 6.01813 8.31726 6.00841 8.31555C6.00356 8.31469 6.00281 8.31504 6.00497 8.31488C6.00665 8.31475 6.01699 8.31383 6.02867 8.30525L5.93986 8.18436C5.95889 8.17038 5.97933 8.1664 5.99352 8.16532C6.00819 8.16419 6.02236 8.16569 6.03449 8.16783C6.0587 8.17211 6.08518 8.18089 6.11097 8.19113C6.1632 8.21188 6.22501 8.24365 6.28428 8.27745C6.34393 8.31148 6.40323 8.34884 6.45086 8.38176C6.47463 8.3982 6.49614 8.41397 6.5136 8.42801C6.52926 8.4406 6.5472 8.4561 6.5589 8.47164L6.43907 8.56186ZM6.56632 8.66937C6.5414 8.65085 6.51608 8.63204 6.49504 8.61518C6.47591 8.59986 6.45329 8.58076 6.43907 8.56186L6.5589 8.47164C6.55876 8.47145 6.5607 8.47389 6.56672 8.47942C6.57228 8.48453 6.57964 8.49075 6.58882 8.49811C6.60731 8.51292 6.63024 8.52999 6.65581 8.549L6.56632 8.66937ZM6.56947 8.67159L6.56946 8.67159L6.65267 8.54678L6.65267 8.54678L6.56947 8.67159ZM6.72886 8.72556C6.71827 8.73335 6.70829 8.74742 6.70642 8.76549C6.70491 8.78005 6.70958 8.78915 6.70977 8.78953C6.70978 8.78955 6.7053 8.78235 6.68946 8.76727C6.65977 8.73901 6.61395 8.70479 6.56632 8.66938L6.65582 8.549C6.70081 8.58245 6.75511 8.62267 6.79288 8.65862C6.81076 8.67564 6.83184 8.69799 6.84422 8.72302C6.8506 8.73591 6.85816 8.75638 6.85562 8.78094C6.85271 8.80899 6.83777 8.83168 6.81767 8.84645L6.72886 8.72556ZM6.01301 10.0352C6.13694 9.71338 6.24795 9.43703 6.36013 9.21762C6.47167 8.99945 6.58871 8.82851 6.72886 8.72556L6.81767 8.84645C6.70651 8.92811 6.60244 9.07317 6.49369 9.2859C6.38557 9.49738 6.2771 9.76681 6.15299 10.0891L6.01301 10.0352ZM5.27958 10.6527C5.42428 10.5723 5.5781 10.4866 5.7123 10.3843C5.84646 10.2821 5.95522 10.1674 6.01427 10.0322L6.15173 10.0922C6.07835 10.2603 5.94751 10.3937 5.80323 10.5036C5.65899 10.6136 5.49554 10.7043 5.35247 10.7838L5.27958 10.6527ZM4.80336 11.1107C4.79482 11.0007 4.87275 10.9162 4.95481 10.8522C5.04049 10.7854 5.15852 10.72 5.27958 10.6527L5.35247 10.7838C5.22774 10.8532 5.12149 10.9125 5.04702 10.9705C4.96891 11.0314 4.9508 11.0719 4.95291 11.0991L4.80336 11.1107ZM4.75063 11.1705C4.78286 11.1683 4.80572 11.1411 4.80336 11.1107L4.95291 11.0991C4.96183 11.2139 4.87501 11.3125 4.76067 11.3201L4.75063 11.1705ZM8.65813 11.1331C8.68552 11.148 8.72142 11.1381 8.73745 11.1093L8.86844 11.1824C8.8129 11.282 8.68702 11.3196 8.58642 11.2648L8.65813 11.1331ZM8.22899 10.3361C8.2568 10.4573 8.29428 10.6198 8.36177 10.7725C8.42948 10.9258 8.52339 11.0597 8.65813 11.1331L8.58642 11.2648C8.41006 11.1688 8.29844 11.0003 8.22457 10.8332C8.15048 10.6655 8.11032 10.4896 8.08279 10.3697L8.22899 10.3361ZM8.22352 10.3123L8.22899 10.3361L8.0828 10.3697L8.07733 10.3459L8.22352 10.3123ZM8.19745 10.19C8.20693 10.2374 8.21492 10.2751 8.2235 10.3123L8.07735 10.346C8.06833 10.3069 8.06002 10.2677 8.05037 10.2194L8.19745 10.19ZM8.16908 10.0476C8.17233 10.0633 8.17947 10.0991 8.18572 10.1307C8.18886 10.1465 8.19181 10.1614 8.19396 10.1723C8.19504 10.1778 8.19592 10.1823 8.19654 10.1854C8.19684 10.1869 8.19708 10.1881 8.19724 10.189C8.19733 10.1894 8.19739 10.1897 8.19743 10.1899C8.19745 10.19 8.19747 10.1901 8.19748 10.1901C8.19748 10.1902 8.19749 10.1902 8.19749 10.1902C8.19749 10.1902 8.19749 10.1902 8.19749 10.1902C8.19749 10.1902 8.1975 10.1902 8.1975 10.1902C8.1975 10.1903 8.13864 10.2783 8.05043 10.2198L8.19738 10.1897C8.10917 10.1312 8.05031 10.2192 8.05032 10.2192C8.05032 10.2192 8.05032 10.2192 8.05032 10.2192C8.05032 10.2192 8.05032 10.2192 8.05032 10.2192C8.05032 10.2192 8.05031 10.2192 8.05031 10.2191C8.0503 10.2191 8.05028 10.219 8.05026 10.2189C8.05022 10.2187 8.05016 10.2184 8.05008 10.218C8.04992 10.2172 8.04968 10.2159 8.04937 10.2144C8.04876 10.2113 8.04788 10.2068 8.04681 10.2014C8.04465 10.1905 8.04172 10.1756 8.03858 10.1598C8.03228 10.1281 8.02528 10.0929 8.02219 10.0779L8.16908 10.0476ZM7.89818 9.58726C8.00981 9.70355 8.12189 9.81933 8.16908 10.0476L8.02219 10.0779C7.98426 9.89451 7.89944 9.80517 7.78997 9.69114L7.89818 9.58726ZM7.8711 9.55897L7.89826 9.58735L7.78989 9.69106L7.76273 9.66269L7.8711 9.55897ZM7.69903 9.38676C7.76357 9.45011 7.82341 9.50884 7.87126 9.55914L7.76258 9.66252C7.71689 9.61449 7.65909 9.55775 7.59395 9.4938L7.69903 9.38676ZM7.69906 9.38678L7.69908 9.3868L7.59391 9.49376L7.59389 9.49374L7.69906 9.38678ZM7.69852 9.38626L7.69853 9.38627L7.59441 9.49425L7.5944 9.49424L7.69852 9.38626ZM7.03067 8.48128C7.03067 8.53447 7.05016 8.5995 7.08977 8.67531C7.129 8.75038 7.18519 8.83082 7.25193 8.91345C7.38559 9.07895 7.55506 9.24543 7.699 9.38673L7.59392 9.49377C7.45123 9.3537 7.27531 9.18113 7.13523 9.0077C7.06511 8.92087 7.00234 8.83188 6.95683 8.74478C6.9117 8.65841 6.88067 8.56852 6.88067 8.48128H7.03067ZM7.46928 8.27253C7.46942 8.27252 7.46877 8.27257 7.46714 8.27281C7.46557 8.27304 7.46346 8.2734 7.46077 8.27393C7.45534 8.275 7.44837 8.27659 7.4399 8.27876C7.42298 8.28312 7.40162 8.28942 7.37726 8.29745C7.32851 8.31353 7.26991 8.33585 7.2138 8.36169C7.15702 8.38783 7.10604 8.4161 7.07046 8.44338C7.05265 8.45704 7.04126 8.46853 7.0349 8.47717C7.02836 8.48604 7.03067 8.48697 7.03067 8.48128H6.88067C6.88067 8.4437 6.89659 8.41201 6.91414 8.38819C6.93186 8.36414 6.95505 8.34286 6.97918 8.32436C7.02749 8.2873 7.08988 8.25361 7.15106 8.22544C7.2129 8.19697 7.27683 8.17263 7.33027 8.155C7.38049 8.13843 7.4299 8.12491 7.45889 8.1229L7.46928 8.27253ZM7.62876 8.22437C7.59966 8.23517 7.57009 8.24616 7.54449 8.25463C7.52122 8.26233 7.49288 8.2709 7.46928 8.27253L7.45889 8.1229C7.45865 8.12291 7.46175 8.12261 7.46966 8.12058C7.47699 8.11869 7.48621 8.11592 7.49738 8.11222C7.51988 8.10478 7.54668 8.09484 7.57655 8.08375L7.62876 8.22437ZM7.76441 8.11865C7.76517 8.13177 7.77154 8.14781 7.78567 8.15922C7.79706 8.16842 7.80724 8.16945 7.80765 8.1695C7.80768 8.1695 7.79921 8.16934 7.77792 8.17441C7.73806 8.18392 7.6844 8.20371 7.62876 8.22437L7.57655 8.08375C7.62911 8.06423 7.69241 8.0406 7.74313 8.0285C7.76714 8.02278 7.79737 8.01727 7.82511 8.02052C7.83939 8.02219 7.86068 8.027 7.87989 8.0425C7.90183 8.06022 7.91272 8.08511 7.91416 8.11002L7.76441 8.11865ZM8.47292 9.43232C8.27048 9.15309 8.09917 8.90947 7.97625 8.69589C7.85403 8.48352 7.77442 8.29226 7.76441 8.11865L7.91416 8.11002C7.9221 8.24772 7.98709 8.414 8.10626 8.62107C8.22474 8.82692 8.39163 9.06463 8.59436 9.34427L8.47292 9.43232ZM8.59134 10.3837C8.60267 10.2186 8.6146 10.0429 8.60191 9.87464C8.58922 9.70644 8.55229 9.55277 8.47103 9.4296L8.59624 9.347C8.69723 9.50008 8.73784 9.68246 8.75148 9.86336C8.76513 10.0442 8.75219 10.2307 8.74098 10.394L8.59134 10.3837ZM8.71603 11.0325C8.61911 10.9798 8.59069 10.8684 8.58175 10.7648C8.57241 10.6565 8.58185 10.5219 8.59134 10.3837L8.74098 10.394C8.73121 10.5364 8.72307 10.6578 8.73119 10.7519C8.73971 10.8505 8.76379 10.8878 8.78774 10.9008L8.71603 11.0325ZM8.73745 11.1093C8.7532 11.0811 8.74286 11.0471 8.71603 11.0325L8.78774 10.9008C8.88889 10.9559 8.92428 11.0823 8.86844 11.1824L8.73745 11.1093ZM11.558 8.617C11.5853 8.72769 11.5188 8.84104 11.4079 8.8696L11.3705 8.72434C11.4007 8.71657 11.4202 8.68483 11.4123 8.65288L11.558 8.617ZM11.3069 8.46607C11.4184 8.43736 11.5306 8.50573 11.558 8.617L11.4123 8.65288C11.4046 8.62152 11.3739 8.60372 11.3443 8.61134L11.3069 8.46607ZM10.9271 8.12732C11.017 8.23812 11.0939 8.33245 11.164 8.39572C11.2375 8.46206 11.2805 8.47287 11.3069 8.46607L11.3443 8.61134C11.2374 8.63885 11.1407 8.57678 11.0635 8.50707C10.9828 8.43429 10.8979 8.32941 10.8106 8.22187L10.9271 8.12732ZM10.1072 7.4603C10.2854 7.50339 10.4395 7.60908 10.5729 7.73207C10.7062 7.85503 10.8239 8.00024 10.9271 8.12732L10.8106 8.22187C10.7063 8.09334 10.5952 7.95673 10.4712 7.84233C10.3472 7.72797 10.2153 7.64077 10.0719 7.6061L10.1072 7.4603ZM8.7647 7.02081C8.86442 7.1161 9.02535 7.1934 9.25373 7.26356C9.48077 7.33331 9.76494 7.39334 10.1039 7.4596L10.0752 7.60681C9.73667 7.54065 9.44523 7.47931 9.20967 7.40694C8.97545 7.33499 8.78679 7.2494 8.66107 7.12926L8.7647 7.02081ZM8.49987 7.23185C8.525 7.18173 8.55518 7.12127 8.58402 7.07784C8.59768 7.05727 8.61603 7.03263 8.63853 7.01609C8.65012 7.00758 8.66896 6.99657 8.69359 6.99481C8.72172 6.9928 8.74666 7.00357 8.7647 7.02081L8.66107 7.12926C8.67057 7.13834 8.68617 7.14572 8.70428 7.14443C8.71888 7.14339 8.72703 7.1372 8.72737 7.13695C8.72739 7.13694 8.72108 7.14259 8.70898 7.16082C8.68631 7.19496 8.66056 7.24602 8.63396 7.29908L8.49987 7.23185ZM8.49728 7.23761L8.49728 7.23761L8.63655 7.29332L8.63655 7.29332L8.49728 7.23761ZM8.49983 7.23193L8.49983 7.23193L8.63399 7.29901L8.63399 7.29901L8.49983 7.23193ZM8.44051 7.34073C8.44035 7.3409 8.44241 7.33857 8.44682 7.33168C8.45089 7.32531 8.45574 7.31699 8.46139 7.30666C8.47276 7.28589 8.48558 7.26034 8.49987 7.23186L8.63395 7.29909C8.62004 7.32684 8.60591 7.35505 8.59296 7.37869C8.58119 7.40019 8.56631 7.42578 8.55017 7.44308L8.44051 7.34073ZM8.26509 8.00025C8.24802 7.98394 8.24055 7.9645 8.23702 7.95071C8.23337 7.93646 8.23238 7.92224 8.23238 7.90993C8.23239 7.88534 8.23644 7.85774 8.24205 7.83057C8.25341 7.77552 8.27397 7.70914 8.29697 7.6449C8.32012 7.58024 8.34661 7.51536 8.37076 7.46274C8.38282 7.43647 8.39462 7.41255 8.40541 7.39292C8.41509 7.37531 8.42724 7.35495 8.44051 7.34073L8.55017 7.44307C8.55093 7.44226 8.54647 7.4477 8.53686 7.46517C8.52838 7.48061 8.51822 7.50106 8.50709 7.52532C8.48485 7.57375 8.45998 7.6346 8.43819 7.69546C8.41624 7.75676 8.39828 7.81569 8.38895 7.86089C8.38422 7.88384 8.38238 7.90009 8.38238 7.90996C8.38238 7.91489 8.38286 7.91556 8.38232 7.91347C8.38191 7.91183 8.3792 7.90181 8.36872 7.8918L8.26509 8.00025ZM9.47719 8.25126C9.2804 8.24617 9.03923 8.24001 8.81994 8.20872C8.60497 8.17804 8.39143 8.12098 8.26509 8.00025L8.36872 7.8918C8.45767 7.9768 8.62762 8.02976 8.84113 8.06022C9.05031 8.09007 9.28261 8.09617 9.48107 8.10132L9.47719 8.25126ZM9.47627 8.25124L9.47625 8.25123L9.48201 8.10135L9.48203 8.10135L9.47627 8.25124ZM9.71265 8.25962C9.6466 8.25566 9.5668 8.25359 9.47721 8.25127L9.48109 8.10132C9.56986 8.10362 9.65248 8.10575 9.72162 8.10989L9.71265 8.25962ZM9.75208 8.26186L9.71287 8.25963L9.72139 8.10988L9.7606 8.11211L9.75208 8.26186ZM10.1858 8.38639C10.033 8.2781 9.91002 8.27061 9.7522 8.26187L9.76049 8.1121C9.92143 8.12101 10.0824 8.12925 10.2725 8.264L10.1858 8.38639ZM10.3027 8.47047C10.2996 8.46822 10.2106 8.40394 10.1858 8.38639L10.2725 8.264C10.2981 8.28207 10.3878 8.34693 10.3905 8.34888L10.3027 8.47047ZM10.3028 8.47057L10.3028 8.47052L10.3905 8.34884L10.3905 8.34889L10.3028 8.47057ZM10.409 8.54481C10.3757 8.5224 10.3429 8.49935 10.3029 8.47065L10.3904 8.34881C10.4297 8.37698 10.4612 8.39912 10.4929 8.42046L10.409 8.54481ZM10.4292 8.55844L10.4089 8.54478L10.4929 8.4205L10.5131 8.43416L10.4292 8.55844ZM11.4079 8.8696C11.2135 8.91968 11.0169 8.87257 10.8489 8.8007C10.6804 8.72861 10.5311 8.62738 10.4291 8.55843L10.5132 8.43418C10.6161 8.50384 10.7544 8.59711 10.9079 8.66279C11.0619 8.72867 11.222 8.7626 11.3705 8.72434L11.4079 8.8696ZM2.33858 8.21472C2.31831 8.23841 2.32054 8.27559 2.34531 8.29724L2.24658 8.41017C2.16076 8.33514 2.15015 8.2042 2.22462 8.11718L2.33858 8.21472ZM3.20731 7.96065C3.083 7.96265 2.91628 7.96553 2.75285 7.99979C2.58889 8.03417 2.43833 8.09817 2.33858 8.21472L2.22462 8.11718C2.35519 7.96463 2.5432 7.89048 2.72207 7.85298C2.90146 7.81537 3.08184 7.81265 3.20489 7.81067L3.20731 7.96065ZM3.23181 7.96024C3.22386 7.96038 3.21567 7.96051 3.20731 7.96065L3.20489 7.81067C3.21327 7.81053 3.22136 7.8104 3.2292 7.81026L3.23181 7.96024ZM3.35682 7.96018C3.30854 7.9596 3.26997 7.95958 3.23181 7.96024L3.2292 7.81026C3.26928 7.80956 3.3094 7.8096 3.35861 7.81019L3.35682 7.96018ZM3.50203 7.96204C3.48599 7.96195 3.44945 7.96148 3.4173 7.96104C3.40114 7.96082 3.38596 7.9606 3.37483 7.96044C3.36926 7.96036 3.36471 7.96029 3.36154 7.96025C3.35996 7.96022 3.35872 7.9602 3.35788 7.96019C3.35747 7.96019 3.35714 7.96018 3.35693 7.96018C3.35682 7.96018 3.35674 7.96018 3.35668 7.96017C3.35665 7.96017 3.35663 7.96017 3.35662 7.96017C3.35661 7.96017 3.3566 7.96017 3.35659 7.96017C3.35659 7.96017 3.35658 7.96017 3.35658 7.96017C3.35656 7.96017 3.28272 7.88425 3.3584 7.81018L3.35703 7.96018C3.43271 7.88611 3.35887 7.81019 3.35886 7.81019C3.35885 7.81019 3.35885 7.81019 3.35885 7.81019C3.35885 7.81019 3.35885 7.81019 3.35885 7.81019C3.35887 7.81019 3.35889 7.81019 3.35891 7.81019C3.35896 7.81019 3.35904 7.81019 3.35915 7.81019C3.35936 7.8102 3.35968 7.8102 3.3601 7.81021C3.36093 7.81022 3.36216 7.81024 3.36374 7.81026C3.3669 7.81031 3.37144 7.81037 3.377 7.81045C3.38811 7.81062 3.40324 7.81083 3.41935 7.81105C3.45175 7.8115 3.48758 7.81196 3.50287 7.81204L3.50203 7.96204ZM4.00861 7.79276C3.87166 7.87777 3.7351 7.96334 3.50203 7.96204L3.50287 7.81204C3.69018 7.81309 3.7952 7.74869 3.9295 7.66532L4.00861 7.79276ZM4.04172 7.77228C4.03062 7.7791 4.01965 7.78591 4.00861 7.79276L3.9295 7.66532C3.94049 7.65849 3.95175 7.6515 3.96319 7.64448L4.04172 7.77228ZM4.24368 7.64133C4.16964 7.69036 4.10073 7.73601 4.04172 7.77228L3.96319 7.64448C4.01956 7.60983 4.08613 7.56576 4.16086 7.51627L4.24368 7.64133ZM5.27504 7.17493C5.15342 7.15632 4.98383 7.21043 4.79146 7.30793C4.60299 7.40346 4.4092 7.5317 4.24368 7.64133L4.16086 7.51627C4.32498 7.40757 4.52606 7.27429 4.72365 7.17414C4.91733 7.07596 5.12498 7.00023 5.29772 7.02666L5.27504 7.17493ZM5.38378 7.64658C5.38363 7.64769 5.38416 7.64067 5.38201 7.62085C5.3801 7.60333 5.37669 7.58076 5.3719 7.5545C5.36234 7.50208 5.34781 7.43797 5.33075 7.37561C5.31357 7.31281 5.29448 7.25423 5.27619 7.21186C5.26691 7.19035 5.25909 7.17598 5.25343 7.16789C5.25061 7.16386 5.24983 7.16358 5.25147 7.16499C5.25275 7.16609 5.26071 7.17274 5.27503 7.17493L5.29772 7.02666C5.32106 7.03023 5.33833 7.04187 5.34913 7.05114C5.3603 7.06072 5.36926 7.07179 5.37632 7.08188C5.39042 7.10203 5.40293 7.12696 5.41392 7.15244C5.43619 7.20404 5.45743 7.27022 5.47543 7.33602C5.49356 7.40227 5.50907 7.47061 5.51947 7.52757C5.52465 7.55601 5.52871 7.58237 5.53113 7.60464C5.5333 7.62462 5.53503 7.64826 5.53231 7.66753L5.38378 7.64658ZM5.39774 7.81259C5.39322 7.78188 5.38862 7.75067 5.38566 7.72387C5.38297 7.69951 5.38048 7.67001 5.38378 7.64658L5.53231 7.66753C5.53235 7.66729 5.53199 7.67038 5.53234 7.67855C5.53266 7.68611 5.53346 7.69571 5.53475 7.7074C5.53735 7.73095 5.5415 7.75923 5.54614 7.79076L5.39774 7.81259ZM5.47294 7.96726C5.45995 7.96527 5.44293 7.96816 5.42884 7.97961C5.41748 7.98884 5.41435 7.99858 5.41421 7.99898C5.4142 7.99901 5.41613 7.99075 5.41559 7.96888C5.41458 7.92791 5.40638 7.87132 5.39774 7.81259L5.54614 7.79076C5.5543 7.84622 5.56426 7.91306 5.56554 7.96519C5.56615 7.98986 5.56526 8.02057 5.55631 8.04703C5.5517 8.06065 5.54258 8.08048 5.52342 8.09604C5.50152 8.11383 5.47491 8.1193 5.45025 8.11553L5.47294 7.96726ZM4.04068 8.38715C4.35589 8.2472 4.6298 8.13028 4.86427 8.05446C5.09741 7.97906 5.30104 7.94095 5.47294 7.96726L5.45025 8.11553C5.31391 8.09467 5.13775 8.12366 4.91043 8.19718C4.68444 8.27026 4.41723 8.38409 4.10155 8.52425L4.04068 8.38715ZM3.08543 8.30518C3.24463 8.35061 3.41398 8.3988 3.5812 8.42136C3.74837 8.44392 3.90636 8.43975 4.04373 8.38588L4.09849 8.52552C3.92775 8.59248 3.74092 8.59428 3.56114 8.57002C3.38141 8.54576 3.20168 8.49434 3.04427 8.44942L3.08543 8.30518ZM2.42488 8.29225C2.49663 8.20841 2.61148 8.20378 2.71472 8.21658C2.82253 8.22995 2.95223 8.26716 3.08543 8.30518L3.04427 8.44942C2.90703 8.41025 2.78997 8.37706 2.69627 8.36544C2.598 8.35326 2.55657 8.36907 2.53884 8.38979L2.42488 8.29225ZM2.34531 8.29724C2.36963 8.3185 2.40501 8.31546 2.42488 8.29225L2.53884 8.38979C2.46395 8.47728 2.33286 8.4856 2.24658 8.41017L2.34531 8.29724Z" fill="#984111"/>
<path fill-rule="evenodd" clip-rule="evenodd" d="M7.00002 2.05908C6.87258 2.05908 6.76459 2.15293 6.74683 2.27914L6.33336 5.21698H7.66669L7.25322 2.27914C7.23546 2.15293 7.12747 2.05908 7.00002 2.05908ZM10.4937 3.50621C10.4036 3.4161 10.2609 3.4061 10.1591 3.48278L7.78934 5.26778L8.73215 6.21059L10.5171 3.84085C10.5938 3.73905 10.5838 3.59633 10.4937 3.50621ZM11.7208 6.74671C11.847 6.76447 11.9408 6.87246 11.9408 6.9999C11.9408 7.12735 11.847 7.23533 11.7208 7.2531L8.78295 7.66657V6.33324L11.7208 6.74671ZM10.4937 10.4936C10.5838 10.4035 10.5938 10.2608 10.5171 10.159L8.73215 7.78922L7.78934 8.73203L10.1591 10.517C10.2609 10.5937 10.4036 10.5837 10.4937 10.4936ZM7.25322 11.7207C7.23546 11.8469 7.12747 11.9407 7.00002 11.9407C6.87258 11.9407 6.76459 11.8469 6.74683 11.7207L6.33336 8.78283H7.66669L7.25322 11.7207ZM3.50634 10.4936C3.59645 10.5837 3.73918 10.5937 3.84097 10.517L6.21071 8.73203L5.2679 7.78922L3.4829 10.159C3.40623 10.2608 3.41622 10.4035 3.50634 10.4936ZM2.27926 7.2531C2.15306 7.23533 2.0592 7.12735 2.0592 6.9999C2.0592 6.87246 2.15306 6.76447 2.27926 6.74671L5.2171 6.33324V7.66657L2.27926 7.2531ZM3.50634 3.50621C3.41622 3.59633 3.40623 3.73905 3.4829 3.84085L5.2679 6.21059L6.21071 5.26778L3.84097 3.48278C3.73918 3.4061 3.59645 3.4161 3.50634 3.50621Z" fill="#FFC125"/>
<path d="M6.74683 2.27914L6.67256 2.26868V2.26868L6.74683 2.27914ZM6.33336 5.21698L6.25909 5.20652L6.24706 5.29198H6.33336V5.21698ZM7.66669 5.21698V5.29198H7.75299L7.74096 5.20652L7.66669 5.21698ZM7.25322 2.27914L7.32749 2.26868V2.26868L7.25322 2.27914ZM10.1591 3.48278L10.114 3.42288V3.42288L10.1591 3.48278ZM7.78934 5.26778L7.74421 5.20787L7.67529 5.25979L7.73631 5.32081L7.78934 5.26778ZM8.73215 6.21059L8.67912 6.26362L8.74013 6.32464L8.79205 6.25571L8.73215 6.21059ZM10.5171 3.84085L10.4572 3.79573L10.5171 3.84085ZM11.7208 6.74671L11.7103 6.82098L11.7208 6.74671ZM11.7208 7.2531L11.7312 7.32736L11.7208 7.2531ZM8.78295 7.66657H8.70795V7.75286L8.7934 7.74084L8.78295 7.66657ZM8.78295 6.33324L8.7934 6.25897L8.70795 6.24694V6.33324H8.78295ZM10.5171 10.159L10.5771 10.1138L10.5171 10.159ZM10.4937 10.4936L10.5467 10.5466L10.4937 10.4936ZM8.73215 7.78922L8.79206 7.74409L8.74014 7.67516L8.67912 7.73618L8.73215 7.78922ZM7.78934 8.73203L7.73631 8.67899L7.67529 8.74001L7.74422 8.79193L7.78934 8.73203ZM10.1591 10.517L10.2042 10.4571L10.2042 10.4571L10.1591 10.517ZM7.25322 11.7207L7.17895 11.7102L7.25322 11.7207ZM6.74683 11.7207L6.67256 11.7311L6.74683 11.7207ZM6.33336 8.78283V8.70783H6.24706L6.25909 8.79328L6.33336 8.78283ZM7.66669 8.78283L7.74096 8.79328L7.75299 8.70783H7.66669V8.78283ZM3.84097 10.517L3.79585 10.4571V10.4571L3.84097 10.517ZM3.50634 10.4936L3.4533 10.5466H3.4533L3.50634 10.4936ZM6.21071 8.73203L6.25584 8.79193L6.32476 8.74001L6.26374 8.67899L6.21071 8.73203ZM5.2679 7.78922L5.32093 7.73618L5.25991 7.67516L5.20799 7.74409L5.2679 7.78922ZM3.4829 10.159L3.54281 10.2041L3.54281 10.2041L3.4829 10.159ZM2.27926 7.2531L2.26881 7.32736H2.26881L2.27926 7.2531ZM2.27926 6.74671L2.26881 6.67244H2.26881L2.27926 6.74671ZM5.2171 6.33324H5.2921V6.24694L5.20665 6.25897L5.2171 6.33324ZM5.2171 7.66657L5.20665 7.74084L5.2921 7.75286V7.66657H5.2171ZM3.4829 3.84085L3.54281 3.79573L3.4829 3.84085ZM3.50634 3.50621L3.4533 3.45318L3.50634 3.50621ZM5.2679 6.21059L5.20799 6.25571L5.25991 6.32464L5.32093 6.26362L5.2679 6.21059ZM6.21071 5.26778L6.26374 5.32081L6.32476 5.25979L6.25584 5.20787L6.21071 5.26778ZM3.84097 3.48278L3.79585 3.54269L3.84097 3.48278ZM6.8211 2.28959C6.83365 2.20041 6.90996 2.13408 7.00002 2.13408V1.98408C6.8352 1.98408 6.69554 2.10546 6.67256 2.26868L6.8211 2.28959ZM6.40763 5.22743L6.8211 2.28959L6.67256 2.26868L6.25909 5.20652L6.40763 5.22743ZM7.66669 5.14198H6.33336V5.29198H7.66669V5.14198ZM7.17895 2.28959L7.59242 5.22743L7.74096 5.20652L7.32749 2.26868L7.17895 2.28959ZM7.00002 2.13408C7.09009 2.13408 7.1664 2.20041 7.17895 2.28959L7.32749 2.26868C7.30451 2.10546 7.16485 1.98408 7.00002 1.98408V2.13408ZM10.2042 3.54269C10.2761 3.4885 10.377 3.49556 10.4407 3.55925L10.5467 3.45318C10.4302 3.33663 10.2456 3.32371 10.114 3.42288L10.2042 3.54269ZM7.83446 5.32769L10.2042 3.54269L10.114 3.42288L7.74421 5.20787L7.83446 5.32769ZM8.78518 6.15756L7.84237 5.21475L7.73631 5.32081L8.67912 6.26362L8.78518 6.15756ZM10.4572 3.79573L8.67224 6.16546L8.79205 6.25571L10.5771 3.88598L10.4572 3.79573ZM10.4407 3.55925C10.5044 3.62293 10.5114 3.72379 10.4572 3.79573L10.5771 3.88598C10.6762 3.75432 10.6633 3.56973 10.5467 3.45318L10.4407 3.55925ZM12.0158 6.9999C12.0158 6.83507 11.8945 6.69541 11.7312 6.67244L11.7103 6.82098C11.7995 6.83353 11.8658 6.90984 11.8658 6.9999H12.0158ZM11.7312 7.32736C11.8945 7.30439 12.0158 7.16473 12.0158 6.9999H11.8658C11.8658 7.08996 11.7995 7.16628 11.7103 7.17883L11.7312 7.32736ZM8.7934 7.74084L11.7312 7.32736L11.7103 7.17883L8.7725 7.5923L8.7934 7.74084ZM8.70795 6.33324V7.66657H8.85795V6.33324H8.70795ZM11.7312 6.67244L8.7934 6.25897L8.7725 6.4075L11.7103 6.82098L11.7312 6.67244ZM10.4572 10.2041C10.5114 10.276 10.5044 10.3769 10.4407 10.4406L10.5467 10.5466C10.6633 10.4301 10.6762 10.2455 10.5771 10.1138L10.4572 10.2041ZM8.67224 7.83434L10.4572 10.2041L10.5771 10.1138L8.79206 7.74409L8.67224 7.83434ZM7.84237 8.78506L8.78518 7.84225L8.67912 7.73618L7.73631 8.67899L7.84237 8.78506ZM10.2042 10.4571L7.83446 8.67212L7.74422 8.79193L10.114 10.5769L10.2042 10.4571ZM10.4407 10.4406C10.377 10.5042 10.2761 10.5113 10.2042 10.4571L10.114 10.5769C10.2456 10.6761 10.4302 10.6632 10.5467 10.5466L10.4407 10.4406ZM7.00002 12.0157C7.16485 12.0157 7.30451 11.8943 7.32749 11.7311L7.17895 11.7102C7.1664 11.7994 7.09009 11.8657 7.00002 11.8657V12.0157ZM6.67256 11.7311C6.69554 11.8943 6.8352 12.0157 7.00002 12.0157V11.8657C6.90996 11.8657 6.83365 11.7994 6.8211 11.7102L6.67256 11.7311ZM6.25909 8.79328L6.67256 11.7311L6.8211 11.7102L6.40763 8.77238L6.25909 8.79328ZM7.66669 8.70783H6.33336V8.85783H7.66669V8.70783ZM7.32749 11.7311L7.74096 8.79328L7.59242 8.77238L7.17895 11.7102L7.32749 11.7311ZM3.79585 10.4571C3.72391 10.5113 3.62305 10.5042 3.55937 10.4406L3.4533 10.5466C3.56985 10.6632 3.75444 10.6761 3.8861 10.5769L3.79585 10.4571ZM6.16559 8.67212L3.79585 10.4571L3.8861 10.5769L6.25584 8.79193L6.16559 8.67212ZM5.21487 7.84225L6.15768 8.78506L6.26374 8.67899L5.32093 7.73618L5.21487 7.84225ZM3.54281 10.2041L5.32781 7.83434L5.20799 7.74409L3.423 10.1138L3.54281 10.2041ZM3.55937 10.4406C3.49569 10.3769 3.48862 10.276 3.54281 10.2041L3.423 10.1138C3.32383 10.2455 3.33675 10.4301 3.4533 10.5466L3.55937 10.4406ZM1.9842 6.9999C1.9842 7.16473 2.10559 7.30439 2.26881 7.32736L2.28971 7.17883C2.20053 7.16628 2.1342 7.08996 2.1342 6.9999H1.9842ZM2.26881 6.67244C2.10559 6.69541 1.9842 6.83507 1.9842 6.9999H2.1342C2.1342 6.90984 2.20053 6.83353 2.28971 6.82098L2.26881 6.67244ZM5.20665 6.25897L2.26881 6.67244L2.28971 6.82098L5.22755 6.4075L5.20665 6.25897ZM5.2921 7.66657V6.33324H5.1421V7.66657H5.2921ZM2.26881 7.32736L5.20665 7.74084L5.22755 7.5923L2.28971 7.17883L2.26881 7.32736ZM3.54281 3.79573C3.48862 3.72379 3.49569 3.62293 3.55937 3.55925L3.4533 3.45318C3.33675 3.56973 3.32383 3.75432 3.423 3.88597L3.54281 3.79573ZM5.32781 6.16546L3.54281 3.79573L3.423 3.88597L5.20799 6.25571L5.32781 6.16546ZM6.15768 5.21475L5.21487 6.15756L5.32093 6.26362L6.26374 5.32081L6.15768 5.21475ZM3.79585 3.54269L6.16559 5.32769L6.25584 5.20787L3.8861 3.42288L3.79585 3.54269ZM3.55937 3.55925C3.62305 3.49556 3.72391 3.4885 3.79585 3.54269L3.8861 3.42288C3.75444 3.32371 3.56985 3.33663 3.4533 3.45318L3.55937 3.55925Z" fill="#984111"/>
<path fill-rule="evenodd" clip-rule="evenodd" d="M6.99998 8.84191C8.06773 8.84191 8.93332 7.98772 8.93332 6.93402C8.93332 5.88032 8.06773 5.02612 6.99998 5.02612C5.93223 5.02612 5.06665 5.88032 5.06665 6.93402C5.06665 7.98772 5.93223 8.84191 6.99998 8.84191Z" fill="#FFC125" stroke="#984111" stroke-width="0.15"/>
<path d="M6.81346 6.43645C6.79352 6.4241 6.70897 6.3683 6.6882 6.35515C6.61503 6.30884 6.55667 6.27865 6.50247 6.26174C6.47276 6.25247 6.44565 6.24779 6.42112 6.24779C6.30346 6.24779 6.13724 6.32123 5.927 6.47089L5.849 6.36418C6.07991 6.1998 6.26911 6.11621 6.42112 6.11621C6.46028 6.11621 6.50069 6.12318 6.54267 6.13628C6.61045 6.15744 6.67795 6.19235 6.76018 6.24439C6.78262 6.25859 6.86644 6.31391 6.88435 6.32501C6.91349 6.34306 6.93235 6.35174 6.93213 6.35174C7.09132 6.35174 7.10096 6.9213 6.98837 7.09594C6.95794 7.14315 6.92059 7.1813 6.87164 7.21971C6.85282 7.23448 6.79371 7.27705 6.785 7.28377C6.74577 7.314 6.73334 7.33161 6.73334 7.35317C6.73334 7.3569 6.78125 7.36877 6.88809 7.36376C6.90926 7.36277 6.93028 7.36136 6.96124 7.35901C7.03717 7.35325 7.04699 7.3526 7.07148 7.3526V7.48418C7.05217 7.48418 7.04196 7.48485 6.97148 7.4902C6.93932 7.49265 6.91719 7.49412 6.89443 7.49519C6.70657 7.50401 6.6 7.4776 6.6 7.35317C6.6 7.2817 6.63456 7.23277 6.70292 7.18007C6.71408 7.17147 6.77257 7.12934 6.78866 7.11671C6.82693 7.08669 6.8544 7.05863 6.87588 7.02531C6.91036 6.97182 6.93177 6.83264 6.92927 6.68509C6.92812 6.61735 6.92194 6.55517 6.91217 6.51156C6.90924 6.49847 6.9061 6.48769 6.90314 6.47979C6.87785 6.47366 6.85063 6.45948 6.81346 6.43645Z" fill="#984111"/>
<path fill-rule="evenodd" clip-rule="evenodd" d="M7.35162 6.39029C7.32263 6.40924 7.29151 6.42957 7.28041 6.43645C7.24325 6.45948 7.21602 6.47366 7.19073 6.47979C7.18777 6.48769 7.18464 6.49847 7.1817 6.51156C7.17193 6.55517 7.16575 6.61735 7.1646 6.68509C7.1621 6.83264 7.18351 6.97182 7.21799 7.02531C7.23947 7.05863 7.26694 7.08669 7.30521 7.11671C7.31458 7.12406 7.3383 7.14141 7.3587 7.15632C7.37335 7.16702 7.38628 7.17648 7.39095 7.18007C7.45932 7.23277 7.49387 7.2817 7.49387 7.35317C7.49387 7.4776 7.3873 7.50401 7.19944 7.49519C7.17668 7.49412 7.15455 7.49265 7.1224 7.4902C7.05192 7.48485 7.04171 7.48418 7.02239 7.48418V7.3526C7.04688 7.3526 7.0567 7.35325 7.13263 7.35901C7.16359 7.36136 7.18461 7.36277 7.20578 7.36376C7.31262 7.36877 7.36054 7.3569 7.36054 7.35317C7.36054 7.33161 7.3481 7.314 7.30887 7.28377C7.30565 7.28128 7.29553 7.27389 7.2831 7.26481C7.26194 7.24935 7.23409 7.22901 7.22223 7.21971C7.17328 7.1813 7.13593 7.14315 7.1055 7.09594C6.99291 6.9213 7.00255 6.35174 7.16175 6.35174C7.16171 6.35174 7.1621 6.35155 7.16287 6.35117C7.16732 6.34897 7.18469 6.3404 7.20952 6.32501C7.21908 6.31909 7.24742 6.30057 7.27517 6.28242C7.29942 6.26657 7.32323 6.25101 7.3337 6.24439C7.41592 6.19235 7.48342 6.15744 7.5512 6.13628C7.59318 6.12318 7.63359 6.11621 7.67275 6.11621C7.82477 6.11621 8.01396 6.1998 8.24487 6.36418L8.16687 6.47089C7.95663 6.32123 7.79041 6.24779 7.67275 6.24779C7.64823 6.24779 7.62111 6.25247 7.59141 6.26174C7.53721 6.27865 7.47884 6.30884 7.40567 6.35515C7.39646 6.36098 7.37471 6.37519 7.35162 6.39029ZM7.1949 6.47033L7.19332 6.47351L7.19429 6.47133L7.1949 6.47033Z" fill="#984111"/>
<path d="M6.66518 7.72276L6.69869 7.78986L6.66518 7.72276ZM7.34201 7.72405L7.38063 7.65976L7.34201 7.72405ZM7.41069 7.76531L7.47229 7.80809L7.51799 7.74228L7.44931 7.70102L7.41069 7.76531ZM7.36499 7.83112L7.30339 7.78835L7.36499 7.83112ZM6.64173 7.83865L6.69869 7.78986L6.64173 7.83865ZM6.57923 7.76569L6.54572 7.69859L6.45977 7.74152L6.52227 7.81448L6.57923 7.76569ZM6.8307 7.81713L6.8084 7.74553L6.67893 7.78586L6.78191 7.87409L6.8307 7.81713ZM7.18515 7.81554L7.23909 7.86765L7.32084 7.78304L7.20963 7.74465L7.18515 7.81554ZM6.61122 7.77304L6.57247 7.70882L6.50108 7.75189L6.55144 7.81834L6.61122 7.77304ZM7.38239 7.77279L7.44645 7.81181L7.48184 7.7537L7.42744 7.71283L7.38239 7.77279ZM6.52351 7.65085L6.56297 7.71463L6.52351 7.65085ZM7.48094 7.65931L7.43502 7.71861V7.71861L7.48094 7.65931ZM7.52686 7.69487L7.57278 7.63558L7.57278 7.63558L7.52686 7.69487ZM7.57942 7.73558L7.6438 7.77405L7.6779 7.71699L7.62534 7.67628L7.57942 7.73558ZM7.54531 7.79264L7.48093 7.75417L7.48093 7.75417L7.54531 7.79264ZM7.51567 7.84226L7.58005 7.88073L7.58005 7.88073L7.51567 7.84226ZM6.48452 7.85412L6.42437 7.89892H6.42437L6.48452 7.85412ZM6.44202 7.79705L6.50217 7.75225L6.50217 7.75225L6.44202 7.79705ZM6.39319 7.73149L6.35372 7.66772L6.28421 7.71073L6.33304 7.77629L6.39319 7.73149ZM6.4627 7.68848L6.42323 7.6247H6.42323L6.4627 7.68848ZM7.01594 7.56415C6.88173 7.56415 6.75333 7.5949 6.63167 7.65566L6.69869 7.78986C6.8 7.73926 6.90551 7.71415 7.01594 7.71415V7.56415ZM7.38063 7.65976C7.2719 7.59445 7.14912 7.56415 7.01594 7.56415V7.71415C7.12568 7.71415 7.22103 7.73887 7.30339 7.78835L7.38063 7.65976ZM7.44931 7.70102L7.38063 7.65976L7.30339 7.78835L7.37207 7.8296L7.44931 7.70102ZM7.42659 7.8739L7.47229 7.80809L7.34908 7.72253L7.30339 7.78835L7.42659 7.8739ZM7.01594 8.12379C7.18785 8.12379 7.32337 8.02255 7.42659 7.8739L7.30339 7.78835C7.21586 7.91439 7.12046 7.97379 7.01594 7.97379V8.12379ZM6.58477 7.88744C6.7054 8.02826 6.84906 8.12379 7.01594 8.12379V7.97379C6.91103 7.97379 6.80526 7.91426 6.69869 7.78986L6.58477 7.88744ZM6.52227 7.81448L6.58477 7.88744L6.69869 7.78986L6.63619 7.71689L6.52227 7.81448ZM6.63167 7.65566L6.54572 7.69859L6.61274 7.83278L6.69869 7.78986L6.63167 7.65566ZM7.01594 7.82379C6.98365 7.82379 6.93854 7.81077 6.8795 7.76018L6.78191 7.87409C6.86025 7.94121 6.93868 7.97379 7.01594 7.97379V7.82379ZM7.13122 7.76343C7.08364 7.81267 7.04577 7.82379 7.01594 7.82379V7.97379C7.09401 7.97379 7.16898 7.94022 7.23909 7.86765L7.13122 7.76343ZM7.01594 7.86415C7.07148 7.86415 7.11914 7.87209 7.16068 7.88643L7.20963 7.74465C7.15042 7.7242 7.08596 7.71415 7.01594 7.71415V7.86415ZM6.85301 7.88874C6.90583 7.87229 6.95991 7.86415 7.01594 7.86415V7.71415C6.94504 7.71415 6.87591 7.7245 6.8084 7.74553L6.85301 7.88874ZM7.01594 7.95537C6.91551 7.95537 6.79975 7.89763 6.67099 7.72774L6.55144 7.81834C6.69464 8.00728 6.84951 8.10537 7.01594 8.10537V7.95537ZM7.31834 7.73378C7.2168 7.90047 7.11384 7.95537 7.01594 7.95537V8.10537C7.18482 8.10537 7.32905 8.00454 7.44645 7.81181L7.31834 7.73378ZM7.01594 7.73257C7.14483 7.73257 7.25034 7.76738 7.33734 7.83275L7.42744 7.71283C7.31182 7.62596 7.17387 7.58257 7.01594 7.58257V7.73257ZM6.64996 7.83726C6.76685 7.76673 6.88845 7.73257 7.01594 7.73257V7.58257C6.8599 7.58257 6.71167 7.62484 6.57247 7.70882L6.64996 7.83726ZM7.01594 7.43257C6.82702 7.43257 6.64845 7.48534 6.48404 7.58707L6.56297 7.71463C6.70488 7.62681 6.8563 7.58257 7.01594 7.58257V7.43257ZM7.52687 7.60002C7.38088 7.48695 7.2072 7.43257 7.01594 7.43257V7.58257C7.17743 7.58257 7.31794 7.62794 7.43502 7.71861L7.52687 7.60002ZM7.57278 7.63558L7.52687 7.60002L7.43502 7.71861L7.48093 7.75417L7.57278 7.63558ZM7.62534 7.67628L7.57278 7.63558L7.48093 7.75417L7.53349 7.79487L7.62534 7.67628ZM7.60969 7.83112L7.6438 7.77405L7.51504 7.69711L7.48093 7.75417L7.60969 7.83112ZM7.58005 7.88073L7.60969 7.83112L7.48093 7.75417L7.45129 7.80378L7.58005 7.88073ZM7.01594 8.25537C7.25987 8.25537 7.44672 8.10384 7.58005 7.88073L7.45129 7.80378C7.33303 8.00168 7.18727 8.10537 7.01594 8.10537V8.25537ZM6.42437 7.89892C6.58325 8.11225 6.77949 8.25537 7.01594 8.25537V8.10537C6.84686 8.10537 6.68979 8.00417 6.54467 7.80933L6.42437 7.89892ZM6.38187 7.84185L6.42437 7.89892L6.54467 7.80933L6.50217 7.75225L6.38187 7.84185ZM6.33304 7.77629L6.38187 7.84185L6.50217 7.75225L6.45334 7.68669L6.33304 7.77629ZM6.42323 7.6247L6.35372 7.66772L6.43265 7.79527L6.50217 7.75225L6.42323 7.6247ZM6.48404 7.58707L6.42323 7.6247L6.50217 7.75225L6.56297 7.71463L6.48404 7.58707Z" fill="#984111"/>
<path d="M6.06523 6.45293L6.09768 6.52054L6.06523 6.45293ZM6.06523 6.81443L6.03277 6.88205L6.03277 6.88205L6.06523 6.81443ZM6.60154 6.81443L6.63399 6.88205V6.88205L6.60154 6.81443ZM6.60154 6.45293L6.56908 6.52054H6.56908L6.60154 6.45293ZM6.07581 6.63085L6.00682 6.60144L6.00682 6.60144L6.07581 6.63085ZM6.08251 6.62099L6.13879 6.67057L6.13879 6.67057L6.08251 6.62099ZM6.13013 6.58816L6.09768 6.52054L6.09768 6.52054L6.13013 6.58816ZM6.53663 6.58816L6.56908 6.52054L6.56908 6.52054L6.53663 6.58816ZM6.58425 6.62099L6.52798 6.67057L6.52798 6.67057L6.58425 6.62099ZM6.59095 6.63085L6.52196 6.66026L6.52196 6.66026L6.59095 6.63085ZM6.59095 6.63652L6.52196 6.6071L6.52196 6.6071L6.59095 6.63652ZM6.58425 6.64638L6.52798 6.59679L6.52798 6.59679L6.58425 6.64638ZM6.53663 6.6792L6.56908 6.74682H6.56908L6.53663 6.6792ZM6.13013 6.6792L6.09768 6.74682H6.09768L6.13013 6.6792ZM6.08251 6.64638L6.02624 6.69596H6.02624L6.08251 6.64638ZM6.07581 6.63652L6.00682 6.66593L6.00682 6.66593L6.07581 6.63652ZM7.39856 6.45293L7.3661 6.38532V6.38532L7.39856 6.45293ZM7.39856 6.81443L7.3661 6.88205V6.88205L7.39856 6.81443ZM7.93487 6.81443L7.90242 6.74682V6.74682L7.93487 6.81443ZM7.93487 6.45293L7.90242 6.52054V6.52054L7.93487 6.45293ZM7.40915 6.63085L7.34015 6.60144L7.34015 6.60144L7.40915 6.63085ZM7.41585 6.62099L7.35958 6.5714L7.35958 6.5714L7.41585 6.62099ZM7.46347 6.58816L7.49592 6.65577L7.46347 6.58816ZM7.86996 6.58816L7.83751 6.65577L7.86996 6.58816ZM7.91758 6.62099L7.86131 6.67057L7.86131 6.67057L7.91758 6.62099ZM7.92428 6.63085L7.85529 6.66026L7.85529 6.66026L7.92428 6.63085ZM7.92428 6.63652L7.85529 6.6071L7.85529 6.6071L7.92428 6.63652ZM7.91758 6.64638L7.86131 6.59679L7.86131 6.59679L7.91758 6.64638ZM7.86996 6.6792L7.83751 6.61159L7.86996 6.6792ZM7.46347 6.6792L7.49592 6.61159L7.46347 6.6792ZM7.41585 6.64638L7.35958 6.69596L7.35958 6.69596L7.41585 6.64638ZM7.40915 6.63652L7.34015 6.66592L7.34015 6.66593L7.40915 6.63652ZM6.09768 6.52054C6.158 6.49159 6.24133 6.47368 6.33338 6.47368V6.32368C6.22393 6.32368 6.11747 6.34466 6.03277 6.38532L6.09768 6.52054ZM6.00005 6.63368C6.00005 6.58989 6.03675 6.54979 6.09768 6.52054L6.03277 6.38532C5.95949 6.42049 5.85005 6.49845 5.85005 6.63368H6.00005ZM6.09768 6.74682C6.03675 6.71757 6.00005 6.67747 6.00005 6.63368H5.85005C5.85005 6.76891 5.95949 6.84687 6.03277 6.88205L6.09768 6.74682ZM6.33338 6.79368C6.24133 6.79368 6.158 6.77577 6.09768 6.74682L6.03277 6.88205C6.11747 6.9227 6.22393 6.94368 6.33338 6.94368V6.79368ZM6.56908 6.74682C6.50877 6.77577 6.42543 6.79368 6.33338 6.79368V6.94368C6.44284 6.94368 6.5493 6.9227 6.63399 6.88205L6.56908 6.74682ZM6.66672 6.63368C6.66672 6.67747 6.63001 6.71757 6.56908 6.74682L6.63399 6.88205C6.70727 6.84687 6.81672 6.76891 6.81672 6.63368H6.66672ZM6.56908 6.52054C6.63001 6.54979 6.66672 6.58989 6.66672 6.63368H6.81672C6.81672 6.49845 6.70727 6.42049 6.63399 6.38532L6.56908 6.52054ZM6.33338 6.47368C6.42543 6.47368 6.50877 6.49159 6.56908 6.52054L6.63399 6.38532C6.5493 6.34466 6.44284 6.32368 6.33338 6.32368V6.47368ZM6.00682 6.60144C6.00233 6.61196 6.00005 6.62275 6.00005 6.63368H6.15005C6.15005 6.63451 6.15004 6.63694 6.14977 6.64003C6.14951 6.64292 6.14909 6.64568 6.14854 6.64829C6.14746 6.65341 6.146 6.65746 6.14481 6.66026L6.00682 6.60144ZM6.02624 6.5714C6.0178 6.58099 6.01126 6.59103 6.00682 6.60144L6.14481 6.66026C6.14204 6.66676 6.13923 6.67007 6.13879 6.67057L6.02624 6.5714ZM6.09768 6.52054C6.06751 6.53502 6.04311 6.55226 6.02624 6.5714L6.13879 6.67057C6.13858 6.67081 6.14459 6.66441 6.16259 6.65577L6.09768 6.52054ZM6.33338 6.47368C6.24133 6.47368 6.158 6.49159 6.09768 6.52054L6.16259 6.65577C6.19854 6.63851 6.25875 6.62368 6.33338 6.62368V6.47368ZM6.56908 6.52054C6.50877 6.49159 6.42544 6.47368 6.33338 6.47368V6.62368C6.40801 6.62368 6.46822 6.63851 6.50417 6.65577L6.56908 6.52054ZM6.64052 6.5714C6.62366 6.55226 6.59925 6.53502 6.56908 6.52054L6.50417 6.65577C6.52218 6.66441 6.52819 6.67081 6.52798 6.67057L6.64052 6.5714ZM6.65994 6.60144C6.65551 6.59103 6.64897 6.58099 6.64052 6.5714L6.52798 6.67057C6.52753 6.67007 6.52473 6.66676 6.52196 6.66026L6.65994 6.60144ZM6.66672 6.63368C6.66672 6.62275 6.66443 6.61196 6.65994 6.60144L6.52196 6.66026C6.52076 6.65746 6.5193 6.65341 6.51823 6.64829C6.51768 6.64568 6.51725 6.64292 6.517 6.64003C6.51672 6.63694 6.51672 6.63451 6.51672 6.63368H6.66672ZM6.65994 6.66593C6.66443 6.6554 6.66672 6.64462 6.66672 6.63368H6.51672C6.51672 6.63285 6.51672 6.63042 6.517 6.62734C6.51725 6.62444 6.51768 6.62168 6.51823 6.61907C6.5193 6.61395 6.52076 6.60991 6.52196 6.6071L6.65994 6.66593ZM6.64052 6.69596C6.64897 6.68638 6.65551 6.67633 6.65994 6.66593L6.52196 6.6071C6.52473 6.60061 6.52753 6.5973 6.52798 6.59679L6.64052 6.69596ZM6.56908 6.74682C6.59925 6.73234 6.62366 6.7151 6.64052 6.69596L6.52798 6.59679C6.52819 6.59656 6.52218 6.60295 6.50417 6.61159L6.56908 6.74682ZM6.33338 6.79368C6.42544 6.79368 6.50877 6.77577 6.56908 6.74682L6.50417 6.61159C6.46822 6.62885 6.40801 6.64368 6.33338 6.64368V6.79368ZM6.09768 6.74682C6.158 6.77577 6.24133 6.79368 6.33338 6.79368V6.64368C6.25875 6.64368 6.19854 6.62885 6.16259 6.61159L6.09768 6.74682ZM6.02624 6.69596C6.04311 6.7151 6.06751 6.73234 6.09768 6.74682L6.16259 6.61159C6.14459 6.60295 6.13858 6.59656 6.13879 6.59679L6.02624 6.69596ZM6.00682 6.66593C6.01126 6.67633 6.0178 6.68638 6.02624 6.69596L6.13879 6.59679C6.13923 6.5973 6.14204 6.60061 6.14481 6.6071L6.00682 6.66593ZM6.00005 6.63368C6.00005 6.64462 6.00233 6.6554 6.00682 6.66593L6.14481 6.6071C6.146 6.60991 6.14746 6.61395 6.14854 6.61907C6.14909 6.62168 6.14951 6.62444 6.14977 6.62734C6.15004 6.63042 6.15005 6.63285 6.15005 6.63368H6.00005ZM7.43101 6.52054C7.49133 6.49159 7.57466 6.47368 7.66672 6.47368V6.32368C7.55726 6.32368 7.4508 6.34466 7.3661 6.38532L7.43101 6.52054ZM7.33338 6.63368C7.33338 6.58989 7.37008 6.54979 7.43101 6.52054L7.3661 6.38532C7.29283 6.42049 7.18338 6.49845 7.18338 6.63368H7.33338ZM7.43101 6.74682C7.37008 6.71757 7.33338 6.67747 7.33338 6.63368H7.18338C7.18338 6.76891 7.29283 6.84687 7.3661 6.88205L7.43101 6.74682ZM7.66672 6.79368C7.57466 6.79368 7.49133 6.77577 7.43101 6.74682L7.3661 6.88205C7.4508 6.9227 7.55726 6.94368 7.66672 6.94368V6.79368ZM7.90242 6.74682C7.8421 6.77577 7.75877 6.79368 7.66672 6.79368V6.94368C7.77617 6.94368 7.88263 6.9227 7.96733 6.88205L7.90242 6.74682ZM8.00005 6.63368C8.00005 6.67747 7.96335 6.71757 7.90242 6.74682L7.96733 6.88205C8.04061 6.84687 8.15005 6.76891 8.15005 6.63368H8.00005ZM7.90242 6.52054C7.96335 6.54979 8.00005 6.58989 8.00005 6.63368H8.15005C8.15005 6.49845 8.04061 6.42049 7.96733 6.38532L7.90242 6.52054ZM7.66672 6.47368C7.75877 6.47368 7.8421 6.49159 7.90242 6.52054L7.96733 6.38532C7.88263 6.34466 7.77617 6.32368 7.66672 6.32368V6.47368ZM7.34015 6.60144C7.33567 6.61196 7.33338 6.62275 7.33338 6.63368H7.48338C7.48338 6.63451 7.48337 6.63694 7.4831 6.64003C7.48284 6.64292 7.48242 6.64568 7.48187 6.64829C7.4808 6.65341 7.47933 6.65745 7.47814 6.66026L7.34015 6.60144ZM7.35958 6.5714C7.35113 6.58099 7.34459 6.59103 7.34015 6.60144L7.47814 6.66026C7.47537 6.66676 7.47256 6.67007 7.47212 6.67057L7.35958 6.5714ZM7.43101 6.52054C7.40085 6.53502 7.37644 6.55226 7.35958 6.5714L7.47212 6.67057C7.47191 6.67081 7.47792 6.66441 7.49592 6.65577L7.43101 6.52054ZM7.66672 6.47368C7.57466 6.47368 7.49133 6.49159 7.43101 6.52054L7.49592 6.65577C7.53188 6.63851 7.59208 6.62368 7.66672 6.62368V6.47368ZM7.90242 6.52054C7.8421 6.49159 7.75877 6.47368 7.66672 6.47368V6.62368C7.74135 6.62368 7.80155 6.63851 7.83751 6.65577L7.90242 6.52054ZM7.97385 6.5714C7.95699 6.55226 7.93258 6.53502 7.90242 6.52054L7.83751 6.65577C7.85551 6.66441 7.86152 6.67081 7.86131 6.67057L7.97385 6.5714ZM7.99328 6.60144C7.98884 6.59103 7.9823 6.58099 7.97385 6.5714L7.86131 6.67057C7.86087 6.67007 7.85806 6.66676 7.85529 6.66026L7.99328 6.60144ZM8.00005 6.63368C8.00005 6.62275 7.99777 6.61197 7.99328 6.60144L7.85529 6.66026C7.8541 6.65746 7.85264 6.65341 7.85156 6.64828C7.85101 6.64568 7.85059 6.64292 7.85033 6.64002C7.85006 6.63694 7.85005 6.63451 7.85005 6.63368H8.00005ZM7.99328 6.66593C7.99777 6.6554 8.00005 6.64461 8.00005 6.63368H7.85005C7.85005 6.63286 7.85006 6.63042 7.85033 6.62734C7.85059 6.62445 7.85101 6.62168 7.85156 6.61908C7.85264 6.61396 7.8541 6.60991 7.85529 6.6071L7.99328 6.66593ZM7.97385 6.69596C7.9823 6.68638 7.98884 6.67633 7.99328 6.66593L7.85529 6.6071C7.85806 6.60061 7.86087 6.5973 7.86131 6.59679L7.97385 6.69596ZM7.90242 6.74682C7.93258 6.73234 7.95699 6.7151 7.97385 6.69596L7.86131 6.59679C7.86152 6.59656 7.85551 6.60295 7.83751 6.61159L7.90242 6.74682ZM7.66672 6.79368C7.75877 6.79368 7.8421 6.77577 7.90242 6.74682L7.83751 6.61159C7.80155 6.62885 7.74135 6.64368 7.66672 6.64368V6.79368ZM7.43101 6.74682C7.49133 6.77577 7.57466 6.79368 7.66672 6.79368V6.64368C7.59208 6.64368 7.53188 6.62885 7.49592 6.61159L7.43101 6.74682ZM7.35958 6.69596C7.37644 6.7151 7.40085 6.73234 7.43101 6.74682L7.49592 6.61159C7.47792 6.60295 7.47191 6.59656 7.47212 6.59679L7.35958 6.69596ZM7.34015 6.66593C7.34459 6.67633 7.35113 6.68638 7.35958 6.69596L7.47212 6.59679C7.47256 6.5973 7.47537 6.60061 7.47814 6.6071L7.34015 6.66593ZM7.33338 6.63368C7.33338 6.64461 7.33567 6.6554 7.34015 6.66592L7.47814 6.60711C7.47933 6.60991 7.4808 6.61396 7.48187 6.61908C7.48242 6.62168 7.48284 6.62444 7.4831 6.62734C7.48337 6.63042 7.48338 6.63285 7.48338 6.63368H7.33338Z" fill="#984111"/>
</g>
</g>
</svg>
