<svg width="32" height="24" viewBox="0 0 32 24" fill="none" xmlns="http://www.w3.org/2000/svg">
<mask id="mask0" mask-type="alpha" maskUnits="userSpaceOnUse" x="0" y="0" width="32" height="24">
<rect width="32" height="24" fill="white"/>
</mask>
<g mask="url(#mask0)">
<path fill-rule="evenodd" clip-rule="evenodd" d="M0 0V24H32V0H0Z" fill="#279E19"/>
<mask id="mask1" mask-type="alpha" maskUnits="userSpaceOnUse" x="0" y="0" width="32" height="24">
<path fill-rule="evenodd" clip-rule="evenodd" d="M0 0V24H32V0H0Z" fill="white"/>
</mask>
<g mask="url(#mask1)">
<path fill-rule="evenodd" clip-rule="evenodd" d="M17 0H19V13H32V15H19V24H17V15H0V13H17V0Z" fill="#F7FCFF"/>
<path fill-rule="evenodd" clip-rule="evenodd" d="M15 0H17V11H32V13H17V24H15V13H0V11H15V0Z" fill="#272727"/>
<path fill-rule="evenodd" clip-rule="evenodd" d="M13 0H15V9H32V11H15V24H13V11H0V9H13V0Z" fill="#FECA00"/>
<path fill-rule="evenodd" clip-rule="evenodd" d="M16 20C20.4183 20 24 16.4183 24 12C24 7.58172 20.4183 4 16 4C11.5817 4 8 7.58172 8 12C8 16.4183 11.5817 20 16 20Z" fill="#C51918"/>
<path fill-rule="evenodd" clip-rule="evenodd" d="M14.7259 8.41292C14.7259 8.41292 15.1059 7.18 15.9885 7.81694C17.3725 8.49864 17.8291 9.28181 18.3634 10.1687C18.8977 11.0556 17.0533 10.4061 16.7092 9.90691C16.3651 9.40774 14.4565 9.24589 14.7259 8.82941C14.9954 8.41292 14.7259 8.41292 14.7259 8.41292Z" fill="#804BFF"/>
<path fill-rule="evenodd" clip-rule="evenodd" d="M14.4131 14.7255C14.4131 14.7255 13.4734 16.011 14.4131 16.011C15.3528 16.011 19.1625 15.7344 18.7058 15.3682C18.2492 15.002 14.8646 15.3682 14.8646 15.3682L14.4131 14.7255Z" fill="#A95601"/>
<path fill-rule="evenodd" clip-rule="evenodd" d="M15.818 14.6849C15.7603 14.62 14.9027 14.0566 14.5683 12.7686C14.3372 11.8781 14.479 10.2124 14.8044 9.88231C15.6005 9.07481 16.067 9.54931 16.067 10.7601C16.067 11.971 16.1148 14.9841 15.818 14.6849Z" fill="#804BFF"/>
<path fill-rule="evenodd" clip-rule="evenodd" d="M15.7172 14.0545C15.7172 14.0545 15.6184 14.9989 16.1041 16.1013C16.5898 17.2038 17.5708 17.1826 17.5708 16.2802C17.5708 15.3779 18.2867 16.2247 18.5616 16.8269C18.8365 17.4291 18.1246 11.4792 17.1144 10.1481C16.1041 8.81696 15.1294 8.73149 15.4233 9.59168C15.7172 10.4519 15.7172 14.0545 15.7172 14.0545Z" fill="#279E19"/>
<path fill-rule="evenodd" clip-rule="evenodd" d="M15.1273 7.59998C15.1273 7.59998 14.7 7.87402 14.7 8.62882C14.7 9.38363 15.7118 8.39512 15.7118 8.39512L15.1273 7.59998Z" fill="#FECA00"/>
<mask id="path-14-inside-1" fill="white">
<path fill-rule="evenodd" clip-rule="evenodd" d="M15.2183 7.3135L16.0999 6.68498L16.9816 7.3135L16.6563 6.28075L17.5265 5.63645L16.4438 5.6267L16.0999 4.59998L15.7561 5.6267L14.6734 5.63645L15.5436 6.28075L15.2183 7.3135ZM18.1413 7.6903L19.224 7.70005L19.5679 8.72677L19.9117 7.70005L20.9945 7.6903L20.1242 7.046L20.4496 6.01325L19.5679 6.64177L18.6862 6.01325L19.0115 7.046L18.1413 7.6903ZM21.1548 10.3575L20.2846 9.71325L21.3673 9.7035L21.7112 8.67677L22.055 9.7035L23.1378 9.71325L22.2675 10.3575L22.5929 11.3903L21.7112 10.7618L20.8295 11.3903L21.1548 10.3575ZM20.8295 12.6096L21.1548 13.6424L20.2846 14.2867L21.3673 14.2964L21.7112 15.3232L22.055 14.2964L23.1378 14.2867L22.2675 13.6424L22.5929 12.6096L21.7112 13.2382L20.8295 12.6096ZM19.224 16.2999L19.5679 15.2732L19.9117 16.2999L20.9945 16.3096L20.1242 16.9539L20.4496 17.9867L19.5679 17.3582L18.6862 17.9867L19.0115 16.9539L18.1413 16.3096L19.224 16.2999ZM16.9816 16.6864L16.0999 17.315L15.2183 16.6864L15.5436 17.7192L14.6734 18.3635L15.7561 18.3732L16.0999 19.4L16.4438 18.3732L17.5265 18.3635L16.6563 17.7192L16.9816 16.6864ZM12.9759 16.2999L14.0586 16.3096L13.1884 16.9539L13.5137 17.9867L12.632 17.3582L11.7503 17.9867L12.0756 16.9539L11.2054 16.3096L12.2882 16.2999L12.632 15.2732L12.9759 16.2999ZM11.9153 14.2867L11.0451 13.6424L11.3704 12.6096L10.4887 13.2382L9.60704 12.6096L9.93235 13.6424L9.06213 14.2867L10.1449 14.2964L10.4887 15.3232L10.8326 14.2964L11.9153 14.2867ZM11.0451 10.3575L11.3704 11.3903L10.4887 10.7618L9.60704 11.3903L9.93235 10.3575L9.06213 9.71325L10.1449 9.7035L10.4887 8.67677L10.8326 9.7035L11.9153 9.71325L11.0451 10.3575ZM12.632 8.72677L12.9759 7.70005L14.0586 7.6903L13.1884 7.046L13.5137 6.01325L12.632 6.64177L11.7503 6.01325L12.0756 7.046L11.2054 7.6903L12.2882 7.70005L12.632 8.72677Z"/>
</mask>
<path fill-rule="evenodd" clip-rule="evenodd" d="M15.2183 7.3135L16.0999 6.68498L16.9816 7.3135L16.6563 6.28075L17.5265 5.63645L16.4438 5.6267L16.0999 4.59998L15.7561 5.6267L14.6734 5.63645L15.5436 6.28075L15.2183 7.3135ZM18.1413 7.6903L19.224 7.70005L19.5679 8.72677L19.9117 7.70005L20.9945 7.6903L20.1242 7.046L20.4496 6.01325L19.5679 6.64177L18.6862 6.01325L19.0115 7.046L18.1413 7.6903ZM21.1548 10.3575L20.2846 9.71325L21.3673 9.7035L21.7112 8.67677L22.055 9.7035L23.1378 9.71325L22.2675 10.3575L22.5929 11.3903L21.7112 10.7618L20.8295 11.3903L21.1548 10.3575ZM20.8295 12.6096L21.1548 13.6424L20.2846 14.2867L21.3673 14.2964L21.7112 15.3232L22.055 14.2964L23.1378 14.2867L22.2675 13.6424L22.5929 12.6096L21.7112 13.2382L20.8295 12.6096ZM19.224 16.2999L19.5679 15.2732L19.9117 16.2999L20.9945 16.3096L20.1242 16.9539L20.4496 17.9867L19.5679 17.3582L18.6862 17.9867L19.0115 16.9539L18.1413 16.3096L19.224 16.2999ZM16.9816 16.6864L16.0999 17.315L15.2183 16.6864L15.5436 17.7192L14.6734 18.3635L15.7561 18.3732L16.0999 19.4L16.4438 18.3732L17.5265 18.3635L16.6563 17.7192L16.9816 16.6864ZM12.9759 16.2999L14.0586 16.3096L13.1884 16.9539L13.5137 17.9867L12.632 17.3582L11.7503 17.9867L12.0756 16.9539L11.2054 16.3096L12.2882 16.2999L12.632 15.2732L12.9759 16.2999ZM11.9153 14.2867L11.0451 13.6424L11.3704 12.6096L10.4887 13.2382L9.60704 12.6096L9.93235 13.6424L9.06213 14.2867L10.1449 14.2964L10.4887 15.3232L10.8326 14.2964L11.9153 14.2867ZM11.0451 10.3575L11.3704 11.3903L10.4887 10.7618L9.60704 11.3903L9.93235 10.3575L9.06213 9.71325L10.1449 9.7035L10.4887 8.67677L10.8326 9.7035L11.9153 9.71325L11.0451 10.3575ZM12.632 8.72677L12.9759 7.70005L14.0586 7.6903L13.1884 7.046L13.5137 6.01325L12.632 6.64177L11.7503 6.01325L12.0756 7.046L11.2054 7.6903L12.2882 7.70005L12.632 8.72677Z" fill="#279E19"/>
<path d="M16.0999 6.68498L16.158 6.60355L16.0999 6.56217L16.0419 6.60355L16.0999 6.68498ZM15.2183 7.3135L15.1229 7.28346L15.0332 7.56826L15.2763 7.39493L15.2183 7.3135ZM16.9816 7.3135L16.9236 7.39493L17.1667 7.56826L17.077 7.28346L16.9816 7.3135ZM16.6563 6.28075L16.5968 6.20038L16.5395 6.2428L16.5609 6.31079L16.6563 6.28075ZM17.5265 5.63645L17.586 5.71682L17.826 5.53914L17.5274 5.53645L17.5265 5.63645ZM16.4438 5.6267L16.349 5.65846L16.3716 5.72605L16.4429 5.7267L16.4438 5.6267ZM16.0999 4.59998L16.1948 4.56822L16.0999 4.28508L16.0051 4.56822L16.0999 4.59998ZM15.7561 5.6267L15.757 5.7267L15.8283 5.72605L15.8509 5.65846L15.7561 5.6267ZM14.6734 5.63645L14.6725 5.53645L14.3739 5.53914L14.6139 5.71682L14.6734 5.63645ZM15.5436 6.28075L15.639 6.31079L15.6604 6.2428L15.6031 6.20038L15.5436 6.28075ZM19.224 7.70005L19.3188 7.66829L19.2962 7.6007L19.2249 7.60005L19.224 7.70005ZM18.1413 7.6903L18.0818 7.60993L17.8418 7.78761L18.1404 7.7903L18.1413 7.6903ZM19.5679 8.72677L19.4731 8.75853L19.5679 9.04167L19.6627 8.75853L19.5679 8.72677ZM19.9117 7.70005L19.9108 7.60005L19.8395 7.6007L19.8169 7.66829L19.9117 7.70005ZM20.9945 7.6903L20.9954 7.7903L21.2939 7.78761L21.054 7.60993L20.9945 7.6903ZM20.1242 7.046L20.0289 7.01596L20.0074 7.08395L20.0647 7.12637L20.1242 7.046ZM20.4496 6.01325L20.5449 6.04329L20.6346 5.75849L20.3915 5.93182L20.4496 6.01325ZM19.5679 6.64177L19.5098 6.7232L19.5679 6.76458L19.6259 6.7232L19.5679 6.64177ZM18.6862 6.01325L18.7442 5.93182L18.5011 5.75849L18.5908 6.04329L18.6862 6.01325ZM19.0115 7.046L19.071 7.12637L19.1283 7.08395L19.1069 7.01596L19.0115 7.046ZM20.2846 9.71325L20.2837 9.61325L19.9851 9.61594L20.2251 9.79361L20.2846 9.71325ZM21.1548 10.3575L21.2502 10.3876L21.2716 10.3196L21.2143 10.2772L21.1548 10.3575ZM21.3673 9.7035L21.3682 9.80349L21.4395 9.80285L21.4621 9.73525L21.3673 9.7035ZM21.7112 8.67677L21.806 8.64501L21.7112 8.36188L21.6164 8.64501L21.7112 8.67677ZM22.055 9.7035L21.9602 9.73525L21.9828 9.80285L22.0541 9.80349L22.055 9.7035ZM23.1378 9.71325L23.1973 9.79361L23.4372 9.61594L23.1387 9.61325L23.1378 9.71325ZM22.2675 10.3575L22.208 10.2772L22.1507 10.3196L22.1722 10.3876L22.2675 10.3575ZM22.5929 11.3903L22.5348 11.4717L22.7779 11.6451L22.6882 11.3603L22.5929 11.3903ZM21.7112 10.7618L21.7692 10.6803L21.7112 10.639L21.6531 10.6803L21.7112 10.7618ZM20.8295 11.3903L20.7341 11.3603L20.6444 11.6451L20.8875 11.4717L20.8295 11.3903ZM21.1548 13.6424L21.2143 13.7228L21.2716 13.6803L21.2502 13.6123L21.1548 13.6424ZM20.8295 12.6096L20.8875 12.5282L20.6444 12.3549L20.7341 12.6397L20.8295 12.6096ZM20.2846 14.2867L20.2251 14.2063L19.9851 14.384L20.2837 14.3867L20.2846 14.2867ZM21.3673 14.2964L21.4621 14.2647L21.4395 14.1971L21.3682 14.1964L21.3673 14.2964ZM21.7112 15.3232L21.6164 15.3549L21.7112 15.6381L21.806 15.3549L21.7112 15.3232ZM22.055 14.2964L22.0541 14.1964L21.9828 14.1971L21.9602 14.2647L22.055 14.2964ZM23.1378 14.2867L23.1387 14.3867L23.4372 14.384L23.1973 14.2063L23.1378 14.2867ZM22.2675 13.6424L22.1722 13.6123L22.1507 13.6803L22.208 13.7228L22.2675 13.6424ZM22.5929 12.6096L22.6882 12.6397L22.7779 12.3549L22.5348 12.5282L22.5929 12.6096ZM21.7112 13.2382L21.6531 13.3196L21.7112 13.361L21.7692 13.3196L21.7112 13.2382ZM19.5679 15.2732L19.6627 15.2414L19.5679 14.9583L19.4731 15.2414L19.5679 15.2732ZM19.224 16.2999L19.2249 16.3999L19.2962 16.3992L19.3188 16.3316L19.224 16.2999ZM19.9117 16.2999L19.8169 16.3316L19.8395 16.3992L19.9108 16.3999L19.9117 16.2999ZM20.9945 16.3096L21.054 16.39L21.2939 16.2123L20.9954 16.2096L20.9945 16.3096ZM20.1242 16.9539L20.0647 16.8736L20.0074 16.916L20.0289 16.984L20.1242 16.9539ZM20.4496 17.9867L20.3915 18.0681L20.6346 18.2414L20.5449 17.9566L20.4496 17.9867ZM19.5679 17.3582L19.6259 17.2767L19.5679 17.2354L19.5098 17.2767L19.5679 17.3582ZM18.6862 17.9867L18.5908 17.9566L18.5011 18.2414L18.7442 18.0681L18.6862 17.9867ZM19.0115 16.9539L19.1069 16.984L19.1283 16.916L19.071 16.8736L19.0115 16.9539ZM18.1413 16.3096L18.1404 16.2096L17.8418 16.2123L18.0818 16.39L18.1413 16.3096ZM16.0999 17.315L16.0419 17.3964L16.0999 17.4378L16.158 17.3964L16.0999 17.315ZM16.9816 16.6864L17.077 16.7165L17.1667 16.4317L16.9236 16.605L16.9816 16.6864ZM15.2183 16.6864L15.2763 16.605L15.0332 16.4317L15.1229 16.7165L15.2183 16.6864ZM15.5436 17.7192L15.6031 17.7996L15.6604 17.7571L15.639 17.6891L15.5436 17.7192ZM14.6734 18.3635L14.6139 18.2831L14.3739 18.4608L14.6725 18.4635L14.6734 18.3635ZM15.7561 18.3732L15.8509 18.3415L15.8283 18.2739L15.757 18.2732L15.7561 18.3732ZM16.0999 19.4L16.0051 19.4317L16.0999 19.7149L16.1948 19.4317L16.0999 19.4ZM16.4438 18.3732L16.4429 18.2732L16.3716 18.2739L16.349 18.3415L16.4438 18.3732ZM17.5265 18.3635L17.5274 18.4635L17.826 18.4608L17.586 18.2831L17.5265 18.3635ZM16.6563 17.7192L16.5609 17.6891L16.5395 17.7571L16.5968 17.7996L16.6563 17.7192ZM14.0586 16.3096L14.1181 16.39L14.3581 16.2123L14.0595 16.2096L14.0586 16.3096ZM12.9759 16.2999L12.881 16.3316L12.9037 16.3992L12.975 16.3999L12.9759 16.2999ZM13.1884 16.9539L13.1289 16.8736L13.0716 16.916L13.093 16.984L13.1884 16.9539ZM13.5137 17.9867L13.4556 18.0681L13.6988 18.2414L13.6091 17.9566L13.5137 17.9867ZM12.632 17.3582L12.6901 17.2767L12.632 17.2354L12.574 17.2767L12.632 17.3582ZM11.7503 17.9867L11.655 17.9566L11.5652 18.2414L11.8084 18.0681L11.7503 17.9867ZM12.0756 16.9539L12.171 16.984L12.1924 16.916L12.1352 16.8736L12.0756 16.9539ZM11.2054 16.3096L11.2045 16.2096L10.906 16.2123L11.1459 16.39L11.2054 16.3096ZM12.2882 16.2999L12.2891 16.3999L12.3603 16.3992L12.383 16.3316L12.2882 16.2999ZM12.632 15.2732L12.7268 15.2414L12.632 14.9583L12.5372 15.2414L12.632 15.2732ZM11.0451 13.6424L10.9497 13.6123L10.9283 13.6803L10.9856 13.7228L11.0451 13.6424ZM11.9153 14.2867L11.9162 14.3867L12.2148 14.384L11.9748 14.2063L11.9153 14.2867ZM11.3704 12.6096L11.4658 12.6397L11.5555 12.3549L11.3123 12.5282L11.3704 12.6096ZM10.4887 13.2382L10.4307 13.3196L10.4887 13.361L10.5468 13.3196L10.4887 13.2382ZM9.60704 12.6096L9.66509 12.5282L9.42195 12.3549L9.51166 12.6397L9.60704 12.6096ZM9.93235 13.6424L9.99186 13.7228L10.0491 13.6803L10.0277 13.6123L9.93235 13.6424ZM9.06213 14.2867L9.00263 14.2063L8.76265 14.384L9.06123 14.3867L9.06213 14.2867ZM10.1449 14.2964L10.2397 14.2647L10.217 14.1971L10.1458 14.1964L10.1449 14.2964ZM10.4887 15.3232L10.3939 15.3549L10.4887 15.6381L10.5835 15.3549L10.4887 15.3232ZM10.8326 14.2964L10.8317 14.1964L10.7604 14.1971L10.7377 14.2647L10.8326 14.2964ZM11.3704 11.3903L11.3123 11.4717L11.5555 11.6451L11.4658 11.3603L11.3704 11.3903ZM11.0451 10.3575L10.9856 10.2772L10.9283 10.3196L10.9497 10.3876L11.0451 10.3575ZM10.4887 10.7618L10.5468 10.6803L10.4887 10.639L10.4307 10.6803L10.4887 10.7618ZM9.60704 11.3903L9.51166 11.3603L9.42195 11.6451L9.66509 11.4717L9.60704 11.3903ZM9.93235 10.3575L10.0277 10.3876L10.0491 10.3196L9.99186 10.2772L9.93235 10.3575ZM9.06213 9.71325L9.06123 9.61325L8.76265 9.61594L9.00263 9.79361L9.06213 9.71325ZM10.1449 9.7035L10.1458 9.80349L10.217 9.80285L10.2397 9.73525L10.1449 9.7035ZM10.4887 8.67677L10.5835 8.64501L10.4887 8.36188L10.3939 8.64501L10.4887 8.67677ZM10.8326 9.7035L10.7377 9.73525L10.7604 9.80285L10.8317 9.80349L10.8326 9.7035ZM11.9153 9.71325L11.9748 9.79361L12.2148 9.61594L11.9162 9.61325L11.9153 9.71325ZM12.9759 7.70005L12.975 7.60005L12.9037 7.6007L12.881 7.66829L12.9759 7.70005ZM12.632 8.72677L12.5372 8.75853L12.632 9.04167L12.7268 8.75853L12.632 8.72677ZM14.0586 7.6903L14.0595 7.7903L14.3581 7.78761L14.1181 7.60993L14.0586 7.6903ZM13.1884 7.046L13.093 7.01596L13.0716 7.08395L13.1289 7.12637L13.1884 7.046ZM13.5137 6.01325L13.6091 6.04329L13.6988 5.75849L13.4556 5.93182L13.5137 6.01325ZM12.632 6.64177L12.574 6.7232L12.632 6.76458L12.6901 6.7232L12.632 6.64177ZM11.7503 6.01325L11.8084 5.93182L11.5652 5.75849L11.655 6.04329L11.7503 6.01325ZM12.0756 7.046L12.1352 7.12637L12.1924 7.08395L12.171 7.01596L12.0756 7.046ZM11.2054 7.6903L11.1459 7.60993L10.906 7.78761L11.2045 7.7903L11.2054 7.6903ZM12.2882 7.70005L12.383 7.66829L12.3603 7.6007L12.2891 7.60005L12.2882 7.70005ZM16.0419 6.60355L15.1602 7.23207L15.2763 7.39493L16.158 6.7664L16.0419 6.60355ZM17.0397 7.23207L16.158 6.60355L16.0419 6.7664L16.9236 7.39493L17.0397 7.23207ZM16.5609 6.31079L16.8862 7.34355L17.077 7.28346L16.7517 6.25071L16.5609 6.31079ZM17.467 5.55608L16.5968 6.20038L16.7158 6.36112L17.586 5.71682L17.467 5.55608ZM16.4429 5.7267L17.5256 5.73645L17.5274 5.53645L16.4447 5.5267L16.4429 5.7267ZM16.0051 4.63173L16.349 5.65846L16.5386 5.59494L16.1948 4.56822L16.0051 4.63173ZM15.8509 5.65846L16.1948 4.63173L16.0051 4.56822L15.6613 5.59494L15.8509 5.65846ZM14.6743 5.73645L15.757 5.7267L15.7552 5.5267L14.6725 5.53645L14.6743 5.73645ZM15.6031 6.20038L14.7329 5.55608L14.6139 5.71682L15.4841 6.36112L15.6031 6.20038ZM15.3136 7.34355L15.639 6.31079L15.4482 6.25071L15.1229 7.28346L15.3136 7.34355ZM19.2249 7.60005L18.1422 7.5903L18.1404 7.7903L19.2231 7.80005L19.2249 7.60005ZM19.6627 8.69502L19.3188 7.66829L19.1292 7.73181L19.4731 8.75853L19.6627 8.69502ZM19.8169 7.66829L19.4731 8.69502L19.6627 8.75853L20.0066 7.73181L19.8169 7.66829ZM20.9936 7.5903L19.9108 7.60005L19.9126 7.80005L20.9954 7.7903L20.9936 7.5903ZM20.0647 7.12637L20.935 7.77067L21.054 7.60993L20.1837 6.96563L20.0647 7.12637ZM20.3542 5.9832L20.0289 7.01596L20.2196 7.07604L20.5449 6.04329L20.3542 5.9832ZM19.6259 6.7232L20.5076 6.09468L20.3915 5.93182L19.5098 6.56035L19.6259 6.7232ZM18.6281 6.09468L19.5098 6.7232L19.6259 6.56035L18.7442 5.93182L18.6281 6.09468ZM19.1069 7.01596L18.7816 5.9832L18.5908 6.04329L18.9161 7.07604L19.1069 7.01596ZM18.2008 7.77067L19.071 7.12637L18.952 6.96563L18.0818 7.60993L18.2008 7.77067ZM20.2251 9.79361L21.0953 10.4379L21.2143 10.2772L20.3441 9.63288L20.2251 9.79361ZM21.3664 9.6035L20.2837 9.61325L20.2855 9.81324L21.3682 9.80349L21.3664 9.6035ZM21.6164 8.64501L21.2725 9.67174L21.4621 9.73525L21.806 8.70853L21.6164 8.64501ZM22.1499 9.67174L21.806 8.64501L21.6164 8.70853L21.9602 9.73525L22.1499 9.67174ZM23.1387 9.61325L22.0559 9.6035L22.0541 9.80349L23.1369 9.81324L23.1387 9.61325ZM22.327 10.4379L23.1973 9.79361L23.0783 9.63288L22.208 10.2772L22.327 10.4379ZM22.6882 11.3603L22.3629 10.3275L22.1722 10.3876L22.4975 11.4203L22.6882 11.3603ZM21.6531 10.8432L22.5348 11.4717L22.6509 11.3089L21.7692 10.6803L21.6531 10.8432ZM20.8875 11.4717L21.7692 10.8432L21.6531 10.6803L20.7714 11.3089L20.8875 11.4717ZM21.0594 10.3275L20.7341 11.3603L20.9249 11.4203L21.2502 10.3876L21.0594 10.3275ZM21.2502 13.6123L20.9249 12.5796L20.7341 12.6397L21.0594 13.6724L21.2502 13.6123ZM20.3441 14.3671L21.2143 13.7228L21.0953 13.562L20.2251 14.2063L20.3441 14.3671ZM21.3682 14.1964L20.2855 14.1867L20.2837 14.3867L21.3664 14.3964L21.3682 14.1964ZM21.806 15.2914L21.4621 14.2647L21.2725 14.3282L21.6164 15.3549L21.806 15.2914ZM21.9602 14.2647L21.6164 15.2914L21.806 15.3549L22.1499 14.3282L21.9602 14.2647ZM23.1369 14.1867L22.0541 14.1964L22.0559 14.3964L23.1387 14.3867L23.1369 14.1867ZM22.208 13.7228L23.0783 14.3671L23.1973 14.2063L22.327 13.562L22.208 13.7228ZM22.4975 12.5796L22.1722 13.6123L22.3629 13.6724L22.6882 12.6397L22.4975 12.5796ZM21.7692 13.3196L22.6509 12.6911L22.5348 12.5282L21.6531 13.1567L21.7692 13.3196ZM20.7714 12.6911L21.6531 13.3196L21.7692 13.1567L20.8875 12.5282L20.7714 12.6911ZM19.4731 15.2414L19.1292 16.2681L19.3188 16.3316L19.6627 15.3049L19.4731 15.2414ZM20.0066 16.2681L19.6627 15.2414L19.4731 15.3049L19.8169 16.3316L20.0066 16.2681ZM20.9954 16.2096L19.9126 16.1999L19.9108 16.3999L20.9936 16.4096L20.9954 16.2096ZM20.1837 17.0343L21.054 16.39L20.935 16.2293L20.0647 16.8736L20.1837 17.0343ZM20.5449 17.9566L20.2196 16.9239L20.0289 16.984L20.3542 18.0167L20.5449 17.9566ZM19.5098 17.4396L20.3915 18.0681L20.5076 17.9053L19.6259 17.2767L19.5098 17.4396ZM18.7442 18.0681L19.6259 17.4396L19.5098 17.2767L18.6282 17.9053L18.7442 18.0681ZM18.9161 16.9239L18.5908 17.9566L18.7816 18.0167L19.1069 16.984L18.9161 16.9239ZM18.0818 16.39L18.952 17.0343L19.071 16.8736L18.2008 16.2293L18.0818 16.39ZM19.2231 16.1999L18.1404 16.2096L18.1422 16.4096L19.2249 16.3999L19.2231 16.1999ZM16.158 17.3964L17.0397 16.7679L16.9236 16.605L16.0419 17.2335L16.158 17.3964ZM15.1602 16.7679L16.0419 17.3964L16.158 17.2335L15.2763 16.605L15.1602 16.7679ZM15.639 17.6891L15.3136 16.6564L15.1229 16.7165L15.4482 17.7492L15.639 17.6891ZM14.7329 18.4439L15.6031 17.7996L15.4841 17.6388L14.6139 18.2831L14.7329 18.4439ZM15.757 18.2732L14.6743 18.2635L14.6725 18.4635L15.7552 18.4732L15.757 18.2732ZM16.1948 19.3682L15.8509 18.3415L15.6613 18.405L16.0051 19.4317L16.1948 19.3682ZM16.349 18.3415L16.0051 19.3682L16.1948 19.4317L16.5386 18.405L16.349 18.3415ZM17.5256 18.2635L16.4429 18.2732L16.4447 18.4732L17.5274 18.4635L17.5256 18.2635ZM16.5968 17.7996L17.467 18.4439L17.586 18.2831L16.7158 17.6388L16.5968 17.7996ZM16.8862 16.6564L16.5609 17.6891L16.7517 17.7492L17.077 16.7165L16.8862 16.6564ZM14.0595 16.2096L12.9768 16.1999L12.975 16.3999L14.0577 16.4096L14.0595 16.2096ZM13.2479 17.0343L14.1181 16.39L13.9991 16.2293L13.1289 16.8736L13.2479 17.0343ZM13.6091 17.9566L13.2838 16.9239L13.093 16.984L13.4183 18.0167L13.6091 17.9566ZM12.574 17.4396L13.4556 18.0681L13.5717 17.9053L12.6901 17.2767L12.574 17.4396ZM11.8084 18.0681L12.6901 17.4396L12.574 17.2767L11.6923 17.9053L11.8084 18.0681ZM11.9803 16.9239L11.655 17.9566L11.8457 18.0167L12.171 16.984L11.9803 16.9239ZM11.1459 16.39L12.0161 17.0343L12.1352 16.8736L11.2649 16.2293L11.1459 16.39ZM12.2873 16.1999L11.2045 16.2096L11.2063 16.4096L12.2891 16.3999L12.2873 16.1999ZM12.5372 15.2414L12.1933 16.2681L12.383 16.3316L12.7268 15.3049L12.5372 15.2414ZM13.0707 16.2681L12.7268 15.2414L12.5372 15.3049L12.881 16.3316L13.0707 16.2681ZM10.9856 13.7228L11.8558 14.3671L11.9748 14.2063L11.1046 13.562L10.9856 13.7228ZM11.275 12.5796L10.9497 13.6123L11.1405 13.6724L11.4658 12.6397L11.275 12.5796ZM10.5468 13.3196L11.4284 12.6911L11.3123 12.5282L10.4307 13.1567L10.5468 13.3196ZM9.54899 12.6911L10.4307 13.3196L10.5468 13.1567L9.66509 12.5282L9.54899 12.6911ZM10.0277 13.6123L9.70242 12.5796L9.51166 12.6397L9.83697 13.6724L10.0277 13.6123ZM9.12164 14.3671L9.99186 13.7228L9.87285 13.562L9.00263 14.2063L9.12164 14.3671ZM10.1458 14.1964L9.06303 14.1867L9.06123 14.3867L10.144 14.3964L10.1458 14.1964ZM10.5835 15.2914L10.2397 14.2647L10.05 14.3282L10.3939 15.3549L10.5835 15.2914ZM10.7377 14.2647L10.3939 15.2914L10.5835 15.3549L10.9274 14.3282L10.7377 14.2647ZM11.9144 14.1867L10.8317 14.1964L10.8335 14.3964L11.9162 14.3867L11.9144 14.1867ZM11.4658 11.3603L11.1405 10.3275L10.9497 10.3876L11.275 11.4203L11.4658 11.3603ZM10.4307 10.8432L11.3123 11.4717L11.4284 11.3089L10.5468 10.6803L10.4307 10.8432ZM9.66509 11.4717L10.5468 10.8432L10.4307 10.6803L9.54899 11.3089L9.66509 11.4717ZM9.83697 10.3275L9.51166 11.3603L9.70242 11.4203L10.0277 10.3876L9.83697 10.3275ZM9.00263 9.79361L9.87285 10.4379L9.99186 10.2772L9.12164 9.63288L9.00263 9.79361ZM10.144 9.6035L9.06123 9.61325L9.06303 9.81324L10.1458 9.80349L10.144 9.6035ZM10.3939 8.64501L10.05 9.67174L10.2397 9.73525L10.5835 8.70853L10.3939 8.64501ZM10.9274 9.67174L10.5835 8.64501L10.3939 8.70853L10.7377 9.73525L10.9274 9.67174ZM11.9162 9.61325L10.8335 9.6035L10.8317 9.80349L11.9144 9.81324L11.9162 9.61325ZM11.1046 10.4379L11.9748 9.79361L11.8558 9.63288L10.9856 10.2772L11.1046 10.4379ZM12.881 7.66829L12.5372 8.69502L12.7268 8.75853L13.0707 7.73181L12.881 7.66829ZM14.0577 7.5903L12.975 7.60005L12.9768 7.80005L14.0595 7.7903L14.0577 7.5903ZM13.1289 7.12637L13.9991 7.77067L14.1181 7.60993L13.2479 6.96563L13.1289 7.12637ZM13.4183 5.9832L13.093 7.01596L13.2838 7.07604L13.6091 6.04329L13.4183 5.9832ZM12.6901 6.7232L13.5717 6.09468L13.4556 5.93182L12.574 6.56035L12.6901 6.7232ZM11.6923 6.09468L12.574 6.7232L12.6901 6.56035L11.8084 5.93182L11.6923 6.09468ZM12.171 7.01596L11.8457 5.9832L11.655 6.04329L11.9803 7.07604L12.171 7.01596ZM11.2649 7.77067L12.1352 7.12637L12.0161 6.96563L11.1459 7.60993L11.2649 7.77067ZM12.2891 7.60005L11.2063 7.5903L11.2045 7.7903L12.2873 7.80005L12.2891 7.60005ZM12.7268 8.69502L12.383 7.66829L12.1933 7.73181L12.5372 8.75853L12.7268 8.69502Z" fill="#FECA00" mask="url(#path-14-inside-1)"/>
</g>
</g>
</svg>
