<svg width="32" height="24" viewBox="0 0 32 24" fill="none" xmlns="http://www.w3.org/2000/svg">
<mask id="mask0" mask-type="alpha" maskUnits="userSpaceOnUse" x="0" y="0" width="32" height="24">
<rect width="32" height="24" fill="white"/>
</mask>
<g mask="url(#mask0)">
<path fill-rule="evenodd" clip-rule="evenodd" d="M0 0H32V24H0V0Z" fill="#F7FCFF"/>
<path fill-rule="evenodd" clip-rule="evenodd" d="M0 0V24H32V0H0Z" fill="#5EAA22"/>
<mask id="mask1" mask-type="alpha" maskUnits="userSpaceOnUse" x="0" y="0" width="32" height="24">
<path fill-rule="evenodd" clip-rule="evenodd" d="M0 0V24H32V0H0Z" fill="white"/>
</mask>
<g mask="url(#mask1)">
<rect x="27" y="10" width="5" height="14" fill="#FF8126"/>
<rect x="22" y="10" width="5" height="14" fill="#272727"/>
<rect x="17" y="10" width="5" height="14" fill="#C51918"/>
<path fill-rule="evenodd" clip-rule="evenodd" d="M24.5469 4.83768C25.0281 4.98695 24.5469 5.21545 24.5469 5.21545C24.5469 5.21545 24.4519 5.12228 24.4519 5.04448C24.4519 4.96668 24.0833 5.04448 23.8932 5.3268C23.713 5.59435 24.0451 5.59358 24.3941 5.59276C24.4133 5.59272 24.4326 5.59267 24.4519 5.59267C24.6491 5.59267 24.9576 5.57628 25.2444 5.56104C25.4938 5.54779 25.7269 5.5354 25.8565 5.5354C26.135 5.5354 26.2668 5.5354 26.6342 5.3268C26.8731 5.19119 27.663 5.0252 28.2502 4.90179C28.5664 4.83536 28.8238 4.78126 28.9049 4.75089C29.1367 4.6641 28.6731 5.12228 28.6731 5.12228C28.6731 5.12228 30.4616 4.51368 30.8199 4.30585C31.0413 4.17745 30.941 4.28704 30.7772 4.46597C30.6759 4.57665 30.5503 4.71386 30.4616 4.83768C30.3104 5.04865 30.6183 4.84752 30.9604 4.62413C31.1436 4.50444 31.3367 4.37836 31.4742 4.30585C31.8681 4.09803 31.374 4.66175 31.1568 4.83768C30.9396 5.01362 31.6668 4.83768 31.9185 4.66175C32.1038 4.53229 31.9346 4.75858 31.7922 4.94908C31.741 5.01746 31.6934 5.08124 31.6668 5.12228L31.6625 5.12882C31.5651 5.27905 31.5342 5.3268 31.7674 5.3268C32.0041 5.3268 31.1568 5.88259 31.1568 5.88259C31.1568 5.88259 31.4092 5.84878 31.1568 6.21885C31.008 6.437 30.2834 6.65737 29.6952 6.83629C29.2855 6.96089 28.9419 7.06539 28.9049 7.13503C28.8385 7.26009 28.1787 7.40493 27.8712 7.47243C27.7615 7.4965 27.6966 7.51074 27.7195 7.51074C27.8063 7.51074 27.9506 7.6034 27.7939 7.6034C27.6372 7.6034 27.362 7.67814 27.362 7.67814C27.362 7.67814 27.5068 7.67814 27.362 7.85228C27.2926 7.9357 27.171 7.92249 27.0857 7.91322C26.9929 7.90315 26.9431 7.89774 27.0503 8.02643C27.1445 8.13951 27.1805 8.18252 27.1716 8.19592C27.1611 8.21179 27.0878 8.18613 26.9739 8.18613C26.8741 8.18613 26.7675 8.1501 26.6555 8.11226C26.5318 8.07044 26.4015 8.02643 26.2668 8.02643C26.0204 8.02643 26.2677 8.17358 26.4222 8.2655C26.4287 8.26934 26.4349 8.27309 26.441 8.27672C26.5789 8.35902 26.5215 8.35885 26.2719 8.35813C26.2467 8.35806 26.2196 8.35798 26.1905 8.35798C26.0357 8.35798 25.9525 8.34373 25.9078 8.33608C25.8608 8.32804 25.8565 8.32729 25.8565 8.35798C25.8565 8.38742 25.7398 8.34644 25.5994 8.29714C25.454 8.2461 25.2833 8.18613 25.1903 8.18613C25.0074 8.18613 25.5779 8.50443 25.5779 8.50443C25.5779 8.50443 25.2807 8.42335 25.1198 8.35798C25.0283 8.32083 25.1446 8.4961 25.2495 8.65432C25.3292 8.77446 25.4024 8.88476 25.3731 8.88476C25.3509 8.88476 25.3019 8.86493 25.2461 8.84233C25.1316 8.79595 24.9883 8.7379 24.9883 8.81565C24.9883 8.93129 25.1198 9.01722 25.2807 9.01722C25.4417 9.01722 25.4681 9.19783 25.3731 9.19783C25.3402 9.19783 25.2996 9.18587 25.2607 9.1744C25.1874 9.15278 25.1198 9.13287 25.1198 9.19783C25.1198 9.23974 25.1484 9.27111 25.1815 9.30742C25.2269 9.35726 25.2807 9.4164 25.2807 9.52485C25.2807 9.71229 25.0413 9.73896 25.1198 9.61474C25.1984 9.49051 24.8473 9.19065 24.8473 9.33742V9.52485C24.8473 9.65737 24.817 9.66583 24.7697 9.67906C24.7406 9.6872 24.705 9.69714 24.6661 9.73896C24.608 9.80137 24.5992 9.83688 24.5944 9.85677C24.5895 9.87646 24.5885 9.88084 24.5469 9.88084C24.5139 9.88084 24.4865 9.83942 24.4497 9.78376C24.3931 9.69831 24.3143 9.57928 24.1592 9.52485C24.0118 9.47315 24.004 9.51066 23.9906 9.57551C23.9807 9.6234 23.9677 9.68619 23.8932 9.73896C23.7811 9.81827 23.8121 9.85116 23.8492 9.89048C23.8702 9.91276 23.8932 9.9371 23.8932 9.9731C23.8932 10.0727 23.6971 9.87353 23.6971 9.73896C23.6971 9.60439 23.4742 9.42537 23.4742 9.52485C23.4742 9.62433 23.4742 9.73896 23.3596 9.73896C23.3045 9.73896 23.3024 9.77213 23.2997 9.81669C23.2967 9.86469 23.2929 9.92591 23.221 9.9731C23.1502 10.0196 23.1517 9.99482 23.1551 9.94037C23.1584 9.88826 23.1634 9.80897 23.1082 9.73896C23.0392 9.65137 23.0969 9.51581 23.1262 9.44687C23.1448 9.40314 23.152 9.38622 23.1082 9.42537C22.9969 9.52489 22.855 9.52487 22.759 9.52485H22.7552C22.7069 9.52485 22.6646 9.57672 22.6346 9.61361C22.6049 9.65002 22.5872 9.67183 22.5872 9.61474C22.5872 9.4998 22.7294 9.19783 22.997 9.19783C23.2031 9.19783 23.3068 9.12729 23.396 9.06667C23.4226 9.04859 23.4479 9.03139 23.4742 9.01722C23.5888 8.9555 23.4742 8.87499 23.3596 8.81565C23.3076 8.78869 23.3265 8.70179 23.3626 8.62415C23.4262 8.58964 23.4742 8.54704 23.4742 8.50443C23.4742 8.45107 23.406 8.53092 23.3626 8.62415C23.2803 8.66887 23.1719 8.70001 23.1082 8.70001C23.0471 8.70001 23.0854 8.60673 23.1332 8.49002C23.1737 8.39139 23.221 8.27605 23.221 8.18613C23.221 8.1005 23.2379 8.02606 23.2496 7.97458C23.2647 7.90803 23.2711 7.87985 23.221 7.9155C23.1588 7.95974 22.8276 7.91108 22.6017 7.87789C22.5048 7.86366 22.4274 7.85228 22.3988 7.85228C22.3565 7.85228 22.3906 7.78534 22.4244 7.71876C22.4669 7.63497 22.5092 7.55176 22.3988 7.6034C22.2257 7.68433 21.8738 7.68091 21.6512 7.67874C21.6189 7.67843 21.5893 7.67814 21.5634 7.67814C21.4332 7.67814 21.5226 7.58129 21.5705 7.52936C21.5979 7.4997 21.6117 7.48469 21.5634 7.51074C21.4306 7.5824 21.2986 7.6034 21.1492 7.6034C21.0818 7.6034 21.0626 7.56971 21.0415 7.53284C21.0158 7.48792 20.9874 7.43828 20.8661 7.43907C20.6452 7.44053 20.5956 7.43762 20.474 7.35667C20.4107 7.31454 20.4462 7.28977 20.4664 7.2757C20.485 7.26273 20.4906 7.25886 20.3938 7.25886H19.7944C19.4958 7.25886 19.7953 7.06266 19.9029 7.06266C20.0105 7.06266 20.1353 6.8861 19.9029 6.96538C19.7542 7.01612 19.595 7.00191 19.4069 6.9851C19.301 6.97565 19.186 6.96538 19.0586 6.96538C18.7044 6.96538 18.6365 6.82729 18.8459 6.82729C19.0553 6.82729 19.0677 6.72613 18.7422 6.72613C18.5379 6.72613 18.37 6.67936 18.2449 6.6445C18.1706 6.62379 18.1113 6.60728 18.0685 6.60728C17.9537 6.60728 17.8295 6.47113 18.0685 6.47113C18.3076 6.47113 18.6142 6.35765 18.3526 6.35765C18.2048 6.35765 17.9583 6.29128 17.7439 6.23355C17.5788 6.18909 17.4326 6.14974 17.3651 6.14974C17.3133 6.14974 17.3943 6.13507 17.5023 6.11553C17.7175 6.07656 18.0397 6.01821 17.6287 6.01821C17.1899 6.01821 16.7301 5.71646 16.4126 5.50805C16.2836 5.42343 16.1781 5.3542 16.107 5.3268C15.8607 5.23189 16.107 5.04448 16.178 5.12228C16.2489 5.20008 16.7457 5.31971 16.5305 5.21545C16.3153 5.11118 16.178 4.93375 16.107 4.83768C16.0361 4.74162 16.0907 4.67526 16.178 4.75089C16.2652 4.82652 16.668 5.04448 16.668 5.04448C16.668 5.04448 16.4525 4.83768 16.2814 4.51368C16.1104 4.18967 16.4525 4.26859 16.7457 4.51368C17.0389 4.75876 17.3138 4.82361 17.4518 4.83768C17.5898 4.85176 17.3138 4.66115 17.0481 4.51368C16.7824 4.3662 16.8427 3.83824 17.0481 4.04905C17.1549 4.15872 17.6611 4.36772 18.1562 4.57214C18.6127 4.76065 19.0598 4.94527 19.1756 5.04448C19.3759 5.21618 19.2147 4.96022 19.0401 4.68294C19.0044 4.62625 18.9682 4.56867 18.9343 4.51368C18.8184 4.32531 19.2843 4.53933 19.8144 4.78282C20.1961 4.95817 20.6112 5.1488 20.8661 5.21545C21.0417 5.26136 21.2515 5.33486 21.461 5.40831C21.9781 5.58954 22.4941 5.7704 22.4941 5.5354C22.4941 5.20516 22.9671 4.68842 23.4742 4.51368C23.7961 4.40277 23.9476 4.50303 24.1384 4.62924C24.2482 4.70189 24.3711 4.78315 24.5469 4.83768ZM24.0012 8.71366C24.1157 8.71366 24.0844 7.71019 24.0844 7.71019C24.0844 7.71019 24.4222 8.32554 24.4222 8.59181C24.4222 8.71297 24.4121 8.7491 24.4152 8.78405C24.4189 8.82591 24.4417 8.86608 24.5236 9.04865C24.6069 9.23427 24.5517 9.21418 24.4012 9.15935C24.28 9.11524 24.0971 9.04865 23.8749 9.04865C23.3767 9.04865 23.8868 8.71366 24.0012 8.71366Z" fill="#FF8126"/>
<path d="M24.5469 5.21545L24.4594 5.3047L24.5217 5.36579L24.6005 5.32836L24.5469 5.21545ZM24.5469 4.83768L24.5839 4.71829L24.5469 4.83768ZM23.8932 5.3268L23.7895 5.25698V5.25698L23.8932 5.3268ZM24.3941 5.59276L24.3943 5.71776L24.3941 5.59276ZM25.2444 5.56104L25.2378 5.43622L25.2444 5.56104ZM26.6342 5.3268L26.696 5.4355L26.6342 5.3268ZM28.2502 4.90179L28.2245 4.77947L28.2502 4.90179ZM28.9049 4.75089L28.9487 4.86795V4.86795L28.9049 4.75089ZM28.6731 5.12228L28.5852 5.03337L28.7134 5.24062L28.6731 5.12228ZM30.8199 4.30585L30.7572 4.19772V4.19772L30.8199 4.30585ZM30.7772 4.46597L30.8694 4.55037L30.8694 4.55037L30.7772 4.46597ZM30.4616 4.83768L30.5632 4.9105V4.9105L30.4616 4.83768ZM30.9604 4.62413L31.0287 4.72879V4.72879L30.9604 4.62413ZM31.4742 4.30585L31.5325 4.41641V4.41641L31.4742 4.30585ZM31.1568 4.83768L31.0781 4.74055L31.1568 4.83768ZM31.9185 4.66175L31.8469 4.55929V4.55929L31.9185 4.66175ZM31.7922 4.94908L31.6921 4.87423L31.6921 4.87423L31.7922 4.94908ZM31.6668 5.12228L31.7716 5.19027L31.7717 5.19026L31.6668 5.12228ZM31.6625 5.12882L31.7674 5.19681L31.7674 5.19681L31.6625 5.12882ZM31.1568 5.88259L31.0882 5.77807L31.1734 6.00648L31.1568 5.88259ZM31.1568 6.21885L31.2601 6.28928V6.28928L31.1568 6.21885ZM29.6952 6.83629L29.6588 6.7167L29.6952 6.83629ZM28.9049 7.13503L28.7945 7.07641V7.07641L28.9049 7.13503ZM27.8712 7.47243L27.898 7.59452L27.8712 7.47243ZM27.362 7.67814L27.3292 7.55751L27.362 7.80314V7.67814ZM27.362 7.85228L27.2659 7.77236L27.362 7.85228ZM27.0857 7.91322L27.0722 8.03749L27.0857 7.91322ZM27.0503 8.02643L27.1463 7.94642V7.94642L27.0503 8.02643ZM27.1716 8.19592L27.2759 8.26483L27.2759 8.26483L27.1716 8.19592ZM26.6555 8.11226L26.6155 8.23068L26.6555 8.11226ZM26.4222 8.2655L26.4861 8.15808L26.4861 8.15808L26.4222 8.2655ZM26.441 8.27672L26.377 8.38406L26.377 8.38406L26.441 8.27672ZM26.2719 8.35813L26.2722 8.23313L26.2719 8.35813ZM25.9078 8.33608L25.8867 8.45929L25.8867 8.45929L25.9078 8.33608ZM25.5994 8.29714L25.6408 8.1792L25.5994 8.29714ZM25.5779 8.50443L25.545 8.62503L25.6388 8.39527L25.5779 8.50443ZM25.1198 8.35798L25.0728 8.47379L25.1198 8.35798ZM25.2495 8.65432L25.3537 8.58523L25.2495 8.65432ZM25.2461 8.84233L25.1992 8.95819H25.1992L25.2461 8.84233ZM25.2607 9.1744L25.296 9.0545L25.2607 9.1744ZM25.1815 9.30742L25.2739 9.22324L25.2739 9.22324L25.1815 9.30742ZM24.7697 9.67906L24.736 9.55867L24.7697 9.67906ZM24.6661 9.73896L24.5746 9.65379V9.65379L24.6661 9.73896ZM24.5944 9.85677L24.7158 9.88659L24.7158 9.88658L24.5944 9.85677ZM24.4497 9.78376L24.3454 9.85275V9.85275L24.4497 9.78376ZM24.1592 9.52485L24.1178 9.6428L24.1592 9.52485ZM23.9906 9.57551L23.8682 9.55021V9.55021L23.9906 9.57551ZM23.8932 9.73896L23.821 9.63692L23.8932 9.73896ZM23.8492 9.89048L23.7583 9.97625L23.8492 9.89048ZM23.2997 9.81669L23.1749 9.80896L23.2997 9.81669ZM23.221 9.9731L23.2896 10.0776L23.221 9.9731ZM23.1551 9.94037L23.2799 9.94819V9.94819L23.1551 9.94037ZM23.1082 9.73896L23.01 9.81632V9.81632L23.1082 9.73896ZM23.1262 9.44687L23.0112 9.39795L23.0112 9.39795L23.1262 9.44687ZM23.1082 9.42537L23.1915 9.51854V9.51854L23.1082 9.42537ZM22.759 9.52485L22.759 9.39985H22.759V9.52485ZM22.6346 9.61361L22.5377 9.53468L22.6346 9.61361ZM23.396 9.06667L23.4663 9.17004H23.4663L23.396 9.06667ZM23.4742 9.01722L23.4149 8.90717L23.4742 9.01722ZM23.3596 8.81565L23.3021 8.92665L23.3596 8.81565ZM23.1332 8.49002L23.0176 8.44258L23.1332 8.49002ZM23.2496 7.97458L23.1277 7.94692V7.94692L23.2496 7.97458ZM23.221 7.9155L23.2935 8.01733L23.221 7.9155ZM22.6017 7.87789L22.6198 7.75422L22.6017 7.87789ZM22.4244 7.71876L22.3129 7.66215V7.66215L22.4244 7.71876ZM22.3988 7.6034L22.4517 7.71663V7.71663L22.3988 7.6034ZM21.6512 7.67874L21.6524 7.55375L21.6512 7.67874ZM21.5705 7.52936L21.4786 7.4446L21.4786 7.4446L21.5705 7.52936ZM21.5634 7.51074L21.5041 7.40073V7.40073L21.5634 7.51074ZM21.0415 7.53284L21.15 7.47082L21.15 7.47082L21.0415 7.53284ZM20.8661 7.43907L20.8653 7.31408H20.8653L20.8661 7.43907ZM20.474 7.35667L20.4047 7.46073V7.46073L20.474 7.35667ZM20.4664 7.2757L20.5379 7.37825L20.4664 7.2757ZM19.9029 6.96538L19.8626 6.84707L19.9029 6.96538ZM19.4069 6.9851L19.418 6.8606H19.418L19.4069 6.9851ZM18.2449 6.6445L18.2114 6.76491L18.2449 6.6445ZM17.7439 6.23355L17.7114 6.35425H17.7114L17.7439 6.23355ZM17.5023 6.11553L17.5245 6.23853H17.5245L17.5023 6.11553ZM16.4126 5.50805L16.4811 5.40354H16.4811L16.4126 5.50805ZM16.107 5.3268L16.0621 5.44344H16.0621L16.107 5.3268ZM16.5305 5.21545L16.476 5.32793H16.476L16.5305 5.21545ZM16.178 4.75089L16.0961 4.84536H16.0961L16.178 4.75089ZM16.668 5.04448L16.6085 5.15442L16.7545 4.9543L16.668 5.04448ZM16.2814 4.51368L16.392 4.45531L16.2814 4.51368ZM16.7457 4.51368L16.8259 4.41777V4.41777L16.7457 4.51368ZM17.0481 4.04905L17.1376 3.96182V3.96182L17.0481 4.04905ZM18.1562 4.57214L18.2039 4.4566L18.1562 4.57214ZM19.1756 5.04448L19.2569 4.94957V4.94957L19.1756 5.04448ZM19.0401 4.68294L18.9344 4.74956V4.74956L19.0401 4.68294ZM18.9343 4.51368L18.8279 4.57919V4.57919L18.9343 4.51368ZM19.8144 4.78282L19.7622 4.89641L19.8144 4.78282ZM20.8661 5.21545L20.8345 5.33638L20.8661 5.21545ZM21.461 5.40831L21.5024 5.29035L21.461 5.40831ZM23.4742 4.51368L23.5149 4.63186L23.4742 4.51368ZM24.1384 4.62924L24.2074 4.52498V4.52498L24.1384 4.62924ZM24.0844 7.71019L24.194 7.65003L23.9594 7.71409L24.0844 7.71019ZM24.4152 8.78405L24.2907 8.7951V8.79511L24.4152 8.78405ZM24.5236 9.04865L24.6376 8.99746V8.99746L24.5236 9.04865ZM24.4012 9.15935L24.3584 9.27681L24.4012 9.15935ZM24.5469 5.21545C24.6005 5.32836 24.6005 5.32835 24.6006 5.32833C24.6006 5.32832 24.6006 5.3283 24.6007 5.32828C24.6007 5.32826 24.6008 5.32822 24.6009 5.32819C24.601 5.32811 24.6012 5.32802 24.6014 5.32792C24.6019 5.32772 24.6024 5.32745 24.6031 5.32714C24.6044 5.3265 24.6061 5.32564 24.6082 5.32456C24.6125 5.32241 24.6185 5.31938 24.6256 5.31554C24.6399 5.30792 24.6595 5.2969 24.6813 5.28309C24.7226 5.25702 24.782 5.2148 24.8253 5.16025C24.8682 5.10611 24.9173 5.00817 24.8603 4.90098C24.8128 4.81173 24.7091 4.75713 24.5839 4.71829L24.5099 4.95707C24.6253 4.99287 24.6419 5.0228 24.6396 5.01838C24.6277 4.99601 24.6466 4.98319 24.6294 5.00482C24.6126 5.02606 24.5817 5.05029 24.5478 5.07174C24.5321 5.08167 24.5178 5.08968 24.5076 5.09513C24.5026 5.09783 24.4986 5.09986 24.4961 5.10112C24.4948 5.10176 24.494 5.1022 24.4935 5.10243C24.4932 5.10255 24.4931 5.10262 24.493 5.10264C24.493 5.10264 24.493 5.10264 24.4931 5.10262C24.4931 5.10261 24.4931 5.1026 24.4932 5.10258C24.4932 5.10258 24.4932 5.10256 24.4932 5.10256C24.4932 5.10254 24.4933 5.10253 24.5469 5.21545ZM24.3269 5.04448C24.3269 5.12589 24.3725 5.19675 24.3979 5.23214C24.413 5.25316 24.4279 5.27075 24.4389 5.28305C24.4445 5.28927 24.4492 5.29431 24.4527 5.29797C24.4545 5.2998 24.456 5.30129 24.4571 5.30242C24.4577 5.30299 24.4581 5.30346 24.4585 5.30384C24.4587 5.30403 24.4589 5.3042 24.459 5.30434C24.4591 5.30441 24.4592 5.30448 24.4592 5.30454C24.4592 5.30456 24.4593 5.30459 24.4593 5.30462C24.4593 5.30463 24.4593 5.30465 24.4593 5.30466C24.4594 5.30468 24.4594 5.3047 24.5469 5.21545C24.6344 5.12619 24.6344 5.12621 24.6344 5.12623C24.6344 5.12623 24.6345 5.12625 24.6345 5.12626C24.6345 5.12628 24.6345 5.1263 24.6345 5.12632C24.6346 5.12636 24.6346 5.12639 24.6346 5.12642C24.6347 5.12647 24.6347 5.1265 24.6347 5.12651C24.6348 5.12653 24.6347 5.12648 24.6346 5.12634C24.6343 5.12606 24.6337 5.12548 24.6329 5.12461C24.6312 5.12287 24.6285 5.12003 24.6252 5.1163C24.6184 5.1087 24.6095 5.09813 24.6009 5.08614C24.592 5.07384 24.585 5.06222 24.5806 5.05246C24.5758 5.04187 24.5769 5.03972 24.5769 5.04448H24.3269ZM23.9968 5.39662C24.0746 5.28113 24.1913 5.20508 24.2891 5.16712C24.3385 5.1479 24.3756 5.14142 24.3939 5.14105C24.4046 5.14083 24.398 5.14292 24.3838 5.13643C24.3641 5.12745 24.3269 5.0978 24.3269 5.04448H24.5769C24.5769 4.97171 24.5281 4.92748 24.4875 4.90897C24.4524 4.89294 24.4156 4.89055 24.3888 4.8911C24.332 4.89226 24.265 4.90828 24.1986 4.93408C24.0645 4.98615 23.9018 5.09015 23.7895 5.25698L23.9968 5.39662ZM24.3938 5.46777C24.3057 5.46797 24.223 5.46813 24.1497 5.46434C24.0747 5.46047 24.0193 5.45283 23.9831 5.44131C23.9431 5.42858 23.9591 5.42225 23.9661 5.44546C23.9716 5.464 23.957 5.45573 23.9968 5.39661L23.7895 5.25698C23.7392 5.33164 23.6985 5.42361 23.7266 5.51722C23.7561 5.61551 23.8431 5.65911 23.9073 5.67953C23.9752 5.70115 24.0569 5.70989 24.1368 5.71401C24.2182 5.71821 24.3079 5.71797 24.3943 5.71776L24.3938 5.46777ZM24.4519 5.46767C24.4324 5.46767 24.413 5.46772 24.3938 5.46777L24.3943 5.71776C24.4136 5.71772 24.4328 5.71767 24.4519 5.71767V5.46767ZM25.2378 5.43622C24.9494 5.45154 24.6449 5.46767 24.4519 5.46767V5.71767C24.6532 5.71767 24.9657 5.70103 25.2511 5.68586L25.2378 5.43622ZM25.8565 5.4104C25.7227 5.4104 25.4853 5.42307 25.2378 5.43622L25.2511 5.68586C25.5024 5.67251 25.7311 5.6604 25.8565 5.6604V5.4104ZM26.5725 5.21809C26.3937 5.31959 26.281 5.36527 26.1841 5.38749C26.0864 5.40989 25.998 5.4104 25.8565 5.4104V5.6604C25.9934 5.6604 26.1102 5.66092 26.24 5.63116C26.3705 5.60123 26.5073 5.54261 26.696 5.4355L26.5725 5.21809ZM28.2245 4.77947C27.9314 4.84107 27.5849 4.91386 27.2818 4.98833C27.1302 5.02557 26.9879 5.06359 26.8676 5.10124C26.7496 5.13818 26.6446 5.17719 26.5725 5.21809L26.696 5.4355C26.7434 5.4086 26.8267 5.37601 26.9423 5.33983C27.0556 5.30437 27.1923 5.26775 27.3414 5.23111C27.6397 5.15784 27.9818 5.08592 28.2759 5.02412L28.2245 4.77947ZM28.8611 4.63383C28.8302 4.64538 28.7548 4.66468 28.6383 4.69086C28.5253 4.71625 28.3829 4.74618 28.2245 4.77947L28.2759 5.02412C28.4337 4.99097 28.5781 4.96063 28.6931 4.93478C28.8046 4.90971 28.8985 4.88677 28.9487 4.86795L28.8611 4.63383ZM28.6731 5.12228C28.7609 5.21119 28.761 5.21118 28.761 5.21117C28.761 5.21117 28.761 5.21116 28.761 5.21115C28.761 5.21112 28.761 5.21109 28.7611 5.21106C28.7612 5.21098 28.7613 5.21088 28.7614 5.21075C28.7616 5.2105 28.762 5.21013 28.7625 5.20966C28.7634 5.20872 28.7648 5.20736 28.7666 5.20561C28.7701 5.20211 28.7751 5.19705 28.7814 5.19067C28.794 5.17793 28.8117 5.15988 28.8322 5.13851C28.8728 5.09609 28.9257 5.03926 28.9717 4.98434C28.9947 4.95694 29.0171 4.92867 29.0358 4.90201C29.0529 4.8776 29.073 4.84613 29.0843 4.81395C29.0897 4.79886 29.0983 4.76975 29.0933 4.73524C29.0871 4.69137 29.0598 4.6488 29.0122 4.62769C28.9753 4.6113 28.9402 4.61439 28.9218 4.61716C28.9006 4.62037 28.8799 4.62679 28.8611 4.63383L28.9487 4.86795C28.9589 4.86414 28.9617 4.86397 28.9592 4.86435C28.9577 4.86458 28.9528 4.86524 28.9454 4.86481C28.9381 4.86438 28.9255 4.86271 28.9108 4.85617C28.8727 4.83928 28.8507 4.80421 28.8459 4.77063C28.844 4.75739 28.8451 4.74707 28.846 4.74145C28.8469 4.73564 28.8482 4.73187 28.8486 4.73065C28.8491 4.72922 28.8457 4.7377 28.8311 4.75851C28.8181 4.77707 28.8006 4.79928 28.7801 4.82373C28.7392 4.87251 28.6907 4.9248 28.6516 4.96558C28.6323 4.98581 28.6155 5.00288 28.6037 5.01486C28.5978 5.02084 28.5931 5.02554 28.5899 5.02871C28.5883 5.03029 28.5871 5.03149 28.5863 5.03228C28.5859 5.03268 28.5856 5.03297 28.5854 5.03315C28.5854 5.03324 28.5853 5.0333 28.5852 5.03334C28.5852 5.03336 28.5852 5.03337 28.5852 5.03338C28.5852 5.03338 28.5852 5.03338 28.5852 5.03338C28.5852 5.03338 28.5852 5.03337 28.6731 5.12228ZM30.7572 4.19772C30.677 4.24422 30.5069 4.31798 30.2873 4.40486C30.0709 4.4905 29.815 4.58558 29.5696 4.67447C29.3242 4.7633 29.09 4.84569 28.917 4.90589C28.8306 4.93598 28.7595 4.96051 28.71 4.97751C28.6853 4.98601 28.6659 4.99263 28.6528 4.99712C28.6463 4.99936 28.6412 5.00107 28.6379 5.00222C28.6362 5.0028 28.6349 5.00323 28.6341 5.00352C28.6336 5.00366 28.6333 5.00377 28.6331 5.00384C28.633 5.00388 28.6329 5.0039 28.6329 5.00392C28.6329 5.00393 28.6328 5.00394 28.6328 5.00394C28.6328 5.00394 28.6328 5.00395 28.6731 5.12228C28.7134 5.24062 28.7134 5.24062 28.7134 5.24061C28.7134 5.2406 28.7134 5.2406 28.7134 5.24059C28.7135 5.24057 28.7136 5.24054 28.7137 5.2405C28.7139 5.24042 28.7143 5.24031 28.7147 5.24016C28.7156 5.23986 28.7169 5.23942 28.7186 5.23884C28.722 5.23767 28.7271 5.23594 28.7337 5.23368C28.7469 5.22915 28.7664 5.22249 28.7913 5.21394C28.841 5.19685 28.9124 5.17221 28.9992 5.14199C29.1728 5.08158 29.4081 4.99883 29.6547 4.90953C29.9011 4.82029 30.1596 4.72426 30.3793 4.63733C30.5958 4.55164 30.7836 4.4714 30.8826 4.41398L30.7572 4.19772ZM30.8694 4.55037C30.91 4.50607 30.9482 4.46427 30.9786 4.42928C31.0058 4.39788 31.0367 4.3608 31.0534 4.32922C31.058 4.32055 31.0652 4.30573 31.0693 4.28722C31.0729 4.27138 31.0795 4.22944 31.053 4.18682C31.0232 4.13908 30.9761 4.12758 30.9517 4.1255C30.9283 4.12351 30.9086 4.12785 30.8982 4.13057C30.8597 4.14057 30.8099 4.16715 30.7572 4.19772L30.8826 4.41398C30.909 4.39868 30.929 4.38786 30.9436 4.38063C30.9599 4.3726 30.9643 4.3717 30.9611 4.37251C30.9603 4.37273 30.9482 4.37611 30.9305 4.3746C30.9117 4.37301 30.8684 4.36345 30.8408 4.319C30.8163 4.27968 30.8232 4.2424 30.8254 4.23251C30.8282 4.21994 30.8324 4.21235 30.8325 4.21211C30.8332 4.21089 30.831 4.21495 30.8222 4.22633C30.8142 4.23664 30.8034 4.24966 30.7896 4.26554C30.762 4.29741 30.7263 4.33641 30.685 4.38158L30.8694 4.55037ZM30.5632 4.9105C30.6467 4.79394 30.7668 4.66251 30.8694 4.55037L30.685 4.38158C30.585 4.49079 30.4539 4.63377 30.36 4.76486L30.5632 4.9105ZM30.892 4.51948C30.718 4.63311 30.5624 4.73454 30.4689 4.78262C30.4457 4.79451 30.4313 4.80051 30.4242 4.80283C30.4204 4.80404 30.4231 4.80277 30.4301 4.80214C30.4345 4.80174 30.46 4.79947 30.4891 4.81591C30.5273 4.83748 30.5441 4.87473 30.5467 4.90474C30.5486 4.9275 30.5425 4.94233 30.5425 4.9424C30.5419 4.94407 30.5456 4.93502 30.5632 4.9105L30.36 4.76486C30.3397 4.79309 30.32 4.82391 30.3086 4.85408C30.3032 4.86841 30.2949 4.89465 30.2976 4.92618C30.3009 4.96496 30.3215 5.00833 30.3661 5.03355C30.4017 5.05366 30.4364 5.05259 30.4526 5.05112C30.4714 5.04942 30.4884 5.04482 30.5013 5.04062C30.5275 5.03213 30.5559 5.01899 30.5831 5.00497C30.6913 4.94938 30.8607 4.83855 31.0287 4.72879L30.892 4.51948ZM31.4158 4.19529C31.272 4.27117 31.0732 4.40117 30.892 4.51948L31.0287 4.72879C31.2141 4.60771 31.4014 4.48554 31.5325 4.41641L31.4158 4.19529ZM31.2355 4.93481C31.3527 4.83987 31.5377 4.64721 31.6451 4.50226C31.6722 4.46566 31.6971 4.42846 31.715 4.39417C31.7239 4.3771 31.7327 4.35753 31.7388 4.33689C31.7442 4.31847 31.7513 4.28644 31.7435 4.25021C31.7338 4.20523 31.7033 4.16546 31.6562 4.14662C31.6185 4.13154 31.5825 4.13496 31.5611 4.13867C31.517 4.14634 31.4671 4.16824 31.4158 4.19529L31.5325 4.41641C31.5546 4.40476 31.5717 4.39678 31.5846 4.39158C31.5982 4.38613 31.6039 4.38497 31.6039 4.38497C31.6037 4.38501 31.6001 4.38566 31.5939 4.38545C31.5879 4.38524 31.5768 4.38411 31.5634 4.37875C31.529 4.36501 31.506 4.33465 31.4991 4.30286C31.4964 4.29034 31.4968 4.28054 31.4974 4.27537C31.4979 4.27005 31.4988 4.26689 31.4989 4.26646C31.4991 4.26597 31.4979 4.26974 31.4933 4.27865C31.4841 4.29631 31.4678 4.32158 31.4442 4.35346C31.3487 4.4824 31.1781 4.65957 31.0781 4.74055L31.2355 4.93481ZM31.8469 4.55929C31.7405 4.63369 31.514 4.71725 31.3331 4.76002C31.2893 4.77036 31.2507 4.77769 31.2196 4.7818C31.2041 4.78385 31.1914 4.78497 31.1814 4.78538C31.1765 4.78558 31.1726 4.78559 31.1697 4.78551C31.1682 4.78547 31.1671 4.7854 31.1664 4.78534C31.166 4.78532 31.1657 4.78529 31.1655 4.78527C31.1653 4.78525 31.1652 4.78523 31.1652 4.78523C31.1652 4.78524 31.1653 4.78525 31.1655 4.78529C31.1658 4.78533 31.1661 4.78539 31.1666 4.78549C31.1675 4.78568 31.1691 4.78605 31.1712 4.78669C31.175 4.78784 31.1831 4.79066 31.1928 4.79693C31.2167 4.81241 31.2434 4.84586 31.2418 4.89224C31.2411 4.91019 31.2362 4.92354 31.2328 4.93091C31.2293 4.93834 31.226 4.94269 31.2251 4.94383C31.2236 4.94572 31.2256 4.94277 31.2355 4.93481L31.0781 4.74055C31.0608 4.75459 31.043 4.77088 31.0285 4.78943C31.016 4.80536 30.9935 4.8382 30.9919 4.88346C30.9899 4.94152 31.0221 4.98426 31.0569 5.00678C31.0852 5.02511 31.1148 5.03075 31.1324 5.03308C31.1698 5.03803 31.213 5.03484 31.2523 5.02964C31.2941 5.02413 31.3412 5.01497 31.3905 5.00331C31.5818 4.95812 31.8448 4.86574 31.9901 4.76421L31.8469 4.55929ZM31.8923 5.02393C31.9611 4.93189 32.0449 4.82018 32.0866 4.74777C32.0969 4.72981 32.1088 4.70729 32.1163 4.68447C32.1198 4.67371 32.1254 4.65409 32.125 4.63047C32.1246 4.60625 32.1167 4.55885 32.0721 4.52531C32.0311 4.49453 31.9876 4.49752 31.9694 4.50024C31.9489 4.5033 31.9317 4.5102 31.9204 4.51532C31.897 4.52593 31.872 4.54177 31.8469 4.55929L31.9901 4.76421C32.0114 4.74937 32.0216 4.74395 32.0239 4.74291C32.0254 4.7422 32.0186 4.74566 32.0063 4.7475C31.9963 4.74899 31.9588 4.75295 31.9219 4.72517C31.8812 4.69462 31.8753 4.65223 31.875 4.63485C31.8747 4.61805 31.8786 4.60709 31.8787 4.60661C31.8795 4.60437 31.878 4.60895 31.8699 4.62309C31.8377 4.67908 31.7657 4.77577 31.6921 4.87423L31.8923 5.02393ZM31.7717 5.19026C31.7954 5.15364 31.8398 5.09406 31.8923 5.02393L31.6921 4.87423C31.6422 4.94087 31.5913 5.00883 31.5619 5.05431L31.7717 5.19026ZM31.7674 5.19681L31.7716 5.19027L31.5619 5.05429L31.5576 5.06083L31.7674 5.19681ZM31.7674 5.2018C31.7402 5.2018 31.7185 5.20109 31.7013 5.1998C31.6838 5.19849 31.6735 5.19674 31.6682 5.19545C31.6657 5.19486 31.6654 5.19463 31.6668 5.19517C31.6681 5.19571 31.672 5.19739 31.6771 5.20096C31.6825 5.20463 31.6893 5.2104 31.6958 5.2189C31.7024 5.22759 31.7075 5.23756 31.7107 5.24811C31.7169 5.26878 31.7136 5.28402 31.7129 5.28707C31.7124 5.28895 31.7122 5.28926 31.7128 5.28767C31.7134 5.28613 31.7146 5.2835 31.7166 5.27956C31.7207 5.27142 31.7268 5.26071 31.7358 5.24627C31.7447 5.2319 31.755 5.21588 31.7674 5.19681L31.5576 5.06082C31.5347 5.09614 31.5102 5.13375 31.4935 5.1667C31.4805 5.19229 31.4511 5.25313 31.4713 5.32018C31.496 5.40229 31.5702 5.42903 31.6097 5.43853C31.6534 5.44903 31.7078 5.4518 31.7674 5.4518V5.2018ZM31.1568 5.88259C31.2254 5.98711 31.2254 5.9871 31.2254 5.98709C31.2254 5.98709 31.2254 5.98708 31.2254 5.98706C31.2255 5.98704 31.2255 5.98701 31.2256 5.98697C31.2257 5.98689 31.2259 5.98678 31.2261 5.98663C31.2265 5.98634 31.2272 5.98592 31.228 5.98537C31.2297 5.98427 31.2321 5.98266 31.2353 5.98057C31.2416 5.97639 31.2507 5.97031 31.2623 5.96258C31.2853 5.94714 31.318 5.92513 31.3563 5.89873C31.4329 5.84607 31.5332 5.77531 31.6266 5.7041C31.7175 5.63478 31.8103 5.55878 31.8654 5.49653C31.8797 5.48043 31.8943 5.46214 31.906 5.44256C31.9163 5.42558 31.9327 5.39431 31.9341 5.35497C31.9348 5.33313 31.9309 5.30724 31.9173 5.28172C31.9036 5.256 31.8838 5.2378 31.8638 5.22582C31.828 5.20433 31.7901 5.2018 31.7674 5.2018V5.4518C31.7744 5.4518 31.7576 5.45361 31.7353 5.44026C31.7221 5.43235 31.7073 5.41917 31.6967 5.39935C31.6862 5.37973 31.6837 5.36063 31.6842 5.34639C31.685 5.32225 31.6944 5.30943 31.6919 5.31362C31.6909 5.31521 31.6871 5.3208 31.6783 5.33075C31.6411 5.37271 31.5664 5.43565 31.4751 5.50529C31.3862 5.57302 31.2896 5.64121 31.2146 5.69276C31.1773 5.71846 31.1455 5.73987 31.1232 5.75483C31.112 5.7623 31.1032 5.76816 31.0972 5.77212C31.0942 5.7741 31.092 5.77561 31.0904 5.77662C31.0897 5.77712 31.0891 5.77749 31.0887 5.77774C31.0886 5.77786 31.0884 5.77795 31.0883 5.778C31.0883 5.77803 31.0883 5.77805 31.0882 5.77806C31.0882 5.77807 31.0882 5.77807 31.0882 5.77807C31.0882 5.77807 31.0882 5.77807 31.1568 5.88259ZM31.2601 6.28928C31.3267 6.19151 31.3678 6.10972 31.3848 6.0396C31.4023 5.96725 31.397 5.89133 31.3474 5.83186C31.3023 5.7778 31.2414 5.7635 31.2087 5.75917C31.1905 5.75676 31.1746 5.75656 31.1632 5.75692C31.1574 5.7571 31.1525 5.75744 31.1486 5.75778C31.1467 5.75795 31.145 5.75812 31.1436 5.75828C31.1429 5.75836 31.1422 5.75843 31.1417 5.7585C31.1414 5.75854 31.1411 5.75857 31.1409 5.7586C31.1408 5.75862 31.1406 5.75864 31.1405 5.75865C31.1405 5.75866 31.1404 5.75867 31.1404 5.75867C31.1403 5.75868 31.1402 5.75869 31.1568 5.88259C31.1734 6.00648 31.1733 6.00649 31.1732 6.0065C31.1732 6.00651 31.1731 6.00652 31.1731 6.00652C31.173 6.00653 31.1729 6.00655 31.1728 6.00656C31.1726 6.00658 31.1724 6.0066 31.1723 6.00662C31.1719 6.00666 31.1717 6.0067 31.1714 6.00672C31.171 6.00678 31.1707 6.0068 31.1705 6.00682C31.1702 6.00684 31.1705 6.00681 31.1711 6.0068C31.1725 6.00675 31.1744 6.0068 31.1759 6.007C31.1826 6.0079 31.169 6.00827 31.1555 5.99203C31.1374 5.97036 31.1479 5.95538 31.1418 5.98078C31.1351 6.0084 31.113 6.06116 31.0535 6.14842L31.2601 6.28928ZM29.7315 6.95588C30.0246 6.86675 30.3573 6.76562 30.6355 6.659C30.7746 6.6057 30.9035 6.54974 31.0088 6.49163C31.1101 6.43571 31.2054 6.36936 31.2601 6.28928L31.0535 6.14842C31.0338 6.17742 30.9828 6.22042 30.888 6.27277C30.7971 6.32292 30.6802 6.37414 30.5461 6.42556C30.2777 6.52839 29.954 6.6269 29.6588 6.7167L29.7315 6.95588ZM29.0153 7.19365C29.0061 7.2109 28.9964 7.21537 29.0051 7.20918C29.0113 7.20481 29.0228 7.19789 29.0415 7.18867C29.0788 7.17032 29.1327 7.14873 29.2022 7.12404C29.3405 7.07483 29.5256 7.0185 29.7315 6.95588L29.6588 6.7167C29.455 6.77867 29.2635 6.83689 29.1184 6.88849C29.0461 6.91421 28.9815 6.93959 28.9312 6.96431C28.9062 6.97663 28.8816 6.99028 28.8602 7.00544C28.8415 7.01878 28.8129 7.04175 28.7945 7.07641L29.0153 7.19365ZM27.898 7.59452C28.0511 7.5609 28.2967 7.50704 28.5127 7.44554C28.6203 7.41488 28.7244 7.3813 28.8074 7.3461C28.8488 7.32857 28.8883 7.30922 28.9216 7.28783C28.9516 7.26856 28.9916 7.23834 29.0153 7.19365L28.7945 7.07641C28.8016 7.06299 28.8065 7.06465 28.7865 7.0775C28.7698 7.08823 28.7445 7.10124 28.7098 7.11593C28.6408 7.14517 28.5483 7.17547 28.4442 7.20509C28.2368 7.26415 27.9987 7.31646 27.8444 7.35034L27.898 7.59452ZM27.7195 7.38574C27.7199 7.38574 27.726 7.38567 27.7343 7.38689C27.738 7.38743 27.7482 7.38904 27.7607 7.39388C27.767 7.39635 27.8078 7.41173 27.8289 7.45879C27.8568 7.5208 27.8258 7.57163 27.812 7.58861C27.7985 7.60514 27.7842 7.61386 27.7804 7.61616C27.7705 7.62216 27.7623 7.62508 27.7618 7.62525C27.7581 7.62663 27.7599 7.62577 27.7751 7.62209C27.8005 7.61593 27.8424 7.60672 27.898 7.59452L27.8444 7.35034C27.7903 7.36221 27.7449 7.37216 27.7162 7.37914C27.7043 7.38202 27.6873 7.38622 27.6744 7.39102C27.6717 7.39205 27.6618 7.39572 27.6508 7.40237C27.6465 7.40499 27.6317 7.41401 27.6181 7.43082C27.604 7.44807 27.5729 7.49914 27.6009 7.56136C27.6222 7.60864 27.6632 7.62422 27.67 7.62685C27.6828 7.63185 27.6937 7.6336 27.6981 7.63425C27.7079 7.63569 27.7162 7.63574 27.7195 7.63574V7.38574ZM27.7939 7.7284C27.8185 7.7284 27.8438 7.72669 27.8676 7.72116C27.8874 7.71654 27.9272 7.70465 27.9571 7.66836C27.9965 7.62042 27.9936 7.56347 27.977 7.52478C27.9635 7.49347 27.9418 7.47268 27.9288 7.4617C27.9006 7.43777 27.8651 7.41991 27.8334 7.4081C27.8014 7.39615 27.7608 7.38574 27.7195 7.38574V7.63574C27.7194 7.63574 27.7202 7.63574 27.7218 7.63593C27.7234 7.63611 27.7255 7.63645 27.7281 7.637C27.7334 7.63813 27.7396 7.63993 27.7461 7.64233C27.761 7.6479 27.7681 7.6532 27.7672 7.65244C27.7664 7.65181 27.764 7.64967 27.7608 7.6458C27.7577 7.64217 27.7521 7.63472 27.7472 7.62338C27.7422 7.61178 27.737 7.59347 27.739 7.57071C27.7412 7.54668 27.7508 7.52555 27.7641 7.50948C27.7763 7.49462 27.7893 7.48678 27.7967 7.48306C27.8043 7.47928 27.8097 7.47796 27.8109 7.47767C27.8129 7.47721 27.8085 7.4784 27.7939 7.4784V7.7284ZM27.362 7.67814C27.3948 7.79877 27.3948 7.79877 27.3948 7.79878C27.3948 7.79878 27.3948 7.79878 27.3948 7.79878C27.3948 7.79878 27.3948 7.79878 27.3948 7.79878C27.3948 7.79877 27.3948 7.79877 27.3948 7.79876C27.3949 7.79873 27.3951 7.79869 27.3953 7.79863C27.3957 7.79852 27.3964 7.79833 27.3973 7.79809C27.3992 7.79759 27.402 7.79684 27.4057 7.79588C27.4131 7.79395 27.424 7.79116 27.4376 7.78779C27.4648 7.78104 27.5026 7.77204 27.545 7.76307C27.633 7.74447 27.7298 7.7284 27.7939 7.7284V7.4784C27.7013 7.4784 27.5821 7.4997 27.4933 7.51847C27.4474 7.52819 27.4066 7.53788 27.3774 7.54514C27.3627 7.54878 27.3508 7.55183 27.3426 7.55398C27.3384 7.55506 27.3352 7.55592 27.3329 7.55652C27.3318 7.55682 27.3309 7.55706 27.3303 7.55722C27.33 7.55731 27.3298 7.55737 27.3296 7.55742C27.3295 7.55745 27.3294 7.55747 27.3294 7.55748C27.3293 7.55749 27.3293 7.5575 27.3293 7.5575C27.3293 7.5575 27.3293 7.55751 27.3293 7.55751C27.3293 7.55751 27.3292 7.55751 27.362 7.67814ZM27.4581 7.93221C27.499 7.88301 27.5299 7.83429 27.5436 7.785C27.5588 7.7299 27.553 7.66884 27.5124 7.61999C27.4782 7.57883 27.4337 7.56464 27.4116 7.55933C27.3988 7.55625 27.3876 7.55477 27.3795 7.55401C27.3753 7.55363 27.3717 7.55341 27.3688 7.55329C27.3673 7.55323 27.366 7.5532 27.3649 7.55317C27.3643 7.55316 27.3638 7.55315 27.3633 7.55315C27.3631 7.55315 27.3628 7.55315 27.3626 7.55314C27.3625 7.55314 27.3624 7.55314 27.3623 7.55314C27.3623 7.55314 27.3622 7.55314 27.3622 7.55314C27.3621 7.55314 27.362 7.55314 27.362 7.67814C27.362 7.80314 27.3619 7.80314 27.3619 7.80314C27.3618 7.80314 27.3618 7.80314 27.3617 7.80314C27.3616 7.80314 27.3615 7.80314 27.3614 7.80314C27.3613 7.80314 27.3611 7.80314 27.3609 7.80314C27.3606 7.80314 27.3603 7.80313 27.36 7.80312C27.3594 7.80311 27.3589 7.8031 27.3584 7.80308C27.3576 7.80304 27.3569 7.803 27.3564 7.80295C27.3557 7.80288 27.3546 7.80275 27.3531 7.8024C27.3519 7.80209 27.3481 7.80111 27.3429 7.79844C27.3377 7.79573 27.3288 7.79016 27.3202 7.77983C27.3109 7.7687 27.3047 7.75512 27.3023 7.74117C27.3002 7.72809 27.3023 7.7196 27.3026 7.71822C27.3027 7.71791 27.2974 7.73449 27.2659 7.77236L27.4581 7.93221ZM27.0722 8.03749C27.1127 8.04188 27.1785 8.04956 27.2447 8.04162C27.3133 8.0334 27.396 8.00695 27.4581 7.93221L27.2659 7.77236C27.2587 7.78103 27.2459 7.78968 27.215 7.7934C27.1817 7.79739 27.1441 7.79383 27.0992 7.78895L27.0722 8.03749ZM27.1463 7.94642C27.1207 7.91559 27.1111 7.90051 27.1087 7.89591C27.1075 7.89345 27.1123 7.9015 27.1141 7.91671C27.1162 7.93476 27.1141 7.96619 27.0911 7.99531C27.0704 8.02144 27.0455 8.02942 27.037 8.03163C27.0281 8.03395 27.0232 8.03358 27.0266 8.03356C27.0339 8.03352 27.0463 8.03468 27.0722 8.03749L27.0992 7.78895C27.0787 7.78673 27.05 7.78343 27.0253 7.78357C27.0126 7.78363 26.9939 7.7845 26.9739 7.78974C26.9543 7.79485 26.9209 7.8074 26.8949 7.84027C26.8666 7.87612 26.8623 7.91646 26.8658 7.94608C26.869 7.97287 26.8787 7.99518 26.8864 8.01015C26.9019 8.04042 26.9263 8.07291 26.9543 8.10643L27.1463 7.94642ZM27.2759 8.26483C27.2978 8.23166 27.2997 8.1974 27.2969 8.17459C27.2944 8.15336 27.2875 8.1365 27.2829 8.12667C27.2737 8.10704 27.2607 8.08853 27.2501 8.07419C27.2277 8.04396 27.1921 8.00138 27.1463 7.94642L26.9543 8.10643C27.0027 8.16456 27.0322 8.20002 27.0491 8.22292C27.0582 8.23514 27.0584 8.23696 27.0565 8.23271C27.0554 8.23055 27.0506 8.22014 27.0487 8.20426C27.0466 8.18682 27.0476 8.15683 27.0673 8.12701L27.2759 8.26483ZM26.9739 8.31113C27.0217 8.31113 27.0611 8.31645 27.0953 8.32092C27.1099 8.32282 27.1315 8.32574 27.1502 8.32607C27.1595 8.32623 27.1765 8.32604 27.1954 8.32124C27.2141 8.31651 27.2506 8.30318 27.2759 8.26483L27.0673 8.12701C27.0901 8.09262 27.1219 8.08196 27.1342 8.07887C27.1411 8.07711 27.1465 8.07653 27.1493 8.07631C27.1522 8.07607 27.1541 8.0761 27.1545 8.0761C27.1549 8.07611 27.1532 8.07608 27.1478 8.0755C27.1426 8.07495 27.1363 8.07415 27.1278 8.07303C27.0942 8.06864 27.04 8.06113 26.9739 8.06113V8.31113ZM26.6155 8.23068C26.722 8.26667 26.8495 8.31113 26.9739 8.31113V8.06113C26.8987 8.06113 26.813 8.03352 26.6956 7.99384L26.6155 8.23068ZM26.2668 8.15143C26.3775 8.15143 26.4882 8.18767 26.6155 8.23068L26.6956 7.99384C26.5754 7.95322 26.4256 7.90143 26.2668 7.90143V8.15143ZM26.4861 8.15808C26.4471 8.13488 26.4049 8.10972 26.3663 8.0846C26.3263 8.05857 26.2969 8.03683 26.2807 8.02128C26.2719 8.01282 26.2743 8.01302 26.2785 8.02144C26.2831 8.03052 26.2991 8.07051 26.2729 8.1147C26.2516 8.15047 26.2209 8.15569 26.2272 8.15407C26.2293 8.15354 26.2406 8.15143 26.2668 8.15143V7.90143C26.2314 7.90143 26.1966 7.90391 26.1656 7.91179C26.1389 7.91858 26.0883 7.936 26.058 7.98701C26.0227 8.04643 26.0405 8.10467 26.0554 8.13423C26.07 8.16312 26.0913 8.18603 26.1077 8.20171C26.1709 8.26235 26.2869 8.33045 26.3583 8.37292L26.4861 8.15808ZM26.5051 8.16938C26.4989 8.1657 26.4926 8.16191 26.4861 8.15808L26.3583 8.37292C26.3648 8.37677 26.371 8.38047 26.377 8.38406L26.5051 8.16938ZM26.2715 8.48313C26.333 8.48331 26.3859 8.48348 26.4268 8.48223C26.4611 8.48118 26.5079 8.47915 26.544 8.46622C26.5575 8.46135 26.6174 8.43872 26.635 8.36978C26.6525 8.30128 26.6114 8.25275 26.6019 8.24194C26.5766 8.21296 26.5363 8.18803 26.5051 8.16938L26.377 8.38406C26.393 8.39359 26.4041 8.40074 26.4115 8.40596C26.4202 8.41216 26.4186 8.41211 26.4138 8.40658C26.4113 8.40366 26.4038 8.39476 26.3978 8.3802C26.3912 8.36452 26.385 8.33854 26.3928 8.30789C26.4007 8.27716 26.4187 8.25724 26.4323 8.24646C26.4448 8.23649 26.4558 8.23225 26.4596 8.23089C26.4667 8.22833 26.4685 8.22899 26.4582 8.23009C26.4496 8.23101 26.437 8.2318 26.4192 8.23235C26.3834 8.23344 26.3355 8.23331 26.2722 8.23313L26.2715 8.48313ZM26.1905 8.48298C26.2194 8.48298 26.2463 8.48306 26.2715 8.48313L26.2722 8.23313C26.2471 8.23306 26.2198 8.23298 26.1905 8.23298V8.48298ZM25.8867 8.45929C25.9359 8.46771 26.0266 8.48298 26.1905 8.48298V8.23298C26.0449 8.23298 25.969 8.21974 25.9289 8.21287L25.8867 8.45929ZM25.9815 8.35798C25.9815 8.34866 25.9824 8.35936 25.9783 8.37395C25.9757 8.38342 25.9699 8.39906 25.9568 8.41495C25.9428 8.43188 25.9256 8.44303 25.9089 8.44937C25.8938 8.45508 25.8815 8.45606 25.876 8.45628C25.8729 8.45641 25.8705 8.45634 25.8692 8.45628C25.8686 8.45625 25.868 8.45621 25.8677 8.45619C25.8674 8.45616 25.8672 8.45614 25.8672 8.45614C25.8672 8.45614 25.8676 8.45618 25.8685 8.45632C25.8695 8.45645 25.8708 8.45664 25.8726 8.45692C25.8762 8.4575 25.8806 8.45824 25.8867 8.45929L25.9289 8.21287C25.9189 8.21116 25.9049 8.2087 25.8927 8.20745C25.8845 8.20661 25.8535 8.203 25.8201 8.21565C25.8 8.22331 25.78 8.23638 25.7639 8.25595C25.7486 8.27445 25.7412 8.29343 25.7374 8.30701C25.7311 8.32985 25.7315 8.35196 25.7315 8.35798H25.9815ZM25.558 8.41508C25.6263 8.43909 25.6956 8.4635 25.7477 8.47769C25.772 8.48431 25.8029 8.49172 25.8315 8.49274C25.8439 8.49319 25.873 8.49345 25.9036 8.47932C25.9209 8.47132 25.942 8.45714 25.9584 8.43306C25.9753 8.40828 25.9815 8.38141 25.9815 8.35798H25.7315C25.7315 8.33823 25.7367 8.31449 25.7518 8.29232C25.7664 8.27085 25.7849 8.25876 25.7987 8.25236C25.812 8.24624 25.8231 8.24428 25.8288 8.24355C25.8348 8.24277 25.8391 8.24285 25.8405 8.24291C25.8429 8.24299 25.8358 8.24259 25.8134 8.23648C25.7721 8.22522 25.7128 8.20449 25.6408 8.1792L25.558 8.41508ZM25.1903 8.31113C25.2169 8.31113 25.2675 8.32105 25.3398 8.34239C25.4087 8.36269 25.4846 8.38932 25.558 8.41508L25.6408 8.1792C25.5688 8.15391 25.4867 8.12504 25.4105 8.1026C25.3379 8.08119 25.2566 8.06113 25.1903 8.06113V8.31113ZM25.5779 8.50443C25.6388 8.39527 25.6388 8.39528 25.6388 8.39528C25.6388 8.39528 25.6388 8.39528 25.6388 8.39528C25.6388 8.39527 25.6388 8.39526 25.6388 8.39525C25.6387 8.39522 25.6386 8.39517 25.6385 8.39511C25.6383 8.39498 25.6379 8.39477 25.6374 8.3945C25.6364 8.39394 25.6349 8.3931 25.6329 8.39198C25.629 8.38975 25.6231 8.38644 25.6157 8.38221C25.6009 8.37373 25.5798 8.36159 25.5551 8.34701C25.5054 8.3177 25.4419 8.27919 25.3847 8.24117C25.3238 8.20075 25.2816 8.16832 25.2652 8.15071C25.2616 8.1469 25.2641 8.14869 25.2678 8.15546C25.2699 8.15942 25.2851 8.18713 25.2765 8.22647C25.2659 8.27537 25.2296 8.29834 25.2106 8.30587C25.195 8.31207 25.1852 8.31113 25.1903 8.31113V8.06113C25.1725 8.06113 25.1457 8.06267 25.1183 8.07354C25.0876 8.08573 25.0449 8.11554 25.0323 8.17314C25.0218 8.22118 25.0397 8.25946 25.0485 8.27554C25.0588 8.29444 25.0718 8.30991 25.0822 8.32102C25.1213 8.36309 25.1874 8.41024 25.2463 8.4494C25.3089 8.49095 25.3766 8.53202 25.4281 8.56238C25.454 8.57765 25.4761 8.59037 25.4918 8.59931C25.4996 8.60378 25.5058 8.60731 25.5101 8.60974C25.5123 8.61095 25.514 8.6119 25.5151 8.61255C25.5157 8.61287 25.5162 8.61312 25.5165 8.6133C25.5166 8.61338 25.5167 8.61345 25.5168 8.6135C25.5169 8.61353 25.5169 8.61355 25.5169 8.61356C25.517 8.61357 25.517 8.61358 25.517 8.61358C25.517 8.61359 25.517 8.61359 25.5779 8.50443ZM25.0728 8.47379C25.1591 8.50885 25.2785 8.54689 25.3731 8.57541C25.4211 8.58986 25.464 8.60223 25.4948 8.61099C25.5103 8.61537 25.5227 8.61886 25.5314 8.62126C25.5357 8.62246 25.539 8.62339 25.5414 8.62403C25.5425 8.62434 25.5434 8.62459 25.544 8.62475C25.5443 8.62484 25.5446 8.6249 25.5447 8.62495C25.5448 8.62497 25.5449 8.62499 25.5449 8.625C25.5449 8.62501 25.545 8.62501 25.545 8.62502C25.545 8.62502 25.545 8.62502 25.545 8.62502C25.545 8.62502 25.545 8.62503 25.5779 8.50443C25.6108 8.38384 25.6108 8.38384 25.6108 8.38384C25.6108 8.38384 25.6108 8.38384 25.6108 8.38384C25.6108 8.38384 25.6108 8.38384 25.6108 8.38384C25.6108 8.38383 25.6107 8.38382 25.6107 8.3838C25.6105 8.38377 25.6103 8.38371 25.6101 8.38364C25.6096 8.3835 25.6088 8.38328 25.6077 8.38299C25.6056 8.3824 25.6024 8.38153 25.5983 8.38038C25.59 8.37809 25.578 8.37474 25.5631 8.37049C25.5332 8.36201 25.4917 8.35002 25.4453 8.33603C25.3511 8.30767 25.2415 8.27248 25.1669 8.24217L25.0728 8.47379ZM25.3537 8.58523C25.2996 8.50369 25.2488 8.4268 25.2219 8.37508C25.2154 8.3627 25.2118 8.35454 25.2101 8.35003C25.2073 8.34243 25.2121 8.35154 25.2117 8.36933C25.2115 8.37944 25.2093 8.40072 25.1952 8.42367C25.1791 8.44966 25.1546 8.46643 25.1294 8.47368C25.1076 8.47995 25.0904 8.47777 25.0837 8.47661C25.0797 8.47592 25.0768 8.47512 25.0752 8.47463C25.0744 8.47438 25.0738 8.47416 25.0734 8.47402C25.073 8.47388 25.0728 8.4738 25.0728 8.47379L25.1669 8.24217C25.1522 8.2362 25.1092 8.21935 25.0602 8.23343C25.0297 8.24223 25.0012 8.26198 24.9825 8.29227C24.9656 8.31953 24.9622 8.34644 24.9618 8.36339C24.961 8.39486 24.9703 8.42249 24.9759 8.43737C24.9826 8.45533 24.9913 8.4736 25.0002 8.49069C25.0347 8.55687 25.0945 8.64673 25.1454 8.72341L25.3537 8.58523ZM25.3731 9.00976C25.3941 9.00976 25.4259 9.00468 25.4553 8.9813C25.4852 8.95747 25.4976 8.92663 25.5021 8.90408C25.5094 8.86708 25.4991 8.83573 25.4962 8.82685C25.4878 8.80111 25.4729 8.77371 25.4604 8.75209C25.4334 8.70534 25.3926 8.64394 25.3537 8.58523L25.1454 8.72341C25.1861 8.78483 25.2217 8.83866 25.2439 8.87709C25.256 8.89807 25.259 8.90576 25.2585 8.90445C25.2582 8.90333 25.2568 8.89911 25.2558 8.89266C25.255 8.88707 25.2533 8.87328 25.2569 8.8555C25.2607 8.83619 25.2717 8.80785 25.2996 8.78569C25.3269 8.76398 25.3558 8.75976 25.3731 8.75976V9.00976ZM25.1992 8.95819C25.2263 8.96915 25.2553 8.98095 25.2805 8.98986C25.2997 8.99665 25.3372 9.00976 25.3731 9.00976V8.75976C25.3833 8.75976 25.3881 8.7616 25.3829 8.76026C25.3793 8.75933 25.3732 8.75747 25.3639 8.75418C25.3451 8.74753 25.3218 8.73811 25.2931 8.72647L25.1992 8.95819ZM25.1133 8.81565C25.1133 8.82514 25.111 8.84499 25.0962 8.86553C25.0812 8.8864 25.062 8.89598 25.0499 8.89979C25.0326 8.90518 25.0271 8.90022 25.0485 8.90474C25.0853 8.91253 25.1382 8.93349 25.1992 8.95819L25.2931 8.72647C25.2395 8.70479 25.1635 8.67353 25.1001 8.66014C25.0714 8.65407 25.0228 8.64627 24.9751 8.66121C24.9478 8.66978 24.9165 8.68722 24.8932 8.71962C24.8702 8.75168 24.8633 8.78673 24.8633 8.81565H25.1133ZM25.2807 8.89222C25.2211 8.89222 25.1734 8.87608 25.1443 8.85635C25.1157 8.8369 25.1133 8.82126 25.1133 8.81565H24.8633C24.8633 8.92568 24.9267 9.01083 25.004 9.06325C25.0809 9.1154 25.1794 9.14222 25.2807 9.14222V8.89222ZM25.3731 9.32283C25.4432 9.32283 25.5035 9.2856 25.5335 9.22498C25.5598 9.17166 25.5566 9.11387 25.5416 9.06846C25.5096 8.97112 25.4142 8.89222 25.2807 8.89222V9.14222C25.2967 9.14222 25.3027 9.14637 25.3036 9.14704C25.3054 9.14832 25.3049 9.14886 25.3042 9.14659C25.3041 9.14633 25.2997 9.13369 25.3093 9.11423C25.3146 9.10353 25.3239 9.09197 25.3377 9.0835C25.3515 9.07501 25.3647 9.07283 25.3731 9.07283V9.32283ZM25.2253 9.2943C25.2583 9.304 25.3182 9.32283 25.3731 9.32283V9.07283C25.3621 9.07283 25.341 9.06775 25.296 9.0545L25.2253 9.2943ZM25.2448 9.19783C25.2448 9.20224 25.2433 9.23053 25.2165 9.2554C25.1918 9.27824 25.1665 9.2786 25.1649 9.27863C25.1624 9.27867 25.1659 9.2784 25.1793 9.28152C25.1918 9.28445 25.2062 9.28865 25.2253 9.2943L25.296 9.0545C25.2673 9.04602 25.2104 9.02783 25.1606 9.02867C25.133 9.02913 25.0861 9.03534 25.0465 9.07204C25.0047 9.11078 24.9948 9.16093 24.9948 9.19783H25.2448ZM25.2739 9.22324C25.2653 9.2138 25.259 9.20686 25.2535 9.20034C25.2481 9.19398 25.2452 9.18991 25.2435 9.18733C25.242 9.1849 25.2424 9.18503 25.2431 9.18729C25.244 9.1899 25.2448 9.19366 25.2448 9.19783H24.9948C24.9948 9.29718 25.0651 9.36531 25.0891 9.39159L25.2739 9.22324ZM25.4057 9.52485C25.4057 9.36526 25.321 9.27499 25.2739 9.22324L25.0891 9.39159C25.1127 9.41758 25.1277 9.43475 25.1388 9.45471C25.1483 9.47198 25.1557 9.49318 25.1557 9.52485H25.4057ZM25.0142 9.54793C24.9874 9.59019 24.9466 9.68682 25.0211 9.76542C25.0819 9.82968 25.1665 9.81812 25.2058 9.80668C25.3043 9.77799 25.4057 9.67905 25.4057 9.52485H25.1557C25.1557 9.54359 25.1503 9.55314 25.1464 9.55804C25.1441 9.56099 25.1415 9.56322 25.1392 9.56478C25.1368 9.56642 25.1354 9.56679 25.1359 9.56665C25.1362 9.56656 25.1375 9.56621 25.1397 9.56598C25.1418 9.56575 25.1457 9.56556 25.1509 9.56618C25.1602 9.56728 25.1824 9.57224 25.2026 9.59349C25.2252 9.61741 25.2304 9.6462 25.2287 9.66541C25.2273 9.68126 25.2218 9.6873 25.2255 9.68154L25.0142 9.54793ZM24.9723 9.33742C24.9723 9.34116 24.9702 9.38336 24.926 9.40961C24.9074 9.4206 24.8903 9.42275 24.8805 9.42286C24.8711 9.42296 24.8656 9.42127 24.8653 9.42119C24.8652 9.42117 24.8721 9.42358 24.8857 9.43244C24.8982 9.44068 24.9129 9.45215 24.9281 9.4662C24.9596 9.49533 24.9855 9.52833 24.9988 9.55473C25.0158 9.58833 24.9968 9.57536 25.0142 9.54793L25.2255 9.68154C25.2821 9.592 25.2487 9.49497 25.2219 9.44199C25.1915 9.38182 25.1444 9.32574 25.0979 9.28272C25.0538 9.2419 24.9954 9.19906 24.9365 9.18154C24.9093 9.17346 24.8531 9.16216 24.7984 9.19459C24.7353 9.23205 24.7223 9.29698 24.7223 9.33742H24.9723ZM24.9723 9.52485V9.33742H24.7223V9.52485H24.9723ZM24.8033 9.79944C24.821 9.7945 24.8876 9.78022 24.9304 9.71576C24.9662 9.66171 24.9723 9.59249 24.9723 9.52485H24.7223C24.7223 9.554 24.7205 9.57115 24.7188 9.58058C24.7171 9.59002 24.7163 9.58618 24.722 9.57761C24.725 9.57306 24.7291 9.56837 24.734 9.56415C24.7389 9.56003 24.7433 9.55749 24.746 9.55612C24.7485 9.55488 24.7496 9.55466 24.7476 9.55529C24.7454 9.55603 24.7425 9.55687 24.736 9.55867L24.8033 9.79944ZM24.7576 9.82413C24.7669 9.81413 24.7735 9.81018 24.7776 9.8081C24.783 9.80541 24.7884 9.80362 24.8033 9.79944L24.736 9.55867C24.7004 9.56865 24.6374 9.58629 24.5746 9.65379L24.7576 9.82413ZM24.7158 9.88658C24.7174 9.88003 24.7179 9.87769 24.721 9.87187C24.7248 9.86456 24.7344 9.84903 24.7576 9.82413L24.5746 9.65379C24.5397 9.6913 24.5158 9.72473 24.4996 9.75574C24.4825 9.78826 24.4762 9.81361 24.473 9.82695L24.7158 9.88658ZM24.5469 10.0058C24.5583 10.0058 24.5723 10.0056 24.586 10.004C24.5987 10.0025 24.6228 9.99858 24.6476 9.98404C24.6773 9.96662 24.6949 9.94197 24.7047 9.92012C24.7119 9.90428 24.7155 9.88773 24.7158 9.88659L24.473 9.82695C24.4708 9.83565 24.4725 9.82703 24.4768 9.81756C24.4837 9.80206 24.4975 9.7822 24.5212 9.76833C24.54 9.75735 24.5557 9.7558 24.5564 9.75572C24.558 9.75553 24.5562 9.75584 24.5469 9.75584V10.0058ZM24.3454 9.85275C24.362 9.87777 24.3837 9.91104 24.4068 9.93679C24.4281 9.9604 24.4749 10.0058 24.5469 10.0058V9.75584C24.5663 9.75584 24.5807 9.76229 24.5882 9.76683C24.5945 9.77069 24.596 9.77326 24.5927 9.76956C24.5896 9.76616 24.5849 9.76027 24.5779 9.75032C24.5709 9.74043 24.5634 9.72906 24.5539 9.71476L24.3454 9.85275ZM24.1178 9.6428C24.2294 9.68194 24.2882 9.7663 24.3454 9.85275L24.5539 9.71476C24.498 9.63032 24.3993 9.47662 24.2005 9.4069L24.1178 9.6428ZM24.113 9.6008C24.1148 9.59212 24.1159 9.58707 24.1169 9.5829C24.1179 9.57886 24.1182 9.57886 24.1173 9.58092C24.1164 9.58317 24.1134 9.58959 24.1071 9.5972C24.1003 9.60539 24.0913 9.61289 24.0805 9.61827C24.0603 9.62842 24.047 9.62461 24.0568 9.62585C24.0658 9.62698 24.0844 9.6311 24.1178 9.6428L24.2005 9.4069C24.1602 9.39274 24.1226 9.38217 24.0882 9.37782C24.0547 9.37358 24.011 9.37351 23.9687 9.39468C23.9224 9.41784 23.8987 9.4556 23.8864 9.48501C23.876 9.51012 23.8708 9.53756 23.8682 9.55021L24.113 9.6008ZM23.9654 9.841C24.0812 9.75906 24.102 9.65429 24.113 9.6008L23.8682 9.55021C23.8631 9.57503 23.8599 9.58819 23.8538 9.60058C23.8489 9.61058 23.8406 9.62302 23.821 9.63692L23.9654 9.841ZM23.9401 9.80471C23.9351 9.79942 23.9324 9.79653 23.9303 9.79403C23.9282 9.79166 23.9285 9.7917 23.9296 9.79348C23.9323 9.79768 23.9416 9.81422 23.9399 9.83846C23.9383 9.86142 23.9281 9.87268 23.9301 9.87019C23.9325 9.86729 23.9418 9.85769 23.9654 9.841L23.821 9.63692C23.7885 9.65988 23.7596 9.68414 23.7374 9.71093C23.7149 9.73815 23.6938 9.77496 23.6905 9.82096C23.6872 9.86826 23.7042 9.90536 23.7197 9.92926C23.7335 9.95054 23.751 9.96853 23.7583 9.97625L23.9401 9.80471ZM24.0182 9.9731C24.0182 9.8803 23.9558 9.82134 23.9401 9.80471L23.7583 9.97625C23.7638 9.98217 23.7671 9.98567 23.7699 9.98892C23.7725 9.99196 23.7732 9.99313 23.7731 9.99294C23.7729 9.99261 23.7715 9.99038 23.7703 9.98649C23.7689 9.98238 23.7682 9.97773 23.7682 9.9731H24.0182ZM23.5721 9.73896C23.5721 9.80025 23.5935 9.85823 23.6164 9.90312C23.6401 9.94968 23.6711 9.99309 23.7024 10.0277C23.7298 10.058 23.7712 10.097 23.8193 10.1147C23.842 10.1231 23.9011 10.139 23.9573 10.0989C24.0128 10.0594 24.0182 9.99873 24.0182 9.9731H23.7682C23.7682 9.97236 23.7674 9.92727 23.8122 9.89536C23.8577 9.86295 23.9014 9.87856 23.9057 9.88015C23.917 9.88432 23.9094 9.88384 23.8878 9.85996C23.8701 9.84042 23.8521 9.81503 23.8391 9.78952C23.8252 9.76233 23.8221 9.74495 23.8221 9.73896H23.5721ZM23.5992 9.52485C23.5992 9.53275 23.5967 9.57288 23.5565 9.60161C23.5199 9.62781 23.485 9.62017 23.4805 9.61911C23.4709 9.61686 23.4798 9.61746 23.503 9.63789C23.5225 9.65507 23.5419 9.67754 23.5556 9.69998C23.5624 9.71098 23.5668 9.72049 23.5694 9.72799C23.5721 9.73562 23.5721 9.73912 23.5721 9.73896H23.8221C23.8221 9.67313 23.7959 9.61365 23.7689 9.56951C23.7408 9.52364 23.7046 9.48234 23.6683 9.45039C23.6358 9.42167 23.589 9.38776 23.5376 9.37571C23.5121 9.36975 23.4598 9.3634 23.411 9.39833C23.3587 9.43578 23.3492 9.49208 23.3492 9.52485H23.5992ZM23.3596 9.86396C23.4099 9.86396 23.4596 9.85097 23.5017 9.81885C23.5428 9.78747 23.5653 9.74643 23.5779 9.71035C23.6007 9.64511 23.5992 9.56795 23.5992 9.52485H23.3492C23.3492 9.55057 23.3491 9.5718 23.3477 9.59125C23.3463 9.61095 23.3439 9.6223 23.3418 9.62807C23.3401 9.63308 23.3411 9.62692 23.35 9.62014C23.3599 9.61262 23.3666 9.61396 23.3596 9.61396V9.86396ZM23.4244 9.82442C23.4252 9.81183 23.4256 9.80743 23.426 9.80476C23.4264 9.80222 23.4256 9.81052 23.4191 9.82213C23.4111 9.83647 23.3978 9.84973 23.3811 9.8577C23.3669 9.86445 23.3574 9.86396 23.3596 9.86396V9.61396C23.3343 9.61396 23.3038 9.61762 23.2736 9.63198C23.2409 9.64756 23.2167 9.6719 23.2009 9.7001C23.1867 9.72558 23.1814 9.75052 23.1789 9.76674C23.1764 9.78281 23.1755 9.79927 23.1749 9.80896L23.4244 9.82442ZM23.2896 10.0776C23.3477 10.0395 23.3835 9.99123 23.4031 9.93949C23.421 9.89213 23.4231 9.84655 23.4244 9.82442L23.1749 9.80896C23.1733 9.83483 23.172 9.84387 23.1693 9.85091C23.1684 9.85337 23.1673 9.85531 23.1656 9.85736C23.164 9.85946 23.1603 9.86345 23.1524 9.8686L23.2896 10.0776ZM23.0304 9.93254C23.0297 9.94345 23.0282 9.96344 23.0292 9.98148C23.0297 9.99103 23.031 10.0061 23.0361 10.0228C23.0411 10.0396 23.0521 10.0656 23.0769 10.0878C23.1342 10.139 23.2009 10.1204 23.2211 10.1134C23.2462 10.1048 23.2701 10.0904 23.2896 10.0776L23.1524 9.8686C23.1364 9.87909 23.134 9.87902 23.1396 9.87708C23.1403 9.87684 23.1943 9.85737 23.2435 9.90141C23.2643 9.92001 23.2725 9.94078 23.2755 9.95101C23.2786 9.96114 23.2788 9.9682 23.2788 9.9685C23.2789 9.9694 23.2788 9.96847 23.279 9.96429C23.2791 9.9602 23.2794 9.95536 23.2799 9.94819L23.0304 9.93254ZM23.01 9.81632C23.0326 9.845 23.0338 9.87829 23.0304 9.93254L23.2799 9.94819C23.283 9.89822 23.2941 9.77293 23.2064 9.66161L23.01 9.81632ZM23.0112 9.39795C22.9971 9.43107 22.9695 9.49466 22.9572 9.56415C22.9451 9.63272 22.9435 9.73181 23.01 9.81632L23.2064 9.66161C23.204 9.65852 23.1966 9.64604 23.2034 9.60769C23.21 9.57028 23.226 9.53162 23.2412 9.4958L23.0112 9.39795ZM23.1915 9.51854C23.2026 9.50864 23.2032 9.50904 23.1982 9.51215C23.1963 9.51332 23.1921 9.51588 23.186 9.51857C23.1807 9.52091 23.1684 9.52587 23.1516 9.5277C23.1342 9.5296 23.1034 9.52889 23.0724 9.50906C23.0403 9.48852 23.0259 9.45911 23.0202 9.4388C23.015 9.42019 23.0156 9.40502 23.0161 9.39841C23.0166 9.39081 23.0178 9.38515 23.0184 9.38253C23.0196 9.37747 23.0206 9.37485 23.02 9.37661C23.0188 9.38001 23.0163 9.3858 23.0112 9.39795L23.2412 9.4958C23.2454 9.48608 23.2508 9.47336 23.2548 9.46251C23.2567 9.45715 23.2598 9.44846 23.262 9.43853C23.2629 9.43461 23.2705 9.40542 23.261 9.37128C23.2549 9.34977 23.24 9.31948 23.207 9.29841C23.1752 9.27804 23.1433 9.27713 23.1245 9.27917C23.093 9.28261 23.0704 9.29723 23.066 9.29998C23.0506 9.30955 23.0357 9.32252 23.0249 9.33219L23.1915 9.51854ZM22.759 9.64985C22.8501 9.64987 23.0402 9.65387 23.1915 9.51854L23.0249 9.33219C22.9536 9.39592 22.8599 9.39987 22.759 9.39985L22.759 9.64985ZM22.7552 9.64985H22.759V9.39985H22.7552V9.64985ZM22.7315 9.69254C22.7392 9.68305 22.7459 9.67496 22.7527 9.66725C22.7595 9.6596 22.7651 9.65398 22.7697 9.65C22.7745 9.64589 22.7762 9.64532 22.7747 9.64602C22.7729 9.64691 22.7659 9.64985 22.7552 9.64985V9.39985C22.6863 9.39985 22.635 9.43604 22.6063 9.46079C22.5763 9.48675 22.5515 9.51771 22.5377 9.53468L22.7315 9.69254ZM22.4622 9.61474C22.4622 9.62957 22.4625 9.66008 22.4741 9.68949C22.4803 9.70535 22.4962 9.73748 22.5336 9.75828C22.5753 9.78154 22.6165 9.77588 22.6413 9.76715C22.6634 9.75937 22.6788 9.74744 22.6861 9.74145C22.6945 9.73451 22.7014 9.72746 22.7062 9.7223C22.7155 9.71236 22.725 9.70054 22.7315 9.69254L22.5377 9.53468C22.5294 9.54489 22.5256 9.54945 22.5231 9.55205C22.5221 9.55317 22.5236 9.55143 22.527 9.54859C22.5293 9.54671 22.5402 9.53768 22.5583 9.53133C22.579 9.52403 22.6165 9.51835 22.6552 9.53987C22.6894 9.55892 22.7027 9.58761 22.7068 9.59805C22.7141 9.61663 22.7122 9.62845 22.7122 9.61474H22.4622ZM22.997 9.07283C22.8114 9.07283 22.676 9.17837 22.5926 9.28706C22.5505 9.3419 22.5188 9.40077 22.4973 9.45531C22.4766 9.50784 22.4622 9.56458 22.4622 9.61474H22.7122C22.7122 9.60743 22.7156 9.58332 22.7299 9.54691C22.7434 9.5125 22.764 9.47433 22.7909 9.43931C22.8454 9.36827 22.915 9.32283 22.997 9.32283V9.07283ZM23.3257 8.9633C23.2437 9.01904 23.1655 9.07283 22.997 9.07283V9.32283C23.2407 9.32283 23.37 9.23553 23.4663 9.17004L23.3257 8.9633ZM23.4149 8.90717C23.3819 8.92494 23.3513 8.94593 23.3257 8.9633L23.4663 9.17004C23.4939 9.15125 23.5138 9.13785 23.5335 9.12727L23.4149 8.90717ZM23.3021 8.92665C23.3285 8.9403 23.3526 8.95402 23.3722 8.96722C23.3931 8.98128 23.4029 8.99074 23.4058 8.99436C23.4099 8.99941 23.3908 8.97897 23.3984 8.94249C23.4058 8.90678 23.43 8.89902 23.4149 8.90717L23.5335 9.12727C23.5757 9.10455 23.6285 9.06359 23.6431 8.99357C23.6579 8.92279 23.6244 8.86693 23.5999 8.83673C23.5528 8.77875 23.4729 8.73354 23.4171 8.70465L23.3021 8.92665ZM23.2493 8.57141C23.2284 8.61626 23.2078 8.67297 23.2034 8.72911C23.1993 8.78204 23.2086 8.87822 23.3021 8.92665L23.4171 8.70465C23.4245 8.70849 23.4318 8.71409 23.4381 8.72134C23.4442 8.72846 23.4479 8.73551 23.4499 8.74098C23.4537 8.75081 23.4522 8.75503 23.4527 8.7487C23.4531 8.74311 23.4548 8.73354 23.459 8.72004C23.4631 8.70688 23.4688 8.69219 23.4759 8.67689L23.2493 8.57141ZM23.4223 8.734C23.4601 8.71347 23.4996 8.6873 23.5314 8.65498C23.5613 8.62456 23.5992 8.57333 23.5992 8.50443H23.3492C23.3492 8.49105 23.3531 8.48194 23.3549 8.47839C23.3566 8.47521 23.3569 8.47579 23.3531 8.47967C23.345 8.48794 23.3287 8.50032 23.303 8.5143L23.4223 8.734ZM23.5992 8.50443C23.5992 8.49041 23.5981 8.45319 23.5731 8.41798C23.5585 8.39748 23.5367 8.37917 23.508 8.36939C23.4807 8.36004 23.4557 8.36141 23.438 8.36502C23.406 8.37151 23.3834 8.38795 23.3735 8.39571C23.361 8.40539 23.3504 8.41613 23.3418 8.42565C23.3088 8.46223 23.2746 8.51689 23.2493 8.57141L23.4759 8.67689C23.4939 8.63818 23.5155 8.6063 23.5275 8.59299C23.5302 8.59003 23.5301 8.59059 23.5272 8.59285C23.5268 8.59318 23.5126 8.60496 23.4878 8.61001C23.4735 8.6129 23.4518 8.61435 23.4272 8.60596C23.4014 8.59714 23.382 8.58064 23.3693 8.56288C23.3482 8.53315 23.3492 8.50512 23.3492 8.50443H23.5992ZM23.1082 8.82501C23.1988 8.82501 23.3278 8.7853 23.4223 8.734L23.303 8.5143C23.2327 8.55244 23.145 8.57501 23.1082 8.57501V8.82501ZM23.0176 8.44258C22.9957 8.49599 22.9683 8.56129 22.9575 8.61325C22.9527 8.63614 22.9447 8.68319 22.9637 8.73035C22.9749 8.75823 22.9953 8.78515 23.0263 8.80344C23.0555 8.8207 23.0853 8.82501 23.1082 8.82501V8.57501C23.1158 8.57501 23.1335 8.57641 23.1533 8.58812C23.1749 8.60084 23.1886 8.61956 23.1955 8.63688C23.2016 8.65201 23.2017 8.66343 23.2016 8.66599C23.2016 8.66905 23.2013 8.66891 23.2022 8.66431C23.2042 8.65471 23.2089 8.63913 23.2177 8.61567C23.2262 8.59282 23.2367 8.56713 23.2489 8.53745L23.0176 8.44258ZM23.096 8.18613C23.096 8.21167 23.0888 8.24837 23.0733 8.29647C23.0582 8.34347 23.0381 8.39244 23.0176 8.44258L23.2489 8.53745C23.2688 8.48897 23.2926 8.43096 23.3113 8.37314C23.3295 8.31644 23.346 8.2505 23.346 8.18613H23.096ZM23.1277 7.94692C23.116 7.99839 23.096 8.08505 23.096 8.18613H23.346C23.346 8.11594 23.3598 8.05373 23.3715 8.00224L23.1277 7.94692ZM23.2935 8.01733C23.2975 8.0145 23.2985 8.01404 23.2972 8.01473C23.297 8.01484 23.2887 8.0196 23.2749 8.02255C23.2612 8.02549 23.2274 8.02956 23.1918 8.00823C23.1553 7.98634 23.1426 7.95332 23.1386 7.93751C23.1348 7.92249 23.1355 7.91155 23.1356 7.91047C23.1357 7.9081 23.1359 7.90795 23.1353 7.91136C23.134 7.91863 23.1317 7.92903 23.1277 7.94692L23.3715 8.00224C23.375 7.98685 23.3791 7.96877 23.3818 7.95316C23.3833 7.94396 23.3896 7.91038 23.3809 7.87592C23.3755 7.85466 23.3604 7.81778 23.3202 7.79373C23.281 7.77024 23.2424 7.77384 23.2225 7.77811C23.1883 7.78544 23.1605 7.80509 23.1485 7.81366L23.2935 8.01733ZM22.5835 8.00156C22.6956 8.01803 22.8385 8.03906 22.9614 8.05022C23.0226 8.05577 23.0825 8.05924 23.1331 8.05791C23.1582 8.05725 23.1842 8.05533 23.2084 8.05089C23.2297 8.04697 23.2633 8.03882 23.2935 8.01733L23.1485 7.81366C23.1632 7.80324 23.1728 7.80324 23.1632 7.805C23.1565 7.80624 23.1446 7.80752 23.1265 7.808C23.0903 7.80895 23.0416 7.80647 22.984 7.80124C22.8693 7.79083 22.7336 7.77093 22.6198 7.75422L22.5835 8.00156ZM22.3988 7.97728C22.3986 7.97728 22.3999 7.97729 22.4034 7.97752C22.4066 7.97774 22.4109 7.97811 22.4164 7.97866C22.4274 7.97976 22.4414 7.98145 22.4583 7.98368C22.4922 7.98816 22.5348 7.9944 22.5835 8.00156L22.6198 7.75422C22.5717 7.74715 22.5271 7.7406 22.491 7.73583C22.4578 7.73145 22.4228 7.72728 22.3988 7.72728V7.97728ZM22.3129 7.66215C22.2982 7.69115 22.2747 7.73634 22.2632 7.77486C22.2587 7.79019 22.2469 7.83187 22.2606 7.87709C22.269 7.90488 22.2872 7.93413 22.3187 7.95438C22.348 7.97325 22.3779 7.97728 22.3988 7.97728V7.72728C22.4091 7.72728 22.4308 7.72923 22.454 7.74418C22.4794 7.76051 22.4936 7.784 22.4998 7.80447C22.5052 7.82233 22.5042 7.83604 22.5037 7.84042C22.5032 7.84554 22.5024 7.84781 22.5029 7.84611C22.504 7.84244 22.507 7.83439 22.5135 7.82049C22.5197 7.80714 22.5271 7.79245 22.5358 7.77537L22.3129 7.66215ZM22.4517 7.71663C22.4617 7.71196 22.4659 7.71077 22.4657 7.71082C22.4654 7.7109 22.4627 7.71162 22.4581 7.71208C22.4536 7.71253 22.4452 7.71293 22.4344 7.7111C22.409 7.70678 22.3771 7.69069 22.3579 7.65671C22.3423 7.62931 22.3439 7.60527 22.3444 7.59984C22.3452 7.58973 22.3474 7.58969 22.3394 7.60799C22.3328 7.62284 22.324 7.64035 22.3129 7.66215L22.5358 7.77537C22.546 7.75527 22.5584 7.73097 22.5684 7.70826C22.5768 7.689 22.5906 7.65568 22.5935 7.62075C22.595 7.6029 22.5952 7.56857 22.5754 7.53351C22.5518 7.49189 22.5126 7.47078 22.4762 7.46461C22.4454 7.45939 22.4181 7.46474 22.4009 7.46936C22.3821 7.47442 22.3634 7.48193 22.3458 7.49017L22.4517 7.71663ZM21.6499 7.80374C21.7606 7.80481 21.9088 7.80631 22.0517 7.79696C22.1902 7.78791 22.3422 7.76786 22.4517 7.71663L22.3458 7.49017C22.2823 7.51987 22.1718 7.53857 22.0354 7.5475C21.9034 7.55613 21.7643 7.55484 21.6524 7.55375L21.6499 7.80374ZM21.5634 7.80314C21.5886 7.80314 21.6175 7.80342 21.6499 7.80374L21.6524 7.55375C21.6203 7.55344 21.5901 7.55314 21.5634 7.55314V7.80314ZM21.4786 7.4446C21.4671 7.45712 21.4495 7.4761 21.4332 7.49652C21.4182 7.51534 21.3969 7.54421 21.3838 7.57755C21.3718 7.60814 21.3523 7.68374 21.4113 7.74724C21.4587 7.7983 21.5258 7.80314 21.5634 7.80314V7.55314C21.554 7.55314 21.5532 7.55216 21.5578 7.55342C21.5622 7.55466 21.5785 7.55997 21.5945 7.57716C21.6123 7.59637 21.6199 7.61977 21.6207 7.63947C21.6214 7.65627 21.6173 7.66708 21.6165 7.6689C21.6155 7.67153 21.6174 7.66645 21.6286 7.6525C21.6384 7.64016 21.65 7.62755 21.6624 7.61411L21.4786 7.4446ZM21.6228 7.62075C21.635 7.61414 21.6356 7.61452 21.6305 7.61632C21.6286 7.61698 21.624 7.61855 21.6176 7.61989C21.6126 7.62094 21.598 7.62374 21.5791 7.62146C21.5597 7.61911 21.5189 7.60874 21.4913 7.5674C21.4651 7.5283 21.4698 7.48945 21.4728 7.47448C21.4761 7.4582 21.4819 7.44673 21.4841 7.44263C21.4868 7.43743 21.4893 7.4338 21.4904 7.43225C21.4925 7.42923 21.4937 7.42793 21.4925 7.42936C21.4901 7.43212 21.4862 7.43645 21.4786 7.4446L21.6624 7.61411C21.6685 7.60743 21.6766 7.59876 21.683 7.59119C21.6862 7.58744 21.691 7.58163 21.6957 7.57487C21.697 7.57298 21.7121 7.55272 21.7179 7.52384C21.7211 7.50781 21.7257 7.46813 21.6991 7.42843C21.6711 7.38648 21.6296 7.37574 21.6091 7.37326C21.576 7.36925 21.5491 7.37992 21.547 7.38065C21.5318 7.38604 21.516 7.39431 21.5041 7.40073L21.6228 7.62075ZM21.1492 7.7284C21.3114 7.7284 21.4659 7.70541 21.6228 7.62075L21.5041 7.40073C21.3954 7.45939 21.2857 7.4784 21.1492 7.4784V7.7284ZM20.933 7.59487C20.9414 7.60959 20.962 7.64845 20.9986 7.67854C21.0411 7.71342 21.0926 7.7284 21.1492 7.7284V7.4784C21.1427 7.4784 21.1421 7.47758 21.1452 7.47857C21.1488 7.47973 21.1533 7.48206 21.1573 7.48535C21.1608 7.48822 21.1618 7.49008 21.1602 7.4879C21.1595 7.48679 21.1583 7.485 21.1565 7.48206C21.1547 7.47899 21.1528 7.47564 21.15 7.47082L20.933 7.59487ZM20.8669 7.56407C20.8889 7.56393 20.9022 7.56612 20.9096 7.56803C20.9131 7.56896 20.9153 7.56982 20.9164 7.57031C20.9169 7.57056 20.9173 7.57075 20.9174 7.57086C20.9176 7.57096 20.9177 7.57102 20.9177 7.57103C20.9177 7.57104 20.9177 7.57104 20.9178 7.57105C20.9178 7.57107 20.9178 7.57113 20.918 7.57127C20.9182 7.57154 20.9189 7.57227 20.9201 7.57382C20.923 7.57774 20.926 7.58271 20.933 7.59487L21.15 7.47082C21.1382 7.45012 21.1127 7.40257 21.0616 7.36659C21.0084 7.32917 20.9429 7.31357 20.8653 7.31408L20.8669 7.56407ZM20.4047 7.46073C20.4725 7.50585 20.5312 7.53645 20.6091 7.5515C20.679 7.56501 20.7604 7.56477 20.8669 7.56407L20.8653 7.31408C20.7508 7.31483 20.697 7.31386 20.6565 7.30604C20.6241 7.29977 20.5971 7.28844 20.5432 7.2526L20.4047 7.46073ZM20.3949 7.17315C20.391 7.17587 20.377 7.18533 20.3637 7.19805C20.3508 7.21044 20.3282 7.2354 20.318 7.27371C20.2922 7.37149 20.3657 7.43476 20.4047 7.46073L20.5432 7.2526C20.5348 7.247 20.5415 7.24941 20.5495 7.26229C20.56 7.27926 20.5679 7.30689 20.5597 7.33761C20.5531 7.3627 20.5392 7.3762 20.5366 7.37867C20.5337 7.38147 20.5317 7.38256 20.5379 7.37825L20.3949 7.17315ZM20.3938 7.38386C20.4176 7.38386 20.4331 7.38411 20.443 7.38454C20.4578 7.3852 20.4499 7.38599 20.4365 7.38185C20.4318 7.38041 20.4222 7.37712 20.411 7.37034C20.4001 7.36373 20.3811 7.34977 20.3673 7.32438C20.3322 7.25986 20.3673 7.20499 20.3762 7.19305C20.3821 7.18511 20.3876 7.17981 20.3902 7.1774C20.3931 7.17473 20.3954 7.17296 20.3962 7.17233C20.3974 7.17141 20.398 7.17099 20.3949 7.17315L20.5379 7.37825C20.5394 7.37717 20.5443 7.37379 20.549 7.37017C20.5519 7.36795 20.5651 7.35797 20.5769 7.34215C20.5873 7.32802 20.6229 7.2712 20.5869 7.20496C20.5609 7.15708 20.5152 7.14451 20.5102 7.14298C20.4884 7.13625 20.465 7.13527 20.4541 7.13479C20.4384 7.13409 20.4183 7.13386 20.3938 7.13386V7.38386ZM19.7944 7.38386H20.3938V7.13386H19.7944V7.38386ZM19.9029 6.93766C19.8475 6.93766 19.7879 6.95989 19.7447 6.9805C19.6983 7.00264 19.6477 7.03408 19.6097 7.07066C19.5913 7.08829 19.5683 7.11433 19.554 7.14809C19.5383 7.18517 19.5299 7.24289 19.5661 7.29741C19.5971 7.34401 19.6449 7.36276 19.6768 7.37123C19.7116 7.38049 19.7516 7.38386 19.7944 7.38386V7.13386C19.7625 7.13386 19.7465 7.13109 19.741 7.12962C19.7325 7.12737 19.7556 7.13079 19.7743 7.159C19.7847 7.1746 19.7901 7.19273 19.7905 7.2105C19.7909 7.22701 19.7869 7.23918 19.7843 7.24547C19.7797 7.25624 19.7758 7.25776 19.783 7.25086C19.7959 7.23839 19.8217 7.22078 19.8524 7.20613C19.867 7.19918 19.8803 7.19404 19.891 7.19083C19.9029 7.18727 19.9063 7.18766 19.9029 7.18766V6.93766ZM19.9433 7.08368C19.9678 7.07532 19.9836 7.07175 19.9924 7.07045C20.003 7.06887 19.9969 7.07156 19.9824 7.0675C19.9642 7.06241 19.9292 7.0443 19.9148 7.00063C19.9028 6.96466 19.9143 6.93775 19.9167 6.93247C19.9219 6.92089 19.9238 6.92432 19.9121 6.93199C19.902 6.93869 19.8978 6.93766 19.9029 6.93766V7.18766C19.9619 7.18766 20.0136 7.16456 20.0499 7.14064C20.0846 7.11768 20.1233 7.08192 20.1442 7.03612C20.1544 7.01372 20.1683 6.97093 20.1521 6.92201C20.1333 6.86539 20.0873 6.83726 20.0498 6.82676C20.016 6.8173 19.9823 6.8192 19.9557 6.82315C19.9273 6.82736 19.8961 6.83562 19.8626 6.84707L19.9433 7.08368ZM19.3957 7.10961C19.5775 7.12584 19.7648 7.14458 19.9433 7.08368L19.8626 6.84707C19.7436 6.88767 19.6126 6.87798 19.418 6.8606L19.3957 7.10961ZM19.0586 7.09038C19.1797 7.09038 19.2895 7.10012 19.3957 7.10961L19.418 6.8606C19.3126 6.85118 19.1924 6.84038 19.0586 6.84038V7.09038ZM18.8459 6.70229C18.7882 6.70229 18.7183 6.71029 18.6668 6.74827C18.6368 6.77035 18.6029 6.81135 18.6028 6.87064C18.6026 6.92536 18.6317 6.96425 18.6532 6.98541C18.695 7.02657 18.7568 7.05056 18.8167 7.06522C18.8815 7.08106 18.9624 7.09038 19.0586 7.09038V6.84038C18.9776 6.84038 18.9173 6.83244 18.8762 6.82239C18.8303 6.81116 18.8218 6.80063 18.8286 6.80726C18.8325 6.81116 18.8529 6.83279 18.8528 6.87133C18.8526 6.91443 18.8276 6.94033 18.8152 6.94946C18.7988 6.96155 18.7989 6.95229 18.8459 6.95229V6.70229ZM18.7422 6.85113C18.8182 6.85113 18.8683 6.85714 18.8972 6.86378C18.9119 6.86715 18.917 6.86976 18.916 6.86923C18.9153 6.86888 18.9108 6.86656 18.9048 6.8613C18.899 6.8562 18.8886 6.84558 18.8807 6.82818C18.8722 6.80928 18.8684 6.78587 18.8733 6.76145C18.878 6.73829 18.8889 6.72204 18.8972 6.7126C18.9118 6.69608 18.9249 6.6926 18.9203 6.69431C18.9142 6.69658 18.8907 6.70229 18.8459 6.70229V6.95229C18.9059 6.95229 18.9624 6.94535 19.0074 6.92866C19.0283 6.92089 19.0597 6.90634 19.0847 6.87796C19.0983 6.8626 19.1124 6.84023 19.1184 6.81084C19.1245 6.78019 19.12 6.75046 19.1086 6.72525C19.0883 6.68042 19.0508 6.65749 19.0306 6.64705C19.0066 6.63467 18.9797 6.62621 18.9531 6.6201C18.8993 6.60777 18.8289 6.60113 18.7422 6.60113V6.85113ZM18.2114 6.76491C18.3368 6.79984 18.5192 6.85113 18.7422 6.85113V6.60113C18.5567 6.60113 18.4033 6.55887 18.2785 6.52408L18.2114 6.76491ZM18.0685 6.73228C18.0899 6.73228 18.129 6.74198 18.2114 6.76491L18.2785 6.52408C18.2121 6.5056 18.1327 6.48228 18.0685 6.48228V6.73228ZM18.0685 6.34613C18.0034 6.34613 17.9361 6.35424 17.8847 6.38676C17.8559 6.40496 17.8264 6.43466 17.8134 6.47852C17.8004 6.5222 17.8089 6.56223 17.8221 6.59108C17.846 6.64349 17.8919 6.67735 17.9279 6.69643C17.9672 6.71732 18.0165 6.73228 18.0685 6.73228V6.48228C18.0631 6.48228 18.0538 6.48023 18.045 6.47558C18.0411 6.47348 18.0394 6.47196 18.0396 6.47215C18.0398 6.47232 18.0409 6.47338 18.0426 6.47553C18.0442 6.47764 18.0469 6.48153 18.0495 6.48733C18.0549 6.49916 18.0612 6.52217 18.053 6.5499C18.0447 6.5778 18.0269 6.59261 18.0183 6.59804C18.0108 6.60279 18.0088 6.60166 18.0189 6.59971C18.0282 6.5979 18.0441 6.59613 18.0685 6.59613V6.34613ZM18.3526 6.48265C18.3824 6.48265 18.3971 6.48438 18.4018 6.48529C18.4045 6.4858 18.3987 6.48508 18.3892 6.48046C18.3822 6.47705 18.3522 6.46147 18.3363 6.42227C18.3174 6.37544 18.3336 6.33503 18.3458 6.3162C18.3563 6.2999 18.3676 6.29219 18.3685 6.29152C18.3718 6.28921 18.3686 6.2919 18.3535 6.2977C18.2944 6.32041 18.1732 6.34613 18.0685 6.34613V6.59613C18.2029 6.59613 18.3546 6.56511 18.4432 6.53107C18.465 6.52269 18.4909 6.51119 18.5129 6.49559C18.5233 6.48826 18.5414 6.47413 18.5558 6.45173C18.5719 6.4268 18.5892 6.38064 18.5681 6.32849C18.5501 6.28397 18.5147 6.26351 18.4989 6.25578C18.4805 6.24683 18.4624 6.24234 18.4489 6.23976C18.4212 6.23446 18.3883 6.23265 18.3526 6.23265V6.48265ZM17.7114 6.35425C17.8181 6.38297 17.936 6.41475 18.0461 6.43926C18.1541 6.46333 18.2641 6.48265 18.3526 6.48265V6.23265C18.2934 6.23265 18.2062 6.21879 18.1004 6.19524C17.9967 6.17213 17.8842 6.14187 17.7764 6.11284L17.7114 6.35425ZM17.3651 6.27474C17.3824 6.27474 17.4224 6.28096 17.4893 6.29667C17.5526 6.3115 17.6282 6.33185 17.7114 6.35425L17.7764 6.11284C17.6944 6.09078 17.6145 6.06923 17.5464 6.05328C17.4822 6.0382 17.4154 6.02474 17.3651 6.02474V6.27474ZM17.48 5.99253C17.4275 6.00204 17.3769 6.01116 17.3465 6.01799C17.3387 6.01972 17.3301 6.02178 17.3222 6.02409C17.3184 6.02522 17.3127 6.02698 17.3065 6.02943C17.3041 6.03035 17.2864 6.0369 17.269 6.05153C17.2617 6.05773 17.2353 6.08075 17.2267 6.12234C17.2153 6.17729 17.242 6.21982 17.2656 6.24111C17.2846 6.25821 17.3039 6.26501 17.3102 6.26715C17.3189 6.27006 17.3262 6.27151 17.3304 6.27223C17.3446 6.2747 17.3587 6.27474 17.3651 6.27474V6.02474C17.3587 6.02474 17.3639 6.02432 17.3731 6.02591C17.376 6.02642 17.3823 6.02762 17.3901 6.03026C17.3957 6.03213 17.4144 6.03863 17.433 6.05541C17.4563 6.07637 17.4828 6.11856 17.4715 6.17314C17.4629 6.21435 17.4369 6.23698 17.43 6.24276C17.4202 6.25105 17.4114 6.25577 17.4078 6.25762C17.4034 6.25988 17.3999 6.26133 17.398 6.26206C17.396 6.26285 17.3945 6.26337 17.3938 6.26362C17.3929 6.26388 17.3925 6.26403 17.3924 6.26405C17.3923 6.26407 17.393 6.26387 17.3947 6.26345C17.3963 6.26305 17.3984 6.26255 17.4011 6.26194C17.4252 6.25655 17.4691 6.24856 17.5245 6.23853L17.48 5.99253ZM17.6287 6.14321C17.6789 6.14321 17.7163 6.14411 17.7432 6.1456C17.7724 6.14723 17.7825 6.14925 17.7822 6.14918C17.7814 6.14899 17.7779 6.14808 17.7727 6.14597C17.7684 6.14419 17.7573 6.1393 17.745 6.12909C17.7325 6.11877 17.7114 6.09653 17.7042 6.06019C17.6965 6.02181 17.7087 5.99034 17.7204 5.97188C17.731 5.95517 17.743 5.9456 17.7479 5.9419C17.7537 5.93756 17.7582 5.93511 17.7599 5.93424C17.7631 5.93257 17.7637 5.93265 17.7593 5.93416C17.7403 5.94075 17.7007 5.95025 17.6458 5.96137C17.5932 5.97202 17.5341 5.98274 17.48 5.99253L17.5245 6.23853C17.6258 6.2202 17.7734 6.19389 17.8413 6.17035C17.8509 6.167 17.8631 6.16237 17.875 6.15617C17.8811 6.153 17.9111 6.13809 17.9317 6.10558C17.9447 6.08506 17.9574 6.0516 17.9493 6.01128C17.9417 5.97301 17.9193 5.94891 17.9047 5.93678C17.8795 5.91582 17.8516 5.90886 17.843 5.9067C17.8009 5.89612 17.7273 5.89321 17.6287 5.89321V6.14321ZM16.344 5.61255C16.5019 5.71622 16.7028 5.84822 16.9207 5.95378C17.1378 6.05898 17.3823 6.14321 17.6287 6.14321V5.89321C17.4364 5.89321 17.2315 5.82657 17.0297 5.72879C16.8286 5.63137 16.6407 5.50828 16.4811 5.40354L16.344 5.61255ZM16.0621 5.44344C16.1174 5.46475 16.2088 5.52381 16.344 5.61255L16.4811 5.40354C16.3585 5.32305 16.2389 5.24365 16.152 5.21016L16.0621 5.44344ZM16.2703 5.03805C16.2068 4.9684 16.1192 4.97366 16.0689 4.98763C16.015 5.00258 15.9628 5.03607 15.9264 5.08113C15.8895 5.12668 15.8568 5.20137 15.8863 5.28531C15.9143 5.36506 15.9854 5.4139 16.0621 5.44344L16.152 5.21016C16.1055 5.19224 16.115 5.18207 16.1221 5.20242C16.1258 5.21289 16.1255 5.22336 16.1236 5.23091C16.1219 5.23743 16.1197 5.23968 16.1207 5.23842C16.1216 5.23729 16.1239 5.23492 16.1277 5.23247C16.1315 5.23001 16.1345 5.22885 16.1357 5.22852C16.1374 5.22806 16.1332 5.22966 16.1242 5.2282C16.114 5.22653 16.0986 5.22074 16.0856 5.20651L16.2703 5.03805ZM16.476 5.32793C16.5047 5.34183 16.5031 5.34387 16.4938 5.33501C16.4906 5.33199 16.4804 5.32195 16.4719 5.305C16.4628 5.287 16.4505 5.24942 16.4678 5.20598C16.4841 5.16504 16.5158 5.14703 16.5297 5.14071C16.5444 5.13405 16.5564 5.13233 16.5603 5.13183C16.572 5.13034 16.5733 5.1324 16.5527 5.12898C16.5372 5.12641 16.5163 5.122 16.4919 5.11589C16.443 5.10363 16.386 5.08612 16.3382 5.06771C16.3143 5.05847 16.2948 5.04978 16.2806 5.04231C16.2634 5.03324 16.2639 5.03106 16.2703 5.03805L16.0856 5.20651C16.1097 5.23295 16.1413 5.25153 16.164 5.26349C16.1898 5.27704 16.219 5.28965 16.2482 5.30094C16.3069 5.32358 16.3739 5.34404 16.4312 5.35839C16.4598 5.36557 16.4876 5.37162 16.5118 5.37562C16.5309 5.37878 16.563 5.38353 16.5921 5.3798C16.6004 5.37874 16.6159 5.37616 16.6332 5.36831C16.6497 5.3608 16.6831 5.34127 16.7001 5.29848C16.7181 5.25319 16.7056 5.21342 16.6953 5.19287C16.6855 5.17337 16.6729 5.16042 16.6664 5.15413C16.6433 5.13216 16.6101 5.11512 16.585 5.10296L16.476 5.32793ZM16.0065 4.91195C16.079 5.01011 16.2315 5.20947 16.476 5.32793L16.585 5.10296C16.3992 5.01289 16.277 4.85739 16.2076 4.76342L16.0065 4.91195ZM16.2598 4.65642C16.228 4.62883 16.1881 4.60423 16.1421 4.59599C16.0931 4.58722 16.0299 4.59767 15.9865 4.65064C15.947 4.69881 15.9456 4.75624 15.9531 4.79609C15.9609 4.83783 15.9808 4.87716 16.0065 4.91195L16.2076 4.76342C16.1978 4.75018 16.1979 4.74518 16.1987 4.74983C16.1993 4.75259 16.2036 4.78014 16.1798 4.80916C16.1521 4.84299 16.1145 4.84503 16.0981 4.84208C16.0846 4.83967 16.0843 4.83514 16.0961 4.84536L16.2598 4.65642ZM16.668 5.04448C16.7275 4.93455 16.7275 4.93455 16.7275 4.93455C16.7275 4.93455 16.7275 4.93455 16.7275 4.93455C16.7275 4.93454 16.7275 4.93453 16.7274 4.93452C16.7274 4.9345 16.7273 4.93447 16.7272 4.93442C16.7271 4.93432 16.7268 4.93417 16.7264 4.93398C16.7257 4.93358 16.7246 4.93298 16.7231 4.93219C16.7202 4.93061 16.7159 4.92828 16.7104 4.92527C16.6994 4.91924 16.6835 4.91053 16.6641 4.89984C16.6254 4.87842 16.5729 4.84914 16.5178 4.81759C16.4626 4.78595 16.4055 4.75244 16.3573 4.72248C16.3065 4.69091 16.2731 4.66792 16.2598 4.65642L16.0961 4.84536C16.1265 4.87167 16.1762 4.90429 16.2254 4.93486C16.2772 4.96704 16.3372 5.00219 16.3936 5.0345C16.4501 5.06689 16.5037 5.09683 16.5432 5.11865C16.563 5.12957 16.5793 5.13848 16.5906 5.14467C16.5963 5.14777 16.6007 5.15019 16.6037 5.15184C16.6053 5.15267 16.6064 5.1533 16.6072 5.15374C16.6076 5.15395 16.6079 5.15412 16.6081 5.15423C16.6083 5.15429 16.6083 5.15433 16.6084 5.15436C16.6084 5.15438 16.6084 5.15439 16.6085 5.1544C16.6085 5.1544 16.6085 5.15441 16.6085 5.15441C16.6085 5.15441 16.6085 5.15442 16.668 5.04448ZM16.1709 4.57204C16.2612 4.74317 16.363 4.88279 16.442 4.97962C16.4816 5.02815 16.5158 5.06625 16.5404 5.09251C16.5527 5.10564 16.5626 5.11584 16.5696 5.12292C16.5731 5.12646 16.5759 5.12922 16.5779 5.13119C16.5789 5.13217 16.5797 5.13296 16.5803 5.13354C16.5806 5.13383 16.5808 5.13407 16.581 5.13426C16.5811 5.13435 16.5812 5.13443 16.5813 5.1345C16.5813 5.13454 16.5813 5.13457 16.5814 5.1346C16.5814 5.13461 16.5814 5.13463 16.5814 5.13464C16.5814 5.13465 16.5814 5.13467 16.668 5.04448C16.7545 4.9543 16.7546 4.95431 16.7546 4.95433C16.7546 4.95433 16.7546 4.95434 16.7546 4.95435C16.7546 4.95437 16.7546 4.95438 16.7546 4.95439C16.7547 4.95441 16.7547 4.95441 16.7547 4.95441C16.7546 4.9544 16.7546 4.95434 16.7545 4.95422C16.7542 4.954 16.7538 4.95359 16.7532 4.95297C16.7519 4.95175 16.7499 4.94976 16.7472 4.94701C16.7418 4.94152 16.7335 4.93302 16.7229 4.92171C16.7017 4.89907 16.6713 4.86521 16.6357 4.82154C16.5642 4.73397 16.4727 4.60819 16.392 4.45531L16.1709 4.57204ZM16.8259 4.41777C16.7463 4.35122 16.6624 4.29517 16.5832 4.25386C16.506 4.21365 16.4247 4.18301 16.3516 4.17586C16.315 4.17228 16.271 4.1736 16.2285 4.19096C16.1818 4.21006 16.1426 4.2467 16.1232 4.29946C16.1056 4.34744 16.1089 4.39662 16.1183 4.43828C16.128 4.48087 16.1464 4.52569 16.1709 4.57204L16.392 4.45531C16.3737 4.42066 16.3654 4.39707 16.3621 4.38291C16.3587 4.36783 16.3629 4.37193 16.3579 4.38558C16.3512 4.404 16.3362 4.41705 16.3232 4.42237C16.3144 4.42595 16.3135 4.42332 16.3273 4.42467C16.355 4.42738 16.4036 4.44217 16.4676 4.47557C16.5296 4.50786 16.5985 4.55358 16.6655 4.60958L16.8259 4.41777ZM17.4645 4.71333C17.3474 4.70139 17.0971 4.64453 16.8259 4.41777L16.6655 4.60958C16.9807 4.873 17.2801 4.94582 17.4391 4.96204L17.4645 4.71333ZM16.9874 4.62297C17.1178 4.69532 17.2475 4.7766 17.3259 4.83592C17.3452 4.85057 17.3598 4.86265 17.3698 4.87191C17.3818 4.88307 17.3807 4.88419 17.3764 4.87675C17.3744 4.87348 17.3648 4.85683 17.3637 4.83104C17.3622 4.79769 17.376 4.76122 17.4064 4.7366C17.4301 4.71747 17.4531 4.71447 17.458 4.71387C17.4651 4.71303 17.4681 4.71369 17.4645 4.71333L17.4391 4.96204C17.4528 4.96343 17.4698 4.96425 17.4878 4.9621C17.5037 4.96019 17.5347 4.95438 17.5635 4.9311C17.5991 4.90233 17.6152 4.86035 17.6134 4.82025C17.612 4.78772 17.5995 4.76309 17.5923 4.75072C17.5773 4.72509 17.5559 4.70355 17.5397 4.68856C17.5215 4.67167 17.4999 4.65411 17.4768 4.6366C17.3852 4.56726 17.2441 4.47951 17.1088 4.40438L16.9874 4.62297ZM17.1376 3.96182C17.1034 3.92666 17.061 3.89491 17.01 3.88153C16.9534 3.86669 16.8964 3.87744 16.8505 3.91097C16.8091 3.94116 16.785 3.98334 16.7711 4.01986C16.7566 4.05761 16.7492 4.09886 16.7467 4.13942C16.7375 4.29054 16.7968 4.51714 16.9874 4.62297L17.1088 4.40438C17.0337 4.36274 16.9903 4.25162 16.9962 4.15458C16.9975 4.13311 17.0012 4.11793 17.0046 4.10921C17.0084 4.09926 17.0088 4.10494 16.9978 4.11297C16.9822 4.12435 16.9615 4.12728 16.9465 4.12335C16.9371 4.12087 16.9415 4.11873 16.9586 4.13627L17.1376 3.96182ZM18.2039 4.4566C17.9557 4.35414 17.7076 4.25167 17.5082 4.16123C17.4084 4.11599 17.3228 4.07462 17.2564 4.03851C17.1861 4.0002 17.1498 3.97428 17.1376 3.96182L16.9586 4.13627C16.9999 4.17865 17.0669 4.21998 17.1369 4.2581C17.211 4.29841 17.3029 4.34263 17.4049 4.38891C17.6091 4.48149 17.8616 4.58572 18.1085 4.68768L18.2039 4.4566ZM19.2569 4.94957C19.2164 4.91481 19.1557 4.87918 19.0897 4.84459C19.0211 4.80869 18.9375 4.76924 18.8448 4.72772C18.6594 4.64469 18.4316 4.55064 18.2039 4.4566L18.1085 4.68768C18.3373 4.78216 18.5613 4.87467 18.7426 4.95588C18.8332 4.99648 18.9116 5.03356 18.9737 5.06607C19.0383 5.0999 19.0769 5.12455 19.0943 5.13939L19.2569 4.94957ZM18.9344 4.74956C19.0239 4.89174 19.1027 5.01721 19.1358 5.08621C19.1443 5.10384 19.1457 5.1097 19.1452 5.10758C19.1449 5.10638 19.1442 5.10313 19.1437 5.09831C19.1433 5.09379 19.1428 5.08515 19.1445 5.07405C19.1481 5.04977 19.1652 5.00439 19.2166 4.98356C19.2558 4.96768 19.2877 4.97863 19.2919 4.98003C19.3001 4.98275 19.3034 4.98528 19.3001 4.98321C19.294 4.97945 19.2804 4.96966 19.2569 4.94957L19.0943 5.13939C19.1209 5.16223 19.1461 5.182 19.1689 5.19602C19.1799 5.20285 19.1952 5.21133 19.213 5.21725C19.2268 5.22184 19.266 5.23325 19.3104 5.21528C19.367 5.19236 19.3871 5.14234 19.3917 5.11107C19.3958 5.08415 19.3911 5.06114 19.3884 5.04973C19.3825 5.02463 19.3712 4.99891 19.3611 4.97795C19.3201 4.89257 19.231 4.75142 19.1459 4.61633L18.9344 4.74956ZM18.8279 4.57919C18.8621 4.63484 18.8987 4.69298 18.9344 4.74956L19.1459 4.61633C19.1101 4.55953 19.0742 4.50251 19.0408 4.44816L18.8279 4.57919ZM19.8666 4.66923C19.6039 4.54857 19.3489 4.43132 19.1743 4.36865C19.1302 4.3528 19.0887 4.33953 19.052 4.33048C19.0178 4.32208 18.9773 4.31456 18.9392 4.31736C18.9199 4.31878 18.8911 4.32348 18.8626 4.34059C18.8301 4.36016 18.8046 4.39229 18.7953 4.43325C18.787 4.46926 18.7937 4.50097 18.8004 4.52152C18.8073 4.54297 18.8176 4.56249 18.8279 4.57919L19.0408 4.44816C19.0366 4.44131 19.0369 4.44044 19.0382 4.44445C19.0392 4.44755 19.0445 4.46479 19.0389 4.4891C19.0322 4.51836 19.0135 4.54156 18.9915 4.55481C18.9736 4.5656 18.959 4.56658 18.9575 4.56669C18.9551 4.56687 18.9644 4.56639 18.9922 4.57323C19.0173 4.57943 19.0499 4.58961 19.0899 4.60395C19.2518 4.66208 19.4948 4.77359 19.7622 4.89641L19.8666 4.66923ZM20.8977 5.09451C20.6561 5.03136 20.2536 4.847 19.8666 4.66923L19.7622 4.89641C20.1387 5.06934 20.5662 5.26624 20.8345 5.33638L20.8977 5.09451ZM21.5024 5.29035C21.2943 5.21743 21.0793 5.14198 20.8977 5.09451L20.8345 5.33638C21.0041 5.38073 21.2086 5.4523 21.4197 5.52628L21.5024 5.29035ZM22.3691 5.5354C22.3691 5.54078 22.3683 5.5323 22.3771 5.52229C22.3844 5.51396 22.3889 5.51566 22.3768 5.51848C22.3482 5.52522 22.2901 5.52407 22.1959 5.50534C22.0129 5.46897 21.7643 5.38213 21.5024 5.29035L21.4197 5.52628C21.6749 5.61572 21.9428 5.70993 22.1471 5.75054C22.2466 5.77031 22.3498 5.78164 22.434 5.76186C22.4784 5.75142 22.5272 5.73011 22.5648 5.6874C22.6039 5.64301 22.6191 5.58877 22.6191 5.5354H22.3691ZM23.4335 4.39549C23.1575 4.49059 22.896 4.67622 22.7031 4.8804C22.6063 4.98293 22.5242 5.0928 22.4658 5.20201C22.408 5.30987 22.3691 5.42485 22.3691 5.5354H22.6191C22.6191 5.48083 22.6394 5.40738 22.6862 5.32001C22.7322 5.23399 22.8001 5.14184 22.8849 5.05205C23.0553 4.87162 23.2838 4.7115 23.5149 4.63186L23.4335 4.39549ZM24.2074 4.52498C24.1152 4.46399 24.0126 4.39482 23.8874 4.3617C23.7566 4.32707 23.6125 4.33382 23.4335 4.39549L23.5149 4.63186C23.6578 4.58263 23.7504 4.58405 23.8235 4.60338C23.9022 4.62421 23.9709 4.66827 24.0694 4.73349L24.2074 4.52498ZM24.5839 4.71829C24.4267 4.66953 24.3169 4.5974 24.2074 4.52498L24.0694 4.73349C24.1796 4.80638 24.3154 4.89677 24.5099 4.95707L24.5839 4.71829ZM24.0844 7.71019C23.9594 7.71409 23.9594 7.71409 23.9594 7.71409C23.9594 7.71409 23.9594 7.7141 23.9594 7.71411C23.9594 7.71413 23.9594 7.71416 23.9594 7.71422C23.9594 7.71432 23.9595 7.71448 23.9595 7.7147C23.9595 7.71515 23.9595 7.71583 23.9595 7.71674C23.9596 7.71856 23.9597 7.72129 23.9598 7.72488C23.9599 7.73207 23.9602 7.74266 23.9605 7.75619C23.9612 7.78325 23.9619 7.82199 23.9625 7.86851C23.9636 7.96169 23.964 8.08542 23.9608 8.2087C23.9576 8.33304 23.9509 8.45272 23.9387 8.53955C23.9325 8.58411 23.9258 8.6127 23.9204 8.62737C23.9175 8.63526 23.9178 8.63113 23.9246 8.62288C23.9319 8.61404 23.9573 8.58866 24.0012 8.58866V8.83866C24.0595 8.83866 24.0981 8.80544 24.1175 8.78189C24.1364 8.75895 24.1478 8.73326 24.155 8.71371C24.1698 8.6735 24.1794 8.62369 24.1863 8.57418C24.2005 8.47286 24.2074 8.34168 24.2107 8.21515C24.214 8.08756 24.2136 7.96042 24.2125 7.86546C24.2119 7.8179 24.2111 7.77824 24.2105 7.75043C24.2101 7.73651 24.2099 7.72555 24.2097 7.71803C24.2096 7.71428 24.2095 7.71138 24.2094 7.7094C24.2094 7.70841 24.2094 7.70765 24.2093 7.70713C24.2093 7.70687 24.2093 7.70667 24.2093 7.70653C24.2093 7.70646 24.2093 7.7064 24.2093 7.70636C24.2093 7.70634 24.2093 7.70633 24.2093 7.70632C24.2093 7.7063 24.2093 7.70629 24.0844 7.71019ZM24.5472 8.59181C24.5472 8.5042 24.5206 8.39996 24.4881 8.30224C24.4545 8.20151 24.4104 8.09535 24.3672 7.99972C24.3239 7.90377 24.2807 7.81661 24.2484 7.75352C24.2323 7.72193 24.2187 7.69625 24.2092 7.67839C24.2045 7.66946 24.2007 7.66247 24.1981 7.65766C24.1968 7.65526 24.1958 7.65341 24.1951 7.65212C24.1947 7.65148 24.1945 7.65098 24.1943 7.65063C24.1942 7.65046 24.1941 7.65032 24.1941 7.65022C24.194 7.65017 24.194 7.65013 24.194 7.6501C24.194 7.65008 24.194 7.65006 24.194 7.65005C24.194 7.65004 24.194 7.65003 24.0844 7.71019C23.9748 7.77035 23.9748 7.77034 23.9748 7.77034C23.9748 7.77034 23.9748 7.77034 23.9748 7.77034C23.9748 7.77035 23.9748 7.77036 23.9748 7.77038C23.9749 7.77043 23.9749 7.77052 23.975 7.77064C23.9751 7.77088 23.9753 7.77127 23.9756 7.7718C23.9762 7.77287 23.9771 7.7745 23.9782 7.77667C23.9806 7.78101 23.9841 7.7875 23.9886 7.79591C23.9975 7.81274 24.0104 7.83722 24.0259 7.86748C24.057 7.92809 24.0982 8.01141 24.1394 8.10258C24.1807 8.19406 24.221 8.29167 24.2509 8.38121C24.2817 8.47376 24.2972 8.54629 24.2972 8.59181H24.5472ZM24.5397 8.77299C24.5393 8.76852 24.5396 8.76423 24.5422 8.72964C24.5445 8.69895 24.5472 8.65637 24.5472 8.59181H24.2972C24.2972 8.64842 24.2949 8.68448 24.2929 8.71087C24.2912 8.73337 24.288 8.76463 24.2907 8.7951L24.5397 8.77299ZM24.6376 8.99746C24.5952 8.90296 24.5709 8.8514 24.5549 8.81418C24.5472 8.79641 24.5435 8.78632 24.5414 8.77987C24.5397 8.77453 24.5397 8.77309 24.5397 8.77299L24.2907 8.79511C24.2944 8.83716 24.3081 8.87318 24.3252 8.91299C24.342 8.95197 24.37 9.01177 24.4096 9.09984L24.6376 8.99746ZM24.3584 9.27681C24.394 9.28977 24.4317 9.30361 24.4633 9.31205C24.4793 9.31634 24.4991 9.32075 24.52 9.3221C24.5393 9.32336 24.5727 9.32298 24.6069 9.30552C24.6474 9.28487 24.6722 9.24919 24.6821 9.21136C24.6905 9.17928 24.6874 9.1496 24.6838 9.1299C24.6767 9.09027 24.6588 9.0447 24.6376 8.99746L24.4096 9.09984C24.4192 9.1213 24.4261 9.1382 24.4309 9.15136C24.4358 9.16498 24.4374 9.17192 24.4378 9.17403C24.4384 9.1777 24.4355 9.16628 24.4403 9.14805C24.4429 9.13779 24.4482 9.12488 24.4581 9.11206C24.4682 9.09899 24.4806 9.08929 24.4933 9.08282C24.5164 9.07103 24.535 9.07255 24.5361 9.07263C24.5387 9.07279 24.5368 9.07293 24.5278 9.07053C24.5093 9.06559 24.4836 9.05636 24.4439 9.0419L24.3584 9.27681ZM23.8749 9.17365C24.073 9.17365 24.2375 9.2328 24.3584 9.27681L24.4439 9.0419C24.3225 8.99768 24.1212 8.92365 23.8749 8.92365V9.17365ZM24.0012 8.58866C23.9631 8.58866 23.925 8.60092 23.8978 8.61131C23.8671 8.62309 23.8342 8.63897 23.8021 8.65691C23.7393 8.69203 23.669 8.74107 23.6177 8.79506C23.5926 8.82148 23.5651 8.85627 23.5491 8.89767C23.5321 8.94193 23.5249 9.00513 23.5636 9.06454C23.5981 9.11751 23.6535 9.14221 23.6997 9.15483C23.7482 9.1681 23.8071 9.17365 23.8749 9.17365V8.92365C23.8182 8.92365 23.784 8.91872 23.7656 8.91368C23.7447 8.90797 23.7591 8.90651 23.7731 8.92807C23.7914 8.95608 23.7843 8.98264 23.7824 8.98764C23.7816 8.98978 23.7843 8.9827 23.7989 8.96724C23.8272 8.93749 23.8747 8.90278 23.9242 8.87509C23.9483 8.86162 23.9701 8.85134 23.9872 8.84479C24.0079 8.83686 24.0107 8.83866 24.0012 8.83866V8.58866Z" fill="#272727"/>
</g>
</g>
</svg>
