<svg width="20" height="15" viewBox="0 0 20 15" fill="none" xmlns="http://www.w3.org/2000/svg">
<mask id="mask0" mask-type="alpha" maskUnits="userSpaceOnUse" x="0" y="0" width="20" height="15">
<rect width="20" height="15" fill="white"/>
</mask>
<g mask="url(#mask0)">
<path fill-rule="evenodd" clip-rule="evenodd" d="M0 0H20V15H0V0Z" fill="#2E42A5"/>
</g>
<rect width="11" height="9" fill="#2E42A5"/>
<mask id="mask1" mask-type="alpha" maskUnits="userSpaceOnUse" x="0" y="0" width="11" height="9">
<rect width="11" height="9" fill="white"/>
</mask>
<g mask="url(#mask1)">
<path d="M-1.25269 8.12482L1.22291 9.21057L11.3062 1.1804L12.612 -0.43306L9.96468 -0.795949L5.85197 2.66448L2.54165 4.996L-1.25269 8.12482Z" fill="#F7FCFF"/>
<path d="M-0.913757 8.88555L0.347444 9.51562L12.1431 -0.582947H10.3722L-0.913757 8.88555Z" fill="#F50100"/>
<path d="M12.5026 8.12493L10.3055 9.52063L-0.0562172 1.1805L-1.36204 -0.432954L1.28526 -0.795844L5.39797 2.66459L8.70828 4.99611L12.5026 8.12493Z" fill="#F7FCFF"/>
<path d="M12.4182 8.67082L11.157 9.3009L6.13425 4.97718L4.64512 4.4941L-1.48769 -0.427482H0.283185L6.41255 4.37728L8.04064 4.95655L12.4182 8.67082Z" fill="#F50100"/>
<mask id="path-10-outside-1" maskUnits="userSpaceOnUse" x="-1" y="-1" width="13" height="11" fill="black">
<rect fill="white" x="-1" y="-1" width="13" height="11"/>
<path fill-rule="evenodd" clip-rule="evenodd" d="M6 0H5V4H0V5H5V9H6V5H11V4H6V0Z"/>
</mask>
<path fill-rule="evenodd" clip-rule="evenodd" d="M6 0H5V4H0V5H5V9H6V5H11V4H6V0Z" fill="#F50100"/>
<path d="M5 0V-0.9375H4.0625V0H5ZM6 0H6.9375V-0.9375H6V0ZM5 4V4.9375H5.9375V4H5ZM0 4V3.0625H-0.9375V4H0ZM0 5H-0.9375V5.9375H0V5ZM5 5H5.9375V4.0625H5V5ZM5 9H4.0625V9.9375H5V9ZM6 9V9.9375H6.9375V9H6ZM6 5V4.0625H5.0625V5H6ZM11 5V5.9375H11.9375V5H11ZM11 4H11.9375V3.0625H11V4ZM6 4H5.0625V4.9375H6V4ZM5 0.9375H6V-0.9375H5V0.9375ZM5.9375 4V0H4.0625V4H5.9375ZM0 4.9375H5V3.0625H0V4.9375ZM0.9375 5V4H-0.9375V5H0.9375ZM5 4.0625H0V5.9375H5V4.0625ZM5.9375 9V5H4.0625V9H5.9375ZM6 8.0625H5V9.9375H6V8.0625ZM5.0625 5V9H6.9375V5H5.0625ZM11 4.0625H6V5.9375H11V4.0625ZM10.0625 4V5H11.9375V4H10.0625ZM6 4.9375H11V3.0625H6V4.9375ZM5.0625 0V4H6.9375V0H5.0625Z" fill="#F7FCFF" mask="url(#path-10-outside-1)"/>
</g>
<g clip-path="url(#clip0)">
<path d="M13.481 9.27166V6.99543H18.1222V6.99692V7.00095V7.00499V7.00904V7.0131V7.01716V7.02124V7.02533V7.02942V7.03353V7.03764V7.04177V7.0459V7.05004V7.05419V7.05835V7.06252V7.0667V7.07089V7.07508V7.07929V7.0835V7.08772V7.09195V7.09619V7.10044V7.10469V7.10896V7.11323V7.11751V7.1218V7.1261V7.13041V7.13472V7.13904V7.14338V7.14771V7.15206V7.15642V7.16078V7.16515V7.16953V7.17392V7.17831V7.18271V7.18712V7.19154V7.19596V7.2004V7.20484V7.20928V7.21374V7.2182V7.22267V7.22715V7.23163V7.23612V7.24062V7.24512V7.24964V7.25416V7.25868V7.26321V7.26775V7.2723V7.27685V7.28142V7.28598V7.29056V7.29514V7.29972V7.30432V7.30892V7.31352V7.31813V7.32275V7.32738V7.33201V7.33665V7.34129V7.34594V7.35059V7.35526V7.35992V7.3646V7.36928V7.37396V7.37865V7.38335V7.38805V7.39276V7.39747V7.40219V7.40692V7.41165V7.41638V7.42112V7.42587V7.43062V7.43538V7.44014V7.44491V7.44968V7.45445V7.45924V7.46402V7.46882V7.47361V7.47841V7.48322V7.48803V7.49285V7.49767V7.50249V7.50732V7.51216V7.517V7.52184V7.52669V7.53154V7.53639V7.54125V7.54612V7.55099V7.55586V7.56074V7.56562V7.5705V7.57539V7.58028V7.58518V7.59008V7.59498V7.59989V7.6048V7.60972V7.61463V7.61956V7.62448V7.62941V7.63434V7.63928V7.64422V7.64916V7.6541V7.65905V7.664V7.66896V7.67392V7.67888V7.68384V7.68881V7.69377V7.69875V7.70372V7.7087V7.71368V7.71866V7.72365V7.72863V7.73362V7.73862V7.74361V7.74861V7.75361V7.75861V7.76361V7.76862V7.77363V7.77864V7.78365V7.78867V7.79368V7.7987V7.80372V7.80874V7.81376V7.81879V7.82382V7.82885V7.83388V7.83891V7.84394V7.84897V7.85401V7.85905V7.86409V7.86913V7.87417V7.87921V7.88425V7.8893V7.89434V7.89939V7.90444V7.90948V7.91453V7.91958V7.92463V7.92968V7.93474V7.93979V7.94484V7.9499V7.95495V7.96V7.96506V7.97011V7.97517V7.98023V7.98528V7.99034V7.99539V8.00045V8.00551V8.01056V8.01562V8.02068V8.02573V8.03079V8.03584V8.0409V8.04595V8.05101V8.05606V8.06112V8.06617V8.07122V8.07628V8.08133V8.08638V8.09143V8.09648V8.10153V8.10657V8.11162V8.11667V8.12171V8.12675V8.1318V8.13684V8.14188V8.14692V8.15195V8.15699V8.16203V8.16706V8.17209V8.17712V8.18215V8.18718V8.1922V8.19723V8.20225V8.20727V8.21229V8.21731V8.22232V8.22734V8.23235V8.23736V8.24236V8.24737V8.25237V8.25737V8.26237V8.26736V8.27236V8.27735V8.28234V8.28732V8.29231V8.29729V8.30227V8.30724V8.31221V8.31719V8.32215V8.32712V8.33208V8.33704V8.34199V8.34695V8.35189V8.35684V8.36178V8.36672V8.37166V8.37659V8.38152V8.38645V8.39137V8.39629V8.40121V8.40612V8.41103V8.41594V8.42084V8.42574V8.43063V8.43552V8.44041V8.44529V8.45017V8.45504V8.45991V8.46478V8.46964V8.4745V8.47935V8.4842V8.48904V8.49388V8.49872V8.50355V8.50838V8.5132V8.51802V8.52283V8.52764V8.53244V8.53724V8.54203V8.54682V8.55161V8.55639V8.56116V8.56593V8.57069V8.57545V8.5802V8.58495V8.58969V8.59443V8.59916V8.60389V8.60861V8.61333V8.61804V8.62274V8.62744V8.63213V8.63682V8.6415V8.64618V8.65085V8.65551V8.66017V8.66482V8.66947V8.67411V8.67874V8.68337V8.68799V8.6926V8.69721V8.70181V8.70641V8.711V8.71558V8.72016V8.72473V8.72929V8.73385V8.7384V8.74294V8.74747V8.752V8.75652V8.76104V8.76555V8.77005V8.77454V8.77903V8.78351V8.78798V8.79244V8.7969V8.80135V8.80579V8.81023V8.81466V8.81908V8.82349V8.82789V8.83229V8.83668V8.84106V8.84544V8.8498V8.85416V8.85851V8.86285V8.86719V8.87151V8.87583V8.88014V8.88444V8.88873V8.89302V8.89729V8.90156V8.90582V8.91007V8.91432V8.91855V8.92277V8.92699V8.9312V8.9354V8.93959V8.94377V8.94794V8.9521V8.95626V8.9604V8.96454V8.96867V8.97278V8.97689V8.98099V8.98508V8.98916V8.99323V8.9973V9.00135V9.00539V9.00942V9.01345V9.01746V9.02146V9.02546V9.02944V9.03342V9.03738V9.04134V9.04528V9.04922V9.05314V9.05705V9.06096V9.06485V9.06874V9.07261V9.07647V9.08033V9.08417V9.088V9.09182V9.09563V9.09943V9.10322V9.107V9.11077V9.11452V9.11827V9.122V9.12573V9.12944V9.13314V9.13684V9.14052V9.14418V9.14784V9.15149V9.15512V9.15875V9.16236V9.16596V9.16955V9.17313V9.17669V9.18025V9.18379V9.18732V9.19084V9.19435V9.19784V9.20133V9.2048V9.20826V9.21171V9.21514V9.21857V9.22198V9.22538V9.22876V9.23214V9.2355V9.23885V9.24219V9.24551V9.24883V9.25213V9.25541V9.25869V9.26195V9.2652V9.26843V9.27166C18.1222 10.7369 17.5788 11.706 17.0261 12.309C16.7495 12.6108 16.4702 12.8212 16.2549 12.9559C16.1473 13.0233 16.0559 13.0716 15.9892 13.1029C15.9558 13.1186 15.9289 13.1298 15.9095 13.137C15.8998 13.1406 15.8924 13.143 15.8873 13.1445C15.887 13.1445 15.8867 13.1446 15.8864 13.1447C15.8861 13.1446 15.8856 13.1445 15.8852 13.1444C15.8798 13.1429 15.8719 13.1404 15.8616 13.1367C15.841 13.1295 15.8124 13.1181 15.7768 13.1024C15.7056 13.071 15.6077 13.0226 15.4922 12.9551C15.2612 12.8202 14.9605 12.6096 14.6625 12.3076C14.0671 11.7044 13.481 10.7356 13.481 9.27166Z" fill="white"/>
<path d="M13.481 9.27166V6.99543H18.1222V6.99692V7.00095V7.00499V7.00904V7.0131V7.01716V7.02124V7.02533V7.02942V7.03353V7.03764V7.04177V7.0459V7.05004V7.05419V7.05835V7.06252V7.0667V7.07089V7.07508V7.07929V7.0835V7.08772V7.09195V7.09619V7.10044V7.10469V7.10896V7.11323V7.11751V7.1218V7.1261V7.13041V7.13472V7.13904V7.14338V7.14771V7.15206V7.15642V7.16078V7.16515V7.16953V7.17392V7.17831V7.18271V7.18712V7.19154V7.19596V7.2004V7.20484V7.20928V7.21374V7.2182V7.22267V7.22715V7.23163V7.23612V7.24062V7.24512V7.24964V7.25416V7.25868V7.26321V7.26775V7.2723V7.27685V7.28142V7.28598V7.29056V7.29514V7.29972V7.30432V7.30892V7.31352V7.31813V7.32275V7.32738V7.33201V7.33665V7.34129V7.34594V7.35059V7.35526V7.35992V7.3646V7.36928V7.37396V7.37865V7.38335V7.38805V7.39276V7.39747V7.40219V7.40692V7.41165V7.41638V7.42112V7.42587V7.43062V7.43538V7.44014V7.44491V7.44968V7.45445V7.45924V7.46402V7.46882V7.47361V7.47841V7.48322V7.48803V7.49285V7.49767V7.50249V7.50732V7.51216V7.517V7.52184V7.52669V7.53154V7.53639V7.54125V7.54612V7.55099V7.55586V7.56074V7.56562V7.5705V7.57539V7.58028V7.58518V7.59008V7.59498V7.59989V7.6048V7.60972V7.61463V7.61956V7.62448V7.62941V7.63434V7.63928V7.64422V7.64916V7.6541V7.65905V7.664V7.66896V7.67392V7.67888V7.68384V7.68881V7.69377V7.69875V7.70372V7.7087V7.71368V7.71866V7.72365V7.72863V7.73362V7.73862V7.74361V7.74861V7.75361V7.75861V7.76361V7.76862V7.77363V7.77864V7.78365V7.78867V7.79368V7.7987V7.80372V7.80874V7.81376V7.81879V7.82382V7.82885V7.83388V7.83891V7.84394V7.84897V7.85401V7.85905V7.86409V7.86913V7.87417V7.87921V7.88425V7.8893V7.89434V7.89939V7.90444V7.90948V7.91453V7.91958V7.92463V7.92968V7.93474V7.93979V7.94484V7.9499V7.95495V7.96V7.96506V7.97011V7.97517V7.98023V7.98528V7.99034V7.99539V8.00045V8.00551V8.01056V8.01562V8.02068V8.02573V8.03079V8.03584V8.0409V8.04595V8.05101V8.05606V8.06112V8.06617V8.07122V8.07628V8.08133V8.08638V8.09143V8.09648V8.10153V8.10657V8.11162V8.11667V8.12171V8.12675V8.1318V8.13684V8.14188V8.14692V8.15195V8.15699V8.16203V8.16706V8.17209V8.17712V8.18215V8.18718V8.1922V8.19723V8.20225V8.20727V8.21229V8.21731V8.22232V8.22734V8.23235V8.23736V8.24236V8.24737V8.25237V8.25737V8.26237V8.26736V8.27236V8.27735V8.28234V8.28732V8.29231V8.29729V8.30227V8.30724V8.31221V8.31719V8.32215V8.32712V8.33208V8.33704V8.34199V8.34695V8.35189V8.35684V8.36178V8.36672V8.37166V8.37659V8.38152V8.38645V8.39137V8.39629V8.40121V8.40612V8.41103V8.41594V8.42084V8.42574V8.43063V8.43552V8.44041V8.44529V8.45017V8.45504V8.45991V8.46478V8.46964V8.4745V8.47935V8.4842V8.48904V8.49388V8.49872V8.50355V8.50838V8.5132V8.51802V8.52283V8.52764V8.53244V8.53724V8.54203V8.54682V8.55161V8.55639V8.56116V8.56593V8.57069V8.57545V8.5802V8.58495V8.58969V8.59443V8.59916V8.60389V8.60861V8.61333V8.61804V8.62274V8.62744V8.63213V8.63682V8.6415V8.64618V8.65085V8.65551V8.66017V8.66482V8.66947V8.67411V8.67874V8.68337V8.68799V8.6926V8.69721V8.70181V8.70641V8.711V8.71558V8.72016V8.72473V8.72929V8.73385V8.7384V8.74294V8.74747V8.752V8.75652V8.76104V8.76555V8.77005V8.77454V8.77903V8.78351V8.78798V8.79244V8.7969V8.80135V8.80579V8.81023V8.81466V8.81908V8.82349V8.82789V8.83229V8.83668V8.84106V8.84544V8.8498V8.85416V8.85851V8.86285V8.86719V8.87151V8.87583V8.88014V8.88444V8.88873V8.89302V8.89729V8.90156V8.90582V8.91007V8.91432V8.91855V8.92277V8.92699V8.9312V8.9354V8.93959V8.94377V8.94794V8.9521V8.95626V8.9604V8.96454V8.96867V8.97278V8.97689V8.98099V8.98508V8.98916V8.99323V8.9973V9.00135V9.00539V9.00942V9.01345V9.01746V9.02146V9.02546V9.02944V9.03342V9.03738V9.04134V9.04528V9.04922V9.05314V9.05705V9.06096V9.06485V9.06874V9.07261V9.07647V9.08033V9.08417V9.088V9.09182V9.09563V9.09943V9.10322V9.107V9.11077V9.11452V9.11827V9.122V9.12573V9.12944V9.13314V9.13684V9.14052V9.14418V9.14784V9.15149V9.15512V9.15875V9.16236V9.16596V9.16955V9.17313V9.17669V9.18025V9.18379V9.18732V9.19084V9.19435V9.19784V9.20133V9.2048V9.20826V9.21171V9.21514V9.21857V9.22198V9.22538V9.22876V9.23214V9.2355V9.23885V9.24219V9.24551V9.24883V9.25213V9.25541V9.25869V9.26195V9.2652V9.26843V9.27166C18.1222 10.7369 17.5788 11.706 17.0261 12.309C16.7495 12.6108 16.4702 12.8212 16.2549 12.9559C16.1473 13.0233 16.0559 13.0716 15.9892 13.1029C15.9558 13.1186 15.9289 13.1298 15.9095 13.137C15.8998 13.1406 15.8924 13.143 15.8873 13.1445C15.887 13.1445 15.8867 13.1446 15.8864 13.1447C15.8861 13.1446 15.8856 13.1445 15.8852 13.1444C15.8798 13.1429 15.8719 13.1404 15.8616 13.1367C15.841 13.1295 15.8124 13.1181 15.7768 13.1024C15.7056 13.071 15.6077 13.0226 15.4922 12.9551C15.2612 12.8202 14.9605 12.6096 14.6625 12.3076C14.0671 11.7044 13.481 10.7356 13.481 9.27166Z" stroke="#0B50A0" stroke-width="0.1"/>
<path d="M13.481 9.27166V6.99543H18.1222V6.99692V7.00095V7.00499V7.00904V7.0131V7.01716V7.02124V7.02533V7.02942V7.03353V7.03764V7.04177V7.0459V7.05004V7.05419V7.05835V7.06252V7.0667V7.07089V7.07508V7.07929V7.0835V7.08772V7.09195V7.09619V7.10044V7.10469V7.10896V7.11323V7.11751V7.1218V7.1261V7.13041V7.13472V7.13904V7.14338V7.14771V7.15206V7.15642V7.16078V7.16515V7.16953V7.17392V7.17831V7.18271V7.18712V7.19154V7.19596V7.2004V7.20484V7.20928V7.21374V7.2182V7.22267V7.22715V7.23163V7.23612V7.24062V7.24512V7.24964V7.25416V7.25868V7.26321V7.26775V7.2723V7.27685V7.28142V7.28598V7.29056V7.29514V7.29972V7.30432V7.30892V7.31352V7.31813V7.32275V7.32738V7.33201V7.33665V7.34129V7.34594V7.35059V7.35526V7.35992V7.3646V7.36928V7.37396V7.37865V7.38335V7.38805V7.39276V7.39747V7.40219V7.40692V7.41165V7.41638V7.42112V7.42587V7.43062V7.43538V7.44014V7.44491V7.44968V7.45445V7.45924V7.46402V7.46882V7.47361V7.47841V7.48322V7.48803V7.49285V7.49767V7.50249V7.50732V7.51216V7.517V7.52184V7.52669V7.53154V7.53639V7.54125V7.54612V7.55099V7.55586V7.56074V7.56562V7.5705V7.57539V7.58028V7.58518V7.59008V7.59498V7.59989V7.6048V7.60972V7.61463V7.61956V7.62448V7.62941V7.63434V7.63928V7.64422V7.64916V7.6541V7.65905V7.664V7.66896V7.67392V7.67888V7.68384V7.68881V7.69377V7.69875V7.70372V7.7087V7.71368V7.71866V7.72365V7.72863V7.73362V7.73862V7.74361V7.74861V7.75361V7.75861V7.76361V7.76862V7.77363V7.77864V7.78365V7.78867V7.79368V7.7987V7.80372V7.80874V7.81376V7.81879V7.82382V7.82885V7.83388V7.83891V7.84394V7.84897V7.85401V7.85905V7.86409V7.86913V7.87417V7.87921V7.88425V7.8893V7.89434V7.89939V7.90444V7.90948V7.91453V7.91958V7.92463V7.92968V7.93474V7.93979V7.94484V7.9499V7.95495V7.96V7.96506V7.97011V7.97517V7.98023V7.98528V7.99034V7.99539V8.00045V8.00551V8.01056V8.01562V8.02068V8.02573V8.03079V8.03584V8.0409V8.04595V8.05101V8.05606V8.06112V8.06617V8.07122V8.07628V8.08133V8.08638V8.09143V8.09648V8.10153V8.10657V8.11162V8.11667V8.12171V8.12675V8.1318V8.13684V8.14188V8.14692V8.15195V8.15699V8.16203V8.16706V8.17209V8.17712V8.18215V8.18718V8.1922V8.19723V8.20225V8.20727V8.21229V8.21731V8.22232V8.22734V8.23235V8.23736V8.24236V8.24737V8.25237V8.25737V8.26237V8.26736V8.27236V8.27735V8.28234V8.28732V8.29231V8.29729V8.30227V8.30724V8.31221V8.31719V8.32215V8.32712V8.33208V8.33704V8.34199V8.34695V8.35189V8.35684V8.36178V8.36672V8.37166V8.37659V8.38152V8.38645V8.39137V8.39629V8.40121V8.40612V8.41103V8.41594V8.42084V8.42574V8.43063V8.43552V8.44041V8.44529V8.45017V8.45504V8.45991V8.46478V8.46964V8.4745V8.47935V8.4842V8.48904V8.49388V8.49872V8.50355V8.50838V8.5132V8.51802V8.52283V8.52764V8.53244V8.53724V8.54203V8.54682V8.55161V8.55639V8.56116V8.56593V8.57069V8.57545V8.5802V8.58495V8.58969V8.59443V8.59916V8.60389V8.60861V8.61333V8.61804V8.62274V8.62744V8.63213V8.63682V8.6415V8.64618V8.65085V8.65551V8.66017V8.66482V8.66947V8.67411V8.67874V8.68337V8.68799V8.6926V8.69721V8.70181V8.70641V8.711V8.71558V8.72016V8.72473V8.72929V8.73385V8.7384V8.74294V8.74747V8.752V8.75652V8.76104V8.76555V8.77005V8.77454V8.77903V8.78351V8.78798V8.79244V8.7969V8.80135V8.80579V8.81023V8.81466V8.81908V8.82349V8.82789V8.83229V8.83668V8.84106V8.84544V8.8498V8.85416V8.85851V8.86285V8.86719V8.87151V8.87583V8.88014V8.88444V8.88873V8.89302V8.89729V8.90156V8.90582V8.91007V8.91432V8.91855V8.92277V8.92699V8.9312V8.9354V8.93959V8.94377V8.94794V8.9521V8.95626V8.9604V8.96454V8.96867V8.97278V8.97689V8.98099V8.98508V8.98916V8.99323V8.9973V9.00135V9.00539V9.00942V9.01345V9.01746V9.02146V9.02546V9.02944V9.03342V9.03738V9.04134V9.04528V9.04922V9.05314V9.05705V9.06096V9.06485V9.06874V9.07261V9.07647V9.08033V9.08417V9.088V9.09182V9.09563V9.09943V9.10322V9.107V9.11077V9.11452V9.11827V9.122V9.12573V9.12944V9.13314V9.13684V9.14052V9.14418V9.14784V9.15149V9.15512V9.15875V9.16236V9.16596V9.16955V9.17313V9.17669V9.18025V9.18379V9.18732V9.19084V9.19435V9.19784V9.20133V9.2048V9.20826V9.21171V9.21514V9.21857V9.22198V9.22538V9.22876V9.23214V9.2355V9.23885V9.24219V9.24551V9.24883V9.25213V9.25541V9.25869V9.26195V9.2652V9.26843V9.27166C18.1222 10.7369 17.5788 11.706 17.0261 12.309C16.7495 12.6108 16.4702 12.8212 16.2549 12.9559C16.1473 13.0233 16.0559 13.0716 15.9892 13.1029C15.9558 13.1186 15.9289 13.1298 15.9095 13.137C15.8998 13.1406 15.8924 13.143 15.8873 13.1445C15.887 13.1445 15.8867 13.1446 15.8864 13.1447C15.8861 13.1446 15.8856 13.1445 15.8852 13.1444C15.8798 13.1429 15.8719 13.1404 15.8616 13.1367C15.841 13.1295 15.8124 13.1181 15.7768 13.1024C15.7056 13.071 15.6077 13.0226 15.4922 12.9551C15.2612 12.8202 14.9605 12.6096 14.6625 12.3076C14.0671 11.7044 13.481 10.7356 13.481 9.27166Z" stroke="#F7FCFF" stroke-width="0.1"/>
<mask id="mask2" mask-type="alpha" maskUnits="userSpaceOnUse" x="13" y="6" width="6" height="8">
<path d="M13.481 9.27166V6.99543H18.1222V6.99692V7.00095V7.00499V7.00904V7.0131V7.01716V7.02124V7.02533V7.02942V7.03353V7.03764V7.04177V7.0459V7.05004V7.05419V7.05835V7.06252V7.0667V7.07089V7.07508V7.07929V7.0835V7.08772V7.09195V7.09619V7.10044V7.10469V7.10896V7.11323V7.11751V7.1218V7.1261V7.13041V7.13472V7.13904V7.14338V7.14771V7.15206V7.15642V7.16078V7.16515V7.16953V7.17392V7.17831V7.18271V7.18712V7.19154V7.19596V7.2004V7.20484V7.20928V7.21374V7.2182V7.22267V7.22715V7.23163V7.23612V7.24062V7.24512V7.24964V7.25416V7.25868V7.26321V7.26775V7.2723V7.27685V7.28142V7.28598V7.29056V7.29514V7.29972V7.30432V7.30892V7.31352V7.31813V7.32275V7.32738V7.33201V7.33665V7.34129V7.34594V7.35059V7.35526V7.35992V7.3646V7.36928V7.37396V7.37865V7.38335V7.38805V7.39276V7.39747V7.40219V7.40692V7.41165V7.41638V7.42112V7.42587V7.43062V7.43538V7.44014V7.44491V7.44968V7.45445V7.45924V7.46402V7.46882V7.47361V7.47841V7.48322V7.48803V7.49285V7.49767V7.50249V7.50732V7.51216V7.517V7.52184V7.52669V7.53154V7.53639V7.54125V7.54612V7.55099V7.55586V7.56074V7.56562V7.5705V7.57539V7.58028V7.58518V7.59008V7.59498V7.59989V7.6048V7.60972V7.61463V7.61956V7.62448V7.62941V7.63434V7.63928V7.64422V7.64916V7.6541V7.65905V7.664V7.66896V7.67392V7.67888V7.68384V7.68881V7.69377V7.69875V7.70372V7.7087V7.71368V7.71866V7.72365V7.72863V7.73362V7.73862V7.74361V7.74861V7.75361V7.75861V7.76361V7.76862V7.77363V7.77864V7.78365V7.78867V7.79368V7.7987V7.80372V7.80874V7.81376V7.81879V7.82382V7.82885V7.83388V7.83891V7.84394V7.84897V7.85401V7.85905V7.86409V7.86913V7.87417V7.87921V7.88425V7.8893V7.89434V7.89939V7.90444V7.90948V7.91453V7.91958V7.92463V7.92968V7.93474V7.93979V7.94484V7.9499V7.95495V7.96V7.96506V7.97011V7.97517V7.98023V7.98528V7.99034V7.99539V8.00045V8.00551V8.01056V8.01562V8.02068V8.02573V8.03079V8.03584V8.0409V8.04595V8.05101V8.05606V8.06112V8.06617V8.07122V8.07628V8.08133V8.08638V8.09143V8.09648V8.10153V8.10657V8.11162V8.11667V8.12171V8.12675V8.1318V8.13684V8.14188V8.14692V8.15195V8.15699V8.16203V8.16706V8.17209V8.17712V8.18215V8.18718V8.1922V8.19723V8.20225V8.20727V8.21229V8.21731V8.22232V8.22734V8.23235V8.23736V8.24236V8.24737V8.25237V8.25737V8.26237V8.26736V8.27236V8.27735V8.28234V8.28732V8.29231V8.29729V8.30227V8.30724V8.31221V8.31719V8.32215V8.32712V8.33208V8.33704V8.34199V8.34695V8.35189V8.35684V8.36178V8.36672V8.37166V8.37659V8.38152V8.38645V8.39137V8.39629V8.40121V8.40612V8.41103V8.41594V8.42084V8.42574V8.43063V8.43552V8.44041V8.44529V8.45017V8.45504V8.45991V8.46478V8.46964V8.4745V8.47935V8.4842V8.48904V8.49388V8.49872V8.50355V8.50838V8.5132V8.51802V8.52283V8.52764V8.53244V8.53724V8.54203V8.54682V8.55161V8.55639V8.56116V8.56593V8.57069V8.57545V8.5802V8.58495V8.58969V8.59443V8.59916V8.60389V8.60861V8.61333V8.61804V8.62274V8.62744V8.63213V8.63682V8.6415V8.64618V8.65085V8.65551V8.66017V8.66482V8.66947V8.67411V8.67874V8.68337V8.68799V8.6926V8.69721V8.70181V8.70641V8.711V8.71558V8.72016V8.72473V8.72929V8.73385V8.7384V8.74294V8.74747V8.752V8.75652V8.76104V8.76555V8.77005V8.77454V8.77903V8.78351V8.78798V8.79244V8.7969V8.80135V8.80579V8.81023V8.81466V8.81908V8.82349V8.82789V8.83229V8.83668V8.84106V8.84544V8.8498V8.85416V8.85851V8.86285V8.86719V8.87151V8.87583V8.88014V8.88444V8.88873V8.89302V8.89729V8.90156V8.90582V8.91007V8.91432V8.91855V8.92277V8.92699V8.9312V8.9354V8.93959V8.94377V8.94794V8.9521V8.95626V8.9604V8.96454V8.96867V8.97278V8.97689V8.98099V8.98508V8.98916V8.99323V8.9973V9.00135V9.00539V9.00942V9.01345V9.01746V9.02146V9.02546V9.02944V9.03342V9.03738V9.04134V9.04528V9.04922V9.05314V9.05705V9.06096V9.06485V9.06874V9.07261V9.07647V9.08033V9.08417V9.088V9.09182V9.09563V9.09943V9.10322V9.107V9.11077V9.11452V9.11827V9.122V9.12573V9.12944V9.13314V9.13684V9.14052V9.14418V9.14784V9.15149V9.15512V9.15875V9.16236V9.16596V9.16955V9.17313V9.17669V9.18025V9.18379V9.18732V9.19084V9.19435V9.19784V9.20133V9.2048V9.20826V9.21171V9.21514V9.21857V9.22198V9.22538V9.22876V9.23214V9.2355V9.23885V9.24219V9.24551V9.24883V9.25213V9.25541V9.25869V9.26195V9.2652V9.26843V9.27166C18.1222 10.7369 17.5788 11.706 17.0261 12.309C16.7495 12.6108 16.4702 12.8212 16.2549 12.9559C16.1473 13.0233 16.0559 13.0716 15.9892 13.1029C15.9558 13.1186 15.9289 13.1298 15.9095 13.137C15.8998 13.1406 15.8924 13.143 15.8873 13.1445C15.887 13.1445 15.8867 13.1446 15.8864 13.1447C15.8861 13.1446 15.8856 13.1445 15.8852 13.1444C15.8798 13.1429 15.8719 13.1404 15.8616 13.1367C15.841 13.1295 15.8124 13.1181 15.7768 13.1024C15.7056 13.071 15.6077 13.0226 15.4922 12.9551C15.2612 12.8202 14.9605 12.6096 14.6625 12.3076C14.0671 11.7044 13.481 10.7356 13.481 9.27166Z" fill="white"/>
<path d="M13.481 9.27166V6.99543H18.1222V6.99692V7.00095V7.00499V7.00904V7.0131V7.01716V7.02124V7.02533V7.02942V7.03353V7.03764V7.04177V7.0459V7.05004V7.05419V7.05835V7.06252V7.0667V7.07089V7.07508V7.07929V7.0835V7.08772V7.09195V7.09619V7.10044V7.10469V7.10896V7.11323V7.11751V7.1218V7.1261V7.13041V7.13472V7.13904V7.14338V7.14771V7.15206V7.15642V7.16078V7.16515V7.16953V7.17392V7.17831V7.18271V7.18712V7.19154V7.19596V7.2004V7.20484V7.20928V7.21374V7.2182V7.22267V7.22715V7.23163V7.23612V7.24062V7.24512V7.24964V7.25416V7.25868V7.26321V7.26775V7.2723V7.27685V7.28142V7.28598V7.29056V7.29514V7.29972V7.30432V7.30892V7.31352V7.31813V7.32275V7.32738V7.33201V7.33665V7.34129V7.34594V7.35059V7.35526V7.35992V7.3646V7.36928V7.37396V7.37865V7.38335V7.38805V7.39276V7.39747V7.40219V7.40692V7.41165V7.41638V7.42112V7.42587V7.43062V7.43538V7.44014V7.44491V7.44968V7.45445V7.45924V7.46402V7.46882V7.47361V7.47841V7.48322V7.48803V7.49285V7.49767V7.50249V7.50732V7.51216V7.517V7.52184V7.52669V7.53154V7.53639V7.54125V7.54612V7.55099V7.55586V7.56074V7.56562V7.5705V7.57539V7.58028V7.58518V7.59008V7.59498V7.59989V7.6048V7.60972V7.61463V7.61956V7.62448V7.62941V7.63434V7.63928V7.64422V7.64916V7.6541V7.65905V7.664V7.66896V7.67392V7.67888V7.68384V7.68881V7.69377V7.69875V7.70372V7.7087V7.71368V7.71866V7.72365V7.72863V7.73362V7.73862V7.74361V7.74861V7.75361V7.75861V7.76361V7.76862V7.77363V7.77864V7.78365V7.78867V7.79368V7.7987V7.80372V7.80874V7.81376V7.81879V7.82382V7.82885V7.83388V7.83891V7.84394V7.84897V7.85401V7.85905V7.86409V7.86913V7.87417V7.87921V7.88425V7.8893V7.89434V7.89939V7.90444V7.90948V7.91453V7.91958V7.92463V7.92968V7.93474V7.93979V7.94484V7.9499V7.95495V7.96V7.96506V7.97011V7.97517V7.98023V7.98528V7.99034V7.99539V8.00045V8.00551V8.01056V8.01562V8.02068V8.02573V8.03079V8.03584V8.0409V8.04595V8.05101V8.05606V8.06112V8.06617V8.07122V8.07628V8.08133V8.08638V8.09143V8.09648V8.10153V8.10657V8.11162V8.11667V8.12171V8.12675V8.1318V8.13684V8.14188V8.14692V8.15195V8.15699V8.16203V8.16706V8.17209V8.17712V8.18215V8.18718V8.1922V8.19723V8.20225V8.20727V8.21229V8.21731V8.22232V8.22734V8.23235V8.23736V8.24236V8.24737V8.25237V8.25737V8.26237V8.26736V8.27236V8.27735V8.28234V8.28732V8.29231V8.29729V8.30227V8.30724V8.31221V8.31719V8.32215V8.32712V8.33208V8.33704V8.34199V8.34695V8.35189V8.35684V8.36178V8.36672V8.37166V8.37659V8.38152V8.38645V8.39137V8.39629V8.40121V8.40612V8.41103V8.41594V8.42084V8.42574V8.43063V8.43552V8.44041V8.44529V8.45017V8.45504V8.45991V8.46478V8.46964V8.4745V8.47935V8.4842V8.48904V8.49388V8.49872V8.50355V8.50838V8.5132V8.51802V8.52283V8.52764V8.53244V8.53724V8.54203V8.54682V8.55161V8.55639V8.56116V8.56593V8.57069V8.57545V8.5802V8.58495V8.58969V8.59443V8.59916V8.60389V8.60861V8.61333V8.61804V8.62274V8.62744V8.63213V8.63682V8.6415V8.64618V8.65085V8.65551V8.66017V8.66482V8.66947V8.67411V8.67874V8.68337V8.68799V8.6926V8.69721V8.70181V8.70641V8.711V8.71558V8.72016V8.72473V8.72929V8.73385V8.7384V8.74294V8.74747V8.752V8.75652V8.76104V8.76555V8.77005V8.77454V8.77903V8.78351V8.78798V8.79244V8.7969V8.80135V8.80579V8.81023V8.81466V8.81908V8.82349V8.82789V8.83229V8.83668V8.84106V8.84544V8.8498V8.85416V8.85851V8.86285V8.86719V8.87151V8.87583V8.88014V8.88444V8.88873V8.89302V8.89729V8.90156V8.90582V8.91007V8.91432V8.91855V8.92277V8.92699V8.9312V8.9354V8.93959V8.94377V8.94794V8.9521V8.95626V8.9604V8.96454V8.96867V8.97278V8.97689V8.98099V8.98508V8.98916V8.99323V8.9973V9.00135V9.00539V9.00942V9.01345V9.01746V9.02146V9.02546V9.02944V9.03342V9.03738V9.04134V9.04528V9.04922V9.05314V9.05705V9.06096V9.06485V9.06874V9.07261V9.07647V9.08033V9.08417V9.088V9.09182V9.09563V9.09943V9.10322V9.107V9.11077V9.11452V9.11827V9.122V9.12573V9.12944V9.13314V9.13684V9.14052V9.14418V9.14784V9.15149V9.15512V9.15875V9.16236V9.16596V9.16955V9.17313V9.17669V9.18025V9.18379V9.18732V9.19084V9.19435V9.19784V9.20133V9.2048V9.20826V9.21171V9.21514V9.21857V9.22198V9.22538V9.22876V9.23214V9.2355V9.23885V9.24219V9.24551V9.24883V9.25213V9.25541V9.25869V9.26195V9.2652V9.26843V9.27166C18.1222 10.7369 17.5788 11.706 17.0261 12.309C16.7495 12.6108 16.4702 12.8212 16.2549 12.9559C16.1473 13.0233 16.0559 13.0716 15.9892 13.1029C15.9558 13.1186 15.9289 13.1298 15.9095 13.137C15.8998 13.1406 15.8924 13.143 15.8873 13.1445C15.887 13.1445 15.8867 13.1446 15.8864 13.1447C15.8861 13.1446 15.8856 13.1445 15.8852 13.1444C15.8798 13.1429 15.8719 13.1404 15.8616 13.1367C15.841 13.1295 15.8124 13.1181 15.7768 13.1024C15.7056 13.071 15.6077 13.0226 15.4922 12.9551C15.2612 12.8202 14.9605 12.6096 14.6625 12.3076C14.0671 11.7044 13.481 10.7356 13.481 9.27166Z" stroke="white" stroke-width="0.1"/>
</mask>
<g mask="url(#mask2)">
<rect x="13.1265" y="6.63293" width="5.4" height="2.125" fill="#F50100"/>
<path d="M15.5337 9.19543C15.7065 9.19543 16.0521 8.99952 16.1385 8.95431C16.4553 8.7584 16.6857 8.93924 16.8729 9.02966C17.0745 9.12008 17.4489 9.22557 17.6793 9.02966C17.9097 8.83375 18.0393 8.84882 18.1977 8.84882C18.2265 8.62277 18.2265 8.39672 18.2265 8.14052V7.95968C18.0249 7.91447 17.9241 7.97475 17.7081 8.17066C17.4921 8.36658 17.2473 8.32137 16.9305 8.2008C16.6281 8.06517 16.3257 7.82405 16.0233 8.2008C15.9369 8.3063 15.7353 8.457 15.5337 8.457C15.3177 8.457 15.1305 8.3063 15.0441 8.2008C14.7273 7.82405 14.4393 8.06517 14.1369 8.2008C13.8201 8.32137 13.5609 8.36658 13.3449 8.17066C13.1433 7.97475 13.0425 7.91447 12.8265 7.95968V8.14052C12.8265 8.39672 12.8409 8.62277 12.8697 8.84882C13.0281 8.84882 13.1433 8.83375 13.3737 9.02966C13.6041 9.22557 13.9929 9.12008 14.1801 9.02966C14.3817 8.93924 14.6121 8.7584 14.9289 8.95431C15.0153 8.99952 15.3465 9.19543 15.5337 9.19543H15.5337Z" fill="#F50100"/>
<path fill-rule="evenodd" clip-rule="evenodd" d="M14.0767 7.60103C14.0767 7.60103 14.2068 7.60731 14.361 7.77304C14.5151 7.93876 15.0822 7.83328 15.0822 7.73331C15.0822 7.63334 14.7381 7.57362 14.8703 7.40268C15.0025 7.23175 15.2265 7.23144 15.4065 7.32049C15.4581 7.32049 15.4524 7.90522 15.5702 7.87312C15.9433 7.77147 16.5451 7.57005 16.7217 7.65646C16.9539 7.77016 17.1316 7.74188 17.0726 7.57874C17.0136 7.4156 16.8618 7.31364 16.5696 7.40268C16.2775 7.49173 16.3464 7.57874 16.0939 7.57874C15.8414 7.57874 15.4081 7.72105 15.6005 7.40268C15.7729 7.1174 15.9786 7.11182 16.0571 7.23175C16.0973 7.2931 15.7697 7.42859 15.7697 7.49173C15.7697 7.57874 16.6135 7.32062 16.7217 7.32062C16.8298 7.32062 17.1275 7.31364 17.157 7.40268C17.1865 7.49173 17.3662 7.57344 17.2292 7.65646C17.0922 7.73947 16.8663 7.79147 17.0217 7.89783C17.1772 8.00419 17.571 8.05256 17.5883 8.1632C17.6055 8.27383 17.7749 8.43904 17.7069 8.43904C17.6389 8.43904 17.516 8.59485 17.4016 8.54741C17.2872 8.49997 17.2737 8.45831 17.3835 8.41988C17.4932 8.38145 17.4921 8.21982 17.4016 8.21982C17.3111 8.21982 17.3189 8.20758 17.1128 8.15096C16.9068 8.09433 16.6341 8.03138 16.6505 8.15096C16.6669 8.27053 16.8064 8.52718 16.5589 8.55164C16.3114 8.57611 16.1956 8.67432 16.1474 8.59523C16.0992 8.51614 15.9271 8.41075 16.0625 8.37695C16.1978 8.34316 16.3272 8.49182 16.376 8.46755C16.4247 8.44328 16.5299 8.35666 16.4373 8.25381C16.3448 8.15096 16.165 8.14747 16.3065 8.07049C16.448 7.9935 16.3635 7.93485 16.0939 8.09433C15.8243 8.25381 15.6743 8.38934 15.4377 8.37018C15.201 8.35101 15.0948 8.43871 15.0187 8.41286C14.9426 8.38701 14.5721 8.69849 14.4654 8.61944C14.3587 8.54039 14.0143 8.51006 14.0763 8.41286C14.1383 8.31565 14.2216 8.26561 14.3143 8.31565C14.407 8.3657 14.4991 8.41574 14.5617 8.3657C14.6242 8.31565 14.8223 8.08209 14.7769 8.04775C14.7315 8.01342 14.5714 7.95463 14.3143 7.95463C14.0571 7.95463 14.0512 7.77665 13.9902 7.69549C13.9291 7.61432 14.0767 7.60103 14.0767 7.60103Z" fill="#FFD100"/>
<path d="M15.5337 10.6954C15.7065 10.6954 16.0521 10.4995 16.1385 10.4543C16.4553 10.2584 16.6857 10.4392 16.8729 10.5297C17.0745 10.6201 17.4489 10.7256 17.6793 10.5297C17.9097 10.3338 18.0393 10.3488 18.1977 10.3488C18.2265 10.1228 18.2265 9.89672 18.2265 9.64052V9.45968C18.0249 9.41447 17.9241 9.47475 17.7081 9.67066C17.4921 9.86658 17.2473 9.82137 16.9305 9.7008C16.6281 9.56517 16.3257 9.32405 16.0233 9.7008C15.9369 9.8063 15.7353 9.957 15.5337 9.957C15.3177 9.957 15.1305 9.8063 15.0441 9.7008C14.7273 9.32405 14.4393 9.56517 14.1369 9.7008C13.8201 9.82137 13.5609 9.86658 13.3449 9.67066C13.1433 9.47475 13.0425 9.41447 12.8265 9.45968V9.64052C12.8265 9.89672 12.8409 10.1228 12.8697 10.3488C13.0281 10.3488 13.1433 10.3338 13.3737 10.5297C13.6041 10.7256 13.9929 10.6201 14.1801 10.5297C14.3817 10.4392 14.6121 10.2584 14.9289 10.4543C15.0153 10.4995 15.3465 10.6954 15.5337 10.6954H15.5337Z" fill="#0B50A0"/>
<path d="M15.5337 12.1329C15.7065 12.1329 16.0521 11.937 16.1385 11.8918C16.4553 11.6959 16.6857 11.8767 16.8729 11.9672C17.0745 12.0576 17.4489 12.1631 17.6793 11.9672C17.9097 11.7713 18.0393 11.7863 18.1977 11.7863C18.2265 11.5603 18.2265 11.3342 18.2265 11.078V10.8972C18.0249 10.852 17.9241 10.9123 17.7081 11.1082C17.4921 11.3041 17.2473 11.2589 16.9305 11.1383C16.6281 11.0027 16.3257 10.7616 16.0233 11.1383C15.9369 11.2438 15.7353 11.3945 15.5337 11.3945C15.3177 11.3945 15.1305 11.2438 15.0441 11.1383C14.7273 10.7616 14.4393 11.0027 14.1369 11.1383C13.8201 11.2589 13.5609 11.3041 13.3449 11.1082C13.1433 10.9123 13.0425 10.852 12.8265 10.8972V11.078C12.8265 11.3342 12.8409 11.5603 12.8697 11.7863C13.0281 11.7863 13.1433 11.7713 13.3737 11.9672C13.6041 12.1631 13.9929 12.0576 14.1801 11.9672C14.3817 11.8767 14.6121 11.6959 14.9289 11.8918C15.0153 11.937 15.3465 12.1329 15.5337 12.1329H15.5337Z" fill="#0B50A0"/>
<path d="M15.5337 13.5704C15.7065 13.5704 16.0521 13.3745 16.1385 13.3293C16.4553 13.1334 16.6857 13.3142 16.8729 13.4047C17.0745 13.4951 17.4489 13.6006 17.6793 13.4047C17.9097 13.2088 18.0393 13.2238 18.1977 13.2238C18.2265 12.9978 18.2265 12.7717 18.2265 12.5155V12.3347C18.0249 12.2895 17.9241 12.3498 17.7081 12.5457C17.4921 12.7416 17.2473 12.6964 16.9305 12.5758C16.6281 12.4402 16.3257 12.1991 16.0233 12.5758C15.9369 12.6813 15.7353 12.832 15.5337 12.832C15.3177 12.832 15.1305 12.6813 15.0441 12.5758C14.7273 12.1991 14.4393 12.4402 14.1369 12.5758C13.8201 12.6964 13.5609 12.7416 13.3449 12.5457C13.1433 12.3498 13.0425 12.2895 12.8265 12.3347V12.5155C12.8265 12.7717 12.8409 12.9978 12.8697 13.2238C13.0281 13.2238 13.1433 13.2088 13.3737 13.4047C13.6041 13.6006 13.9929 13.4951 14.1801 13.4047C14.3817 13.3142 14.6121 13.1334 14.9289 13.3293C15.0153 13.3745 15.3465 13.5704 15.5337 13.5704H15.5337Z" fill="#0B50A0"/>
<path d="M15.8712 11.656L15.8464 11.643L15.8223 11.6572L15.5521 11.8174L15.631 11.4844L15.6378 11.456L15.6163 11.4362L15.3542 11.194H15.6914H15.7262L15.7383 11.1613L15.851 10.8552L15.9842 11.1638L15.9972 11.194H16.0301H16.3102L16.0787 11.4385L16.0581 11.4603L16.0676 11.4888L16.1778 11.818L15.8712 11.656Z" fill="#059334" stroke="#FFD100" stroke-width="0.1"/>
<path d="M14.6712 10.406L14.6464 10.393L14.6223 10.4072L14.3521 10.5674L14.431 10.2344L14.4378 10.206L14.4163 10.1862L14.1542 9.944H14.4913H14.5262L14.5383 9.91127L14.651 9.60516L14.7842 9.91381L14.7972 9.944H14.8301H15.1102L14.8787 10.1885L14.8581 10.2103L14.8676 10.2388L14.9777 10.568L14.6712 10.406Z" fill="#059334" stroke="#FFD100" stroke-width="0.1"/>
<path d="M17.0712 10.406L17.0464 10.393L17.0224 10.4072L16.7521 10.5674L16.831 10.2344L16.8378 10.206L16.8163 10.1862L16.5542 9.944H16.8914H16.9262L16.9383 9.91127L17.051 9.60516L17.1842 9.91381L17.1973 9.944H17.2301H17.5103L17.2787 10.1885L17.2581 10.2103L17.2676 10.2388L17.3778 10.568L17.0712 10.406Z" fill="#059334" stroke="#FFD100" stroke-width="0.1"/>
</g>
</g>
<path d="M13.0286 12.9669C13.0837 13.0898 13.4787 13.2511 13.9381 13.0437C14.2504 12.8978 14.4525 12.6904 14.6454 12.3218C14.7006 12.2296 14.7281 12.1144 14.5995 12.0453C14.4984 11.9839 14.3331 11.9147 14.2596 11.8533C14.2229 11.8226 14.1861 11.7995 14.1585 11.7765C14.1769 11.7918 14.1953 11.8072 14.2137 11.8302C14.3974 12.0146 14.2045 12.2834 14.0024 12.4447C13.8554 12.5599 13.589 12.844 13.2031 12.5752C13.1205 12.5138 12.9275 12.7672 13.0286 12.9669L13.0286 12.9669Z" fill="#FFD100"/>
<path d="M18.614 12.9669C18.5497 13.0898 18.1547 13.2511 17.7045 13.0437C17.3922 12.8978 17.1901 12.6904 16.988 12.3218C16.942 12.2296 16.9145 12.1144 17.0431 12.0453C17.1441 11.9839 17.3095 11.9147 17.383 11.8533C17.4197 11.8226 17.4473 11.7995 17.484 11.7765C17.4657 11.7918 17.4473 11.8072 17.4289 11.8302C17.2452 12.0146 17.4381 12.2834 17.631 12.4447C17.778 12.5599 18.0536 12.844 18.4394 12.5752C18.5221 12.5138 18.7059 12.7672 18.614 12.9669L18.614 12.9669Z" fill="#FFD100"/>
<path d="M15.8213 13.6274C16.5563 13.6274 17.6862 13.3509 18.2925 12.3832C18.3936 12.2219 18.2925 12.1374 18.1731 12.0837C18.0445 12.0376 17.8883 11.9301 17.8057 11.861C17.9526 11.9838 17.9251 12.0683 17.824 12.2066C17.3555 12.8594 16.7124 13.1896 15.8214 13.1896C14.9302 13.1896 14.2872 12.8594 13.8187 12.2066C13.7176 12.0683 13.6901 11.9838 13.8279 11.861C13.7544 11.9301 13.589 12.0376 13.4604 12.0837C13.341 12.1374 13.2399 12.2219 13.341 12.3832C13.9473 13.3509 15.0864 13.6274 15.8214 13.6274H15.8213Z" fill="#FFD100"/>
<path d="M14.1218 12.3295C14.1034 12.2527 13.984 12.2834 13.9472 12.3756C13.9013 12.3218 13.8554 12.268 13.8186 12.2066C13.7084 12.0684 13.69 11.9762 13.8462 11.8456C13.9197 11.7842 14.0667 11.7151 14.1677 11.7919C14.379 11.9378 14.2688 12.1759 14.1218 12.3295L14.1218 12.3295Z" fill="#F50100"/>
<path d="M17.5116 12.3295C17.53 12.2527 17.6586 12.2834 17.6954 12.3756C17.7413 12.3218 17.7872 12.268 17.824 12.2066C17.9342 12.0684 17.9526 11.9762 17.7872 11.8456C17.7229 11.7842 17.5759 11.7151 17.4657 11.7919C17.2636 11.9378 17.3647 12.1759 17.5116 12.3295L17.5116 12.3295Z" fill="#F50100"/>
<path d="M14.8808 5.92317C14.8086 5.8205 14.6127 5.77486 14.5302 5.86613C14.4993 5.88895 14.458 5.88895 14.4271 5.90036C14.3755 5.90036 14.3097 5.92908 14.3303 6.04317C14.3858 6.04317 14.3858 6.07148 14.4168 6.07148C14.4374 6.06007 14.491 6.26934 14.5941 6.25793C14.7076 6.25793 14.8086 6.31106 14.8293 6.33387C14.8602 6.3681 14.9015 6.45936 14.8499 6.505C14.7777 6.57345 14.7261 6.73316 14.8499 6.85866C14.984 6.97274 15.3243 7.14387 15.7059 6.81302C16.0771 6.49359 16.6546 6.67612 16.6959 6.79021C16.7475 6.90429 16.7681 6.97274 16.7784 7.02978C16.7887 7.07542 17.0672 7.14387 17.1084 7.17809C17.16 7.21232 17.2322 7.20091 17.2115 7.09823C17.1703 6.7788 16.995 6.73317 16.9744 6.58486C17.0775 6.59627 17.1497 6.59627 17.1909 6.55063C17.2219 6.505 17.2631 6.42514 17.3044 6.40232C17.3353 6.37951 17.3353 6.35669 17.294 6.3681C17.2425 6.37951 17.2115 6.40232 17.1187 6.39092C16.8992 6.36451 16.9535 5.49912 16.2273 5.33078C15.7786 5.22675 15.219 5.94013 15.0656 6.01076C15.0622 6.0123 15.0591 6.01353 15.0562 6.01444C14.984 6.01444 14.9221 5.98021 14.8808 5.92317Z" fill="#059334"/>
<defs>
<clipPath id="clip0">
<rect x="13.4265" y="6.94543" width="5" height="7" fill="white"/>
</clipPath>
</defs>
</svg>
