<svg width="20" height="15" viewBox="0 0 20 15" fill="none" xmlns="http://www.w3.org/2000/svg">
<mask id="mask0" mask-type="alpha" maskUnits="userSpaceOnUse" x="0" y="0" width="20" height="15">
<rect width="20" height="15" fill="white"/>
</mask>
<g mask="url(#mask0)">
<path fill-rule="evenodd" clip-rule="evenodd" d="M0 0V15H20V0H0Z" fill="#F7FCFF"/>
<mask id="mask1" mask-type="alpha" maskUnits="userSpaceOnUse" x="0" y="0" width="20" height="15">
<path fill-rule="evenodd" clip-rule="evenodd" d="M0 0V15H20V0H0Z" fill="white"/>
</mask>
<g mask="url(#mask1)">
<path fill-rule="evenodd" clip-rule="evenodd" d="M0 7.5V15H20V7.5H0Z" fill="#56C6F5"/>
<path fill-rule="evenodd" clip-rule="evenodd" d="M6.40886 5.6427C6.40422 5.58989 6.39317 5.54423 6.37407 5.50864C6.21353 5.20941 6.26539 4.835 6.26539 4.835C6.26539 4.835 6.07369 5.27347 5.9612 5.68629C5.84296 5.49404 5.80163 5.30145 5.80163 5.30145C5.80163 5.30145 5.7251 6.51244 5.95906 6.79936C6.19303 7.08629 6.34901 7.21237 6.34901 7.21237C6.34901 7.21237 6.36672 6.70952 6.2986 6.31626C6.3466 6.1522 6.3899 5.97248 6.40541 5.81775C6.43612 5.795 6.51704 5.73425 6.61832 5.65162C6.57564 5.8871 6.57353 6.01505 6.57353 6.01505C6.57353 6.01505 7.45513 5.37493 7.47754 5.03609C7.49995 4.69726 7.74235 4.40723 7.74235 4.40723C7.74235 4.40723 7.54192 4.54439 7.31304 4.72831C7.37355 4.44389 7.5609 4.21973 7.5609 4.21973C7.5609 4.21973 6.55952 4.90498 6.47746 5.266C6.44176 5.42303 6.42097 5.54969 6.40886 5.6427ZM6.45174 7.72421C6.35573 7.54292 5.93789 6.78297 5.64645 6.71684C5.31529 6.6417 5.06674 6.35691 5.06674 6.35691C5.06674 6.35691 5.58691 7.45316 5.93065 7.59069C6.20668 7.70113 6.38845 7.74523 6.44934 7.75831C6.43931 7.90609 6.43756 8.00819 6.43756 8.00819C6.43756 8.00819 6.59993 7.89044 6.84859 7.61615C7.09724 7.34186 7.0842 6.12853 7.0842 6.12853C7.0842 6.12853 6.98565 6.49345 6.72095 6.70615C6.54338 6.84884 6.47652 7.38602 6.45174 7.72421ZM5.66961 7.60952C6.04793 7.60729 6.62994 8.53497 6.62994 8.53497C6.62994 8.53497 6.40446 8.54733 6.01057 8.4851C5.61668 8.42286 5.00275 7.3658 5.00275 7.3658C5.00275 7.3658 5.29129 7.61174 5.66961 7.60952ZM7.51377 9.77007C7.51377 9.77007 7.73826 8.5879 7.40116 8.31232C7.06405 8.03674 7.00458 7.6249 7.00458 7.6249C7.00458 7.6249 6.70512 8.93584 7.00458 9.27532C7.30404 9.61481 7.51377 9.77007 7.51377 9.77007ZM6.15357 9.45091C6.37371 9.71192 7.07509 9.45091 7.07509 9.45091C7.07509 9.45091 7.22963 9.59126 6.6734 9.08288C6.11716 8.5745 4.98534 8.8956 5.28994 8.8956C5.59454 8.8956 5.93343 9.18991 6.15357 9.45091ZM6.6734 10.8386C7.08147 11.1842 7.96325 10.3625 7.96325 10.3625C7.96325 10.3625 7.73625 10.0876 7.31554 9.88496C6.89483 9.68235 5.34295 9.88496 5.34295 9.88496L6.03358 10.1924C6.03358 10.1924 5.26482 10.493 5.46888 10.4763C5.67293 10.4595 6.26532 10.493 6.6734 10.8386Z" fill="#006923"/>
<path fill-rule="evenodd" clip-rule="evenodd" d="M12.0084 10.1227C12.0084 10.1227 11.6576 9.53307 12.0084 9.24823C12.3593 8.96338 12.4981 9.15284 12.4981 8.82535C12.4981 8.49786 12.5336 8.59537 12.706 8.43279C12.8784 8.27021 12.7563 7.87533 12.9872 8.07277C13.218 8.27021 13.2612 7.89159 13.2612 8.67813C13.2612 9.46466 13.2612 7.96475 13.2612 7.52298C13.2612 7.08121 12.9872 7.18579 12.9872 6.88953C12.9872 6.59326 12.7132 6.15079 12.9872 6.15079C13.2612 6.15079 13.4222 6.47999 13.4222 6.47999C13.4222 6.47999 13.6914 6.93884 13.6914 6.47999C13.6914 6.02115 13.2121 6.15756 12.9872 5.65122C12.7622 5.14488 12.7978 5.70801 12.4981 5.05556C12.1985 4.40311 11.8418 4.19607 12.17 4.19607C12.4981 4.19607 12.4249 4.19607 12.706 4.19607C12.9872 4.19607 13.4222 3.96255 13.4222 4.19607C13.4222 4.42959 13.4222 4.32258 13.4222 4.68907C13.4222 5.05556 13.6914 5.05556 13.6914 5.05556C13.6914 5.05556 13.8378 4.32258 14.0216 4.68907C14.2055 5.05556 14.0803 5.65122 14.2149 5.65122C14.3494 5.65122 14.238 5.03565 14.5319 5.50713C14.8257 5.97861 14.5319 6.29811 14.5319 6.47999C14.5319 6.66187 14.2149 7.10748 14.2149 7.10748C14.2149 7.10748 14.2768 7.32543 14.5319 7.10748C14.787 6.88953 15.029 6.67158 15.029 6.88953C15.029 7.10748 15.5262 7.17518 15.029 7.52298C14.5319 7.87078 14.8489 8.21898 14.5319 8.21898C14.2149 8.21898 13.8414 8.67813 13.6914 8.67813C13.5415 8.67813 12.9808 9.02966 13.2612 9.02966C13.5415 9.02966 13.8284 8.32659 14.0216 8.67813C14.2149 9.02967 14.2123 8.62104 14.3721 8.82535C14.5319 9.02966 14.6917 10.1382 14.5319 9.69323C14.3721 9.24823 14.1217 9.24823 13.6914 9.24823C13.2612 9.24823 12.4249 9.28036 12.706 9.48679C12.9872 9.69323 13.3029 9.28036 13.4222 9.48679C13.5415 9.69323 13.5068 9.89966 13.6914 9.69323C13.876 9.48679 14.0576 9.69323 14.2149 9.69323C14.3721 9.69323 14.0576 9.92432 14.2149 10.1227C14.3721 10.321 14.7226 10.5853 14.3721 10.5853C14.0216 10.5853 13.8414 10.3051 13.6914 10.5853C13.5415 10.8655 13.5352 11.3521 13.2612 10.9687C12.9872 10.5853 12.4981 10.7799 12.4981 10.5853C12.4981 10.3906 12.6051 10.3592 12.3068 10.3592C12.0084 10.3592 12.0084 10.1227 12.0084 10.1227Z" fill="#009933"/>
<path fill-rule="evenodd" clip-rule="evenodd" d="M13.4476 5.90625C13.4476 5.99254 13.3799 6.0625 13.2964 6.0625C13.2129 6.0625 13.1452 5.99254 13.1452 5.90625C13.1452 5.81996 13.2129 5.75 13.2964 5.75C13.3799 5.75 13.4476 5.81996 13.4476 5.90625ZM6.4617 6.25C6.54521 6.25 6.61291 6.18004 6.61291 6.09375C6.61291 6.00746 6.54521 5.9375 6.4617 5.9375C6.37818 5.9375 6.31049 6.00746 6.31049 6.09375C6.31049 6.18004 6.37818 6.25 6.4617 6.25ZM6.61291 6.90625C6.61291 6.99254 6.54521 7.0625 6.4617 7.0625C6.37818 7.0625 6.31049 6.99254 6.31049 6.90625C6.31049 6.81996 6.37818 6.75 6.4617 6.75C6.54521 6.75 6.61291 6.81996 6.61291 6.90625ZM6.70363 8.5C6.78714 8.5 6.85484 8.43004 6.85484 8.34375C6.85484 8.25746 6.78714 8.1875 6.70363 8.1875C6.62012 8.1875 6.55242 8.25746 6.55242 8.34375C6.55242 8.43004 6.62012 8.5 6.70363 8.5ZM7.91331 10.0625C7.99682 10.0625 8.06452 9.99254 8.06452 9.90625C8.06452 9.81996 7.99682 9.75 7.91331 9.75C7.8298 9.75 7.7621 9.81996 7.7621 9.90625C7.7621 9.99254 7.8298 10.0625 7.91331 10.0625ZM13.7198 7.6875C13.8033 7.6875 13.871 7.61754 13.871 7.53125C13.871 7.44496 13.8033 7.375 13.7198 7.375C13.6362 7.375 13.5686 7.44496 13.5686 7.53125C13.5686 7.61754 13.6362 7.6875 13.7198 7.6875ZM13.3871 8.78125C13.3871 8.86754 13.3194 8.9375 13.2359 8.9375C13.1524 8.9375 13.0847 8.86754 13.0847 8.78125C13.0847 8.69496 13.1524 8.625 13.2359 8.625C13.3194 8.625 13.3871 8.69496 13.3871 8.78125ZM11.9657 10.3125C12.0492 10.3125 12.1169 10.2425 12.1169 10.1562C12.1169 10.07 12.0492 10 11.9657 10C11.8822 10 11.8145 10.07 11.8145 10.1562C11.8145 10.2425 11.8822 10.3125 11.9657 10.3125ZM8.125 10.3438C8.125 10.43 8.0573 10.5 7.97379 10.5C7.89028 10.5 7.82258 10.43 7.82258 10.3438C7.82258 10.2575 7.89028 10.1875 7.97379 10.1875C8.0573 10.1875 8.125 10.2575 8.125 10.3438Z" fill="#C51918"/>
<path fill-rule="evenodd" clip-rule="evenodd" d="M11.2736 12.3873C11.2736 12.2592 9.33577 10.9237 8.81565 10.6292C8.29553 10.3346 5.75565 8.71334 6.44733 6.25H6.34265C6.34265 6.25 5.87456 9.28528 9.09959 11.172C10.568 12.1571 10.6411 12.3873 10.6411 12.3873C10.6411 12.3873 11.2736 12.5153 11.2736 12.3873Z" fill="#FECA00"/>
<path fill-rule="evenodd" clip-rule="evenodd" d="M8.70271 12.3873C8.70271 12.2592 10.6405 10.9237 11.1607 10.6292C11.6808 10.3346 14.2207 8.71334 13.529 6.25H13.6337C13.6337 6.25 14.1018 9.28528 10.8767 11.172C9.4083 12.1571 9.33522 12.3873 9.33522 12.3873C9.33522 12.3873 8.70271 12.5153 8.70271 12.3873Z" fill="#FECA00"/>
<path fill-rule="evenodd" clip-rule="evenodd" d="M10.0302 10.5535C11.3831 10.5535 12.4798 8.80238 12.4798 7.09375C12.4798 5.38512 11.3831 4.5 10.0302 4.5C8.67735 4.5 7.58063 5.38512 7.58063 7.09375C7.58063 8.80238 8.67735 10.5535 10.0302 10.5535Z" fill="#56C6F5"/>
<path fill-rule="evenodd" clip-rule="evenodd" d="M8.94577 5.9616C8.94577 5.9616 9.32302 5.62886 9.13439 5.62886C9.09781 5.62886 9.05327 5.62172 9.00524 5.61401C8.80563 5.58199 8.5457 5.54029 8.5457 5.9616V6.68561L8.5456 6.68731H8.48994C8.45542 6.68731 8.42744 6.71529 8.42744 6.74981C8.42744 6.78433 8.45542 6.81231 8.48994 6.81231H8.53884C8.53048 6.96695 8.51568 7.24197 8.50116 7.51684L8.42964 7.5231C8.39266 7.52633 8.36531 7.55893 8.36855 7.5959L8.37317 7.64879C8.37641 7.68576 8.409 7.71312 8.44598 7.70988L8.49121 7.70592C8.47442 8.02708 8.46026 8.30813 8.46026 8.34253C8.46026 8.427 9.03419 8.3943 9.03419 8.3943C9.03419 8.3943 9.01633 8.05549 8.99667 7.6617L9.03513 7.65834C9.0721 7.6551 9.09945 7.62251 9.09622 7.58553L9.09159 7.53264C9.08836 7.49567 9.05576 7.46832 9.01878 7.47155L8.98739 7.4743C8.97581 7.23846 8.96447 6.99898 8.95655 6.81231H9.03026C9.06478 6.81231 9.09276 6.78433 9.09276 6.74981C9.09276 6.71529 9.06478 6.68731 9.03026 6.68731H8.95147C8.94789 6.59403 8.94577 6.52391 8.94577 6.4886V5.9616Z" fill="white"/>
<path fill-rule="evenodd" clip-rule="evenodd" d="M8.66937 6.87476H8.87099V7.14357H8.66937V6.87476Z" fill="black"/>
<path fill-rule="evenodd" clip-rule="evenodd" d="M8.60889 7.81226H8.94491V8.43726H8.60889V7.81226Z" fill="black"/>
<path fill-rule="evenodd" clip-rule="evenodd" d="M10.2159 5.9616C10.2159 5.9616 10.5932 5.62886 10.4045 5.62886C10.368 5.62886 10.3234 5.62172 10.2754 5.61401C10.0758 5.58199 9.81584 5.54029 9.81584 5.9616V6.68561L9.81574 6.68731H9.76008C9.72557 6.68731 9.69758 6.71529 9.69758 6.74981C9.69758 6.78433 9.72557 6.81231 9.76008 6.81231H9.80898C9.80062 6.96695 9.78582 7.24197 9.7713 7.51684L9.69978 7.5231C9.6628 7.52633 9.63545 7.55893 9.63869 7.5959L9.64331 7.64879C9.64655 7.68576 9.67915 7.71312 9.71612 7.70988L9.76136 7.70592C9.74456 8.02708 9.7304 8.30813 9.7304 8.34253C9.7304 8.427 10.3043 8.3943 10.3043 8.3943C10.3043 8.3943 10.2865 8.05549 10.2668 7.6617L10.3053 7.65834C10.3422 7.6551 10.3696 7.62251 10.3664 7.58553L10.3617 7.53264C10.3585 7.49567 10.3259 7.46832 10.2889 7.47155L10.2575 7.4743C10.2459 7.23846 10.2346 6.99898 10.2267 6.81231H10.3004C10.3349 6.81231 10.3629 6.78433 10.3629 6.74981C10.3629 6.71529 10.3349 6.68731 10.3004 6.68731H10.2216C10.218 6.59403 10.2159 6.52391 10.2159 6.4886V5.9616Z" fill="white"/>
<path fill-rule="evenodd" clip-rule="evenodd" d="M9.93951 6.87476H10.1411V7.14357H9.93951V6.87476Z" fill="black"/>
<path fill-rule="evenodd" clip-rule="evenodd" d="M9.87903 7.81226H10.215V8.43726H9.87903V7.81226Z" fill="black"/>
<path fill-rule="evenodd" clip-rule="evenodd" d="M11.4256 5.9616C11.4256 5.9616 11.8028 5.62886 11.6142 5.62886C11.5776 5.62886 11.5331 5.62172 11.485 5.61401C11.2854 5.58199 11.0255 5.54029 11.0255 5.9616V6.68561L11.0254 6.68731H10.9697C10.9352 6.68731 10.9072 6.71529 10.9072 6.74981C10.9072 6.78433 10.9352 6.81231 10.9697 6.81231H11.0186C11.0103 6.96695 10.9955 7.24197 10.981 7.51684L10.9094 7.5231C10.8725 7.52633 10.8451 7.55893 10.8483 7.5959L10.853 7.64879C10.8562 7.68576 10.8888 7.71312 10.9258 7.70988L10.971 7.70592C10.9542 8.02708 10.9401 8.30813 10.9401 8.34253C10.9401 8.427 11.514 8.3943 11.514 8.3943C11.514 8.3943 11.4961 8.05549 11.4765 7.6617L11.5149 7.65834C11.5519 7.6551 11.5792 7.62251 11.576 7.58553L11.5714 7.53264C11.5682 7.49567 11.5356 7.46832 11.4986 7.47155L11.4672 7.4743C11.4556 7.23846 11.4443 6.99898 11.4364 6.81231H11.5101C11.5446 6.81231 11.5726 6.78433 11.5726 6.74981C11.5726 6.71529 11.5446 6.68731 11.5101 6.68731H11.4313C11.4277 6.59403 11.4256 6.52391 11.4256 6.4886V5.9616Z" fill="white"/>
<path fill-rule="evenodd" clip-rule="evenodd" d="M11.1492 6.87476H11.3508V7.14357H11.1492V6.87476Z" fill="black"/>
<path fill-rule="evenodd" clip-rule="evenodd" d="M11.0887 7.81226H11.4247V8.43726H11.0887V7.81226Z" fill="black"/>
<path fill-rule="evenodd" clip-rule="evenodd" d="M11.5726 4H8.36696V4.47852L8.34546 4.48045C8.34546 4.48045 6.7749 5.7009 7.21077 7.52915C7.64665 9.35739 9.378 10.7132 9.378 10.7132L9.46529 10.3977C9.46529 10.3977 7.81552 8.15447 7.81552 7.2581C7.81552 6.36174 8.12678 5.52042 8.45634 5.38961C8.65457 5.31093 8.68876 5.32689 8.74277 5.35212C8.77856 5.36883 8.82306 5.38961 8.92974 5.38961C9.19742 5.38961 9.46529 5.198 9.46529 5.198C9.46529 5.198 9.65152 5.38961 9.82452 5.38961C9.99751 5.38961 9.99994 5.198 9.99994 5.198V4.5625H10.0193V5.198C10.0193 5.198 10.0217 5.38961 10.1947 5.38961C10.3677 5.38961 10.554 5.198 10.554 5.198C10.554 5.198 10.8218 5.38961 11.0895 5.38961C11.1962 5.38961 11.2407 5.36883 11.2765 5.35212C11.3305 5.32689 11.3647 5.31093 11.5629 5.38961C11.8925 5.52042 12.2037 6.36174 12.2037 7.2581C12.2037 8.15447 10.554 10.3977 10.554 10.3977L10.6412 10.7132C10.6412 10.7132 12.3726 9.35739 12.8085 7.52915C13.2443 5.7009 11.6738 4.48045 11.6738 4.48045L11.5726 4.4714V4Z" fill="#E8AA00"/>
<path d="M8.36696 4V3.6875H8.05446V4H8.36696ZM11.5726 4H11.8851V3.6875H11.5726V4ZM8.36696 4.47852L8.39479 4.78978L8.67946 4.76433V4.47852H8.36696ZM8.34546 4.48045L8.31763 4.16919L8.22619 4.17736L8.15371 4.23369L8.34546 4.48045ZM7.21077 7.52915L7.51475 7.45667L7.21077 7.52915ZM9.378 10.7132L9.18533 10.9592L9.55425 11.2481L9.67919 10.7965L9.378 10.7132ZM9.46529 10.3977L9.76647 10.481L9.80693 10.3348L9.71703 10.2125L9.46529 10.3977ZM8.45634 5.38961L8.57163 5.68006L8.45634 5.38961ZM8.74277 5.35212L8.875 5.06897L8.875 5.06897L8.74277 5.35212ZM9.46529 5.198L9.68938 4.98019L9.50206 4.78747L9.28348 4.94383L9.46529 5.198ZM9.99994 5.198L10.3124 5.20195V5.198H9.99994ZM9.99994 4.5625V4.25H9.68744V4.5625H9.99994ZM10.0193 4.5625H10.3318V4.25H10.0193V4.5625ZM10.0193 5.198H9.70678L9.70683 5.20195L10.0193 5.198ZM10.554 5.198L10.7358 4.94383L10.5172 4.78747L10.3299 4.98019L10.554 5.198ZM11.2765 5.35212L11.1442 5.06897L11.1442 5.06897L11.2765 5.35212ZM11.5629 5.38961L11.4476 5.68006L11.5629 5.38961ZM10.554 10.3977L10.3022 10.2125L10.2123 10.3348L10.2528 10.481L10.554 10.3977ZM10.6412 10.7132L10.3401 10.7965L10.465 11.2481L10.8339 10.9592L10.6412 10.7132ZM12.8085 7.52915L13.1125 7.60162L12.8085 7.52915ZM11.6738 4.48045L11.8655 4.23369L11.7931 4.17736L11.7016 4.16919L11.6738 4.48045ZM11.5726 4.4714H11.2601V4.75721L11.5448 4.78266L11.5726 4.4714ZM8.36696 4.3125H11.5726V3.6875H8.36696V4.3125ZM8.67946 4.47852V4H8.05446V4.47852H8.67946ZM8.37329 4.7917L8.39479 4.78978L8.33913 4.16727L8.31763 4.16919L8.37329 4.7917ZM7.51475 7.45667C7.32239 6.64983 7.56953 5.97426 7.87863 5.48647C8.03324 5.24247 8.20093 5.04991 8.32982 4.91868C8.39404 4.85329 8.448 4.80377 8.48495 4.77133C8.50341 4.75513 8.51757 4.74325 8.52658 4.73583C8.53108 4.73212 8.53429 4.72954 8.5361 4.72809C8.537 4.72737 8.53755 4.72693 8.53774 4.72678C8.53784 4.72671 8.53784 4.72671 8.53775 4.72678C8.53771 4.72681 8.53764 4.72686 8.53755 4.72693C8.5375 4.72697 8.53742 4.72704 8.5374 4.72705C8.5373 4.72713 8.53721 4.7272 8.34546 4.48045C8.15371 4.23369 8.1536 4.23378 8.15348 4.23387C8.15344 4.2339 8.15331 4.234 8.15322 4.23407C8.15303 4.23422 8.15282 4.23438 8.15259 4.23456C8.15212 4.23493 8.15155 4.23537 8.1509 4.23589C8.14958 4.23693 8.14789 4.23827 8.14583 4.23991C8.14172 4.2432 8.13617 4.24769 8.12927 4.25337C8.11548 4.26472 8.09633 4.28084 8.07269 4.30158C8.02546 4.34304 7.96012 4.40314 7.88391 4.48074C7.73194 4.63548 7.53424 4.86229 7.3507 5.15194C6.98349 5.73143 6.66328 6.58022 6.90679 7.60162L7.51475 7.45667ZM9.378 10.7132C9.57067 10.4672 9.57073 10.4672 9.57078 10.4673C9.57079 10.4673 9.57083 10.4673 9.57085 10.4673C9.57088 10.4673 9.57089 10.4673 9.57087 10.4673C9.57083 10.4673 9.57069 10.4672 9.57045 10.467C9.56996 10.4666 9.56907 10.4659 9.56778 10.4649C9.56519 10.4628 9.56103 10.4595 9.55536 10.4549C9.54404 10.4457 9.52675 10.4315 9.50422 10.4125C9.45916 10.3745 9.39324 10.3174 9.31231 10.2429C9.15022 10.0937 8.92907 9.87584 8.69492 9.60318C8.22283 9.05342 7.71628 8.30197 7.51475 7.45667L6.90679 7.60162C7.14114 8.58457 7.71821 9.42514 8.22076 10.0104C8.47394 10.3052 8.71287 10.5406 8.88903 10.7027C8.97722 10.7839 9.04997 10.847 9.10129 10.8903C9.12696 10.9119 9.14729 10.9286 9.16154 10.9402C9.16867 10.946 9.17427 10.9505 9.17827 10.9537C9.18027 10.9552 9.18186 10.9565 9.18304 10.9574C9.18363 10.9579 9.18412 10.9583 9.1845 10.9586C9.18469 10.9587 9.18486 10.9589 9.185 10.959C9.18507 10.959 9.18515 10.9591 9.18518 10.9591C9.18526 10.9592 9.18533 10.9592 9.378 10.7132ZM9.1641 10.3144L9.07681 10.6299L9.67919 10.7965L9.76647 10.481L9.1641 10.3144ZM7.50302 7.2581C7.50302 7.55566 7.63321 7.91777 7.78937 8.25737C7.95133 8.60959 8.16461 8.9858 8.37397 9.32735C8.58398 9.66996 8.79349 9.98325 8.95024 10.2106C9.02871 10.3244 9.09419 10.417 9.1402 10.4813C9.1632 10.5135 9.18136 10.5386 9.19385 10.5558C9.20009 10.5644 9.20492 10.5711 9.20824 10.5756C9.2099 10.5779 9.21118 10.5796 9.21206 10.5808C9.21251 10.5814 9.21285 10.5819 9.2131 10.5822C9.21322 10.5824 9.21332 10.5825 9.21339 10.5826C9.21343 10.5827 9.21347 10.5827 9.21348 10.5828C9.21351 10.5828 9.21354 10.5828 9.46529 10.3977C9.71703 10.2125 9.71704 10.2126 9.71705 10.2126C9.71704 10.2126 9.71704 10.2126 9.71703 10.2125C9.717 10.2125 9.71695 10.2124 9.71687 10.2123C9.71672 10.2121 9.71647 10.2118 9.71612 10.2113C9.71542 10.2103 9.71433 10.2089 9.71287 10.2069C9.70994 10.2028 9.70551 10.1968 9.69967 10.1887C9.68799 10.1726 9.6707 10.1487 9.6486 10.1178C9.60438 10.056 9.54098 9.9663 9.46478 9.85579C9.31219 9.6345 9.10926 9.33097 8.90683 9.00072C8.70375 8.66941 8.50459 8.31676 8.35722 7.99626C8.20404 7.66316 8.12802 7.40873 8.12802 7.2581H7.50302ZM8.34105 5.09915C8.17432 5.16533 8.04923 5.3017 7.95861 5.4352C7.86377 5.57494 7.78309 5.74653 7.71751 5.93319C7.58618 6.30699 7.50302 6.7766 7.50302 7.2581H8.12802C8.12802 6.84325 8.20049 6.44401 8.30718 6.14036C8.36061 5.98829 8.41954 5.869 8.47575 5.78619C8.53618 5.69715 8.57358 5.67929 8.57163 5.68006L8.34105 5.09915ZM8.875 5.06897C8.83768 5.05154 8.75527 5.01187 8.63271 5.0201C8.54055 5.02629 8.44373 5.0584 8.34105 5.09915L8.57163 5.68006C8.6158 5.66253 8.64481 5.65271 8.66343 5.64736C8.68243 5.6419 8.68395 5.64307 8.67457 5.6437C8.66921 5.64406 8.66099 5.6442 8.65066 5.6432C8.64009 5.64218 8.62983 5.64021 8.6204 5.63763C8.61135 5.63514 8.60512 5.63264 8.6032 5.63185C8.60238 5.63151 8.60266 5.63158 8.61055 5.63527L8.875 5.06897ZM8.92974 5.07711C8.91316 5.07711 8.90209 5.0763 8.89532 5.07554C8.88875 5.0748 8.88598 5.07409 8.88596 5.07408C8.88588 5.07406 8.8861 5.07412 8.8865 5.07425C8.8869 5.07438 8.88712 5.07447 8.88698 5.07442C8.88604 5.07404 8.88454 5.07342 8.875 5.06897L8.61055 5.63527C8.63084 5.64474 8.67368 5.66515 8.73338 5.68017C8.79184 5.69489 8.85588 5.70211 8.92974 5.70211V5.07711ZM9.46529 5.198C9.28348 4.94383 9.28353 4.94379 9.28359 4.94375C9.28361 4.94374 9.28366 4.9437 9.2837 4.94367C9.28377 4.94362 9.28384 4.94358 9.2839 4.94353C9.28402 4.94344 9.28413 4.94336 9.28423 4.94329C9.28442 4.94316 9.28455 4.94307 9.28462 4.94302C9.28476 4.94292 9.28467 4.94299 9.28434 4.94321C9.28369 4.94366 9.28213 4.94473 9.27973 4.94634C9.27491 4.94956 9.2668 4.95485 9.25589 4.96153C9.23385 4.97505 9.20172 4.99345 9.16336 5.01175C9.08057 5.05123 8.99599 5.07711 8.92974 5.07711V5.70211C9.13117 5.70211 9.31436 5.63218 9.43243 5.57586C9.49449 5.54626 9.54606 5.51675 9.58261 5.49434C9.601 5.48307 9.6159 5.47339 9.62678 5.46613C9.63222 5.46249 9.63668 5.45945 9.64008 5.45709C9.64178 5.45591 9.64323 5.45491 9.6444 5.45408C9.64498 5.45367 9.6455 5.4533 9.64595 5.45298C9.64618 5.45282 9.64638 5.45268 9.64658 5.45254C9.64667 5.45247 9.64676 5.45241 9.64685 5.45234C9.64689 5.45231 9.64695 5.45227 9.64698 5.45225C9.64704 5.45221 9.6471 5.45217 9.46529 5.198ZM9.82452 5.07711C9.83713 5.07711 9.83621 5.08005 9.81882 5.07257C9.80259 5.0656 9.78218 5.05392 9.75967 5.0381C9.73779 5.02273 9.71863 5.00678 9.70497 4.99461C9.69831 4.98868 9.6934 4.98404 9.69061 4.98134C9.68922 4.98001 9.68839 4.97918 9.68816 4.97895C9.68805 4.97884 9.68809 4.97888 9.68829 4.97908C9.68839 4.97918 9.68853 4.97933 9.68871 4.97951C9.6888 4.9796 9.6889 4.97971 9.68901 4.97982C9.68907 4.97988 9.68913 4.97994 9.68919 4.98C9.68922 4.98003 9.68926 4.98008 9.68928 4.98009C9.68933 4.98014 9.68938 4.98019 9.46529 5.198C9.2412 5.41581 9.24125 5.41586 9.2413 5.41591C9.24131 5.41593 9.24137 5.41598 9.2414 5.41602C9.24147 5.41609 9.24155 5.41617 9.24163 5.41625C9.24178 5.41641 9.24195 5.41658 9.24213 5.41677C9.24249 5.41714 9.2429 5.41755 9.24336 5.41802C9.24427 5.41894 9.24538 5.42006 9.24668 5.42135C9.24926 5.42393 9.2526 5.42722 9.25664 5.43112C9.26471 5.43891 9.2757 5.44924 9.28921 5.46127C9.31587 5.48503 9.35408 5.51698 9.40038 5.54951C9.47994 5.6054 9.63706 5.70211 9.82452 5.70211V5.07711ZM9.99994 5.198C9.68746 5.19405 9.68746 5.19391 9.68746 5.19377C9.68746 5.19373 9.68747 5.19359 9.68747 5.1935C9.68747 5.19332 9.68747 5.19315 9.68748 5.19297C9.68748 5.19262 9.68749 5.19228 9.68749 5.19195C9.68751 5.19128 9.68752 5.19065 9.68754 5.19005C9.68757 5.18885 9.68761 5.18777 9.68765 5.18681C9.68773 5.18489 9.68783 5.18337 9.68792 5.1822C9.68809 5.17995 9.68828 5.17857 9.68843 5.17763C9.68849 5.17729 9.68921 5.17179 9.69364 5.16225C9.69825 5.15232 9.71133 5.12872 9.7404 5.10745C9.77303 5.08358 9.80608 5.07711 9.82452 5.07711V5.70211C9.92945 5.70211 10.0277 5.67168 10.1094 5.61188C10.1876 5.55469 10.2337 5.48319 10.2606 5.42535C10.2872 5.36792 10.2994 5.31452 10.3053 5.27825C10.3084 5.25935 10.3101 5.24299 10.3111 5.23027C10.3116 5.22385 10.3119 5.21822 10.3121 5.2135C10.3122 5.21113 10.3123 5.20898 10.3123 5.20705C10.3123 5.20609 10.3124 5.20518 10.3124 5.20433C10.3124 5.2039 10.3124 5.20349 10.3124 5.2031C10.3124 5.2029 10.3124 5.2027 10.3124 5.20251C10.3124 5.20242 10.3124 5.20228 10.3124 5.20223C10.3124 5.20209 10.3124 5.20195 9.99994 5.198ZM9.68744 4.5625V5.198H10.3124V4.5625H9.68744ZM10.0193 4.25H9.99994V4.875H10.0193V4.25ZM9.70681 4.5625V5.198H10.3318V4.5625H9.70681ZM10.0193 5.198C9.70683 5.20195 9.70684 5.20209 9.70684 5.20223C9.70684 5.20228 9.70684 5.20242 9.70684 5.20251C9.70684 5.2027 9.70685 5.2029 9.70685 5.2031C9.70686 5.20349 9.70686 5.2039 9.70687 5.20433C9.70689 5.20518 9.70691 5.20609 9.70694 5.20705C9.70699 5.20898 9.70706 5.21113 9.70716 5.2135C9.70737 5.21822 9.70768 5.22385 9.70818 5.23027C9.70916 5.24299 9.71088 5.25935 9.71397 5.27825C9.71988 5.31452 9.73203 5.36792 9.75868 5.42535C9.78553 5.48319 9.83165 5.55469 9.90983 5.61188C9.99157 5.67168 10.0898 5.70211 10.1947 5.70211V5.07711C10.2132 5.07711 10.2462 5.08358 10.2788 5.10745C10.3079 5.12872 10.321 5.15232 10.3256 5.16225C10.33 5.17179 10.3308 5.17729 10.3308 5.17763C10.331 5.17857 10.3312 5.17995 10.3313 5.1822C10.3314 5.18337 10.3315 5.18489 10.3316 5.18681C10.3316 5.18777 10.3317 5.18885 10.3317 5.19005C10.3317 5.19065 10.3317 5.19128 10.3318 5.19195C10.3318 5.19228 10.3318 5.19262 10.3318 5.19297C10.3318 5.19315 10.3318 5.19332 10.3318 5.1935C10.3318 5.19359 10.3318 5.19373 10.3318 5.19377C10.3318 5.19391 10.3318 5.19405 10.0193 5.198ZM10.1947 5.70211C10.3822 5.70211 10.5393 5.6054 10.6189 5.54951C10.6652 5.51698 10.7034 5.48503 10.73 5.46127C10.7435 5.44924 10.7545 5.43891 10.7626 5.43112C10.7666 5.42722 10.77 5.42393 10.7726 5.42135C10.7739 5.42006 10.775 5.41894 10.7759 5.41802C10.7763 5.41755 10.7768 5.41714 10.7771 5.41677C10.7773 5.41658 10.7775 5.41641 10.7776 5.41625C10.7777 5.41617 10.7778 5.41609 10.7778 5.41602C10.7779 5.41598 10.7779 5.41593 10.7779 5.41591C10.778 5.41586 10.778 5.41581 10.554 5.198C10.3299 4.98019 10.3299 4.98014 10.33 4.98009C10.33 4.98008 10.33 4.98003 10.3301 4.98C10.3301 4.97994 10.3302 4.97988 10.3302 4.97982C10.3303 4.97971 10.3304 4.9796 10.3305 4.97951C10.3307 4.97933 10.3309 4.97918 10.331 4.97908C10.3312 4.97888 10.3312 4.97884 10.3311 4.97895C10.3309 4.97918 10.33 4.98001 10.3286 4.98134C10.3258 4.98404 10.3209 4.98868 10.3143 4.99461C10.3006 5.00678 10.2815 5.02273 10.2596 5.0381C10.2371 5.05392 10.2167 5.0656 10.2004 5.07257C10.183 5.08005 10.1821 5.07711 10.1947 5.07711V5.70211ZM10.554 5.198C10.3721 5.45217 10.3722 5.45221 10.3723 5.45225C10.3723 5.45227 10.3724 5.45231 10.3724 5.45234C10.3725 5.45241 10.3726 5.45247 10.3727 5.45254C10.3729 5.45268 10.3731 5.45282 10.3733 5.45298C10.3737 5.4533 10.3743 5.45367 10.3748 5.45408C10.376 5.45491 10.3775 5.45591 10.3792 5.45709C10.3826 5.45945 10.387 5.46249 10.3925 5.46613C10.4033 5.47339 10.4182 5.48307 10.4366 5.49434C10.4732 5.51675 10.5248 5.54626 10.5868 5.57586C10.7049 5.63218 10.8881 5.70211 11.0895 5.70211V5.07711C11.0233 5.07711 10.9387 5.05123 10.8559 5.01175C10.8175 4.99345 10.7854 4.97505 10.7634 4.96153C10.7524 4.95485 10.7443 4.94956 10.7395 4.94634C10.7371 4.94473 10.7356 4.94366 10.7349 4.94321C10.7346 4.94299 10.7345 4.94292 10.7346 4.94302C10.7347 4.94307 10.7348 4.94316 10.735 4.94329C10.7351 4.94336 10.7352 4.94344 10.7353 4.94353C10.7354 4.94358 10.7355 4.94362 10.7355 4.94367C10.7356 4.9437 10.7356 4.94374 10.7357 4.94375C10.7357 4.94379 10.7358 4.94383 10.554 5.198ZM11.0895 5.70211C11.1634 5.70211 11.2274 5.69489 11.2859 5.68017C11.3456 5.66515 11.3884 5.64474 11.4087 5.63527L11.1442 5.06897C11.1347 5.07342 11.1332 5.07404 11.1323 5.07442C11.1321 5.07447 11.1323 5.07438 11.1327 5.07425C11.1331 5.07412 11.1334 5.07406 11.1333 5.07409C11.1333 5.07409 11.1305 5.0748 11.1239 5.07554C11.1172 5.0763 11.1061 5.07711 11.0895 5.07711V5.70211ZM11.4087 5.63527C11.4166 5.63158 11.4169 5.63151 11.416 5.63185C11.4141 5.63264 11.4079 5.63514 11.3988 5.63763C11.3894 5.64021 11.3792 5.64218 11.3686 5.6432C11.3583 5.6442 11.35 5.64406 11.3447 5.6437C11.3353 5.64307 11.3368 5.6419 11.3558 5.64736C11.3744 5.65271 11.4034 5.66253 11.4476 5.68006L11.6782 5.09915C11.5755 5.0584 11.4787 5.02629 11.3865 5.0201C11.264 5.01187 11.1816 5.05154 11.1442 5.06897L11.4087 5.63527ZM11.4476 5.68006C11.4457 5.67929 11.4831 5.69715 11.5435 5.78619C11.5997 5.869 11.6586 5.98829 11.7121 6.14036C11.8188 6.44401 11.8912 6.84325 11.8912 7.2581H12.5162C12.5162 6.7766 12.4331 6.30699 12.3017 5.93319C12.2362 5.74653 12.1555 5.57494 12.0606 5.4352C11.97 5.3017 11.8449 5.16533 11.6782 5.09915L11.4476 5.68006ZM11.8912 7.2581C11.8912 7.40873 11.8152 7.66316 11.662 7.99626C11.5147 8.31676 11.3155 8.66941 11.1124 9.00072C10.91 9.33097 10.7071 9.6345 10.5545 9.85579C10.4783 9.9663 10.4149 10.056 10.3706 10.1178C10.3485 10.1487 10.3313 10.1726 10.3196 10.1887C10.3137 10.1968 10.3093 10.2028 10.3064 10.2069C10.3049 10.2089 10.3038 10.2103 10.3031 10.2113C10.3028 10.2118 10.3025 10.2121 10.3024 10.2123C10.3023 10.2124 10.3022 10.2125 10.3022 10.2125C10.3022 10.2126 10.3022 10.2126 10.3022 10.2126C10.3022 10.2126 10.3022 10.2125 10.554 10.3977C10.8057 10.5828 10.8057 10.5828 10.8058 10.5828C10.8058 10.5827 10.8058 10.5827 10.8059 10.5826C10.8059 10.5825 10.806 10.5824 10.8061 10.5822C10.8064 10.5819 10.8067 10.5814 10.8072 10.5808C10.8081 10.5796 10.8093 10.5779 10.811 10.5756C10.8143 10.5711 10.8192 10.5644 10.8254 10.5558C10.8379 10.5386 10.856 10.5135 10.879 10.4813C10.9251 10.417 10.9905 10.3244 11.069 10.2106C11.2257 9.98325 11.4353 9.66996 11.6453 9.32735C11.8546 8.9858 12.0679 8.60959 12.2299 8.25737C12.386 7.91777 12.5162 7.55566 12.5162 7.2581H11.8912ZM10.2528 10.481L10.3401 10.7965L10.9424 10.6299L10.8551 10.3144L10.2528 10.481ZM10.6412 10.7132C10.8339 10.9592 10.834 10.9592 10.8341 10.9591C10.8341 10.9591 10.8342 10.959 10.8342 10.959C10.8344 10.9589 10.8346 10.9587 10.8347 10.9586C10.8351 10.9583 10.8356 10.9579 10.8362 10.9574C10.8374 10.9565 10.839 10.9552 10.841 10.9537C10.845 10.9505 10.8506 10.946 10.8577 10.9402C10.872 10.9286 10.8923 10.9119 10.918 10.8903C10.9693 10.847 11.042 10.7839 11.1302 10.7027C11.3064 10.5406 11.5453 10.3052 11.7985 10.0104C12.301 9.42514 12.8781 8.58457 13.1125 7.60162L12.5045 7.45667C12.303 8.30197 11.7964 9.05342 11.3243 9.60318C11.0902 9.87584 10.869 10.0937 10.7069 10.2429C10.626 10.3174 10.5601 10.3745 10.515 10.4125C10.4925 10.4315 10.4752 10.4457 10.4639 10.4549C10.4582 10.4595 10.4541 10.4628 10.4515 10.4649C10.4502 10.4659 10.4493 10.4666 10.4488 10.467C10.4486 10.4672 10.4484 10.4673 10.4484 10.4673C10.4484 10.4673 10.4484 10.4673 10.4484 10.4673C10.4484 10.4673 10.4485 10.4673 10.4485 10.4673C10.4485 10.4672 10.4486 10.4672 10.6412 10.7132ZM13.1125 7.60162C13.356 6.58022 13.0358 5.73143 12.6685 5.15194C12.485 4.86229 12.2873 4.63548 12.1353 4.48074C12.0591 4.40314 11.9938 4.34304 11.9466 4.30158C11.9229 4.28084 11.9038 4.26472 11.89 4.25337C11.8831 4.24769 11.8775 4.2432 11.8734 4.23991C11.8714 4.23827 11.8697 4.23693 11.8683 4.23589C11.8677 4.23537 11.8671 4.23493 11.8667 4.23456C11.8664 4.23438 11.8662 4.23422 11.866 4.23407C11.8659 4.234 11.8658 4.2339 11.8658 4.23387C11.8656 4.23378 11.8655 4.23369 11.6738 4.48045C11.482 4.7272 11.4819 4.72713 11.4818 4.72705C11.4818 4.72704 11.4817 4.72697 11.4817 4.72693C11.4816 4.72686 11.4815 4.72681 11.4815 4.72678C11.4814 4.72671 11.4814 4.72671 11.4815 4.72678C11.4817 4.72693 11.4822 4.72737 11.4831 4.72809C11.485 4.72954 11.4882 4.73212 11.4927 4.73583C11.5017 4.74325 11.5158 4.75513 11.5343 4.77133C11.5712 4.80377 11.6252 4.85329 11.6894 4.91868C11.8183 5.04991 11.986 5.24247 12.1406 5.48647C12.4497 5.97426 12.6969 6.64983 12.5045 7.45667L13.1125 7.60162ZM11.7016 4.16919L11.6004 4.16014L11.5448 4.78266L11.646 4.7917L11.7016 4.16919ZM11.2601 4V4.4714H11.8851V4H11.2601Z" fill="#FFD018"/>
<path fill-rule="evenodd" clip-rule="evenodd" d="M8.1897 8.61555C8.1897 8.61555 8.38625 8.08779 8.72996 8.26371C9.07368 8.43963 9.04366 9.05206 9.35638 8.8338C9.6691 8.61555 9.49181 8.26371 9.95522 8.26371C10.4186 8.26371 10.3504 8.8338 10.6283 8.8338C10.9062 8.8338 10.9302 8.26371 11.2409 8.26371C11.5516 8.26371 11.8666 8.61555 11.8666 8.61555L10.0282 11.1171L8.1897 8.61555Z" fill="#8FC753"/>
<path fill-rule="evenodd" clip-rule="evenodd" d="M4.95555 11.5357L4.75782 11.2693C4.75782 11.2693 5.57785 11.2693 5.68911 11.4621C5.72046 11.5164 5.73414 11.5579 5.74456 11.5895C5.77109 11.67 5.77641 11.6862 5.99885 11.6862C6.30859 11.6862 5.99885 11.3789 5.86988 11.2693C5.7409 11.1596 5.81944 10.9686 5.99885 10.9686C6.06799 10.9686 6.18833 10.9527 6.33627 10.9333C6.57219 10.9022 6.87827 10.8619 7.15871 10.8619C7.615 10.8619 7.23673 11.2693 7.23673 11.2693C7.23673 11.2693 7.8275 11.2693 7.68085 11.0997C7.53421 10.9301 8.17329 10.7239 8.44942 10.7239C8.70685 10.7239 9.86569 10.7817 10.0216 10.7895C10.1846 10.7817 11.396 10.7239 11.6534 10.7239C11.9295 10.7239 12.5686 10.9301 12.422 11.0997C12.2753 11.2693 12.8661 11.2693 12.8661 11.2693C12.8661 11.2693 12.4878 10.8619 12.9441 10.8619C13.2246 10.8619 13.5306 10.9022 13.7666 10.9333C13.9145 10.9527 14.0348 10.9686 14.104 10.9686C14.2834 10.9686 14.3619 11.1596 14.2329 11.2693C14.104 11.3789 13.7942 11.6862 14.104 11.6862C14.3264 11.6862 14.3317 11.67 14.3583 11.5895C14.3687 11.5579 14.3824 11.5164 14.4137 11.4621C14.521 11.2761 15.2878 11.2695 15.342 11.2693C15.3296 11.2466 15.3226 11.2205 15.3226 11.1926C15.3226 11.1063 15.3903 11.0364 15.4738 11.0364C15.5573 11.0364 15.625 11.1063 15.625 11.1926C15.625 11.2789 15.5573 11.3489 15.4738 11.3489C15.4182 11.3489 15.3695 11.3178 15.3433 11.2716L15.1473 11.5357L15.3514 11.7884C15.3789 11.7493 15.4235 11.7239 15.4738 11.7239C15.5573 11.7239 15.625 11.7938 15.625 11.8801C15.625 11.9664 15.5573 12.0364 15.4738 12.0364C15.3903 12.0364 15.3226 11.9664 15.3226 11.8801C15.3226 11.8623 15.3255 11.8452 15.3308 11.8292C15.2152 11.773 15.0154 11.6862 14.8858 11.6862H14.525C14.6157 11.6862 15.1155 12.0159 14.9642 12.1588L14.9385 12.1831C14.7901 12.3242 14.5964 12.5083 14.4137 12.4079C14.2203 12.3017 14.104 12.1588 14.104 12.1588L13.9524 11.6862C13.9524 11.6862 13.0592 11.4556 13.0592 11.6152C13.0592 11.7748 13.0567 11.853 12.7399 11.853C12.5627 11.853 12.3914 11.8229 12.2406 11.7964C12.1219 11.7755 12.0159 11.7569 11.9295 11.7569C11.806 11.7569 11.6151 11.795 11.4739 11.8232C11.391 11.8398 11.3252 11.853 11.3001 11.853C11.2325 11.853 10.8708 11.8366 11.1187 11.6862C11.3666 11.5357 11.4237 11.3789 11.4237 11.3789C11.4237 11.3789 10.4315 11.5262 10.0389 11.5353V11.5357L10.0212 11.5356L10.0034 11.5357V11.5353C9.61421 11.5262 8.67912 11.3789 8.67912 11.3789C8.67912 11.3789 8.73623 11.5357 8.98412 11.6862C9.232 11.8366 8.87033 11.853 8.80269 11.853C8.77766 11.853 8.71184 11.8398 8.6289 11.8232C8.48767 11.795 8.29683 11.7569 8.17329 11.7569C8.08694 11.7569 7.98092 11.7755 7.86224 11.7964C7.71141 11.8229 7.54015 11.853 7.36289 11.853C7.04614 11.853 7.0436 11.7748 7.0436 11.6152C7.0436 11.4556 6.15038 11.6862 6.15038 11.6862L5.99885 12.1588C5.99885 12.1588 5.88252 12.3017 5.68911 12.4079C5.50641 12.5083 5.31276 12.3242 5.16429 12.1831L5.13866 12.1588C4.9873 12.0159 5.48709 11.6862 5.57785 11.6862H5.21698C5.02549 11.6862 4.68083 11.8758 4.68083 11.8758L4.95555 11.5357ZM4.52621 11.3489C4.60972 11.3489 4.67742 11.2789 4.67742 11.1926C4.67742 11.1063 4.60972 11.0364 4.52621 11.0364C4.4427 11.0364 4.375 11.1063 4.375 11.1926C4.375 11.2789 4.4427 11.3489 4.52621 11.3489ZM4.52621 12.0364C4.60972 12.0364 4.67742 11.9664 4.67742 11.8801C4.67742 11.7938 4.60972 11.7239 4.52621 11.7239C4.4427 11.7239 4.375 11.7938 4.375 11.8801C4.375 11.9664 4.4427 12.0364 4.52621 12.0364Z" fill="white"/>
<path fill-rule="evenodd" clip-rule="evenodd" d="M9.93399 1.26831H10.059V1.40229H10.2125V1.52729H10.059V1.75482C10.2314 1.78394 10.3629 1.93854 10.3629 2.12489C10.3629 2.33199 10.2004 2.49989 9.99999 2.49989C9.79956 2.49989 9.63708 2.33199 9.63708 2.12489C9.63708 1.94107 9.76507 1.78814 9.93399 1.75607V1.52729H9.79289V1.40229H9.93399V1.26831Z" fill="#FFD018"/>
<path fill-rule="evenodd" clip-rule="evenodd" d="M8.59173 3.26601C8.41676 3.26601 8.04779 3.45311 8.04779 3.45311L8.33468 4.08933L10.0651 4.02441L11.7955 4.08933L12.0824 3.45311C12.0824 3.45311 11.7134 3.26601 11.5385 3.26601C11.4616 3.26601 11.4519 3.2208 11.4409 3.17008C11.427 3.10531 11.411 3.03155 11.2509 3.03155C11.1377 3.03155 11.0576 3.05034 10.9928 3.06556C10.8943 3.08869 10.831 3.10355 10.7398 3.03155C10.736 3.02855 10.7322 3.02554 10.7284 3.02253C10.5807 2.90585 10.4272 2.78467 10.1791 2.78467C10.1296 2.78467 10.0926 2.83148 10.0651 2.9069C10.0376 2.83148 10.0006 2.78467 9.95111 2.78467C9.70293 2.78467 9.54952 2.90585 9.40181 3.02253C9.398 3.02554 9.39419 3.02855 9.39038 3.03155C9.29913 3.10355 9.23586 3.08869 9.13736 3.06556C9.07256 3.05034 8.99252 3.03155 8.87925 3.03155C8.71914 3.03155 8.70323 3.10531 8.68926 3.17008C8.67832 3.2208 8.66856 3.26601 8.59173 3.26601Z" fill="#E31D1C"/>
<path fill-rule="evenodd" clip-rule="evenodd" d="M9.75503 2.23022L9.63357 2.27236C9.3126 2.38371 9.03464 2.42044 8.79986 2.38426C8.31646 2.30976 7.68572 2.56127 7.76475 2.9296C7.79939 3.09101 7.90048 3.39586 8.00562 3.65424C8.1515 4.01275 8.2536 4.1936 8.37303 4.1936C8.38849 4.1936 8.55067 4.20245 8.6047 4.2054C8.61442 4.20593 8.62065 4.20627 8.62188 4.20634C8.79754 4.21523 8.95237 4.21993 9.10131 4.21924C9.532 4.21723 9.79897 4.17494 9.89431 4.04572L9.92236 4.0077L9.90905 3.9619C9.79595 3.57298 9.74359 3.03944 9.75316 2.36261L9.75503 2.23022ZM7.9419 2.88901C7.90315 2.7084 8.39651 2.51167 8.77309 2.5697C9.00768 2.60586 9.27349 2.57864 9.57064 2.48924C9.56907 3.09085 9.61813 3.57952 9.71865 3.9562C9.63253 4.00126 9.40623 4.03031 9.10049 4.03174C8.95531 4.03242 8.80346 4.0278 8.63076 4.01906C8.6323 4.01914 8.45286 4.0092 8.39141 4.00667C8.38937 4.0046 8.38697 4.002 8.38429 3.99887C8.36809 3.98 8.34785 3.94948 8.32503 3.90908C8.28006 3.82942 8.22754 3.71589 8.17288 3.58156C8.07162 3.3327 7.97383 3.03783 7.9419 2.88901Z" fill="#FFD018"/>
<path fill-rule="evenodd" clip-rule="evenodd" d="M10.2842 2.23022L10.4057 2.27236C10.7266 2.38371 11.0046 2.42044 11.2394 2.38426C11.7228 2.30976 12.3535 2.56127 12.2745 2.9296C12.2399 3.09101 12.1388 3.39586 12.0336 3.65424C11.8877 4.01275 11.7856 4.1936 11.6662 4.1936C11.6508 4.1936 11.4886 4.20245 11.4345 4.2054C11.4248 4.20593 11.4186 4.20627 11.4174 4.20634C11.2417 4.21523 11.0869 4.21993 10.9379 4.21924C10.5072 4.21723 10.2403 4.17494 10.1449 4.04572L10.1169 4.0077L10.1302 3.9619C10.2433 3.57298 10.2957 3.03944 10.2861 2.36261L10.2842 2.23022ZM12.0973 2.88901C12.1361 2.7084 11.6427 2.51167 11.2662 2.5697C11.0316 2.60586 10.7658 2.57864 10.4686 2.48924C10.4702 3.09085 10.4211 3.57952 10.3206 3.9562C10.4067 4.00126 10.633 4.03031 10.9388 4.03174C11.0839 4.03242 11.2358 4.0278 11.4085 4.01906C11.4069 4.01914 11.5864 4.0092 11.6478 4.00667C11.6499 4.0046 11.6523 4.002 11.655 3.99887C11.6712 3.98 11.6914 3.94948 11.7142 3.90908C11.7592 3.82942 11.8117 3.71589 11.8664 3.58156C11.9676 3.3327 12.0654 3.03783 12.0973 2.88901Z" fill="#FFD018"/>
<path fill-rule="evenodd" clip-rule="evenodd" d="M11.9471 4.04423C11.9469 4.00954 11.9669 3.94689 12.0105 3.83056C12.0707 3.67028 12.1119 3.62171 12.1994 3.56828C12.2436 3.54123 12.2609 3.51779 12.2818 3.43709C12.2985 3.37254 12.3154 3.32216 12.3348 3.27573C12.3387 3.2663 12.3472 3.24756 12.3553 3.22949L12.3553 3.22948L12.3553 3.2294C12.3636 3.21083 12.3717 3.19299 12.3741 3.18677C12.3876 3.1528 12.3932 3.12259 12.3932 3.07362C12.3932 3.0178 12.3786 2.97308 12.3401 2.89176C12.3171 2.8432 12.3141 2.83675 12.3059 2.81627C12.2893 2.77471 12.2808 2.73878 12.2808 2.7021V2.46138C12.2808 2.32082 12.2752 2.31226 12.2062 2.32158C12.1993 2.32251 12.1926 2.32359 12.1855 2.32485C12.1881 2.32439 12.1524 2.33135 12.1439 2.33235C12.1275 2.3343 12.114 2.33298 12.1003 2.32683C12.0756 2.31565 12.0574 2.29373 12.0139 2.22859C11.9934 2.19792 11.9713 2.20092 11.8929 2.2391C11.8818 2.24453 11.8752 2.24767 11.868 2.25097C11.7879 2.28778 11.7322 2.28885 11.6849 2.23102C11.6121 2.14216 11.5641 2.14782 11.4759 2.23359C11.4323 2.27596 11.4103 2.29199 11.3824 2.29609L11.3801 2.29643C11.3507 2.30079 11.3489 2.30105 11.2661 2.25033C11.2605 2.26206 11.2482 2.26659 11.2283 2.27123C11.2018 2.27741 11.1624 2.27951 11.136 2.27538C11.114 2.27195 11.0984 2.26516 11.0881 2.24371C11.0531 2.24265 11.0117 2.24208 10.9639 2.24208V2.17958C11.0252 2.17958 11.0762 2.18049 11.1175 2.18222L11.129 2.17217C11.1517 2.15219 11.187 2.12115 11.2037 2.12608C11.2059 2.12674 11.2125 2.13259 11.2216 2.14066L11.2216 2.14066L11.2216 2.14066C11.2355 2.153 11.2552 2.17051 11.2741 2.1825L11.2764 2.18397C11.3586 2.23437 11.3617 2.236 11.3739 2.23421C11.3847 2.23262 11.4002 2.22133 11.4344 2.18808C11.5452 2.0804 11.6324 2.07012 11.7311 2.19065C11.7561 2.22122 11.7851 2.22066 11.8435 2.19385C11.8501 2.1908 11.8564 2.18781 11.8671 2.18257C11.9717 2.13161 12.0183 2.12527 12.0636 2.19307C12.0995 2.24682 12.1147 2.26512 12.1245 2.26955L12.1267 2.27067C12.1288 2.27167 12.1317 2.27115 12.1588 2.26624L12.1751 2.26328C12.183 2.26187 12.1905 2.26066 12.1983 2.25961C12.3126 2.24417 12.3412 2.28824 12.3412 2.46138V2.7021C12.3412 2.72946 12.348 2.7578 12.3618 2.79242C12.3693 2.8111 12.3721 2.81729 12.3944 2.86427C12.4367 2.95364 12.4537 3.00555 12.4537 3.07362C12.4537 3.13061 12.4466 3.16889 12.4301 3.21051C12.4271 3.21813 12.418 3.23839 12.409 3.25826L12.409 3.25829C12.4013 3.27548 12.3937 3.29236 12.3903 3.30049C12.3721 3.34413 12.3561 3.39161 12.3402 3.45322C12.3153 3.54979 12.288 3.58673 12.2301 3.62208C12.1541 3.66855 12.1221 3.70629 12.0669 3.85317C12.0383 3.92947 12.0205 3.98301 12.012 4.01649C12.0102 4.02342 12.0089 4.02922 12.0081 4.03388C12.0168 4.04091 12.0158 4.04588 12.0129 4.05973L12.0129 4.05973C12.0108 4.06448 12.0102 4.06594 12.0093 4.06726L12.008 4.06921C12.0045 4.07344 12.0045 4.07344 12.0003 4.07692C11.9986 4.07822 11.9967 4.07939 11.9948 4.08041C11.996 4.08023 11.9969 4.07987 11.998 4.0791C11.9943 4.08336 11.9895 4.08942 11.9834 4.09737C11.9241 4.17482 11.8496 4.17482 11.7783 4.09991L11.8214 4.05607C11.8682 4.10525 11.9003 4.10525 11.9359 4.0586L11.9471 4.04423ZM8.02294 4.04423C8.02314 4.00954 8.00314 3.94689 7.95945 3.83056C7.89927 3.67028 7.85812 3.62171 7.77065 3.56828C7.72637 3.54123 7.70907 3.51779 7.68822 3.43709C7.67153 3.37254 7.65459 3.32216 7.6352 3.27573C7.63125 3.26628 7.62282 3.24749 7.61469 3.2294L7.61469 3.22939L7.61469 3.22939L7.61468 3.22938L7.61468 3.22938C7.60634 3.21081 7.59834 3.19298 7.59587 3.18677C7.58237 3.1528 7.57678 3.12259 7.57678 3.07362C7.57678 3.0178 7.59139 2.97308 7.62993 2.89176C7.65294 2.8432 7.65592 2.83675 7.6641 2.81627C7.6807 2.77471 7.68924 2.73878 7.68924 2.7021V2.46138C7.68924 2.32082 7.6948 2.31226 7.76381 2.32158C7.77073 2.32251 7.77743 2.32359 7.78447 2.32485C7.78189 2.32439 7.81764 2.33135 7.82611 2.33235C7.84253 2.3343 7.85603 2.33298 7.86966 2.32683C7.89444 2.31565 7.91261 2.29373 7.95614 2.22859C7.97665 2.19792 7.99872 2.20092 8.07709 2.2391C8.08823 2.24453 8.0948 2.24767 8.10197 2.25097C8.18214 2.28778 8.23778 2.28885 8.28513 2.23102C8.35787 2.14216 8.40593 2.14782 8.49414 2.23359C8.53771 2.27596 8.55971 2.29199 8.58759 2.29609L8.58992 2.29643C8.61929 2.30079 8.62108 2.30105 8.70387 2.25033C8.70952 2.26206 8.72179 2.26659 8.74165 2.27123C8.76817 2.27741 8.8076 2.27951 8.83402 2.27538C8.85601 2.27195 8.8716 2.26516 8.88191 2.24371C8.91689 2.24265 8.95828 2.24208 9.00612 2.24208V2.17958C8.94483 2.17958 8.89377 2.18049 8.85254 2.18222L8.84096 2.17217C8.81827 2.15219 8.78304 2.12115 8.76634 2.12608C8.76411 2.12674 8.75751 2.13259 8.74841 2.14066L8.74841 2.14066L8.74841 2.14066L8.74841 2.14066L8.74841 2.14066C8.73392 2.15351 8.7131 2.17197 8.69356 2.18397C8.61143 2.23437 8.60828 2.236 8.59611 2.23421C8.58528 2.23262 8.56979 2.22133 8.53559 2.18808C8.42485 2.0804 8.33763 2.07012 8.23895 2.19065C8.21393 2.22122 8.18492 2.22066 8.12653 2.19385C8.11988 2.1908 8.11363 2.18781 8.10288 2.18257C7.99827 2.13161 7.9517 2.12527 7.90637 2.19307C7.87045 2.24682 7.85529 2.26512 7.84546 2.26955L7.84332 2.27067C7.84117 2.27167 7.83832 2.27115 7.81124 2.26624L7.79485 2.26328C7.78701 2.26187 7.77947 2.26066 7.77165 2.25961C7.65738 2.24417 7.62875 2.28824 7.62875 2.46138V2.7021C7.62875 2.72946 7.62202 2.7578 7.60819 2.79242C7.60073 2.8111 7.59788 2.81729 7.57561 2.86427C7.53325 2.95364 7.5163 3.00555 7.5163 3.07362C7.5163 3.13061 7.52338 3.16889 7.53992 3.21051C7.54295 3.21813 7.55204 3.23839 7.56096 3.25825L7.56096 3.25825C7.56868 3.27545 7.57627 3.29235 7.57967 3.30049C7.59789 3.34413 7.61386 3.39161 7.62978 3.45322C7.65473 3.54979 7.682 3.58673 7.73987 3.62208C7.81594 3.66855 7.84791 3.70629 7.90306 3.85317C7.93172 3.92947 7.94949 3.98301 7.958 4.01649C7.95976 4.02342 7.96105 4.02922 7.96192 4.03388C7.95316 4.04091 7.9542 4.04588 7.9571 4.05973C7.95917 4.06448 7.95981 4.06594 7.96065 4.06726L7.96204 4.06921L7.96204 4.06921C7.96552 4.07344 7.96552 4.07344 7.96971 4.07692C7.97143 4.07822 7.97325 4.07939 7.97515 4.08041C7.97404 4.08023 7.97312 4.07987 7.97202 4.0791C7.97566 4.08336 7.98052 4.08942 7.98661 4.09737C8.04587 4.17482 8.12039 4.17482 8.19173 4.09991L8.14862 4.05607C8.10179 4.10525 8.06974 4.10525 8.03405 4.0586L8.02294 4.04423ZM8.74936 2.20883L8.74819 2.20827L8.74868 2.20848L8.74936 2.20883Z" fill="#5E5E5E"/>
<path d="M8.60876 11.1781L8.64673 10.8679C9.31834 10.9501 9.76677 10.9912 9.99272 10.9914C10.3335 11.0067 10.7396 10.982 11.2105 10.917L11.2532 11.2265C10.7648 11.294 10.3401 11.3198 9.9857 11.3037C9.74983 11.3037 9.29297 11.2619 8.60876 11.1781Z" fill="#272727"/>
</g>
</g>
</svg>
