<svg width="32" height="24" viewBox="0 0 32 24" fill="none" xmlns="http://www.w3.org/2000/svg">
<mask id="mask0" mask-type="alpha" maskUnits="userSpaceOnUse" x="0" y="0" width="32" height="24">
<rect width="32" height="24" fill="white"/>
</mask>
<g mask="url(#mask0)">
<path fill-rule="evenodd" clip-rule="evenodd" d="M0 0V24H32V0H0Z" fill="#4EC7EE"/>
<mask id="mask1" mask-type="alpha" maskUnits="userSpaceOnUse" x="0" y="0" width="32" height="24">
<path fill-rule="evenodd" clip-rule="evenodd" d="M0 0V24H32V0H0Z" fill="white"/>
</mask>
<g mask="url(#mask1)">
<path d="M4.08996 23.237C4.0265 23.707 4.32755 24.0418 4.83258 24.2572C5.51149 24.5469 6.19653 24.2756 6.82667 23.5774L6.01006 22.8404C5.73015 23.1506 5.52787 23.2701 5.37173 23.2681C5.67746 23.0496 6.06917 22.78 6.5463 22.4596L6.77531 22.1279C6.95925 21.3389 6.38731 20.9113 5.51507 20.9113C5.00131 20.9113 4.59057 21.013 4.32997 21.2315C3.90184 21.5905 3.97514 22.1635 4.42568 22.4617C4.46142 22.4853 4.49769 22.5066 4.53445 22.5255C4.28171 22.739 4.12745 22.9593 4.08996 23.237Z" fill="#FFE402"/>
<path d="M4.56494 22.4955C4.56494 22.4955 4.68972 22.2189 4.62733 22.075" stroke="#FFE402" stroke-width="1.1"/>
<path d="M8.56934 23.237C8.63281 23.707 8.33175 24.0418 7.82673 24.2572C7.14781 24.5469 6.46277 24.2756 5.83263 23.5774L6.64924 22.8404C6.92916 23.1506 7.13143 23.2701 7.28757 23.2681C6.98184 23.0496 6.59013 22.78 6.113 22.4596L5.88399 22.1279C5.70006 21.3389 6.27199 20.9113 7.14423 20.9113C7.65799 20.9113 8.06873 21.013 8.32933 21.2315C8.75746 21.5905 8.68417 22.1635 8.23362 22.4617C8.19789 22.4853 8.16161 22.5066 8.12485 22.5255C8.37759 22.739 8.53185 22.9593 8.56934 23.237Z" fill="#FFE402"/>
<path d="M8.5957 22.2693L7.59304 22.7217C7.4523 22.4098 7.41025 22.1264 7.52737 21.8562L8.53659 22.2938C8.57052 22.2155 8.57007 22.2125 8.5957 22.2693Z" fill="#FFE402"/>
<path d="M4.08996 0.762999C4.0265 0.293 4.32755 -0.0417682 4.83258 -0.257225C5.51149 -0.546867 6.19653 -0.275644 6.82667 0.422567L6.01006 1.15956C5.73015 0.849401 5.52787 0.729906 5.37173 0.731937C5.67746 0.950357 6.06917 1.22 6.5463 1.54042L6.77531 1.87214C6.95925 2.66114 6.38731 3.08866 5.51507 3.08866C5.00131 3.08866 4.59057 2.98701 4.32997 2.7685C3.90184 2.40953 3.97514 1.83648 4.42568 1.53834C4.46142 1.51469 4.49769 1.49341 4.53445 1.47445C4.28171 1.26101 4.12745 1.04065 4.08996 0.762999Z" fill="#FFE402"/>
<path d="M8.56934 0.762999C8.63281 0.293 8.33175 -0.0417682 7.82673 -0.257225C7.14781 -0.546867 6.46277 -0.275644 5.83263 0.422567L6.64924 1.15956C6.92916 0.849401 7.13143 0.729906 7.28757 0.731937C6.98184 0.950357 6.59013 1.22 6.113 1.54042L5.88399 1.87214C5.70006 2.66114 6.27199 3.08866 7.14423 3.08866C7.65799 3.08866 8.06873 2.98701 8.32933 2.7685C8.75746 2.40953 8.68417 1.83648 8.23362 1.53834C8.19789 1.51469 8.16161 1.49341 8.12485 1.47445C8.37759 1.26101 8.53185 1.04065 8.56934 0.762999Z" fill="#FFE402"/>
<path fill-rule="evenodd" clip-rule="evenodd" d="M5.09384 20.063C4.46282 20.0812 4.0702 20.2113 4.0702 20.8196C4.0702 21.4903 4.72185 21.7002 5.41513 21.7002C6.04316 21.7002 6.75067 21.3104 6.75067 20.6124C6.75067 20.1877 6.21071 19.3307 4.85108 17.473C4.80395 17.4291 4.778 17.4068 4.75722 17.4066C4.83967 17.3607 4.98488 17.307 5.17648 17.307C5.243 17.307 5.32945 17.3406 5.41513 17.3837V18.1123H6.85461V17.5623C6.85461 16.9409 5.93605 16.207 5.17648 16.207C4.51313 16.207 3.98058 16.5225 3.71084 16.9765C3.44426 17.4251 3.6481 17.8558 4.03094 18.1983C4.60063 18.984 5.04295 19.6344 5.32035 20.0617C5.21843 20.0609 5.16247 20.061 5.09384 20.063ZM5.16145 20.5702C5.14149 20.5657 5.12229 20.5609 5.10435 20.5557C5.11771 20.5697 5.1702 20.6323 5.1702 20.8196C5.1702 20.9216 5.16529 20.9933 5.1587 21.0438C4.97312 20.8801 4.92124 20.5947 5.05704 20.375L5.06041 20.3695L5.0397 20.3283C5.04244 20.327 5.04519 20.3255 5.0479 20.3242C5.07988 20.3077 5.10615 20.2942 5.06041 20.3695L5.16145 20.5702ZM5.10435 20.5557L5.08527 20.5498C5.08733 20.5505 5.09002 20.5518 5.09317 20.5538L5.10435 20.5557ZM5.65067 20.6124C5.65067 20.5936 5.64429 20.5824 5.63325 20.5764L5.63965 20.5834C5.64696 20.5985 5.65067 20.6082 5.65067 20.6124Z" fill="#FFE402"/>
<path fill-rule="evenodd" clip-rule="evenodd" d="M7.56559 20.063C8.1966 20.0812 8.58922 20.2113 8.58922 20.8196C8.58922 21.4903 7.93758 21.7002 7.24429 21.7002C6.61626 21.7002 5.90875 21.3104 5.90875 20.6124C5.90875 20.1877 6.44871 19.3307 7.80835 17.473C7.85547 17.4291 7.88142 17.4068 7.90221 17.4066C7.81975 17.3607 7.67454 17.307 7.48294 17.307C7.41642 17.307 7.32998 17.3406 7.24429 17.3837V18.1123H5.80482V17.5623C5.80482 16.9409 6.72338 16.207 7.48294 16.207C8.14629 16.207 8.67884 16.5225 8.94859 16.9765C9.21516 17.4251 9.01132 17.8558 8.62849 18.1983C8.0588 18.984 7.61647 19.6344 7.33907 20.0617C7.44099 20.0609 7.49695 20.061 7.56559 20.063ZM7.49797 20.5702C7.51793 20.5657 7.53714 20.5609 7.55508 20.5557C7.54172 20.5697 7.48922 20.6323 7.48922 20.8196C7.48922 20.9216 7.49413 20.9933 7.50072 21.0438C7.68631 20.8801 7.73819 20.5947 7.60238 20.375L7.59902 20.3695L7.61973 20.3283C7.61698 20.327 7.61423 20.3255 7.61152 20.3242C7.57955 20.3077 7.55327 20.2942 7.59902 20.3695L7.49797 20.5702ZM7.55508 20.5557L7.57415 20.5498C7.57209 20.5505 7.5694 20.5518 7.56626 20.5538L7.55508 20.5557ZM7.00875 20.6124C7.00875 20.5936 7.01514 20.5824 7.02617 20.5764L7.01977 20.5834C7.01246 20.5985 7.00875 20.6082 7.00875 20.6124Z" fill="#FFE402"/>
<path fill-rule="evenodd" clip-rule="evenodd" d="M5.09384 13.3547C4.46282 13.3366 4.0702 13.2064 4.0702 12.5981C4.0702 11.9274 4.72185 11.7175 5.41513 11.7175C6.04316 11.7175 6.75067 12.1073 6.75067 12.8054C6.75067 13.23 6.21071 14.087 4.85108 15.9447C4.80395 15.9886 4.778 16.011 4.75722 16.0111C4.83967 16.057 4.98488 16.1108 5.17648 16.1108C5.243 16.1108 5.32945 16.0771 5.41513 16.034V15.3055H6.85461V15.8555C6.85461 16.4769 5.93605 17.2108 5.17648 17.2108C4.51313 17.2108 3.98058 16.8952 3.71084 16.4412C3.44426 15.9926 3.6481 15.5619 4.03094 15.2194C4.60063 14.4337 5.04295 13.7833 5.32035 13.356C5.21843 13.3568 5.16247 13.3567 5.09384 13.3547ZM5.16145 12.8475C5.14149 12.852 5.12229 12.8568 5.10435 12.862C5.11771 12.848 5.1702 12.7855 5.1702 12.5981C5.1702 12.4961 5.16529 12.4244 5.1587 12.3739C4.97312 12.5377 4.92124 12.8231 5.05704 13.0428L5.06041 13.0482L5.0397 13.0894C5.04244 13.0908 5.04519 13.0922 5.0479 13.0936C5.07988 13.11 5.10615 13.1236 5.06041 13.0482L5.16145 12.8475ZM5.10435 12.862L5.08527 12.8679C5.08733 12.8672 5.09002 12.8659 5.09317 12.8639L5.10435 12.862ZM5.65067 12.8054C5.65067 12.8242 5.64429 12.8353 5.63325 12.8413L5.63965 12.8343C5.64696 12.8192 5.65067 12.8095 5.65067 12.8054Z" fill="#FFE402"/>
<path fill-rule="evenodd" clip-rule="evenodd" d="M7.56559 13.3547C8.1966 13.3366 8.58922 13.2064 8.58922 12.5981C8.58922 11.9274 7.93758 11.7175 7.24429 11.7175C6.61626 11.7175 5.90875 12.1073 5.90875 12.8054C5.90875 13.23 6.44871 14.087 7.80835 15.9447C7.85547 15.9886 7.88142 16.011 7.90221 16.0111C7.81975 16.057 7.67454 16.1108 7.48294 16.1108C7.41642 16.1108 7.32998 16.0771 7.24429 16.034V15.3055H5.80482V15.8555C5.80482 16.4769 6.72338 17.2108 7.48294 17.2108C8.14629 17.2108 8.67884 16.8952 8.94859 16.4412C9.21516 15.9926 9.01132 15.5619 8.62849 15.2194C8.0588 14.4337 7.61647 13.7833 7.33907 13.356C7.44099 13.3568 7.49695 13.3567 7.56559 13.3547ZM7.49797 12.8475C7.51793 12.852 7.53714 12.8568 7.55508 12.862C7.54172 12.848 7.48922 12.7855 7.48922 12.5981C7.48922 12.4961 7.49413 12.4244 7.50072 12.3739C7.68631 12.5377 7.73819 12.8231 7.60238 13.0428L7.59902 13.0482L7.61973 13.0894C7.61698 13.0908 7.61423 13.0922 7.61152 13.0936C7.57955 13.11 7.55327 13.1236 7.59902 13.0482L7.49797 12.8475ZM7.55508 12.862L7.57415 12.8679C7.57209 12.8672 7.5694 12.8659 7.56626 12.8639L7.55508 12.862ZM7.00875 12.8054C7.00875 12.8242 7.01514 12.8353 7.02617 12.8413L7.01977 12.8343C7.01246 12.8192 7.00875 12.8095 7.00875 12.8054Z" fill="#FFE402"/>
<path fill-rule="evenodd" clip-rule="evenodd" d="M5.09384 10.6453C4.46282 10.6634 4.0702 10.7936 4.0702 11.4019C4.0702 12.0726 4.72185 12.2825 5.41513 12.2825C6.04316 12.2825 6.75067 11.8927 6.75067 11.1946C6.75067 10.77 6.21071 9.913 4.85108 8.0553C4.80395 8.01141 4.778 7.98905 4.75722 7.9889C4.83967 7.94299 4.98488 7.88923 5.17648 7.88923C5.243 7.88923 5.32945 7.92287 5.41513 7.96597V8.69454H6.85461V8.14454C6.85461 7.52315 5.93605 6.78923 5.17648 6.78923C4.51313 6.78923 3.98058 7.10478 3.71084 7.55875C3.44426 8.0074 3.6481 8.43806 4.03094 8.78062C4.60063 9.56632 5.04295 10.2167 5.32035 10.644C5.21843 10.6432 5.16247 10.6433 5.09384 10.6453ZM5.16145 11.1525C5.14149 11.148 5.12229 11.1432 5.10435 11.138C5.11771 11.152 5.1702 11.2145 5.1702 11.4019C5.1702 11.5039 5.16529 11.5756 5.1587 11.6261C4.97312 11.4623 4.92124 11.1769 5.05704 10.9572L5.06041 10.9518L5.0397 10.9106C5.04244 10.9092 5.04519 10.9078 5.0479 10.9064C5.07988 10.89 5.10615 10.8764 5.06041 10.9518L5.16145 11.1525ZM5.10435 11.138L5.08527 11.1321C5.08733 11.1328 5.09002 11.1341 5.09317 11.1361L5.10435 11.138ZM5.65067 11.1946C5.65067 11.1758 5.64429 11.1647 5.63325 11.1587L5.63965 11.1657C5.64696 11.1808 5.65067 11.1905 5.65067 11.1946Z" fill="#FFE402"/>
<path fill-rule="evenodd" clip-rule="evenodd" d="M7.56559 10.6453C8.1966 10.6634 8.58922 10.7936 8.58922 11.4019C8.58922 12.0726 7.93758 12.2825 7.24429 12.2825C6.61626 12.2825 5.90875 11.8927 5.90875 11.1946C5.90875 10.77 6.44871 9.913 7.80835 8.0553C7.85547 8.01141 7.88142 7.98905 7.90221 7.9889C7.81975 7.94299 7.67454 7.88923 7.48294 7.88923C7.41642 7.88923 7.32998 7.92287 7.24429 7.96597V8.69454H5.80482V8.14454C5.80482 7.52315 6.72338 6.78923 7.48294 6.78923C8.14629 6.78923 8.67884 7.10478 8.94859 7.55875C9.21516 8.0074 9.01132 8.43806 8.62849 8.78062C8.0588 9.56632 7.61647 10.2167 7.33907 10.644C7.44099 10.6432 7.49695 10.6433 7.56559 10.6453ZM7.49797 11.1525C7.51793 11.148 7.53714 11.1432 7.55508 11.138C7.54172 11.152 7.48922 11.2145 7.48922 11.4019C7.48922 11.5039 7.49413 11.5756 7.50072 11.6261C7.68631 11.4623 7.73819 11.1769 7.60238 10.9572L7.59902 10.9518L7.61973 10.9106C7.61698 10.9092 7.61423 10.9078 7.61152 10.9064C7.57955 10.89 7.55327 10.8764 7.59902 10.9518L7.49797 11.1525ZM7.55508 11.138L7.57415 11.1321C7.57209 11.1328 7.5694 11.1341 7.56626 11.1361L7.55508 11.138ZM7.00875 11.1946C7.00875 11.1758 7.01514 11.1647 7.02617 11.1587L7.01977 11.1657C7.01246 11.1808 7.00875 11.1905 7.00875 11.1946Z" fill="#FFE402"/>
<path fill-rule="evenodd" clip-rule="evenodd" d="M5.09384 3.93701C4.46282 3.91885 4.0702 3.78868 4.0702 3.1804C4.0702 2.50965 4.72185 2.2998 5.41513 2.2998C6.04316 2.2998 6.75067 2.68959 6.75067 3.38765C6.75067 3.81232 6.21071 4.66928 4.85108 6.52697C4.80395 6.57086 4.778 6.59323 4.75722 6.59337C4.83967 6.63928 4.98488 6.69305 5.17648 6.69305C5.243 6.69305 5.32945 6.6594 5.41513 6.6163V5.88774H6.85461V6.43774C6.85461 7.05913 5.93605 7.79305 5.17648 7.79305C4.51313 7.79305 3.98058 7.47749 3.71084 7.02352C3.44426 6.57488 3.6481 6.14421 4.03094 5.80166C4.60063 5.01595 5.04295 4.36559 5.32035 3.93827C5.21843 3.93912 5.16247 3.93898 5.09384 3.93701ZM5.16145 3.42982C5.14149 3.43426 5.12229 3.43911 5.10435 3.44432C5.11771 3.43031 5.1702 3.36773 5.1702 3.1804C5.1702 3.07841 5.16529 3.00666 5.1587 2.95621C4.97312 3.11993 4.92124 3.40534 5.05704 3.62503L5.06041 3.63052L5.0397 3.67165C5.04244 3.67304 5.04519 3.67445 5.0479 3.67585C5.07988 3.69231 5.10615 3.70584 5.06041 3.63052L5.16145 3.42982ZM5.10435 3.44432L5.08527 3.45015C5.08733 3.44949 5.09002 3.44822 5.09317 3.44618L5.10435 3.44432ZM5.65067 3.38765C5.65067 3.40643 5.64429 3.41759 5.63325 3.42357L5.63965 3.41656C5.64696 3.40152 5.65067 3.39181 5.65067 3.38765Z" fill="#FFE402"/>
<path fill-rule="evenodd" clip-rule="evenodd" d="M7.56559 3.93701C8.1966 3.91885 8.58922 3.78868 8.58922 3.1804C8.58922 2.50965 7.93758 2.2998 7.24429 2.2998C6.61626 2.2998 5.90875 2.68959 5.90875 3.38765C5.90875 3.81232 6.44871 4.66928 7.80835 6.52697C7.85547 6.57086 7.88142 6.59323 7.90221 6.59337C7.81975 6.63928 7.67454 6.69305 7.48294 6.69305C7.41642 6.69305 7.32998 6.6594 7.24429 6.6163V5.88774H5.80482V6.43774C5.80482 7.05913 6.72338 7.79305 7.48294 7.79305C8.14629 7.79305 8.67884 7.47749 8.94859 7.02352C9.21516 6.57488 9.01132 6.14421 8.62849 5.80166C8.0588 5.01595 7.61647 4.36559 7.33907 3.93827C7.44099 3.93912 7.49695 3.93898 7.56559 3.93701ZM7.49797 3.42982C7.51793 3.43426 7.53714 3.43911 7.55508 3.44432C7.54172 3.43031 7.48922 3.36773 7.48922 3.1804C7.48922 3.07841 7.49413 3.00666 7.50072 2.95621C7.68631 3.11993 7.73819 3.40534 7.60238 3.62503L7.59902 3.63052L7.61973 3.67165C7.61698 3.67304 7.61423 3.67445 7.61152 3.67585C7.57955 3.69231 7.55327 3.70584 7.59902 3.63052L7.49797 3.42982ZM7.55508 3.44432L7.57415 3.45015C7.57209 3.44949 7.5694 3.44822 7.56626 3.44618L7.55508 3.44432ZM7.00875 3.38765C7.00875 3.40643 7.01514 3.41759 7.02617 3.42357L7.01977 3.41656C7.01246 3.40152 7.00875 3.39181 7.00875 3.38765Z" fill="#FFE402"/>
<path fill-rule="evenodd" clip-rule="evenodd" d="M18.9867 2.78479L19.3962 4.3125C19.3962 4.3125 19.401 4.65959 19.0089 4.65959C18.6168 4.65959 18.597 4.3125 18.597 4.3125L18.9867 2.78479ZM22.4503 8.61997C22.4503 10.6082 20.9326 12.22 19.0603 12.22C17.1881 12.22 15.6703 10.6082 15.6703 8.61997C15.6703 6.63174 17.1881 5.01997 19.0603 5.01997C20.9326 5.01997 22.4503 6.63174 22.4503 8.61997ZM20.5812 4.62057L20.6363 3.0399L19.817 4.38691C19.817 4.38691 19.7344 4.72462 20.1094 4.83926C20.4844 4.9539 20.5812 4.62057 20.5812 4.62057ZM22.1406 3.78841L21.6258 5.2839C21.6258 5.2839 21.4357 5.57434 21.1106 5.35508C20.7856 5.13581 20.9633 4.83701 20.9633 4.83701L22.1406 3.78841ZM22.4368 6.2436L23.3663 4.96398L21.9338 5.62252C21.9338 5.62252 21.6765 5.85632 21.9233 6.16104C22.17 6.46577 22.4368 6.2436 22.4368 6.2436ZM24.211 6.47758L22.9315 7.40731C22.9315 7.40731 22.6092 7.53619 22.4686 7.17013C22.3281 6.80406 22.6451 6.66122 22.6451 6.66122L24.211 6.47758ZM23.0878 8.68225L24.5833 8.16723L23.0321 7.88502C23.0321 7.88502 22.6872 7.92896 22.7146 8.32011C22.7419 8.71127 23.0878 8.68225 23.0878 8.68225ZM24.4605 9.89591L22.8798 9.9512C22.8798 9.9512 22.5406 9.87782 22.6288 9.49576C22.717 9.1137 23.0596 9.17251 23.0596 9.17251L24.4605 9.89591ZM22.3258 11.1011L23.8536 11.5104L22.7254 10.409C22.7254 10.409 22.415 10.2526 22.2189 10.5922C22.0229 10.9318 22.3258 11.1011 22.3258 11.1011ZM22.8163 12.8676L21.475 12.0296C21.475 12.0296 21.2348 11.779 21.5215 11.5116C21.8083 11.2442 22.0595 11.4846 22.0595 11.4846L22.8163 12.8676ZM20.4029 12.6537L21.4406 13.8473L21.1212 12.3034C21.1212 12.3034 20.9513 12.0001 20.5988 12.172C20.2464 12.3439 20.4029 12.6537 20.4029 12.6537ZM19.8483 14.3627L19.2049 12.9179C19.2049 12.9179 19.1459 12.5758 19.5332 12.5145C19.9205 12.4531 19.9943 12.7928 19.9943 12.7928L19.8483 14.3627ZM17.999 12.7928L18.1644 14.3658L18.7883 12.9179C18.7883 12.9179 18.8231 12.572 18.4358 12.5106C18.0485 12.4493 17.999 12.7928 17.999 12.7928ZM16.5704 13.856L16.8721 12.3034C16.8721 12.3034 17.0199 11.9894 17.3723 12.1613C17.7247 12.3331 17.5904 12.6538 17.5904 12.6538L16.5704 13.856ZM15.9338 11.4846L15.1913 12.8811L16.5183 12.0296C16.5183 12.0296 16.7405 11.7623 16.4537 11.4949C16.167 11.2275 15.9338 11.4846 15.9338 11.4846ZM14.1495 11.5275L15.2678 10.4091C15.2678 10.4091 15.566 10.2314 15.762 10.5709C15.9581 10.9105 15.6674 11.1012 15.6674 11.1012L14.1495 11.5275ZM14.9336 9.17256L13.5371 9.91518L15.1134 9.95126C15.1134 9.95126 15.4471 9.85392 15.3589 9.47186C15.2707 9.0898 14.9336 9.17256 14.9336 9.17256ZM13.4086 8.18697L14.9611 7.88508C14.9611 7.88508 15.3077 7.90449 15.2803 8.29564C15.253 8.6868 14.9054 8.68231 14.9054 8.68231L13.4086 8.18697ZM15.3481 6.66127L13.7751 6.49604L15.0617 7.40737C15.0617 7.40737 15.3928 7.51329 15.5334 7.14723C15.6739 6.78116 15.3481 6.66127 15.3481 6.66127ZM14.6144 4.97935L16.0594 5.62257C16.0594 5.62257 16.3321 5.83725 16.0854 6.14198C15.8386 6.4467 15.5564 6.24364 15.5564 6.24364L14.6144 4.97935ZM17.0299 4.83704L15.8362 3.79947L16.3674 5.28393C16.3674 5.28393 16.5778 5.56062 16.9029 5.34136C17.228 5.12209 17.0299 4.83704 17.0299 4.83704ZM17.338 3.04569L18.1762 4.38693C18.1762 4.38693 18.2823 4.71744 17.9073 4.83209C17.5323 4.94673 17.4119 4.62059 17.4119 4.62059L17.338 3.04569Z" fill="#FFE402"/>
<path fill-rule="evenodd" clip-rule="evenodd" d="M12.221 10.6719C12.2073 10.6194 12.1948 10.5681 12.1835 10.5181L12.2535 10.659L12.221 10.6719ZM12.317 11.002C12.2803 10.8868 12.2483 10.7768 12.221 10.6719L11.7925 10.843L11.856 11.002H11.8097L11.7918 11.0109C11.7662 10.8803 11.7533 10.7565 11.7533 10.6391V9.65198L12.1835 10.5181C12.129 10.2775 12.1016 10.0658 12.1016 9.88129V8.6507L12.5994 9.89761L12.1267 10.0456L12.3124 10.6391H12.3033L12.2535 10.659L12.4297 11.0138L12.5997 11.557C12.4407 11.265 12.3597 11.0712 12.3597 11.002H12.317ZM12.8641 12.3886C12.6264 11.861 12.4438 11.4005 12.317 11.002H11.856L12.3244 12.1753L12.1509 11.9902C11.9693 11.6264 11.849 11.3017 11.7918 11.0109L11.4105 11.2003L11.3346 11.1193V11.238L11.3172 11.2467L11.3346 11.2817V11.416C11.2846 11.2599 11.2597 11.123 11.2597 11.002V8.65844L11.7533 9.65198V7.77832L12.1016 8.6507V6.28259L13.4924 10.7263L13.3946 10.7581C13.2656 10.3727 13.2016 10.0778 13.2016 9.88129H12.6516L12.5994 9.89761L12.995 10.8883L12.8995 10.9194C12.8686 10.8096 12.8533 10.7158 12.8533 10.6391H12.3124L12.4297 11.0138L13.0439 12.2503L13.0185 12.26C12.8451 11.9876 12.7052 11.7507 12.5997 11.557L12.8409 12.3275L13.0185 12.26L13.0432 12.2988L12.8641 12.3886ZM13.0548 12.3168L12.8643 12.3892L12.8641 12.3886L12.633 12.5045L12.3244 12.1753L12.4714 12.5435C12.4536 12.5288 12.4429 12.5186 12.4379 12.5137C12.3296 12.3307 12.2339 12.1564 12.1509 11.9902L11.4105 11.2003L11.3346 11.238V11.2817L11.9448 12.5103H11.8846L11.8805 12.5141C11.6091 12.0659 11.4279 11.7074 11.3346 11.416V12.2194L9.1499 10.6631L11.9322 13.9743C12.8213 15.0324 13.9169 15.8455 15.2129 16.4105L12.6935 16.357L15.2541 17.0797L13.9294 18.0546L16.2175 17.3516L16.8414 17.5277C17.681 17.7647 18.1486 18.0024 18.1791 18.0746L18.297 18.3532L18.5954 18.4028C19.2492 18.5116 20.4554 18.3421 22.0094 17.9977C22.5374 17.8806 23.0673 17.7503 23.4774 17.6396C23.6493 17.5932 23.7837 17.5546 23.8595 17.5297C23.8908 17.5193 23.8908 17.5193 23.9305 17.5041L23.9306 17.504C23.9562 17.4937 23.9562 17.4937 24.0151 17.4618L24.0151 17.4617L24.0151 17.4617C24.0653 17.4548 24.1021 17.4498 24.1268 17.4297C24.1952 17.3742 24.1702 17.2035 24.0756 16.5598L24.0756 16.5598C23.6423 16.4439 23.5819 16.4277 23.5657 16.4476C23.5631 16.4508 23.5616 16.455 23.5599 16.4598C23.4113 16.4906 23.1795 16.4871 22.8706 16.4474C25.4564 15.1758 27.155 13.9018 27.9688 12.591L29.4573 10.1933L28.5555 10.8511L28.8804 9.8066L27.5952 10.6325C27.7606 10.4131 27.8886 10.1946 27.9789 9.97631L28.947 7.6366L27.4194 9.06169L28.2481 6.33047L26.2819 8.96445L18.2323 14.8881L18.1067 14.859C16.1252 14.3996 14.7336 12.9998 13.9055 10.5917L13.4924 10.7263L13.4977 10.7434L13.4003 10.7752L13.3946 10.7581L12.995 10.8883L13.0017 10.905L12.9045 10.9367L12.8995 10.9194L12.8597 10.9324C12.9935 11.367 13.1395 11.7743 13.2977 12.1539L13.0439 12.2503L13.0631 12.2888L13.0432 12.2988L13.0548 12.3168ZM13.0734 12.3097L13.0548 12.3168L13.0941 12.3777L12.6996 12.5756L12.633 12.5045L12.504 12.5692C12.4912 12.5595 12.4804 12.5509 12.4714 12.5435L12.4854 12.5785L12.504 12.5692C12.5265 12.5863 12.5551 12.6068 12.5908 12.6302L12.5273 12.662C12.4966 12.612 12.4668 12.5625 12.4379 12.5137L12.4346 12.5103H11.9448L12.0555 12.733L11.9836 12.6818C11.9479 12.6245 11.9135 12.5687 11.8805 12.5141L11.8234 12.5677L11.3346 12.2194V12.5103C11.3346 13.0309 11.7009 13.4244 12.3301 13.7478L12.0341 14.0684L15.3251 16.4129L15.2129 16.4105C15.3207 16.4575 15.4298 16.5028 15.5404 16.5463L15.826 16.6589L15.2541 17.0797L16.2175 17.3516L16.9855 17.1157L19.7189 18.1925L18.8373 17.5644C18.9449 17.5635 19.0494 17.5622 19.1509 17.5604C19.1079 17.4815 19.0532 17.4068 18.9865 17.3356C18.9056 17.3335 18.835 17.3276 18.7759 17.3177L18.7457 17.4992L17.8247 16.8431C18.1772 16.7215 18.5195 16.594 18.8516 16.4607C20.2158 16.446 21.0334 16.3729 21.1547 16.2829L21.3652 16.1268L21.6191 16.192C21.8636 16.2547 22.0888 16.3069 22.2938 16.3489L22.4682 16.6419C22.6046 16.5771 22.7388 16.5122 22.8706 16.4474C22.8379 16.4432 22.8044 16.4386 22.77 16.4335L27.8256 12.7452L27.4026 12.3526C27.9378 12.077 28.2866 11.7154 28.4315 11.2498L28.5555 10.8511L28.0106 11.2487L27.9063 11.0864L27.3811 10.923C27.3326 11.079 27.1744 11.2351 26.8941 11.3785C27.1752 11.1278 27.409 10.8795 27.5952 10.6325L26.8012 11.1428L27.8459 10.1682L27.194 9.71629C27.2508 9.58799 27.2981 9.46141 27.336 9.33645L27.4194 9.06169L27.0513 9.40511L26.5038 9.12847L26.757 8.61484L26.2819 8.96445L25.1566 10.4719L24.7736 10.1511C23.7459 12.2365 21.8962 13.8923 19.206 15.1139L18.2323 14.8881L17.9541 15.0928L17.9825 14.8448C16.1483 14.8448 14.7962 13.4847 13.9111 10.6088L13.4977 10.7434L13.8907 11.999L13.4981 12.1482L13.4736 12.087L13.8672 11.9374C13.6655 11.4895 13.51 11.1005 13.4003 10.7752L13.0017 10.905L13.4736 12.087L13.4399 12.0998L13.4651 12.0872C13.1726 11.6099 12.9876 11.2211 12.9045 10.9367L12.8653 10.9494C13.0097 11.3693 13.1711 11.7643 13.3494 12.1342L13.2977 12.1539L13.3037 12.1681L13.0631 12.2888L13.0734 12.3097ZM13.3232 12.2147L13.0734 12.3097L13.1046 12.3725L13.0941 12.3777L13.1318 12.4358L12.7652 12.6456L12.6996 12.5756L12.5908 12.6302C12.6186 12.6484 12.6508 12.6685 12.6876 12.69L12.3036 12.9097L12.0555 12.733L12.1787 12.9812L12.3036 12.9097L12.3615 12.951L12.2108 13.0372C12.1298 12.9132 12.0541 12.7948 11.9836 12.6818L11.8234 12.5677L11.4833 12.8864L12.1889 13.6392L12.5902 13.2631L12.646 13.1537L14.4386 14.4308L15.1015 15.1379C14.1991 14.6636 13.4245 14.0404 12.7743 13.2666L12.3301 13.7478L12.3401 13.7529L15.1457 15.1851L15.1015 15.1379C15.3708 15.2795 15.6514 15.4078 15.9436 15.5229L15.4591 16.4157L15.3251 16.4129L15.4229 16.4825L15.4591 16.4157L16.1369 16.4301L15.826 16.6589L16.9855 17.1157L17.0262 17.1032C17.2979 17.0197 17.5641 16.933 17.8247 16.8431L17.625 16.7008L17.9494 16.462C18.2721 16.4643 18.5732 16.4637 18.8516 16.4607C19.2581 16.2975 19.6492 16.1256 20.0251 15.9448H22.0533L22.2938 16.3489C22.3399 16.3583 22.385 16.3673 22.4291 16.3757L22.5563 16.5894L22.77 16.4335C22.6643 16.4181 22.5506 16.3989 22.4291 16.3757L22.1726 15.9448H22.7898L22.0738 15.7788L21.9961 15.6483C24.1238 14.6375 25.6283 13.6448 26.5081 12.6912C26.8477 12.5967 27.1464 12.4845 27.4026 12.3526L27.2187 12.182L28.2036 11.5491L28.0106 11.2487L26.3504 12.4599L26.1428 11.9752C26.4226 11.7744 26.673 11.5757 26.8941 11.3785C26.7371 11.4588 26.5417 11.535 26.3057 11.605L26.8012 11.1428L25.2962 12.1099C26.2344 11.2441 26.8687 10.4519 27.194 9.71629L27.1277 9.67028L27.2505 9.50577L27.0513 9.40511L25.7857 10.5858L26.5038 9.12847L26.2834 9.01708C26.1489 9.46053 25.8147 9.98269 25.2779 10.5734L25.1566 10.4719L24.4784 11.3805L24.6475 11.5329L19.6435 15.2153L19.206 15.1139C18.7877 15.3038 18.3491 15.4832 17.8901 15.6522L17.9541 15.0928L17.1123 15.7123C15.4981 15.1351 14.2556 13.9647 13.3947 12.227L13.507 12.1706L13.4981 12.1482L13.3784 12.1937L13.3537 12.143L13.4399 12.0998L13.3494 12.1342L13.3537 12.143L13.3037 12.1681L13.3232 12.2147ZM13.3401 12.2543L13.1046 12.3725L13.1639 12.4918L12.8106 12.694L12.7652 12.6456L12.6876 12.69C12.7079 12.7019 12.7297 12.7142 12.7529 12.727L12.3615 12.951L12.646 13.1537L12.8403 12.7732C12.809 12.7573 12.78 12.7419 12.7529 12.727L12.8106 12.694L14.4386 14.4308L16.682 16.029L16.1369 16.4301L16.9018 16.4464L17.1907 17.0204L17.625 16.7008L17.2783 16.4538C17.5113 16.4579 17.7351 16.4606 17.9494 16.462L18.6523 15.9448H20.0251C20.3203 15.8028 20.606 15.6554 20.8823 15.5025L21.9353 15.7467L22.0533 15.9448H22.1726L22.0738 15.7788L21.9353 15.7467L21.908 15.7008L25.7883 12.8699L26.2769 12.7513C26.3559 12.7321 26.433 12.7121 26.5081 12.6912C26.5463 12.6498 26.5833 12.6086 26.6191 12.5673L27.2187 12.182L27.0342 12.0108C26.9201 12.1947 26.7817 12.3802 26.6191 12.5673L26.4445 12.6796L26.3504 12.4599L25.7883 12.8699L23.7961 13.3535C24.0191 13.1316 24.2301 12.9029 24.429 12.6672L25.0666 12.2574L25.2841 12.5431C25.5958 12.3516 25.882 12.1625 26.1428 11.9752L26.076 11.8193L26.3057 11.605C26.2156 11.6318 26.1195 11.6576 26.0174 11.6824L26.076 11.8193L25.3714 12.4766L25.1592 12.1979L25.2912 12.1131L25.292 12.1138L25.2962 12.1099L25.2912 12.1131L25.0315 11.879C25.0508 11.8509 25.07 11.8227 25.0891 11.7944L25.3599 12.0385L27.1277 9.67028L26.9625 9.55575C26.7837 9.98791 26.3118 10.4929 25.5447 11.0501C25.6197 10.9143 25.6916 10.7767 25.7603 10.6374L25.7857 10.5858L25.5525 10.8034L25.2779 10.5734C25.0657 10.8068 24.8219 11.051 24.5463 11.3052L24.7309 11.4716L24.6475 11.5329L24.7101 11.5893L24.6211 11.6723L24.9098 12.0515C24.7583 12.2617 24.598 12.467 24.429 12.6672L23.0971 13.5231L23.7961 13.3535C22.9842 14.1611 22.0124 14.8773 20.8823 15.5025L19.6435 15.2153L18.6523 15.9448H17.9825C17.7226 15.9448 17.4707 15.9246 17.2268 15.8843C17.2944 15.8618 17.3616 15.8391 17.4283 15.8162C17.569 15.8586 17.7123 15.8967 17.8583 15.9306L17.8901 15.6522C17.7384 15.708 17.5845 15.7627 17.4283 15.8162C17.3215 15.784 17.2161 15.7494 17.1123 15.7123L16.9527 15.8297C15.4036 15.4681 14.1976 14.258 13.3401 12.2543ZM13.3401 12.2543L13.3947 12.227L13.3784 12.1937L13.3232 12.2147L13.3401 12.2543ZM16.7106 16.0494L16.682 16.029L16.9527 15.8297C17.043 15.8508 17.1343 15.869 17.2268 15.8843C17.0573 15.9406 16.8853 15.9957 16.7106 16.0494ZM24.9765 11.9579C24.9949 11.9317 25.0133 11.9054 25.0315 11.879L24.7203 11.5985C24.7505 11.5799 24.7804 11.5614 24.81 11.5429L25.0891 11.7944C25.2521 11.5527 25.404 11.3045 25.5447 11.0501C25.3242 11.2102 25.0793 11.3746 24.81 11.5429L24.7845 11.5198L25.2296 11.1045L25.5929 10.8372L25.5525 10.8034L25.2296 11.1045L24.7309 11.4716L24.7845 11.5198L24.7101 11.5893L24.7203 11.5985L24.7084 11.6058L24.9765 11.9579ZM24.9765 11.9579L25.1592 12.1979L25.0666 12.2574L24.9098 12.0515C24.9322 12.0204 24.9544 11.9892 24.9765 11.9579ZM16.7106 16.0494L17.2783 16.4538C17.1878 16.4522 17.0958 16.4505 17.0025 16.4485L16.9018 16.4464L16.7032 16.0517L16.7106 16.0494ZM18.7457 17.4992L18.7347 17.5652L18.8373 17.5644L18.7457 17.4992ZM21.81 17.1664L21.6498 16.9504C21.5694 16.968 21.4899 16.985 21.4113 17.0014L21.3456 17.2574C21.4099 17.2739 21.473 17.2898 21.5351 17.305C21.6491 17.2642 21.7403 17.2182 21.81 17.1664Z" fill="#FFE402"/>
</g>
</g>
</svg>
