<svg width="16" height="12" viewBox="0 0 16 12" fill="none" xmlns="http://www.w3.org/2000/svg">
<mask id="mask0" mask-type="alpha" maskUnits="userSpaceOnUse" x="0" y="0" width="16" height="12">
<rect width="16" height="12" fill="white"/>
</mask>
<g mask="url(#mask0)">
<path fill-rule="evenodd" clip-rule="evenodd" d="M0 0V12H16V0H0Z" fill="#19724D"/>
<mask id="mask1" mask-type="alpha" maskUnits="userSpaceOnUse" x="0" y="0" width="16" height="12">
<path fill-rule="evenodd" clip-rule="evenodd" d="M0 0V12H16V0H0Z" fill="white"/>
</mask>
<g mask="url(#mask1)">
<path d="M7.78771 7.50895L6.93081 9.85449L7.40435 7.40263L5.96958 9.44646L7.06157 7.20071L5.1467 8.80356L6.78272 6.91696L4.51825 7.96959L6.58682 6.5707L4.12707 7.00138L6.48721 6.18554L3.99981 5.96491L6.49068 5.78772L4.14514 4.93082L6.597 5.40436L4.55316 3.96959L6.79891 5.06157L5.19607 3.14671L7.08267 4.78273L6.03004 2.51826L7.42892 4.58683L6.99825 2.12708L7.81409 4.48722L8.03472 1.99982L8.2119 4.49069L9.0688 2.14515L8.59527 4.597L10.03 2.55317L8.93805 4.79892L10.8529 3.19607L9.2169 5.08267L11.4814 4.03005L9.4128 5.42893L11.8725 4.99826L9.51241 5.81409L11.9998 6.03472L9.50894 6.21191L11.8545 7.06881L9.40262 6.59528L11.4465 8.03005L9.20071 6.93806L10.8036 8.85293L8.91695 7.21691L9.96958 9.48137L8.57069 7.41281L9.00137 9.87255L8.18553 7.51242L7.9649 9.99982L7.78771 7.50895Z" fill="#F7FCFF"/>
<mask id="path-6-outside-1" maskUnits="userSpaceOnUse" x="4.5" y="2" width="7" height="8" fill="black">
<rect fill="white" x="4.5" y="2" width="7" height="8"/>
<path fill-rule="evenodd" clip-rule="evenodd" d="M8.34844 8.9213L8.19172 9L8.08244 8.83384V8.748L8 8.55057L7.86929 8.39129L7.81524 7.98909L7.65527 7.69344L7.63648 7.66058L7.61464 7.58403V7.47798L7.65527 7.32789L7.72624 7.15092V6.99399V6.79737L7.65527 6.5574L7.46271 6.35914L7.36965 6.20691L7.46271 6.02524L7.53248 5.86551L7.36965 5.75412H7.18501L6.99767 5.56177L6.73972 5.65713L6.41584 5.75412H6.23117H6.01874L5.84273 5.56177L5.74881 5.33488L5.57083 5.10006L5.5 4.98117L5.57083 4.81307V4.55826V4.32579L5.68226 4.20176L5.84273 3.88056L6.01874 3.71169L6.16877 3.56587L6.23117 3.41633L6.41584 3.18648L6.58276 3.08544V3.18648H6.73972L7.53248 3V3.29722L7.86929 3.49569L8.19172 3.56587V3.41633L8.7479 3.56587L9.14447 3.49569V3.79451L9.34586 4.20176L9.51362 4.55826L9.60648 4.73173L9.75213 4.8937L9.98612 5.10006V5.19837H10.2165L10.5 5.10006V5.33488L10.3489 5.75412L10.054 6.02524L9.67808 6.5574V6.79737L9.75213 7.15092L9.67808 7.47798L9.26745 7.74827V7.91325V8.25427H9.06614V8.49687L8.61721 8.9213H8.34844ZM9.83457 8.14286L9.72683 8.10096L9.69005 8.04182L9.66667 7.88999L9.84974 7.75766L9.81185 7.61087L9.87214 7.53358L9.97672 7.51209L10.2108 7.46697L10.3886 7.28571L10.5 7.3151L10.4847 7.51209L10.0259 8.10096L9.83457 8.14286Z"/>
</mask>
<path fill-rule="evenodd" clip-rule="evenodd" d="M8.34844 8.9213L8.19172 9L8.08244 8.83384V8.748L8 8.55057L7.86929 8.39129L7.81524 7.98909L7.65527 7.69344L7.63648 7.66058L7.61464 7.58403V7.47798L7.65527 7.32789L7.72624 7.15092V6.99399V6.79737L7.65527 6.5574L7.46271 6.35914L7.36965 6.20691L7.46271 6.02524L7.53248 5.86551L7.36965 5.75412H7.18501L6.99767 5.56177L6.73972 5.65713L6.41584 5.75412H6.23117H6.01874L5.84273 5.56177L5.74881 5.33488L5.57083 5.10006L5.5 4.98117L5.57083 4.81307V4.55826V4.32579L5.68226 4.20176L5.84273 3.88056L6.01874 3.71169L6.16877 3.56587L6.23117 3.41633L6.41584 3.18648L6.58276 3.08544V3.18648H6.73972L7.53248 3V3.29722L7.86929 3.49569L8.19172 3.56587V3.41633L8.7479 3.56587L9.14447 3.49569V3.79451L9.34586 4.20176L9.51362 4.55826L9.60648 4.73173L9.75213 4.8937L9.98612 5.10006V5.19837H10.2165L10.5 5.10006V5.33488L10.3489 5.75412L10.054 6.02524L9.67808 6.5574V6.79737L9.75213 7.15092L9.67808 7.47798L9.26745 7.74827V7.91325V8.25427H9.06614V8.49687L8.61721 8.9213H8.34844ZM9.83457 8.14286L9.72683 8.10096L9.69005 8.04182L9.66667 7.88999L9.84974 7.75766L9.81185 7.61087L9.87214 7.53358L9.97672 7.51209L10.2108 7.46697L10.3886 7.28571L10.5 7.3151L10.4847 7.51209L10.0259 8.10096L9.83457 8.14286Z" fill="#19724D"/>
<path d="M8.19172 9L8.02462 9.1099L8.12242 9.2586L8.28147 9.17873L8.19172 9ZM8.34844 8.9213V8.7213H8.30105L8.25869 8.74257L8.34844 8.9213ZM8.08244 8.83384H7.88244V8.89372L7.91534 8.94374L8.08244 8.83384ZM8.08244 8.748H8.28244V8.70793L8.26699 8.67094L8.08244 8.748ZM8 8.55057L8.18456 8.47351L8.17324 8.44641L8.15461 8.4237L8 8.55057ZM7.86929 8.39129L7.67107 8.41793L7.67864 8.47424L7.71469 8.51816L7.86929 8.39129ZM7.81524 7.98909L8.01345 7.96245L8.00857 7.92614L7.99114 7.89391L7.81524 7.98909ZM7.65527 7.69344L7.83122 7.59824L7.82888 7.59415L7.65527 7.69344ZM7.63648 7.66058L7.44416 7.71546L7.45082 7.7388L7.46287 7.75987L7.63648 7.66058ZM7.61464 7.58403H7.41464V7.612L7.42231 7.6389L7.61464 7.58403ZM7.61464 7.47798L7.42159 7.42572L7.41464 7.45139V7.47798H7.61464ZM7.65527 7.32789L7.46964 7.25344L7.46528 7.26432L7.46222 7.27563L7.65527 7.32789ZM7.72624 7.15092L7.91187 7.22536L7.92624 7.18953V7.15092H7.72624ZM7.72624 6.79737H7.92624V6.76841L7.91803 6.74065L7.72624 6.79737ZM7.65527 6.5574L7.84706 6.50068L7.83308 6.45341L7.79874 6.41805L7.65527 6.5574ZM7.46271 6.35914L7.29207 6.46345L7.3037 6.48248L7.31924 6.49848L7.46271 6.35914ZM7.36965 6.20691L7.19165 6.11573L7.14052 6.21554L7.19901 6.31123L7.36965 6.20691ZM7.46271 6.02524L7.64105 6.11659L7.64599 6.10529L7.46271 6.02524ZM7.53248 5.86551L7.71576 5.94557L7.78201 5.7939L7.6454 5.70044L7.53248 5.86551ZM7.36965 5.75412L7.48258 5.58905L7.43152 5.55412H7.36965V5.75412ZM7.18501 5.75412L7.04173 5.89366L7.10061 5.95412H7.18501V5.75412ZM6.99767 5.56177L7.14094 5.42223L7.05025 5.32911L6.92832 5.37418L6.99767 5.56177ZM6.73972 5.65713L6.79721 5.8491L6.80906 5.84472L6.73972 5.65713ZM6.41584 5.75412V5.95412H6.44515L6.47322 5.94571L6.41584 5.75412ZM6.01874 5.75412L5.87119 5.88914L5.93066 5.95412H6.01874V5.75412ZM5.84273 5.56177L5.65794 5.63827L5.67141 5.67081L5.69518 5.69679L5.84273 5.56177ZM5.74881 5.33488L5.9336 5.25839L5.92375 5.2346L5.9082 5.21408L5.74881 5.33488ZM5.57083 5.10006L5.39901 5.20242L5.40471 5.21199L5.41144 5.22087L5.57083 5.10006ZM5.5 4.98117L5.31569 4.90351L5.27644 4.99668L5.32818 5.08353L5.5 4.98117ZM5.57083 4.81307L5.75514 4.89073L5.77083 4.85348V4.81307H5.57083ZM5.57083 4.32579L5.42205 4.19213L5.37083 4.24915V4.32579H5.57083ZM5.68226 4.20176L5.83104 4.33542L5.8491 4.31532L5.86118 4.29114L5.68226 4.20176ZM5.84273 3.88056L5.70427 3.73624L5.67929 3.7602L5.66382 3.79117L5.84273 3.88056ZM6.01874 3.71169L6.15721 3.85601L6.15814 3.85511L6.01874 3.71169ZM6.16877 3.56587L6.30816 3.70929L6.33756 3.68072L6.35334 3.64289L6.16877 3.56587ZM6.23117 3.41633L6.07526 3.29106L6.05752 3.31315L6.0466 3.3393L6.23117 3.41633ZM6.41584 3.18648L6.31227 3.01539L6.28206 3.03368L6.25993 3.06121L6.41584 3.18648ZM6.58276 3.08544H6.78276V2.73057L6.47919 2.91434L6.58276 3.08544ZM6.58276 3.18648H6.38276V3.38648H6.58276V3.18648ZM6.73972 3.18648V3.38648H6.76292L6.78551 3.38117L6.73972 3.18648ZM7.53248 3H7.73248V2.7475L7.48668 2.80531L7.53248 3ZM7.53248 3.29722H7.33248V3.4115L7.43094 3.46952L7.53248 3.29722ZM7.86929 3.49569L7.76775 3.668L7.7954 3.6843L7.82676 3.69112L7.86929 3.49569ZM8.19172 3.56587L8.14919 3.76129L8.39172 3.81408V3.56587H8.19172ZM8.19172 3.41633L8.24365 3.22318L7.99172 3.15545V3.41633H8.19172ZM8.7479 3.56587L8.69596 3.75901L8.73893 3.77056L8.78274 3.76281L8.7479 3.56587ZM9.14447 3.49569H9.34447V3.2572L9.10962 3.29875L9.14447 3.49569ZM9.14447 3.79451H8.94447V3.84126L8.96519 3.88316L9.14447 3.79451ZM9.34586 4.20176L9.52686 4.11659L9.52514 4.1131L9.34586 4.20176ZM9.51362 4.55826L9.33241 4.64353L9.33729 4.65266L9.51362 4.55826ZM9.60648 4.73173L9.43016 4.82612L9.44158 4.84746L9.45777 4.86546L9.60648 4.73173ZM9.75213 4.8937L9.60341 5.02743L9.61116 5.03604L9.61984 5.0437L9.75213 4.8937ZM9.98612 5.10006H10.1861V5.00978L10.1184 4.95006L9.98612 5.10006ZM9.98612 5.19837H9.78612V5.39837H9.98612V5.19837ZM10.2165 5.19837V5.39837H10.2501L10.282 5.38733L10.2165 5.19837ZM10.5 5.10006H10.7V4.81904L10.4345 4.91109L10.5 5.10006ZM10.5 5.33488L10.6882 5.40269L10.7 5.36982V5.33488H10.5ZM10.3489 5.75412L10.4843 5.90136L10.5204 5.86812L10.5371 5.82193L10.3489 5.75412ZM10.054 6.02524L9.91865 5.878L9.90296 5.89243L9.89066 5.90984L10.054 6.02524ZM9.67808 6.5574L9.51473 6.442L9.47808 6.49388V6.5574H9.67808ZM9.67808 6.79737H9.47808V6.81809L9.48233 6.83837L9.67808 6.79737ZM9.75213 7.15092L9.94719 7.19508L9.95682 7.15258L9.94788 7.10992L9.75213 7.15092ZM9.67808 7.47798L9.78805 7.64503L9.85535 7.60073L9.87315 7.52214L9.67808 7.47798ZM9.26745 7.74827L9.15749 7.58122L9.06745 7.64048V7.74827H9.26745ZM9.26745 8.25427V8.45427H9.46745V8.25427H9.26745ZM9.06614 8.25427V8.05427H8.86614V8.25427H9.06614ZM9.06614 8.49687L9.20354 8.6422L9.26614 8.58301V8.49687H9.06614ZM8.61721 8.9213V9.1213H8.69679L8.75461 9.06663L8.61721 8.9213ZM9.72683 8.10096L9.55698 8.20656L9.59219 8.2632L9.65435 8.28737L9.72683 8.10096ZM9.83457 8.14286L9.76209 8.32926L9.81836 8.35114L9.87734 8.33823L9.83457 8.14286ZM9.69005 8.04182L9.49239 8.07227L9.49861 8.11269L9.52021 8.14742L9.69005 8.04182ZM9.66667 7.88999L9.5495 7.7279L9.45038 7.79955L9.469 7.92043L9.66667 7.88999ZM9.84974 7.75766L9.9669 7.91975L10.0775 7.8398L10.0434 7.70767L9.84974 7.75766ZM9.81185 7.61087L9.65416 7.48785L9.59358 7.5655L9.6182 7.66085L9.81185 7.61087ZM9.87214 7.53358L9.83188 7.33768L9.75975 7.3525L9.71445 7.41056L9.87214 7.53358ZM9.97672 7.51209L9.93886 7.31569L9.93645 7.31618L9.97672 7.51209ZM10.2108 7.46697L10.2486 7.66336L10.3099 7.65156L10.3536 7.60703L10.2108 7.46697ZM10.3886 7.28571L10.4396 7.09233L10.3272 7.06268L10.2458 7.14566L10.3886 7.28571ZM10.5 7.3151L10.6994 7.33056L10.7123 7.16427L10.551 7.12172L10.5 7.3151ZM10.4847 7.51209L10.6425 7.63501L10.6795 7.58754L10.6841 7.52754L10.4847 7.51209ZM10.0259 8.10096L10.0687 8.29634L10.1393 8.28088L10.1837 8.22388L10.0259 8.10096ZM8.28147 9.17873L8.43819 9.10003L8.25869 8.74257L8.10197 8.82127L8.28147 9.17873ZM7.91534 8.94374L8.02462 9.1099L8.35882 8.8901L8.24954 8.72394L7.91534 8.94374ZM7.88244 8.748V8.83384H8.28244V8.748H7.88244ZM7.81544 8.62763L7.89788 8.82507L8.26699 8.67094L8.18456 8.47351L7.81544 8.62763ZM7.71469 8.51816L7.84539 8.67744L8.15461 8.4237L8.0239 8.26442L7.71469 8.51816ZM7.61702 8.01573L7.67107 8.41793L8.06751 8.36465L8.01345 7.96245L7.61702 8.01573ZM7.47937 7.78861L7.63933 8.08426L7.99114 7.89391L7.83117 7.59826L7.47937 7.78861ZM7.46287 7.75987L7.48166 7.79273L7.82888 7.59415L7.81009 7.5613L7.46287 7.75987ZM7.42231 7.6389L7.44416 7.71546L7.82881 7.60571L7.80697 7.52916L7.42231 7.6389ZM7.41464 7.47798V7.58403H7.81464V7.47798H7.41464ZM7.46222 7.27563L7.42159 7.42572L7.80769 7.53024L7.84832 7.38015L7.46222 7.27563ZM7.54061 7.07647L7.46964 7.25344L7.8409 7.40233L7.91187 7.22536L7.54061 7.07647ZM7.52624 6.99399V7.15092H7.92624V6.99399H7.52624ZM7.52624 6.79737V6.99399H7.92624V6.79737H7.52624ZM7.46348 6.61412L7.53445 6.85409L7.91803 6.74065L7.84706 6.50068L7.46348 6.61412ZM7.31924 6.49848L7.5118 6.69674L7.79874 6.41805L7.60618 6.21979L7.31924 6.49848ZM7.19901 6.31123L7.29207 6.46345L7.63335 6.25482L7.54029 6.1026L7.19901 6.31123ZM7.2847 5.93406L7.19165 6.11573L7.54766 6.29809L7.64072 6.11642L7.2847 5.93406ZM7.3492 5.78546L7.27943 5.94518L7.64599 6.10529L7.71576 5.94557L7.3492 5.78546ZM7.25673 5.91919L7.41955 6.03058L7.6454 5.70044L7.48258 5.58905L7.25673 5.91919ZM7.18501 5.95412H7.36965V5.55412H7.18501V5.95412ZM6.85439 5.70132L7.04173 5.89366L7.32828 5.61458L7.14094 5.42223L6.85439 5.70132ZM6.80906 5.84472L7.06701 5.74937L6.92832 5.37418L6.67037 5.46953L6.80906 5.84472ZM6.47322 5.94571L6.79709 5.84872L6.68234 5.46553L6.35847 5.56253L6.47322 5.94571ZM6.23117 5.95412H6.41584V5.55412H6.23117V5.95412ZM6.01874 5.95412H6.23117V5.55412H6.01874V5.95412ZM5.69518 5.69679L5.87119 5.88914L6.16629 5.61911L5.99028 5.42676L5.69518 5.69679ZM5.56402 5.41138L5.65794 5.63827L6.02752 5.48528L5.9336 5.25839L5.56402 5.41138ZM5.41144 5.22087L5.58942 5.45569L5.9082 5.21408L5.73022 4.97925L5.41144 5.22087ZM5.32818 5.08353L5.39901 5.20242L5.74265 4.9977L5.67182 4.87881L5.32818 5.08353ZM5.38652 4.73541L5.31569 4.90351L5.68431 5.05883L5.75514 4.89073L5.38652 4.73541ZM5.37083 4.55826V4.81307H5.77083V4.55826H5.37083ZM5.37083 4.32579V4.55826H5.77083V4.32579H5.37083ZM5.53349 4.06809L5.42205 4.19213L5.7196 4.45946L5.83104 4.33542L5.53349 4.06809ZM5.66382 3.79117L5.50335 4.11237L5.86118 4.29114L6.02165 3.96994L5.66382 3.79117ZM5.88028 3.56737L5.70427 3.73624L5.98119 4.02488L6.1572 3.85601L5.88028 3.56737ZM6.02937 3.42245L5.87934 3.56827L6.15814 3.85511L6.30816 3.70929L6.02937 3.42245ZM6.0466 3.3393L5.98419 3.48884L6.35334 3.64289L6.41575 3.49335L6.0466 3.3393ZM6.25993 3.06121L6.07526 3.29106L6.38708 3.54159L6.57176 3.31175L6.25993 3.06121ZM6.47919 2.91434L6.31227 3.01539L6.51942 3.35757L6.68633 3.25653L6.47919 2.91434ZM6.78276 3.18648V3.08544H6.38276V3.18648H6.78276ZM6.73972 2.98648H6.58276V3.38648H6.73972V2.98648ZM7.48668 2.80531L6.69392 2.9918L6.78551 3.38117L7.57827 3.19469L7.48668 2.80531ZM7.73248 3.29722V3H7.33248V3.29722H7.73248ZM7.97083 3.32339L7.63402 3.12491L7.43094 3.46952L7.76775 3.668L7.97083 3.32339ZM8.23425 3.37044L7.91183 3.30027L7.82676 3.69112L8.14919 3.76129L8.23425 3.37044ZM7.99172 3.41633V3.56587H8.39172V3.41633H7.99172ZM8.79983 3.37273L8.24365 3.22318L8.13979 3.60947L8.69596 3.75901L8.79983 3.37273ZM9.10962 3.29875L8.71305 3.36893L8.78274 3.76281L9.17932 3.69264L9.10962 3.29875ZM9.34447 3.79451V3.49569H8.94447V3.79451H9.34447ZM9.52514 4.1131L9.32375 3.70585L8.96519 3.88316L9.16658 4.29041L9.52514 4.1131ZM9.69458 4.47311L9.52683 4.1166L9.16489 4.28691L9.33265 4.64342L9.69458 4.47311ZM9.7828 4.63733L9.68994 4.46387L9.33729 4.65266L9.43016 4.82612L9.7828 4.63733ZM9.90084 4.75997L9.7552 4.598L9.45777 4.86546L9.60341 5.02743L9.90084 4.75997ZM10.1184 4.95006L9.88442 4.7437L9.61984 5.0437L9.85383 5.25006L10.1184 4.95006ZM10.1861 5.19837V5.10006H9.78612V5.19837H10.1861ZM10.2165 4.99837H9.98612V5.39837H10.2165V4.99837ZM10.4345 4.91109L10.1509 5.0094L10.282 5.38733L10.5655 5.28902L10.4345 4.91109ZM10.7 5.33488V5.10006H10.3V5.33488H10.7ZM10.5371 5.82193L10.6882 5.40269L10.3118 5.26708L10.1608 5.68631L10.5371 5.82193ZM10.1894 6.17247L10.4843 5.90136L10.2136 5.60689L9.91865 5.878L10.1894 6.17247ZM9.84144 6.67279L10.2174 6.14063L9.89066 5.90984L9.51473 6.442L9.84144 6.67279ZM9.87808 6.79737V6.5574H9.47808V6.79737H9.87808ZM9.94788 7.10992L9.87384 6.75637L9.48233 6.83837L9.55638 7.19192L9.94788 7.10992ZM9.87315 7.52214L9.94719 7.19508L9.55707 7.10676L9.48302 7.43382L9.87315 7.52214ZM9.37742 7.91533L9.78805 7.64503L9.56812 7.31092L9.15749 7.58122L9.37742 7.91533ZM9.46745 7.91325V7.74827H9.06745V7.91325H9.46745ZM9.46745 8.25427V7.91325H9.06745V8.25427H9.46745ZM9.06614 8.45427H9.26745V8.05427H9.06614V8.45427ZM9.26614 8.49687V8.25427H8.86614V8.49687H9.26614ZM8.75461 9.06663L9.20354 8.6422L8.92873 8.35154L8.47981 8.77597L8.75461 9.06663ZM8.34844 9.1213H8.61721V8.7213H8.34844V9.1213ZM9.65435 8.28737L9.76209 8.32926L9.90705 7.95645L9.7993 7.91456L9.65435 8.28737ZM9.52021 8.14742L9.55698 8.20656L9.89667 7.99536L9.8599 7.93622L9.52021 8.14742ZM9.469 7.92043L9.49239 8.07227L9.88772 8.01137L9.86434 7.85954L9.469 7.92043ZM9.73258 7.59557L9.5495 7.7279L9.78383 8.05208L9.9669 7.91975L9.73258 7.59557ZM9.6182 7.66085L9.65609 7.80764L10.0434 7.70767L10.0055 7.56088L9.6182 7.66085ZM9.71445 7.41056L9.65416 7.48785L9.96954 7.73389L10.0298 7.6566L9.71445 7.41056ZM9.93645 7.31618L9.83188 7.33768L9.91241 7.72949L10.017 7.70799L9.93645 7.31618ZM10.1729 7.27059L9.93886 7.3157L10.0146 7.70848L10.2486 7.66336L10.1729 7.27059ZM10.2458 7.14566L10.068 7.32692L10.3536 7.60703L10.5314 7.42577L10.2458 7.14566ZM10.551 7.12172L10.4396 7.09233L10.3376 7.4791L10.449 7.50849L10.551 7.12172ZM10.6841 7.52754L10.6994 7.33056L10.3006 7.29965L10.2853 7.49664L10.6841 7.52754ZM10.1837 8.22388L10.6425 7.63501L10.327 7.38917L9.86817 7.97805L10.1837 8.22388ZM9.87734 8.33823L10.0687 8.29634L9.98317 7.90559L9.7918 7.94748L9.87734 8.33823Z" fill="#F7FCFF" mask="url(#path-6-outside-1)"/>
<path fill-rule="evenodd" clip-rule="evenodd" d="M8 1.75L7.70611 1.90451L7.76224 1.57725L7.52447 1.34549L7.85305 1.29775L8 1L8.14695 1.29775L8.47553 1.34549L8.23776 1.57725L8.29389 1.90451L8 1.75Z" fill="#FECA00"/>
<path fill-rule="evenodd" clip-rule="evenodd" d="M9.09998 1.89481L8.77611 1.96799L8.91503 1.66641L8.74535 1.38101L9.0751 1.41993L9.2941 1.17036L9.35897 1.496L9.664 1.62716L9.37436 1.78949L9.34387 2.12012L9.09998 1.89481Z" fill="#FECA00"/>
<path fill-rule="evenodd" clip-rule="evenodd" d="M10.125 2.31938L9.79323 2.30624L10.0055 2.0509L9.91543 1.7313L10.2239 1.85424L10.5 1.66986L10.4784 2.00119L10.7391 2.20683L10.4173 2.28866L10.3023 2.60013L10.125 2.31938Z" fill="#FECA00"/>
<path fill-rule="evenodd" clip-rule="evenodd" d="M11.0052 2.99478L10.6881 2.89622L10.9592 2.70451L10.955 2.3725L11.2211 2.57109L11.5355 2.46445L11.4289 2.7789L11.6275 3.045L11.2955 3.04076L11.1038 3.31185L11.0052 2.99478Z" fill="#FECA00"/>
<path fill-rule="evenodd" clip-rule="evenodd" d="M11.6806 3.87503L11.3999 3.69777L11.7113 3.58275L11.7932 3.26096L11.9988 3.52164L12.3301 3.50003L12.1457 3.77616L12.2687 4.08459L11.9491 3.99457L11.6937 4.2068L11.6806 3.87503Z" fill="#FECA00"/>
<path fill-rule="evenodd" clip-rule="evenodd" d="M12.1052 4.90004L11.8799 4.65615L12.2105 4.62567L12.3728 4.33602L12.504 4.64105L12.8296 4.70592L12.5801 4.92493L12.619 5.25467L12.3336 5.08499L12.032 5.22391L12.1052 4.90004Z" fill="#FECA00"/>
<path fill-rule="evenodd" clip-rule="evenodd" d="M12.25 6L12.0955 5.70611L12.4227 5.76224L12.6545 5.52447L12.7023 5.85305L13 6L12.7023 6.14695L12.6545 6.47553L12.4227 6.23776L12.0955 6.29389L12.25 6Z" fill="#FECA00"/>
<path fill-rule="evenodd" clip-rule="evenodd" d="M12.1052 7.10001L12.032 6.77614L12.3336 6.91505L12.619 6.74538L12.5801 7.07512L12.8296 7.29412L12.504 7.359L12.3728 7.66403L12.2105 7.37438L11.8799 7.34389L12.1052 7.10001Z" fill="#FECA00"/>
<path fill-rule="evenodd" clip-rule="evenodd" d="M11.6806 8.12503L11.6937 7.79326L11.9491 8.00549L12.2687 7.91546L12.1457 8.2239L12.3301 8.50003L11.9988 8.47842L11.7932 8.7391L11.7113 8.41731L11.3999 8.30229L11.6806 8.12503Z" fill="#FECA00"/>
<path fill-rule="evenodd" clip-rule="evenodd" d="M11.0052 9.00523L11.1038 8.68816L11.2955 8.95926L11.6275 8.95501L11.4289 9.22112L11.5355 9.53556L11.2211 9.42893L10.955 9.62751L10.9592 9.2955L10.6881 9.10379L11.0052 9.00523Z" fill="#FECA00"/>
<path fill-rule="evenodd" clip-rule="evenodd" d="M10.125 9.68062L10.3023 9.39987L10.4173 9.71134L10.7391 9.79317L10.4784 9.99881L10.5 10.3301L10.2239 10.1458L9.91544 10.2687L10.0055 9.9491L9.79323 9.69376L10.125 9.68062Z" fill="#FECA00"/>
<path fill-rule="evenodd" clip-rule="evenodd" d="M9.09998 10.1052L9.34387 9.87985L9.37435 10.2105L9.664 10.3728L9.35897 10.504L9.29409 10.8296L9.07509 10.58L8.74535 10.619L8.91503 10.3336L8.77611 10.032L9.09998 10.1052Z" fill="#FECA00"/>
<path fill-rule="evenodd" clip-rule="evenodd" d="M8 10.25L8.29389 10.0955L8.23776 10.4227L8.47553 10.6545L8.14695 10.7023L8 11L7.85305 10.7023L7.52447 10.6545L7.76224 10.4227L7.70611 10.0955L8 10.25Z" fill="#FECA00"/>
<path fill-rule="evenodd" clip-rule="evenodd" d="M6.90002 10.1052L7.22389 10.032L7.08497 10.3336L7.25465 10.619L6.9249 10.5801L6.7059 10.8296L6.64103 10.504L6.336 10.3728L6.62564 10.2105L6.65613 9.87988L6.90002 10.1052Z" fill="#FECA00"/>
<path fill-rule="evenodd" clip-rule="evenodd" d="M5.875 9.68062L6.20677 9.69376L5.99454 9.9491L6.08457 10.2687L5.77613 10.1458L5.5 10.3301L5.52161 9.99881L5.26093 9.79317L5.58272 9.71134L5.69774 9.39987L5.875 9.68062Z" fill="#FECA00"/>
<path fill-rule="evenodd" clip-rule="evenodd" d="M4.9948 9.00522L5.31186 9.10378L5.04077 9.29549L5.04502 9.6275L4.77891 9.42891L4.46447 9.53555L4.5711 9.2211L4.37252 8.955L4.70452 8.95924L4.89624 8.68815L4.9948 9.00522Z" fill="#FECA00"/>
<path fill-rule="evenodd" clip-rule="evenodd" d="M4.31939 8.12497L4.60015 8.30223L4.28867 8.41725L4.20684 8.73904L4.0012 8.47836L3.66987 8.49997L3.85425 8.22384L3.73131 7.91541L4.05091 8.00543L4.30625 7.7932L4.31939 8.12497Z" fill="#FECA00"/>
<path fill-rule="evenodd" clip-rule="evenodd" d="M3.89482 7.09996L4.12013 7.34385L3.78949 7.37433L3.62717 7.66398L3.49601 7.35895L3.17037 7.29408L3.41994 7.07507L3.38102 6.74533L3.66642 6.91501L3.968 6.77609L3.89482 7.09996Z" fill="#FECA00"/>
<path fill-rule="evenodd" clip-rule="evenodd" d="M3.75 6L3.90451 6.29389L3.57725 6.23776L3.34549 6.47553L3.29775 6.14695L3 6L3.29775 5.85305L3.34549 5.52447L3.57725 5.76224L3.90451 5.70611L3.75 6Z" fill="#FECA00"/>
<path fill-rule="evenodd" clip-rule="evenodd" d="M3.89482 4.89999L3.96799 5.22386L3.66642 5.08495L3.38102 5.25462L3.41994 4.92488L3.17037 4.70588L3.496 4.641L3.62717 4.33597L3.78949 4.62562L4.12012 4.65611L3.89482 4.89999Z" fill="#FECA00"/>
<path fill-rule="evenodd" clip-rule="evenodd" d="M4.31939 3.87497L4.30625 4.20674L4.05091 3.99451L3.73131 4.08454L3.85425 3.7761L3.66987 3.49997L4.0012 3.52158L4.20684 3.2609L4.28867 3.58269L4.60015 3.69771L4.31939 3.87497Z" fill="#FECA00"/>
<path fill-rule="evenodd" clip-rule="evenodd" d="M4.9948 2.99477L4.89624 3.31184L4.70452 3.04074L4.37252 3.04499L4.5711 2.77888L4.46447 2.46444L4.77891 2.57107L5.04501 2.37249L5.04077 2.7045L5.31186 2.89621L4.9948 2.99477Z" fill="#FECA00"/>
<path fill-rule="evenodd" clip-rule="evenodd" d="M5.875 2.31938L5.69773 2.60013L5.58272 2.28866L5.26092 2.20683L5.52161 2.00119L5.5 1.66986L5.77613 1.85424L6.08456 1.7313L5.99454 2.0509L6.20677 2.30624L5.875 2.31938Z" fill="#FECA00"/>
<path fill-rule="evenodd" clip-rule="evenodd" d="M6.90002 1.89484L6.65613 2.12015L6.62565 1.78952L6.336 1.62719L6.64103 1.49603L6.70591 1.1704L6.92491 1.41996L7.25465 1.38104L7.08497 1.66644L7.22389 1.96802L6.90002 1.89484Z" fill="#FECA00"/>
</g>
</g>
</svg>
