<svg width="20" height="15" viewBox="0 0 20 15" fill="none" xmlns="http://www.w3.org/2000/svg">
<mask id="mask0" mask-type="alpha" maskUnits="userSpaceOnUse" x="0" y="0" width="20" height="15">
<rect width="20" height="15" fill="white"/>
</mask>
<g mask="url(#mask0)">
<path fill-rule="evenodd" clip-rule="evenodd" d="M0 0V15H20V0H0Z" fill="#F7FCFF"/>
<mask id="mask1" mask-type="alpha" maskUnits="userSpaceOnUse" x="0" y="0" width="20" height="15">
<path fill-rule="evenodd" clip-rule="evenodd" d="M0 0V15H20V0H0Z" fill="white"/>
</mask>
<g mask="url(#mask1)">
<path fill-rule="evenodd" clip-rule="evenodd" d="M-0.94104 1.65716L-0.0115746 2.5428C0.755942 1.81727 1.48014 1.47498 2.16837 1.47498C2.50089 1.47498 2.64249 1.55529 3.02597 1.9178C3.63424 2.49279 4.04361 2.72498 4.81305 2.72498C5.58248 2.72498 5.99185 2.49279 6.60012 1.9178C6.9836 1.55529 7.12521 1.47498 7.45772 1.47498C7.79024 1.47498 7.93184 1.55529 8.31533 1.9178C8.9236 2.49279 9.33297 2.72498 10.1024 2.72498C10.8718 2.72498 11.2812 2.49279 11.8895 1.9178C12.273 1.55529 12.4146 1.47498 12.7471 1.47498C13.0796 1.47498 13.2212 1.55529 13.6047 1.9178C14.2129 2.49279 14.6223 2.72498 15.3918 2.72498C16.1612 2.72498 16.5706 2.49279 17.1788 1.9178C17.5623 1.55529 17.7039 1.47498 18.0364 1.47498C18.7247 1.47498 19.4489 1.81727 20.2164 2.5428L21.1458 1.65716C20.1502 0.716018 19.1113 0.224976 18.0364 0.224976C17.267 0.224976 16.8576 0.45716 16.2494 1.03216C15.8659 1.39466 15.7243 1.47498 15.3918 1.47498C15.0592 1.47498 14.9176 1.39466 14.5341 1.03216C13.9259 0.45716 13.5165 0.224976 12.7471 0.224976C11.9776 0.224976 11.5683 0.45716 10.96 1.03216C10.5765 1.39466 10.4349 1.47498 10.1024 1.47498C9.76988 1.47498 9.62827 1.39466 9.24479 1.03216C8.63652 0.45716 8.22715 0.224976 7.45772 0.224976C6.68829 0.224976 6.27892 0.45716 5.67065 1.03216C5.28717 1.39466 5.14556 1.47498 4.81305 1.47498C4.48053 1.47498 4.33892 1.39466 3.95544 1.03216C3.34717 0.45716 2.9378 0.224976 2.16837 0.224976C1.09348 0.224976 0.0545609 0.716018 -0.94104 1.65716ZM-0.0115746 5.0428L-0.94104 4.15716C0.0545609 3.21602 1.09348 2.72498 2.16837 2.72498C2.9378 2.72498 3.34717 2.95716 3.95544 3.53216C4.33892 3.89466 4.48053 3.97498 4.81305 3.97498C5.14556 3.97498 5.28717 3.89466 5.67065 3.53216C6.27892 2.95716 6.68829 2.72498 7.45772 2.72498C8.22715 2.72498 8.63652 2.95716 9.24479 3.53216C9.62827 3.89466 9.76988 3.97498 10.1024 3.97498C10.4349 3.97498 10.5765 3.89466 10.96 3.53216C11.5683 2.95716 11.9776 2.72498 12.7471 2.72498C13.5165 2.72498 13.9259 2.95716 14.5341 3.53216C14.9176 3.89466 15.0592 3.97498 15.3918 3.97498C15.7243 3.97498 15.8659 3.89466 16.2494 3.53216C16.8576 2.95716 17.267 2.72498 18.0364 2.72498C19.1113 2.72498 20.1502 3.21602 21.1458 4.15716L20.2164 5.0428C19.4489 4.31727 18.7247 3.97498 18.0364 3.97498C17.7039 3.97498 17.5623 4.05529 17.1788 4.4178C16.5706 4.99279 16.1612 5.22498 15.3918 5.22498C14.6223 5.22498 14.2129 4.99279 13.6047 4.4178C13.2212 4.05529 13.0796 3.97498 12.7471 3.97498C12.4146 3.97498 12.273 4.05529 11.8895 4.4178C11.2812 4.99279 10.8718 5.22498 10.1024 5.22498C9.33297 5.22498 8.9236 4.99279 8.31533 4.4178C7.93184 4.05529 7.79024 3.97498 7.45772 3.97498C7.12521 3.97498 6.9836 4.05529 6.60012 4.4178C5.99185 4.99279 5.58248 5.22498 4.81305 5.22498C4.04361 5.22498 3.63424 4.99279 3.02597 4.4178C2.64249 4.05529 2.50089 3.97498 2.16837 3.97498C1.48014 3.97498 0.755942 4.31727 -0.0115746 5.0428ZM-0.0115746 7.5428L-0.94104 6.65716C0.0545609 5.71602 1.09348 5.22498 2.16837 5.22498C2.9378 5.22498 3.34717 5.45716 3.95544 6.03216C4.33892 6.39466 4.48053 6.47498 4.81305 6.47498C5.14556 6.47498 5.28717 6.39466 5.67065 6.03216C6.27892 5.45716 6.68829 5.22498 7.45772 5.22498C8.22715 5.22498 8.63652 5.45716 9.24479 6.03216C9.62827 6.39466 9.76988 6.47498 10.1024 6.47498C10.4349 6.47498 10.5765 6.39466 10.96 6.03216C11.5683 5.45716 11.9776 5.22498 12.7471 5.22498C13.5165 5.22498 13.9259 5.45716 14.5341 6.03216C14.9176 6.39466 15.0592 6.47498 15.3918 6.47498C15.7243 6.47498 15.8659 6.39466 16.2494 6.03216C16.8576 5.45716 17.267 5.22498 18.0364 5.22498C19.1113 5.22498 20.1502 5.71602 21.1458 6.65716L20.2164 7.5428C19.4489 6.81727 18.7247 6.47498 18.0364 6.47498C17.7039 6.47498 17.5623 6.55529 17.1788 6.9178C16.5706 7.49279 16.1612 7.72498 15.3918 7.72498C14.6223 7.72498 14.2129 7.49279 13.6047 6.9178C13.2212 6.55529 13.0796 6.47498 12.7471 6.47498C12.4146 6.47498 12.273 6.55529 11.8895 6.9178C11.2812 7.49279 10.8718 7.72498 10.1024 7.72498C9.33297 7.72498 8.9236 7.49279 8.31533 6.9178C7.93184 6.55529 7.79024 6.47498 7.45772 6.47498C7.12521 6.47498 6.9836 6.55529 6.60012 6.9178C5.99185 7.49279 5.58248 7.72498 4.81305 7.72498C4.04361 7.72498 3.63424 7.49279 3.02597 6.9178C2.64249 6.55529 2.50089 6.47498 2.16837 6.47498C1.48014 6.47498 0.755942 6.81727 -0.0115746 7.5428ZM-0.0115746 10.0428L-0.94104 9.15716C0.0545609 8.21602 1.09348 7.72498 2.16837 7.72498C2.9378 7.72498 3.34717 7.95716 3.95544 8.53216C4.33892 8.89466 4.48053 8.97498 4.81305 8.97498C5.14556 8.97498 5.28717 8.89466 5.67065 8.53216C6.27892 7.95716 6.68829 7.72498 7.45772 7.72498C8.22715 7.72498 8.63652 7.95716 9.24479 8.53216C9.62827 8.89466 9.76988 8.97498 10.1024 8.97498C10.4349 8.97498 10.5765 8.89466 10.96 8.53216C11.5683 7.95716 11.9776 7.72498 12.7471 7.72498C13.5165 7.72498 13.9259 7.95716 14.5341 8.53216C14.9176 8.89466 15.0592 8.97498 15.3918 8.97498C15.7243 8.97498 15.8659 8.89466 16.2494 8.53216C16.8576 7.95716 17.267 7.72498 18.0364 7.72498C19.1113 7.72498 20.1502 8.21602 21.1458 9.15716L20.2164 10.0428C19.4489 9.31727 18.7247 8.97498 18.0364 8.97498C17.7039 8.97498 17.5623 9.05529 17.1788 9.4178C16.5706 9.99279 16.1612 10.225 15.3918 10.225C14.6223 10.225 14.2129 9.99279 13.6047 9.4178C13.2212 9.05529 13.0796 8.97498 12.7471 8.97498C12.4146 8.97498 12.273 9.05529 11.8895 9.4178C11.2812 9.99279 10.8718 10.225 10.1024 10.225C9.33297 10.225 8.9236 9.99279 8.31533 9.4178C7.93184 9.05529 7.79024 8.97498 7.45772 8.97498C7.12521 8.97498 6.9836 9.05529 6.60012 9.4178C5.99185 9.99279 5.58248 10.225 4.81305 10.225C4.04361 10.225 3.63424 9.99279 3.02597 9.4178C2.64249 9.05529 2.50089 8.97498 2.16837 8.97498C1.48014 8.97498 0.755942 9.31727 -0.0115746 10.0428ZM-0.0115746 12.5428L-0.94104 11.6572C0.0545609 10.716 1.09348 10.225 2.16837 10.225C2.9378 10.225 3.34717 10.4572 3.95544 11.0322C4.33892 11.3947 4.48053 11.475 4.81305 11.475C5.14556 11.475 5.28717 11.3947 5.67065 11.0322C6.27892 10.4572 6.68829 10.225 7.45772 10.225C8.22715 10.225 8.63652 10.4572 9.24479 11.0322C9.62827 11.3947 9.76988 11.475 10.1024 11.475C10.4349 11.475 10.5765 11.3947 10.96 11.0322C11.5683 10.4572 11.9776 10.225 12.7471 10.225C13.5165 10.225 13.9259 10.4572 14.5341 11.0322C14.9176 11.3947 15.0592 11.475 15.3918 11.475C15.7243 11.475 15.8659 11.3947 16.2494 11.0322C16.8576 10.4572 17.267 10.225 18.0364 10.225C19.1113 10.225 20.1502 10.716 21.1458 11.6572L20.2164 12.5428C19.4489 11.8173 18.7247 11.475 18.0364 11.475C17.7039 11.475 17.5623 11.5553 17.1788 11.9178C16.5706 12.4928 16.1612 12.725 15.3918 12.725C14.6223 12.725 14.2129 12.4928 13.6047 11.9178C13.2212 11.5553 13.0796 11.475 12.7471 11.475C12.4146 11.475 12.273 11.5553 11.8895 11.9178C11.2812 12.4928 10.8718 12.725 10.1024 12.725C9.33297 12.725 8.9236 12.4928 8.31533 11.9178C7.93184 11.5553 7.79024 11.475 7.45772 11.475C7.12521 11.475 6.9836 11.5553 6.60012 11.9178C5.99185 12.4928 5.58248 12.725 4.81305 12.725C4.04361 12.725 3.63424 12.4928 3.02597 11.9178C2.64249 11.5553 2.50089 11.475 2.16837 11.475C1.48014 11.475 0.755942 11.8173 -0.0115746 12.5428ZM-0.0115746 15.0428L-0.94104 14.1572C0.0545609 13.216 1.09348 12.725 2.16837 12.725C2.9378 12.725 3.34717 12.9572 3.95544 13.5322C4.33892 13.8947 4.48053 13.975 4.81305 13.975C5.14556 13.975 5.28717 13.8947 5.67065 13.5322C6.27892 12.9572 6.68829 12.725 7.45772 12.725C8.22715 12.725 8.63652 12.9572 9.24479 13.5322C9.62827 13.8947 9.76988 13.975 10.1024 13.975C10.4349 13.975 10.5765 13.8947 10.96 13.5322C11.5683 12.9572 11.9776 12.725 12.7471 12.725C13.5165 12.725 13.9259 12.9572 14.5341 13.5322C14.9176 13.8947 15.0592 13.975 15.3918 13.975C15.7243 13.975 15.8659 13.8947 16.2494 13.5322C16.8576 12.9572 17.267 12.725 18.0364 12.725C19.1113 12.725 20.1502 13.216 21.1458 14.1572L20.2164 15.0428C19.4489 14.3173 18.7247 13.975 18.0364 13.975C17.7039 13.975 17.5623 14.0553 17.1788 14.4178C16.5706 14.9928 16.1612 15.225 15.3918 15.225C14.6223 15.225 14.2129 14.9928 13.6047 14.4178C13.2212 14.0553 13.0796 13.975 12.7471 13.975C12.4146 13.975 12.273 14.0553 11.8895 14.4178C11.2812 14.9928 10.8718 15.225 10.1024 15.225C9.33297 15.225 8.9236 14.9928 8.31533 14.4178C7.93184 14.0553 7.79024 13.975 7.45772 13.975C7.12521 13.975 6.9836 14.0553 6.60012 14.4178C5.99185 14.9928 5.58248 15.225 4.81305 15.225C4.04361 15.225 3.63424 14.9928 3.02597 14.4178C2.64249 14.0553 2.50089 13.975 2.16837 13.975C1.48014 13.975 0.755942 14.3173 -0.0115746 15.0428Z" fill="#2E42A5"/>
<mask id="mask2" mask-type="alpha" maskUnits="userSpaceOnUse" x="0" y="0" width="9" height="7">
<path fill-rule="evenodd" clip-rule="evenodd" d="M0 0H9V7H0V0Z" fill="white"/>
</mask>
<g mask="url(#mask2)">
<rect width="10" height="8" fill="#2E42A5"/>
<path d="M-1.54858 7.08323L0.73658 8.04834L10.0442 0.910408L11.2496 -0.523776L8.80591 -0.846345L5.00956 2.22959L1.95388 4.30206L-1.54858 7.08323Z" fill="white"/>
<path d="M-1.23572 7.75939L-0.0715324 8.31946L10.8167 -0.65705H9.1821L-1.23572 7.75939Z" fill="#F50100"/>
<path d="M11.1486 7.08323L8.86346 8.04834L-0.444157 0.910408L-1.64953 -0.523776L0.794126 -0.846345L4.59048 2.22959L7.64615 4.30206L11.1486 7.08323Z" fill="white"/>
<path d="M11.0706 7.56859L9.90643 8.12866L5.27009 4.28535L3.89551 3.85595L-1.76554 -0.518791H-0.13089L5.52698 3.75211L7.02984 4.26701L11.0706 7.56859Z" fill="#F50100"/>
<mask id="path-12-outside-1" maskUnits="userSpaceOnUse" x="-1" y="-1" width="13" height="10" fill="black">
<rect fill="white" x="-1" y="-1" width="13" height="10"/>
<path fill-rule="evenodd" clip-rule="evenodd" d="M5 0H4V3H0V4H4V8H5V4H11V3H5V0Z"/>
</mask>
<path fill-rule="evenodd" clip-rule="evenodd" d="M5 0H4V3H0V4H4V8H5V4H11V3H5V0Z" fill="#F50100"/>
<path d="M4 0V-0.5H3.5V0H4ZM5 0H5.5V-0.5H5V0ZM4 3V3.5H4.5V3H4ZM0 3V2.5H-0.5V3H0ZM0 4H-0.5V4.5H0V4ZM4 4H4.5V3.5H4V4ZM4 8H3.5V8.5H4V8ZM5 8V8.5H5.5V8H5ZM5 4V3.5H4.5V4H5ZM11 4V4.5H11.5V4H11ZM11 3H11.5V2.5H11V3ZM5 3H4.5V3.5H5V3ZM4 0.5H5V-0.5H4V0.5ZM4.5 3V0H3.5V3H4.5ZM0 3.5H4V2.5H0V3.5ZM0.5 4V3H-0.5V4H0.5ZM4 3.5H0V4.5H4V3.5ZM4.5 8V4H3.5V8H4.5ZM5 7.5H4V8.5H5V7.5ZM4.5 4V8H5.5V4H4.5ZM11 3.5H5V4.5H11V3.5ZM10.5 3V4H11.5V3H10.5ZM5 3.5H11V2.5H5V3.5ZM4.5 0V3H5.5V0H4.5Z" fill="#F7FCFF" mask="url(#path-12-outside-1)"/>
</g>
<rect x="12.75" y="5.86157" width="0.625" height="7.88835" rx="0.3125" fill="#D86D00"/>
<path d="M12.7527 1.28589C13.3913 2.16165 13.4722 3.33765 13.3913 4.39124L12.8927 4.35514C12.9698 3.35007 12.7527 1.28589 12.7527 1.28589Z" fill="#449A01" stroke="white" stroke-width="0.15"/>
<path d="M13.5669 4.61501L13.107 4.42454C13.5503 3.02173 15.7622 1.82727 15.7622 1.82727C14.7714 2.30065 14.4346 3.58416 13.5669 4.61501Z" fill="#449A01" stroke="white" stroke-width="0.15"/>
<path d="M13.3603 4.90639L13.1187 4.48136C14.301 3.6593 16.2112 3.48193 16.2112 3.48193C15.2258 3.76156 14.2305 4.44019 13.3603 4.90639Z" fill="#449A01" stroke="white" stroke-width="0.15"/>
<path d="M13.0526 5.11318L13.2609 4.67188C15.5736 5.38978 15.9127 6.59019 15.9127 6.59019C15.6092 6.32232 14.6447 5.82156 13.0526 5.11318Z" fill="#449A01" stroke="white" stroke-width="0.15"/>
<path d="M12.8095 5.08105L13.3006 4.98975C13.4706 5.85155 13.9089 6.37374 14.1407 6.92694C14.1407 6.92694 12.8428 6.34723 12.8095 5.08105Z" fill="#449A01" stroke="white" stroke-width="0.15"/>
<path d="M12.7721 4.67688L13.3017 4.81004C12.4329 5.87212 11.1419 6.43004 10.6315 6.61242C10.6315 6.61242 11.7531 5.60077 12.7721 4.67688Z" fill="#449A01" stroke="white" stroke-width="0.15"/>
<path d="M13.0072 4.44698L12.9268 4.94047C11.8923 4.62496 10.0302 4.75715 10.0302 4.75715C10.8119 4.57203 11.8923 4.26534 13.0072 4.44698Z" fill="#449A01" stroke="white" stroke-width="0.15"/>
<path d="M13.0967 4.19442L12.8933 4.63787C11.3658 3.97746 10.5495 2.74304 10.5495 2.74304C10.6013 2.97011 11.7479 3.61126 13.0967 4.19442Z" fill="#449A01" stroke="white" stroke-width="0.15"/>
<path fill-rule="evenodd" clip-rule="evenodd" d="M14.945 9.56712V9.4769C14.657 9.24944 14.3553 9.13571 14.0401 9.13571C13.7379 8.98855 13.432 8.93143 13.1224 8.96435C13.1225 8.9633 13.1225 8.96276 13.1225 8.96276C12.657 8.91264 12.1879 9.13571 12.1879 9.13571C11.7151 9.13571 11.283 9.4769 11.283 9.4769V9.56712L11.8478 10.1913C11.8478 10.1913 12.0068 10.7921 13.1202 10.6509V10.6524C13.1202 10.6524 13.8574 10.6303 13.9092 10.6113C13.9298 10.6038 13.9511 10.5969 13.9729 10.5899C14.1172 10.5435 14.2821 10.4906 14.3802 10.1913L14.945 9.56712ZM13.1202 8.99195C13.1042 9.19975 13.0124 10.4524 13.1202 10.6466V8.99195Z" fill="#F50100"/>
<path fill-rule="evenodd" clip-rule="evenodd" d="M12.2003 8.86616C12.2604 8.66354 12.3655 8.59492 12.6216 8.59492C12.7806 8.59492 12.9007 8.63567 12.9843 8.71554V9.25703H13.029V9.31232C12.9986 9.33868 12.9841 9.39347 12.9955 9.45213C12.9993 9.47168 13.0056 9.48975 13.0138 9.50564C12.9934 9.49806 12.97 9.49373 12.945 9.49373C12.8676 9.49373 12.805 9.53511 12.805 9.58616C12.805 9.63721 12.8676 9.67859 12.945 9.67859C13.0223 9.67859 13.085 9.63721 13.085 9.58616C13.085 9.61187 13.1009 9.63514 13.1265 9.65189H13.0578H13.056C13.056 9.79111 12.9914 9.87984 12.8946 9.87984C12.827 9.87984 12.7795 9.84583 12.745 9.77088L12.6492 9.56283L12.6391 9.79576C12.6355 9.87789 12.603 9.91047 12.5222 9.91047C12.4438 9.91047 12.3875 9.85723 12.3494 9.7372C12.3608 9.73916 12.3727 9.7402 12.385 9.7402C12.4623 9.7402 12.525 9.69882 12.525 9.64778C12.525 9.59673 12.4623 9.55535 12.385 9.55535C12.3676 9.55535 12.351 9.55743 12.3357 9.56123C12.3419 9.53674 12.3427 9.5081 12.337 9.47847C12.3222 9.40257 12.2696 9.34894 12.2195 9.35868C12.1694 9.36842 12.1408 9.43785 12.1555 9.51375C12.1593 9.5333 12.1656 9.55137 12.1738 9.56726C12.1534 9.55968 12.13 9.55535 12.105 9.55535C12.0276 9.55535 11.965 9.59673 11.965 9.64778C11.965 9.69882 12.0276 9.7402 12.105 9.7402C12.1676 9.7402 12.2207 9.71301 12.2385 9.67552L12.2341 9.72989C12.2217 9.88325 12.1837 9.95523 12.1274 9.96531C12.0507 9.97904 11.9925 9.97253 11.9518 9.94832L11.8692 9.89911V9.98284C11.8432 9.98588 11.7986 9.98051 11.7376 9.96592L11.7281 10.0142L11.6297 9.9124C11.6585 9.91372 11.6916 9.90623 11.7233 9.88937C11.7916 9.85307 11.8275 9.7871 11.8035 9.74203C11.7796 9.69696 11.7048 9.68985 11.6365 9.72615C11.6173 9.73636 11.6007 9.74892 11.5872 9.7627C11.586 9.74875 11.5833 9.73431 11.5789 9.71981C11.5563 9.64586 11.4984 9.59802 11.4495 9.61295C11.4246 9.62056 11.4069 9.64304 11.3985 9.67305L11.3552 9.62821L11.3168 9.67309L11.3976 9.75672C11.3988 9.7624 11.4003 9.76812 11.4021 9.77385C11.4229 9.84195 11.4737 9.88791 11.5197 9.88309L11.7142 10.0844L11.7138 10.0863L11.7167 10.087L11.8305 10.2048C11.8471 10.2386 11.862 10.2698 11.8749 10.2984C11.8888 10.3595 11.9096 10.4273 11.9391 10.4687C11.9418 10.4807 11.9432 10.4907 11.9432 10.4986C11.9432 10.5621 12.0934 10.5998 12.3865 10.6385C12.6161 10.6689 12.8871 10.6892 13.1088 10.6923V10.6927L13.1369 10.6926L13.165 10.6927V10.6923C13.3867 10.6892 13.6577 10.6689 13.8874 10.6385C14.1805 10.5998 14.3307 10.5621 14.3307 10.4986C14.3307 10.4569 14.3684 10.3567 14.4434 10.2048L14.957 9.67309L14.9187 9.62821L14.7774 9.77441C14.78 9.76817 14.7824 9.76168 14.7844 9.75498C14.807 9.68103 14.7858 9.60899 14.737 9.59407C14.6881 9.57915 14.6302 9.62699 14.6076 9.70093C14.6032 9.71544 14.6005 9.72987 14.5993 9.74382C14.5858 9.73004 14.5692 9.71748 14.55 9.70727C14.4817 9.67098 14.4069 9.67809 14.383 9.72316C14.359 9.76823 14.3949 9.83419 14.4632 9.87049C14.5314 9.90679 14.6062 9.89968 14.6302 9.85461L14.6326 9.84949C14.6393 9.85508 14.6468 9.85929 14.6551 9.86184C14.6674 9.8656 14.6803 9.86537 14.6931 9.86173L14.5059 10.0555L14.4882 9.96592C14.4272 9.98051 14.3826 9.98588 14.3566 9.98284V9.89911L14.274 9.94832C14.2333 9.97253 14.1751 9.97904 14.0984 9.96531C14.0421 9.95523 14.0041 9.88325 13.9916 9.72989L13.9905 9.71618C14.0101 9.72729 14.0338 9.7354 14.0597 9.73905C14.1363 9.74981 14.2041 9.71755 14.2112 9.667C14.2183 9.61645 14.162 9.56675 14.0854 9.55599C14.0672 9.55343 14.0495 9.55331 14.033 9.55528C14.0431 9.53146 14.0483 9.50236 14.0467 9.47125C14.0426 9.39403 13.998 9.3336 13.9471 9.33628C13.8961 9.33895 13.858 9.40371 13.8621 9.48092C13.8631 9.49939 13.8663 9.51691 13.8715 9.53282C13.8531 9.52334 13.8316 9.5164 13.8082 9.51311C13.7316 9.50235 13.6638 9.53461 13.6567 9.58516C13.6495 9.63571 13.7059 9.68541 13.7824 9.69617C13.8251 9.70217 13.8651 9.69479 13.8934 9.67831L13.8824 9.71701C13.8443 9.85128 13.7862 9.91047 13.7035 9.91047C13.6228 9.91047 13.5903 9.87789 13.5867 9.79576L13.5766 9.56283L13.4808 9.77088C13.4463 9.84583 13.3988 9.87984 13.3311 9.87984C13.239 9.87984 13.176 9.79928 13.1702 9.67126C13.187 9.67598 13.2055 9.67859 13.225 9.67859C13.3023 9.67859 13.365 9.63721 13.365 9.58616C13.365 9.53511 13.3023 9.49373 13.225 9.49373C13.2076 9.49373 13.191 9.49581 13.1757 9.49961C13.1819 9.47512 13.1827 9.44648 13.177 9.41686C13.1715 9.38878 13.1609 9.36376 13.1471 9.34385H13.253V9.26655V8.72506C13.3365 8.64519 13.4566 8.60444 13.6156 8.60444C13.8717 8.60444 13.9768 8.67306 14.0369 8.87568C14.0752 9.0048 14.0381 9.11501 13.9177 9.21788L13.9864 9.31521C14.1209 9.2003 14.1802 9.06309 14.1594 8.91104C14.4474 8.90053 14.6627 8.93432 14.8041 9.01026C14.9272 9.07639 14.9497 9.24418 14.8566 9.53607L14.9623 9.57691C15.0719 9.23342 15.0406 9.00014 14.8532 8.89951C14.6882 8.81085 14.4476 8.77476 14.1303 8.78891L14.1306 8.79777C14.0505 8.56913 13.9007 8.4812 13.6156 8.4812C13.4708 8.4812 13.3496 8.51191 13.253 8.57412V8.54282H13.029V8.59708C12.9261 8.51307 12.7897 8.47168 12.6216 8.47168C12.3424 8.47168 12.1929 8.55605 12.1116 8.77441L12.1134 8.72729C11.7961 8.71314 11.5555 8.74923 11.3904 8.8379C11.203 8.93852 11.1717 9.1718 11.2814 9.51529L11.387 9.47445C11.2939 9.18257 11.3164 9.01477 11.4395 8.94864C11.5815 8.87237 11.798 8.83862 12.0879 8.84956C12.0446 9.02236 12.1012 9.17782 12.2508 9.30569L12.3195 9.20836C12.1991 9.10549 12.162 8.99528 12.2003 8.86616ZM13.085 9.58616C13.085 9.58115 13.0856 9.57624 13.0867 9.57145L13.083 9.5705C13.0843 9.57559 13.085 9.58082 13.085 9.58616ZM14.4665 10.0963C14.3748 10.1141 14.3086 10.1123 14.2735 10.0808C14.2185 10.0984 14.154 10.1001 14.0804 10.0869C14.0018 10.0729 13.947 10.0153 13.9141 9.91988C13.8711 9.98017 13.8167 10.0174 13.7516 10.0294C14.1099 10.0853 14.361 10.1639 14.361 10.1639C14.361 10.1639 14.3548 10.2223 14.3397 10.291C14.3557 10.2551 14.3745 10.2151 14.3963 10.171L14.4017 10.1633L14.4665 10.0963ZM13.5825 10.006C13.5513 9.98896 13.5264 9.96425 13.5084 9.93241C13.4817 9.95837 13.4513 9.97736 13.4176 9.98907C13.4739 9.99381 13.529 9.99954 13.5825 10.006ZM13.2199 9.97708C13.1762 9.9549 13.14 9.91938 13.1129 9.87387C13.086 9.91906 13.0501 9.9544 13.0068 9.97661C13.0324 9.97577 13.0582 9.97518 13.0841 9.97486V9.97458L13.1065 9.97465L13.129 9.97458V9.97486C13.1594 9.97524 13.1898 9.97599 13.2199 9.97708ZM11.868 10.1591L11.8158 10.1051C11.8785 10.1119 11.9249 10.1054 11.9523 10.0808C12.0073 10.0984 12.0718 10.1001 12.1454 10.0869C12.224 10.0729 12.2787 10.0153 12.3117 9.91988C12.3535 9.97842 12.4059 10.0152 12.4686 10.0283C12.1596 10.0761 11.9291 10.1411 11.868 10.1591ZM12.8058 9.98821C12.7515 9.99265 12.6984 9.99801 12.6468 10.0041C12.6763 9.98711 12.7 9.96307 12.7174 9.93241C12.7434 9.95774 12.773 9.97644 12.8058 9.98821ZM14.1835 10.4998C14.2227 10.52 14.2542 10.4998 14.279 10.4611C14.2769 10.4718 14.2755 10.4815 14.275 10.4901C14.2717 10.4925 14.2667 10.4953 14.26 10.4984C14.2416 10.5069 14.2134 10.516 14.1768 10.5252C14.1048 10.5433 14.0022 10.5613 13.8807 10.5773C13.6434 10.6087 13.3612 10.6293 13.1369 10.6309C12.9126 10.6293 12.6305 10.6087 12.3932 10.5773C12.2716 10.5613 12.1691 10.5433 12.0971 10.5252C12.0664 10.5175 12.0416 10.5099 12.0235 10.5026L12.0296 10.4998C12.1519 10.4368 12.9608 10.3777 13.1065 10.3675C13.2522 10.3777 14.0611 10.4368 14.1835 10.4998ZM14.3461 10.4885L14.3452 10.4896L14.3457 10.4888L14.3461 10.4885Z" fill="#FECA00"/>
<path d="M12.1273 8.67693L12.1263 8.73854C11.6298 8.729 11.3449 8.80874 11.2726 8.96765C11.1979 9.13194 11.2118 9.33166 11.3165 9.56891L11.2661 9.59583C11.1544 9.3427 11.1391 9.12341 11.2225 8.94007C11.3084 8.75134 11.6097 8.66699 12.1273 8.67693Z" fill="white"/>
<path d="M12.2234 9.22333L12.1947 9.27623C12.0865 9.20519 12.0324 9.08394 12.0324 8.91686C12.0324 8.67673 12.1448 8.53591 12.3935 8.43954C12.5522 8.37804 12.769 8.40326 13.0445 8.51317L13.0254 8.5711C12.761 8.46558 12.5563 8.44178 12.4121 8.49766C12.184 8.58605 12.0884 8.70581 12.0884 8.91686C12.0884 9.06349 12.1334 9.16419 12.2234 9.22333Z" fill="white"/>
<path d="M14.0815 8.73858L14.0825 8.80019C14.579 8.79065 14.8639 8.87038 14.9362 9.0293C15.0109 9.19359 14.997 9.39331 14.8923 9.63055L14.9427 9.65748C15.0544 9.40435 15.0697 9.18506 14.9863 9.00171C14.9004 8.81298 14.5991 8.72864 14.0815 8.73858Z" fill="white"/>
<path d="M13.9061 9.23614L13.9349 9.28905C14.043 9.218 14.0971 9.09676 14.0971 8.92968C14.0971 8.68954 13.9847 8.54873 13.736 8.45236C13.5773 8.39086 13.3605 8.41607 13.085 8.52598L13.1041 8.58391C13.3686 8.4784 13.5732 8.4546 13.7174 8.51048C13.9455 8.59887 14.0411 8.71862 14.0411 8.92968C14.0411 9.0763 13.9962 9.17701 13.9061 9.23614Z" fill="white"/>
</g>
</g>
</svg>
