<svg width="20" height="15" viewBox="0 0 20 15" fill="none" xmlns="http://www.w3.org/2000/svg">
<mask id="mask0" mask-type="alpha" maskUnits="userSpaceOnUse" x="0" y="0" width="20" height="15">
<rect width="20" height="15" fill="white"/>
</mask>
<g mask="url(#mask0)">
<path fill-rule="evenodd" clip-rule="evenodd" d="M0 0V15H20V0H0Z" fill="#4EC7EE"/>
<mask id="mask1" mask-type="alpha" maskUnits="userSpaceOnUse" x="0" y="0" width="20" height="15">
<path fill-rule="evenodd" clip-rule="evenodd" d="M0 0V15H20V0H0Z" fill="white"/>
</mask>
<g mask="url(#mask1)">
<path d="M2.55624 14.523C2.51658 14.8168 2.70473 15.026 3.02037 15.1607C3.4447 15.3417 3.87285 15.1722 4.26668 14.7358L3.7563 14.2752C3.58136 14.469 3.45494 14.5437 3.35735 14.5424C3.54843 14.4059 3.79325 14.2374 4.09145 14.0371L4.23459 13.8298C4.34954 13.3367 3.99209 13.0695 3.44693 13.0695C3.12584 13.0695 2.86912 13.133 2.70625 13.2696C2.43866 13.494 2.48447 13.8521 2.76606 14.0384C2.7884 14.0532 2.81107 14.0665 2.83405 14.0784C2.67608 14.2118 2.57967 14.3495 2.55624 14.523Z" fill="#FFE402"/>
<path d="M2.85309 14.0596C2.85309 14.0596 2.93108 13.8867 2.89208 13.7968" stroke="#FFE402" stroke-width="0.6875"/>
<path d="M5.35587 14.523C5.39553 14.8168 5.20738 15.026 4.89173 15.1607C4.46741 15.3417 4.03926 15.1722 3.64543 14.7358L4.15581 14.2752C4.33075 14.469 4.45717 14.5437 4.55476 14.5424C4.36368 14.4059 4.11886 14.2374 3.82065 14.0371L3.67752 13.8298C3.56256 13.3367 3.92002 13.0695 4.46518 13.0695C4.78627 13.0695 5.04299 13.133 5.20586 13.2696C5.47345 13.494 5.42763 13.8521 5.14604 14.0384C5.12371 14.0532 5.10104 14.0665 5.07806 14.0784C5.23603 14.2118 5.33244 14.3495 5.35587 14.523Z" fill="#FFE402"/>
<path d="M5.37238 13.9182L4.74571 14.2009C4.65775 14.006 4.63147 13.8289 4.70467 13.66L5.33543 13.9335C5.35664 13.8846 5.35635 13.8827 5.37238 13.9182Z" fill="#FFE402"/>
<path d="M2.55624 0.476844C2.51658 0.183094 2.70473 -0.0261357 3.02037 -0.160796C3.4447 -0.341822 3.87285 -0.172308 4.26668 0.264074L3.7563 0.724692C3.58136 0.530845 3.45494 0.456161 3.35735 0.45743C3.54843 0.593943 3.79325 0.762468 4.09145 0.962731L4.23459 1.17006C4.34954 1.66318 3.99209 1.93038 3.44693 1.93038C3.12584 1.93038 2.86912 1.86685 2.70625 1.73029C2.43866 1.50592 2.48447 1.14777 2.76606 0.961434C2.7884 0.946654 2.81107 0.933353 2.83405 0.921502C2.67608 0.7881 2.57967 0.650378 2.55624 0.476844Z" fill="#FFE402"/>
<path d="M5.35587 0.476844C5.39553 0.183094 5.20738 -0.0261357 4.89173 -0.160796C4.46741 -0.341822 4.03926 -0.172308 3.64543 0.264074L4.15581 0.724692C4.33075 0.530845 4.45717 0.456161 4.55476 0.45743C4.36368 0.593943 4.11886 0.762468 3.82065 0.962731L3.67752 1.17006C3.56256 1.66318 3.92002 1.93038 4.46518 1.93038C4.78627 1.93038 5.04299 1.86685 5.20586 1.73029C5.47345 1.50592 5.42763 1.14777 5.14604 0.961434C5.12371 0.946654 5.10104 0.933353 5.07806 0.921502C5.23603 0.7881 5.33244 0.650378 5.35587 0.476844Z" fill="#FFE402"/>
<path fill-rule="evenodd" clip-rule="evenodd" d="M3.18365 12.5394C2.78926 12.5507 2.54388 12.6321 2.54388 13.0122C2.54388 13.4315 2.95115 13.5626 3.38446 13.5626C3.77697 13.5626 4.21917 13.319 4.21917 12.8827C4.21917 12.6173 3.88169 12.0817 3.03192 10.9206C3.00247 10.8932 2.98625 10.8792 2.97326 10.8791C3.02479 10.8504 3.11555 10.8168 3.2353 10.8168C3.27688 10.8168 3.3309 10.8379 3.38446 10.8648V11.3202H4.28413V10.9764C4.28413 10.588 3.71003 10.1293 3.2353 10.1293C2.82071 10.1293 2.48786 10.3266 2.31927 10.6103C2.15266 10.8907 2.28006 11.1599 2.51934 11.374C2.87539 11.865 3.15184 12.2715 3.32522 12.5386C3.26152 12.5381 3.22654 12.5381 3.18365 12.5394ZM3.22591 12.8564C3.21343 12.8536 3.20143 12.8506 3.19022 12.8473C3.19857 12.8561 3.23138 12.8952 3.23138 13.0122C3.23138 13.076 3.22831 13.1208 3.22419 13.1524C3.1082 13.05 3.07577 12.8717 3.16065 12.7344L3.16275 12.7309L3.14981 12.7052C3.15153 12.7044 3.15325 12.7035 3.15494 12.7026C3.17492 12.6923 3.19135 12.6838 3.16275 12.7309L3.22591 12.8564ZM3.19022 12.8473L3.1783 12.8437C3.17958 12.8441 3.18126 12.8449 3.18323 12.8461L3.19022 12.8473ZM3.53167 12.8827C3.53167 12.871 3.52768 12.864 3.52078 12.8603L3.52478 12.8646C3.52935 12.874 3.53167 12.8801 3.53167 12.8827Z" fill="#FFE402"/>
<path fill-rule="evenodd" clip-rule="evenodd" d="M4.72852 12.5394C5.12291 12.5507 5.36829 12.6321 5.36829 13.0122C5.36829 13.4315 4.96102 13.5626 4.52771 13.5626C4.1352 13.5626 3.693 13.319 3.693 12.8827C3.693 12.6173 4.03048 12.0817 4.88025 10.9206C4.9097 10.8932 4.92592 10.8792 4.93891 10.8791C4.88738 10.8504 4.79662 10.8168 4.67687 10.8168C4.63529 10.8168 4.58127 10.8379 4.52771 10.8648V11.3202H3.62804V10.9764C3.62804 10.588 4.20214 10.1293 4.67687 10.1293C5.09146 10.1293 5.42431 10.3266 5.5929 10.6103C5.75951 10.8907 5.63211 11.1599 5.39283 11.374C5.03678 11.865 4.76033 12.2715 4.58695 12.5386C4.65065 12.5381 4.68563 12.5381 4.72852 12.5394ZM4.68626 12.8564C4.69874 12.8536 4.71074 12.8506 4.72195 12.8473C4.7136 12.8561 4.68079 12.8952 4.68079 13.0122C4.68079 13.076 4.68386 13.1208 4.68798 13.1524C4.80397 13.05 4.8364 12.8717 4.75152 12.7344L4.74942 12.7309L4.76236 12.7052C4.76064 12.7044 4.75892 12.7035 4.75723 12.7026C4.73725 12.6923 4.72082 12.6838 4.74942 12.7309L4.68626 12.8564ZM4.72195 12.8473L4.73388 12.8437C4.73259 12.8441 4.73091 12.8449 4.72894 12.8461L4.72195 12.8473ZM4.3805 12.8827C4.3805 12.871 4.38449 12.864 4.39139 12.8603L4.38739 12.8646C4.38282 12.874 4.3805 12.8801 4.3805 12.8827Z" fill="#FFE402"/>
<path fill-rule="evenodd" clip-rule="evenodd" d="M3.18365 8.34662C2.78926 8.33526 2.54388 8.25391 2.54388 7.87374C2.54388 7.45452 2.95115 7.32336 3.38446 7.32336C3.77697 7.32336 4.21917 7.56698 4.21917 8.00327C4.21917 8.26869 3.88169 8.80429 3.03192 9.96534C3.00247 9.99278 2.98625 10.0068 2.97326 10.0068C3.02479 10.0355 3.11555 10.0691 3.2353 10.0691C3.27688 10.0691 3.3309 10.0481 3.38446 10.0212V9.56582H4.28413V9.90957C4.28413 10.2979 3.71003 10.7566 3.2353 10.7566C2.82071 10.7566 2.48786 10.5594 2.31927 10.2757C2.15266 9.99529 2.28006 9.72612 2.51934 9.51202C2.87539 9.02096 3.15184 8.61448 3.32522 8.3474C3.26152 8.34793 3.22654 8.34785 3.18365 8.34662ZM3.22591 8.02962C3.21343 8.0324 3.20143 8.03543 3.19022 8.03869C3.19857 8.02993 3.23138 7.99082 3.23138 7.87374C3.23138 7.80999 3.22831 7.76515 3.22419 7.73362C3.1082 7.83594 3.07577 8.01432 3.16065 8.15163L3.16275 8.15506L3.14981 8.18077C3.15153 8.18164 3.15325 8.18252 3.15494 8.18339C3.17492 8.19368 3.19135 8.20214 3.16275 8.15506L3.22591 8.02962ZM3.19022 8.03869L3.1783 8.04233C3.17958 8.04192 3.18126 8.04112 3.18323 8.03985L3.19022 8.03869ZM3.53167 8.00327C3.53167 8.015 3.52768 8.02198 3.52078 8.02572L3.52478 8.02134C3.52935 8.01194 3.53167 8.00587 3.53167 8.00327Z" fill="#FFE402"/>
<path fill-rule="evenodd" clip-rule="evenodd" d="M4.72852 8.34662C5.12291 8.33526 5.36829 8.25391 5.36829 7.87374C5.36829 7.45452 4.96102 7.32336 4.52771 7.32336C4.1352 7.32336 3.693 7.56698 3.693 8.00327C3.693 8.26869 4.03048 8.80429 4.88025 9.96534C4.9097 9.99278 4.92592 10.0068 4.93891 10.0068C4.88738 10.0355 4.79662 10.0691 4.67687 10.0691C4.63529 10.0691 4.58127 10.0481 4.52771 10.0212V9.56582H3.62804V9.90957C3.62804 10.2979 4.20214 10.7566 4.67687 10.7566C5.09146 10.7566 5.42431 10.5594 5.5929 10.2757C5.75951 9.99529 5.63211 9.72612 5.39283 9.51202C5.03678 9.02096 4.76033 8.61448 4.58695 8.3474C4.65065 8.34793 4.68563 8.34785 4.72852 8.34662ZM4.68626 8.02962C4.69874 8.0324 4.71074 8.03543 4.72195 8.03869C4.7136 8.02993 4.68079 7.99082 4.68079 7.87374C4.68079 7.80999 4.68386 7.76515 4.68798 7.73362C4.80397 7.83594 4.8364 8.01432 4.75152 8.15163L4.74942 8.15506L4.76236 8.18077C4.76064 8.18164 4.75892 8.18252 4.75723 8.18339C4.73725 8.19368 4.72082 8.20214 4.74942 8.15506L4.68626 8.02962ZM4.72195 8.03869L4.73388 8.04233C4.73259 8.04192 4.73091 8.04112 4.72894 8.03985L4.72195 8.03869ZM4.3805 8.00327C4.3805 8.015 4.38449 8.02198 4.39139 8.02572L4.38739 8.02134C4.38282 8.01194 4.3805 8.00587 4.3805 8.00327Z" fill="#FFE402"/>
<path fill-rule="evenodd" clip-rule="evenodd" d="M3.18365 6.65326C2.78926 6.66461 2.54388 6.74597 2.54388 7.12614C2.54388 7.54536 2.95115 7.67651 3.38446 7.67651C3.77697 7.67651 4.21917 7.4329 4.21917 6.99661C4.21917 6.73119 3.88169 6.19559 3.03192 5.03453C3.00247 5.0071 2.98625 4.99312 2.97326 4.99303C3.02479 4.96434 3.11555 4.93074 3.2353 4.93074C3.27688 4.93074 3.3309 4.95176 3.38446 4.9787V5.43406H4.28413V5.09031C4.28413 4.70194 3.71003 4.24324 3.2353 4.24324C2.82071 4.24324 2.48786 4.44046 2.31927 4.72419C2.15266 5.00459 2.28006 5.27376 2.51934 5.48786C2.87539 5.97892 3.15184 6.3854 3.32522 6.65248C3.26152 6.65194 3.22654 6.65203 3.18365 6.65326ZM3.22591 6.97026C3.21343 6.96748 3.20143 6.96445 3.19022 6.96119C3.19857 6.96995 3.23138 7.00906 3.23138 7.12614C3.23138 7.18988 3.22831 7.23473 3.22419 7.26626C3.1082 7.16393 3.07577 6.98555 3.16065 6.84824L3.16275 6.84482L3.14981 6.81911C3.15153 6.81824 3.15325 6.81736 3.15494 6.81649C3.17492 6.8062 3.19135 6.79774 3.16275 6.84482L3.22591 6.97026ZM3.19022 6.96119L3.1783 6.95755C3.17958 6.95796 3.18126 6.95875 3.18323 6.96003L3.19022 6.96119ZM3.53167 6.99661C3.53167 6.98487 3.52768 6.9779 3.52078 6.97416L3.52478 6.97854C3.52935 6.98794 3.53167 6.99401 3.53167 6.99661Z" fill="#FFE402"/>
<path fill-rule="evenodd" clip-rule="evenodd" d="M4.72852 6.65326C5.12291 6.66461 5.36829 6.74597 5.36829 7.12614C5.36829 7.54536 4.96102 7.67651 4.52771 7.67651C4.1352 7.67651 3.693 7.4329 3.693 6.99661C3.693 6.73119 4.03048 6.19559 4.88025 5.03453C4.9097 5.0071 4.92592 4.99312 4.93891 4.99303C4.88738 4.96434 4.79662 4.93074 4.67687 4.93074C4.63529 4.93074 4.58127 4.95176 4.52771 4.9787V5.43406H3.62804V5.09031C3.62804 4.70194 4.20214 4.24324 4.67687 4.24324C5.09146 4.24324 5.42431 4.44046 5.5929 4.72419C5.75951 5.00459 5.63211 5.27376 5.39283 5.48786C5.03678 5.97892 4.76033 6.3854 4.58695 6.65248C4.65065 6.65194 4.68563 6.65203 4.72852 6.65326ZM4.68626 6.97026C4.69874 6.96748 4.71074 6.96445 4.72195 6.96119C4.7136 6.96995 4.68079 7.00906 4.68079 7.12614C4.68079 7.18988 4.68386 7.23473 4.68798 7.26626C4.80397 7.16393 4.8364 6.98555 4.75152 6.84824L4.74942 6.84482L4.76236 6.81911C4.76064 6.81824 4.75892 6.81736 4.75723 6.81649C4.73725 6.8062 4.72082 6.79774 4.74942 6.84482L4.68626 6.97026ZM4.72195 6.96119L4.73388 6.95755C4.73259 6.95796 4.73091 6.95875 4.72894 6.96003L4.72195 6.96119ZM4.3805 6.99661C4.3805 6.98487 4.38449 6.9779 4.39139 6.97416L4.38739 6.97854C4.38282 6.98794 4.3805 6.99401 4.3805 6.99661Z" fill="#FFE402"/>
<path fill-rule="evenodd" clip-rule="evenodd" d="M3.18365 2.46063C2.78926 2.44928 2.54388 2.36792 2.54388 1.98775C2.54388 1.56853 2.95115 1.43738 3.38446 1.43738C3.77697 1.43738 4.21917 1.68099 4.21917 2.11728C4.21917 2.3827 3.88169 2.9183 3.03192 4.07936C3.00247 4.10679 2.98625 4.12077 2.97326 4.12086C3.02479 4.14955 3.11555 4.18316 3.2353 4.18316C3.27688 4.18316 3.3309 4.16213 3.38446 4.13519V3.67984H4.28413V4.02359C4.28413 4.41195 3.71003 4.87066 3.2353 4.87066C2.82071 4.87066 2.48786 4.67343 2.31927 4.3897C2.15266 4.1093 2.28006 3.84013 2.51934 3.62604C2.87539 3.13497 3.15184 2.72849 3.32522 2.46142C3.26152 2.46195 3.22654 2.46186 3.18365 2.46063ZM3.22591 2.14364C3.21343 2.14641 3.20143 2.14945 3.19022 2.1527C3.19857 2.14395 3.23138 2.10483 3.23138 1.98775C3.23138 1.92401 3.22831 1.87916 3.22419 1.84763C3.1082 1.94996 3.07577 2.12834 3.16065 2.26565L3.16275 2.26907L3.14981 2.29478C3.15153 2.29565 3.15325 2.29653 3.15494 2.29741C3.17492 2.30769 3.19135 2.31615 3.16275 2.26907L3.22591 2.14364ZM3.19022 2.1527L3.1783 2.15635C3.17958 2.15593 3.18126 2.15514 3.18323 2.15387L3.19022 2.1527ZM3.53167 2.11728C3.53167 2.12902 3.52768 2.136 3.52078 2.13973L3.52478 2.13535C3.52935 2.12595 3.53167 2.11988 3.53167 2.11728Z" fill="#FFE402"/>
<path fill-rule="evenodd" clip-rule="evenodd" d="M4.72852 2.46063C5.12291 2.44928 5.36829 2.36792 5.36829 1.98775C5.36829 1.56853 4.96102 1.43738 4.52771 1.43738C4.1352 1.43738 3.693 1.68099 3.693 2.11728C3.693 2.3827 4.03048 2.9183 4.88025 4.07936C4.9097 4.10679 4.92592 4.12077 4.93891 4.12086C4.88738 4.14955 4.79662 4.18316 4.67687 4.18316C4.63529 4.18316 4.58127 4.16213 4.52771 4.13519V3.67984H3.62804V4.02359C3.62804 4.41195 4.20214 4.87066 4.67687 4.87066C5.09146 4.87066 5.42431 4.67343 5.5929 4.3897C5.75951 4.1093 5.63211 3.84013 5.39283 3.62604C5.03678 3.13497 4.76033 2.72849 4.58695 2.46142C4.65065 2.46195 4.68563 2.46186 4.72852 2.46063ZM4.68626 2.14364C4.69874 2.14641 4.71074 2.14945 4.72195 2.1527C4.7136 2.14395 4.68079 2.10483 4.68079 1.98775C4.68079 1.92401 4.68386 1.87916 4.68798 1.84763C4.80397 1.94996 4.8364 2.12834 4.75152 2.26565L4.74942 2.26907L4.76236 2.29478C4.76064 2.29565 4.75892 2.29653 4.75723 2.29741C4.73725 2.30769 4.72082 2.31615 4.74942 2.26907L4.68626 2.14364ZM4.72195 2.1527L4.73388 2.15635C4.73259 2.15593 4.73091 2.15514 4.72894 2.15387L4.72195 2.1527ZM4.3805 2.11728C4.3805 2.12902 4.38449 2.136 4.39139 2.13973L4.38739 2.13535C4.38282 2.12595 4.3805 2.11988 4.3805 2.11728Z" fill="#FFE402"/>
<path fill-rule="evenodd" clip-rule="evenodd" d="M11.8667 1.74048L12.1226 2.6953C12.1226 2.6953 12.1256 2.91223 11.8806 2.91223C11.6355 2.91223 11.6231 2.6953 11.6231 2.6953L11.8667 1.74048ZM14.0315 5.38747C14.0315 6.63011 13.0829 7.63747 11.9127 7.63747C10.7426 7.63747 9.79398 6.63011 9.79398 5.38747C9.79398 4.14482 10.7426 3.13747 11.9127 3.13747C13.0829 3.13747 14.0315 4.14482 14.0315 5.38747ZM12.8633 2.88784L12.8977 1.89992L12.3856 2.74181C12.3856 2.74181 12.334 2.95287 12.5684 3.02452C12.8027 3.09617 12.8633 2.88784 12.8633 2.88784ZM13.8379 2.36774L13.5161 3.30242C13.5161 3.30242 13.3973 3.48395 13.1942 3.34691C12.991 3.20987 13.102 3.02311 13.102 3.02311L13.8379 2.36774ZM14.023 3.90223L14.604 3.10247L13.7087 3.51406C13.7087 3.51406 13.5478 3.66018 13.7021 3.85064C13.8563 4.04109 14.023 3.90223 14.023 3.90223ZM15.1319 4.04847L14.3322 4.62956C14.3322 4.62956 14.1307 4.71011 14.0429 4.48131C13.9551 4.25252 14.1532 4.16324 14.1532 4.16324L15.1319 4.04847ZM14.4299 5.42639L15.3646 5.10451L14.3951 4.92812C14.3951 4.92812 14.1795 4.95559 14.1966 5.20006C14.2137 5.44453 14.4299 5.42639 14.4299 5.42639ZM15.2878 6.18493L14.2999 6.21949C14.2999 6.21949 14.0879 6.17362 14.143 5.93483C14.1981 5.69605 14.4123 5.7328 14.4123 5.7328L15.2878 6.18493ZM13.9537 6.9382L14.9085 7.19399L14.2034 6.50563C14.2034 6.50563 14.0094 6.40787 13.8868 6.6201C13.7643 6.83234 13.9537 6.9382 13.9537 6.9382ZM14.2602 8.04226L13.4219 7.51848C13.4219 7.51848 13.2717 7.36188 13.451 7.19474C13.6302 7.02761 13.7872 7.17783 13.7872 7.17783L14.2602 8.04226ZM12.7518 7.90857L13.4004 8.65458L13.2008 7.68961C13.2008 7.68961 13.0946 7.50006 12.8743 7.60749C12.654 7.71492 12.7518 7.90857 12.7518 7.90857ZM12.4052 8.97668L12.0031 8.07364C12.0031 8.07364 11.9662 7.85986 12.2082 7.82152C12.4503 7.78318 12.4964 7.99551 12.4964 7.99551L12.4052 8.97668ZM11.2494 7.99551L11.3528 8.97861L11.7427 8.07365C11.7427 8.07365 11.7644 7.85746 11.5224 7.81912C11.2803 7.78078 11.2494 7.99551 11.2494 7.99551ZM10.3565 8.66L10.5451 7.68963C10.5451 7.68963 10.6375 7.49334 10.8577 7.60077C11.078 7.7082 10.994 7.90859 10.994 7.90859L10.3565 8.66ZM9.95863 7.17785L9.4946 8.05069L10.3239 7.5185C10.3239 7.5185 10.4628 7.35142 10.2836 7.18429C10.1044 7.01715 9.95863 7.17785 9.95863 7.17785ZM8.84345 7.20469L9.54239 6.50566C9.54239 6.50566 9.72875 6.39459 9.85129 6.60683C9.97382 6.81906 9.79214 6.93823 9.79214 6.93823L8.84345 7.20469ZM9.33351 5.73284L8.46073 6.19697L9.44587 6.21952C9.44587 6.21952 9.65446 6.15868 9.59934 5.91989C9.54421 5.68111 9.33351 5.73284 9.33351 5.73284ZM8.38037 5.11684L9.35072 4.92816C9.35072 4.92816 9.56733 4.94029 9.55023 5.18476C9.53314 5.42923 9.31587 5.42643 9.31587 5.42643L8.38037 5.11684ZM9.59259 4.16328L8.60948 4.06001L9.41359 4.62959C9.41359 4.62959 9.62054 4.69579 9.70836 4.467C9.79619 4.23821 9.59259 4.16328 9.59259 4.16328ZM9.13403 3.11208L10.0371 3.51409C10.0371 3.51409 10.2076 3.64827 10.0534 3.83872C9.89914 4.02918 9.72278 3.90226 9.72278 3.90226L9.13403 3.11208ZM10.6437 3.02313L9.89762 2.37465L10.2296 3.30244C10.2296 3.30244 10.3612 3.47537 10.5643 3.33833C10.7675 3.20129 10.6437 3.02313 10.6437 3.02313ZM10.8362 1.90354L11.3601 2.74182C11.3601 2.74182 11.4264 2.94839 11.1921 3.02004C10.9577 3.09169 10.8825 2.88785 10.8825 2.88785L10.8362 1.90354Z" fill="#FFE402"/>
<path fill-rule="evenodd" clip-rule="evenodd" d="M7.63813 6.66996C7.62958 6.63712 7.62176 6.60508 7.61467 6.57382L7.65841 6.66186L7.63813 6.66996ZM7.69811 6.87627C7.6752 6.80429 7.6552 6.73555 7.63813 6.66996L7.37029 6.7769L7.40997 6.87627H7.38109L7.3699 6.88183C7.35386 6.8002 7.34579 6.72284 7.34579 6.64943V6.0325L7.61467 6.57382C7.5806 6.42343 7.56349 6.29113 7.56349 6.17582V5.4067L7.87465 6.18602L7.57918 6.2785L7.69527 6.64943H7.68954L7.65841 6.66186L7.76858 6.88366L7.87483 7.22315C7.77543 7.04066 7.72484 6.91953 7.72484 6.87627H7.69811ZM8.04004 7.7429C7.8915 7.41313 7.77738 7.12533 7.69811 6.87627H7.40997L7.70277 7.60959L7.59433 7.49391C7.48081 7.26651 7.40561 7.0636 7.3699 6.88183L7.13156 7.00022L7.0841 6.94959V7.02379L7.07323 7.02919L7.0841 7.05109V7.135C7.05285 7.03744 7.03734 6.95192 7.03734 6.87627V5.41154L7.34579 6.0325V4.86147L7.56349 5.4067V3.92664L8.43272 6.70395L8.3716 6.72385C8.29098 6.48294 8.25099 6.29863 8.25099 6.17582H7.90724L7.87465 6.18602L8.12187 6.8052L8.0622 6.82464C8.04285 6.75599 8.03329 6.69739 8.03329 6.64943H7.69527L7.76858 6.88366L8.15246 7.65648L8.13655 7.66253C8.02818 7.49227 7.94077 7.34421 7.87483 7.22315L8.02555 7.70472L8.13655 7.66253L8.15201 7.68675L8.04004 7.7429ZM8.15922 7.69799L8.0402 7.74324L8.04004 7.7429L7.89563 7.81534L7.70277 7.60959L7.79463 7.83968C7.78353 7.83049 7.7768 7.82414 7.77369 7.82107C7.70599 7.7067 7.64616 7.59775 7.59433 7.49391L7.13156 7.00022L7.0841 7.02379V7.05109L7.46552 7.81895H7.42785L7.4253 7.82134C7.25567 7.54119 7.14245 7.31712 7.0841 7.135V7.63716L5.71869 6.66443L7.45761 8.73393C8.01331 9.39529 8.69803 9.90346 9.50806 10.2566L7.93344 10.2232L9.53384 10.6748L8.7059 11.2841L10.1359 10.8448L10.5259 10.9548C11.0506 11.1029 11.3429 11.2515 11.362 11.2967L11.4356 11.4708L11.6221 11.5018C12.0308 11.5697 12.7847 11.4638 13.7559 11.2486C14.0859 11.1754 14.4171 11.0939 14.6734 11.0248C14.7808 10.9958 14.8648 10.9716 14.9122 10.9561L14.9303 10.95C14.9365 10.9478 14.9426 10.9454 14.9565 10.9401L14.9566 10.94L14.9679 10.9354C14.9758 10.9319 14.9834 10.9277 15.0094 10.9136L15.0095 10.9136C15.0408 10.9093 15.0638 10.9061 15.0793 10.8936C15.122 10.8589 15.1064 10.7522 15.0473 10.35L15.0473 10.3499L15.0473 10.3499C14.7765 10.2774 14.7387 10.2673 14.7286 10.2797C14.7269 10.2818 14.726 10.2844 14.7249 10.2874C14.632 10.3066 14.4872 10.3045 14.2941 10.2796C15.9102 9.4849 16.9719 8.68866 17.4805 7.86937L18.4108 6.37081L17.8472 6.78198L18.0503 6.12914L17.247 6.64535C17.3504 6.50819 17.4304 6.37166 17.4868 6.23521L18.0919 4.77289L17.1371 5.66357L17.655 3.95656L16.4262 5.6028L11.3952 9.30509L11.3167 9.2869C10.0783 8.99976 9.20853 8.1249 8.69095 6.61983L8.43272 6.70395L8.43607 6.71466L8.37518 6.73449L8.3716 6.72385L8.12187 6.8052L8.12604 6.81565L8.06529 6.83543L8.0622 6.82464L8.03734 6.83274C8.12095 7.10439 8.21219 7.35895 8.31106 7.59619L8.15246 7.65648L8.16441 7.68053L8.15201 7.68675L8.15922 7.69799ZM8.17088 7.69356L8.15922 7.69799L8.1838 7.73611L7.93726 7.85976L7.89563 7.81534L7.81498 7.85578C7.80701 7.84972 7.80026 7.84434 7.79463 7.83968L7.80339 7.8616L7.81498 7.85578C7.82906 7.86648 7.84696 7.87928 7.86923 7.89388L7.82956 7.91378C7.81037 7.88248 7.79175 7.85158 7.77369 7.82107L7.7716 7.81895H7.46552L7.53466 7.95814L7.48974 7.92613C7.46742 7.89036 7.44594 7.85543 7.4253 7.82134L7.38961 7.8548L7.0841 7.63716V7.81895C7.0841 8.14433 7.31305 8.39029 7.70632 8.59239L7.52133 8.79276L9.57818 10.2581L9.50806 10.2566C9.57542 10.286 9.64365 10.3142 9.71273 10.3415L9.89128 10.4118L9.53384 10.6748L10.1359 10.8448L10.616 10.6973L12.3243 11.3703L11.7733 10.9778C11.8405 10.9772 11.9059 10.9764 11.9693 10.9753C11.9424 10.9259 11.9083 10.8793 11.8666 10.8348C11.816 10.8334 11.7719 10.8297 11.7349 10.8236L11.7161 10.937L11.1405 10.5269C11.3608 10.4509 11.5747 10.3713 11.7823 10.288C12.6349 10.2788 13.1459 10.2331 13.2217 10.1769L13.3533 10.0793L13.512 10.12C13.6648 10.1592 13.8055 10.1919 13.9336 10.2181L14.0426 10.4012C14.1279 10.3607 14.2117 10.3202 14.2941 10.2796C14.2737 10.277 14.2527 10.2741 14.2312 10.271L17.391 7.96577L17.1266 7.7204C17.4611 7.54814 17.6791 7.32214 17.7697 7.03111L17.8472 6.78198L17.5066 7.03043L17.4414 6.929L17.1132 6.82689C17.0829 6.92441 16.984 7.02198 16.8088 7.11155C16.9845 6.95486 17.1306 6.79971 17.247 6.64535L16.7508 6.96424L17.4037 6.35514L16.9963 6.0727C17.0317 5.99251 17.0613 5.91339 17.085 5.8353L17.1371 5.66357L16.9071 5.87821L16.5649 5.70531L16.7231 5.38429L16.4262 5.6028L15.7229 6.54494L15.4835 6.34446C14.8412 7.64784 13.6851 8.68268 12.0037 9.44619L11.3952 9.30509L11.2213 9.43302L11.2391 9.27802C10.0927 9.27802 9.24763 8.42796 8.69442 6.63051L8.43607 6.71466L8.68167 7.49938L8.43628 7.59266L8.421 7.55439L8.66703 7.46086C8.54093 7.18094 8.44377 6.93786 8.37518 6.73449L8.12604 6.81565L8.421 7.55439L8.39992 7.5624L8.4157 7.55449C8.23286 7.2562 8.11723 7.01322 8.06529 6.83543L8.04081 6.84341C8.13106 7.10583 8.23193 7.35271 8.34338 7.5839L8.31106 7.59619L8.3148 7.6051L8.16441 7.68053L8.17088 7.69356ZM8.32702 7.6342L8.17088 7.69356L8.19038 7.73281L8.1838 7.73611L8.20739 7.77237L7.97826 7.90349L7.93726 7.85976L7.86923 7.89388C7.88664 7.90529 7.90672 7.9178 7.92974 7.93126L7.68973 8.06861L7.53466 7.95814L7.61171 8.11325L7.68973 8.06861L7.72592 8.0944L7.63176 8.14828C7.58113 8.07077 7.5338 7.99678 7.48974 7.92613L7.38961 7.8548L7.17706 8.05404L7.61808 8.52452L7.86887 8.28944L7.90376 8.22109L9.02414 9.01926L9.43843 9.46123C8.87442 9.16475 8.39031 8.77526 7.98396 8.29166L7.70632 8.59239L7.71258 8.5956L9.46608 9.49072L9.43843 9.46123C9.60673 9.54969 9.78215 9.62988 9.96473 9.70181L9.66194 10.2599L9.57818 10.2581L9.63928 10.3016L9.66194 10.2599L10.0855 10.2688L9.89128 10.4118L10.616 10.6973L10.6414 10.6895C10.8112 10.6373 10.9776 10.5831 11.1405 10.5269L11.0156 10.438L11.2184 10.2888C11.42 10.2902 11.6083 10.2898 11.7823 10.288C12.0363 10.186 12.2808 10.0785 12.5157 9.96552H13.7833L13.9336 10.2181C13.9624 10.224 13.9906 10.2296 14.0182 10.2348L14.0977 10.3684L14.2312 10.271C14.1652 10.2614 14.0942 10.2493 14.0182 10.2348L13.8579 9.96552H14.2436L13.7961 9.86176L13.7476 9.7802C15.0774 9.14847 16.0177 8.52804 16.5676 7.93202C16.7798 7.87296 16.9665 7.80283 17.1266 7.7204L17.0117 7.61377L17.6273 7.21819L17.5066 7.03043L16.469 7.78742L16.3393 7.48454C16.5141 7.35901 16.6706 7.2348 16.8088 7.11155C16.7107 7.16174 16.5885 7.20941 16.4411 7.25316L16.7508 6.96424L15.8101 7.56871C16.3965 7.02761 16.793 6.53248 16.9963 6.0727L16.9548 6.04394L17.0315 5.94112L16.9071 5.87821L16.116 6.61615L16.5649 5.70531L16.4271 5.63569C16.3431 5.91284 16.1342 6.2392 15.7987 6.6084L15.7229 6.54494L15.299 7.11281L15.4047 7.20809L12.2772 9.5096L12.0037 9.44619C11.7423 9.56489 11.4682 9.67704 11.1813 9.78262L11.2213 9.43302L10.6952 9.82019C9.68634 9.45946 8.90972 8.72793 8.3717 7.64186L8.44187 7.60667L8.43628 7.59266L8.36147 7.6211L8.34606 7.58942L8.39992 7.5624L8.34338 7.5839L8.34606 7.58942L8.3148 7.6051L8.32702 7.6342ZM8.33757 7.65898L8.19038 7.73281L8.22743 7.80741L8.00663 7.93376L7.97826 7.90349L7.92974 7.93126C7.94244 7.93869 7.95604 7.94641 7.97058 7.95439L7.72592 8.0944L7.90376 8.22109L8.02516 7.98327C8.00565 7.97331 7.98748 7.96367 7.97058 7.95439L8.00663 7.93376L9.02414 9.01926L10.4262 10.0181L10.0855 10.2688L10.5636 10.279L10.7442 10.6378L11.0156 10.438L10.799 10.2837C10.9445 10.2862 11.0844 10.2879 11.2184 10.2888L11.6577 9.96552H12.5157C12.7002 9.87678 12.8788 9.78464 13.0515 9.68911L13.7096 9.8417L13.7833 9.96552H13.8579L13.7961 9.86176L13.7096 9.8417L13.6925 9.81299L16.1177 8.04372L16.423 7.9696C16.4725 7.95761 16.5206 7.94508 16.5676 7.93202C16.5914 7.90617 16.6146 7.88036 16.6369 7.8546L17.0117 7.61377L16.8964 7.50677C16.825 7.62168 16.7386 7.73766 16.6369 7.8546L16.5278 7.92474L16.469 7.78742L16.1177 8.04372L14.8726 8.34593C15.012 8.20727 15.1438 8.0643 15.2681 7.91701L15.6666 7.66092L15.8026 7.83945C15.9974 7.71979 16.1763 7.60159 16.3393 7.48454L16.2975 7.38706L16.4411 7.25316C16.3847 7.26987 16.3247 7.28601 16.2609 7.3015L16.2975 7.38706L15.8571 7.7979L15.7245 7.62373L15.807 7.57071L15.8075 7.57114L15.8101 7.56871L15.807 7.57071L15.6447 7.42437C15.6568 7.40681 15.6688 7.38919 15.6807 7.37152L15.8499 7.52406L16.9548 6.04394L16.8515 5.97236C16.7398 6.24246 16.4449 6.55811 15.9654 6.90631C16.0123 6.82146 16.0572 6.73548 16.1002 6.64836L16.116 6.61615L15.9703 6.75212L15.7987 6.6084C15.6661 6.75428 15.5137 6.90686 15.3414 7.06574L15.4568 7.16974L15.4047 7.20809L15.4438 7.24331L15.3882 7.29519L15.5686 7.53221C15.4739 7.66359 15.3738 7.79186 15.2681 7.91701L14.4357 8.45197L14.8726 8.34593C14.3651 8.85068 13.7578 9.29834 13.0515 9.68911L12.2772 9.5096L11.6577 9.96552H11.2391C11.0766 9.96552 10.9192 9.95286 10.7668 9.92767C10.809 9.91363 10.851 9.89946 10.8927 9.88516C10.9806 9.91165 11.0702 9.93548 11.1614 9.95663L11.1813 9.78262C11.0865 9.81752 10.9903 9.8517 10.8927 9.88516C10.8259 9.86504 10.7601 9.84338 10.6952 9.82019L10.5955 9.89359C9.62726 9.66757 8.87352 8.91125 8.33757 7.65898ZM8.33757 7.65898L8.3717 7.64186L8.36147 7.6211L8.32702 7.6342L8.33757 7.65898ZM10.4441 10.0309L10.4262 10.0181L10.5955 9.89359C10.6518 9.90675 10.7089 9.91812 10.7668 9.92767C10.6608 9.9629 10.5533 9.9973 10.4441 10.0309ZM15.6103 7.47372L15.6447 7.42437L15.4502 7.24907L15.5063 7.2143L15.6807 7.37152C15.7826 7.22042 15.8775 7.06535 15.9654 6.90631C15.8276 7.00639 15.6746 7.10915 15.5063 7.2143L15.4903 7.19992L15.7685 6.94036L15.9956 6.77327L15.9703 6.75212L15.7685 6.94036L15.4568 7.16974L15.4903 7.19992L15.4438 7.24331L15.4502 7.24907L15.4427 7.25365L15.6103 7.47372ZM15.6103 7.47372L15.7245 7.62373L15.6666 7.66092L15.5686 7.53221C15.5826 7.51278 15.5965 7.49328 15.6103 7.47372ZM10.4441 10.0309L10.799 10.2837C10.7423 10.2827 10.6849 10.2816 10.6265 10.2803L10.5636 10.279L10.4395 10.0323L10.4441 10.0309ZM11.7161 10.937L11.7092 10.9782L11.7733 10.9778L11.7161 10.937ZM13.6313 10.729L13.5311 10.594C13.4809 10.605 13.4312 10.6156 13.3821 10.6259L13.341 10.7859C13.3812 10.7962 13.4207 10.8061 13.4595 10.8157C13.5307 10.7902 13.5877 10.7614 13.6313 10.729Z" fill="#FFE402"/>
</g>
</g>
</svg>
