<svg width="20" height="15" viewBox="0 0 20 15" fill="none" xmlns="http://www.w3.org/2000/svg">
<path d="M0 0V5H20V0L0 0Z" fill="#002488"/>
<path d="M0.000427246 5V15H20.0004V5L0.000427246 5Z" fill="#DA121A"/>
<path d="M3.4677 0.70834C3.22692 1.10541 3.19819 1.42302 3.36252 1.97146C3.44165 2.22739 3.52856 2.60959 3.56508 2.81678C3.61377 3.10928 3.60867 3.13709 3.61551 3.20069C3.67637 3.20069 3.81469 3.20092 3.87864 3.20053C3.88784 3.09927 3.89527 2.98238 3.91687 2.82165C3.94204 2.63424 4.01671 2.24229 4.09702 1.97005C4.2575 1.42602 4.24675 1.09225 3.99721 0.714434C3.90591 0.574277 3.78419 0.458496 3.72941 0.458496C3.67463 0.458496 3.55072 0.565505 3.4677 0.70834Z" fill="#FCDD09"/>
<path d="M3.99239 2.94089C3.97171 3.04566 3.96667 3.08264 3.9563 3.20072C4.03007 3.20102 4.05907 3.20152 4.13098 3.20109C4.14672 3.12166 4.15806 3.07972 4.19276 2.96697C4.3303 2.5309 4.73541 2.35589 4.71715 2.76417C4.71107 2.8769 4.66355 2.93985 4.61065 3.00028C4.67604 2.98396 4.8149 2.91907 4.9275 2.85509C5.5544 2.47728 5.30753 1.55151 4.6502 1.83182C4.30937 1.97807 4.10437 2.38294 3.99239 2.94089Z" fill="#FCDD09"/>
<path d="M3.25745 3.36524C3.53252 3.36683 4.00793 3.36968 4.23627 3.36809C4.23653 3.29184 4.23739 3.33075 4.23795 3.26914C4.06984 3.26732 3.42612 3.27032 3.25875 3.27032C3.25913 3.31019 3.25837 3.32949 3.25745 3.36524L3.25745 3.36524Z" fill="#FCDD09"/>
<path d="M3.08429 3.85255C3.08429 3.85255 3.22131 3.86797 3.3491 3.85864C3.47689 3.84931 3.54779 3.83334 3.62331 3.79661C3.60281 3.94907 3.60163 4.0963 3.60163 4.0963C3.62022 4.2925 3.64125 4.34271 3.68374 4.4382C3.7414 4.51786 3.77493 4.5183 3.81731 4.43418C3.86313 4.34 3.89328 4.24314 3.90285 4.09538C3.89952 3.98464 3.89334 3.93389 3.86714 3.79851C3.95556 3.83682 4.01141 3.84675 4.14332 3.85864C4.2783 3.87081 4.40237 3.86484 4.40237 3.86484C4.40237 3.86484 4.22004 3.77323 4.13978 3.66087C4.06056 3.54995 4.07746 3.56881 4.01986 3.42593C3.94986 3.42261 3.59499 3.42587 3.48239 3.42587C3.42072 3.55614 3.41452 3.58334 3.33835 3.66554C3.23919 3.77255 3.08429 3.85255 3.08429 3.85255Z" fill="#FCDD09"/>
<path d="M2.83727 1.83158C3.17811 1.97783 3.3831 2.3827 3.49508 2.94064C3.51576 3.04541 3.52081 3.0824 3.53118 3.20048C3.4574 3.20078 3.42841 3.20128 3.35649 3.20085C3.34075 3.12141 3.32941 3.07948 3.29472 2.96672C3.15717 2.53065 2.75206 2.35564 2.77032 2.76392C2.77641 2.87666 2.82393 2.9396 2.87682 3.00004C2.81144 2.98372 2.67257 2.91883 2.55997 2.85484C1.93308 2.47703 2.17994 1.55127 2.83727 1.83158V1.83158Z" fill="#FCDD09"/>
<path d="M9.76768 0.70834C9.52691 1.10541 9.49818 1.42302 9.66251 1.97146C9.74163 2.22739 9.82855 2.60959 9.86507 2.81678C9.91376 3.10928 9.90866 3.13709 9.9155 3.20069C9.97636 3.20069 10.1147 3.20092 10.1786 3.20053C10.1878 3.09927 10.1953 2.98238 10.2169 2.82165C10.242 2.63424 10.3167 2.24229 10.397 1.97005C10.5575 1.42602 10.5467 1.09225 10.2972 0.714434C10.2059 0.574277 10.0842 0.458496 10.0294 0.458496C9.97462 0.458496 9.8507 0.565505 9.76768 0.70834Z" fill="#FCDD09"/>
<path d="M10.9502 1.83182C10.6094 1.97807 10.4044 2.38294 10.2924 2.94089C10.2717 3.04566 10.2667 3.08264 10.2563 3.20072C10.3301 3.20102 10.3591 3.20152 10.431 3.20109C10.4467 3.12166 10.458 3.07972 10.4927 2.96697C10.6303 2.5309 11.0354 2.35589 11.0171 2.76417C11.0111 2.8769 10.9635 2.93985 10.9106 3.00028C10.976 2.98396 11.1149 2.91907 11.2275 2.85509C11.8544 2.47728 11.6075 1.55151 10.9502 1.83182V1.83182Z" fill="#FCDD09"/>
<path d="M9.55743 3.36524C9.83251 3.36683 10.3079 3.36968 10.5363 3.36809C10.5365 3.29184 10.5374 3.33075 10.5379 3.26914C10.3698 3.26732 9.72611 3.27032 9.55874 3.27032C9.55912 3.31019 9.55835 3.32949 9.55743 3.36524L9.55743 3.36524Z" fill="#FCDD09"/>
<path d="M9.63833 3.66554C9.53917 3.77255 9.38428 3.85255 9.38428 3.85255C9.38428 3.85255 9.5213 3.86797 9.64909 3.85864C9.77687 3.84931 9.84778 3.83334 9.9233 3.79661C9.9028 3.94907 9.90162 4.0963 9.90162 4.0963C9.9202 4.2925 9.94123 4.34271 9.98373 4.4382C10.0414 4.51786 10.0749 4.5183 10.1173 4.43418C10.1631 4.34 10.1933 4.24314 10.2028 4.09538C10.1995 3.98464 10.1933 3.93389 10.1671 3.79851C10.2555 3.83682 10.3114 3.84675 10.4433 3.85864C10.5783 3.87081 10.7024 3.86484 10.7024 3.86484C10.7024 3.86484 10.52 3.77323 10.4398 3.66087C10.3606 3.54995 10.3774 3.56881 10.3198 3.42593C10.2499 3.42261 9.89497 3.42587 9.78238 3.42587C9.72071 3.55614 9.71451 3.58334 9.63833 3.66554V3.66554Z" fill="#FCDD09"/>
<path d="M9.13726 1.83158C9.47809 1.97783 9.68309 2.3827 9.79507 2.94064C9.81575 3.04541 9.82079 3.0824 9.83116 3.20048C9.75739 3.20078 9.72839 3.20128 9.65648 3.20085C9.64074 3.12141 9.6294 3.07948 9.59471 2.96672C9.45716 2.53065 9.05205 2.35564 9.07031 2.76392C9.07639 2.87666 9.12392 2.9396 9.17681 3.00004C9.11143 2.98372 8.97256 2.91883 8.85996 2.85484C8.23307 2.47703 8.47993 1.55127 9.13726 1.83158V1.83158Z" fill="#FCDD09"/>
<path d="M16.0677 0.70834C15.8269 1.10541 15.7982 1.42302 15.9625 1.97146C16.0416 2.22739 16.1285 2.60959 16.1651 2.81678C16.2137 3.10928 16.2086 3.13709 16.2155 3.20069C16.2763 3.20069 16.4147 3.20092 16.4786 3.20053C16.4878 3.09927 16.4953 2.98238 16.5168 2.82165C16.542 2.63424 16.6167 2.24229 16.697 1.97005C16.8575 1.42602 16.8467 1.09225 16.5972 0.714434C16.5059 0.574277 16.3842 0.458496 16.3294 0.458496C16.2746 0.458496 16.1507 0.565505 16.0677 0.70834Z" fill="#FCDD09"/>
<path d="M17.2502 1.83182C16.9093 1.97807 16.7043 2.38294 16.5924 2.94089C16.5717 3.04566 16.5666 3.08264 16.5563 3.20072C16.63 3.20102 16.659 3.20152 16.731 3.20109C16.7467 3.12166 16.758 3.07972 16.7927 2.96697C16.9303 2.5309 17.3354 2.35589 17.3171 2.76417C17.311 2.8769 17.2635 2.93985 17.2106 3.00028C17.276 2.98396 17.4149 2.91907 17.5275 2.85509C18.1544 2.47728 17.9075 1.55151 17.2502 1.83182V1.83182Z" fill="#FCDD09"/>
<path d="M15.8574 3.36524C16.1325 3.36683 16.6079 3.36968 16.8362 3.36809C16.8365 3.29184 16.8374 3.33075 16.8379 3.26914C16.6698 3.26732 16.0261 3.27032 15.8587 3.27032C15.8591 3.31019 15.8583 3.32949 15.8574 3.36524L15.8574 3.36524Z" fill="#FCDD09"/>
<path d="M15.9383 3.66554C15.8392 3.77255 15.6843 3.85255 15.6843 3.85255C15.6843 3.85255 15.8213 3.86797 15.9491 3.85864C16.0769 3.84931 16.1478 3.83334 16.2233 3.79661C16.2028 3.94907 16.2016 4.0963 16.2016 4.0963C16.2202 4.2925 16.2412 4.34271 16.2837 4.4382C16.3414 4.51786 16.3749 4.5183 16.4173 4.43418C16.4631 4.34 16.4933 4.24314 16.5028 4.09538C16.4995 3.98464 16.4933 3.93389 16.4671 3.79851C16.5555 3.83682 16.6114 3.84675 16.7433 3.85864C16.8783 3.87081 17.0023 3.86484 17.0023 3.86484C17.0023 3.86484 16.82 3.77323 16.7398 3.66087C16.6605 3.54995 16.6774 3.56881 16.6198 3.42593C16.5498 3.42261 16.195 3.42587 16.0824 3.42587C16.0207 3.55614 16.0145 3.58334 15.9383 3.66554V3.66554Z" fill="#FCDD09"/>
<path d="M15.4372 1.83158C15.7781 1.97783 15.9831 2.3827 16.0951 2.94064C16.1157 3.04541 16.1208 3.0824 16.1312 3.20048C16.0574 3.20078 16.0284 3.20128 15.9565 3.20085C15.9407 3.12141 15.9294 3.07948 15.8947 2.96672C15.7571 2.53065 15.352 2.35564 15.3703 2.76392C15.3764 2.87666 15.4239 2.9396 15.4768 3.00004C15.4114 2.98372 15.2725 2.91883 15.1599 2.85484C14.5331 2.47703 14.7799 1.55127 15.4372 1.83158V1.83158Z" fill="#FCDD09"/>
<path d="M7.11821 8.27098C7.25036 8.33266 7.41909 8.38127 7.50419 8.38414C7.60475 8.38753 7.57806 8.36278 7.39036 8.28969C7.24344 8.23228 7.06773 8.13574 6.98974 8.07588C6.84991 7.96148 6.84991 7.96148 6.86457 8.06213C6.87294 8.11964 6.97833 8.20903 7.11821 8.27098Z" fill="#008000"/>
<path d="M6.29622 7.08202C6.38143 7.42327 6.73444 8.05093 6.85617 8.0753C6.96572 8.09359 6.96572 8.08749 6.87443 7.9839C6.72227 7.80718 6.3936 7.16124 6.3936 7.03937C6.3936 6.97233 6.36317 6.92358 6.32665 6.92358C6.28405 6.92358 6.27188 6.98452 6.29622 7.08202Z" fill="#008000"/>
<path d="M4.07123 8.09269C3.96776 8.17191 3.97385 8.178 4.19904 8.14144C4.33294 8.12316 4.52771 8.08659 4.62509 8.06222C4.78334 8.01956 4.77116 8.01347 4.49728 8.00738C4.31469 8.00128 4.14427 8.03784 4.07123 8.09269Z" fill="#008000"/>
<path d="M2.55918 7.45201C3.56343 7.63482 5.57801 8.31123 5.45628 8.42701C5.42585 8.45748 4.85982 8.31732 4.7807 8.26248C4.75027 8.23201 4.45203 8.2442 4.12337 8.28685C3.50865 8.35389 3.40518 8.40873 3.41735 8.65857C3.42344 8.78045 3.42344 8.78045 3.45387 8.65857C3.50865 8.4331 3.59994 8.38435 3.94687 8.38435C4.32422 8.38435 5.3589 8.5367 5.81538 8.65857C6.42402 8.8292 6.44228 8.8292 6.24143 8.71951C5.97971 8.57326 5.5841 8.30514 5.51106 8.22592C5.37716 8.07357 2.9487 7.40326 2.59569 7.41545C2.43136 7.42763 2.42528 7.42763 2.55918 7.45201Z" fill="#008000"/>
<path d="M6.1232 8.15275C6.1719 8.23806 6.64663 8.47572 6.68315 8.43915C6.70141 8.42087 6.64663 8.37212 6.5736 8.32947C6.49447 8.28681 6.391 8.21978 6.3484 8.17103C6.25102 8.07962 6.06843 8.06134 6.1232 8.15275Z" fill="#008000"/>
<path d="M6.15983 8.73173C6.20852 8.81704 6.68325 9.0547 6.71977 9.01813C6.73803 8.99985 6.68325 8.9511 6.61022 8.90845C6.53109 8.86579 6.42763 8.79876 6.38502 8.75001C6.28764 8.6586 6.10505 8.64032 6.15983 8.73173Z" fill="#008000"/>
<path d="M5.4794 8.00614C5.48816 7.99768 5.6251 8.04317 5.78757 8.10634C5.95003 8.16951 6.1599 8.22921 6.25019 8.23509C6.40933 8.24218 6.97283 8.51061 6.9674 8.57515C6.96635 8.63547 6.11432 8.37493 5.81566 8.22319C5.4572 8.04454 5.44875 8.03577 5.4794 8.00614Z" fill="#008000"/>
<path d="M6.48751 8.45155C6.37397 8.49548 6.25978 8.57494 6.2243 8.63179C6.18238 8.69897 6.21786 8.69961 6.3643 8.62596C6.47913 8.56846 6.64493 8.5213 6.7359 8.51354C6.90622 8.50512 6.90622 8.50512 6.79783 8.43731C6.73589 8.39856 6.60428 8.40245 6.48751 8.45155Z" fill="#008000"/>
<path d="M3.63912 6.39779C3.82779 6.75732 4.59467 7.58607 5.02072 7.90294C5.13636 7.98826 5.3433 8.07357 5.47111 8.09185L5.70848 8.12841L5.53197 7.93341C5.24592 7.62263 4.8077 7.02544 4.66771 6.76341C4.51555 6.477 4.49729 6.55013 4.62511 6.91576C4.6738 7.06201 4.86856 7.35451 5.05724 7.56169C5.24592 7.77498 5.36764 7.95169 5.33721 7.95169C5.25809 7.95169 4.74683 7.34841 4.38165 6.82435C3.98604 6.25154 3.96778 6.23325 4.07733 6.55013C4.13211 6.70247 4.25384 6.92794 4.35731 7.04982C4.45469 7.17779 4.51555 7.28138 4.48512 7.28138C4.42426 7.28138 4.15646 6.97669 3.82171 6.53794C3.73041 6.40997 3.6026 6.24544 3.54782 6.17232C3.48696 6.0931 3.52956 6.19669 3.63912 6.39779Z" fill="#008000"/>
<path d="M6.21813 9.45943C5.75941 9.37751 5.54125 9.4507 5.35571 9.73701L5.19739 9.98291L5.401 9.78965C5.67761 9.52073 5.87863 9.49478 6.37583 9.63944C6.60842 9.70831 6.80568 9.75332 6.81249 9.74321C6.84992 9.68764 6.45764 9.49622 6.21813 9.45943Z" fill="#008000"/>
<path d="M6.34315 9.5874C5.91711 9.77631 5.77712 9.95912 5.78321 10.3004L5.7893 10.5929L5.85016 10.3187C5.92928 9.94084 6.08144 9.80678 6.57444 9.64834C6.80572 9.57522 6.9944 9.50209 6.9944 9.4899C6.9944 9.42287 6.56226 9.48381 6.34315 9.5874Z" fill="#008000"/>
<path d="M6.26227 10.1106C6.18924 10.2081 6.13446 10.336 6.13446 10.4031C6.13446 10.4823 6.16489 10.464 6.2501 10.3238C6.31705 10.2142 6.43269 10.0862 6.50573 10.0313C6.64571 9.93384 6.64571 9.93384 6.5179 9.93384C6.44486 9.93384 6.33531 10.007 6.26227 10.1106Z" fill="#008000"/>
<path d="M12.8426 11.1036C13.0403 11.1894 14.0656 11.4483 14.7912 11.661C15.5167 11.8737 16.3649 12.1186 16.5527 12.145C16.8211 11.5594 16.3327 12.6548 16.6114 11.9909C16.2491 11.8985 14.8208 11.5621 14.2477 11.3972C13.7536 11.2587 13.0526 11.0426 12.8731 11.003C12.6936 10.9634 12.6911 11.0377 12.8426 11.1036Z" fill="#008000"/>
<path d="M12.968 10.9517C13.1685 11.0305 14.2023 11.2534 14.9348 11.4406C15.6673 11.6279 16.5236 11.843 16.7121 11.8628C16.9599 11.2681 16.51 12.3799 16.7654 11.7067C16.4001 11.6271 14.961 11.3407 14.3824 11.1959C13.8838 11.0748 13.1757 10.8833 12.995 10.85C12.8142 10.8168 12.8143 10.891 12.968 10.9517Z" fill="#008000"/>
<path d="M12.6842 11.2141C12.8771 11.3101 13.8875 11.6224 14.6009 11.8728C15.3143 12.1233 16.1486 12.4123 16.3347 12.4485C16.6333 11.8777 16.0883 12.9461 16.4014 12.2976C16.0444 12.1864 14.6357 11.7756 14.0719 11.5809C13.5858 11.4167 12.8971 11.1642 12.7198 11.1152C12.5426 11.0663 12.5363 11.1403 12.6842 11.2141Z" fill="#008000"/>
<path d="M12.5611 11.3389C12.7487 11.4449 13.7414 11.8097 14.4407 12.0972C15.1401 12.3847 15.9581 12.717 16.1421 12.7629C16.4701 12.2085 15.87 13.2468 16.2166 12.6157C15.8659 12.486 14.4806 12.0019 13.9278 11.7779C13.4508 11.5884 12.7763 11.3002 12.6019 11.242C12.4275 11.1839 12.4173 11.2575 12.5611 11.3389Z" fill="#008000"/>
<path d="M12.4451 11.4961C12.6289 11.6086 13.6084 12.0079 14.2972 12.3196C14.9861 12.6314 15.7921 12.9921 15.9744 13.0444C16.3215 12.5018 15.6856 13.5185 16.0539 12.8999C15.7079 12.758 14.3404 12.2258 13.7957 11.9826C13.3257 11.7766 12.6616 11.465 12.4893 11.4008C12.317 11.3365 12.3043 11.4097 12.4451 11.4961Z" fill="#008000"/>
<path d="M10.392 13.0757C10.6746 13.2728 10.83 13.5468 10.8146 13.8295L10.8042 14.063L10.8969 13.8332C10.9984 13.5928 10.9844 13.2288 10.8646 12.9592L10.7946 12.802L11.0167 12.8988C11.3341 13.0328 11.543 13.2684 11.5866 13.5482L11.6249 13.7788L11.6679 13.5347C11.7172 13.2783 11.6281 12.9253 11.4548 12.6866L11.3537 12.5473L11.5911 12.5957C11.9293 12.6607 12.1825 12.8477 12.2834 13.1123L12.3687 13.3299L12.3601 13.0822C12.3551 12.8212 12.1945 12.4944 11.9754 12.2969L11.8477 12.1817L12.0899 12.1798C12.4342 12.173 12.7208 12.3031 12.8744 12.541L13.0029 12.736L12.9431 12.4955C12.8841 12.2414 12.6591 11.9552 12.4038 11.8076L12.2549 11.7215L12.4915 11.6692C12.8268 11.5908 13.1342 11.6585 13.3338 11.8592L13.5 12.0232L13.3915 11.8004C13.281 11.5641 13.0016 11.3308 12.7212 11.2397L12.5577 11.1865L12.7782 11.0861C13.0899 10.9396 13.4046 10.9418 13.6415 11.0965L13.8383 11.2224L13.6859 11.027C13.5287 10.8188 13.2069 10.649 12.9137 10.6182L12.7428 10.6002L12.9376 10.456C13.2121 10.2479 13.5204 10.1845 13.7843 10.2866L14.0028 10.3686L13.8132 10.2093C13.6162 10.0384 13.2662 9.93922 12.973 9.97012L12.8021 9.98806L12.9627 9.80649C13.188 9.54576 13.4764 9.4196 13.7557 9.46456L13.9865 9.4993L13.7679 9.38298C13.5397 9.25682 13.1768 9.23265 12.8964 9.32384L12.7329 9.37699L12.8522 9.16602C13.0185 8.86406 13.2744 8.68064 13.5569 8.66638L13.7899 8.6524L13.5519 8.58411C13.3025 8.50822 12.9425 8.56017 12.6872 8.70766L12.5383 8.79373L12.6113 8.56248C12.7112 8.23254 12.9234 7.9999 13.1968 7.92715L13.4218 7.86494L13.1749 7.84768C12.9152 7.82532 12.5738 7.95102 12.3547 8.1485L12.2269 8.2637L12.2503 8.02234C12.2795 7.67872 12.4387 7.40704 12.6911 7.27892L12.8983 7.17128L12.6531 7.20575C12.3944 7.23795 12.0866 7.43201 11.9134 7.67076L11.8123 7.81006L11.7851 7.56908C11.7423 7.227 11.8416 6.92796 12.0618 6.75023L12.2421 6.60178L12.0094 6.68652C11.7631 6.77187 11.5024 7.02576 11.3825 7.29536L11.3125 7.45269L11.2358 7.22262C11.1229 6.89691 11.158 6.58376 11.3365 6.36407L11.482 6.18135L11.2721 6.31262C11.0488 6.44738 10.8465 6.75 10.7852 7.03867L10.7494 7.2071L10.6266 6.99809C10.4485 6.70289 10.4178 6.3894 10.5468 6.13727L10.6512 5.92826L10.4731 6.10034C10.2827 6.27869 10.1476 6.61689 10.1476 6.91197V7.08409L9.98408 6.90521C9.74865 6.65366 9.6535 6.35327 9.72727 6.07986L9.78592 5.85364L9.64748 6.05915C9.49829 6.27311 9.43638 6.63203 9.49768 6.92077L9.53337 7.08912L9.33628 6.94817C9.05369 6.75108 8.89828 6.47713 8.91367 6.1943L8.92407 5.96081L8.83131 6.19065C8.72986 6.43105 8.74384 6.79496 8.86366 7.06457L8.93359 7.22189L8.71152 7.12505C8.39419 6.99109 8.18524 6.7555 8.1416 6.4757L8.10333 6.24514L8.06035 6.48919C8.01103 6.74543 8.10019 7.09858 8.27352 7.33733L8.37453 7.47655L8.13722 7.42805C7.79901 7.36307 7.54574 7.17616 7.44491 6.91147L7.35959 6.69393L7.36822 6.94164C7.37317 7.2026 7.5338 7.52939 7.75284 7.72683L7.88061 7.84204L7.63839 7.844C7.29407 7.85084 7.00748 7.72068 6.85392 7.48285L6.7253 7.28779L6.78518 7.52824C6.84421 7.78247 7.06916 8.06872 7.32443 8.21628L7.47331 8.30236L7.23681 8.35466C6.90143 8.43301 6.59408 8.36542 6.3945 8.16471L6.22819 8.0007L6.3367 8.22347C6.44723 8.45984 6.72672 8.69294 7.00706 8.78413L7.1706 8.83735L6.9501 8.93776C6.63833 9.08428 6.32365 9.08202 6.08672 8.92727L5.88998 8.80146L6.04235 8.99675C6.19956 9.20495 6.52135 9.3748 6.8145 9.40565L6.98549 9.42368L6.79067 9.56778C6.51613 9.77598 6.20785 9.83931 5.94398 9.73725L5.7254 9.6552L5.915 9.81449C6.11201 9.98545 6.46205 10.0846 6.7552 10.0537L6.92619 10.0358L6.76557 10.2173C6.54027 10.4781 6.25187 10.6042 5.97258 10.5593L5.74175 10.5245L5.96033 10.6409C6.18855 10.7671 6.55151 10.7912 6.83185 10.7L6.99539 10.6468L6.87599 10.8579C6.70976 11.1598 6.45387 11.3433 6.17135 11.3574L5.93834 11.3714L6.1763 11.4397C6.4257 11.5156 6.78575 11.4637 7.04103 11.3162L7.18994 11.23L7.11698 11.4613C7.01708 11.7913 6.80491 12.024 6.53148 12.0967L6.30645 12.1589L6.5534 12.1762C6.81312 12.1985 7.15452 12.0728 7.37356 11.8753L7.50133 11.7601L7.47795 12.0016C7.44878 12.3451 7.28954 12.6168 7.03719 12.7449L6.83001 12.8526L7.07515 12.8181C7.33383 12.7859 7.64165 12.5918 7.8149 12.353L7.91596 12.2138L7.94325 12.4548C7.98604 12.7969 7.88671 13.0958 7.66648 13.2736L7.48617 13.4221L7.7188 13.3373C7.96512 13.252 8.22592 12.998 8.34582 12.7285L8.41572 12.5712L8.49244 12.8012C8.60536 13.127 8.57028 13.44 8.39177 13.6598L8.24623 13.8425L8.45617 13.7112C8.67939 13.5765 8.88178 13.2738 8.94307 12.9851L8.9788 12.8168L9.10162 13.0258C9.27971 13.3209 9.31042 13.6345 9.18146 13.8866L9.07706 14.0956L9.25515 13.9234C9.44552 13.7452 9.58062 13.407 9.58062 13.1119V12.9397L9.74416 13.1186C9.97959 13.3702 10.0747 13.6706 10.001 13.944L9.94228 14.1702L10.0807 13.9647C10.2299 13.7507 10.2918 13.3918 10.2306 13.1031L10.1948 12.9348L10.392 13.0757Z" fill="#FCDD09"/>
</svg>
