<svg width="16" height="12" viewBox="0 0 16 12" fill="none" xmlns="http://www.w3.org/2000/svg">
<mask id="mask0" mask-type="alpha" maskUnits="userSpaceOnUse" x="0" y="0" width="16" height="12">
<rect width="16" height="12" fill="white"/>
</mask>
<g mask="url(#mask0)">
<path fill-rule="evenodd" clip-rule="evenodd" d="M0 0H16V12H0V0Z" fill="#2B409A"/>
<path d="M11.7518 3.41209C11.7518 3.41209 11.5305 3.12107 11.5305 3.05466" stroke="#CDAD56" stroke-width="0.25" stroke-linecap="round"/>
<path d="M11.9305 3.41209C11.9305 3.41209 12.1518 3.12107 12.1518 3.05466" stroke="#CDAD56" stroke-width="0.25" stroke-linecap="round"/>
<path d="M12.159 9.27566C12.1282 9.27566 12.0168 9.21561 12.0168 9.21561C12.0168 9.21561 11.936 9.34342 11.8937 9.35081C11.8514 9.35836 11.6323 9.27205 11.6323 9.27205C11.6323 9.27205 11.4785 9.39216 11.4439 9.38461C11.4093 9.37722 11.0556 9.30208 11.0556 9.30208L10.8633 9.18181C10.8633 9.18181 10.7557 9.35458 10.7518 9.35081C10.748 9.34704 10.4289 9.28698 10.4289 9.28698C10.4289 9.28698 10.525 9.15555 10.525 9.15178C10.525 9.148 10.4789 9.13291 10.4789 9.13291L10.4097 9.18935L10.1252 9.21561L10.1944 9.02019L10.3059 8.85496L11.6707 7.55872L12.3435 8.77226L12.2436 9.13668C12.2436 9.13668 12.1897 9.27566 12.159 9.27566Z" fill="#6A4C2D"/>
<path d="M10.8552 9.0304C10.9028 9.08788 11.529 9.72802 11.6305 10.0309C11.732 10.3337 10.807 9.94688 10.807 9.94688C10.807 9.94688 11.9718 9.19031 12.5537 9.19031C13.1355 9.19031 14.2791 9.94688 14.2791 9.94688C14.2791 9.94688 13.5117 10.4873 13.5196 10.1465C13.5275 9.80578 13.8798 9.1345 14.3003 9.0304" stroke="#FFBB00" stroke-width="0.5" stroke-linecap="round" stroke-linejoin="round"/>
<path d="M14.8902 9.05835V8.67789L13.7088 8.73286L13.0693 8.55835L12.7996 8.7382L12.9448 8.92781L13.2996 9.05835H14.8902Z" fill="#F7FCFF"/>
<g filter="url(#filter0_d)">
<path d="M11.9694 4.93296C11.9759 4.94934 12.119 4.92029 12.1494 5.00597C12.3033 4.77864 12.484 4.99544 12.484 4.99544L12.636 4.81543L12.8077 4.97799L12.9652 4.96573L13.1298 5.35201L11.831 5.32764C11.831 5.32764 11.9629 4.91658 11.9694 4.93296Z" fill="#656263"/>
</g>
<path d="M13.3157 6.57689C13.3052 6.45457 13.1968 6.44027 13.1363 6.44436C13.0757 6.44844 13.0215 6.49938 13.0215 6.49938L12.8212 6.37502C12.8212 6.37502 12.9214 5.75717 13.0277 5.71849C13.1288 5.64727 13.1466 5.61646 13.1466 5.60027C13.1466 5.58392 13.1091 5.51772 13.1091 5.51772L12.456 5.44226L11.8383 5.51364C11.8383 5.51364 11.7904 5.61033 11.7967 5.63894C11.8029 5.6674 11.805 5.69805 11.9156 5.78169C12.038 5.87366 12.1221 6.40159 12.1221 6.40159C12.1221 6.40159 11.949 6.48507 11.9386 6.47485C11.9281 6.46479 11.876 6.45457 11.8488 6.45866C11.8218 6.46275 11.732 6.50756 11.732 6.62374C11.732 6.74008 11.8218 6.80737 11.8218 6.80737C11.8218 6.80737 12.4122 7.24008 12.4999 7.39902C12.5855 7.20738 13.1466 6.77466 13.2134 6.74196C13.2406 6.72577 13.3262 6.6992 13.3157 6.57689Z" fill="#656263"/>
<path d="M13.905 6.0007C13.9541 5.96879 14.2809 5.95275 14.3594 6.0007C14.4377 6.04866 14.6404 6.12569 14.6436 6.18638C14.6469 6.24706 14.7807 6.3573 14.7807 6.3573C14.7807 6.3573 15.0113 6.84295 15.0145 7.14308C15.044 7.34746 15.0374 7.89347 14.9558 8.10099C14.9524 8.35977 14.6208 8.54901 14.6208 8.54901C14.6208 8.54901 14.6469 8.59365 14.6436 8.64161C14.6403 8.68956 14.6142 8.73421 14.6142 8.73421L14.3692 8.83954L14.0979 8.79489L13.7906 7.89751L13.8626 6.38069L13.8822 6.30413L13.8495 6.09975C13.8495 6.09975 13.8561 6.03262 13.905 6.0007Z" fill="black"/>
<path d="M12.131 6.79709C12.131 6.79709 12.4616 6.79709 12.4973 6.90195C12.5599 6.76219 12.8458 6.77099 12.8458 6.77099C13.0186 6.76517 13.1914 6.75936 13.364 6.75354C13.367 7.16104 13.3699 7.56854 13.373 7.97605C13.2718 8.45036 12.9203 8.78523 12.533 8.92783C12.0713 8.78224 11.7795 8.401 11.6842 7.96724C11.6662 7.58018 11.6484 7.19296 11.6305 6.80589C11.7973 6.80291 11.9642 6.80008 12.131 6.79709Z" fill="#F7FCFF"/>
<path d="M11.8088 6.80124L12.5377 8.69945L13.1962 6.75989C12.9919 6.77278 12.5537 6.72844 12.4993 6.9105C12.415 6.74762 11.9539 6.81334 11.8088 6.80124V6.80124Z" fill="#006B00"/>
<path fill-rule="evenodd" clip-rule="evenodd" d="M12.6537 6.93894C12.6537 6.93894 12.72 7.1119 12.6537 7.19752C12.5874 7.28314 12.6592 7.35328 12.6992 7.35328C12.7392 7.35328 12.8765 7.48924 12.7651 7.48924C12.6537 7.48924 12.5908 7.44692 12.5908 7.56641C12.5908 7.68591 12.7303 8.14456 12.7303 8.00427C12.7303 7.86397 12.7651 7.70783 12.7651 7.70783C12.7651 7.70783 12.8236 7.75169 12.782 7.91186C12.7404 8.07203 12.5492 8.3044 12.5014 8.3135C12.4536 8.32261 12.3802 8.39714 12.3704 8.25964C12.3606 8.12215 12.3213 8.05779 12.3529 8.03103C12.3846 8.00427 12.4267 7.90861 12.4402 7.98383C12.4538 8.05905 12.3943 8.13092 12.404 8.15802C12.4137 8.18511 12.4191 8.24651 12.4603 8.19508C12.5014 8.14365 12.5256 8.05886 12.5564 8.13747C12.5872 8.21608 12.5878 8.15404 12.5241 8.00427C12.4603 7.85449 12.4061 7.77119 12.4137 7.6397C12.4214 7.50821 12.411 7.45896 12.4214 7.4167C12.4317 7.37443 12.3071 7.1686 12.3387 7.10933C12.3704 7.05006 12.3825 6.85871 12.4214 6.89315C12.4603 6.9276 12.4803 6.97385 12.4603 7.02536C12.4402 7.07687 12.4202 7.12805 12.4402 7.16278C12.4603 7.19752 12.529 7.29783 12.5427 7.2726C12.5564 7.24737 12.6027 7.27177 12.6027 7.12891C12.6027 6.98605 12.5511 6.93582 12.5836 6.90191C12.6161 6.868 12.6537 6.93894 12.6537 6.93894Z" fill="#FFD100"/>
<path d="M13.2004 6.76029L13.2987 6.75793L13.1232 6.97521L13.3338 7.21543L12.9195 7.72544L13.3104 8.18513C13.2675 8.28811 13.2176 8.38181 13.1512 8.46655L12.9266 8.22397L13.3338 7.7278L12.9991 7.35724L13.2004 6.76029Z" fill="#1E5AA6"/>
<path d="M11.6907 6.80607L11.8873 7.01406L11.6791 7.26797L12.112 7.72782L11.7539 8.19664C11.7969 8.29961 11.8585 8.41391 11.9248 8.49849L12.1378 8.23547L11.7002 7.75974L12.0208 7.36182L11.7961 6.80371L11.6907 6.80607Z" fill="#1E5AA6"/>
<path d="M14.1927 6.42554C14.1927 6.45746 14.2275 8.34158 14.2657 8.3236C14.3604 8.27879 14.3822 8.37658 14.3822 8.37658C14.3822 8.37658 14.4149 8.68646 14.3332 8.72796C14.1861 8.80452 14.1218 8.82141 14.1218 8.82141L13.9804 8.71837C13.9804 8.71837 13.8365 8.51713 13.8039 8.42768C13.7712 8.33838 13.732 7.93921 13.745 7.8529C13.758 7.76675 13.7678 7.26209 13.7614 7.23662C13.7548 7.21099 13.7287 6.7895 13.745 6.72567C13.7614 6.66184 13.8626 6.38074 13.8594 6.38074C13.8594 6.38074 14.1927 6.39363 14.1927 6.42554Z" fill="url(#paint0_linear)"/>
<path d="M13.8659 6.1029C13.9345 6.1029 13.9868 6.16045 14.0032 6.21154C14.0064 6.23386 13.9966 6.2499 13.9998 6.29141C14.0032 6.33291 13.5032 6.30084 13.4999 6.29769C13.4999 6.29769 13.7319 6.07744 13.8659 6.1029Z" fill="#FF7000"/>
<path d="M14.2045 6.25508C14.2045 6.28269 14.1821 6.30508 14.1545 6.30508C14.1269 6.30508 14.1045 6.28269 14.1045 6.25508C14.1045 6.22746 14.1269 6.20508 14.1545 6.20508C14.1821 6.20508 14.2045 6.22746 14.2045 6.25508Z" fill="black"/>
<path d="M12.9103 5.95435C12.9103 5.95435 13.1706 6.22963 13.339 6.22664C13.3696 6.30745 13.2625 6.3826 13.2197 6.41844C13.1339 6.39156 13.0564 6.42332 12.8574 6.18404C12.8697 6.03138 12.9133 5.96032 12.9103 5.95435Z" fill="#F7FCFF"/>
<path d="M13.9452 4.56897C13.9697 4.74552 14.3845 4.96216 14.5038 4.81548C14.4916 4.88136 14.514 5.08676 13.8831 5.08377C14.1221 5.30529 13.6452 5.54449 13.5104 5.49057C13.7584 5.30505 13.4401 5.19437 13.2625 5.31401C13.2961 5.21229 13.5442 4.70072 13.9452 4.56897Z" fill="#F7FCFF"/>
<path fill-rule="evenodd" clip-rule="evenodd" d="M13.5251 5.80835C13.4778 5.61391 13.4549 5.39053 13.5595 5.30511C13.4216 5.21236 13.2716 5.3081 13.2716 5.3081C13.2706 5.31042 13.2678 5.31434 13.2638 5.31987C13.2317 5.36416 13.1246 5.51224 13.2716 5.7782C12.8797 5.67648 13.0437 6.03223 13.0726 6.05912C13.0879 6.00221 13.2961 5.94844 13.3482 6.23866C13.3657 6.29746 13.2602 6.38228 13.2263 6.4095C13.2188 6.41554 13.2148 6.41874 13.2165 6.4182C13.2165 6.4182 13.5481 6.48552 13.591 6.04736C13.6478 6.01357 13.9229 5.83014 13.9145 5.4518C13.6617 5.45699 13.55 5.73548 13.5251 5.80835Z" fill="#F7FCFF"/>
<path d="M12.0438 6.03223C12.0438 6.03223 11.7898 6.24761 11.6458 6.17875C11.5387 6.24164 11.4131 6.13096 11.4131 6.13096C11.4131 6.13096 11.5601 6.66046 12.0868 6.27748C12.0776 6.16083 12.0499 6.04119 12.0438 6.03223Z" fill="#F7FCFF"/>
<path d="M11.6427 6.16978C11.6641 6.0591 11.7529 6.00517 11.8234 6.10988C11.9183 6.12796 12.0132 5.74797 11.6763 5.8107C11.7713 5.31405 11.4866 5.12854 11.4866 5.12854C11.4866 5.12854 11.3856 5.67911 11.4315 5.78083C11.4774 5.88254 11.3641 5.59232 10.9998 5.51152C10.9936 5.92751 11.407 6.12198 11.407 6.12198C11.407 6.12198 11.5233 6.22669 11.6427 6.16978Z" fill="#F7FCFF"/>
<path d="M11.2983 5.56935C11.1911 5.6022 10.9305 5.44509 11.0958 5.2415C10.5539 5.22955 10.2589 4.7717 10.4395 4.859C10.6201 4.94631 10.7492 4.76027 10.8839 4.859C10.7185 4.70949 10.9416 4.58984 10.9416 4.58984C10.9416 4.58984 11.4039 4.72458 11.4866 5.12548C11.459 5.2033 11.4468 5.34086 11.4407 5.33489C11.4407 5.3319 11.1544 5.32991 11.2983 5.56935Z" fill="#F7FCFF"/>
<path d="M12.3481 3.43427C12.2796 3.65953 12.0326 3.57407 12.0326 3.57407C12.0326 3.57407 12.0408 3.68681 12.0162 3.7409C12.0365 3.75769 12.1825 3.88417 12.3358 3.91679C12.5563 3.96371 13.0078 3.83535 13.1594 4.025C13.311 4.21465 13.303 4.36773 13.303 4.36773C13.303 4.36773 13.1057 4.3931 13.1606 4.47132C13.1962 4.52211 13.2943 4.55985 13.303 4.61235C13.3307 4.77944 13.2105 5.08008 13.2537 5.19302C13.1854 5.19989 13.1801 5.27856 13.1801 5.27856C13.1762 5.36789 12.9792 5.31481 12.9792 5.31481C12.9792 5.31481 13.1021 4.96745 13.1103 4.88641C13.1185 4.80514 13.0242 4.66083 12.9505 4.66083C12.8767 4.66083 12.8235 4.91792 12.8235 4.91792C12.8235 4.91792 12.7867 5.11175 12.7989 5.12976C12.8112 5.14776 12.7496 5.06673 12.7496 5.06673C12.7496 5.06673 12.7303 5.14546 12.6986 5.19302C12.6629 5.24652 12.6144 5.26956 12.6144 5.26956C12.6144 5.26956 12.5776 5.15227 12.5899 5.10725C12.6021 5.06222 12.7908 4.88641 12.7744 4.76012C12.7671 4.70438 12.7606 4.60709 12.6986 4.57481C12.6201 4.53395 12.4762 4.56375 12.3892 4.54359C12.3414 4.63524 12.3194 5.13876 12.3521 5.17051C12.3851 5.20202 12.2703 5.26956 12.2703 5.26956L12.1351 5.27406C12.1329 5.20582 12.2148 5.01934 12.2148 4.86153C12.2148 4.70372 12.2251 4.53459 12.2251 4.53459C12.2251 4.53459 12.1342 4.56035 12.0858 4.66083C12.0452 4.74509 12.0452 4.90434 12.049 4.92693C12.0572 4.97645 12.0981 5.11625 12.0858 5.157C12.0735 5.19752 11.8606 5.25155 11.8606 5.25155L11.8522 5.12075C11.8522 5.12075 11.9424 5.05772 11.9424 4.89991C11.9424 4.74211 11.9506 4.51653 11.9465 4.50303C11.944 4.49491 11.8727 4.14957 11.7788 3.91679C11.7162 3.76154 11.6196 3.69041 11.6147 3.67778C11.6024 3.64622 11.6024 3.61013 11.6024 3.61013C11.6024 3.61013 11.467 3.71837 11.3072 3.48839C11.4536 3.35088 11.6106 3.4523 11.6106 3.4523C11.6106 3.4523 11.6515 3.32603 11.8399 3.33506C12.0285 3.34408 12.0653 3.46133 12.0572 3.4478C12.0572 3.4478 12.1965 3.3125 12.3481 3.43427Z" fill="#923F00"/>
<path d="M11.8139 5.68169L12.4581 6.0936L13.0382 5.71235C13.0382 5.71235 13.1592 5.64711 13.1487 5.60026C13.1384 5.55325 13.0966 5.57164 13.0757 5.57982C13.0549 5.58799 12.4685 5.99377 12.4685 5.99377L11.8446 5.60827C11.8446 5.60827 11.7988 5.59412 11.7904 5.62258C11.7821 5.65119 11.8076 5.66739 11.8139 5.68169Z" fill="#B4B6B9"/>
<path d="M13.9734 8.71368C13.9734 8.71368 13.7337 8.69761 13.7703 8.76702C13.7907 8.80553 14.1081 8.80109 14.1081 8.80109L13.9734 8.71368Z" fill="#FF7000"/>
<path d="M14.0875 8.80667L13.8375 8.81375C13.8375 8.81375 13.7746 8.86956 13.7706 8.88292C13.7667 8.89644 13.8119 8.90022 13.8119 8.90022C13.8119 8.90022 14.0698 8.96578 14.2649 8.92333C14.3634 8.88968 14.3806 8.84928 14.3116 8.82475C14.2427 8.80023 14.0894 8.80762 14.0875 8.80667Z" fill="#FF7000"/>
<path d="M11.1953 6.49484C11.1953 6.49484 11.1628 6.59483 11.1953 6.64482C11.2279 6.69482 11.4325 7.09933 11.4325 7.09933C11.4325 7.09933 11.5721 6.93111 11.6233 6.92655C11.6744 6.92215 11.6511 7.36298 11.6511 7.36298C11.6511 7.36298 11.5674 7.44018 11.5163 7.43562C11.4651 7.43106 11.6418 7.6084 11.6371 7.75838C11.6324 7.90836 11.4046 8.65372 11.3209 8.66724C11.2372 8.68092 11.1649 8.52689 11.1649 8.39377C11.1649 8.26064 11.2511 8.04923 11.2465 7.99011C11.2419 7.931 10.8305 8.62359 10.8056 8.73173C10.8009 8.75223 10.8279 8.82634 10.8279 8.82634C10.8279 8.82634 10.6667 8.83955 10.7024 9.04456C10.228 8.8809 9.46888 8.78468 9.47353 8.49839C9.47532 8.38864 9.65602 7.68409 9.75888 7.39904C9.92447 6.94012 10.505 6.66828 10.5078 6.61785C10.5125 6.53594 10.545 6.49962 10.5497 6.45419C10.5543 6.40875 10.6 6.18576 10.6465 6.14488C10.6931 6.104 10.9349 6.00401 10.9953 6.00857C11.0558 6.01313 11.107 6.05401 11.107 6.05401C11.107 6.05401 11.3349 6.05401 11.3488 6.14032C11.3628 6.22679 11.3023 6.25855 11.3023 6.25855C11.3023 6.25855 11.3349 6.38133 11.1953 6.49484Z" fill="#8A9396"/>
<path d="M11.331 9.07276C11.4079 9.1259 11.5853 9.15734 11.5853 9.15734C11.5853 9.15734 11.1494 9.27478 10.7064 9.04682C10.6659 8.86932 10.8014 8.8297 10.835 8.82829C10.9132 8.80785 11.2542 9.01946 11.331 9.07276Z" fill="#2B2B2B"/>
<mask id="mask1" mask-type="alpha" maskUnits="userSpaceOnUse" x="0" y="0" width="9" height="8">
<rect y="0.199951" width="9" height="7" fill="white"/>
</mask>
<g mask="url(#mask1)">
<path d="M-1.00214 6.69988L0.978339 7.56848L9.04494 1.14434L10.0896 -0.146423L7.97176 -0.436735L4.68159 2.33161L2.03334 4.19683L-1.00214 6.69988Z" fill="#F7FCFF"/>
<path d="M-0.731018 7.30844L0.277943 7.8125L9.71445 -0.266357H8.29775L-0.731018 7.30844Z" fill="#F50100"/>
<path d="M10.0021 6.69988L8.02166 7.56848L-0.0449371 1.14434L-1.08959 -0.146423L1.02824 -0.436735L4.31841 2.33161L6.96666 4.19683L10.0021 6.69988Z" fill="#F7FCFF"/>
<path d="M9.93457 7.13656L8.92561 7.64062L4.90745 4.18165L3.71615 3.79518L-1.1901 -0.142083H0.226597L5.13009 3.70173L6.43256 4.16514L9.93457 7.13656Z" fill="#F50100"/>
<mask id="path-37-outside-1" maskUnits="userSpaceOnUse" x="-1" y="-0.800049" width="11" height="9" fill="black">
<rect fill="white" x="-1" y="-0.800049" width="11" height="9"/>
<path fill-rule="evenodd" clip-rule="evenodd" d="M4.99226 0.199951H3.99226V3.19995H0V4.19995H3.99226V7.19995H4.99226V4.19995H9V3.19995H4.99226V0.199951Z"/>
</mask>
<path fill-rule="evenodd" clip-rule="evenodd" d="M4.99226 0.199951H3.99226V3.19995H0V4.19995H3.99226V7.19995H4.99226V4.19995H9V3.19995H4.99226V0.199951Z" fill="#F50100"/>
<path d="M3.99226 0.199951V-0.550049H3.24226V0.199951H3.99226ZM4.99226 0.199951H5.74226V-0.550049H4.99226V0.199951ZM3.99226 3.19995V3.94995H4.74226V3.19995H3.99226ZM0 3.19995V2.44995H-0.75V3.19995H0ZM0 4.19995H-0.75V4.94995H0V4.19995ZM3.99226 4.19995H4.74226V3.44995H3.99226V4.19995ZM3.99226 7.19995H3.24226V7.94995H3.99226V7.19995ZM4.99226 7.19995V7.94995H5.74226V7.19995H4.99226ZM4.99226 4.19995V3.44995H4.24226V4.19995H4.99226ZM9 4.19995V4.94995H9.75V4.19995H9ZM9 3.19995H9.75V2.44995H9V3.19995ZM4.99226 3.19995H4.24226V3.94995H4.99226V3.19995ZM3.99226 0.949951H4.99226V-0.550049H3.99226V0.949951ZM4.74226 3.19995V0.199951H3.24226V3.19995H4.74226ZM0 3.94995H3.99226V2.44995H0V3.94995ZM0.75 4.19995V3.19995H-0.75V4.19995H0.75ZM3.99226 3.44995H0V4.94995H3.99226V3.44995ZM4.74226 7.19995V4.19995H3.24226V7.19995H4.74226ZM4.99226 6.44995H3.99226V7.94995H4.99226V6.44995ZM4.24226 4.19995V7.19995H5.74226V4.19995H4.24226ZM9 3.44995H4.99226V4.94995H9V3.44995ZM8.25 3.19995V4.19995H9.75V3.19995H8.25ZM4.99226 3.94995H9V2.44995H4.99226V3.94995ZM4.24226 0.199951V3.19995H5.74226V0.199951H4.24226Z" fill="#F7FCFF" mask="url(#path-37-outside-1)"/>
</g>
</g>
<defs>
<filter id="filter0_d" x="11.831" y="4.81543" width="1.29879" height="0.786575" filterUnits="userSpaceOnUse" color-interpolation-filters="sRGB">
<feFlood flood-opacity="0" result="BackgroundImageFix"/>
<feColorMatrix in="SourceAlpha" type="matrix" values="0 0 0 0 0 0 0 0 0 0 0 0 0 0 0 0 0 0 127 0"/>
<feOffset dy="0.25"/>
<feColorMatrix type="matrix" values="0 0 0 0 1 0 0 0 0 1 0 0 0 0 1 0 0 0 1 0"/>
<feBlend mode="normal" in2="BackgroundImageFix" result="effect1_dropShadow"/>
<feBlend mode="normal" in="SourceGraphic" in2="effect1_dropShadow" result="shape"/>
</filter>
<linearGradient id="paint0_linear" x1="14.1774" y1="7.80353" x2="14.7495" y2="7.7939" gradientUnits="userSpaceOnUse">
<stop stop-color="#D5DFFF"/>
<stop offset="1" stop-color="white"/>
</linearGradient>
</defs>
</svg>
