<svg width="20" height="15" viewBox="0 0 20 15" fill="none" xmlns="http://www.w3.org/2000/svg">
<mask id="mask0" mask-type="alpha" maskUnits="userSpaceOnUse" x="0" y="0" width="20" height="15">
<rect width="20" height="15" fill="white"/>
</mask>
<g mask="url(#mask0)">
<path fill-rule="evenodd" clip-rule="evenodd" d="M0 0V15H20V0H0Z" fill="#2E42A5"/>
<mask id="mask1" mask-type="alpha" maskUnits="userSpaceOnUse" x="0" y="0" width="20" height="15">
<path fill-rule="evenodd" clip-rule="evenodd" d="M0 0V15H20V0H0Z" fill="white"/>
</mask>
<g mask="url(#mask1)">
<rect width="11" height="9" fill="#2E42A5"/>
<mask id="mask2" mask-type="alpha" maskUnits="userSpaceOnUse" x="0" y="0" width="11" height="9">
<rect width="11" height="9" fill="white"/>
</mask>
<g mask="url(#mask2)">
<path d="M-1.25269 8.12494L1.22291 9.21069L11.3062 1.18052L12.612 -0.432938L9.96468 -0.795827L5.85197 2.6646L2.54165 4.99613L-1.25269 8.12494Z" fill="#F7FCFF"/>
<path d="M-0.913757 8.88555L0.347444 9.51562L12.1431 -0.582947H10.3722L-0.913757 8.88555Z" fill="#F50100"/>
<path d="M12.5026 8.1248L10.3055 9.52051L-0.0562172 1.18038L-1.36204 -0.433076L1.28526 -0.795966L5.39797 2.66447L8.70828 4.99599L12.5026 8.1248Z" fill="#F7FCFF"/>
<path d="M12.4182 8.6707L11.157 9.30078L6.13425 4.97706L4.64512 4.49398L-1.48769 -0.427604H0.283185L6.41255 4.37716L8.04064 4.95642L12.4182 8.6707Z" fill="#F50100"/>
<mask id="path-11-outside-1" maskUnits="userSpaceOnUse" x="-1" y="-1" width="13" height="11" fill="black">
<rect fill="white" x="-1" y="-1" width="13" height="11"/>
<path fill-rule="evenodd" clip-rule="evenodd" d="M6 0H5V4H0V5H5V9H6V5H11V4H6V0Z"/>
</mask>
<path fill-rule="evenodd" clip-rule="evenodd" d="M6 0H5V4H0V5H5V9H6V5H11V4H6V0Z" fill="#F50100"/>
<path d="M5 0V-0.9375H4.0625V0H5ZM6 0H6.9375V-0.9375H6V0ZM5 4V4.9375H5.9375V4H5ZM0 4V3.0625H-0.9375V4H0ZM0 5H-0.9375V5.9375H0V5ZM5 5H5.9375V4.0625H5V5ZM5 9H4.0625V9.9375H5V9ZM6 9V9.9375H6.9375V9H6ZM6 5V4.0625H5.0625V5H6ZM11 5V5.9375H11.9375V5H11ZM11 4H11.9375V3.0625H11V4ZM6 4H5.0625V4.9375H6V4ZM5 0.9375H6V-0.9375H5V0.9375ZM5.9375 4V0H4.0625V4H5.9375ZM0 4.9375H5V3.0625H0V4.9375ZM0.9375 5V4H-0.9375V5H0.9375ZM5 4.0625H0V5.9375H5V4.0625ZM5.9375 9V5H4.0625V9H5.9375ZM6 8.0625H5V9.9375H6V8.0625ZM5.0625 5V9H6.9375V5H5.0625ZM11 4.0625H6V5.9375H11V4.0625ZM10.0625 4V5H11.9375V4H10.0625ZM6 4.9375H11V3.0625H6V4.9375ZM5.0625 0V4H6.9375V0H5.0625Z" fill="#F7FCFF" mask="url(#path-11-outside-1)"/>
</g>
<path fill-rule="evenodd" clip-rule="evenodd" d="M12.6542 6.27051V10.3512C12.6542 10.3512 12.5937 13.7276 15.7054 13.7276C18.8171 13.7276 18.8171 10.3512 18.8171 10.3512V6.27051H12.6542Z" fill="#3B7E05" stroke="#F7FCFF" stroke-width="0.5"/>
<path fill-rule="evenodd" clip-rule="evenodd" d="M12.6481 12.4306L13.1439 11.9329C13.9186 12.8897 14.7335 13.3554 15.5999 13.3554C16.4663 13.3554 17.2805 12.8898 18.054 11.9331L18.3362 12.2159L18.3482 12.1982C18.5207 12.3442 18.6344 12.4809 18.689 12.6392C18.7779 12.897 18.6829 13.1447 18.4745 13.2758C18.4228 13.3083 18.3817 13.3317 18.3452 13.3487C18.2606 13.3881 18.1928 13.4052 18.0921 13.3768C17.9896 13.3479 17.9034 13.269 17.8589 13.1605C17.1558 13.7823 16.4012 14.0986 15.5999 14.0986C14.8055 14.0986 14.0567 13.7878 13.3581 13.1764C13.3114 13.2832 13.2244 13.3598 13.122 13.3867C13.0208 13.4134 12.9533 13.395 12.8694 13.3542C12.8332 13.3366 12.7926 13.3124 12.7414 13.279C12.5353 13.1443 12.4446 12.895 12.538 12.6387C12.5635 12.5691 12.6043 12.5044 12.657 12.4415C12.6541 12.4379 12.6511 12.4342 12.6481 12.4306Z" fill="#FFD018"/>
<path d="M13.1439 11.9329L13.3382 11.7755L13.1631 11.5593L12.9667 11.7564L13.1439 11.9329ZM12.6481 12.4306L12.471 12.2541L12.3125 12.4133L12.4538 12.5879L12.6481 12.4306ZM18.054 11.9331L18.231 11.7565L18.0345 11.5595L17.8596 11.7759L18.054 11.9331ZM18.3362 12.2159L18.1592 12.3925L18.3735 12.6074L18.5434 12.3558L18.3362 12.2159ZM18.3482 12.1982L18.5097 12.0074L18.2969 11.8273L18.141 12.0583L18.3482 12.1982ZM18.689 12.6392L18.9253 12.5576V12.5576L18.689 12.6392ZM18.4745 13.2758L18.6075 13.4874L18.6075 13.4874L18.4745 13.2758ZM18.3452 13.3487L18.2397 13.1221L18.3452 13.3487ZM18.0921 13.3768L18.1599 13.1362L18.0921 13.3768ZM17.8589 13.1605L18.0901 13.0655L17.9566 12.7403L17.6932 12.9732L17.8589 13.1605ZM13.3581 13.1764L13.5228 12.9883L13.2658 12.7635L13.1291 13.0763L13.3581 13.1764ZM13.122 13.3867L13.0583 13.145H13.0583L13.122 13.3867ZM12.8694 13.3542L12.7599 13.579L12.7599 13.579L12.8694 13.3542ZM12.7414 13.279L12.6047 13.4883H12.6047L12.7414 13.279ZM12.538 12.6387L12.3032 12.5531L12.538 12.6387ZM12.657 12.4415L12.8485 12.6023L12.9813 12.4441L12.851 12.2838L12.657 12.4415ZM12.9667 11.7564L12.471 12.2541L12.8253 12.607L13.321 12.1093L12.9667 11.7564ZM15.5999 13.1054C14.8355 13.1054 14.0851 12.6981 13.3382 11.7755L12.9496 12.0902C13.7521 13.0813 14.6315 13.6054 15.5999 13.6054V13.1054ZM17.8596 11.7759C17.1139 12.6982 16.3643 13.1054 15.5999 13.1054V13.6054C16.5683 13.6054 17.4471 13.0813 18.2484 12.0902L17.8596 11.7759ZM18.5132 12.0394L18.231 11.7565L17.877 12.1096L18.1592 12.3925L18.5132 12.0394ZM18.141 12.0583L18.129 12.076L18.5434 12.3558L18.5554 12.3381L18.141 12.0583ZM18.9253 12.5576C18.8495 12.3378 18.6968 12.1658 18.5097 12.0074L18.1866 12.389C18.3445 12.5226 18.4193 12.624 18.4527 12.7207L18.9253 12.5576ZM18.6075 13.4874C18.9151 13.294 19.0519 12.9245 18.9253 12.5576L18.4527 12.7207C18.504 12.8695 18.4508 12.9954 18.3414 13.0641L18.6075 13.4874ZM18.4507 13.5753C18.501 13.5519 18.5522 13.5222 18.6075 13.4874L18.3414 13.0641C18.2933 13.0944 18.2624 13.1115 18.2397 13.1221L18.4507 13.5753ZM18.0242 13.6174C18.1034 13.6398 18.1807 13.6469 18.2596 13.6357C18.3352 13.6251 18.3991 13.5994 18.4507 13.5753L18.2397 13.1221C18.2067 13.1374 18.1944 13.14 18.1898 13.1406C18.1885 13.1408 18.1815 13.1423 18.1599 13.1362L18.0242 13.6174ZM17.6276 13.2554C17.6988 13.4287 17.8414 13.5659 18.0242 13.6174L18.1599 13.1362C18.1377 13.1299 18.1081 13.1093 18.0901 13.0655L17.6276 13.2554ZM15.5999 14.3486C16.4733 14.3486 17.2847 14.0021 18.0245 13.3477L17.6932 12.9732C17.0269 13.5626 16.3291 13.8486 15.5999 13.8486V14.3486ZM13.1935 13.3646C13.9288 14.008 14.7342 14.3486 15.5999 14.3486V13.8486C14.8769 13.8486 14.1846 13.5675 13.5228 12.9883L13.1935 13.3646ZM13.1856 13.6285C13.3682 13.5804 13.5126 13.4471 13.5872 13.2766L13.1291 13.0763C13.1103 13.1192 13.0805 13.1391 13.0583 13.145L13.1856 13.6285ZM12.7599 13.579C12.8111 13.6039 12.8746 13.6307 12.95 13.6427C13.0287 13.6552 13.1061 13.6494 13.1856 13.6285L13.0583 13.145C13.0367 13.1507 13.0298 13.1491 13.0284 13.1489C13.0238 13.1481 13.0116 13.1454 12.9788 13.1294L12.7599 13.579ZM12.6047 13.4883C12.6594 13.5241 12.71 13.5547 12.7599 13.579L12.9788 13.1294C12.9563 13.1185 12.9257 13.1008 12.8782 13.0697L12.6047 13.4883ZM12.3032 12.5531C12.1702 12.9177 12.3006 13.2896 12.6047 13.4883L12.8782 13.0697C12.77 12.9991 12.719 12.8722 12.7729 12.7244L12.3032 12.5531ZM12.4656 12.2807C12.3996 12.3593 12.3411 12.449 12.3032 12.5531L12.7729 12.7244C12.7858 12.6891 12.8089 12.6494 12.8485 12.6023L12.4656 12.2807ZM12.4538 12.5879C12.4569 12.5917 12.46 12.5955 12.4631 12.5992L12.851 12.2838C12.8482 12.2803 12.8453 12.2768 12.8424 12.2732L12.4538 12.5879Z" fill="white"/>
<path fill-rule="evenodd" clip-rule="evenodd" d="M13.7224 7.1627L13.7919 7.18819C13.8487 7.05824 13.8581 6.95923 13.7919 6.89567L13.79 6.89274C13.7746 6.86863 13.7472 6.82582 13.7919 6.73434L13.76 6.66895C13.6953 6.80139 13.6661 6.89697 13.7167 6.96141L13.7193 6.9647L13.7224 6.96744C13.7517 6.99382 13.764 7.06756 13.7224 7.1627ZM13.7224 8.10865L13.7919 8.13414C13.8487 8.00418 13.8581 7.90518 13.7919 7.84161L13.79 7.83869C13.7746 7.81458 13.7472 7.77177 13.7919 7.68029L13.76 7.61489C13.6953 7.74734 13.6661 7.84292 13.7167 7.90735L13.7193 7.91064L13.7224 7.91339C13.7517 7.93977 13.764 8.01351 13.7224 8.10865ZM13.7919 8.97873L13.7224 8.95324C13.764 8.85811 13.7517 8.78437 13.7224 8.75798L13.7193 8.75524L13.7167 8.75195C13.6661 8.68751 13.6953 8.59193 13.76 8.45949L13.7919 8.52488C13.7472 8.61636 13.7746 8.65917 13.79 8.68328L13.7919 8.68621C13.8581 8.74977 13.8487 8.84878 13.7919 8.97873ZM14.2078 9.96675L14.2773 9.99224C14.3341 9.86229 14.3435 9.76329 14.2773 9.69972L14.2755 9.69679C14.26 9.67268 14.2326 9.62987 14.2773 9.53839L14.2454 9.473C14.1807 9.60544 14.1515 9.70103 14.2022 9.76546L14.2047 9.76875L14.2078 9.7715C14.2371 9.79788 14.2494 9.87162 14.2078 9.96675ZM13.7009 10.8031L13.6313 10.7776C13.6729 10.6824 13.6606 10.6087 13.6313 10.5823L13.6283 10.5796L13.6257 10.5763C13.5751 10.5118 13.6043 10.4163 13.669 10.2838L13.7009 10.3492C13.6562 10.4407 13.6836 10.4835 13.699 10.5076L13.7009 10.5105C13.7671 10.5741 13.7577 10.6731 13.7009 10.8031ZM13.6313 11.7235L13.7009 11.749C13.7577 11.6191 13.7671 11.52 13.7009 11.4565L13.699 11.4536C13.6836 11.4294 13.6562 11.3866 13.7009 11.2952L13.669 11.2298C13.6043 11.3622 13.5751 11.4578 13.6257 11.5222L13.6283 11.5255L13.6313 11.5283C13.6606 11.5546 13.6729 11.6284 13.6313 11.7235ZM16.7045 11.749L16.635 11.7235C16.6766 11.6284 16.6643 11.5546 16.635 11.5283L16.6319 11.5255L16.6293 11.5222C16.5787 11.4578 16.6079 11.3622 16.6726 11.2298L16.7045 11.2952C16.6598 11.3866 16.6872 11.4294 16.7026 11.4536L16.7045 11.4565C16.7707 11.52 16.7613 11.6191 16.7045 11.749ZM16.635 10.8113L16.7045 10.8368C16.7613 10.7069 16.7707 10.6079 16.7045 10.5443L16.7026 10.5414C16.6872 10.5173 16.6598 10.4745 16.7045 10.383L16.6726 10.3176C16.6079 10.45 16.5787 10.5456 16.6293 10.6101L16.6319 10.6133L16.635 10.6161C16.6643 10.6425 16.6766 10.7162 16.635 10.8113ZM16.7045 9.92468L16.635 9.89919C16.6766 9.80405 16.6643 9.73031 16.635 9.70393L16.6319 9.70118L16.6293 9.69789C16.5787 9.63346 16.6079 9.53788 16.6726 9.40543L16.7045 9.47083C16.6598 9.56231 16.6872 9.60512 16.7026 9.62923L16.7045 9.63215C16.7707 9.69572 16.7613 9.79473 16.7045 9.92468ZM16.6046 9.02081L16.6742 9.0463C16.731 8.91635 16.7404 8.81734 16.6742 8.75378L16.6723 8.75085C16.6569 8.72674 16.6295 8.68393 16.6742 8.59245L16.6423 8.52705C16.5776 8.6595 16.5484 8.75508 16.599 8.81951L16.6016 8.8228L16.6046 8.82555C16.6339 8.85193 16.6462 8.92567 16.6046 9.02081ZM16.6742 8.10035L16.6046 8.07486C16.6462 7.97973 16.6339 7.90599 16.6046 7.87961L16.6016 7.87686L16.599 7.87357C16.5484 7.80913 16.5776 7.71355 16.6423 7.58111L16.6742 7.6465C16.6295 7.73798 16.6569 7.78079 16.6723 7.8049L16.6742 7.80783C16.7404 7.87139 16.731 7.9704 16.6742 8.10035ZM16.6046 7.19648L16.6742 7.22197C16.731 7.09202 16.7404 6.99302 16.6742 6.92945C16.6736 6.92851 16.6729 6.92753 16.6723 6.92652C16.6569 6.90241 16.6295 6.8596 16.6742 6.76812L16.6423 6.70273C16.5776 6.83517 16.5484 6.93075 16.599 6.99519L16.6016 6.99848L16.6046 7.00123C16.6339 7.02761 16.6462 7.10135 16.6046 7.19648Z" fill="#F50100"/>
<path fill-rule="evenodd" clip-rule="evenodd" d="M14.2251 6.75916C14.2301 6.74942 14.233 6.7382 14.233 6.72626C14.233 6.68894 14.205 6.65869 14.1705 6.65869C14.136 6.65869 14.108 6.68894 14.108 6.72626C14.108 6.74235 14.1132 6.75712 14.1219 6.76872L13.8854 7.13492L13.91 7.15464L14.1464 6.78862C14.1538 6.79197 14.162 6.79383 14.1705 6.79383C14.1827 6.79383 14.194 6.79007 14.2036 6.78358L14.4524 7.15488L14.4767 7.13468L14.2251 6.75916ZM14.2166 7.07594C14.2268 7.06392 14.233 7.0479 14.233 7.03031C14.233 6.993 14.205 6.96275 14.1705 6.96275C14.136 6.96275 14.108 6.993 14.108 7.03031C14.108 7.05307 14.1184 7.0732 14.1344 7.08544L14.0751 7.15671H13.6736C13.6736 7.15671 13.7176 7.25735 13.8545 7.28392C13.8963 7.32366 14.0032 7.39761 14.0032 7.39761L13.9422 7.4717H14.3751V7.39761C14.4806 7.39682 14.5202 7.31354 14.5343 7.28381C14.5402 7.27155 14.5417 7.2684 14.5417 7.28392C14.5417 7.33708 14.6187 7.28392 14.6187 7.28392C14.6187 7.28392 14.7464 7.15671 14.7464 7.03547C14.7464 6.91424 14.4792 7.15671 14.4792 7.15671H14.2979L14.2166 7.07594ZM13.6736 8.10266H14.0751L14.1344 8.03139C14.1184 8.01914 14.108 7.99901 14.108 7.97626C14.108 7.93894 14.136 7.90869 14.1705 7.90869C14.205 7.90869 14.233 7.93894 14.233 7.97626C14.233 7.99385 14.2268 8.00987 14.2166 8.02189L14.2979 8.10266H14.4792C14.4792 8.10266 14.7464 7.86018 14.7464 7.98142C14.7464 8.10266 14.6187 8.22987 14.6187 8.22987C14.6187 8.22987 14.5417 8.28302 14.5417 8.22987C14.5417 8.21434 14.5402 8.21749 14.5343 8.22976C14.5202 8.25948 14.4806 8.34276 14.3751 8.34355V8.41764H13.9422L14.0032 8.34355C14.0032 8.34355 13.8963 8.2696 13.8545 8.22987C13.7176 8.20329 13.6736 8.10266 13.6736 8.10266ZM14.2251 7.70511C14.2301 7.69537 14.233 7.68415 14.233 7.6722C14.233 7.63489 14.205 7.60464 14.1705 7.60464C14.136 7.60464 14.108 7.63489 14.108 7.6722C14.108 7.68829 14.1132 7.70307 14.1219 7.71467L13.8854 8.08086L13.91 8.10059L14.1464 7.73457C14.1538 7.73792 14.162 7.73977 14.1705 7.73977C14.1827 7.73977 14.194 7.73602 14.2036 7.72952L14.4524 8.10083L14.4767 8.08063L14.2251 7.70511ZM13.6736 8.94725H14.0751L14.1344 8.87598C14.1184 8.86374 14.108 8.84361 14.108 8.82085C14.108 8.78354 14.136 8.75329 14.1705 8.75329C14.205 8.75329 14.233 8.78354 14.233 8.82085C14.233 8.83844 14.2268 8.85446 14.2166 8.86648L14.2979 8.94725H14.4792C14.4792 8.94725 14.7464 8.70478 14.7464 8.82601C14.7464 8.94725 14.6187 9.07446 14.6187 9.07446C14.6187 9.07446 14.5417 9.12762 14.5417 9.07446C14.5417 9.05894 14.5402 9.06209 14.5343 9.07435C14.5202 9.10408 14.4806 9.18736 14.3751 9.18815V9.26224H13.9422L14.0032 9.18815C14.0032 9.18815 13.8963 9.1142 13.8545 9.07446C13.7176 9.04789 13.6736 8.94725 13.6736 8.94725ZM14.2251 8.5497C14.2301 8.53997 14.233 8.52874 14.233 8.5168C14.233 8.47948 14.205 8.44923 14.1705 8.44923C14.136 8.44923 14.108 8.47948 14.108 8.5168C14.108 8.53289 14.1132 8.54766 14.1219 8.55927L13.8854 8.92546L13.91 8.94518L14.1464 8.57916C14.1538 8.58252 14.162 8.58437 14.1705 8.58437C14.1827 8.58437 14.194 8.58061 14.2036 8.57412L14.4524 8.94542L14.4767 8.92522L14.2251 8.5497ZM14.159 9.96076H14.5606L14.6198 9.88949C14.6039 9.87725 14.5934 9.85712 14.5934 9.83437C14.5934 9.79705 14.6214 9.7668 14.6559 9.7668C14.6905 9.7668 14.7184 9.79705 14.7184 9.83437C14.7184 9.85195 14.7122 9.86797 14.702 9.87999L14.7833 9.96076H14.9646C14.9646 9.96076 15.2319 9.71829 15.2319 9.83953C15.2319 9.96076 15.1041 10.088 15.1041 10.088C15.1041 10.088 15.0271 10.1411 15.0271 10.088C15.0271 10.0725 15.0256 10.0756 15.0198 10.0879C15.0056 10.1176 14.966 10.2009 14.8605 10.2017V10.2758H14.4277L14.4887 10.2017C14.4887 10.2017 14.3817 10.1277 14.34 10.088C14.203 10.0614 14.159 9.96076 14.159 9.96076ZM14.7106 9.56322C14.7156 9.55348 14.7184 9.54226 14.7184 9.53031C14.7184 9.493 14.6905 9.46275 14.6559 9.46275C14.6214 9.46275 14.5934 9.493 14.5934 9.53031C14.5934 9.5464 14.5986 9.56118 14.6073 9.57278L14.3708 9.93897L14.3955 9.9587L14.6319 9.59268C14.6393 9.59603 14.6474 9.59788 14.6559 9.59788C14.6681 9.59788 14.6795 9.59413 14.6891 9.58763L14.9378 9.95893L14.9621 9.93873L14.7106 9.56322ZM13.5826 10.7716H13.9841L14.0433 10.7003C14.0274 10.6881 14.017 10.6679 14.017 10.6452C14.017 10.6079 14.045 10.5776 14.0795 10.5776C14.114 10.5776 14.142 10.6079 14.142 10.6452C14.142 10.6628 14.1358 10.6788 14.1256 10.6908L14.2068 10.7716H14.3882C14.3882 10.7716 14.6554 10.5291 14.6554 10.6503C14.6554 10.7716 14.5276 10.8988 14.5276 10.8988C14.5276 10.8988 14.4506 10.9519 14.4506 10.8988C14.4506 10.8833 14.4491 10.8864 14.4433 10.8987C14.4292 10.9284 14.3896 11.0117 14.2841 11.0125V11.0866H13.8512L13.9122 11.0125C13.9122 11.0125 13.8053 10.9385 13.7635 10.8988C13.6266 10.8722 13.5826 10.7716 13.5826 10.7716ZM14.1341 10.374C14.1391 10.3643 14.142 10.3531 14.142 10.3411C14.142 10.3038 14.114 10.2736 14.0795 10.2736C14.045 10.2736 14.017 10.3038 14.017 10.3411C14.017 10.3572 14.0222 10.372 14.0309 10.3836L13.7944 10.7498L13.819 10.7695L14.0554 10.4035C14.0628 10.4068 14.071 10.4087 14.0795 10.4087C14.0917 10.4087 14.103 10.4049 14.1126 10.3984L14.3613 10.7697L14.3857 10.7495L14.1341 10.374ZM13.5826 11.7175H13.9841L14.0433 11.6463C14.0274 11.634 14.017 11.6139 14.017 11.5911C14.017 11.5538 14.045 11.5236 14.0795 11.5236C14.114 11.5236 14.142 11.5538 14.142 11.5911C14.142 11.6087 14.1358 11.6247 14.1256 11.6368L14.2068 11.7175H14.3882C14.3882 11.7175 14.6554 11.475 14.6554 11.5963C14.6554 11.7175 14.5276 11.8447 14.5276 11.8447C14.5276 11.8447 14.4506 11.8979 14.4506 11.8447C14.4506 11.8292 14.4491 11.8324 14.4433 11.8446C14.4292 11.8743 14.3896 11.9576 14.2841 11.9584V12.0325H13.8512L13.9122 11.9584C13.9122 11.9584 13.8053 11.8845 13.7635 11.8447C13.6266 11.8182 13.5826 11.7175 13.5826 11.7175ZM14.1341 11.32C14.1391 11.3102 14.142 11.299 14.142 11.2871C14.142 11.2498 14.114 11.2195 14.0795 11.2195C14.045 11.2195 14.017 11.2498 14.017 11.2871C14.017 11.3032 14.0222 11.3179 14.0309 11.3295L13.7944 11.6957L13.819 11.7155L14.0554 11.3494C14.0628 11.3528 14.071 11.3546 14.0795 11.3546C14.0917 11.3546 14.103 11.3509 14.1126 11.3444L14.3613 11.7157L14.3857 11.6955L14.1341 11.32ZM16.5862 11.7175H16.9877L17.047 11.6463C17.031 11.634 17.0206 11.6139 17.0206 11.5911C17.0206 11.5538 17.0486 11.5236 17.0831 11.5236C17.1177 11.5236 17.1456 11.5538 17.1456 11.5911C17.1456 11.6087 17.1394 11.6247 17.1292 11.6368L17.2105 11.7175H17.3918C17.3918 11.7175 17.6591 11.475 17.6591 11.5963C17.6591 11.7175 17.5313 11.8447 17.5313 11.8447C17.5313 11.8447 17.4543 11.8979 17.4543 11.8447C17.4543 11.8292 17.4528 11.8324 17.447 11.8446C17.4328 11.8743 17.3932 11.9576 17.2877 11.9584V12.0325H16.8549L16.9159 11.9584C16.9159 11.9584 16.8089 11.8845 16.7671 11.8447C16.6302 11.8182 16.5862 11.7175 16.5862 11.7175ZM17.1377 11.32C17.1428 11.3102 17.1456 11.299 17.1456 11.2871C17.1456 11.2498 17.1177 11.2195 17.0831 11.2195C17.0486 11.2195 17.0206 11.2498 17.0206 11.2871C17.0206 11.3032 17.0258 11.3179 17.0345 11.3295L16.798 11.6957L16.8227 11.7155L17.059 11.3494C17.0665 11.3528 17.0746 11.3546 17.0831 11.3546C17.0953 11.3546 17.1066 11.3509 17.1162 11.3444L17.365 11.7157L17.3893 11.6955L17.1377 11.32ZM16.5862 10.8054H16.9877L17.047 10.7341C17.031 10.7218 17.0206 10.7017 17.0206 10.679C17.0206 10.6416 17.0486 10.6114 17.0831 10.6114C17.1177 10.6114 17.1456 10.6416 17.1456 10.679C17.1456 10.6965 17.1394 10.7126 17.1292 10.7246L17.2105 10.8054H17.3918C17.3918 10.8054 17.6591 10.5629 17.6591 10.6841C17.6591 10.8054 17.5313 10.9326 17.5313 10.9326C17.5313 10.9326 17.4543 10.9857 17.4543 10.9326C17.4543 10.917 17.4528 10.9202 17.447 10.9325C17.4328 10.9622 17.3932 11.0455 17.2877 11.0463V11.1203H16.8549L16.9159 11.0463C16.9159 11.0463 16.8089 10.9723 16.7671 10.9326C16.6302 10.906 16.5862 10.8054 16.5862 10.8054ZM17.1377 10.4078C17.1428 10.3981 17.1456 10.3869 17.1456 10.3749C17.1456 10.3376 17.1177 10.3073 17.0831 10.3073C17.0486 10.3073 17.0206 10.3376 17.0206 10.3749C17.0206 10.391 17.0258 10.4058 17.0345 10.4174L16.798 10.7836L16.8227 10.8033L17.059 10.4373C17.0665 10.4406 17.0746 10.4425 17.0831 10.4425C17.0953 10.4425 17.1066 10.4387 17.1162 10.4322L17.365 10.8035L17.3893 10.7833L17.1377 10.4078ZM16.5862 9.8932H16.9877L17.047 9.82193C17.031 9.80968 17.0206 9.78956 17.0206 9.7668C17.0206 9.72948 17.0486 9.69923 17.0831 9.69923C17.1177 9.69923 17.1456 9.72948 17.1456 9.7668C17.1456 9.78439 17.1394 9.80041 17.1292 9.81243L17.2105 9.8932H17.3918C17.3918 9.8932 17.6591 9.65072 17.6591 9.77196C17.6591 9.8932 17.5313 10.0204 17.5313 10.0204C17.5313 10.0204 17.4543 10.0736 17.4543 10.0204C17.4543 10.0049 17.4528 10.008 17.447 10.0203C17.4328 10.05 17.3932 10.1333 17.2877 10.1341V10.2082H16.8549L16.9159 10.1341C16.9159 10.1341 16.8089 10.0601 16.7671 10.0204C16.6302 9.99383 16.5862 9.8932 16.5862 9.8932ZM17.1377 9.49565C17.1428 9.48591 17.1456 9.47469 17.1456 9.46275C17.1456 9.42543 17.1177 9.39518 17.0831 9.39518C17.0486 9.39518 17.0206 9.42543 17.0206 9.46275C17.0206 9.47883 17.0258 9.49361 17.0345 9.50521L16.798 9.8714L16.8227 9.89113L17.059 9.52511C17.0665 9.52846 17.0746 9.53031 17.0831 9.53031C17.0953 9.53031 17.1066 9.52656 17.1162 9.52006L17.365 9.89137L17.3893 9.87117L17.1377 9.49565ZM16.5559 9.01482H16.9574L17.0166 8.94355C17.0007 8.9313 16.9903 8.91118 16.9903 8.88842C16.9903 8.8511 17.0183 8.82085 17.0528 8.82085C17.0873 8.82085 17.1153 8.8511 17.1153 8.88842C17.1153 8.90601 17.1091 8.92203 17.0989 8.93405L17.1801 9.01482H17.3615C17.3615 9.01482 17.6287 8.77235 17.6287 8.89358C17.6287 9.01482 17.5009 9.14203 17.5009 9.14203C17.5009 9.14203 17.4239 9.19518 17.4239 9.14203C17.4239 9.12651 17.4224 9.12965 17.4166 9.14192C17.4025 9.17165 17.3629 9.25493 17.2574 9.25572V9.32981H16.8245L16.8855 9.25572C16.8855 9.25572 16.7786 9.18177 16.7368 9.14203C16.5999 9.11546 16.5559 9.01482 16.5559 9.01482ZM17.1074 8.61727C17.1124 8.60753 17.1153 8.59631 17.1153 8.58437C17.1153 8.54705 17.0873 8.5168 17.0528 8.5168C17.0183 8.5168 16.9903 8.54705 16.9903 8.58437C16.9903 8.60045 16.9955 8.61523 17.0042 8.62683L16.7677 8.99303L16.7923 9.01275L17.0287 8.64673C17.0361 8.65008 17.0443 8.65193 17.0528 8.65193C17.065 8.65193 17.0763 8.64818 17.0859 8.64169L17.3346 9.01299L17.359 8.99279L17.1074 8.61727ZM16.5559 8.06887H16.9574L17.0166 7.9976C17.0007 7.98536 16.9903 7.96523 16.9903 7.94248C16.9903 7.90516 17.0183 7.87491 17.0528 7.87491C17.0873 7.87491 17.1153 7.90516 17.1153 7.94248C17.1153 7.96006 17.1091 7.97608 17.0989 7.9881L17.1801 8.06887H17.3615C17.3615 8.06887 17.6287 7.8264 17.6287 7.94764C17.6287 8.06887 17.5009 8.19609 17.5009 8.19609C17.5009 8.19609 17.4239 8.24924 17.4239 8.19609C17.4239 8.18056 17.4224 8.18371 17.4166 8.19597C17.4025 8.2257 17.3629 8.30898 17.2574 8.30977V8.38386H16.8245L16.8855 8.30977C16.8855 8.30977 16.7786 8.23582 16.7368 8.19609C16.5999 8.16951 16.5559 8.06887 16.5559 8.06887ZM17.1074 7.67132C17.1124 7.66159 17.1153 7.65037 17.1153 7.63842C17.1153 7.6011 17.0873 7.57085 17.0528 7.57085C17.0183 7.57085 16.9903 7.6011 16.9903 7.63842C16.9903 7.65451 16.9955 7.66928 17.0042 7.68089L16.7677 8.04708L16.7923 8.0668L17.0287 7.70078C17.0361 7.70414 17.0443 7.70599 17.0528 7.70599C17.065 7.70599 17.0763 7.70223 17.0859 7.69574L17.3346 8.06704L17.359 8.04684L17.1074 7.67132Z" fill="#FFD018"/>
<path fill-rule="evenodd" clip-rule="evenodd" d="M15.3999 7.86597L15.1896 8.54938C15.1896 8.54938 14.8375 9.00502 14.7725 9.2283C14.7075 9.45159 14.672 9.59994 14.6897 9.59994C14.7075 9.59994 14.8514 9.53638 14.8514 9.38234C14.8514 9.2283 15.3999 8.73296 15.3999 8.73296L15.5636 7.86597H15.3999Z" fill="#FFC6B5"/>
<path fill-rule="evenodd" clip-rule="evenodd" d="M17.1074 6.7931C17.1124 6.78336 17.1153 6.77214 17.1153 6.76019C17.1153 6.72288 17.0873 6.69263 17.0528 6.69263C17.0182 6.69263 16.9903 6.72288 16.9903 6.76019C16.9903 6.77628 16.9955 6.79106 17.0041 6.80266L16.7677 7.16885L16.7923 7.18858L17.0287 6.82256C17.0361 6.82591 17.0442 6.82776 17.0528 6.82776C17.0649 6.82776 17.0763 6.82401 17.0859 6.81751L17.3346 7.18882L17.3589 7.16862L17.1074 6.7931ZM17.0989 7.10988C17.109 7.09785 17.1153 7.08184 17.1153 7.06425C17.1153 7.02693 17.0873 6.99668 17.0528 6.99668C17.0182 6.99668 16.9903 7.02693 16.9903 7.06425C16.9903 7.087 17.0007 7.10713 17.0166 7.11938L16.9574 7.19064H16.5558C16.5558 7.19064 16.5998 7.29128 16.7368 7.31786C16.7785 7.35759 16.8855 7.43154 16.8855 7.43154L16.8245 7.50563H17.2574V7.43154C17.3628 7.43075 17.4024 7.34747 17.4166 7.31775C17.4224 7.30548 17.4239 7.30233 17.4239 7.31786C17.4239 7.37101 17.5009 7.31786 17.5009 7.31786C17.5009 7.31786 17.6287 7.19064 17.6287 7.06941C17.6287 6.94817 17.3615 7.19064 17.3615 7.19064H17.1801L17.0989 7.10988Z" fill="#FFD018"/>
<path fill-rule="evenodd" clip-rule="evenodd" d="M15.9126 7.59243C15.9185 7.60489 15.9229 7.61425 15.9229 7.62743C15.9229 7.66685 15.7559 7.72471 15.6354 7.72471C15.5149 7.72471 15.5621 7.62743 15.6354 7.57348C15.7086 7.51953 15.6295 7.42668 15.5621 7.42668C15.4982 7.42668 15.4984 7.33636 15.4986 7.26378C15.4986 7.25994 15.4986 7.25616 15.4986 7.25244V6.96964C15.4986 6.85617 15.5294 6.86946 15.5881 6.89486C15.6227 6.90981 15.6669 6.92894 15.7203 6.92894C15.81 6.92894 15.815 6.9496 15.8284 7.00554C15.8366 7.03953 15.8479 7.08654 15.8833 7.14984C15.9396 7.25066 15.9281 7.27386 15.9101 7.31039C15.8981 7.33455 15.8833 7.36454 15.8833 7.42668C15.8833 7.53056 15.9008 7.56763 15.9126 7.59243ZM16.0614 8.31778L16.0968 7.9334C16.0968 7.9334 16.0614 7.7928 16.1444 7.7928C16.2275 7.7928 16.3564 8.46504 16.403 8.73455C16.4328 8.90691 16.4055 8.9389 16.3264 9.03128C16.2818 9.08335 16.2208 9.1546 16.1444 9.28099C16.0173 9.49122 16.0255 9.61425 16.0318 9.708C16.0359 9.77061 16.0393 9.82016 16.0008 9.8739C15.9114 9.99884 15.8748 9.88061 15.839 9.76526C15.8364 9.75668 15.8337 9.74812 15.831 9.73968C15.7969 9.63178 15.9527 9.30471 16.0584 9.08255C16.0723 9.0535 16.0852 9.02624 16.0968 9.00149C16.197 8.78758 16.1876 8.71293 16.1444 8.62335C16.1012 8.53376 16.0614 8.31778 16.0614 8.31778Z" fill="#FFC6B5"/>
<path fill-rule="evenodd" clip-rule="evenodd" d="M16.2621 12.1059C16.2621 12.2037 16.1874 12.2829 16.0952 12.2829C16.0031 12.2829 15.9284 12.2037 15.9284 12.1059C15.9284 12.0082 16.0031 11.929 16.0952 11.929C16.1874 11.929 16.2621 12.0082 16.2621 12.1059ZM15.3747 12.1551C15.2998 12.2179 15.2085 12.2324 15.1708 12.1875C15.1332 12.1426 15.1633 12.0552 15.2382 11.9924C15.313 11.9296 15.4043 11.9151 15.442 11.96C15.4797 12.0049 15.4495 12.0923 15.3747 12.1551Z" fill="#FFD018"/>
<path fill-rule="evenodd" clip-rule="evenodd" d="M15.5944 6.7404C15.5944 6.7404 15.4209 6.77563 15.4787 6.86253C15.5365 6.94942 15.4033 6.92695 15.5944 6.93819C15.7854 6.94942 15.8378 7.01898 15.8116 7.07036C15.7854 7.12175 15.7649 7.24934 15.8116 7.32623C15.8583 7.40311 15.8731 7.5369 15.9556 7.47C16.0381 7.40311 16.1965 7.3112 16.148 7.19078C16.0994 7.07036 16.1675 6.93028 16.0616 6.86253C15.9556 6.79478 15.9319 6.83621 15.8713 6.7404C15.8106 6.64459 15.7213 6.61821 15.6578 6.6793C15.5944 6.7404 15.5944 6.7404 15.5944 6.7404Z" fill="#A95601"/>
<path fill-rule="evenodd" clip-rule="evenodd" d="M15.56 7.61084C15.56 7.61084 15.2112 8.03079 15.2683 8.17875C15.3254 8.32671 15.4108 8.33449 15.3681 8.54486C15.3254 8.75523 15.3941 9.08047 15.2683 9.49421C15.1426 9.90796 15.0599 10.8787 15.1013 10.8787C15.1426 10.8787 15.2 11.415 15.1506 11.6555C15.1013 11.8961 14.757 12.0974 15.1013 12.0974C15.4455 12.0974 15.4863 12.1451 15.6239 12.0974C15.7615 12.0497 15.9567 12.2346 15.9567 12.0974C15.9567 11.9601 15.9714 11.9321 16.0763 11.9321C16.1811 11.9321 16.1758 11.9321 16.2687 11.9321C16.3615 11.9321 16.4832 12.0185 16.4832 11.8135C16.4832 11.6085 16.5058 11.168 16.3873 10.8259C16.2687 10.4839 16.3089 10.7023 16.1926 10.2449C16.1237 9.97394 16.0705 9.86641 16.0285 9.77176C15.9997 9.70663 15.9174 9.82097 15.8978 9.71899C15.8912 9.68442 15.9475 9.48154 15.9481 9.45549C15.9518 9.29309 16.0763 9.26545 16.0763 8.98609C16.0763 8.66192 15.9985 8.30579 16.0763 8.1276C16.154 7.94942 16.3447 8.05655 16.2687 7.88325C16.1926 7.70995 16.1678 7.61084 16.0247 7.61084C15.8816 7.61084 15.56 7.61084 15.56 7.61084Z" fill="#F7FCFF"/>
<path d="M13.1167 12.5909L13.1751 12.5131C14.0101 13.2909 14.7821 13.6785 15.4906 13.6785C16.1999 13.6785 17.0634 13.2671 18.0795 12.4421L18.1331 12.524C17.1029 13.3605 16.2226 13.7798 15.4906 13.7798C14.7579 13.7798 13.9667 13.3826 13.1167 12.5909Z" fill="#272727"/>
</g>
</g>
</svg>
