<svg width="16" height="12" viewBox="0 0 16 12" fill="none" xmlns="http://www.w3.org/2000/svg">
<mask id="mask0" mask-type="alpha" maskUnits="userSpaceOnUse" x="0" y="0" width="16" height="12">
<rect width="16" height="12" fill="white"/>
</mask>
<g mask="url(#mask0)">
<path fill-rule="evenodd" clip-rule="evenodd" d="M11 0H16V12H11V0Z" fill="#409100"/>
<path fill-rule="evenodd" clip-rule="evenodd" d="M0 0H6V12H0V0Z" fill="#409100"/>
<path fill-rule="evenodd" clip-rule="evenodd" d="M5 0H11V12H5V0Z" fill="white"/>
<path fill-rule="evenodd" clip-rule="evenodd" d="M6.34769 9.38526C5.56987 9.51181 5.32461 9.13217 5.32461 9.13217L5.42257 9.0517C5.48836 8.99767 5.70997 9.01621 5.92518 9.03422C6.03042 9.04303 6.13414 9.0517 6.21736 9.0517C6.33876 9.0517 6.47846 9.03339 6.62401 9.01431C6.78226 8.99356 6.94742 8.97191 7.10346 8.97191C7.40302 8.97191 6.21736 8.58019 5.96397 8.82044C5.71058 9.0607 5 8.7091 5 8.50862C5 8.37182 5.2616 8.4217 5.50021 8.4672C5.6113 8.48839 5.71742 8.50862 5.78983 8.50862C6.01776 8.50862 5.5619 8.06398 5.32461 8.06398C5.08733 8.06398 5.5619 7.9607 5.78983 7.9607C5.91962 7.9607 6.04022 7.99419 6.14408 8.02303C6.22261 8.04483 6.29157 8.06398 6.34769 8.06398C6.47801 8.06398 5.69325 7.72667 5.5619 7.72667H6.21736C6.44232 7.72667 6.49695 7.75838 6.54871 7.78842C6.59533 7.81548 6.63963 7.84119 6.8039 7.84119C7.1506 7.84119 6.96077 7.65155 6.96077 7.65155C6.96077 7.65155 5.78983 7.52999 5.5619 7.36208C5.40778 7.24854 5.82137 7.28855 6.21229 7.32636L6.2123 7.32636C6.3995 7.34447 6.5815 7.36208 6.69347 7.36208C7.03925 7.36208 5.96397 7.11525 5.78983 7.11525H6.58226C6.75573 7.11525 6.94618 7.17103 7.146 7.22956L7.146 7.22956C7.3665 7.29415 7.59842 7.36208 7.83153 7.36208C8.07729 7.36208 7.59732 7.21547 7.07006 7.05443L7.07004 7.05442C6.64397 6.92428 6.18701 6.78471 6.05718 6.70544C5.92284 6.62342 6.02503 6.65519 6.21115 6.71304C6.42751 6.7803 6.75729 6.8828 6.96077 6.8828C7.33927 6.8828 6.4572 6.51148 6.21736 6.51148C5.97752 6.51148 5.7479 6.40353 5.96397 6.30375C6.09663 6.24249 6.44216 6.33476 6.7431 6.41513C6.9323 6.46566 7.10388 6.51148 7.19386 6.51148C7.30294 6.51148 7.38361 6.55396 7.46944 6.59916C7.56701 6.65054 7.67126 6.70544 7.83153 6.70544C8.13278 6.70544 7.19386 6.30375 6.8039 6.30375C6.41395 6.30375 6.34769 6.11457 6.58226 6.11457C6.81684 6.11457 6.05718 5.79227 6.05718 5.79227C6.05718 5.79227 5.94705 5.56368 6.21736 5.56368H6.58226C6.70732 5.56368 6.4572 5.16723 6.21736 5.16723C5.97752 5.16723 6.18668 5.04746 6.58226 5.04746C6.82281 5.04746 6.96353 5.13048 7.13285 5.23038C7.24199 5.29476 7.363 5.36616 7.53028 5.42685C7.9571 5.58171 7.63515 5.16723 7.53028 5.16723C7.42542 5.16723 6.34769 4.82941 6.34769 4.82941C6.34769 4.82941 6.4572 4.70496 6.34769 4.53551C6.26504 4.40764 6.60898 4.47276 6.81842 4.51242C6.88651 4.52531 6.94039 4.53551 6.96077 4.53551C7.01034 4.53551 7.15272 4.5709 7.32757 4.61436L7.32758 4.61436C7.44558 4.64368 7.57836 4.67668 7.70739 4.70496C8.02761 4.77515 6.61964 4.18793 6.4572 4.18793C6.29477 4.18793 6.8039 4.09144 7.10346 4.09144C7.25075 4.09144 7.32178 4.11476 7.39401 4.13848C7.46868 4.16299 7.54461 4.18793 7.70739 4.18793C8.02761 4.18793 7.10346 3.84471 6.8039 3.84471C6.50434 3.84471 6.68145 3.54917 6.8039 3.54917C6.85158 3.54917 6.97223 3.56503 7.11959 3.5844L7.1196 3.5844L7.1196 3.5844H7.1196L7.11961 3.5844L7.11962 3.5844L7.11963 3.5844C7.35076 3.61478 7.64758 3.65378 7.83153 3.65378C7.97158 3.65378 7.84359 3.61454 7.65743 3.55746L7.65743 3.55746L7.65742 3.55746C7.44316 3.49176 7.15183 3.40243 7.10346 3.32212C7.05008 3.23349 7.15871 3.24955 7.34815 3.27756L7.34815 3.27756C7.38238 3.28262 7.41926 3.28807 7.45829 3.29336C7.58745 3.36104 7.69534 3.40475 7.71112 3.35314C7.71566 3.33829 7.7258 3.32768 7.73871 3.32004C7.76921 3.32138 7.80019 3.32212 7.83153 3.32212C8.01009 3.32212 7.92758 3.29491 7.75571 3.26236L7.74032 3.25765C7.47955 3.17792 6.91526 3.00749 7.12635 3.11266C7.16769 3.13326 7.21416 3.15868 7.26237 3.18552C7.12008 3.16667 7.0005 3.1536 6.96077 3.1536C6.81807 3.1536 6.67496 3.04334 6.96077 3.04334H7.53028C7.35317 3.04334 7.10346 3.04334 7.10346 2.9042C7.10346 2.8095 7.30118 2.84371 7.48331 2.87522C7.56878 2.89001 7.65082 2.9042 7.70739 2.9042C7.8845 2.9042 7.92857 2.9042 7.83153 2.82143C7.73939 2.74283 7.42161 2.74322 7.22427 2.74346L7.19386 2.74348C7.00054 2.74348 7.60375 2.64247 7.83153 2.64247C7.86982 2.64247 7.88672 2.64247 7.88675 2.64175C7.88677 2.64118 7.87625 2.64015 7.85741 2.63832C7.75831 2.62869 7.42903 2.59667 7.19386 2.49028C6.98348 2.39512 7.16778 2.41897 7.40907 2.45021C7.55364 2.46892 7.71866 2.49028 7.83153 2.49028C8.13278 2.49028 7.70739 2.28769 7.38717 2.28769C7.13015 2.28769 7.25262 2.21749 7.41155 2.12638L7.41155 2.12638C7.45062 2.10398 7.4919 2.08032 7.53028 2.05612C7.64583 1.98329 7.7304 2.10754 7.78003 2.18044C7.81394 2.23025 7.83153 2.25609 7.83153 2.17872C7.83153 2.1032 7.81204 2.05527 7.79623 2.03008C7.80469 2.03718 7.81622 2.04591 7.83153 2.05612C7.95567 2.13895 7.83153 1.83884 7.83153 1.83884C7.83153 1.83884 7.70739 1.75596 7.83153 1.75596C7.95567 1.75596 7.7916 1.61349 7.70739 1.61349C7.62318 1.61349 7.92857 1.47717 7.92857 1.47717L7.99586 0.900024C7.99586 0.900024 8.16231 1.52891 8.16231 1.61349V2.05612C8.16231 2.1615 8.08781 2.23503 8.03797 2.28422C7.97547 2.34591 7.95174 2.36934 8.16231 2.36934C8.54079 2.36934 8.52469 2.49028 8.29429 2.49028C8.06389 2.49028 8.36045 2.64247 8.77413 2.64247C9.18781 2.64247 8.42722 2.82143 8.16231 2.82143C7.89739 2.82143 8.42722 2.9042 8.77413 2.9042C9.00838 2.9042 8.76809 2.98517 8.5464 3.05987C8.43978 3.09579 8.33746 3.13027 8.29429 3.1536C8.22551 3.19076 8.39505 3.18947 8.57472 3.17957C8.48029 3.20739 8.38653 3.23589 8.31538 3.25765C8.22909 3.28403 8.19991 3.29295 8.20055 3.29654C8.20088 3.29837 8.20899 3.29881 8.22124 3.29948C8.25749 3.30145 8.32998 3.30539 8.34458 3.35314C8.36636 3.42439 8.5637 3.31397 8.75018 3.20963C8.78004 3.19292 8.80963 3.17636 8.83818 3.16073C8.88721 3.15659 8.91872 3.1536 8.91872 3.1536C8.91872 3.1536 9.09015 3.35141 9.09015 3.47221C9.09015 3.54266 8.86464 3.56342 8.62411 3.58557L8.59985 3.5878C8.61194 3.57192 8.56079 3.58023 8.48565 3.59881C8.36091 3.61164 8.2431 3.62754 8.16231 3.65378C8.08514 3.67885 8.09816 3.68931 8.16089 3.69156L8.14384 3.69676C8.08477 3.71482 8.0645 3.72102 8.06495 3.72458C8.06518 3.72644 8.07107 3.72758 8.08004 3.72932H8.08004C8.10617 3.73438 8.15844 3.74451 8.17304 3.79225C8.19482 3.8635 8.3266 3.77313 8.45113 3.68773L8.4629 3.67966L8.58135 3.67177L8.58136 3.67177C8.7169 3.6626 8.84725 3.65378 8.91872 3.65378C9.14199 3.65378 8.69544 3.76142 8.52469 3.76142C8.45203 3.76142 8.54358 3.77788 8.68322 3.80298C8.87175 3.83686 9.14793 3.88651 9.22595 3.93267C9.31919 3.98785 9.04537 3.96725 8.8017 3.94893L8.80169 3.94893C8.69049 3.94056 8.58557 3.93267 8.52469 3.93267C8.33041 3.93267 8.29429 4.09144 8.42722 4.09144H8.91872C9.10462 4.09144 9.29814 4.37582 9.22595 4.37582C9.20408 4.37582 9.15723 4.39048 9.09191 4.41091C8.94164 4.45792 8.69362 4.53551 8.42722 4.53551C8.04504 4.53551 8.91872 4.53592 9.09015 4.53551C9.26158 4.5351 9.75068 4.53592 9.75068 4.70496C9.75068 4.81012 9.65809 4.83322 9.53677 4.86349C9.46305 4.88188 9.37874 4.90291 9.29814 4.9466C9.08489 5.06221 9.93591 5.16723 9.93591 5.16723C9.93591 5.16723 9.59908 5.27199 9.43516 5.27199C9.27125 5.27199 9.5114 5.42685 9.93591 5.42685C10.2643 5.42685 10.1679 5.60531 10.1074 5.71724L10.1074 5.71725C10.0898 5.74999 10.0751 5.77704 10.0751 5.79227C10.0751 5.8217 10.013 5.8471 9.92305 5.88386C9.80746 5.93111 9.64596 5.99712 9.5114 6.11457C9.35658 6.2497 9.54468 6.20997 9.75721 6.16509L9.75721 6.16509C9.87316 6.1406 9.99637 6.11457 10.0751 6.11457C10.2983 6.11457 10.3933 6.12387 10.3207 6.23208C10.248 6.34028 9.59908 6.51148 9.43516 6.51148H10.3207C10.5662 6.51148 10.2519 6.70544 9.93591 6.70544C9.72402 6.70544 9.60541 6.7852 9.52727 6.83775C9.48889 6.86356 9.46027 6.8828 9.43516 6.8828H10.0751C10.1077 6.8828 10.1436 6.83069 10.1764 6.78293C10.2053 6.74093 10.2319 6.7023 10.2519 6.70544C10.5414 6.75088 10.4115 7.11525 10.2519 7.11525C10.0687 7.11525 9.5114 7.2381 9.59908 7.36208C9.64152 7.42208 9.70781 7.39496 9.81529 7.351C9.9299 7.30413 10.0913 7.2381 10.3207 7.2381C10.765 7.2381 10.3634 7.36208 10.2519 7.36208C10.1404 7.36208 9.66861 7.45215 9.5114 7.52999C9.40644 7.58195 9.77161 7.56454 10.1348 7.54721C10.3157 7.53859 10.4961 7.52999 10.6177 7.52999C10.9834 7.52999 9.75068 7.84119 9.29814 7.84119C8.84561 7.84119 9.59908 7.9607 9.75068 7.9607C9.80883 7.9607 9.92165 7.9759 10.0607 7.99463L10.0608 7.99463H10.0608C10.2843 8.02474 10.5756 8.06398 10.8169 8.06398C11.2083 8.06398 10.4255 8.32185 10.0751 8.32185L9.99505 8.32164C9.68268 8.32035 9.44785 8.31939 9.59908 8.50862C9.68317 8.61384 9.963 8.58519 10.2551 8.55529C10.5323 8.52691 10.8206 8.4974 10.9629 8.58019C11.2186 8.72893 10.0873 8.71608 9.59917 8.71054H9.59916H9.59916C9.52936 8.70975 9.47271 8.7091 9.43516 8.7091C9.13504 8.7091 9.73529 8.82044 10.2519 8.82044L10.3171 8.82042C10.7787 8.82012 10.8881 8.82005 10.8881 8.97191C10.8881 9.10535 9.88253 9.07085 9.46287 9.05645C9.38324 9.05371 9.32471 9.0517 9.29814 9.0517C9.21775 9.0517 9.17116 9.10028 9.12296 9.15055C9.07129 9.20443 9.01776 9.26026 8.91872 9.26026C8.83716 9.26026 8.79886 9.20807 8.76393 9.16049C8.71688 9.09639 8.67597 9.04066 8.54373 9.13217C8.31334 9.2916 8.77413 10.9 8.77413 10.9H7.53028V9.38526C7.53028 9.38526 7.1255 9.25871 6.34769 9.38526ZM7.77669 2.00826C7.77496 2.00862 7.77976 2.01626 7.79623 2.03008C7.78664 2.01481 7.77841 2.00789 7.77669 2.00826ZM7.34392 8.01185C7.14738 7.93786 7.64542 7.93406 7.87581 7.93406C7.95009 7.93406 7.97647 7.93406 7.97812 7.94043C7.97902 7.94394 7.97243 7.94939 7.9622 7.95782C7.9334 7.98159 7.87581 8.02911 7.87581 8.12417C7.87581 8.26602 7.68908 8.17483 7.51264 8.08867L7.51264 8.08866L7.51263 8.08866L7.51262 8.08865C7.45261 8.05935 7.3938 8.03063 7.34392 8.01185ZM7.75112 7.43285C7.52073 7.43285 7.02269 7.43665 7.21923 7.51064C7.26911 7.52941 7.32792 7.55814 7.38793 7.58744L7.38794 7.58745L7.38795 7.58745L7.38795 7.58745C7.56439 7.67362 7.75112 7.76481 7.75112 7.62295C7.75112 7.5279 7.80871 7.48037 7.83751 7.45661C7.84774 7.44817 7.85433 7.44273 7.85343 7.43922C7.85178 7.43285 7.82541 7.43285 7.75112 7.43285ZM7.33567 7.0978C7.17521 7.05893 7.58182 7.05694 7.76991 7.05694C7.83169 7.05694 7.85289 7.05694 7.8535 7.06048C7.85381 7.06232 7.84851 7.06514 7.84045 7.06942C7.81694 7.0819 7.76991 7.10686 7.76991 7.15679C7.76991 7.2313 7.61747 7.1834 7.47342 7.13814C7.42442 7.12275 7.3764 7.10766 7.33567 7.0978ZM7.74032 5.51311C7.47955 5.43339 6.91526 5.26295 7.12635 5.36812C7.17993 5.39482 7.2421 5.4296 7.30552 5.46509C7.492 5.56943 7.68934 5.67985 7.71112 5.6086C7.72572 5.56085 7.79821 5.55691 7.83445 5.55494C7.84671 5.55427 7.85482 5.55383 7.85515 5.552C7.85579 5.54841 7.82661 5.53949 7.74032 5.51311ZM7.12635 4.86691C6.91526 4.76174 7.47955 4.93217 7.74032 5.01189C7.82661 5.03828 7.85579 5.0472 7.85515 5.05079C7.85482 5.05262 7.84671 5.05306 7.83445 5.05373C7.79821 5.0557 7.72572 5.05964 7.71112 5.10738C7.68934 5.17864 7.492 5.06822 7.30552 4.96388L7.30552 4.96388C7.24209 4.92839 7.17992 4.8936 7.12635 4.86691ZM7.74032 4.38538C7.47955 4.30565 6.91526 4.13522 7.12635 4.24039C7.17993 4.26709 7.2421 4.30187 7.30552 4.33736C7.492 4.4417 7.68934 4.55212 7.71112 4.48087C7.72572 4.43312 7.79821 4.42918 7.83445 4.42721C7.84671 4.42654 7.85482 4.4261 7.85515 4.42427C7.85579 4.42068 7.82661 4.41176 7.74032 4.38538ZM8.30458 7.80876C8.53497 7.80876 9.03301 7.81256 8.83647 7.88655C8.78659 7.90532 8.72777 7.93405 8.66777 7.96335L8.66775 7.96336L8.66775 7.96336C8.4913 8.04953 8.30458 8.14072 8.30458 7.99886C8.30458 7.90381 8.24699 7.85628 8.21819 7.83252C8.20796 7.82408 8.20137 7.81864 8.20227 7.81513C8.20391 7.80876 8.23029 7.80876 8.30458 7.80876ZM8.83647 7.51064C9.03301 7.43665 8.53497 7.43285 8.30458 7.43285C8.23029 7.43285 8.20391 7.43285 8.20227 7.43922C8.20137 7.44273 8.20796 7.44817 8.21819 7.45661C8.24699 7.48037 8.30458 7.5279 8.30458 7.62295C8.30458 7.76481 8.4913 7.67362 8.66775 7.58745L8.66775 7.58745L8.66776 7.58745L8.66777 7.58744C8.72778 7.55814 8.78659 7.52941 8.83647 7.51064ZM9.14472 6.64388L9.14473 6.64388C9.16527 6.63913 9.16593 6.63897 9.13918 6.64545C9.08622 6.65828 8.97524 6.70193 8.85031 6.75106L8.8503 6.75106L8.8503 6.75106C8.59676 6.85078 8.28578 6.97307 8.28578 6.90618C8.28578 6.85626 8.23876 6.83129 8.21525 6.81881C8.20718 6.81453 8.20189 6.81172 8.2022 6.80987C8.20281 6.80633 8.22401 6.80633 8.28578 6.80633C8.44251 6.80633 9.04199 6.66765 9.14472 6.64388ZM8.92935 5.11752C9.14044 5.01234 8.57614 5.18278 8.31538 5.2625C8.22909 5.28888 8.19991 5.29781 8.20055 5.30139C8.20088 5.30323 8.20899 5.30367 8.22124 5.30433C8.25749 5.3063 8.32998 5.31025 8.34458 5.35799C8.36636 5.42924 8.5637 5.31883 8.75018 5.21449C8.8136 5.179 8.87577 5.14421 8.92935 5.11752ZM8.31538 5.76372C8.57614 5.68399 9.14044 5.51356 8.92935 5.61873C8.87577 5.64543 8.8136 5.68021 8.75018 5.7157C8.5637 5.82004 8.36636 5.93046 8.34458 5.8592C8.32998 5.81146 8.25749 5.80752 8.22124 5.80555C8.20899 5.80488 8.20088 5.80444 8.20055 5.80261C8.19991 5.79902 8.22909 5.7901 8.31538 5.76372ZM8.92935 4.6163C9.14044 4.51113 8.57614 4.68156 8.31538 4.76129C8.22909 4.78767 8.19991 4.79659 8.20055 4.80018C8.20088 4.80201 8.20899 4.80245 8.22124 4.80312C8.25749 4.80509 8.32998 4.80903 8.34458 4.85678C8.36636 4.92803 8.5637 4.81761 8.75017 4.71327C8.8136 4.67778 8.87577 4.643 8.92935 4.6163ZM8.14384 4.32328C8.32372 4.26829 8.71314 4.15131 8.57106 4.23539C8.535 4.25673 8.49348 4.2852 8.45113 4.31425C8.3266 4.39965 8.19482 4.49002 8.17304 4.41877C8.15844 4.37102 8.10617 4.3609 8.08004 4.35584H8.08004C8.07107 4.3541 8.06518 4.35296 8.06495 4.3511C8.0645 4.34754 8.08477 4.34134 8.14384 4.32328ZM8.2586 6.23025C8.05204 6.23025 8.2586 6.06702 8.2586 6.06702H8.36495C8.40146 6.06702 8.43406 6.05198 8.47688 6.03224C8.55878 5.99446 8.67808 5.93944 8.93365 5.93944C9.32281 5.93944 8.46516 6.23025 8.2586 6.23025Z" fill="#409100"/>
</g>
</svg>
