<svg width="32" height="24" viewBox="0 0 32 24" fill="none" xmlns="http://www.w3.org/2000/svg">
<mask id="mask0" mask-type="alpha" maskUnits="userSpaceOnUse" x="0" y="0" width="32" height="24">
<rect width="32" height="24" fill="white"/>
</mask>
<g mask="url(#mask0)">
<path fill-rule="evenodd" clip-rule="evenodd" d="M0 0V24H32V0H0Z" fill="#4857A1"/>
<mask id="mask1" mask-type="alpha" maskUnits="userSpaceOnUse" x="0" y="0" width="32" height="24">
<path fill-rule="evenodd" clip-rule="evenodd" d="M0 0V24H32V0H0Z" fill="white"/>
</mask>
<g mask="url(#mask1)">
<path fill-rule="evenodd" clip-rule="evenodd" d="M0 0V8H32V0H0Z" fill="#C51918"/>
<path fill-rule="evenodd" clip-rule="evenodd" d="M0 16V24H32V16H0Z" fill="#F7FCFF"/>
<path fill-rule="evenodd" clip-rule="evenodd" d="M11.4559 3.80332L11.3427 3.34985C11.4392 3.37948 11.5439 3.40988 11.6545 3.44114L11.6535 3.43535C12.9735 3.55508 15.014 4.23838 15.3939 4.96411C15.5407 5.24462 15.3947 5.48375 15.2034 5.79712C15.1748 5.84395 15.1452 5.89243 15.1154 5.94296C15.0192 6.10614 14.932 6.26212 14.8498 6.40913C14.5533 6.93951 14.3221 7.353 13.9702 7.5654L13.9772 8.76638L8.08166 8.71569L8.07401 7.50258C7.77264 7.27689 7.55706 6.89132 7.28747 6.40913C7.20527 6.26212 7.11806 6.10614 7.02186 5.94296C6.99207 5.89243 6.96247 5.84395 6.93388 5.79712C6.74256 5.48375 6.59656 5.24462 6.74338 4.96411C7.02897 4.41847 8.32284 3.88779 9.50843 3.60713C9.7417 3.52418 9.9855 3.44666 10.2272 3.37243L10.3351 3.45052C10.4288 3.43773 10.5197 3.4273 10.6068 3.41939L10.7426 3.72229H11.2227C11.2227 3.72229 11.5125 4.58283 11.5125 5.06074C11.5125 5.53865 11.2227 5.93386 11.2227 5.93386V6.26375C11.273 6.26794 11.3258 6.27306 11.3807 6.27898C11.3811 6.25036 11.3838 6.22022 11.3893 6.18938C11.4171 6.03173 11.5035 5.9152 11.5823 5.9291C11.6612 5.94299 11.7025 6.08206 11.6747 6.23971C11.6702 6.26535 11.6641 6.28989 11.6568 6.31297C11.9678 6.35526 12.3164 6.41431 12.6465 6.47505C12.7722 6.23136 12.9255 5.9906 13.0719 5.76071C13.4502 5.16651 13.7822 4.64501 13.4723 4.33371C13.4136 4.27467 13.3072 4.21975 13.1701 4.16889C12.7167 4.05609 12.2232 3.96908 11.7435 3.92558L11.729 3.84676C11.6333 3.83121 11.5415 3.81673 11.4559 3.80332ZM13.6961 6.6828C13.8637 6.71811 13.9653 6.74057 13.9653 6.74057L13.9663 6.91243C14.5504 6.46225 14.9637 5.46476 15.001 5.13799C15.0234 4.94099 14.711 4.71387 14.2212 4.50809C14.453 4.94774 14.1425 5.38404 13.7529 5.93159C13.6065 6.13737 13.4489 6.35886 13.3046 6.60215L13.4477 6.6312C13.4464 6.58602 13.4524 6.53522 13.4664 6.483C13.5078 6.32837 13.6041 6.21981 13.6814 6.24053C13.7587 6.26124 13.7878 6.40339 13.7464 6.55802C13.7339 6.60454 13.7165 6.64688 13.6961 6.6828ZM10.6836 6.26598V5.89858C10.6836 5.89858 10.4326 5.61809 10.3937 5.03395C10.3659 4.61609 10.4521 4.12487 10.5034 3.87906C10.1289 3.92654 9.73417 4.00029 9.35194 4.09086C9.09834 4.16226 8.89623 4.24314 8.80608 4.33371C8.49623 4.64501 8.82824 5.16651 9.20654 5.76071L9.20654 5.76072L9.20655 5.76072L9.20655 5.76074C9.34792 5.98278 9.49574 6.21497 9.61896 6.45015C9.83205 6.40401 10.0462 6.3613 10.2461 6.32732C10.2375 6.29642 10.2313 6.26269 10.2282 6.22718C10.2143 6.0677 10.2676 5.93277 10.3473 5.92579C10.4271 5.91882 10.503 6.04244 10.517 6.20192C10.5195 6.23082 10.5198 6.25892 10.5182 6.2856C10.5756 6.2779 10.6309 6.27131 10.6836 6.26598ZM8.52552 5.9316L8.52552 5.9316L8.52551 5.93159C8.12706 5.37166 7.8114 4.92807 8.07377 4.47826C7.50027 4.70033 7.11389 4.94151 7.1363 5.13799C7.17149 5.44673 7.54235 6.35422 8.07582 6.83312C8.11298 6.82276 8.31926 6.76553 8.61041 6.69068C8.58806 6.65579 8.56834 6.61425 8.55339 6.56826C8.50393 6.41601 8.52553 6.27254 8.60166 6.2478C8.67778 6.22307 8.77959 6.32644 8.82906 6.47869C8.84614 6.53123 8.85474 6.58273 8.85556 6.62866L8.9724 6.59983C8.82857 6.35746 8.67149 6.13673 8.52553 5.93161L8.52553 5.93161L8.52552 5.9316Z" fill="#F6C540"/>
<path fill-rule="evenodd" clip-rule="evenodd" d="M11.6522 3.50604C11.6522 3.85751 11.3603 4.14244 11.0001 4.14244C10.6399 4.14244 10.3479 3.85751 10.3479 3.50604C10.3479 3.15456 10.6399 2.86963 11.0001 2.86963C11.3603 2.86963 11.6522 3.15456 11.6522 3.50604ZM11.0001 8.23195C11.2802 8.23195 11.5073 8.10218 11.5073 7.94209C11.5073 7.78201 11.2802 7.65224 11.0001 7.65224C10.7199 7.65224 10.4928 7.78201 10.4928 7.94209C10.4928 8.10218 10.7199 8.23195 11.0001 8.23195ZM8.46384 8.15948C8.46384 8.27955 8.36651 8.37688 8.24644 8.37688C8.12638 8.37688 8.02905 8.27955 8.02905 8.15948C8.02905 8.03942 8.12638 7.94209 8.24644 7.94209C8.36651 7.94209 8.46384 8.03942 8.46384 8.15948ZM14.2609 8.15948C14.2609 8.27955 14.1636 8.37688 14.0435 8.37688C13.9235 8.37688 13.8262 8.27955 13.8262 8.15948C13.8262 8.03942 13.9235 7.94209 14.0435 7.94209C14.1636 7.94209 14.2609 8.03942 14.2609 8.15948Z" fill="#2E42A5"/>
<path fill-rule="evenodd" clip-rule="evenodd" d="M9.91311 8.01451C9.91311 8.13457 9.7509 8.2319 9.5508 8.2319C9.35069 8.2319 9.18848 8.13457 9.18848 8.01451C9.18848 7.89445 9.35069 7.79712 9.5508 7.79712C9.7509 7.79712 9.91311 7.89445 9.91311 8.01451ZM12.9566 8.01451C12.9566 8.13457 12.7944 8.2319 12.5943 8.2319C12.3942 8.2319 12.232 8.13457 12.232 8.01451C12.232 7.89445 12.3942 7.79712 12.5943 7.79712C12.7944 7.79712 12.9566 7.89445 12.9566 8.01451Z" fill="#C5363C"/>
<path fill-rule="evenodd" clip-rule="evenodd" d="M12.2319 6.20294C12.2319 6.36302 12.167 6.4928 12.087 6.4928C12.007 6.4928 11.9421 6.36302 11.9421 6.20294C11.9421 6.04286 12.007 5.91309 12.087 5.91309C12.167 5.91309 12.2319 6.04286 12.2319 6.20294ZM10.0509 6.15816C10.1004 6.3104 10.0788 6.45388 10.0027 6.47861C9.92654 6.50334 9.82473 6.39997 9.77526 6.24773C9.72579 6.09548 9.7474 5.95201 9.82352 5.92727C9.89965 5.90254 10.0015 6.00591 10.0509 6.15816ZM8.34601 6.94399C8.42214 6.91926 8.44374 6.77578 8.39428 6.62354C8.34481 6.47129 8.24299 6.36792 8.16687 6.39265C8.09075 6.41739 8.06914 6.56086 8.11861 6.71311C8.16808 6.86535 8.26989 6.96872 8.34601 6.94399ZM14.0806 6.74728C13.9958 6.88304 13.872 6.95871 13.8041 6.91629C13.7362 6.87388 13.75 6.72944 13.8348 6.59368C13.9196 6.45792 14.0434 6.38225 14.1113 6.42467C14.1792 6.46708 14.1655 6.61152 14.0806 6.74728Z" fill="#F7FCFF"/>
<path fill-rule="evenodd" clip-rule="evenodd" d="M9.76907 3.79244C9.80948 3.82186 9.85925 3.83922 9.91307 3.83922C10.0483 3.83922 10.158 3.72956 10.158 3.59429C10.158 3.45902 10.0483 3.34937 9.91307 3.34937C9.81714 3.34937 9.73409 3.40451 9.6939 3.48484C9.65348 3.45541 9.60372 3.43805 9.5499 3.43805C9.4636 3.43805 9.38773 3.48268 9.3441 3.55012C9.30178 3.51524 9.24755 3.49429 9.18843 3.49429C9.05316 3.49429 8.9435 3.60395 8.9435 3.73922C8.9435 3.74676 8.94385 3.75422 8.94451 3.76159C8.89962 3.70584 8.8308 3.67017 8.75365 3.67017C8.63105 3.67017 8.52948 3.76025 8.51154 3.87784C8.46669 3.82079 8.39706 3.78415 8.31887 3.78415C8.20132 3.78415 8.10312 3.86695 8.0794 3.97741C8.03918 3.94846 7.98982 3.93141 7.93648 3.93141C7.82794 3.93141 7.73589 4.00201 7.70375 4.0998C7.6708 4.08329 7.6336 4.074 7.59423 4.074C7.47338 4.074 7.37297 4.16153 7.35294 4.27665C7.33724 4.2735 7.321 4.27184 7.30437 4.27184C7.17039 4.27184 7.06154 4.37941 7.05948 4.5129C7.0449 4.5102 7.02988 4.50879 7.01452 4.50879C6.87925 4.50879 6.76959 4.61844 6.76959 4.75371C6.76959 4.77086 6.77135 4.7876 6.77471 4.80376C6.75855 4.8004 6.74181 4.79864 6.72466 4.79864C6.58939 4.79864 6.47974 4.9083 6.47974 5.04357C6.47974 5.14634 6.54304 5.23433 6.63278 5.27068C6.62748 5.2907 6.62466 5.31173 6.62466 5.33342C6.62466 5.4362 6.68796 5.52419 6.7777 5.56053C6.77241 5.58056 6.76959 5.60159 6.76959 5.62328C6.76959 5.75533 6.8741 5.86298 7.00492 5.86802C6.94976 5.91293 6.91452 5.98138 6.91452 6.05806C6.91452 6.19333 7.02418 6.30299 7.15945 6.30299C7.29472 6.30299 7.40437 6.19333 7.40437 6.05806C7.40437 5.92601 7.29987 5.81836 7.16904 5.81332C7.22421 5.76841 7.25945 5.69996 7.25945 5.62328C7.25945 5.5205 7.19615 5.43252 7.10641 5.39617C7.1117 5.37614 7.11452 5.35511 7.11452 5.33342C7.11452 5.23065 7.05122 5.14266 6.96148 5.10632C6.96677 5.08629 6.96959 5.06526 6.96959 5.04357C6.96959 5.02642 6.96783 5.00968 6.96447 4.99352C6.98063 4.99688 6.99737 4.99864 7.01452 4.99864C7.1485 4.99864 7.25735 4.89107 7.25942 4.75758C7.27399 4.76028 7.28902 4.76169 7.30437 4.76169C7.42523 4.76169 7.52564 4.67417 7.54567 4.55904C7.56136 4.5622 7.5776 4.56386 7.59423 4.56386C7.70277 4.56386 7.79482 4.49326 7.82696 4.39547C7.85992 4.41198 7.89711 4.42127 7.93648 4.42127C7.99022 4.42127 8.03991 4.40396 8.0803 4.37462C8.08791 4.40738 8.1021 4.43761 8.1214 4.46386C8.09156 4.50444 8.07394 4.55455 8.07394 4.60879C8.07394 4.74084 8.17845 4.84849 8.30927 4.85353C8.2541 4.89844 8.21887 4.96689 8.21887 5.04357C8.21887 5.14634 8.28217 5.23433 8.37191 5.27068C8.36661 5.2907 8.36379 5.31173 8.36379 5.33342C8.36379 5.4362 8.42709 5.52419 8.51683 5.56053C8.51154 5.58056 8.50872 5.60159 8.50872 5.62328C8.50872 5.75855 8.61838 5.86821 8.75365 5.86821C8.88892 5.86821 8.99858 5.75855 8.99858 5.62328C8.99858 5.5205 8.93528 5.43252 8.84554 5.39617C8.85083 5.37614 8.85365 5.35511 8.85365 5.33342C8.85365 5.23065 8.79035 5.14266 8.70061 5.10632C8.7059 5.08629 8.70872 5.06526 8.70872 5.04357C8.70872 4.91151 8.60421 4.80387 8.47339 4.79883C8.52856 4.75391 8.56379 4.68547 8.56379 4.60879C8.56379 4.55455 8.54617 4.50444 8.51633 4.46386C8.54617 4.42328 8.56379 4.37316 8.56379 4.31893C8.56379 4.2647 8.54617 4.21458 8.51633 4.174C8.5392 4.1429 8.55489 4.1062 8.56098 4.06633C8.60582 4.12338 8.67546 4.16003 8.75365 4.16003C8.88892 4.16003 8.99858 4.05037 8.99858 3.9151C8.99858 3.90756 8.99824 3.9001 8.99757 3.89273C9.04246 3.94848 9.11128 3.98415 9.18843 3.98415C9.27473 3.98415 9.3506 3.93952 9.39423 3.87208C9.43655 3.90696 9.49078 3.92791 9.5499 3.92791C9.64583 3.92791 9.72887 3.87276 9.76907 3.79244ZM8.31887 4.274C8.39991 4.274 8.47175 4.23465 8.51633 4.174C8.47175 4.11336 8.39991 4.074 8.31887 4.074C8.34368 4.074 8.36379 4.05389 8.36379 4.02908C8.36379 4.00426 8.34368 3.98415 8.31887 3.98415C8.29405 3.98415 8.27394 4.00426 8.27394 4.02908C8.27394 4.05389 8.29405 4.074 8.31887 4.074C8.26513 4.074 8.21544 4.09131 8.17505 4.12065C8.16142 4.06202 8.12674 4.01148 8.0794 3.97741C8.07582 3.99406 8.07394 4.01135 8.07394 4.02908C8.07394 4.08331 8.09156 4.13342 8.1214 4.174C8.09156 4.21459 8.07394 4.2647 8.07394 4.31893C8.07394 4.33809 8.07614 4.35673 8.0803 4.37462C8.12825 4.33978 8.16308 4.28797 8.17595 4.22801C8.21617 4.25695 8.26553 4.274 8.31887 4.274ZM8.31887 4.36386C8.23783 4.36386 8.16598 4.40322 8.1214 4.46386C8.16598 4.5245 8.23783 4.56386 8.31887 4.56386C8.29405 4.56386 8.27394 4.58397 8.27394 4.60879C8.27394 4.6336 8.29405 4.65371 8.31887 4.65371C8.34368 4.65371 8.36379 4.6336 8.36379 4.60879C8.36379 4.58397 8.34368 4.56386 8.31887 4.56386C8.39991 4.56386 8.47175 4.5245 8.51633 4.46386C8.47175 4.40322 8.39991 4.36386 8.31887 4.36386ZM8.31887 4.36386C8.34368 4.36386 8.36379 4.34374 8.36379 4.31893C8.36379 4.29412 8.34368 4.274 8.31887 4.274C8.29405 4.274 8.27394 4.29412 8.27394 4.31893C8.27394 4.34374 8.29405 4.36386 8.31887 4.36386ZM8.17595 4.22801C8.15506 4.21297 8.13664 4.19473 8.1214 4.174C8.13642 4.15357 8.15453 4.13556 8.17505 4.12065C8.17921 4.13854 8.18141 4.15718 8.18141 4.17634C8.18141 4.19406 8.17953 4.21135 8.17595 4.22801ZM8.84554 5.39617C8.81716 5.38468 8.78615 5.37835 8.75365 5.37835C8.64007 5.37835 8.54455 5.45566 8.51683 5.56053C8.54521 5.57202 8.57623 5.57835 8.60872 5.57835C8.7223 5.57835 8.81782 5.50104 8.84554 5.39617ZM8.70061 5.10632C8.67224 5.09482 8.64122 5.0885 8.60872 5.0885C8.49514 5.0885 8.39962 5.16581 8.37191 5.27068C8.40028 5.28217 8.4313 5.2885 8.46379 5.2885C8.57737 5.2885 8.6729 5.21118 8.70061 5.10632ZM8.47339 4.79883L8.46379 4.79864C8.4052 4.79864 8.35142 4.81921 8.30927 4.85353L8.31887 4.85371C8.37746 4.85371 8.43124 4.83314 8.47339 4.79883ZM7.16904 5.81332L7.15945 5.81313C7.10086 5.81313 7.04707 5.83371 7.00492 5.86802L7.01452 5.86821C7.07311 5.86821 7.12689 5.84763 7.16904 5.81332ZM7.10641 5.39617C7.07869 5.50104 6.98317 5.57835 6.86959 5.57835C6.8371 5.57835 6.80608 5.57202 6.7777 5.56053C6.80542 5.45566 6.90094 5.37835 7.01452 5.37835C7.04701 5.37835 7.07803 5.38468 7.10641 5.39617ZM6.96148 5.10632C6.93377 5.21118 6.83824 5.2885 6.72466 5.2885C6.69217 5.2885 6.66115 5.28217 6.63278 5.27068C6.66049 5.16581 6.75601 5.0885 6.86959 5.0885C6.90209 5.0885 6.93311 5.09482 6.96148 5.10632ZM6.77471 4.80376C6.79446 4.89887 6.86936 4.97378 6.96447 4.99352C6.94473 4.89841 6.86982 4.8235 6.77471 4.80376ZM7.25942 4.75758C7.14562 4.73647 7.05945 4.63668 7.05945 4.51677L7.05948 4.5129C7.17327 4.53401 7.25945 4.6338 7.25945 4.75371L7.25942 4.75758ZM7.54567 4.55904C7.43366 4.53651 7.3493 4.43757 7.3493 4.31893C7.3493 4.30451 7.35055 4.29039 7.35294 4.27665C7.46494 4.29918 7.5493 4.39812 7.5493 4.51677C7.5493 4.53118 7.54806 4.54531 7.54567 4.55904ZM7.82696 4.39547C7.74667 4.35527 7.69156 4.27224 7.69156 4.17634C7.69156 4.14961 7.69584 4.12388 7.70375 4.0998C7.78404 4.14 7.83916 4.22303 7.83916 4.31893C7.83916 4.34566 7.83487 4.37139 7.82696 4.39547ZM8.56098 4.06633C8.52825 4.02469 8.50872 3.97217 8.50872 3.9151C8.50872 3.90243 8.50968 3.88999 8.51154 3.87784C8.54427 3.91948 8.56379 3.972 8.56379 4.02908C8.56379 4.04174 8.56283 4.05419 8.56098 4.06633ZM8.94451 3.76159C8.94899 3.811 8.96814 3.85618 8.99757 3.89273C8.9931 3.84332 8.97395 3.79814 8.94451 3.76159ZM9.39423 3.87208C9.33972 3.82716 9.30497 3.75913 9.30497 3.68298C9.30497 3.63401 9.31934 3.58839 9.3441 3.55012C9.39861 3.59504 9.43336 3.66307 9.43336 3.73922C9.43336 3.78819 9.41899 3.83381 9.39423 3.87208ZM9.76907 3.79244C9.7079 3.74791 9.66814 3.67574 9.66814 3.59429C9.66814 3.55495 9.67742 3.51778 9.6939 3.48484C9.75507 3.52937 9.79483 3.60153 9.79483 3.68298C9.79483 3.72232 9.78555 3.7595 9.76907 3.79244ZM7.30437 4.56169C7.32919 4.56169 7.3493 4.54158 7.3493 4.51677C7.3493 4.49195 7.32919 4.47184 7.30437 4.47184C7.27956 4.47184 7.25945 4.49195 7.25945 4.51677C7.25945 4.54158 7.27956 4.56169 7.30437 4.56169ZM7.01452 4.79864C7.03933 4.79864 7.05945 4.77853 7.05945 4.75371C7.05945 4.7289 7.03933 4.70879 7.01452 4.70879C6.98971 4.70879 6.96959 4.7289 6.96959 4.75371C6.96959 4.77853 6.98971 4.79864 7.01452 4.79864ZM6.72466 5.0885C6.74948 5.0885 6.76959 5.06838 6.76959 5.04357C6.76959 5.01876 6.74948 4.99864 6.72466 4.99864C6.69985 4.99864 6.67974 5.01876 6.67974 5.04357C6.67974 5.06838 6.69985 5.0885 6.72466 5.0885ZM6.86959 5.37835C6.8944 5.37835 6.91452 5.35824 6.91452 5.33342C6.91452 5.30861 6.8944 5.2885 6.86959 5.2885C6.84478 5.2885 6.82466 5.30861 6.82466 5.33342C6.82466 5.35824 6.84478 5.37835 6.86959 5.37835ZM7.01452 5.66821C7.03933 5.66821 7.05945 5.64809 7.05945 5.62328C7.05945 5.59847 7.03933 5.57835 7.01452 5.57835C6.98971 5.57835 6.96959 5.59847 6.96959 5.62328C6.96959 5.64809 6.98971 5.66821 7.01452 5.66821ZM7.20437 6.05806C7.20437 6.08287 7.18426 6.10299 7.15945 6.10299C7.13463 6.10299 7.11452 6.08287 7.11452 6.05806C7.11452 6.03325 7.13463 6.01313 7.15945 6.01313C7.18426 6.01313 7.20437 6.03325 7.20437 6.05806ZM7.59423 4.36386C7.61904 4.36386 7.63916 4.34374 7.63916 4.31893C7.63916 4.29412 7.61904 4.274 7.59423 4.274C7.56942 4.274 7.5493 4.29412 7.5493 4.31893C7.5493 4.34374 7.56942 4.36386 7.59423 4.36386ZM7.93648 4.22127C7.9613 4.22127 7.98141 4.20115 7.98141 4.17634C7.98141 4.15153 7.9613 4.13141 7.93648 4.13141C7.91167 4.13141 7.89156 4.15153 7.89156 4.17634C7.89156 4.20115 7.91167 4.22127 7.93648 4.22127ZM8.75365 3.96003C8.77846 3.96003 8.79858 3.93991 8.79858 3.9151C8.79858 3.89029 8.77846 3.87017 8.75365 3.87017C8.72884 3.87017 8.70872 3.89029 8.70872 3.9151C8.70872 3.93991 8.72884 3.96003 8.75365 3.96003ZM9.18843 3.78415C9.21324 3.78415 9.23336 3.76403 9.23336 3.73922C9.23336 3.71441 9.21324 3.69429 9.18843 3.69429C9.16362 3.69429 9.1435 3.71441 9.1435 3.73922C9.1435 3.76403 9.16362 3.78415 9.18843 3.78415ZM9.5499 3.72791C9.57471 3.72791 9.59482 3.70779 9.59482 3.68298C9.59482 3.65817 9.57471 3.63805 9.5499 3.63805C9.52508 3.63805 9.50497 3.65817 9.50497 3.68298C9.50497 3.70779 9.52508 3.72791 9.5499 3.72791ZM9.91307 3.63922C9.93788 3.63922 9.958 3.61911 9.958 3.59429C9.958 3.56948 9.93788 3.54937 9.91307 3.54937C9.88826 3.54937 9.86814 3.56948 9.86814 3.59429C9.86814 3.61911 9.88826 3.63922 9.91307 3.63922ZM8.46379 5.0885C8.48861 5.0885 8.50872 5.06838 8.50872 5.04357C8.50872 5.01876 8.48861 4.99864 8.46379 4.99864C8.43898 4.99864 8.41887 5.01876 8.41887 5.04357C8.41887 5.06838 8.43898 5.0885 8.46379 5.0885ZM8.60872 5.37835C8.63353 5.37835 8.65365 5.35824 8.65365 5.33342C8.65365 5.30861 8.63353 5.2885 8.60872 5.2885C8.58391 5.2885 8.56379 5.30861 8.56379 5.33342C8.56379 5.35824 8.58391 5.37835 8.60872 5.37835ZM8.75365 5.66821C8.77846 5.66821 8.79858 5.64809 8.79858 5.62328C8.79858 5.59847 8.77846 5.57835 8.75365 5.57835C8.72884 5.57835 8.70872 5.59847 8.70872 5.62328C8.70872 5.64809 8.72884 5.66821 8.75365 5.66821ZM15.1305 6.10299C15.1553 6.10299 15.1754 6.08287 15.1754 6.05806C15.1754 6.03325 15.1553 6.01313 15.1305 6.01313C15.1056 6.01313 15.0855 6.03325 15.0855 6.05806C15.0855 6.08287 15.1056 6.10299 15.1305 6.10299ZM14.8855 6.05806C14.8855 6.19333 14.9952 6.30299 15.1305 6.30299C15.2657 6.30299 15.3754 6.19333 15.3754 6.05806C15.3754 5.98138 15.3402 5.91293 15.285 5.86802C15.4158 5.86298 15.5203 5.75534 15.5203 5.62328C15.5203 5.60159 15.5175 5.58055 15.5122 5.56053C15.6019 5.52418 15.6652 5.4362 15.6652 5.33342C15.6652 5.31173 15.6624 5.2907 15.6571 5.27067C15.7469 5.23433 15.8102 5.14634 15.8102 5.04357C15.8102 4.9083 15.7005 4.79864 15.5652 4.79864C15.5481 4.79864 15.5314 4.8004 15.5152 4.80376C15.5186 4.7876 15.5203 4.77086 15.5203 4.75371C15.5203 4.61844 15.4107 4.50879 15.2754 4.50879C15.26 4.50879 15.245 4.5102 15.2304 4.5129C15.2284 4.37941 15.1195 4.27184 14.9855 4.27184C14.9689 4.27184 14.9527 4.2735 14.937 4.27665C14.9169 4.16153 14.8165 4.074 14.6957 4.074C14.6563 4.074 14.6191 4.08329 14.5862 4.0998C14.554 4.00201 14.462 3.93141 14.3534 3.93141C14.3001 3.93141 14.2507 3.94846 14.2105 3.97741C14.1868 3.86695 14.0886 3.78415 13.971 3.78415C13.8928 3.78415 13.8232 3.82079 13.7784 3.87784C13.7604 3.76025 13.6589 3.67017 13.5363 3.67017C13.4591 3.67017 13.3903 3.70584 13.3454 3.76159C13.3461 3.75422 13.3464 3.74676 13.3464 3.73922C13.3464 3.60395 13.2367 3.49429 13.1015 3.49429C13.0424 3.49429 12.9881 3.51524 12.9458 3.55012C12.9022 3.48268 12.8263 3.43805 12.74 3.43805C12.6862 3.43805 12.6364 3.45541 12.596 3.48484C12.5558 3.40452 12.4728 3.34937 12.3768 3.34937C12.2416 3.34937 12.1319 3.45902 12.1319 3.59429C12.1319 3.72956 12.2416 3.83922 12.3768 3.83922C12.4307 3.83922 12.4804 3.82186 12.5208 3.79244C12.561 3.87276 12.6441 3.92791 12.74 3.92791C12.7991 3.92791 12.8534 3.90696 12.8957 3.87208C12.9393 3.93952 13.0152 3.98415 13.1015 3.98415C13.1786 3.98415 13.2474 3.94848 13.2923 3.89273C13.2917 3.9001 13.2913 3.90756 13.2913 3.9151C13.2913 4.05037 13.401 4.16003 13.5363 4.16003C13.6145 4.16003 13.6841 4.12338 13.7289 4.06633C13.735 4.1062 13.7507 4.1429 13.7736 4.174C13.7437 4.21459 13.7261 4.2647 13.7261 4.31893C13.7261 4.37316 13.7437 4.42328 13.7736 4.46386C13.7437 4.50444 13.7261 4.55455 13.7261 4.60879C13.7261 4.68547 13.7614 4.75391 13.8165 4.79883C13.6857 4.80387 13.5812 4.91151 13.5812 5.04357C13.5812 5.06526 13.584 5.08629 13.5893 5.10632C13.4996 5.14266 13.4363 5.23065 13.4363 5.33342C13.4363 5.35511 13.4391 5.37614 13.4444 5.39617C13.3546 5.43252 13.2913 5.5205 13.2913 5.62328C13.2913 5.75855 13.401 5.86821 13.5363 5.86821C13.6715 5.86821 13.7812 5.75855 13.7812 5.62328C13.7812 5.60159 13.7784 5.58056 13.7731 5.56053C13.8628 5.52419 13.9261 5.4362 13.9261 5.33342C13.9261 5.31173 13.9233 5.2907 13.918 5.27068C14.0077 5.23433 14.071 5.14634 14.071 5.04357C14.071 4.96689 14.0358 4.89844 13.9806 4.85353C14.1115 4.84849 14.216 4.74084 14.216 4.60879C14.216 4.55455 14.1983 4.50444 14.1685 4.46386C14.1878 4.43761 14.202 4.40738 14.2096 4.37462C14.25 4.40396 14.2997 4.42127 14.3534 4.42127C14.3928 4.42127 14.43 4.41198 14.4629 4.39547C14.4951 4.49326 14.5871 4.56386 14.6957 4.56386C14.7123 4.56386 14.7285 4.5622 14.7442 4.55904C14.7643 4.67416 14.8647 4.76169 14.9855 4.76169C15.0009 4.76169 15.0159 4.76028 15.0305 4.75757C15.0326 4.89106 15.1414 4.99864 15.2754 4.99864C15.2925 4.99864 15.3093 4.99687 15.3254 4.99352C15.3221 5.00968 15.3203 5.02642 15.3203 5.04357C15.3203 5.06526 15.3231 5.08629 15.3284 5.10631C15.2387 5.14266 15.1754 5.23065 15.1754 5.33342C15.1754 5.35511 15.1782 5.37614 15.1835 5.39617C15.0938 5.43251 15.0305 5.5205 15.0305 5.62328C15.0305 5.69996 15.0657 5.76841 15.1209 5.81332C14.99 5.81836 14.8855 5.926 14.8855 6.05806ZM14.114 4.22801C14.1268 4.28797 14.1617 4.33978 14.2096 4.37462C14.2138 4.35673 14.216 4.33809 14.216 4.31893C14.216 4.2647 14.1983 4.21459 14.1685 4.174C14.1983 4.13342 14.216 4.08331 14.216 4.02908C14.216 4.01135 14.2141 3.99406 14.2105 3.97741C14.1632 4.01148 14.1285 4.06202 14.1149 4.12065C14.0745 4.09131 14.0248 4.074 13.971 4.074C13.9959 4.074 14.016 4.05389 14.016 4.02908C14.016 4.00426 13.9959 3.98415 13.971 3.98415C13.9462 3.98415 13.9261 4.00426 13.9261 4.02908C13.9261 4.05389 13.9462 4.074 13.971 4.074C13.89 4.074 13.8182 4.11336 13.7736 4.174C13.8182 4.23465 13.89 4.274 13.971 4.274C13.9462 4.274 13.9261 4.29412 13.9261 4.31893C13.9261 4.34374 13.9462 4.36386 13.971 4.36386C13.89 4.36386 13.8182 4.40322 13.7736 4.46386C13.8182 4.5245 13.89 4.56386 13.971 4.56386C13.9462 4.56386 13.9261 4.58397 13.9261 4.60879C13.9261 4.6336 13.9462 4.65371 13.971 4.65371C13.9959 4.65371 14.016 4.6336 14.016 4.60879C14.016 4.58397 13.9959 4.56386 13.971 4.56386C14.0521 4.56386 14.1239 4.5245 14.1685 4.46386C14.1239 4.40322 14.0521 4.36386 13.971 4.36386C13.9959 4.36386 14.016 4.34374 14.016 4.31893C14.016 4.29412 13.9959 4.274 13.971 4.274C14.0244 4.274 14.0737 4.25695 14.114 4.22801ZM14.114 4.22801C14.1348 4.21297 14.1533 4.19473 14.1685 4.174C14.1535 4.15357 14.1354 4.13556 14.1149 4.12065C14.1107 4.13854 14.1085 4.15718 14.1085 4.17634C14.1085 4.19406 14.1104 4.21135 14.114 4.22801ZM13.7731 5.56053C13.7454 5.45566 13.6498 5.37835 13.5363 5.37835C13.5038 5.37835 13.4727 5.38468 13.4444 5.39617C13.4721 5.50104 13.5676 5.57835 13.6812 5.57835C13.7137 5.57835 13.7447 5.57202 13.7731 5.56053ZM13.918 5.27068C13.8903 5.16581 13.7948 5.0885 13.6812 5.0885C13.6487 5.0885 13.6177 5.09482 13.5893 5.10632C13.617 5.21118 13.7125 5.2885 13.8261 5.2885C13.8586 5.2885 13.8896 5.28217 13.918 5.27068ZM13.9806 4.85353C13.9385 4.81921 13.8847 4.79864 13.8261 4.79864L13.8165 4.79883C13.8587 4.83314 13.9125 4.85371 13.971 4.85371L13.9806 4.85353ZM12.5208 3.79244C12.582 3.74791 12.6218 3.67574 12.6218 3.59429C12.6218 3.55495 12.6125 3.51778 12.596 3.48484C12.5348 3.52937 12.4951 3.60153 12.4951 3.68298C12.4951 3.72232 12.5044 3.7595 12.5208 3.79244ZM12.8957 3.87208C12.9502 3.82716 12.9849 3.75913 12.9849 3.68298C12.9849 3.63401 12.9706 3.58839 12.9458 3.55012C12.8913 3.59504 12.8565 3.66307 12.8565 3.73922C12.8565 3.78819 12.8709 3.83381 12.8957 3.87208ZM13.3454 3.76159C13.3409 3.811 13.3218 3.85618 13.2923 3.89273C13.2968 3.84332 13.316 3.79814 13.3454 3.76159ZM13.7289 4.06633C13.7617 4.02469 13.7812 3.97217 13.7812 3.9151C13.7812 3.90243 13.7802 3.88999 13.7784 3.87784C13.7456 3.91948 13.7261 3.972 13.7261 4.02908C13.7261 4.04174 13.7271 4.05419 13.7289 4.06633ZM14.4629 4.39547C14.5432 4.35527 14.5984 4.27224 14.5984 4.17634C14.5984 4.14961 14.5941 4.12388 14.5862 4.0998C14.5059 4.14 14.4508 4.22303 14.4508 4.31893C14.4508 4.34566 14.455 4.37139 14.4629 4.39547ZM14.7442 4.55904C14.8562 4.53651 14.9406 4.43757 14.9406 4.31893C14.9406 4.30451 14.9394 4.29039 14.937 4.27665C14.825 4.29919 14.7406 4.39813 14.7406 4.51677C14.7406 4.53118 14.7419 4.54531 14.7442 4.55904ZM15.3254 4.99352C15.4205 4.97377 15.4954 4.89887 15.5152 4.80376C15.4201 4.82351 15.3452 4.89841 15.3254 4.99352ZM15.2304 4.5129L15.2305 4.51677C15.2305 4.63668 15.1443 4.73646 15.0305 4.75757L15.0305 4.75371C15.0305 4.6338 15.1166 4.53402 15.2304 4.5129ZM15.3284 5.10631C15.3568 5.09482 15.3878 5.0885 15.4203 5.0885C15.5339 5.0885 15.6294 5.1658 15.6571 5.27067C15.6288 5.28216 15.5977 5.2885 15.5652 5.2885C15.4517 5.2885 15.3561 5.21118 15.3284 5.10631ZM15.1835 5.39617C15.2119 5.38468 15.2429 5.37835 15.2754 5.37835C15.389 5.37835 15.4845 5.45566 15.5122 5.56053C15.4838 5.57202 15.4528 5.57835 15.4203 5.57835C15.3067 5.57835 15.2112 5.50104 15.1835 5.39617ZM15.2754 5.86821C15.2168 5.86821 15.163 5.84763 15.1209 5.81332L15.1305 5.81313C15.1891 5.81313 15.2428 5.83371 15.285 5.86802L15.2754 5.86821ZM15.2754 5.66821C15.3002 5.66821 15.3203 5.64809 15.3203 5.62328C15.3203 5.59847 15.3002 5.57835 15.2754 5.57835C15.2506 5.57835 15.2305 5.59847 15.2305 5.62328C15.2305 5.64809 15.2506 5.66821 15.2754 5.66821ZM15.4203 5.37835C15.4451 5.37835 15.4652 5.35824 15.4652 5.33342C15.4652 5.30861 15.4451 5.2885 15.4203 5.2885C15.3955 5.2885 15.3754 5.30861 15.3754 5.33342C15.3754 5.35824 15.3955 5.37835 15.4203 5.37835ZM15.5652 5.0885C15.5901 5.0885 15.6102 5.06838 15.6102 5.04357C15.6102 5.01876 15.5901 4.99864 15.5652 4.99864C15.5404 4.99864 15.5203 5.01876 15.5203 5.04357C15.5203 5.06838 15.5404 5.0885 15.5652 5.0885ZM15.2754 4.79864C15.3002 4.79864 15.3203 4.77853 15.3203 4.75371C15.3203 4.7289 15.3002 4.70879 15.2754 4.70879C15.2506 4.70879 15.2305 4.7289 15.2305 4.75371C15.2305 4.77853 15.2506 4.79864 15.2754 4.79864ZM14.9855 4.56169C15.0103 4.56169 15.0305 4.54158 15.0305 4.51677C15.0305 4.49195 15.0103 4.47184 14.9855 4.47184C14.9607 4.47184 14.9406 4.49195 14.9406 4.51677C14.9406 4.54158 14.9607 4.56169 14.9855 4.56169ZM14.6957 4.36386C14.7205 4.36386 14.7406 4.34374 14.7406 4.31893C14.7406 4.29412 14.7205 4.274 14.6957 4.274C14.6709 4.274 14.6508 4.29412 14.6508 4.31893C14.6508 4.34374 14.6709 4.36386 14.6957 4.36386ZM14.3534 4.22127C14.3782 4.22127 14.3984 4.20115 14.3984 4.17634C14.3984 4.15153 14.3782 4.13141 14.3534 4.13141C14.3286 4.13141 14.3085 4.15153 14.3085 4.17634C14.3085 4.20115 14.3286 4.22127 14.3534 4.22127ZM13.5363 3.96003C13.5611 3.96003 13.5812 3.93991 13.5812 3.9151C13.5812 3.89029 13.5611 3.87017 13.5363 3.87017C13.5114 3.87017 13.4913 3.89029 13.4913 3.9151C13.4913 3.93991 13.5114 3.96003 13.5363 3.96003ZM13.1015 3.78415C13.1263 3.78415 13.1464 3.76403 13.1464 3.73922C13.1464 3.71441 13.1263 3.69429 13.1015 3.69429C13.0767 3.69429 13.0565 3.71441 13.0565 3.73922C13.0565 3.76403 13.0767 3.78415 13.1015 3.78415ZM12.74 3.72791C12.7648 3.72791 12.7849 3.70779 12.7849 3.68298C12.7849 3.65817 12.7648 3.63805 12.74 3.63805C12.7152 3.63805 12.6951 3.65817 12.6951 3.68298C12.6951 3.70779 12.7152 3.72791 12.74 3.72791ZM12.3768 3.63922C12.4017 3.63922 12.4218 3.61911 12.4218 3.59429C12.4218 3.56948 12.4017 3.54937 12.3768 3.54937C12.352 3.54937 12.3319 3.56948 12.3319 3.59429C12.3319 3.61911 12.352 3.63922 12.3768 3.63922ZM13.8261 5.0885C13.8509 5.0885 13.871 5.06838 13.871 5.04357C13.871 5.01876 13.8509 4.99864 13.8261 4.99864C13.8013 4.99864 13.7812 5.01876 13.7812 5.04357C13.7812 5.06838 13.8013 5.0885 13.8261 5.0885ZM13.6812 5.37835C13.706 5.37835 13.7261 5.35824 13.7261 5.33342C13.7261 5.30861 13.706 5.2885 13.6812 5.2885C13.6564 5.2885 13.6363 5.30861 13.6363 5.33342C13.6363 5.35824 13.6564 5.37835 13.6812 5.37835ZM13.5363 5.66821C13.5611 5.66821 13.5812 5.64809 13.5812 5.62328C13.5812 5.59847 13.5611 5.57835 13.5363 5.57835C13.5114 5.57835 13.4913 5.59847 13.4913 5.62328C13.4913 5.64809 13.5114 5.66821 13.5363 5.66821Z" fill="white"/>
<path fill-rule="evenodd" clip-rule="evenodd" d="M11.1017 2.15411L10.8868 2.15763L10.8872 2.51075L10.4907 2.51053L10.4954 2.72491L10.8874 2.72513L10.8878 3.1276L11.1027 3.12409L11.1022 2.72525L11.4923 2.72547L11.4876 2.51109L11.102 2.51087L11.1017 2.15411Z" fill="#F6C540"/>
<path fill-rule="evenodd" clip-rule="evenodd" d="M5.78479 8.73413H16.1848V17.5676C16.1848 17.5676 15.8703 21.9677 10.9848 21.9677C6.09929 21.9677 5.78479 17.5676 5.78479 17.5676V8.73413Z" fill="#C51918"/>
<path fill-rule="evenodd" clip-rule="evenodd" d="M8.92366 9.04004C8.8283 9.04004 8.68149 9.10853 8.4869 9.18609C8.29231 9.26365 8.08796 9.4311 8.28743 9.59882C8.4869 9.76654 8.77246 10.1346 8.77246 9.99701C8.77246 9.85938 9.11358 9.72594 9.11358 9.79266C9.11358 9.85938 9.00798 9.99701 9.28501 9.99701C9.56203 9.99701 9.70476 10.0789 9.40917 10.0789C9.11358 10.0789 9.08147 10.2141 8.88936 10.2141C8.69726 10.2141 8.28743 10.0778 8.28743 9.99701C8.28743 9.91618 8.52477 10.3944 8.77246 10.3944C9.02015 10.3944 9.16084 10.6271 9.28501 10.5107C9.40917 10.3944 9.39448 10.3944 9.59507 10.3944C9.79567 10.3944 9.72246 9.92455 9.72246 9.92455C9.72246 9.92455 9.01902 9.04004 8.92366 9.04004Z" fill="#E8AA00"/>
<path fill-rule="evenodd" clip-rule="evenodd" d="M12.9371 9.04004C13.0324 9.04004 13.1792 9.10853 13.3738 9.18609C13.5684 9.26365 13.7728 9.4311 13.5733 9.59882C13.3738 9.76654 13.0883 10.1346 13.0883 9.99701C13.0883 9.85938 12.7471 9.72594 12.7471 9.79266C12.7471 9.85938 12.8527 9.99701 12.5757 9.99701C12.2987 9.99701 12.156 10.0789 12.4515 10.0789C12.7471 10.0789 12.7793 10.2141 12.9714 10.2141C13.1635 10.2141 13.5733 10.0778 13.5733 9.99701C13.5733 9.91618 13.3359 10.3944 13.0883 10.3944C12.8406 10.3944 12.6999 10.6271 12.5757 10.5107C12.4515 10.3944 12.4662 10.3944 12.2656 10.3944C12.065 10.3944 12.1383 9.92455 12.1383 9.92455C12.1383 9.92455 12.8417 9.04004 12.9371 9.04004Z" fill="#E8AA00"/>
<path fill-rule="evenodd" clip-rule="evenodd" d="M14.212 10.0003C14.4114 10.4652 12.8834 12.1923 12.8834 12.1923H12.7123C12.6405 12.1923 12.5067 12.0154 12.3453 11.8018C12.2346 11.6554 12.1109 11.4918 11.9852 11.356C11.7487 11.1007 11.874 10.8862 11.9909 10.6862C12.0268 10.6248 12.0619 10.5648 12.0855 10.5053C12.1365 10.3765 12.1437 10.3252 12.152 10.2665C12.16 10.2099 12.169 10.1465 12.2191 10.0003C12.2927 9.78542 12.5495 9.50821 12.7275 9.316C12.7962 9.24178 12.8532 9.18023 12.8834 9.13984C12.9787 9.01233 12.9064 9.01307 12.7075 9.01511C12.6802 9.01539 12.6505 9.01569 12.6185 9.01569C12.3536 9.01569 11.8476 9.13984 11.6964 9.28483C11.5451 9.42983 11.3865 9.46076 11.1535 9.46076C10.9204 9.46076 11.0642 9.6177 11.2764 9.72368C11.0479 9.76737 10.9014 10.1483 10.8153 10.4865C10.7684 10.1483 10.6648 9.76737 10.4363 9.72368C10.6485 9.6177 10.7922 9.46076 10.5592 9.46076C10.3261 9.46076 10.1675 9.42983 10.0163 9.28483C9.86503 9.13984 9.35902 9.01569 9.09412 9.01569C9.06216 9.01569 9.03248 9.01539 9.00519 9.01511C8.80623 9.01307 8.73392 9.01233 8.82923 9.13984C8.85942 9.18023 8.91643 9.24178 8.98516 9.316C9.16318 9.50821 9.41991 9.78542 9.49355 10.0003C9.54366 10.1465 9.55262 10.2099 9.56062 10.2665C9.56892 10.3252 9.57618 10.3766 9.62721 10.5053C9.65077 10.5648 9.68587 10.6248 9.72177 10.6862C9.83864 10.8862 9.964 11.1007 9.72746 11.356C9.60172 11.4918 9.47803 11.6554 9.36738 11.8018C9.20592 12.0154 9.07221 12.1923 9.00031 12.1923H8.82923C8.82923 12.1923 7.30131 10.4652 7.50067 10.0003C7.57773 9.82057 7.70202 9.65123 7.80487 9.5111C7.96812 9.28869 8.07738 9.13984 7.8581 9.13984C7.50067 9.13984 6.07581 10.0433 6.07581 12.0806C6.07581 14.1178 6.20742 15.2764 6.51294 16.0882C6.72143 16.6421 6.53046 17.18 6.38814 17.581C6.3219 17.7676 6.2662 17.9245 6.2662 18.0395C6.2662 18.4017 6.8272 18.0843 6.8272 17.8575C6.8272 17.7496 6.90402 17.9103 6.98459 18.0788C7.07342 18.2645 7.16681 18.4598 7.16681 18.3152C7.16681 18.1609 7.25625 17.998 7.33505 17.8545C7.39708 17.7414 7.45252 17.6404 7.45252 17.5652C7.45252 17.4899 7.53122 17.4927 7.61928 17.4958C7.73114 17.4997 7.8581 17.5042 7.8581 17.35C7.8581 17.2459 7.8985 17.2251 7.9488 17.1992C8.03174 17.1565 8.14159 17.1 8.14159 16.6332C8.14159 16.2873 8.21086 16.4098 8.29031 16.5504C8.36343 16.6798 8.44519 16.8245 8.48951 16.6332C8.49383 16.6146 8.53972 16.5344 8.59646 16.4352C8.67904 16.2909 8.78458 16.1064 8.81834 16.0133C8.71427 16.4207 8.46456 16.8453 8.306 17.0476C8.14159 17.2573 7.8581 17.7126 7.8581 17.7126C7.8581 17.7126 8.12249 17.86 8.306 17.7126C8.4085 17.6302 8.41542 17.7077 8.42296 17.7922C8.42892 17.8589 8.43527 17.93 8.48951 17.93C8.52356 17.93 8.55563 17.9356 8.58419 17.9405C8.60531 17.9442 8.62452 17.9475 8.6412 17.948C8.57993 18.1041 8.52498 18.3536 8.70929 18.1869C8.84091 18.0678 8.93319 18.0195 8.99433 17.9875C9.06509 17.9504 9.09412 17.9352 9.09412 17.8575C9.09412 17.7799 9.12287 17.8062 9.16791 17.8474C9.20699 17.8831 9.25834 17.93 9.31382 17.93C9.3853 17.93 9.40018 17.8305 9.42182 17.6857C9.43633 17.5887 9.45388 17.4713 9.49355 17.35C9.50279 17.3217 9.51148 17.2945 9.51971 17.2688C9.59951 17.019 9.63673 16.9025 9.72746 17.2176C9.76986 17.3648 9.84475 17.4691 9.90997 17.5599C9.99869 17.6834 10.0695 17.782 10.0163 17.93C9.99544 17.988 9.9693 18.0535 9.94131 18.1236C9.84526 18.3642 9.72746 18.6593 9.72746 18.8917C9.72746 19.0299 9.6017 19.2182 9.48351 19.3951C9.34497 19.6026 9.21683 19.7944 9.31382 19.8717C9.49355 20.0149 9.27606 20.4972 9.09412 20.7446C8.91219 20.992 8.94228 21.2941 9.21792 21.2941C9.36876 21.2941 9.45061 21.3489 9.52473 21.3984C9.58604 21.4394 9.64205 21.4769 9.72746 21.4769C9.91609 21.4769 10.0163 21.3839 10.0163 21.3839C10.0163 21.3839 10.1327 21.5599 10.3261 21.5599C10.5196 21.5599 10.5592 21.3839 10.5592 21.3839L10.7024 21.5599L10.7135 20.7891V21.5599L11.1535 21.3839C11.1535 21.3839 11.1931 21.5599 11.3865 21.5599C11.5799 21.5599 11.6964 21.3839 11.6964 21.3839C11.6964 21.3839 11.7966 21.4769 11.9852 21.4769C12.0706 21.4769 12.1266 21.4394 12.1879 21.3984C12.2621 21.3489 12.3439 21.2941 12.4947 21.2941C12.7704 21.2941 12.8005 20.992 12.6185 20.7446C12.4366 20.4972 12.2191 20.0149 12.3988 19.8717C12.4958 19.7944 12.3677 19.6026 12.2292 19.3951C12.111 19.2182 11.9852 19.0299 11.9852 18.8917C11.9852 18.6593 11.8674 18.3642 11.7714 18.1236C11.7434 18.0535 11.7172 17.988 11.6964 17.93C11.6431 17.782 11.714 17.6834 11.8027 17.5599C11.8679 17.4691 11.9428 17.3648 11.9852 17.2176C12.0759 16.9025 12.1132 17.019 12.193 17.2688C12.2012 17.2945 12.2099 17.3217 12.2191 17.35C12.2588 17.4713 12.2763 17.5887 12.2908 17.6857C12.3125 17.8305 12.3274 17.93 12.3988 17.93C12.4543 17.93 12.5057 17.8831 12.5448 17.8474C12.5898 17.8062 12.6185 17.7799 12.6185 17.8575C12.6185 17.9352 12.6476 17.9504 12.7183 17.9875C12.7795 18.0195 12.8718 18.0678 13.0034 18.1869C13.1877 18.3536 13.1327 18.1041 13.0715 17.948C13.0881 17.9475 13.1074 17.9442 13.1285 17.9405C13.157 17.9356 13.1891 17.93 13.2232 17.93C13.2774 17.93 13.2837 17.8589 13.2897 17.7922C13.2972 17.7077 13.3042 17.6302 13.4067 17.7126C13.5902 17.86 13.8546 17.7126 13.8546 17.7126C13.8546 17.7126 13.5711 17.2573 13.4067 17.0476C13.2481 16.8453 12.9984 16.4207 12.8943 16.0133C12.9281 16.1064 13.0336 16.2909 13.1162 16.4352C13.1729 16.5344 13.2188 16.6146 13.2232 16.6332C13.2675 16.8245 13.3492 16.6798 13.4224 16.5504C13.5018 16.4098 13.5711 16.2873 13.5711 16.6332C13.5711 17.1 13.6809 17.1565 13.7639 17.1992C13.8142 17.2251 13.8546 17.2459 13.8546 17.35C13.8546 17.5042 13.9815 17.4997 14.0934 17.4958C14.1814 17.4927 14.2601 17.4899 14.2601 17.5652C14.2601 17.6404 14.3156 17.7414 14.3776 17.8545C14.4564 17.998 14.5458 18.1609 14.5458 18.3152C14.5458 18.4598 14.6392 18.2645 14.7281 18.0788C14.8086 17.9103 14.8855 17.7496 14.8855 17.8575C14.8855 18.0843 15.4465 18.4017 15.4465 18.0395C15.4465 17.9245 15.3908 17.7676 15.3245 17.581C15.1822 17.18 14.9912 16.6421 15.1997 16.0882C15.5052 15.2764 15.6369 14.1178 15.6369 12.0806C15.6369 10.0433 14.212 9.13984 13.8546 9.13984C13.6353 9.13984 13.7445 9.28869 13.9078 9.5111C14.0106 9.65123 14.1349 9.82057 14.212 10.0003ZM12.8834 15.9683C12.8869 15.9833 12.8905 15.9983 12.8943 16.0133C12.8873 15.994 12.8834 15.9786 12.8834 15.9683ZM13.0034 17.8575C13.0034 17.8067 13.0383 17.8637 13.0715 17.948C13.0294 17.9493 13.0034 17.9325 13.0034 17.8575ZM8.6412 17.948C8.68331 17.9493 8.70929 17.9325 8.70929 17.8575C8.70929 17.8067 8.67432 17.8637 8.6412 17.948ZM8.81834 16.0133C8.82532 15.994 8.82923 15.9786 8.82923 15.9683C8.82581 15.9833 8.82217 15.9983 8.81834 16.0133Z" fill="#F7FCFF"/>
<path fill-rule="evenodd" clip-rule="evenodd" d="M8.18884 19.2021C8.18884 19.0616 8.54837 18.7356 8.54837 18.7356V18.7633C8.5988 18.804 8.92012 19.069 8.92012 19.1985C8.92012 19.2789 8.87852 19.3954 8.8429 19.4951C8.81625 19.5697 8.79295 19.635 8.79295 19.6686C8.79295 19.6913 8.80236 19.675 8.82027 19.6441C8.86465 19.5675 8.9612 19.4009 9.09605 19.5123C9.27468 19.6599 9.2736 19.8774 9.27291 20.0154C9.27287 20.0236 9.27283 20.0315 9.27283 20.0392C9.27283 20.0821 9.27275 20.0818 9.26702 20.0614C9.25469 20.0173 9.2162 19.8796 9.09605 19.8796C8.92012 19.8796 8.79295 20.0392 8.79295 20.0392V20.3112C8.79295 20.3112 8.81527 20.5358 8.92012 20.4235C9.02498 20.3112 9.04729 20.5621 8.92012 20.5621C8.8552 20.5621 8.78843 20.631 8.72306 20.6985C8.66037 20.7632 8.59897 20.8265 8.54174 20.8265V20.8039C8.48752 20.7997 8.44285 20.7439 8.39727 20.687C8.34783 20.6252 8.29732 20.5621 8.2324 20.5621C8.10523 20.5621 8.12754 20.3112 8.2324 20.4235C8.33725 20.5358 8.35957 20.3112 8.35957 20.3112V20.0392C8.35957 20.0392 8.2324 19.8796 8.05647 19.8796C7.93632 19.8796 7.89783 20.0173 7.8855 20.0614C7.87977 20.0818 7.87969 20.0821 7.87969 20.0392C7.87969 20.0315 7.87965 20.0236 7.87961 20.0154C7.87892 19.8774 7.87784 19.6599 8.05647 19.5123C8.19132 19.4009 8.28787 19.5675 8.33225 19.6441C8.35016 19.675 8.35957 19.6913 8.35957 19.6686C8.35957 19.635 8.32829 19.5704 8.29251 19.4965C8.24469 19.3978 8.18884 19.2825 8.18884 19.2021Z" fill="#E8AA00"/>
<path fill-rule="evenodd" clip-rule="evenodd" d="M12.9714 19.2021C12.9714 19.0616 13.331 18.7356 13.331 18.7356V18.7633C13.3814 18.804 13.7027 19.069 13.7027 19.1985C13.7027 19.2789 13.6611 19.3954 13.6255 19.4951C13.5988 19.5697 13.5755 19.635 13.5755 19.6686C13.5755 19.6913 13.585 19.675 13.6029 19.6441C13.6472 19.5675 13.7438 19.4009 13.8786 19.5123C14.0573 19.6599 14.0562 19.8774 14.0555 20.0154C14.0555 20.0236 14.0554 20.0315 14.0554 20.0392C14.0554 20.0821 14.0553 20.0818 14.0496 20.0614C14.0373 20.0173 13.9988 19.8796 13.8786 19.8796C13.7027 19.8796 13.5755 20.0392 13.5755 20.0392V20.3112C13.5755 20.3112 13.5979 20.5358 13.7027 20.4235C13.8076 20.3112 13.8299 20.5621 13.7027 20.5621C13.6378 20.5621 13.571 20.631 13.5056 20.6985C13.443 20.7632 13.3816 20.8265 13.3243 20.8265V20.8039C13.2701 20.7997 13.2254 20.7439 13.1799 20.687C13.1304 20.6252 13.0799 20.5621 13.015 20.5621C12.8878 20.5621 12.9101 20.3112 13.015 20.4235C13.1198 20.5358 13.1422 20.3112 13.1422 20.3112V20.0392C13.1422 20.0392 13.015 19.8796 12.8391 19.8796C12.7189 19.8796 12.6804 20.0173 12.6681 20.0614C12.6624 20.0818 12.6623 20.0821 12.6623 20.0392C12.6623 20.0315 12.6622 20.0236 12.6622 20.0154C12.6615 19.8774 12.6604 19.6599 12.8391 19.5123C12.9739 19.4009 13.0705 19.5675 13.1148 19.6441C13.1327 19.675 13.1422 19.6913 13.1422 19.6686C13.1422 19.635 13.1109 19.5704 13.0751 19.4965C13.0273 19.3978 12.9714 19.2825 12.9714 19.2021Z" fill="#E8AA00"/>
<path fill-rule="evenodd" clip-rule="evenodd" d="M7.83074 18.3594C8.15122 18.3594 8.21601 17.7498 8.21601 17.7498C8.21601 17.7498 8.48488 17.4711 8.48488 17.6767C8.48488 17.7863 8.40844 17.9243 8.35029 18.0293C8.29939 18.1213 8.26251 18.1879 8.30322 18.1879H8.747C9.11291 18.1879 8.68275 18.3594 8.48488 18.4358C8.39512 18.4705 8.33147 18.4886 8.2704 18.506C8.19686 18.5269 8.12707 18.5468 8.01997 18.5932C7.82393 18.6782 7.73983 19.2374 7.83074 19.417C7.92165 19.5966 7.73983 19.5208 7.66468 19.417C7.62294 19.3593 7.59246 19.4387 7.54996 19.5494C7.51596 19.638 7.47426 19.7466 7.41294 19.8212C7.29448 19.9652 7.29575 19.8379 7.29848 19.5639C7.29893 19.5188 7.29942 19.4696 7.29942 19.417C7.29942 19.1742 7.34788 19.172 7.41997 19.1688C7.45821 19.1671 7.5031 19.1651 7.55092 19.1267C7.65421 19.0438 7.66661 19.0011 7.69783 18.8937C7.70832 18.8576 7.72093 18.8142 7.73983 18.7595C7.81497 18.542 7.41294 18.8858 7.29942 19.0486C7.23031 19.1478 7.18216 19.1586 7.11015 19.1748C7.0639 19.1852 7.0078 19.1978 6.92998 19.2374C6.80349 19.3019 6.83781 19.1752 6.87961 19.021C6.90357 18.9326 6.92998 18.8352 6.92998 18.7595C6.92998 18.6289 7.00854 18.6624 7.10922 18.7054C7.16878 18.7308 7.23607 18.7595 7.29942 18.7595C7.46132 18.7595 7.54493 18.6911 7.64813 18.6067C7.65359 18.6023 7.6591 18.5977 7.66468 18.5932C7.74749 18.5258 7.56711 18.5461 7.3523 18.5703C7.27883 18.5786 7.20134 18.5874 7.12897 18.5932C6.96378 18.6065 6.95275 18.5966 6.91151 18.5595C6.88186 18.5328 6.83658 18.4921 6.70712 18.4358C6.39764 18.3013 6.90606 18.3594 7.12897 18.4358C7.25292 18.4783 7.35692 18.4499 7.47994 18.4163C7.57815 18.3895 7.68847 18.3594 7.83074 18.3594ZM14.0456 18.3594C13.7252 18.3594 13.6604 17.7498 13.6604 17.7498C13.6604 17.7498 13.3915 17.4711 13.3915 17.6767C13.3915 17.7863 13.4679 17.9243 13.5261 18.0293C13.577 18.1213 13.6139 18.1879 13.5732 18.1879H13.1294C12.7635 18.1879 13.1936 18.3594 13.3915 18.4358C13.4813 18.4705 13.5449 18.4886 13.606 18.506C13.6795 18.5269 13.7493 18.5468 13.8564 18.5932C14.0524 18.6782 14.1366 19.2374 14.0456 19.417C13.9547 19.5966 14.1366 19.5208 14.2117 19.417C14.2534 19.3593 14.2839 19.4387 14.3264 19.5494C14.3604 19.638 14.4021 19.7466 14.4634 19.8212C14.5819 19.9652 14.5806 19.8379 14.5779 19.5639C14.5774 19.5188 14.577 19.4696 14.577 19.417C14.577 19.1742 14.5285 19.172 14.4564 19.1688C14.4182 19.1671 14.3733 19.1651 14.3255 19.1267C14.2222 19.0438 14.2098 19.0011 14.1785 18.8937C14.1681 18.8576 14.1554 18.8142 14.1365 18.7595C14.0614 18.542 14.4634 18.8858 14.577 19.0486C14.6461 19.1478 14.6942 19.1586 14.7662 19.1748C14.8125 19.1852 14.8686 19.1978 14.9464 19.2374C15.0729 19.3019 15.0386 19.1752 14.9968 19.021C14.9728 18.9326 14.9464 18.8352 14.9464 18.7595C14.9464 18.6289 14.8678 18.6624 14.7672 18.7054C14.7076 18.7308 14.6403 18.7595 14.577 18.7595C14.4151 18.7595 14.3315 18.6911 14.2282 18.6067C14.2228 18.6023 14.2173 18.5977 14.2117 18.5932C14.1289 18.5258 14.3093 18.5461 14.5241 18.5703C14.5975 18.5786 14.675 18.5874 14.7474 18.5932C14.9126 18.6065 14.9236 18.5966 14.9649 18.5595C14.9945 18.5328 15.0398 18.4921 15.1693 18.4358C15.4787 18.3013 14.9703 18.3594 14.7474 18.4358C14.6235 18.4783 14.5195 18.4499 14.3964 18.4163C14.2982 18.3895 14.1879 18.3594 14.0456 18.3594Z" fill="#E8AA00"/>
<path fill-rule="evenodd" clip-rule="evenodd" d="M9.04712 12.3411H12.9226V15.8754C12.9226 15.8754 12.5066 17.6359 10.9849 17.6359C9.46316 17.6359 9.04712 15.8754 9.04712 15.8754V12.3411Z" fill="#C51918"/>
<path fill-rule="evenodd" clip-rule="evenodd" d="M11.5073 12.2898H10.4929V14.3188H9.04358V15.0434H10.4929V17.6521H11.5073V15.0434H12.9566V14.3188H11.5073V12.2898Z" fill="#F7FCFF"/>
<path fill-rule="evenodd" clip-rule="evenodd" d="M9.70087 13.3088C9.79815 13.3088 9.84456 13.2268 9.79311 13.1545C9.76606 13.1165 9.71002 13.1055 9.66793 13.13C9.66416 13.1321 9.66062 13.1345 9.65733 13.1371C9.64184 13.1333 9.6229 13.128 9.60107 13.1213C9.58148 13.1153 9.56021 13.1155 9.54079 13.122C9.51726 13.1298 9.50391 13.1057 9.51526 12.9558C9.52608 12.914 9.58339 12.8881 9.71691 12.8881C9.96088 12.8881 10.0611 12.9142 10.0611 12.9371V13.2956L9.94272 13.4025C9.88565 13.454 9.92607 13.542 10.0068 13.542H10.0611V13.8165C9.98667 13.8746 9.92013 13.9017 9.86184 13.9017C9.64359 13.9017 9.52097 13.8204 9.51759 13.7243C9.51852 13.6961 9.51979 13.6754 9.52072 13.6612C9.52634 13.663 9.53261 13.665 9.53952 13.6674C9.5595 13.6743 9.58154 13.6746 9.60174 13.6683L9.61004 13.6656C9.61785 13.6629 9.62239 13.6614 9.62492 13.663C9.62843 13.6652 9.62808 13.6735 9.62727 13.6933L9.62727 13.6933L9.62727 13.6933C9.62697 13.7006 9.62661 13.7094 9.62635 13.7201C9.62526 13.7652 9.66492 13.8026 9.71493 13.8036C9.76495 13.8046 9.80638 13.7688 9.80747 13.7237C9.81129 13.5653 9.72249 13.4743 9.57506 13.5052C9.48807 13.4792 9.42722 13.4822 9.37975 13.5358C9.34488 13.5752 9.34021 13.6076 9.33652 13.7243C9.34323 13.9249 9.55472 14.0652 9.86184 14.0652C9.98023 14.0652 10.0975 14.0123 10.2142 13.9118C10.2321 13.8964 10.2423 13.875 10.2423 13.8527V13.4603C10.2423 13.4338 10.2284 13.4103 10.2068 13.3954L10.2157 13.3873C10.2327 13.372 10.2423 13.3512 10.2423 13.3295V12.9371C10.2423 12.7696 10.0695 12.7246 9.71691 12.7246C9.50913 12.7246 9.37321 12.7859 9.33673 12.931C9.31617 13.1789 9.38962 13.3268 9.57117 13.2845C9.62734 13.3006 9.66892 13.3088 9.70087 13.3088ZM12.2463 13.1545C12.1949 13.2268 12.2413 13.3088 12.3385 13.3088C12.3705 13.3088 12.4121 13.3006 12.4682 13.2845C12.6498 13.3268 12.7232 13.1789 12.7027 12.931C12.6662 12.7859 12.5303 12.7246 12.3225 12.7246C11.9699 12.7246 11.7971 12.7696 11.7971 12.9371V13.3295C11.7971 13.3512 11.8067 13.372 11.8237 13.3873L11.8326 13.3954C11.8111 13.4103 11.7971 13.4338 11.7971 13.4603V13.8527C11.7971 13.875 11.8073 13.8964 11.8252 13.9118C11.9419 14.0123 12.0592 14.0652 12.1776 14.0652C12.4847 14.0652 12.6962 13.9249 12.7029 13.7243C12.6992 13.6076 12.6945 13.5752 12.6597 13.5358C12.6122 13.4822 12.5513 13.4792 12.4644 13.5052C12.3169 13.4743 12.2281 13.5653 12.2319 13.7237C12.233 13.7688 12.2745 13.8046 12.3245 13.8036C12.3745 13.8026 12.4142 13.7652 12.4131 13.7201C12.4128 13.7094 12.4124 13.7005 12.4121 13.6933C12.4113 13.6735 12.411 13.6652 12.4145 13.663C12.417 13.6614 12.4216 13.6629 12.4294 13.6656L12.4377 13.6683C12.4579 13.6746 12.4799 13.6743 12.4999 13.6674C12.5068 13.665 12.5131 13.663 12.5187 13.6612C12.5196 13.6754 12.5209 13.6961 12.5218 13.7243C12.5184 13.8204 12.3958 13.9017 12.1776 13.9017C12.1193 13.9017 12.0527 13.8746 11.9783 13.8165V13.542H12.0326C12.1133 13.542 12.1538 13.454 12.0967 13.4025L11.9783 13.2956V12.9371C11.9783 12.9142 12.0785 12.8881 12.3225 12.8881C12.456 12.8881 12.5133 12.914 12.5242 12.9558C12.5355 13.1057 12.5222 13.1298 12.4986 13.122C12.4792 13.1155 12.4579 13.1153 12.4383 13.1213C12.4165 13.128 12.3976 13.1333 12.3821 13.1371C12.3788 13.1345 12.3753 13.1321 12.3715 13.13C12.3294 13.1055 12.2734 13.1165 12.2463 13.1545ZM12.5516 13.6539L12.5477 13.6538L12.5503 13.654L12.5516 13.6539ZM12.3385 15.9175C12.2413 15.9175 12.1949 15.8355 12.2463 15.7632C12.2734 15.7252 12.3294 15.7142 12.3715 15.7386C12.3753 15.7408 12.3788 15.7432 12.3821 15.7458C12.3976 15.7419 12.4165 15.7367 12.4383 15.73C12.4579 15.724 12.4792 15.7242 12.4986 15.7307C12.5222 15.7385 12.5355 15.7144 12.5242 15.5644C12.5133 15.5226 12.456 15.4968 12.3225 15.4968C12.0785 15.4968 11.9783 15.5229 11.9783 15.5458V15.9043L12.0967 16.0112C12.1538 16.0627 12.1133 16.1507 12.0326 16.1507H11.9783V16.4252C12.0527 16.4833 12.1193 16.5104 12.1776 16.5104C12.3958 16.5104 12.5184 16.4291 12.5218 16.333C12.5209 16.3048 12.5196 16.2841 12.5187 16.2699C12.5131 16.2716 12.5068 16.2737 12.4999 16.2761C12.4799 16.283 12.4579 16.2833 12.4377 16.277L12.4294 16.2743C12.4216 16.2716 12.417 16.2701 12.4145 16.2717C12.411 16.2739 12.4113 16.2822 12.4121 16.302C12.4124 16.3092 12.4128 16.3181 12.4131 16.3288C12.4142 16.3739 12.3745 16.4113 12.3245 16.4123C12.2745 16.4133 12.233 16.3775 12.2319 16.3323C12.2281 16.174 12.3169 16.083 12.4644 16.1139C12.5513 16.0879 12.6122 16.0909 12.6597 16.1445C12.6945 16.1839 12.6992 16.2163 12.7029 16.333C12.6962 16.5336 12.4847 16.6739 12.1776 16.6739C12.0592 16.6739 11.9419 16.621 11.8252 16.5205C11.8073 16.5051 11.7971 16.4837 11.7971 16.4614V16.069C11.7971 16.0425 11.8111 16.019 11.8326 16.0041L11.8237 15.996C11.8067 15.9807 11.7971 15.9599 11.7971 15.9382V15.5458C11.7971 15.3783 11.9699 15.3333 12.3225 15.3333C12.5303 15.3333 12.6662 15.3946 12.7027 15.5397C12.7232 15.7876 12.6498 15.9355 12.4682 15.8932C12.4121 15.9093 12.3705 15.9175 12.3385 15.9175ZM9.70087 15.9175C9.79815 15.9175 9.84456 15.8355 9.79311 15.7632C9.76606 15.7252 9.71002 15.7142 9.66793 15.7386C9.66416 15.7408 9.66062 15.7432 9.65733 15.7458C9.64184 15.7419 9.6229 15.7367 9.60107 15.73C9.58148 15.724 9.56021 15.7242 9.54079 15.7307C9.51726 15.7385 9.50391 15.7144 9.51526 15.5644C9.52608 15.5226 9.58339 15.4968 9.71691 15.4968C9.96088 15.4968 10.0611 15.5229 10.0611 15.5458V15.9043L9.94272 16.0112C9.88565 16.0627 9.92607 16.1507 10.0068 16.1507H10.0611V16.4252C9.98667 16.4833 9.92013 16.5104 9.86184 16.5104C9.64359 16.5104 9.52097 16.4291 9.51759 16.333C9.51852 16.3048 9.51979 16.2841 9.52072 16.2699C9.52634 16.2716 9.53261 16.2737 9.53952 16.2761C9.5595 16.283 9.58154 16.2833 9.60174 16.277C9.60485 16.276 9.60761 16.2751 9.61004 16.2743C9.61785 16.2716 9.62238 16.2701 9.62492 16.2717C9.62843 16.2739 9.62808 16.2822 9.62727 16.302C9.62697 16.3092 9.62661 16.3181 9.62635 16.3288C9.62526 16.3739 9.66492 16.4113 9.71493 16.4123C9.76495 16.4133 9.80638 16.3775 9.80747 16.3323C9.81129 16.174 9.72249 16.083 9.57506 16.1139C9.48807 16.0879 9.42722 16.0909 9.37975 16.1445C9.34488 16.1839 9.34021 16.2163 9.33652 16.333C9.34323 16.5336 9.55472 16.6739 9.86184 16.6739C9.98023 16.6739 10.0975 16.621 10.2142 16.5205C10.2321 16.5051 10.2423 16.4837 10.2423 16.4614V16.069C10.2423 16.0425 10.2284 16.019 10.2068 16.0041L10.2157 15.996C10.2327 15.9807 10.2423 15.9599 10.2423 15.9382V15.5458C10.2423 15.3783 10.0695 15.3333 9.71691 15.3333C9.50913 15.3333 9.37321 15.3946 9.33673 15.5397C9.31617 15.7876 9.38962 15.9355 9.57117 15.8932C9.62734 15.9093 9.66892 15.9175 9.70087 15.9175Z" fill="#F7FCFF"/>
</g>
</g>
</svg>
