<svg width="20" height="15" viewBox="0 0 20 15" fill="none" xmlns="http://www.w3.org/2000/svg">
<mask id="mask0" mask-type="alpha" maskUnits="userSpaceOnUse" x="0" y="0" width="20" height="15">
<rect width="20" height="15" fill="white"/>
</mask>
<g mask="url(#mask0)">
<path fill-rule="evenodd" clip-rule="evenodd" d="M5 0H15.625V15H5V0Z" fill="#F7FCFF"/>
<path fill-rule="evenodd" clip-rule="evenodd" d="M15 0H20V15H15V0Z" fill="#F50101"/>
<path fill-rule="evenodd" clip-rule="evenodd" d="M0 0H5V15H0V0Z" fill="#F50101"/>
<path d="M9.83836 5.46566L9.85929 5.69187C9.23527 5.75498 8.89813 5.45007 8.89813 4.81724C8.89813 4.18929 9.22798 3.85551 9.84816 3.85156L9.84949 4.07883C9.34701 4.08203 9.11552 4.31628 9.11552 4.81724C9.11552 5.31331 9.33972 5.51609 9.83836 5.46566Z" fill="#A2BB6A"/>
<path d="M10.1147 5.46566L10.0938 5.69187C10.7178 5.75498 11.0549 5.45007 11.0549 4.81724C11.0549 4.18929 10.7251 3.85551 10.1049 3.85156L10.1036 4.07883C10.6061 4.08203 10.8375 4.31628 10.8375 4.81724C10.8375 5.31331 10.6133 5.51609 10.1147 5.46566Z" fill="#A2BB6A"/>
<path fill-rule="evenodd" clip-rule="evenodd" d="M9.46226 10.7017C9.28283 10.766 8.06628 10.7017 8.06628 10.7017V11.0405H8.87283C9.14194 11.0405 9.24368 11.0887 9.33701 11.1329C9.4161 11.1704 9.48915 11.2049 9.6529 11.2049C9.97185 11.2049 9.96601 10.9677 9.96114 10.7702C9.96056 10.7466 9.95999 10.7237 9.95999 10.7017C9.95999 10.6178 9.9731 10.571 9.9833 10.5346C9.99814 10.4816 10.0068 10.4506 9.95999 10.3593C9.88098 10.2054 9.12965 10.226 9.12965 10.3593C9.12965 10.4222 9.24356 10.4877 9.3451 10.546C9.45884 10.6113 9.55706 10.6678 9.46226 10.7017ZM10.5557 10.7017C10.7351 10.766 11.9516 10.7017 11.9516 10.7017V11.0405H11.1451C10.876 11.0405 10.7742 11.0887 10.6809 11.1329C10.6018 11.1704 10.5288 11.2049 10.365 11.2049C10.0461 11.2049 10.0519 10.9677 10.0568 10.7702C10.0574 10.7466 10.0579 10.7237 10.0579 10.7017C10.0579 10.6178 10.0448 10.571 10.0346 10.5346C10.0198 10.4816 10.0111 10.4506 10.0579 10.3593C10.1369 10.2054 10.8883 10.226 10.8883 10.3593C10.8883 10.4222 10.7744 10.4877 10.6728 10.546C10.5591 10.6113 10.4609 10.6678 10.5557 10.7017Z" fill="#E31D1C"/>
<path fill-rule="evenodd" clip-rule="evenodd" d="M10.2544 10.734C10.2544 10.734 11.2037 10.6397 11.4184 10.2974C11.6331 9.95501 11.9908 9.37053 12.1165 9.22902C12.2423 9.08752 12.2504 9.43114 12.2504 9.43114C12.2504 9.43114 12.4579 9.7254 12.4579 9.34914C12.4579 8.97287 12.3103 9.23575 12.1165 8.66962C11.9228 8.10348 11.8137 7.54817 11.8682 7.46412C11.9228 7.38007 12.0518 7.54817 12.0518 7.46412C12.0518 7.38007 12.0518 7.21553 12.0518 7.21553L12.2504 7.46412L12.4579 7.38537C12.4579 7.38537 12.6287 7.75113 12.7339 7.86436C12.8391 7.97758 12.9006 7.7127 12.8698 7.46412C12.8391 7.21553 12.4579 7.21553 12.4579 7.21553C12.4579 7.21553 11.9704 6.95276 11.9704 6.84263C11.9704 6.7325 12.1811 6.76531 12.1811 6.76531L12.1165 6.42431C12.1165 6.42431 12.2908 6.63142 12.3743 6.52786C12.4579 6.42431 12.2504 6.24259 12.2504 6.24259H12.5812V6.08289L12.7339 6.16837L12.5812 5.81964C12.5812 5.81964 12.1333 5.88708 12.0518 5.81964C11.9704 5.7522 11.7139 5.48932 11.7139 5.48932V5.36453H11.5661L11.7139 5.11421V4.7156L12.2504 4.82257V4.52783C12.2504 4.52783 13.0058 4.89606 12.8698 5.19269C12.7339 5.48932 12.7339 5.81964 12.7339 5.81964V6.08289C12.7339 6.08289 12.7565 6.00231 12.8698 6.00231C12.9832 6.00231 13.1121 6.06087 13.1121 6.24259C13.1121 6.42431 13.3429 6.16837 13.3429 6.16837V6.92437C13.3429 6.92437 13.3972 7.00611 13.5158 6.92437C13.6344 6.84263 13.5824 6.90639 13.2261 7.38537C12.8698 7.86436 12.9982 7.86564 13.1121 7.74829C13.2261 7.63094 13.6887 7.2973 13.5158 7.46412C13.3429 7.63094 13.3315 7.98042 13.5158 7.86436C13.7001 7.74829 13.6645 7.66571 13.6645 7.86436C13.6645 8.063 13.3401 8.73916 13.2261 8.84508C13.1121 8.951 13.0058 9.01613 12.8698 9.12258C12.7339 9.22902 12.5812 9.35481 12.5812 9.43114C12.5812 9.50747 12.8698 9.34914 12.8698 9.34914L12.7339 9.83448H12.9981C12.9981 9.83448 12.7878 10.479 12.3743 10.479C11.9608 10.479 11.6492 10.479 11.5661 10.479C11.483 10.479 11.1076 10.656 11.1076 10.656L10.833 10.734C10.833 10.734 11.2708 10.7759 11.4184 10.9074C11.5661 11.0388 11.4184 11.1305 11.4184 11.1305C11.4184 11.1305 11.0132 11.0903 10.7107 10.9988C10.4083 10.9074 10.2544 11.0807 10.2544 10.9074C10.2544 10.734 10.2544 10.734 10.2544 10.734Z" fill="#00A854"/>
<path fill-rule="evenodd" clip-rule="evenodd" d="M12.9891 5.56798C12.9891 5.63074 12.9405 5.68162 12.8804 5.68162C12.8204 5.68162 12.7717 5.63074 12.7717 5.56798C12.7717 5.50522 12.8204 5.45435 12.8804 5.45435C12.9405 5.45435 12.9891 5.50522 12.9891 5.56798ZM12.4457 6.02253C12.4457 6.08529 12.397 6.13616 12.337 6.13616C12.2769 6.13616 12.2283 6.08529 12.2283 6.02253C12.2283 5.95977 12.2769 5.90889 12.337 5.90889C12.397 5.90889 12.4457 5.95977 12.4457 6.02253ZM12.9891 5.90889C13.0492 5.90889 13.0978 5.85801 13.0978 5.79525C13.0978 5.7325 13.0492 5.68162 12.9891 5.68162C12.9291 5.68162 12.8804 5.7325 12.8804 5.79525C12.8804 5.85801 12.9291 5.90889 12.9891 5.90889ZM12.7717 7.61344C12.7717 7.6762 12.7231 7.72707 12.663 7.72707C12.603 7.72707 12.5544 7.6762 12.5544 7.61344C12.5544 7.55068 12.603 7.4998 12.663 7.4998C12.7231 7.4998 12.7717 7.55068 12.7717 7.61344ZM12.2283 9.09071C12.2883 9.09071 12.337 9.03983 12.337 8.97707C12.337 8.91431 12.2883 8.86344 12.2283 8.86344C12.1682 8.86344 12.1196 8.91431 12.1196 8.97707C12.1196 9.03983 12.1682 9.09071 12.2283 9.09071ZM13.0978 9.31798C13.0978 9.38074 13.0492 9.43162 12.9891 9.43162C12.9291 9.43162 12.8804 9.38074 12.8804 9.31798C12.8804 9.25522 12.9291 9.20435 12.9891 9.20435C13.0492 9.20435 13.0978 9.25522 13.0978 9.31798ZM13.2065 9.20435C13.2666 9.20435 13.3152 9.15347 13.3152 9.09071C13.3152 9.02795 13.2666 8.97707 13.2065 8.97707C13.1465 8.97707 13.0978 9.02795 13.0978 9.09071C13.0978 9.15347 13.1465 9.20435 13.2065 9.20435ZM13.2065 7.4998C13.2065 7.56256 13.1579 7.61344 13.0978 7.61344C13.0378 7.61344 12.9891 7.56256 12.9891 7.4998C12.9891 7.43704 13.0378 7.38616 13.0978 7.38616C13.1579 7.38616 13.2065 7.43704 13.2065 7.4998Z" fill="#C51918"/>
<path fill-rule="evenodd" clip-rule="evenodd" d="M9.80345 10.5339C9.80345 10.5339 8.07618 10.1926 7.98172 9.53179C7.88725 8.87102 7.88857 8.16756 7.88857 8.16756L7.7284 8.59746C7.7284 8.59746 7.72031 8.01223 8.04884 7.59478C8.37737 7.17733 7.63817 7.87138 7.63817 7.87138C7.63817 7.87138 8.01245 7.28124 8.16827 7.22505C8.3241 7.16887 7.54216 7.59478 7.54216 7.59478C7.54216 7.59478 7.76617 7.09958 7.9403 6.95951C8.11443 6.81944 7.54216 7.22505 7.54216 7.22505C7.54216 7.22505 7.67165 6.73389 7.82652 6.61671C7.9814 6.49953 7.32043 7.22505 7.32043 7.22505C7.32043 7.22505 7.66911 6.10276 7.86556 5.99803C8.06201 5.89329 7.54216 6.20379 7.54216 6.20379C7.54216 6.20379 7.86059 5.7238 8.14579 5.48519C8.431 5.24657 7.63028 5.58694 7.7284 5.58694C7.7284 5.58694 8.01795 5.25996 8.1843 5.16766C8.35065 5.07537 7.54216 5.48519 7.54216 5.48519C7.54216 5.48519 8.12252 4.84477 8.29649 4.75049C8.47046 4.6562 7.44246 5.25907 7.44246 5.25907C7.44246 5.25907 7.50249 4.97981 7.52841 4.78024C7.55433 4.58067 7.05215 5.3272 7.12033 5.99803C7.18851 6.66886 6.84713 5.48519 6.84713 5.48519C6.84713 5.48519 6.70976 5.74216 7.04347 6.41526L6.68178 5.90833C6.68178 5.90833 6.73124 6.36836 6.84713 6.61671C6.96302 6.86506 6.51818 6.20379 6.51818 6.20379C6.51818 6.20379 6.43307 6.61671 6.51818 6.61671C6.51818 6.61671 7.02612 7.29534 7.04495 7.4932C7.06378 7.69106 6.47449 6.78675 6.39562 6.78675C6.31676 6.78675 6.27307 7.07718 6.39562 7.07718C6.51818 7.07718 6.75033 7.4932 6.75033 7.4932C6.75033 7.4932 6.44862 7.27515 6.38393 7.26227C6.31924 7.24938 6.43471 7.39161 6.51818 7.4932C6.51818 7.4932 6.28216 7.68564 6.30009 7.8314C6.31803 7.97717 6.94334 8.00803 7.21586 8.70004C7.21586 8.70004 6.65242 8.40209 6.51818 8.40209C6.38393 8.40209 6.73436 8.7132 6.84713 8.81589C6.9599 8.91858 6.67337 8.7132 6.59577 8.81589C6.51818 8.91858 7.0248 9.35715 7.12033 9.35715C7.21586 9.35715 6.75033 9.35715 6.75033 9.35715C6.75033 9.35715 6.87405 9.53179 7.04495 9.53179C7.21586 9.53179 7.82652 9.80623 7.82652 9.89515C7.82652 9.98407 7.31138 9.78135 7.21586 9.78135C7.12033 9.78135 7.88841 10.5063 8.29649 10.5339C8.70457 10.5616 8.96243 10.6711 9.13836 10.6711C9.31429 10.6711 9.43795 10.6711 9.43795 10.6711L8.60682 11.0946C8.60682 11.0946 8.52288 11.0946 8.88346 11.0946C9.24404 11.0946 9.51983 11.1948 9.66164 10.9876C9.80345 10.7805 9.80345 10.5339 9.80345 10.5339Z" fill="#00A854"/>
<mask id="path-12-outside-1" maskUnits="userSpaceOnUse" x="7.2356" y="3.55078" width="6" height="8" fill="black">
<rect fill="white" x="7.2356" y="3.55078" width="6" height="8"/>
<path fill-rule="evenodd" clip-rule="evenodd" d="M10.0542 5.56575C10.0709 5.55632 10.0801 5.55078 10.0801 5.55078V5.58024C10.2005 5.64662 10.5034 5.80217 10.7004 5.80217C10.9508 5.80217 11.2912 5.55078 11.2912 5.55078L11.8608 6.35499C11.8608 6.35499 11.4772 7.15892 11.7707 8.14131C12.0642 9.12369 11.7552 9.88117 10.45 9.96528C10.45 9.96528 10.1928 10.0141 10.0801 10.092V10.164C10.0801 10.1461 10.0705 10.1291 10.0542 10.1131C10.0379 10.1291 10.0283 10.1461 10.0283 10.164V10.092C9.91563 10.0141 9.65845 9.96528 9.65845 9.96528C8.35326 9.88117 8.04422 9.12369 8.33772 8.14131C8.63122 7.15892 8.24765 6.35499 8.24765 6.35499L8.8172 5.55078C8.8172 5.55078 9.1576 5.80217 9.40802 5.80217C9.60502 5.80217 9.90797 5.64662 10.0283 5.58024V5.55078C10.0283 5.55078 10.0376 5.55632 10.0542 5.56575Z"/>
</mask>
<path fill-rule="evenodd" clip-rule="evenodd" d="M10.0542 5.56575C10.0709 5.55632 10.0801 5.55078 10.0801 5.55078V5.58024C10.2005 5.64662 10.5034 5.80217 10.7004 5.80217C10.9508 5.80217 11.2912 5.55078 11.2912 5.55078L11.8608 6.35499C11.8608 6.35499 11.4772 7.15892 11.7707 8.14131C12.0642 9.12369 11.7552 9.88117 10.45 9.96528C10.45 9.96528 10.1928 10.0141 10.0801 10.092V10.164C10.0801 10.1461 10.0705 10.1291 10.0542 10.1131C10.0379 10.1291 10.0283 10.1461 10.0283 10.164V10.092C9.91563 10.0141 9.65845 9.96528 9.65845 9.96528C8.35326 9.88117 8.04422 9.12369 8.33772 8.14131C8.63122 7.15892 8.24765 6.35499 8.24765 6.35499L8.8172 5.55078C8.8172 5.55078 9.1576 5.80217 9.40802 5.80217C9.60502 5.80217 9.90797 5.64662 10.0283 5.58024V5.55078C10.0283 5.55078 10.0376 5.55632 10.0542 5.56575Z" fill="#E8AA00"/>
<path d="M10.0801 5.55078H10.7051V4.45055L9.7601 5.01394L10.0801 5.55078ZM10.0542 5.56575L9.74602 6.10947L10.0542 6.28416L10.3624 6.10947L10.0542 5.56575ZM10.0801 5.58024H9.45514V5.94923L9.77822 6.12748L10.0801 5.58024ZM11.2912 5.55078L11.8013 5.18956L11.4328 4.66927L10.9199 5.04803L11.2912 5.55078ZM11.8608 6.35499L12.4249 6.62413L12.5828 6.29309L12.3708 5.99377L11.8608 6.35499ZM11.7707 8.14131L11.1719 8.32022L11.7707 8.14131ZM10.45 9.96528L10.4098 9.34158L10.3713 9.34406L10.3333 9.35127L10.45 9.96528ZM10.0801 10.092L9.72478 9.57788L9.45514 9.76425V10.092H10.0801ZM10.0542 10.1131L10.4919 9.66685L10.0542 9.23761L9.61658 9.66685L10.0542 10.1131ZM10.0283 10.092H10.6533V9.76425L10.3837 9.57788L10.0283 10.092ZM9.65845 9.96528L9.77513 9.35127L9.73719 9.34406L9.69865 9.34158L9.65845 9.96528ZM8.24765 6.35499L7.7376 5.99377L7.52562 6.29309L7.68356 6.62413L8.24765 6.35499ZM8.8172 5.55078L9.1885 5.04803L8.67564 4.66927L8.30716 5.18956L8.8172 5.55078ZM10.0283 5.58024L10.3302 6.12748L10.6533 5.94923V5.58024H10.0283ZM10.0283 5.55078L10.3483 5.01394L9.4033 4.45055V5.55078H10.0283ZM10.0801 5.55078C9.7601 5.01394 9.76011 5.01393 9.76012 5.01393C9.76012 5.01392 9.76013 5.01392 9.76014 5.01391C9.76015 5.01391 9.76017 5.0139 9.76018 5.01389C9.76021 5.01388 9.76023 5.01386 9.76026 5.01385C9.76031 5.01382 9.76035 5.01379 9.7604 5.01376C9.76049 5.01371 9.76057 5.01366 9.76065 5.01361C9.7608 5.01353 9.76091 5.01346 9.76099 5.01341C9.76115 5.01331 9.76118 5.0133 9.76107 5.01336C9.76086 5.01348 9.76014 5.01391 9.75892 5.01462C9.75648 5.01604 9.7521 5.01857 9.74602 5.02202L10.3624 6.10947C10.373 6.10349 10.3816 6.09854 10.3879 6.09483C10.3911 6.09298 10.3937 6.09144 10.3958 6.09023C10.3968 6.08962 10.3977 6.0891 10.3984 6.08867C10.3988 6.08845 10.3991 6.08825 10.3994 6.08808C10.3996 6.08799 10.3997 6.08791 10.3998 6.08783C10.3999 6.0878 10.4 6.08776 10.4 6.08772C10.4 6.08771 10.4001 6.08769 10.4001 6.08767C10.4001 6.08766 10.4001 6.08766 10.4001 6.08765C10.4001 6.08764 10.4002 6.08764 10.4002 6.08764C10.4002 6.08763 10.4002 6.08762 10.0801 5.55078ZM10.7051 5.58024V5.55078H9.45514V5.58024H10.7051ZM9.77822 6.12748C9.84915 6.1666 9.97839 6.23467 10.125 6.29461C10.2517 6.34641 10.4725 6.42717 10.7004 6.42717V5.17717C10.7266 5.17717 10.7292 5.18124 10.6999 5.17334C10.6744 5.16647 10.6399 5.15468 10.5981 5.13759C10.5139 5.10315 10.4315 5.06025 10.3821 5.033L9.77822 6.12748ZM10.7004 6.42717C10.9928 6.42717 11.2592 6.29523 11.3867 6.22644C11.4646 6.18434 11.5309 6.14298 11.5776 6.1122C11.6013 6.09662 11.6208 6.08326 11.6351 6.07321C11.6423 6.06817 11.6482 6.06392 11.6528 6.06061C11.6551 6.05895 11.6571 6.05752 11.6587 6.05634C11.6595 6.05575 11.6602 6.05522 11.6609 6.05475C11.6612 6.05452 11.6615 6.0543 11.6618 6.0541C11.6619 6.05399 11.662 6.0539 11.6622 6.0538C11.6622 6.05376 11.6623 6.05369 11.6624 6.05367C11.6624 6.0536 11.6625 6.05354 11.2912 5.55078C10.9199 5.04803 10.92 5.04796 10.9201 5.0479C10.9201 5.04788 10.9202 5.04782 10.9203 5.04778C10.9204 5.0477 10.9205 5.04763 10.9206 5.04756C10.9208 5.04742 10.9209 5.04729 10.9211 5.04718C10.9214 5.04695 10.9216 5.04678 10.9218 5.04667C10.9221 5.04643 10.9221 5.04642 10.9219 5.0466C10.9214 5.04697 10.9198 5.04813 10.9171 5.04996C10.9119 5.05366 10.9028 5.05993 10.8906 5.06792C10.8658 5.08428 10.8312 5.10577 10.7928 5.12652C10.7531 5.14793 10.7181 5.16378 10.6913 5.17318C10.6601 5.18416 10.666 5.17717 10.7004 5.17717V6.42717ZM10.7812 5.912L11.3507 6.71621L12.3708 5.99377L11.8013 5.18956L10.7812 5.912ZM11.8608 6.35499C11.2967 6.08585 11.2966 6.08607 11.2965 6.08629C11.2965 6.08637 11.2964 6.08659 11.2963 6.08674C11.2961 6.08705 11.296 6.08738 11.2958 6.08771C11.2955 6.08838 11.2952 6.08911 11.2948 6.08988C11.2941 6.09143 11.2933 6.09318 11.2924 6.09514C11.2905 6.09906 11.2884 6.10379 11.2859 6.10932C11.281 6.12038 11.2748 6.13465 11.2676 6.15197C11.2532 6.18658 11.2349 6.23357 11.2148 6.29168C11.1747 6.40755 11.127 6.56963 11.0909 6.76733C11.0188 7.1614 10.99 7.71155 11.1719 8.32022L12.3696 7.96239C12.2579 7.58868 12.2741 7.24567 12.3205 6.99218C12.3436 6.8661 12.3734 6.76579 12.3961 6.70024C12.4074 6.66762 12.4167 6.64413 12.4222 6.63094C12.4249 6.62436 12.4267 6.62039 12.4272 6.6192C12.4275 6.6186 12.4274 6.6187 12.427 6.61951C12.4269 6.61992 12.4266 6.62051 12.4262 6.62128C12.426 6.62166 12.4258 6.62209 12.4256 6.62256C12.4255 6.6228 12.4254 6.62305 12.4253 6.62331C12.4252 6.62344 12.4251 6.62365 12.4251 6.62371C12.425 6.62392 12.4249 6.62413 11.8608 6.35499ZM11.1719 8.32022C11.2953 8.73347 11.2461 8.95404 11.1814 9.05649C11.1274 9.14193 10.9592 9.30617 10.4098 9.34158L10.4902 10.589C11.246 10.5403 11.8848 10.2837 12.2384 9.7238C12.5811 9.18089 12.5396 8.53153 12.3696 7.96239L11.1719 8.32022ZM10.45 9.96528C10.3333 9.35127 10.3332 9.35128 10.3332 9.35129C10.3332 9.3513 10.3331 9.35131 10.333 9.35132C10.333 9.35134 10.3329 9.35136 10.3328 9.35138C10.3326 9.35141 10.3323 9.35146 10.3321 9.3515C10.3316 9.35159 10.3311 9.35169 10.3305 9.35181C10.3293 9.35204 10.3278 9.35233 10.3261 9.35266C10.3227 9.35333 10.3183 9.35421 10.3131 9.35529C10.3026 9.35745 10.2884 9.36045 10.2714 9.36426C10.2378 9.37179 10.1911 9.38295 10.1388 9.39761C10.0604 9.41956 9.87579 9.47351 9.72478 9.57788L10.4355 10.6062C10.4057 10.6267 10.3915 10.6298 10.4119 10.6219C10.4268 10.6161 10.4488 10.6089 10.4759 10.6013C10.5019 10.594 10.5266 10.5881 10.5447 10.584C10.5536 10.582 10.5604 10.5806 10.5644 10.5798C10.5663 10.5794 10.5676 10.5791 10.568 10.579C10.5682 10.579 10.5682 10.579 10.568 10.579C10.5679 10.5791 10.5677 10.5791 10.5675 10.5791C10.5674 10.5792 10.5673 10.5792 10.5671 10.5792C10.5671 10.5792 10.567 10.5792 10.5669 10.5792C10.5669 10.5793 10.5668 10.5793 10.5668 10.5793C10.5667 10.5793 10.5667 10.5793 10.45 9.96528ZM10.7051 10.164V10.092H9.45514V10.164H10.7051ZM9.61658 10.5593C9.57285 10.5164 9.45514 10.3824 9.45514 10.164H10.7051C10.7051 9.90975 10.5682 9.74175 10.4919 9.66685L9.61658 10.5593ZM9.61658 9.66685C9.54022 9.74175 9.4033 9.90975 9.4033 10.164H10.6533C10.6533 10.3824 10.5356 10.5164 10.4919 10.5593L9.61658 9.66685ZM10.6533 10.164V10.092H9.4033V10.164H10.6533ZM9.65845 9.96528C9.54178 10.5793 9.54172 10.5793 9.54166 10.5793C9.54164 10.5793 9.54158 10.5793 9.54154 10.5792C9.54146 10.5792 9.54139 10.5792 9.54132 10.5792C9.54118 10.5792 9.54105 10.5792 9.54094 10.5791C9.54072 10.5791 9.54055 10.5791 9.54044 10.579C9.54022 10.579 9.54022 10.579 9.54043 10.579C9.54085 10.5791 9.5421 10.5794 9.54408 10.5798C9.54806 10.5806 9.55484 10.582 9.56371 10.584C9.58189 10.5881 9.60652 10.594 9.63256 10.6013C9.65962 10.6089 9.6816 10.6161 9.69651 10.6219C9.7169 10.6298 9.7027 10.6267 9.67294 10.6062L10.3837 9.57788C10.2327 9.47351 10.0481 9.41956 9.96968 9.39761C9.91735 9.38295 9.87065 9.37179 9.83708 9.36426C9.82008 9.36045 9.80589 9.35745 9.79537 9.35529C9.7901 9.35421 9.78571 9.35333 9.78231 9.35266C9.78061 9.35233 9.77915 9.35204 9.77795 9.35181C9.77735 9.35169 9.77681 9.35159 9.77634 9.3515C9.77611 9.35146 9.77589 9.35141 9.77568 9.35138C9.77558 9.35136 9.77549 9.35134 9.77539 9.35132C9.77535 9.35131 9.77528 9.3513 9.77526 9.35129C9.77519 9.35128 9.77513 9.35127 9.65845 9.96528ZM7.73888 7.96239C7.56884 8.53153 7.52733 9.18089 7.87009 9.7238C8.22359 10.2837 8.86243 10.5403 9.61826 10.589L9.69865 9.34158C9.14928 9.30617 8.981 9.14193 8.92706 9.05649C8.86238 8.95404 8.8131 8.73347 8.93657 8.32022L7.73888 7.96239ZM8.24765 6.35499C7.68356 6.62413 7.68346 6.62392 7.68337 6.62371C7.68333 6.62365 7.68324 6.62344 7.68318 6.62331C7.68305 6.62305 7.68293 6.6228 7.68282 6.62256C7.6826 6.62209 7.68239 6.62166 7.68221 6.62128C7.68185 6.62051 7.68158 6.61992 7.68139 6.61951C7.68102 6.6187 7.68098 6.6186 7.68124 6.6192C7.68178 6.62039 7.68353 6.62436 7.68626 6.63094C7.69173 6.64413 7.70104 6.66762 7.71232 6.70024C7.735 6.76579 7.76489 6.8661 7.78794 6.99218C7.8343 7.24567 7.85053 7.58868 7.73888 7.96239L8.93657 8.32022C9.11841 7.71155 9.08961 7.1614 9.01755 6.76733C8.9814 6.56963 8.93374 6.40755 8.89367 6.29168C8.87357 6.23357 8.85521 6.18658 8.84085 6.15197C8.83367 6.13465 8.82747 6.12038 8.82253 6.10932C8.82005 6.10379 8.8179 6.09906 8.81609 6.09514C8.81518 6.09318 8.81436 6.09143 8.81364 6.08988C8.81327 6.08911 8.81293 6.08838 8.81261 6.08771C8.81246 6.08738 8.8123 6.08705 8.81215 6.08674C8.81208 6.08659 8.81198 6.08637 8.81194 6.08629C8.81183 6.08607 8.81173 6.08585 8.24765 6.35499ZM8.30716 5.18956L7.7376 5.99377L8.75769 6.71621L9.32725 5.912L8.30716 5.18956ZM9.40802 5.17717C9.4424 5.17717 9.44838 5.18416 9.4171 5.17318C9.39034 5.16378 9.35531 5.14793 9.31564 5.12652C9.2772 5.10577 9.24268 5.08428 9.2178 5.06792C9.20566 5.05993 9.19657 5.05366 9.1913 5.04996C9.18869 5.04813 9.18707 5.04697 9.18656 5.0466C9.18631 5.04642 9.18633 5.04643 9.18665 5.04667C9.18681 5.04678 9.18704 5.04695 9.18735 5.04718C9.1875 5.04729 9.18768 5.04742 9.18787 5.04756C9.18796 5.04763 9.18807 5.0477 9.18817 5.04778C9.18822 5.04782 9.18831 5.04788 9.18833 5.0479C9.18842 5.04796 9.1885 5.04803 8.8172 5.55078C8.44591 6.05354 8.44599 6.0536 8.44608 6.05367C8.44612 6.05369 8.44621 6.05376 8.44627 6.0538C8.44639 6.0539 8.44653 6.05399 8.44666 6.0541C8.44694 6.0543 8.44723 6.05452 8.44755 6.05475C8.44819 6.05522 8.44892 6.05575 8.44973 6.05634C8.45135 6.05752 8.45331 6.05895 8.45561 6.06061C8.46021 6.06392 8.46616 6.06817 8.47334 6.07321C8.48767 6.08326 8.50712 6.09662 8.53081 6.1122C8.57758 6.14298 8.6438 6.18434 8.72177 6.22644C8.8492 6.29523 9.1156 6.42717 9.40802 6.42717V5.17717ZM9.72638 5.033C9.67698 5.06025 9.59458 5.10315 9.51038 5.13759C9.46855 5.15468 9.43406 5.16647 9.40856 5.17334C9.37923 5.18124 9.38185 5.17717 9.40802 5.17717V6.42717C9.63595 6.42717 9.85675 6.34641 9.98345 6.29461C10.13 6.23467 10.2593 6.1666 10.3302 6.12748L9.72638 5.033ZM10.6533 5.58024V5.55078H9.4033V5.58024H10.6533ZM10.0283 5.55078C9.70826 6.08762 9.70827 6.08763 9.70828 6.08764C9.70828 6.08764 9.70829 6.08764 9.7083 6.08765C9.70831 6.08766 9.70833 6.08766 9.70834 6.08767C9.70837 6.08769 9.7084 6.08771 9.70843 6.08772C9.70849 6.08776 9.70855 6.0878 9.70861 6.08783C9.70874 6.08791 9.70888 6.08799 9.70902 6.08808C9.70932 6.08825 9.70965 6.08845 9.71001 6.08867C9.71075 6.0891 9.71163 6.08962 9.71265 6.09023C9.71471 6.09144 9.71734 6.09298 9.72052 6.09483C9.72688 6.09854 9.73547 6.10349 9.74602 6.10947L10.3624 5.02202C10.3563 5.01857 10.352 5.01604 10.3495 5.01462C10.3483 5.01391 10.3476 5.01348 10.3474 5.01336C10.3473 5.0133 10.3473 5.01331 10.3474 5.01341C10.3475 5.01346 10.3476 5.01353 10.3478 5.01361C10.3479 5.01366 10.3479 5.01371 10.348 5.01376C10.3481 5.01379 10.3481 5.01382 10.3482 5.01385C10.3482 5.01386 10.3482 5.01388 10.3483 5.01389C10.3483 5.0139 10.3483 5.01391 10.3483 5.01391C10.3483 5.01392 10.3483 5.01392 10.3483 5.01393C10.3483 5.01393 10.3483 5.01394 10.0283 5.55078Z" fill="#E8AA00" mask="url(#path-12-outside-1)"/>
<mask id="mask1" mask-type="alpha" maskUnits="userSpaceOnUse" x="7" y="4" width="6" height="7">
<mask id="path-14-outside-2" mask-type="luminance" maskUnits="userSpaceOnUse" x="7.2356" y="3.55078" width="6" height="8" fill="black">
<rect fill="white" x="7.2356" y="3.55078" width="6" height="8"/>
<path fill-rule="evenodd" clip-rule="evenodd" d="M10.0542 5.56575C10.0709 5.55632 10.0801 5.55078 10.0801 5.55078V5.58024C10.2005 5.64662 10.5034 5.80217 10.7004 5.80217C10.9508 5.80217 11.2912 5.55078 11.2912 5.55078L11.8608 6.35499C11.8608 6.35499 11.4772 7.15892 11.7707 8.14131C12.0642 9.12369 11.7552 9.88117 10.45 9.96528C10.45 9.96528 10.1928 10.0141 10.0801 10.092V10.164C10.0801 10.1461 10.0705 10.1291 10.0542 10.1131C10.0379 10.1291 10.0283 10.1461 10.0283 10.164V10.092C9.91563 10.0141 9.65845 9.96528 9.65845 9.96528C8.35326 9.88117 8.04422 9.12369 8.33772 8.14131C8.63122 7.15892 8.24765 6.35499 8.24765 6.35499L8.8172 5.55078C8.8172 5.55078 9.1576 5.80217 9.40802 5.80217C9.60502 5.80217 9.90797 5.64662 10.0283 5.58024V5.55078C10.0283 5.55078 10.0376 5.55632 10.0542 5.56575Z"/>
</mask>
<path fill-rule="evenodd" clip-rule="evenodd" d="M10.0542 5.56575C10.0709 5.55632 10.0801 5.55078 10.0801 5.55078V5.58024C10.2005 5.64662 10.5034 5.80217 10.7004 5.80217C10.9508 5.80217 11.2912 5.55078 11.2912 5.55078L11.8608 6.35499C11.8608 6.35499 11.4772 7.15892 11.7707 8.14131C12.0642 9.12369 11.7552 9.88117 10.45 9.96528C10.45 9.96528 10.1928 10.0141 10.0801 10.092V10.164C10.0801 10.1461 10.0705 10.1291 10.0542 10.1131C10.0379 10.1291 10.0283 10.1461 10.0283 10.164V10.092C9.91563 10.0141 9.65845 9.96528 9.65845 9.96528C8.35326 9.88117 8.04422 9.12369 8.33772 8.14131C8.63122 7.15892 8.24765 6.35499 8.24765 6.35499L8.8172 5.55078C8.8172 5.55078 9.1576 5.80217 9.40802 5.80217C9.60502 5.80217 9.90797 5.64662 10.0283 5.58024V5.55078C10.0283 5.55078 10.0376 5.55632 10.0542 5.56575Z" fill="white"/>
<path d="M10.0801 5.55078H10.7051V4.45055L9.7601 5.01394L10.0801 5.55078ZM10.0542 5.56575L9.74602 6.10947L10.0542 6.28416L10.3624 6.10947L10.0542 5.56575ZM10.0801 5.58024H9.45514V5.94923L9.77822 6.12748L10.0801 5.58024ZM11.2912 5.55078L11.8013 5.18956L11.4328 4.66927L10.9199 5.04803L11.2912 5.55078ZM11.8608 6.35499L12.4249 6.62413L12.5828 6.29309L12.3708 5.99377L11.8608 6.35499ZM11.7707 8.14131L11.1719 8.32022L11.7707 8.14131ZM10.45 9.96528L10.4098 9.34158L10.3713 9.34406L10.3333 9.35127L10.45 9.96528ZM10.0801 10.092L9.72478 9.57788L9.45514 9.76425V10.092H10.0801ZM10.0542 10.1131L10.4919 9.66685L10.0542 9.23761L9.61658 9.66685L10.0542 10.1131ZM10.0283 10.092H10.6533V9.76425L10.3837 9.57788L10.0283 10.092ZM9.65845 9.96528L9.77513 9.35127L9.73719 9.34406L9.69865 9.34158L9.65845 9.96528ZM8.24765 6.35499L7.7376 5.99377L7.52562 6.29309L7.68356 6.62413L8.24765 6.35499ZM8.8172 5.55078L9.1885 5.04803L8.67564 4.66927L8.30716 5.18956L8.8172 5.55078ZM10.0283 5.58024L10.3302 6.12748L10.6533 5.94923V5.58024H10.0283ZM10.0283 5.55078L10.3483 5.01394L9.4033 4.45055V5.55078H10.0283ZM10.0801 5.55078C9.7601 5.01394 9.76011 5.01393 9.76012 5.01393C9.76012 5.01392 9.76013 5.01392 9.76014 5.01391C9.76015 5.01391 9.76017 5.0139 9.76018 5.01389C9.76021 5.01388 9.76023 5.01386 9.76026 5.01385C9.76031 5.01382 9.76035 5.01379 9.7604 5.01376C9.76049 5.01371 9.76057 5.01366 9.76065 5.01361C9.7608 5.01353 9.76091 5.01346 9.76099 5.01341C9.76115 5.01331 9.76118 5.0133 9.76107 5.01336C9.76086 5.01348 9.76014 5.01391 9.75892 5.01462C9.75648 5.01604 9.7521 5.01857 9.74602 5.02202L10.3624 6.10947C10.373 6.10349 10.3816 6.09854 10.3879 6.09483C10.3911 6.09298 10.3937 6.09144 10.3958 6.09023C10.3968 6.08962 10.3977 6.0891 10.3984 6.08867C10.3988 6.08845 10.3991 6.08825 10.3994 6.08808C10.3996 6.08799 10.3997 6.08791 10.3998 6.08783C10.3999 6.0878 10.4 6.08776 10.4 6.08772C10.4 6.08771 10.4001 6.08769 10.4001 6.08767C10.4001 6.08766 10.4001 6.08766 10.4001 6.08765C10.4001 6.08764 10.4002 6.08764 10.4002 6.08764C10.4002 6.08763 10.4002 6.08762 10.0801 5.55078ZM10.7051 5.58024V5.55078H9.45514V5.58024H10.7051ZM9.77822 6.12748C9.84915 6.1666 9.97839 6.23467 10.125 6.29461C10.2517 6.34641 10.4725 6.42717 10.7004 6.42717V5.17717C10.7266 5.17717 10.7292 5.18124 10.6999 5.17334C10.6744 5.16647 10.6399 5.15468 10.5981 5.13759C10.5139 5.10315 10.4315 5.06025 10.3821 5.033L9.77822 6.12748ZM10.7004 6.42717C10.9928 6.42717 11.2592 6.29523 11.3867 6.22644C11.4646 6.18434 11.5309 6.14298 11.5776 6.1122C11.6013 6.09662 11.6208 6.08326 11.6351 6.07321C11.6423 6.06817 11.6482 6.06392 11.6528 6.06061C11.6551 6.05895 11.6571 6.05752 11.6587 6.05634C11.6595 6.05575 11.6602 6.05522 11.6609 6.05475C11.6612 6.05452 11.6615 6.0543 11.6618 6.0541C11.6619 6.05399 11.662 6.0539 11.6622 6.0538C11.6622 6.05376 11.6623 6.05369 11.6624 6.05367C11.6624 6.0536 11.6625 6.05354 11.2912 5.55078C10.9199 5.04803 10.92 5.04796 10.9201 5.0479C10.9201 5.04788 10.9202 5.04782 10.9203 5.04778C10.9204 5.0477 10.9205 5.04763 10.9206 5.04756C10.9208 5.04742 10.9209 5.04729 10.9211 5.04718C10.9214 5.04695 10.9216 5.04678 10.9218 5.04667C10.9221 5.04643 10.9221 5.04642 10.9219 5.0466C10.9214 5.04697 10.9198 5.04813 10.9171 5.04996C10.9119 5.05366 10.9028 5.05993 10.8906 5.06792C10.8658 5.08428 10.8312 5.10577 10.7928 5.12652C10.7531 5.14793 10.7181 5.16378 10.6913 5.17318C10.6601 5.18416 10.666 5.17717 10.7004 5.17717V6.42717ZM10.7812 5.912L11.3507 6.71621L12.3708 5.99377L11.8013 5.18956L10.7812 5.912ZM11.8608 6.35499C11.2967 6.08585 11.2966 6.08607 11.2965 6.08629C11.2965 6.08637 11.2964 6.08659 11.2963 6.08674C11.2961 6.08705 11.296 6.08738 11.2958 6.08771C11.2955 6.08838 11.2952 6.08911 11.2948 6.08988C11.2941 6.09143 11.2933 6.09318 11.2924 6.09514C11.2905 6.09906 11.2884 6.10379 11.2859 6.10932C11.281 6.12038 11.2748 6.13465 11.2676 6.15197C11.2532 6.18658 11.2349 6.23357 11.2148 6.29168C11.1747 6.40755 11.127 6.56963 11.0909 6.76733C11.0188 7.1614 10.99 7.71155 11.1719 8.32022L12.3696 7.96239C12.2579 7.58868 12.2741 7.24567 12.3205 6.99218C12.3436 6.8661 12.3734 6.76579 12.3961 6.70024C12.4074 6.66762 12.4167 6.64413 12.4222 6.63094C12.4249 6.62436 12.4267 6.62039 12.4272 6.6192C12.4275 6.6186 12.4274 6.6187 12.427 6.61951C12.4269 6.61992 12.4266 6.62051 12.4262 6.62128C12.426 6.62166 12.4258 6.62209 12.4256 6.62256C12.4255 6.6228 12.4254 6.62305 12.4253 6.62331C12.4252 6.62344 12.4251 6.62365 12.4251 6.62371C12.425 6.62392 12.4249 6.62413 11.8608 6.35499ZM11.1719 8.32022C11.2953 8.73347 11.2461 8.95404 11.1814 9.05649C11.1274 9.14193 10.9592 9.30617 10.4098 9.34158L10.4902 10.589C11.246 10.5403 11.8848 10.2837 12.2384 9.7238C12.5811 9.18089 12.5396 8.53153 12.3696 7.96239L11.1719 8.32022ZM10.45 9.96528C10.3333 9.35127 10.3332 9.35128 10.3332 9.35129C10.3332 9.3513 10.3331 9.35131 10.333 9.35132C10.333 9.35134 10.3329 9.35136 10.3328 9.35138C10.3326 9.35141 10.3323 9.35146 10.3321 9.3515C10.3316 9.35159 10.3311 9.35169 10.3305 9.35181C10.3293 9.35204 10.3278 9.35233 10.3261 9.35266C10.3227 9.35333 10.3183 9.35421 10.3131 9.35529C10.3026 9.35745 10.2884 9.36045 10.2714 9.36426C10.2378 9.37179 10.1911 9.38295 10.1388 9.39761C10.0604 9.41956 9.87579 9.47351 9.72478 9.57788L10.4355 10.6062C10.4057 10.6267 10.3915 10.6298 10.4119 10.6219C10.4268 10.6161 10.4488 10.6089 10.4759 10.6013C10.5019 10.594 10.5266 10.5881 10.5447 10.584C10.5536 10.582 10.5604 10.5806 10.5644 10.5798C10.5663 10.5794 10.5676 10.5791 10.568 10.579C10.5682 10.579 10.5682 10.579 10.568 10.579C10.5679 10.5791 10.5677 10.5791 10.5675 10.5791C10.5674 10.5792 10.5673 10.5792 10.5671 10.5792C10.5671 10.5792 10.567 10.5792 10.5669 10.5792C10.5669 10.5793 10.5668 10.5793 10.5668 10.5793C10.5667 10.5793 10.5667 10.5793 10.45 9.96528ZM10.7051 10.164V10.092H9.45514V10.164H10.7051ZM9.61658 10.5593C9.57285 10.5164 9.45514 10.3824 9.45514 10.164H10.7051C10.7051 9.90975 10.5682 9.74175 10.4919 9.66685L9.61658 10.5593ZM9.61658 9.66685C9.54022 9.74175 9.4033 9.90975 9.4033 10.164H10.6533C10.6533 10.3824 10.5356 10.5164 10.4919 10.5593L9.61658 9.66685ZM10.6533 10.164V10.092H9.4033V10.164H10.6533ZM9.65845 9.96528C9.54178 10.5793 9.54172 10.5793 9.54166 10.5793C9.54164 10.5793 9.54158 10.5793 9.54154 10.5792C9.54146 10.5792 9.54139 10.5792 9.54132 10.5792C9.54118 10.5792 9.54105 10.5792 9.54094 10.5791C9.54072 10.5791 9.54055 10.5791 9.54044 10.579C9.54022 10.579 9.54022 10.579 9.54043 10.579C9.54085 10.5791 9.5421 10.5794 9.54408 10.5798C9.54806 10.5806 9.55484 10.582 9.56371 10.584C9.58189 10.5881 9.60652 10.594 9.63256 10.6013C9.65962 10.6089 9.6816 10.6161 9.69651 10.6219C9.7169 10.6298 9.7027 10.6267 9.67294 10.6062L10.3837 9.57788C10.2327 9.47351 10.0481 9.41956 9.96968 9.39761C9.91735 9.38295 9.87065 9.37179 9.83708 9.36426C9.82008 9.36045 9.80589 9.35745 9.79537 9.35529C9.7901 9.35421 9.78571 9.35333 9.78231 9.35266C9.78061 9.35233 9.77915 9.35204 9.77795 9.35181C9.77735 9.35169 9.77681 9.35159 9.77634 9.3515C9.77611 9.35146 9.77589 9.35141 9.77568 9.35138C9.77558 9.35136 9.77549 9.35134 9.77539 9.35132C9.77535 9.35131 9.77528 9.3513 9.77526 9.35129C9.77519 9.35128 9.77513 9.35127 9.65845 9.96528ZM7.73888 7.96239C7.56884 8.53153 7.52733 9.18089 7.87009 9.7238C8.22359 10.2837 8.86243 10.5403 9.61826 10.589L9.69865 9.34158C9.14928 9.30617 8.981 9.14193 8.92706 9.05649C8.86238 8.95404 8.8131 8.73347 8.93657 8.32022L7.73888 7.96239ZM8.24765 6.35499C7.68356 6.62413 7.68346 6.62392 7.68337 6.62371C7.68333 6.62365 7.68324 6.62344 7.68318 6.62331C7.68305 6.62305 7.68293 6.6228 7.68282 6.62256C7.6826 6.62209 7.68239 6.62166 7.68221 6.62128C7.68185 6.62051 7.68158 6.61992 7.68139 6.61951C7.68102 6.6187 7.68098 6.6186 7.68124 6.6192C7.68178 6.62039 7.68353 6.62436 7.68626 6.63094C7.69173 6.64413 7.70104 6.66762 7.71232 6.70024C7.735 6.76579 7.76489 6.8661 7.78794 6.99218C7.8343 7.24567 7.85053 7.58868 7.73888 7.96239L8.93657 8.32022C9.11841 7.71155 9.08961 7.1614 9.01755 6.76733C8.9814 6.56963 8.93374 6.40755 8.89367 6.29168C8.87357 6.23357 8.85521 6.18658 8.84085 6.15197C8.83367 6.13465 8.82747 6.12038 8.82253 6.10932C8.82005 6.10379 8.8179 6.09906 8.81609 6.09514C8.81518 6.09318 8.81436 6.09143 8.81364 6.08988C8.81327 6.08911 8.81293 6.08838 8.81261 6.08771C8.81246 6.08738 8.8123 6.08705 8.81215 6.08674C8.81208 6.08659 8.81198 6.08637 8.81194 6.08629C8.81183 6.08607 8.81173 6.08585 8.24765 6.35499ZM8.30716 5.18956L7.7376 5.99377L8.75769 6.71621L9.32725 5.912L8.30716 5.18956ZM9.40802 5.17717C9.4424 5.17717 9.44838 5.18416 9.4171 5.17318C9.39034 5.16378 9.35531 5.14793 9.31564 5.12652C9.2772 5.10577 9.24268 5.08428 9.2178 5.06792C9.20566 5.05993 9.19657 5.05366 9.1913 5.04996C9.18869 5.04813 9.18707 5.04697 9.18656 5.0466C9.18631 5.04642 9.18633 5.04643 9.18665 5.04667C9.18681 5.04678 9.18704 5.04695 9.18735 5.04718C9.1875 5.04729 9.18768 5.04742 9.18787 5.04756C9.18796 5.04763 9.18807 5.0477 9.18817 5.04778C9.18822 5.04782 9.18831 5.04788 9.18833 5.0479C9.18842 5.04796 9.1885 5.04803 8.8172 5.55078C8.44591 6.05354 8.44599 6.0536 8.44608 6.05367C8.44612 6.05369 8.44621 6.05376 8.44627 6.0538C8.44639 6.0539 8.44653 6.05399 8.44666 6.0541C8.44694 6.0543 8.44723 6.05452 8.44755 6.05475C8.44819 6.05522 8.44892 6.05575 8.44973 6.05634C8.45135 6.05752 8.45331 6.05895 8.45561 6.06061C8.46021 6.06392 8.46616 6.06817 8.47334 6.07321C8.48767 6.08326 8.50712 6.09662 8.53081 6.1122C8.57758 6.14298 8.6438 6.18434 8.72177 6.22644C8.8492 6.29523 9.1156 6.42717 9.40802 6.42717V5.17717ZM9.72638 5.033C9.67698 5.06025 9.59458 5.10315 9.51038 5.13759C9.46855 5.15468 9.43406 5.16647 9.40856 5.17334C9.37923 5.18124 9.38185 5.17717 9.40802 5.17717V6.42717C9.63595 6.42717 9.85675 6.34641 9.98345 6.29461C10.13 6.23467 10.2593 6.1666 10.3302 6.12748L9.72638 5.033ZM10.6533 5.58024V5.55078H9.4033V5.58024H10.6533ZM10.0283 5.55078C9.70826 6.08762 9.70827 6.08763 9.70828 6.08764C9.70828 6.08764 9.70829 6.08764 9.7083 6.08765C9.70831 6.08766 9.70833 6.08766 9.70834 6.08767C9.70837 6.08769 9.7084 6.08771 9.70843 6.08772C9.70849 6.08776 9.70855 6.0878 9.70861 6.08783C9.70874 6.08791 9.70888 6.08799 9.70902 6.08808C9.70932 6.08825 9.70965 6.08845 9.71001 6.08867C9.71075 6.0891 9.71163 6.08962 9.71265 6.09023C9.71471 6.09144 9.71734 6.09298 9.72052 6.09483C9.72688 6.09854 9.73547 6.10349 9.74602 6.10947L10.3624 5.02202C10.3563 5.01857 10.352 5.01604 10.3495 5.01462C10.3483 5.01391 10.3476 5.01348 10.3474 5.01336C10.3473 5.0133 10.3473 5.01331 10.3474 5.01341C10.3475 5.01346 10.3476 5.01353 10.3478 5.01361C10.3479 5.01366 10.3479 5.01371 10.348 5.01376C10.3481 5.01379 10.3481 5.01382 10.3482 5.01385C10.3482 5.01386 10.3482 5.01388 10.3483 5.01389C10.3483 5.0139 10.3483 5.01391 10.3483 5.01391C10.3483 5.01392 10.3483 5.01392 10.3483 5.01393C10.3483 5.01393 10.3483 5.01394 10.0283 5.55078Z" fill="white" mask="url(#path-14-outside-2)"/>
</mask>
<g mask="url(#mask1)">
<rect x="8.31519" y="5.45435" width="1.73913" height="2.38636" fill="#67BAFF"/>
<rect x="10.0543" y="5.45435" width="1.73913" height="2.38636" fill="white"/>
<rect x="8.09778" y="8.06812" width="4.34783" height="2.72727" fill="#C51918"/>
<path d="M10.8967 7.67179H10.6793V6.0376H10.8967V7.67179Z" fill="#C9A951"/>
<path d="M10.8086 6.92827L10.7026 7.11807L10.3274 6.90856L10.4334 6.71875L10.8086 6.92827Z" fill="#C9A951"/>
<path d="M10.8086 6.47368L10.7026 6.66348L10.3274 6.45397L10.4334 6.26416L10.8086 6.47368Z" fill="#C9A951"/>
<path d="M10.7622 6.92827L10.8682 7.11807L11.2434 6.90856L11.1374 6.71875L10.7622 6.92827Z" fill="#C9A951"/>
<path d="M10.7622 6.47368L10.8682 6.66348L11.2434 6.45397L11.1374 6.26416L10.7622 6.47368Z" fill="#C9A951"/>
<path fill-rule="evenodd" clip-rule="evenodd" d="M11.0807 8.56546C11.0807 8.56546 11.2319 8.39255 11.2319 8.47901C11.2319 8.56546 11.2319 8.71084 11.1563 8.71084C11.0807 8.71084 10.7284 8.64167 10.5942 8.47901C10.4601 8.31634 10.1762 8.03315 9.81073 8.09983C9.44531 8.16651 9.0119 8.64022 8.90506 8.64022C8.79823 8.64022 8.56408 9.00537 8.73457 9.29053C8.90506 9.57569 9.19507 9.48721 9.19507 9.56994C9.19507 9.65268 9.26759 9.6622 9.53916 9.6622C9.81073 9.6622 9.91003 9.75798 10.1451 9.75798C10.3803 9.75798 10.0675 9.75446 10.4462 9.6622C10.8249 9.56994 11.1117 9.29053 10.891 9.29053C10.6704 9.29053 10.5991 9.29053 10.4462 9.29053C10.2933 9.29053 9.95308 9.4007 9.95308 9.29053C9.95308 9.18036 10.0286 8.94449 10.2374 9.06242C10.4462 9.18036 11.0263 9.27029 11.2319 9.06242C11.4375 8.85456 11.5094 8.72922 11.4734 8.47901C11.4375 8.22879 11.1563 8.30081 11.1563 8.30081L11.0807 8.56546Z" fill="#FBCD17"/>
<path fill-rule="evenodd" clip-rule="evenodd" d="M9.61006 5.98096C9.47903 6.09557 9.56356 6.51443 9.34884 6.51443C9.13412 6.51443 8.83196 6.20078 8.75586 6.40774C8.67977 6.6147 8.75586 6.54517 8.75586 6.72144C8.75586 6.89771 8.57361 7.38752 8.66474 7.47033C8.75586 7.55313 8.84924 7.77131 8.83306 7.66918C8.81687 7.56704 8.74798 7.41706 8.77669 7.25412C8.74894 7.08579 8.93027 6.92389 8.93027 6.92389C8.93027 6.92389 8.91059 7.09865 8.89631 7.16381C8.89631 7.16381 8.83653 7.29532 8.8608 7.38267C8.8608 7.38267 8.92219 7.62887 8.9475 7.64588C8.9475 7.64588 8.96394 7.06295 8.98263 6.96687C9.00133 6.8708 9.13459 7.07524 9.17892 7.05207C9.17892 7.05207 9.19414 7.45068 9.17109 7.49818C9.17109 7.49818 9.12435 7.59246 9.14173 7.62258C9.14173 7.62258 9.18508 7.73171 9.22207 7.69992C9.22207 7.69992 9.22338 7.69765 9.24212 7.59144C9.24212 7.59144 9.22034 7.5273 9.25443 7.38126C9.25443 7.38126 9.29034 7.05968 9.3052 7.12945C9.3052 7.12945 9.29852 7.28128 9.31565 7.35953C9.31565 7.35953 9.343 7.55382 9.34849 7.57515C9.34849 7.57515 9.47968 7.76201 9.48317 7.68309C9.48317 7.68309 9.35741 7.53313 9.38435 7.41902C9.38435 7.41902 9.31235 7.09575 9.41285 7.02367C9.41285 7.02367 9.67948 6.90034 9.69552 6.68922C9.69552 6.68922 9.73415 6.44863 9.74109 6.33834C9.74109 6.33834 9.6826 6.30591 9.8035 6.24897C9.8035 6.24897 9.99812 6.17427 9.87685 6.07039" fill="#D18219"/>
</g>
</g>
</svg>
