<svg width="16" height="12" viewBox="0 0 16 12" fill="none" xmlns="http://www.w3.org/2000/svg">
<mask id="mask0" mask-type="alpha" maskUnits="userSpaceOnUse" x="0" y="0" width="16" height="12">
<rect width="16" height="12" fill="white"/>
</mask>
<g mask="url(#mask0)">
<path fill-rule="evenodd" clip-rule="evenodd" d="M0 0V12H16V0H0Z" fill="#4857A1"/>
<mask id="mask1" mask-type="alpha" maskUnits="userSpaceOnUse" x="0" y="0" width="16" height="12">
<path fill-rule="evenodd" clip-rule="evenodd" d="M0 0V12H16V0H0Z" fill="white"/>
</mask>
<g mask="url(#mask1)">
<path fill-rule="evenodd" clip-rule="evenodd" d="M0 0V4H16V0H0Z" fill="#C51918"/>
<path fill-rule="evenodd" clip-rule="evenodd" d="M0 8V12H16V8H0Z" fill="#F7FCFF"/>
<path fill-rule="evenodd" clip-rule="evenodd" d="M5.26042 1.34793L5.19576 1.10376C5.24888 1.11913 5.3064 1.13489 5.36705 1.15108L5.36517 1.14178C6.11932 1.21158 7.28706 1.58797 7.50682 1.98063C7.59177 2.13239 7.50937 2.26069 7.40138 2.42882L7.40134 2.42888C7.38522 2.45398 7.36852 2.47997 7.35173 2.50707C7.29746 2.59463 7.24829 2.67835 7.20195 2.75725C7.03277 3.04529 6.90133 3.26909 6.69721 3.38088L6.70117 4.02035L3.3323 3.99306L3.32799 3.34878C3.15314 3.22909 3.03038 3.02006 2.87633 2.75778L2.87633 2.75777C2.82999 2.67887 2.78082 2.59515 2.72655 2.50759C2.70974 2.48048 2.69303 2.45447 2.6769 2.42934C2.56891 2.26121 2.48651 2.13292 2.57145 1.98115C2.73736 1.68473 3.48358 1.39239 4.16384 1.23688C4.29219 1.19425 4.42581 1.15427 4.55833 1.11592L4.61295 1.15317C4.67191 1.14495 4.72891 1.13826 4.78339 1.13322L4.86366 1.3043H5.12715C5.12715 1.3043 5.29278 1.76767 5.29278 2.02501C5.29278 2.28234 5.12715 2.49515 5.12715 2.49515V2.67278C5.15607 2.67505 5.18642 2.67782 5.21796 2.68103C5.21797 2.66534 5.21939 2.64882 5.22237 2.63191C5.23734 2.54702 5.28599 2.48464 5.33103 2.49258C5.37608 2.50052 5.40046 2.57578 5.38549 2.66067C5.3831 2.6742 5.37986 2.68717 5.37591 2.69937C5.55347 2.72214 5.75237 2.75389 5.94079 2.78656C6.01263 2.65534 6.10022 2.5257 6.18385 2.40192L6.18385 2.40192C6.40003 2.08196 6.58975 1.80115 6.41268 1.63353C6.37889 1.60153 6.31754 1.57178 6.23841 1.54424C5.97793 1.48113 5.69413 1.43185 5.41855 1.40635L5.41132 1.37053C5.3585 1.36246 5.30778 1.35493 5.26042 1.34793ZM6.54214 2.89874C6.63696 2.91757 6.6944 2.92953 6.6944 2.92953L6.69502 3.02825C7.02913 2.78958 7.26313 2.24953 7.28319 2.07277C7.2951 1.96777 7.11958 1.84554 6.84401 1.73362C6.96998 1.96826 6.79372 2.20166 6.57301 2.49393C6.48933 2.60473 6.39927 2.724 6.31686 2.855L6.39992 2.8709C6.39867 2.84613 6.40161 2.81823 6.40928 2.7896C6.43159 2.70634 6.48549 2.64844 6.52967 2.66028C6.57385 2.67211 6.59158 2.74921 6.56927 2.83247C6.56265 2.85718 6.55325 2.87966 6.54214 2.89874ZM4.81912 2.67398V2.47615C4.81912 2.47615 4.67572 2.32512 4.65349 2.01058C4.63731 1.7817 4.68853 1.51194 4.71763 1.38199C4.51715 1.40754 4.30654 1.44554 4.10121 1.4917C3.9363 1.5328 3.80277 1.58002 3.74626 1.63353C3.56919 1.80115 3.75891 2.08196 3.97509 2.40192C4.05587 2.52148 4.14034 2.64651 4.21075 2.77315C4.33238 2.74833 4.45461 2.72536 4.56874 2.70707C4.56396 2.69054 4.56056 2.6725 4.5589 2.6535C4.55139 2.56763 4.58224 2.49479 4.6278 2.4908C4.67336 2.48682 4.71639 2.5532 4.7239 2.63907C4.72528 2.65479 4.72537 2.67007 4.72432 2.68458C4.75722 2.68042 4.78891 2.67686 4.81912 2.67398ZM3.8413 2.85375C3.7591 2.72324 3.66934 2.60438 3.58593 2.49393L3.58593 2.49393C3.36009 2.19487 3.1808 1.95745 3.32421 1.71726C3.00071 1.83831 2.78319 1.96843 2.79509 2.0733C2.81397 2.2397 3.02244 2.72803 3.32555 2.98382L3.32553 2.98027C3.32553 2.98027 3.4494 2.94751 3.63252 2.90313C3.62039 2.88463 3.60979 2.86262 3.60186 2.83822C3.57522 2.75624 3.58889 2.67833 3.63239 2.66419C3.67589 2.65006 3.73275 2.70506 3.75939 2.78704C3.76878 2.81595 3.77316 2.84435 3.77299 2.86963L3.8413 2.85375Z" fill="#F6C540"/>
<path fill-rule="evenodd" clip-rule="evenodd" d="M4.29655 1.34209C4.31964 1.35794 4.34808 1.36728 4.37884 1.36728C4.45613 1.36728 4.51879 1.30824 4.51879 1.2354C4.51879 1.16256 4.45613 1.10352 4.37884 1.10352C4.32402 1.10352 4.27656 1.13321 4.2536 1.17646C4.2305 1.16062 4.20206 1.15127 4.17131 1.15127C4.122 1.15127 4.07864 1.1753 4.05371 1.21161C4.02953 1.19283 3.99854 1.18155 3.96476 1.18155C3.88746 1.18155 3.8248 1.2406 3.8248 1.31344C3.8248 1.3175 3.82499 1.32152 3.82537 1.32548C3.79972 1.29546 3.7604 1.27626 3.71631 1.27626C3.64625 1.27626 3.58822 1.32476 3.57796 1.38808C3.55234 1.35736 3.51254 1.33763 3.46786 1.33763C3.40069 1.33763 3.34458 1.38222 3.33102 1.44169C3.30804 1.42611 3.27984 1.41692 3.24936 1.41692C3.18734 1.41692 3.13474 1.45494 3.11637 1.50759C3.09754 1.49871 3.07628 1.49371 3.05378 1.49371C2.98473 1.49371 2.92735 1.54084 2.9159 1.60282C2.90693 1.60112 2.89765 1.60023 2.88815 1.60023C2.81159 1.60023 2.74939 1.65816 2.74821 1.73004C2.73988 1.72858 2.7313 1.72782 2.72252 1.72782C2.64522 1.72782 2.58256 1.78687 2.58256 1.8597C2.58256 1.86894 2.58357 1.87795 2.58549 1.88665C2.57625 1.88484 2.56669 1.88389 2.55689 1.88389C2.47959 1.88389 2.41693 1.94294 2.41693 2.01578C2.41693 2.07112 2.4531 2.1185 2.50438 2.13807C2.50136 2.14885 2.49975 2.16018 2.49975 2.17185C2.49975 2.22719 2.53592 2.27457 2.5872 2.29414C2.58417 2.30493 2.58256 2.31625 2.58256 2.32793C2.58256 2.39904 2.64228 2.457 2.71704 2.45971C2.68551 2.4839 2.66538 2.52075 2.66538 2.56204C2.66538 2.63488 2.72804 2.69393 2.80534 2.69393C2.88263 2.69393 2.9453 2.63488 2.9453 2.56204C2.9453 2.49094 2.88558 2.43297 2.81082 2.43026C2.84234 2.40608 2.86248 2.36922 2.86248 2.32793C2.86248 2.27259 2.82631 2.22521 2.77503 2.20564C2.77805 2.19486 2.77966 2.18353 2.77966 2.17185C2.77966 2.11651 2.74349 2.06914 2.69221 2.04957C2.69524 2.03878 2.69685 2.02746 2.69685 2.01578C2.69685 2.00654 2.69584 1.99753 2.69392 1.98883C2.70316 1.99064 2.71272 1.99159 2.72252 1.99159C2.79908 1.99159 2.86128 1.93366 2.86246 1.86178C2.87079 1.86324 2.87938 1.864 2.88815 1.864C2.95721 1.864 3.01459 1.81687 3.02603 1.75488C3.035 1.75658 3.04428 1.75747 3.05378 1.75747C3.11581 1.75747 3.16841 1.71946 3.18677 1.6668C3.20561 1.67569 3.22686 1.68069 3.24936 1.68069C3.28006 1.68069 3.30846 1.67137 3.33154 1.65558C3.33589 1.67321 3.344 1.68949 3.35502 1.70363C3.33798 1.72548 3.3279 1.75246 3.3279 1.78166C3.3279 1.85277 3.38762 1.91074 3.46238 1.91345C3.43086 1.93763 3.41072 1.97449 3.41072 2.01578C3.41072 2.07112 3.44689 2.1185 3.49817 2.13807C3.49515 2.14885 3.49354 2.16018 3.49354 2.17185C3.49354 2.22719 3.52971 2.27457 3.58099 2.29414C3.57796 2.30493 3.57635 2.31625 3.57635 2.32793C3.57635 2.40077 3.63901 2.45981 3.71631 2.45981C3.79361 2.45981 3.85627 2.40077 3.85627 2.32793C3.85627 2.27259 3.8201 2.22521 3.76882 2.20564C3.77184 2.19486 3.77345 2.18353 3.77345 2.17185C3.77345 2.11651 3.73728 2.06914 3.686 2.04957C3.68903 2.03878 3.69064 2.02746 3.69064 2.01578C3.69064 1.94467 3.63092 1.88671 3.55616 1.88399C3.58769 1.85981 3.60782 1.82295 3.60782 1.78166C3.60782 1.75246 3.59775 1.72548 3.5807 1.70363C3.59775 1.68178 3.60782 1.65479 3.60782 1.62559C3.60782 1.59639 3.59775 1.5694 3.5807 1.54755C3.59377 1.5308 3.60274 1.51104 3.60621 1.48958C3.63184 1.52029 3.67163 1.54002 3.71631 1.54002C3.79361 1.54002 3.85627 1.48098 3.85627 1.40814C3.85627 1.40408 3.85607 1.40006 3.85569 1.3961C3.88135 1.42611 3.92067 1.44532 3.96476 1.44532C4.01407 1.44532 4.05742 1.42129 4.08235 1.38498C4.10654 1.40376 4.13752 1.41504 4.17131 1.41504C4.22613 1.41504 4.27358 1.38534 4.29655 1.34209ZM3.46786 1.6014C3.51417 1.6014 3.55523 1.58021 3.5807 1.54755C3.55523 1.5149 3.51417 1.49371 3.46786 1.49371C3.48204 1.49371 3.49354 1.48287 3.49354 1.46951C3.49354 1.45615 3.48204 1.44532 3.46786 1.44532C3.45368 1.44532 3.44219 1.45615 3.44219 1.46951C3.44219 1.48287 3.45368 1.49371 3.46786 1.49371C3.43716 1.49371 3.40876 1.50302 3.38568 1.51882C3.37789 1.48725 3.35807 1.46004 3.33102 1.44169C3.32898 1.45066 3.3279 1.45997 3.3279 1.46951C3.3279 1.49871 3.33798 1.5257 3.35502 1.54755C3.33798 1.5694 3.3279 1.59639 3.3279 1.62559C3.3279 1.6359 3.32916 1.64594 3.33154 1.65558C3.35894 1.63682 3.37884 1.60892 3.3862 1.57663C3.40918 1.59222 3.43738 1.6014 3.46786 1.6014ZM3.46786 1.64978C3.42155 1.64978 3.3805 1.67097 3.35502 1.70363C3.3805 1.73628 3.42155 1.75747 3.46786 1.75747C3.51417 1.75747 3.55523 1.73628 3.5807 1.70363C3.55523 1.67097 3.51417 1.64978 3.46786 1.64978ZM3.46786 1.64978C3.48204 1.64978 3.49354 1.63895 3.49354 1.62559C3.49354 1.61223 3.48204 1.6014 3.46786 1.6014C3.45368 1.6014 3.44219 1.61223 3.44219 1.62559C3.44219 1.63895 3.45368 1.64978 3.46786 1.64978ZM3.3862 1.57663C3.37426 1.56854 3.36373 1.55871 3.35502 1.54755C3.36361 1.53655 3.37396 1.52685 3.38568 1.51882C3.38806 1.52846 3.38932 1.53849 3.38932 1.54881C3.38932 1.55835 3.38824 1.56766 3.3862 1.57663ZM3.76882 2.20564C3.7526 2.19945 3.73488 2.19605 3.71631 2.19605C3.65141 2.19605 3.59682 2.23768 3.58099 2.29414C3.5972 2.30033 3.61493 2.30374 3.63349 2.30374C3.6984 2.30374 3.75298 2.26211 3.76882 2.20564ZM3.686 2.04957C3.66979 2.04338 3.65206 2.03997 3.63349 2.03997C3.56859 2.03997 3.51401 2.0816 3.49817 2.13807C3.51438 2.14426 3.53211 2.14766 3.55068 2.14766C3.61558 2.14766 3.67017 2.10603 3.686 2.04957ZM3.55616 1.88399L3.55068 1.88389C3.5172 1.88389 3.48646 1.89497 3.46238 1.91345L3.46786 1.91355C3.50134 1.91355 3.53208 1.90247 3.55616 1.88399ZM2.81082 2.43026L2.80534 2.43016C2.77186 2.43016 2.74112 2.44124 2.71704 2.45971L2.72252 2.45981C2.756 2.45981 2.78674 2.44874 2.81082 2.43026ZM2.77503 2.20564C2.75919 2.26211 2.70461 2.30374 2.63971 2.30374C2.62114 2.30374 2.60341 2.30033 2.5872 2.29414C2.60303 2.23768 2.65762 2.19605 2.72252 2.19605C2.74109 2.19605 2.75881 2.19945 2.77503 2.20564ZM2.69221 2.04957C2.67638 2.10603 2.62179 2.14766 2.55689 2.14766C2.53832 2.14766 2.5206 2.14426 2.50438 2.13807C2.52022 2.0816 2.5748 2.03997 2.63971 2.03997C2.65827 2.03997 2.676 2.04338 2.69221 2.04957ZM2.58549 1.88665C2.59677 1.93786 2.63957 1.9782 2.69392 1.98883C2.68264 1.93762 2.63984 1.89728 2.58549 1.88665ZM2.86246 1.86178C2.79744 1.85042 2.74819 1.79669 2.74819 1.73212L2.74821 1.73004C2.81324 1.7414 2.86248 1.79513 2.86248 1.8597L2.86246 1.86178ZM3.02603 1.75488C2.96203 1.74275 2.91383 1.68947 2.91383 1.62559C2.91383 1.61783 2.91454 1.61022 2.9159 1.60282C2.97991 1.61496 3.02811 1.66823 3.02811 1.73212C3.02811 1.73988 3.0274 1.74749 3.02603 1.75488ZM3.18677 1.6668C3.14089 1.64516 3.1094 1.60045 3.1094 1.54881C3.1094 1.53442 3.11185 1.52056 3.11637 1.50759C3.16225 1.52924 3.19374 1.57395 3.19374 1.62559C3.19374 1.63998 3.1913 1.65384 3.18677 1.6668ZM3.60621 1.48958C3.58751 1.46715 3.57635 1.43887 3.57635 1.40814C3.57635 1.40132 3.5769 1.39462 3.57796 1.38808C3.59667 1.4105 3.60782 1.43878 3.60782 1.46951C3.60782 1.47633 3.60727 1.48303 3.60621 1.48958ZM3.82537 1.32548C3.82793 1.35209 3.83887 1.37642 3.85569 1.3961C3.85314 1.36949 3.84219 1.34516 3.82537 1.32548ZM4.08235 1.38498C4.05121 1.36079 4.03135 1.32416 4.03135 1.28316C4.03135 1.25678 4.03956 1.23222 4.05371 1.21161C4.08486 1.2358 4.10472 1.27243 4.10472 1.31344C4.10472 1.33981 4.0965 1.36437 4.08235 1.38498ZM4.29655 1.34209C4.2616 1.31811 4.23888 1.27926 4.23888 1.2354C4.23888 1.21422 4.24418 1.1942 4.2536 1.17646C4.28855 1.20044 4.31127 1.2393 4.31127 1.28316C4.31127 1.30434 4.30597 1.32436 4.29655 1.34209ZM2.88815 1.75631C2.90233 1.75631 2.91383 1.74548 2.91383 1.73212C2.91383 1.71876 2.90233 1.70792 2.88815 1.70792C2.87397 1.70792 2.86248 1.71876 2.86248 1.73212C2.86248 1.74548 2.87397 1.75631 2.88815 1.75631ZM2.72252 1.88389C2.7367 1.88389 2.74819 1.87306 2.74819 1.8597C2.74819 1.84634 2.7367 1.83551 2.72252 1.83551C2.70834 1.83551 2.69685 1.84634 2.69685 1.8597C2.69685 1.87306 2.70834 1.88389 2.72252 1.88389ZM2.55689 2.03997C2.57107 2.03997 2.58256 2.02914 2.58256 2.01578C2.58256 2.00242 2.57107 1.99159 2.55689 1.99159C2.54271 1.99159 2.53122 2.00242 2.53122 2.01578C2.53122 2.02914 2.54271 2.03997 2.55689 2.03997ZM2.63971 2.19605C2.65388 2.19605 2.66538 2.18522 2.66538 2.17185C2.66538 2.15849 2.65388 2.14766 2.63971 2.14766C2.62553 2.14766 2.61403 2.15849 2.61403 2.17185C2.61403 2.18522 2.62553 2.19605 2.63971 2.19605ZM2.72252 2.35212C2.7367 2.35212 2.74819 2.34129 2.74819 2.32793C2.74819 2.31457 2.7367 2.30374 2.72252 2.30374C2.70834 2.30374 2.69685 2.31457 2.69685 2.32793C2.69685 2.34129 2.70834 2.35212 2.72252 2.35212ZM2.83101 2.56204C2.83101 2.5754 2.81952 2.58624 2.80534 2.58624C2.79116 2.58624 2.77966 2.5754 2.77966 2.56204C2.77966 2.54868 2.79116 2.53785 2.80534 2.53785C2.81952 2.53785 2.83101 2.54868 2.83101 2.56204ZM3.05378 1.64978C3.06796 1.64978 3.07946 1.63895 3.07946 1.62559C3.07946 1.61223 3.06796 1.6014 3.05378 1.6014C3.03961 1.6014 3.02811 1.61223 3.02811 1.62559C3.02811 1.63895 3.03961 1.64978 3.05378 1.64978ZM3.24936 1.573C3.26354 1.573 3.27503 1.56217 3.27503 1.54881C3.27503 1.53545 3.26354 1.52462 3.24936 1.52462C3.23518 1.52462 3.22368 1.53545 3.22368 1.54881C3.22368 1.56217 3.23518 1.573 3.24936 1.573ZM3.71631 1.43233C3.73049 1.43233 3.74198 1.4215 3.74198 1.40814C3.74198 1.39478 3.73049 1.38395 3.71631 1.38395C3.70213 1.38395 3.69064 1.39478 3.69064 1.40814C3.69064 1.4215 3.70213 1.43233 3.71631 1.43233ZM3.96476 1.33763C3.97894 1.33763 3.99043 1.3268 3.99043 1.31344C3.99043 1.30008 3.97894 1.28925 3.96476 1.28925C3.95058 1.28925 3.93908 1.30008 3.93908 1.31344C3.93908 1.3268 3.95058 1.33763 3.96476 1.33763ZM4.17131 1.30735C4.18549 1.30735 4.19698 1.29652 4.19698 1.28316C4.19698 1.26979 4.18549 1.25896 4.17131 1.25896C4.15713 1.25896 4.14564 1.26979 4.14564 1.28316C4.14564 1.29652 4.15713 1.30735 4.17131 1.30735ZM4.37884 1.25959C4.39301 1.25959 4.40451 1.24876 4.40451 1.2354C4.40451 1.22204 4.39301 1.21121 4.37884 1.21121C4.36466 1.21121 4.35316 1.22204 4.35316 1.2354C4.35316 1.24876 4.36466 1.25959 4.37884 1.25959ZM3.46786 1.80586C3.48204 1.80586 3.49354 1.79503 3.49354 1.78167C3.49354 1.7683 3.48204 1.75747 3.46786 1.75747C3.45368 1.75747 3.44219 1.7683 3.44219 1.78167C3.44219 1.79503 3.45368 1.80586 3.46786 1.80586ZM3.55068 2.03997C3.56486 2.03997 3.57635 2.02914 3.57635 2.01578C3.57635 2.00242 3.56486 1.99159 3.55068 1.99159C3.5365 1.99159 3.52501 2.00242 3.52501 2.01578C3.52501 2.02914 3.5365 2.03997 3.55068 2.03997ZM3.63349 2.19605C3.64767 2.19605 3.65917 2.18522 3.65917 2.17185C3.65917 2.15849 3.64767 2.14766 3.63349 2.14766C3.61932 2.14766 3.60782 2.15849 3.60782 2.17185C3.60782 2.18522 3.61932 2.19605 3.63349 2.19605ZM3.71631 2.35212C3.73049 2.35212 3.74198 2.34129 3.74198 2.32793C3.74198 2.31457 3.73049 2.30374 3.71631 2.30374C3.70213 2.30374 3.69064 2.31457 3.69064 2.32793C3.69064 2.34129 3.70213 2.35212 3.71631 2.35212ZM7.3602 2.58624C7.37438 2.58624 7.38588 2.5754 7.38588 2.56204C7.38588 2.54868 7.37438 2.53785 7.3602 2.53785C7.34602 2.53785 7.33453 2.54868 7.33453 2.56204C7.33453 2.5754 7.34602 2.58624 7.3602 2.58624ZM7.22024 2.56204C7.22024 2.63488 7.28291 2.69393 7.3602 2.69393C7.4375 2.69393 7.50016 2.63488 7.50016 2.56204C7.50016 2.52075 7.48003 2.4839 7.4485 2.45971C7.52326 2.457 7.58298 2.39904 7.58298 2.32793C7.58298 2.31625 7.58137 2.30493 7.57834 2.29414C7.62962 2.27457 7.66579 2.22719 7.66579 2.17185C7.66579 2.16018 7.66418 2.14885 7.66116 2.13807C7.71244 2.1185 7.74861 2.07112 7.74861 2.01578C7.74861 1.94294 7.68595 1.88389 7.60865 1.88389C7.59885 1.88389 7.58928 1.88484 7.58005 1.88665C7.58197 1.87795 7.58298 1.86894 7.58298 1.8597C7.58298 1.78687 7.52032 1.72782 7.44302 1.72782C7.43424 1.72782 7.42566 1.72858 7.41733 1.73004C7.41615 1.65816 7.35395 1.60023 7.27739 1.60023C7.26789 1.60023 7.25861 1.60112 7.24964 1.60282C7.23819 1.54084 7.18081 1.49371 7.11175 1.49371C7.08926 1.49371 7.068 1.49871 7.04917 1.50759C7.0308 1.45494 6.9782 1.41692 6.91618 1.41692C6.8857 1.41692 6.8575 1.42611 6.83452 1.44169C6.82096 1.38222 6.76484 1.33763 6.69768 1.33763C6.65299 1.33763 6.6132 1.35736 6.58758 1.38808C6.57732 1.32476 6.51929 1.27626 6.44923 1.27626C6.40514 1.27626 6.36582 1.29546 6.34016 1.32548C6.34055 1.32152 6.34074 1.3175 6.34074 1.31344C6.34074 1.2406 6.27808 1.18155 6.20078 1.18155C6.167 1.18155 6.13601 1.19283 6.11183 1.21161C6.0869 1.1753 6.04354 1.15127 5.99423 1.15127C5.96348 1.15127 5.93504 1.16062 5.91194 1.17646C5.88898 1.13321 5.84152 1.10352 5.7867 1.10352C5.70941 1.10352 5.64674 1.16256 5.64674 1.2354C5.64674 1.30824 5.70941 1.36728 5.7867 1.36728C5.81746 1.36728 5.84589 1.35794 5.86899 1.34209C5.89196 1.38534 5.93941 1.41504 5.99423 1.41504C6.02801 1.41504 6.059 1.40376 6.08319 1.38498C6.10812 1.42129 6.15147 1.44532 6.20078 1.44532C6.24487 1.44532 6.28419 1.42611 6.30985 1.3961C6.30947 1.40006 6.30927 1.40408 6.30927 1.40814C6.30927 1.48098 6.37193 1.54002 6.44923 1.54002C6.49391 1.54002 6.5337 1.52029 6.55933 1.48958C6.5628 1.51104 6.57177 1.5308 6.58484 1.54755C6.56779 1.5694 6.55772 1.59639 6.55772 1.62559C6.55772 1.65479 6.56779 1.68178 6.58484 1.70363C6.56779 1.72548 6.55772 1.75246 6.55772 1.78166C6.55772 1.82295 6.57785 1.85981 6.60938 1.88399C6.53462 1.88671 6.4749 1.94467 6.4749 2.01578C6.4749 2.02746 6.47651 2.03878 6.47954 2.04957C6.42826 2.06914 6.39209 2.11651 6.39209 2.17185C6.39209 2.18353 6.3937 2.19486 6.39672 2.20564C6.34544 2.22521 6.30927 2.27259 6.30927 2.32793C6.30927 2.40077 6.37193 2.45981 6.44923 2.45981C6.52653 2.45981 6.58919 2.40077 6.58919 2.32793C6.58919 2.31625 6.58758 2.30493 6.58455 2.29414C6.63583 2.27457 6.672 2.22719 6.672 2.17185C6.672 2.16018 6.67039 2.14885 6.66737 2.13807C6.71865 2.1185 6.75482 2.07112 6.75482 2.01578C6.75482 1.97449 6.73468 1.93763 6.70316 1.91345C6.77792 1.91074 6.83764 1.85277 6.83764 1.78166C6.83764 1.75246 6.82756 1.72548 6.81051 1.70363C6.82154 1.68949 6.82965 1.67321 6.834 1.65558C6.85708 1.67137 6.88547 1.68069 6.91618 1.68069C6.93868 1.68069 6.95993 1.67569 6.97877 1.6668C6.99713 1.71946 7.04973 1.75747 7.11175 1.75747C7.12126 1.75747 7.13054 1.75658 7.13951 1.75488C7.15095 1.81687 7.20833 1.864 7.27739 1.864C7.28616 1.864 7.29475 1.86324 7.30308 1.86178C7.30426 1.93366 7.36646 1.99159 7.44302 1.99159C7.45282 1.99159 7.46238 1.99064 7.47161 1.98883C7.4697 1.99753 7.46869 2.00654 7.46869 2.01578C7.46869 2.02746 7.4703 2.03878 7.47333 2.04957C7.42205 2.06914 7.38588 2.11651 7.38588 2.17185C7.38588 2.18353 7.38749 2.19486 7.39051 2.20564C7.33923 2.22521 7.30306 2.27259 7.30306 2.32793C7.30306 2.36922 7.32319 2.40608 7.35472 2.43026C7.27996 2.43297 7.22024 2.49094 7.22024 2.56204ZM6.77934 1.57663C6.75636 1.59222 6.72816 1.6014 6.69768 1.6014C6.65137 1.6014 6.61031 1.58021 6.58484 1.54755C6.61031 1.5149 6.65137 1.49371 6.69768 1.49371C6.72838 1.49371 6.75678 1.50302 6.77986 1.51882C6.77748 1.52846 6.77622 1.53849 6.77622 1.54881C6.77622 1.55835 6.7773 1.56766 6.77934 1.57663ZM6.81051 1.54755C6.82756 1.5694 6.83764 1.59639 6.83764 1.62559C6.83764 1.6359 6.83638 1.64594 6.834 1.65558C6.8066 1.63681 6.7867 1.60892 6.77934 1.57663C6.79128 1.56854 6.80181 1.55871 6.81051 1.54755ZM6.81051 1.54755C6.80193 1.53655 6.79158 1.52685 6.77986 1.51882C6.78765 1.48725 6.80747 1.46004 6.83452 1.44169C6.83656 1.45066 6.83764 1.45997 6.83764 1.46951C6.83764 1.49871 6.82756 1.5257 6.81051 1.54755ZM6.58455 2.29414C6.56872 2.23768 6.51413 2.19605 6.44923 2.19605C6.43066 2.19605 6.41294 2.19945 6.39672 2.20564C6.41256 2.26211 6.46714 2.30374 6.53204 2.30374C6.55061 2.30374 6.56834 2.30033 6.58455 2.29414ZM6.66737 2.13807C6.65153 2.0816 6.59695 2.03997 6.53204 2.03997C6.51348 2.03997 6.49575 2.04338 6.47954 2.04957C6.49537 2.10603 6.54996 2.14766 6.61486 2.14766C6.63343 2.14766 6.65115 2.14426 6.66737 2.13807ZM6.70316 1.91345C6.67908 1.89497 6.64834 1.88389 6.61486 1.88389L6.60938 1.88399C6.63346 1.90247 6.6642 1.91355 6.69768 1.91355L6.70316 1.91345ZM6.81051 1.70363C6.78504 1.67097 6.74398 1.64978 6.69768 1.64978C6.65137 1.64978 6.61031 1.67097 6.58484 1.70363C6.61031 1.73628 6.65137 1.75747 6.69768 1.75747C6.74398 1.75747 6.78504 1.73628 6.81051 1.70363ZM5.86899 1.34209C5.90394 1.31811 5.92666 1.27926 5.92666 1.2354C5.92666 1.21422 5.92136 1.1942 5.91194 1.17646C5.87699 1.20044 5.85427 1.2393 5.85427 1.28316C5.85427 1.30434 5.85957 1.32436 5.86899 1.34209ZM6.08319 1.38498C6.11433 1.36079 6.13419 1.32416 6.13419 1.28316C6.13419 1.25678 6.12598 1.23222 6.11183 1.21161C6.08068 1.2358 6.06082 1.27243 6.06082 1.31344C6.06082 1.33981 6.06904 1.36437 6.08319 1.38498ZM6.34016 1.32548C6.33761 1.35209 6.32667 1.37642 6.30985 1.3961C6.3124 1.36949 6.32335 1.34516 6.34016 1.32548ZM6.55933 1.48958C6.57803 1.46715 6.58919 1.43887 6.58919 1.40814C6.58919 1.40132 6.58864 1.39462 6.58758 1.38808C6.56887 1.4105 6.55772 1.43878 6.55772 1.46951C6.55772 1.47633 6.55827 1.48303 6.55933 1.48958ZM6.97877 1.6668C7.02464 1.64516 7.05614 1.60045 7.05614 1.54881C7.05614 1.53442 7.05369 1.52056 7.04917 1.50759C7.00329 1.52924 6.9718 1.57395 6.9718 1.62559C6.9718 1.63998 6.97424 1.65384 6.97877 1.6668ZM7.13951 1.75488C7.20351 1.74275 7.25171 1.68947 7.25171 1.62559C7.25171 1.61783 7.251 1.61022 7.24964 1.60282C7.18563 1.61496 7.13743 1.66823 7.13743 1.73212C7.13743 1.73988 7.13814 1.74749 7.13951 1.75488ZM7.47161 1.98883C7.52597 1.9782 7.56877 1.93786 7.58005 1.88665C7.5257 1.89728 7.4829 1.93762 7.47161 1.98883ZM7.41733 1.73004L7.41735 1.73212C7.41735 1.79669 7.3681 1.85042 7.30308 1.86178L7.30306 1.8597C7.30306 1.79513 7.3523 1.7414 7.41733 1.73004ZM7.47333 2.04957C7.48954 2.04338 7.50726 2.03997 7.52583 2.03997C7.59074 2.03997 7.64532 2.0816 7.66116 2.13807C7.64494 2.14426 7.62722 2.14766 7.60865 2.14766C7.54375 2.14766 7.48916 2.10603 7.47333 2.04957ZM7.39051 2.20564C7.40672 2.19945 7.42445 2.19605 7.44302 2.19605C7.50792 2.19605 7.56251 2.23768 7.57834 2.29414C7.56213 2.30033 7.5444 2.30374 7.52583 2.30374C7.46093 2.30374 7.40635 2.26211 7.39051 2.20564ZM7.44302 2.45981C7.40954 2.45981 7.3788 2.44874 7.35472 2.43026L7.3602 2.43016C7.39368 2.43016 7.42442 2.44124 7.4485 2.45971L7.44302 2.45981ZM7.44302 2.35212C7.4572 2.35212 7.46869 2.34129 7.46869 2.32793C7.46869 2.31457 7.4572 2.30374 7.44302 2.30374C7.42884 2.30374 7.41735 2.31457 7.41735 2.32793C7.41735 2.34129 7.42884 2.35212 7.44302 2.35212ZM7.52583 2.19605C7.54001 2.19605 7.55151 2.18522 7.55151 2.17185C7.55151 2.15849 7.54001 2.14766 7.52583 2.14766C7.51166 2.14766 7.50016 2.15849 7.50016 2.17185C7.50016 2.18522 7.51166 2.19605 7.52583 2.19605ZM7.60865 2.03997C7.62283 2.03997 7.63432 2.02914 7.63432 2.01578C7.63432 2.00242 7.62283 1.99159 7.60865 1.99159C7.59447 1.99159 7.58298 2.00242 7.58298 2.01578C7.58298 2.02914 7.59447 2.03997 7.60865 2.03997ZM7.44302 1.88389C7.4572 1.88389 7.46869 1.87306 7.46869 1.8597C7.46869 1.84634 7.4572 1.83551 7.44302 1.83551C7.42884 1.83551 7.41735 1.84634 7.41735 1.8597C7.41735 1.87306 7.42884 1.88389 7.44302 1.88389ZM7.27739 1.75631C7.29157 1.75631 7.30306 1.74548 7.30306 1.73212C7.30306 1.71876 7.29157 1.70792 7.27739 1.70792C7.26321 1.70792 7.25171 1.71876 7.25171 1.73212C7.25171 1.74548 7.26321 1.75631 7.27739 1.75631ZM7.11176 1.64978C7.12593 1.64978 7.13743 1.63895 7.13743 1.62559C7.13743 1.61223 7.12593 1.6014 7.11176 1.6014C7.09758 1.6014 7.08608 1.61223 7.08608 1.62559C7.08608 1.63895 7.09758 1.64978 7.11176 1.64978ZM6.91618 1.573C6.93036 1.573 6.94185 1.56217 6.94185 1.54881C6.94185 1.53545 6.93036 1.52462 6.91618 1.52462C6.902 1.52462 6.89051 1.53545 6.89051 1.54881C6.89051 1.56217 6.902 1.573 6.91618 1.573ZM6.69768 1.49371C6.71186 1.49371 6.72335 1.48287 6.72335 1.46951C6.72335 1.45615 6.71186 1.44532 6.69768 1.44532C6.6835 1.44532 6.672 1.45615 6.672 1.46951C6.672 1.48287 6.6835 1.49371 6.69768 1.49371ZM6.44923 1.43233C6.46341 1.43233 6.4749 1.4215 6.4749 1.40814C6.4749 1.39478 6.46341 1.38395 6.44923 1.38395C6.43505 1.38395 6.42356 1.39478 6.42356 1.40814C6.42356 1.4215 6.43505 1.43233 6.44923 1.43233ZM6.20078 1.33763C6.21496 1.33763 6.22645 1.3268 6.22645 1.31344C6.22645 1.30008 6.21496 1.28925 6.20078 1.28925C6.1866 1.28925 6.17511 1.30008 6.17511 1.31344C6.17511 1.3268 6.1866 1.33763 6.20078 1.33763ZM5.99423 1.30735C6.00841 1.30735 6.0199 1.29652 6.0199 1.28316C6.0199 1.26979 6.00841 1.25896 5.99423 1.25896C5.98005 1.25896 5.96856 1.26979 5.96856 1.28316C5.96856 1.29652 5.98005 1.30735 5.99423 1.30735ZM5.7867 1.25959C5.80088 1.25959 5.81238 1.24876 5.81238 1.2354C5.81238 1.22204 5.80088 1.21121 5.7867 1.21121C5.77252 1.21121 5.76103 1.22204 5.76103 1.2354C5.76103 1.24876 5.77252 1.25959 5.7867 1.25959ZM6.69768 1.64978C6.71186 1.64978 6.72335 1.63895 6.72335 1.62559C6.72335 1.61223 6.71186 1.6014 6.69768 1.6014C6.6835 1.6014 6.672 1.61223 6.672 1.62559C6.672 1.63895 6.6835 1.64978 6.69768 1.64978ZM6.69768 1.80586C6.71186 1.80586 6.72335 1.79503 6.72335 1.78167C6.72335 1.7683 6.71186 1.75747 6.69768 1.75747C6.6835 1.75747 6.672 1.7683 6.672 1.78167C6.672 1.79503 6.6835 1.80586 6.69768 1.80586ZM6.61486 2.03997C6.62904 2.03997 6.64053 2.02914 6.64053 2.01578C6.64053 2.00242 6.62904 1.99159 6.61486 1.99159C6.60068 1.99159 6.58919 2.00242 6.58919 2.01578C6.58919 2.02914 6.60068 2.03997 6.61486 2.03997ZM6.53204 2.19605C6.54622 2.19605 6.55772 2.18522 6.55772 2.17185C6.55772 2.15849 6.54622 2.14766 6.53204 2.14766C6.51787 2.14766 6.50637 2.15849 6.50637 2.17185C6.50637 2.18522 6.51787 2.19605 6.53204 2.19605ZM6.44923 2.35212C6.46341 2.35212 6.4749 2.34129 6.4749 2.32793C6.4749 2.31457 6.46341 2.30374 6.44923 2.30374C6.43505 2.30374 6.42356 2.31457 6.42356 2.32793C6.42356 2.34129 6.43505 2.35212 6.44923 2.35212Z" fill="white"/>
<path fill-rule="evenodd" clip-rule="evenodd" d="M5.11035 0.460513L4.89147 0.466885L4.88695 0.808181L4.48306 0.813453L4.4849 1.02059L4.88421 1.01538L4.87907 1.40438L5.09795 1.398L5.10305 1.01252L5.50039 1.00734L5.49855 0.800198L5.10579 0.805325L5.11035 0.460513Z" fill="#F6C540"/>
<path fill-rule="evenodd" clip-rule="evenodd" d="M2.01984 4.00293H7.96269V8.75941C7.96269 8.75941 7.78298 11.1287 4.99127 11.1287C2.19955 11.1287 2.01984 8.75941 2.01984 8.75941V4.00293Z" fill="#C51918"/>
<path fill-rule="evenodd" clip-rule="evenodd" d="M3.81347 4.16748C3.75897 4.16748 3.67509 4.20436 3.56389 4.24612C3.4527 4.28788 3.33592 4.37805 3.44991 4.46836C3.56389 4.55867 3.72707 4.75688 3.72707 4.68277C3.72707 4.60866 3.922 4.53681 3.922 4.57274C3.922 4.60866 3.86165 4.68277 4.01995 4.68277C4.17825 4.68277 4.25981 4.72685 4.0909 4.72685C3.922 4.72685 3.90364 4.79965 3.79387 4.79965C3.6841 4.79965 3.44991 4.7263 3.44991 4.68277C3.44991 4.63925 3.58553 4.89675 3.72707 4.89675C3.86861 4.89675 3.949 5.02204 4.01995 4.95939C4.0909 4.89675 4.08251 4.89675 4.19713 4.89675C4.31176 4.89675 4.26992 4.64375 4.26992 4.64375C4.26992 4.64375 3.86796 4.16748 3.81347 4.16748Z" fill="#E8AA00"/>
<path fill-rule="evenodd" clip-rule="evenodd" d="M6.10688 4.16748C6.16138 4.16748 6.24526 4.20436 6.35646 4.24612C6.46765 4.28788 6.58442 4.37805 6.47044 4.46836C6.35646 4.55867 6.19328 4.75688 6.19328 4.68277C6.19328 4.60866 5.99835 4.53681 5.99835 4.57274C5.99835 4.60866 6.0587 4.68277 5.9004 4.68277C5.7421 4.68277 5.66054 4.72685 5.82945 4.72685C5.99835 4.72685 6.01671 4.79965 6.12648 4.79965C6.23625 4.79965 6.47044 4.7263 6.47044 4.68277C6.47044 4.63925 6.33482 4.89675 6.19328 4.89675C6.05174 4.89675 5.97135 5.02204 5.9004 4.95939C5.82945 4.89675 5.83784 4.89675 5.72322 4.89675C5.60859 4.89675 5.65042 4.64375 5.65042 4.64375C5.65042 4.64375 6.05239 4.16748 6.10688 4.16748Z" fill="#E8AA00"/>
<path fill-rule="evenodd" clip-rule="evenodd" d="M6.83535 4.68453C6.94927 4.93487 6.07617 5.86484 6.07617 5.86484H5.97841C5.93733 5.86484 5.86092 5.76959 5.76866 5.65457C5.70543 5.57575 5.63475 5.48764 5.5629 5.41456C5.42773 5.27707 5.49937 5.16157 5.56615 5.0539C5.58666 5.02082 5.60672 4.98849 5.62018 4.95648C5.64934 4.88714 5.65349 4.85948 5.65823 4.82787C5.6628 4.79739 5.66792 4.76325 5.69656 4.68453C5.73864 4.56884 5.88534 4.41957 5.98706 4.31607C6.02634 4.27611 6.05892 4.24297 6.07617 4.22122C6.13063 4.15256 6.08931 4.15296 5.97562 4.15405C5.96002 4.15421 5.94306 4.15437 5.9248 4.15437C5.77343 4.15437 5.48428 4.22122 5.39785 4.29929C5.31142 4.37737 5.22079 4.39402 5.08762 4.39402C4.95445 4.39402 5.03659 4.47853 5.15787 4.5356C5.02729 4.55912 4.94357 4.76424 4.89439 4.94636C4.86756 4.76424 4.80836 4.55912 4.67778 4.5356C4.79906 4.47853 4.8812 4.39402 4.74803 4.39402C4.61486 4.39402 4.52423 4.37737 4.4378 4.29929C4.35137 4.22122 4.06222 4.15437 3.91085 4.15437C3.89259 4.15437 3.87563 4.15421 3.86003 4.15405C3.74634 4.15296 3.70502 4.15256 3.75948 4.22122C3.77674 4.24297 3.80931 4.27611 3.84859 4.31607C3.95031 4.41957 4.09702 4.56884 4.13909 4.68453C4.16773 4.76325 4.17285 4.79739 4.17742 4.82787C4.18216 4.85948 4.18631 4.88714 4.21547 4.95648C4.22893 4.98849 4.24899 5.02082 4.2695 5.0539C4.33628 5.16157 4.40792 5.27707 4.27275 5.41456C4.2009 5.48764 4.13023 5.57575 4.06699 5.65457C3.97473 5.76959 3.89833 5.86484 3.85724 5.86484H3.75948C3.75948 5.86484 2.88638 4.93487 3.0003 4.68453C3.04434 4.58776 3.11536 4.49659 3.17414 4.42113C3.26742 4.30137 3.32985 4.22122 3.20455 4.22122C3.0003 4.22122 2.1861 4.70771 2.1861 5.80468C2.1861 6.90165 2.26131 7.52554 2.43589 7.96262C2.55502 8.26089 2.4459 8.55056 2.36457 8.76645C2.32672 8.86691 2.29489 8.9514 2.29489 9.01334C2.29489 9.20836 2.61547 9.03748 2.61547 8.91535C2.61547 8.85726 2.65936 8.94376 2.7054 9.03448C2.75616 9.13451 2.80953 9.23967 2.80953 9.16181C2.80953 9.07874 2.86064 8.991 2.90566 8.91371C2.94111 8.85285 2.97279 8.79847 2.97279 8.75793C2.97279 8.71739 3.01776 8.71889 3.06808 8.72057C3.132 8.72271 3.20455 8.72513 3.20455 8.64206C3.20455 8.58601 3.22764 8.57482 3.25638 8.56088C3.30377 8.5379 3.36655 8.50746 3.36655 8.25612C3.36655 8.06983 3.40613 8.13583 3.45153 8.21154C3.49331 8.28121 3.54003 8.35911 3.56536 8.25612C3.56782 8.24608 3.59405 8.20289 3.62647 8.1495C3.67366 8.07179 3.73397 7.97247 3.75326 7.9223C3.69379 8.14171 3.5511 8.37034 3.46049 8.47925C3.36655 8.59217 3.20455 8.83732 3.20455 8.83732C3.20455 8.83732 3.35563 8.9167 3.46049 8.83732C3.51906 8.79297 3.52302 8.83469 3.52733 8.88017C3.53073 8.91611 3.53436 8.9544 3.56536 8.9544C3.58482 8.9544 3.60314 8.95739 3.61946 8.96006C3.63153 8.96204 3.6425 8.96383 3.65203 8.9641C3.61703 9.04812 3.58563 9.18248 3.69094 9.09271C3.76615 9.0286 3.81889 9.00258 3.85383 8.98534C3.89426 8.96539 3.91085 8.95721 3.91085 8.91535C3.91085 8.87357 3.92728 8.88772 3.95301 8.90989C3.97535 8.92912 4.00469 8.9544 4.03639 8.9544C4.07723 8.9544 4.08574 8.9008 4.09811 8.82285C4.1064 8.77059 4.11643 8.70739 4.13909 8.64206C4.14437 8.62684 4.14934 8.6122 4.15404 8.59833C4.19964 8.46384 4.22091 8.40112 4.27275 8.57077C4.29698 8.65006 4.33978 8.7062 4.37704 8.75508C4.42775 8.82159 4.46822 8.87468 4.4378 8.9544C4.42589 8.98561 4.41095 9.02087 4.39496 9.05863C4.34007 9.18819 4.27275 9.34711 4.27275 9.47223C4.27275 9.54662 4.20089 9.64801 4.13335 9.7433C4.05419 9.85499 3.98097 9.9583 4.03639 9.99992C4.13909 10.077 4.01481 10.3367 3.91085 10.47C3.80689 10.6032 4.67778 10.9089 4.82986 10.9089C4.83202 10.9089 4.83413 10.9078 4.83621 10.9055V10.9089C4.83621 10.9089 5.9248 10.8592 5.9248 10.47C5.82084 10.3367 5.69656 10.077 5.79926 9.99992C5.85469 9.9583 5.78146 9.85499 5.7023 9.7433C5.63476 9.64801 5.5629 9.54662 5.5629 9.47223C5.5629 9.34711 5.49558 9.18819 5.44069 9.05863C5.4247 9.02087 5.40976 8.98561 5.39785 8.9544C5.36743 8.87468 5.40791 8.82159 5.45861 8.75508C5.49587 8.7062 5.53867 8.65006 5.5629 8.57077C5.61474 8.40112 5.63601 8.46384 5.68161 8.59833C5.68631 8.6122 5.69128 8.62684 5.69656 8.64206C5.71923 8.70739 5.72925 8.77059 5.73754 8.82285C5.74991 8.9008 5.75842 8.9544 5.79926 8.9544C5.83096 8.9544 5.8603 8.92912 5.88264 8.90989C5.90837 8.88772 5.9248 8.87357 5.9248 8.91535C5.9248 8.95721 5.94139 8.96539 5.98183 8.98534C6.01676 9.00258 6.0695 9.0286 6.14471 9.09271C6.25003 9.18248 6.21863 9.04812 6.18362 8.9641C6.19315 8.96383 6.20412 8.96204 6.21619 8.96006C6.23251 8.95739 6.25084 8.9544 6.2703 8.9544C6.30129 8.9544 6.30492 8.91611 6.30832 8.88017C6.31263 8.83469 6.31659 8.79297 6.37516 8.83732C6.48002 8.9167 6.6311 8.83732 6.6311 8.83732C6.6311 8.83732 6.4691 8.59217 6.37516 8.47925C6.28455 8.37034 6.14186 8.14171 6.08239 7.9223C6.10168 7.97247 6.16199 8.07179 6.20918 8.1495C6.2416 8.20289 6.26783 8.24608 6.2703 8.25612C6.29562 8.35911 6.34234 8.28121 6.38412 8.21154C6.42952 8.13583 6.4691 8.06983 6.4691 8.25612C6.4691 8.50746 6.53188 8.5379 6.57927 8.56088C6.60801 8.57482 6.6311 8.58601 6.6311 8.64206C6.6311 8.72513 6.70365 8.72271 6.76757 8.72057C6.81789 8.71889 6.86286 8.71739 6.86286 8.75793C6.86286 8.79847 6.89454 8.85285 6.92999 8.91371C6.97501 8.991 7.02612 9.07874 7.02612 9.16181C7.02612 9.23967 7.07949 9.13451 7.13025 9.03448C7.17629 8.94376 7.22018 8.85726 7.22018 8.91535C7.22018 9.03748 7.54076 9.20836 7.54076 9.01334C7.54076 8.9514 7.50893 8.86691 7.47108 8.76645C7.38975 8.55056 7.28063 8.26089 7.39976 7.96262C7.57435 7.52554 7.64955 6.90165 7.64955 5.80468C7.64955 4.70771 6.83535 4.22122 6.6311 4.22122C6.5058 4.22122 6.56823 4.30137 6.66152 4.42113C6.72029 4.49659 6.79131 4.58776 6.83535 4.68453ZM6.07617 7.89811C6.07813 7.90616 6.0802 7.91422 6.08239 7.9223C6.0784 7.91193 6.07617 7.90365 6.07617 7.89811ZM6.14471 8.91535C6.14471 8.88796 6.16469 8.91867 6.18362 8.9641C6.15955 8.96478 6.14471 8.95575 6.14471 8.91535ZM3.65203 8.9641C3.6761 8.96478 3.69094 8.95575 3.69094 8.91535C3.69094 8.88796 3.67096 8.91867 3.65203 8.9641ZM3.75326 7.9223C3.75725 7.91193 3.75948 7.90365 3.75948 7.89811C3.75752 7.90616 3.75545 7.91422 3.75326 7.9223Z" fill="#F7FCFF"/>
<path fill-rule="evenodd" clip-rule="evenodd" d="M3.88397 5.94141H6.09855V7.59076C6.09855 7.59076 5.86081 8.41234 4.99126 8.41234C4.12171 8.41234 3.88397 7.59076 3.88397 7.59076V5.94141Z" fill="#C51918"/>
<path fill-rule="evenodd" clip-rule="evenodd" d="M5.28983 5.91748H4.71012V6.86434H3.88196V7.2025H4.71012V8.4199H5.28983V7.2025H6.11798V6.86434H5.28983V5.91748Z" fill="#F7FCFF"/>
<path fill-rule="evenodd" clip-rule="evenodd" d="M3.43681 9.66355C3.70597 9.35392 3.95823 9.07855 3.73379 8.88345C3.50936 8.68835 3.24141 8.85748 2.97224 9.16711C2.70308 9.47674 2.53464 9.80963 2.75908 10.0047C2.98352 10.1998 3.16765 9.97319 3.43681 9.66355Z" fill="#E8AA00"/>
<path fill-rule="evenodd" clip-rule="evenodd" d="M6.36788 9.66355C6.09872 9.35392 5.84645 9.07855 6.07089 8.88345C6.29533 8.68835 6.56328 8.85748 6.83244 9.16711C7.1016 9.47674 7.27005 9.80963 7.04561 10.0047C6.82117 10.1998 6.63704 9.97319 6.36788 9.66355Z" fill="#E8AA00"/>
</g>
</g>
</svg>
