<svg width="32" height="24" viewBox="0 0 32 24" fill="none" xmlns="http://www.w3.org/2000/svg">
<mask id="mask0" mask-type="alpha" maskUnits="userSpaceOnUse" x="0" y="0" width="32" height="24">
<rect width="32" height="24" fill="white"/>
</mask>
<g mask="url(#mask0)">
<path fill-rule="evenodd" clip-rule="evenodd" d="M0 0H32V24H0V0Z" fill="#F7FCFF"/>
<path d="M0 -1H-1V0V11.307L-2.848 12L-1 12.693V24V25H0H32L32.3511 23.0637L2.848 12L32.3511 0.936329L32 -1H0Z" fill="#3547A0" stroke="#E31D1C" stroke-width="2"/>
<path fill-rule="evenodd" clip-rule="evenodd" d="M29.0224 5.11005C29.0224 5.11005 27.0121 5.65251 26.2852 5.8497C26.1871 5.8763 26 5.92388 26.0134 5.65688C25.5528 5.95249 24.8104 6.25127 24.5061 6.33606C24.3529 6.37872 24.3938 6.11372 24.3284 6.03787C24.1959 6.23324 23.8553 6.51947 23.7586 6.54743C22.8004 6.82472 22.1641 7.02628 21.8499 7.15212C21.8499 7.15212 21.4008 7.58406 21.4008 7.92651C21.4008 8.26897 21.3529 8.56145 21.0438 8.56145C20.7347 8.56145 20.0217 9.1835 20.2829 9.53403C20.544 9.88456 21.4008 9.6979 21.4008 9.53403C21.4008 9.37015 22.0115 9.16514 22.0115 9.34958C22.0115 9.53403 21.8499 9.86764 21.8499 9.86764H22.5242L22.0115 10.1328H22.5242L22.0115 10.4469H22.9714L22.3579 10.7206H22.7835L22.5242 11.0807H23.1891C23.1891 11.0807 23.4479 11.3424 23.6918 11.4854C23.9357 11.6285 24.4764 12.8457 24.206 13.317C23.9357 13.7883 24.2674 13.8584 24.3284 13.6514C24.3895 13.4443 24.5159 13.1476 24.6244 13.1476C24.7329 13.1476 24.9412 13.1476 24.9412 13.1476L25.0884 13.5348L25.4377 13.9081C25.4377 13.9081 25.4625 13.5836 25.5281 13.5348C25.5281 13.5348 25.8008 13.5626 25.933 13.5305C25.933 13.5305 25.8743 13.0586 25.879 12.9952C25.879 12.9952 26.3018 13.1387 26.4829 13.1354C26.4829 13.1354 26.2108 12.71 26.2108 12.5647C26.2108 12.5647 26.7162 12.5904 26.7162 12.8054L26.6602 12.2689C26.6602 12.2689 27.1387 12.0654 27.1554 11.8941L26.8419 11.8558C26.8419 11.8558 27.0047 11.6491 26.9896 11.6083L26.5264 11.5495C26.5264 11.5495 27.0325 11.3734 27.0707 11.2621C27.0707 11.2621 26.9571 11.0836 26.853 11.0135L26.4995 10.7845C26.4995 10.7845 27.2901 10.7896 27.4224 10.7896C27.4224 10.7896 27.629 10.7153 27.47 10.5882C27.47 10.5882 27.3143 10.4947 27.3356 10.4043C27.3356 10.4043 27.4414 10.201 27.4172 10.1656C27.4172 10.1656 27.5301 10.3153 27.5301 9.94545C27.5301 9.94545 27.533 9.5737 27.4618 9.55582C27.4618 9.55582 27.6699 9.40276 27.5881 9.30507C27.5062 9.20737 26.6301 8.94732 26.4205 8.94732L28.0257 7.92989C28.0257 7.92989 28.1369 7.50966 28.2998 7.25848C28.2998 7.25848 28.7264 6.87555 28.8123 6.57549C28.8983 6.27543 29.1404 5.53536 29.1404 5.53536V5.19668L29.0224 5.11005Z" fill="#9C3900"/>
<path fill-rule="evenodd" clip-rule="evenodd" d="M26.2108 12.5647C26.2316 12.5658 26.2518 12.5671 26.2756 12.569C26.5425 12.5906 26.6881 12.6576 26.7125 12.7701L26.7241 12.8701C26.7241 12.8354 26.7203 12.8021 26.7125 12.7701L26.6602 12.2689C26.9792 12.1332 27.1442 12.0083 27.1554 11.8941L26.9164 11.8649L26.893 11.8948L26.8785 11.8602L26.8419 11.8558L26.8644 11.8269L26.8499 11.7926L26.887 11.7971C26.964 11.6943 26.9981 11.6314 26.9896 11.6083L26.6657 11.5672C26.6287 11.581 26.5895 11.5951 26.548 11.6095C26.548 11.6095 26.5362 11.5461 26.541 11.5445L26.5347 11.4864L26.6576 11.502C26.9111 11.406 27.0487 11.326 27.0707 11.2621C26.995 11.1431 26.9224 11.0603 26.853 11.0135L26.5988 10.8488L26.4991 10.8481C26.4991 10.8481 26.5123 10.7845 26.5187 10.7846L26.5351 10.7313L26.6183 10.7852C27.073 10.7881 27.3411 10.7896 27.4224 10.7896C27.5602 10.7401 27.576 10.673 27.47 10.5882C27.3662 10.5259 27.3214 10.4646 27.3356 10.4043C27.3697 10.3388 27.3936 10.2864 27.4075 10.2471C27.3927 10.2357 27.3784 10.221 27.3652 10.2036L27.4172 10.1656L27.4708 10.1301C27.4846 10.1501 27.4893 10.1743 27.4854 10.2052C27.5152 10.1872 27.5301 10.1006 27.5301 9.94545C27.5314 9.77978 27.5216 9.66682 27.5005 9.60681L27.4618 9.55582L27.4778 9.49414C27.4921 9.49772 27.5047 9.50386 27.5159 9.5127C27.6107 9.42999 27.6347 9.36077 27.5881 9.30507C27.5161 9.21918 26.8303 9.00782 26.5231 8.95798L26.4555 9.00084C26.4555 9.00084 26.4264 8.94732 26.4365 8.93718L26.4205 8.88366C26.4439 8.88366 26.4739 8.88634 26.5089 8.89127L28.0257 7.92989C28.0998 7.64974 28.1912 7.42593 28.2998 7.25848C28.5842 7.00319 28.755 6.77553 28.8123 6.57549C28.8696 6.37545 28.979 6.02874 29.1404 5.53536V5.19668L29.0224 5.11005C27.6822 5.47169 26.7698 5.71824 26.2852 5.8497C26.1871 5.8763 26 5.92388 26.0134 5.65688C25.5528 5.95249 24.8104 6.25127 24.5061 6.33606C24.4081 6.36335 24.3895 6.26473 24.3718 6.17027C24.3618 6.11707 24.352 6.06519 24.3284 6.03787C24.1959 6.23324 23.8553 6.51947 23.7586 6.54743C22.8004 6.82472 22.1641 7.02628 21.8499 7.15212C21.5505 7.44008 21.4008 7.69821 21.4008 7.92651C21.4008 8.26897 21.3529 8.56145 21.0438 8.56145C20.7347 8.56145 20.0217 9.1835 20.2829 9.53403C20.544 9.88456 21.4008 9.6979 21.4008 9.53403C21.4008 9.37015 22.0115 9.16514 22.0115 9.34958C22.0115 9.47255 21.9576 9.64523 21.8499 9.86764H22.3851L22.4941 9.81129L22.51 9.87495L22.5242 9.9313H22.4011L22.0115 10.1328H22.4018L22.49 10.0788L22.5085 10.1424L22.5242 10.1965H22.4203L22.0115 10.4469H22.8147L22.9447 10.3889L22.9587 10.4526L22.9714 10.5106H22.8287L22.3579 10.7206H22.7042L22.7307 10.6838L22.75 10.7206H22.7835L22.7641 10.7474L22.7835 10.7842H22.7376L22.5242 11.0807H23.1891C23.3616 11.2552 23.5292 11.3901 23.6918 11.4854C23.9357 11.6285 24.4764 12.8457 24.206 13.317C23.9357 13.7883 24.2674 13.8584 24.3284 13.6514C24.3895 13.4443 24.5159 13.1476 24.6244 13.1476H24.9412L25.0884 13.5348L25.4377 13.9081C25.4377 13.9081 25.4625 13.5836 25.5281 13.5348C25.7099 13.5533 25.8449 13.5519 25.933 13.5305C25.9303 13.5082 25.9276 13.4865 25.925 13.4656C25.9014 13.2743 25.8847 13.1395 25.8579 13.0554L25.879 12.9952C25.879 12.9952 25.9432 13.0093 25.9434 13.0166C26.1917 13.0978 26.3715 13.1374 26.4829 13.1354C26.3355 12.9049 26.248 12.7361 26.2178 12.6186C26.2131 12.5982 26.2108 12.5803 26.2108 12.5647ZM26.5049 11.4895L26.2491 11.5785L26.9026 11.6615C26.8794 11.6997 26.8421 11.7516 26.7908 11.8168L26.7212 11.9051L27.0644 11.9471C27.0086 12.0211 26.8659 12.1121 26.6346 12.2105L26.5911 12.229L26.6282 12.585C26.5326 12.5375 26.3935 12.5103 26.2141 12.5011L26.1461 12.4977V12.5647C26.1461 12.6638 26.2174 12.8259 26.3605 13.061C26.2474 13.0425 26.0934 13.0006 25.9 12.935L25.8205 12.908L25.8144 12.9906C25.8111 13.0362 25.8266 13.1941 25.8614 13.4784C25.7825 13.4877 25.6732 13.4856 25.5347 13.4715L25.489 13.484C25.4434 13.518 25.4191 13.5911 25.3983 13.7073C25.395 13.7253 25.3921 13.7437 25.3893 13.7624L25.1445 13.5008L24.9861 13.0839H24.6244C24.4849 13.0839 24.3569 13.3265 24.2663 13.6336C24.2493 13.6914 24.2068 13.7096 24.1864 13.6914C24.1457 13.6552 24.1561 13.5335 24.2624 13.3483C24.3966 13.1143 24.3603 12.7122 24.203 12.2576C24.068 11.8675 23.8661 11.5136 23.7249 11.4308C23.5675 11.3385 23.4043 11.207 23.2355 11.0363L23.2164 11.017H22.6493L22.9086 10.6569H22.6573L23.2708 10.3833H22.2378L22.7505 10.0692H22.2736L22.7863 9.80398H21.9506C22.0341 9.61658 22.0762 9.46582 22.0762 9.34958C22.0762 9.26585 22.0118 9.22067 21.9208 9.21406C21.8559 9.20935 21.7727 9.22303 21.6862 9.25063C21.4905 9.31304 21.3361 9.41922 21.3361 9.53403C21.3361 9.5388 21.3028 9.56674 21.2377 9.59381C21.1573 9.62721 21.0476 9.65278 20.9336 9.66356C20.6652 9.68893 20.4358 9.63164 20.335 9.49639C20.2397 9.36847 20.3051 9.16707 20.4973 8.95912C20.6727 8.76944 20.913 8.62511 21.0438 8.62511C21.216 8.62511 21.3333 8.54494 21.3976 8.39753C21.4473 8.28369 21.4655 8.13662 21.4655 7.92651C21.4655 7.72092 21.604 7.47992 21.886 7.20639C22.2017 7.0813 22.8326 6.88176 23.7769 6.60851C23.881 6.5784 24.1469 6.35551 24.3099 6.191C24.3235 6.26319 24.3337 6.29969 24.3554 6.33496C24.3913 6.39318 24.4512 6.41751 24.5237 6.39731C24.8831 6.2972 25.5375 6.01673 25.9562 5.7673C25.9736 5.84897 26.0182 5.90201 26.0877 5.92399C26.151 5.94402 26.2082 5.93661 26.3024 5.91107C26.7833 5.78062 27.6855 5.53682 29.009 5.17966L29.0757 5.22861V5.52537C28.9158 6.01439 28.8073 6.35851 28.7501 6.55822C28.6967 6.74465 28.5325 6.96344 28.2453 7.22423C28.1358 7.39301 28.0441 7.61479 27.9695 7.88976L26.2006 9.01098H26.4205C26.6206 9.01098 27.474 9.26894 27.5381 9.34556C27.5608 9.3726 27.5361 9.42172 27.4231 9.50483L27.3147 9.58455L27.4346 9.61476C27.4403 9.62626 27.446 9.64594 27.4507 9.67299C27.4613 9.73348 27.4663 9.82451 27.4654 9.94496C27.4654 10.0405 27.4593 10.1074 27.4499 10.1411C27.4499 10.1411 27.3599 10.1882 27.3569 10.1875L27.3569 10.1871L27.3568 10.1874C27.3559 10.195 27.3529 10.207 27.3476 10.2227C27.3352 10.2589 27.3119 10.3101 27.2725 10.39C27.2506 10.4831 27.3102 10.5658 27.4325 10.6403C27.4918 10.688 27.4914 10.6964 27.4109 10.7259C27.3097 10.7258 27.0059 10.7241 26.5 10.7208L26.2815 10.7194L26.8175 11.0667C26.8711 11.1029 26.9306 11.1681 26.9937 11.262C26.9744 11.2804 26.9381 11.3054 26.8849 11.3335C26.7976 11.3796 26.6707 11.4318 26.5049 11.4895ZM27.3569 10.1875L27.3571 10.1896L27.3568 10.1879L27.3568 10.1874L27.3569 10.1875Z" fill="#212121"/>
<path fill-rule="evenodd" clip-rule="evenodd" d="M27.4067 10.7921C27.4067 10.7921 29.3153 11.0461 29.4307 11.0461C29.5461 11.0461 30.0265 10.9239 29.862 10.1552C29.6975 9.38638 29.7645 8.92133 29.2935 8.92133C28.8226 8.92133 28.3315 9.12592 28.1547 9.12592C27.978 9.12592 28.149 9.12592 27.4067 9.12592C26.6644 9.12592 22.2428 9.10039 21.9244 9.45504C21.606 9.80968 20.7105 10.3099 20.2957 10.4863C19.881 10.6628 19.7746 10.5395 19.5881 11.0461C19.4017 11.5528 19.2629 11.588 19.2629 11.588L19.5881 11.9507H20.5547C20.5547 11.9507 21.2202 11.1157 22.6017 11.0461C23.9833 10.9765 27.4067 10.7921 27.4067 10.7921Z" fill="white"/>
<path fill-rule="evenodd" clip-rule="evenodd" d="M22.6017 11.0461C23.5228 10.9997 25.1244 10.915 27.4067 10.7921C28.6791 10.9614 29.3537 11.0461 29.4307 11.0461C29.5461 11.0461 30.0265 10.9239 29.862 10.1552C29.8241 9.97806 29.7985 9.81708 29.7758 9.67419C29.6998 9.19679 29.656 8.92133 29.2935 8.92133C29.0015 8.92133 28.7017 9.00001 28.4739 9.05978C28.3344 9.0964 28.2219 9.12592 28.1547 9.12592H27.4067C27.3685 9.12592 27.3205 9.12585 27.2638 9.12577C26.2197 9.1243 22.2264 9.11866 21.9244 9.45504C21.606 9.80968 20.7105 10.3099 20.2957 10.4863C20.1898 10.5314 20.1039 10.5569 20.0317 10.5784C19.8214 10.6409 19.727 10.6689 19.5881 11.0461C19.4638 11.3839 19.3554 11.5645 19.2629 11.588L19.5881 11.9507H20.5547C20.9983 11.3941 21.6807 11.0925 22.6017 11.0461ZM20.5081 11.8552H19.6319L19.4074 11.6048C19.4978 11.5118 19.5839 11.3382 19.6794 11.0786C19.7159 10.9796 19.7487 10.9067 19.7805 10.8531C19.8385 10.7554 19.8843 10.7239 20.007 10.6857C20.0096 10.6849 20.0193 10.682 20.0326 10.678C20.0663 10.6679 20.1232 10.6508 20.1475 10.643C20.2118 10.6225 20.2712 10.6008 20.3343 10.574C20.8799 10.3418 21.7097 9.83836 21.9971 9.51826C22.051 9.45823 22.3806 9.3901 22.8983 9.34145C23.3659 9.29751 23.9812 9.26672 24.7118 9.24713C25.5258 9.22531 26.2786 9.21992 27.2247 9.22121C27.2199 9.2212 27.3052 9.22132 27.3258 9.22135L27.4067 9.22141H28.1547C28.2055 9.22141 28.2684 9.21015 28.3645 9.18661C28.3884 9.18076 28.4562 9.16315 28.5195 9.1467C28.5699 9.13361 28.6175 9.12125 28.6378 9.11615C28.8641 9.05934 29.0413 9.02728 29.213 9.01884C29.2404 9.0175 29.2672 9.01682 29.2935 9.01682C29.5206 9.01682 29.5866 9.12348 29.6597 9.56353C29.6623 9.57923 29.6693 9.62314 29.6773 9.67255C29.6877 9.73775 29.6997 9.81255 29.7051 9.84483C29.7252 9.96543 29.7446 10.0696 29.7671 10.1748C29.8344 10.4894 29.7929 10.6988 29.6787 10.8256C29.6045 10.9081 29.4981 10.9506 29.4307 10.9506C29.3609 10.9506 28.6747 10.8645 27.4014 10.6967C25.1192 10.8197 23.5176 10.9044 22.5968 10.9508C21.6695 10.9975 20.9708 11.2985 20.5081 11.8552Z" fill="#4D4D4D"/>
<path fill-rule="evenodd" clip-rule="evenodd" d="M19.507 11.3993C19.507 11.3993 18.779 11.8662 19.0462 12.1799C19.3135 12.4937 19.3399 12.5335 19.3932 12.5335C19.3932 12.5335 19.4075 12.1975 19.4937 12.1975C19.5799 12.1975 20.2626 12.5238 20.5101 11.9723C20.7576 11.4209 19.507 11.3993 19.507 11.3993Z" fill="#FFC221"/>
<path fill-rule="evenodd" clip-rule="evenodd" d="M17.9221 12.9208L19.5976 12.6105L20.2403 13.3062L20.4257 12.6836L20.8864 12.7966V13.111H21.0564V13.5423L22.2612 13.7941L22.4124 13.3809C22.4124 13.3809 22.8047 14.0284 23.4074 13.9961C24.01 13.9639 24.1175 14.1346 24.2235 13.6562C24.3295 13.1778 24.625 12.9208 24.625 12.9208L25.3282 13.1577C25.3282 13.1577 24.5556 14.1066 24.925 14.4048L27.6788 15.0419L27.57 15.3755H27.2539L27.3392 15.6628L24.3299 15.4549C24.3299 15.4549 23.9945 15.8798 23.9945 15.7713C23.9945 15.6628 23.9763 15.6628 23.8281 15.6628C23.68 15.6628 23.6031 15.4549 23.6031 15.4549L23.4074 15.5302C23.4074 15.5302 23.4369 15.5343 23.1908 15.4549C22.9446 15.3755 22.8004 15.3755 22.8004 15.3755L21.784 15.3005V15.4549C21.784 15.4549 21.5148 15.4684 21.6082 15.5302C21.7017 15.5921 23.6031 15.6628 23.6031 15.6628L23.4873 15.8764C23.4873 15.8764 24.4273 15.8798 24.625 15.7713C24.8226 15.6628 24.6955 16.0117 24.6955 16.0117H25.6293C25.6293 16.0117 25.3977 16.2309 25.1008 16.2309C24.804 16.2309 25.953 16.5953 25.953 16.5953C25.953 16.5953 25.3116 16.7944 25.0145 16.6628C24.7175 16.5312 25.1406 16.9172 25.3282 17.0148C25.5158 17.1123 24.6683 17.1036 24.3299 16.7273C24.3299 16.7273 24.4362 17.0061 24.3299 17.0858C24.3299 17.0858 23.7369 16.3872 23.4407 16.3872C23.1446 16.3872 23.4873 16.8478 23.4873 16.8478C23.4873 16.8478 23.3181 16.607 23.1292 16.7048C22.9403 16.8026 22.8004 16.9133 22.8004 16.9133C22.8004 16.9133 22.6766 16.4866 22.0223 16.3102C21.3679 16.1338 21.5875 16.0689 21.0564 16.0117C20.5254 15.9545 20.4986 15.6628 20.4257 15.6628C20.3528 15.6628 19.7911 15.1713 19.7911 15.1713C19.7911 15.1713 19.6662 14.7103 19.959 14.7103C20.2518 14.7103 20.7163 14.5725 20.8864 14.7103C21.0564 14.8481 21.1283 14.7103 21.1283 14.7103H21.4276L21.8564 15.0419H22.7072C22.7072 15.0419 22.8703 14.79 23.1292 14.7103C23.3881 14.6306 23.1292 14.4048 23.1292 14.4048C23.1292 14.4048 22.5114 14.44 22.2612 14.5357C22.0111 14.6314 22.1714 14.0725 22.1714 14.0725L21.0564 13.87L20.8864 14.0725L20.5173 14.1835V14.4048L20.1283 14.3192L20.2403 13.6562L19.3299 14.0725L17.9221 12.9208Z" fill="#FFC221"/>
<path fill-rule="evenodd" clip-rule="evenodd" d="M23.5217 15.8128L23.6031 15.6628C22.4472 15.6198 21.7924 15.5793 21.638 15.541C21.6236 15.5374 21.6136 15.5338 21.6082 15.5302C21.5148 15.4684 21.784 15.4549 21.784 15.4549V15.3596V15.3005L21.8487 15.3053L22.8004 15.3755C22.8966 15.3755 23.0267 15.402 23.1908 15.4549C23.2605 15.4774 23.3136 15.4948 23.3502 15.5073C23.3526 15.5016 23.3566 15.4961 23.364 15.486C23.3814 15.4749 23.3885 15.4704 23.3962 15.4685C23.4014 15.4673 23.407 15.4672 23.4163 15.4672C23.4163 15.4672 23.4115 15.5308 23.4074 15.5302C23.4074 15.5302 23.5425 15.4771 23.5443 15.4775L23.6031 15.4549C23.6267 15.5187 23.6553 15.5678 23.689 15.6023L23.7024 15.6149C23.7388 15.6468 23.7808 15.6628 23.8281 15.6628C23.9763 15.6628 23.9945 15.6628 23.9945 15.7713C23.9945 15.8436 24.1063 15.7382 24.3299 15.4549L27.3392 15.6628L27.2539 15.4392L27.2675 15.4213L27.2539 15.3755H27.3024L27.316 15.3576L27.3213 15.3755H27.57L27.6788 15.0419L24.925 14.4048C24.6788 14.206 24.8131 13.7903 25.3282 13.1577L24.625 12.9208C24.428 13.0921 24.2941 13.3372 24.2235 13.6562C24.1447 14.0121 24.065 14.0088 23.7813 13.997C23.6836 13.9929 23.5617 13.9879 23.4074 13.9961C23.0056 14.0176 22.6739 13.8126 22.4124 13.3809L22.2612 13.7941L21.0564 13.5423V13.111H20.8864V12.7966L20.4257 12.6836L20.2616 13.2347L20.2881 13.2634L20.2505 13.272L20.2403 13.3062L20.2158 13.2798L20.1782 13.2883L20.1893 13.2511L19.5976 12.6105L17.9221 12.9208L19.3299 14.0725L20.1692 13.6887L20.1764 13.6458L20.2093 13.6703L20.2403 13.6562L20.2347 13.6893L20.2675 13.7139L20.2274 13.7323L20.1283 14.3192L20.5173 14.4048V14.1835L20.8864 14.0725L21.0564 13.87C21.0564 13.87 22.1086 14.0571 22.1134 14.062L22.1714 14.0725C22.1658 14.0919 22.1606 14.1108 22.1544 14.1342C22.0684 14.462 22.104 14.5959 22.2612 14.5357C22.428 14.4719 22.7173 14.4282 23.1292 14.4048C23.3018 14.5553 23.3018 14.6572 23.1292 14.7103C22.9566 14.7635 22.8159 14.874 22.7072 15.0419H21.8564L21.4276 14.7103H21.1283C21.0804 14.8022 20.9997 14.8022 20.8864 14.7103C20.772 14.6176 20.5244 14.6496 20.2854 14.6805C20.1691 14.6956 20.0549 14.7103 19.959 14.7103C19.7638 14.7103 19.7078 14.864 19.7911 15.1713C20.1655 15.499 20.3771 15.6628 20.4257 15.6628C20.446 15.6628 20.4627 15.6854 20.4878 15.7193C20.5527 15.8071 20.6734 15.9704 21.0564 16.0117C21.3442 16.0427 21.4115 16.0759 21.517 16.128C21.6061 16.1719 21.7225 16.2294 22.0223 16.3102C22.4585 16.4278 22.7179 16.6289 22.8004 16.9133C22.8004 16.9133 22.9403 16.8026 23.1292 16.7048C23.2512 16.6416 23.3671 16.6844 23.4767 16.8332C23.4975 16.8626 23.5098 16.8791 23.5098 16.8791C23.4988 16.8635 23.4878 16.8481 23.4767 16.8332C23.4214 16.7547 23.1762 16.3872 23.4407 16.3872C23.6382 16.3872 23.9346 16.6201 24.3299 17.0858C24.3833 17.0457 24.3965 16.9678 24.3693 16.8522C24.3372 16.8263 24.3077 16.7988 24.2814 16.7695C24.2814 16.7695 24.3313 16.731 24.3379 16.736L24.3904 16.7049C24.4054 16.7441 24.4175 16.7811 24.4268 16.8158C24.8055 17.1043 25.4997 17.104 25.3282 17.0148C25.2163 16.9566 25.0208 16.7959 24.9392 16.6976C24.8981 16.6462 24.8977 16.6186 24.9837 16.65C24.993 16.6535 25.0032 16.6578 25.0145 16.6628C25.2126 16.7505 25.5254 16.7281 25.953 16.5953C25.5071 16.4539 25.2245 16.3537 25.0884 16.2859C25.0198 16.2492 25.024 16.2309 25.1026 16.2309C25.101 16.2258 25.0986 16.2212 25.0952 16.2155C25.0992 16.2184 25.1054 16.2223 25.1206 16.2307C25.2589 16.2272 25.3864 16.1876 25.5032 16.1117H25.5546C25.5735 16.0891 25.5921 16.0649 25.6104 16.0391L25.6082 16.031C25.6153 16.0247 25.6223 16.0183 25.6293 16.0117H25.6032L25.6082 16.031C25.5742 16.0614 25.5392 16.0883 25.5032 16.1117H25.4404C25.4717 16.0828 25.5022 16.0494 25.532 16.0117H24.7641L24.7564 16.0332L24.741 16.0117H24.6955C24.7009 15.9968 24.7059 15.9826 24.7104 15.9689L24.7172 15.948C24.7746 15.7649 24.7439 15.706 24.625 15.7713C24.4984 15.8408 24.1436 15.8758 23.5605 15.8765L23.5443 15.9064L23.5262 15.8765L23.4873 15.8764L23.5056 15.8426L23.4875 15.8127L23.5217 15.8128ZM19.3398 13.9978L18.0692 12.9584L19.574 12.6796L20.2699 13.433L20.4703 12.7601L20.8217 12.8463V13.1747H20.9917V13.5939L22.303 13.8679L22.4287 13.5242C22.6909 13.8998 23.0197 14.0806 23.4109 14.0597C23.5285 14.0534 23.6212 14.0542 23.7577 14.0597C23.9844 14.069 24.0343 14.0662 24.1082 14.0217C24.1952 13.9694 24.2423 13.8703 24.2867 13.6697C24.3512 13.3786 24.4693 13.1537 24.6404 12.9933L25.2208 13.1888C24.7321 13.808 24.608 14.2312 24.8956 14.4634L27.5958 15.0881L27.5228 15.3118H27.1676L27.2511 15.5929L24.2999 15.389L24.2788 15.4158C24.1797 15.5414 24.1031 15.6312 24.0502 15.6843C24.0299 15.6135 23.9707 15.5991 23.8281 15.5991C23.7609 15.5991 23.7068 15.5491 23.6639 15.4331L23.6413 15.3719C23.6413 15.3719 23.3974 15.4561 23.3896 15.4534C23.3529 15.4406 23.2934 15.421 23.2109 15.3944C23.0423 15.34 22.9068 15.3123 22.8029 15.3118L21.7193 15.2319V15.3964C21.7046 15.398 21.6901 15.3999 21.6762 15.402C21.6298 15.4092 21.5946 15.4185 21.5692 15.4335C21.5064 15.4705 21.5099 15.5419 21.5721 15.5831C21.6492 15.6341 22.25 15.6752 23.4974 15.7225L23.3796 15.9397L23.487 15.9401C24.1268 15.9424 24.5107 15.9069 24.6565 15.8269C24.6657 15.8218 24.6738 15.8179 24.6805 15.8151C24.6799 15.8252 24.6783 15.8382 24.6752 15.8538C24.6683 15.8893 24.6548 15.9349 24.6346 15.9902L24.6036 16.0754H25.4404C25.336 16.1368 25.2231 16.1672 25.1008 16.1672C25.0684 16.1672 25.0446 16.1699 25.0252 16.1775C24.9786 16.1958 24.9592 16.2472 24.9897 16.2901C25.0104 16.3192 25.0558 16.3445 25.1397 16.3804C25.2574 16.4307 25.4544 16.5009 25.7315 16.5911C25.4211 16.6674 25.1904 16.6709 25.0411 16.6047C24.9994 16.5863 24.9676 16.5757 24.9424 16.5729C24.892 16.5672 24.8448 16.5939 24.8472 16.6512C24.849 16.6926 24.8813 16.7352 24.9435 16.7975C25.0114 16.8656 25.1051 16.9435 25.1885 17.0024C25.1433 17.0001 25.0911 16.9946 25.0367 16.9859C24.7646 16.9422 24.5152 16.8373 24.3783 16.6851L24.1462 16.427L24.2693 16.7497C24.3078 16.8505 24.3223 16.9246 24.3181 16.9735C23.9408 16.5407 23.6536 16.3236 23.4407 16.3236C23.3429 16.3236 23.2772 16.3672 23.2598 16.4457C23.249 16.4948 23.2585 16.5516 23.2831 16.6167C23.2234 16.6058 23.1617 16.616 23.0991 16.6485C23.0792 16.6587 23.0594 16.6694 23.0397 16.6804C22.9681 16.7203 22.9006 16.7631 22.8322 16.8107C22.7189 16.547 22.4523 16.3601 22.0394 16.2488C21.8832 16.2067 21.7688 16.1689 21.6772 16.1313C21.6426 16.1171 21.6125 16.1035 21.5789 16.0872L21.567 16.0813C21.548 16.072 21.5123 16.0545 21.4999 16.0487C21.3913 15.9977 21.2891 15.9727 21.0635 15.9484C20.8672 15.9273 20.7341 15.8732 20.6404 15.7938C20.6142 15.7716 20.5739 15.7236 20.5396 15.6828L20.5396 15.6828C20.5119 15.6497 20.4881 15.6215 20.4792 15.6156C20.4648 15.6062 20.4489 15.6004 20.4271 15.5974C20.4189 15.5936 20.4076 15.5873 20.3935 15.5784C20.3631 15.5593 20.322 15.5297 20.2706 15.4899C20.1688 15.411 20.0281 15.2932 19.8487 15.1366C19.7814 14.8771 19.8221 14.774 19.959 14.774C20.044 14.774 20.1159 14.7666 20.3002 14.7428L20.3374 14.738C20.6332 14.7003 20.775 14.7026 20.8452 14.7595C20.9733 14.8632 21.0911 14.873 21.1644 14.774H21.4052L21.834 15.1056H22.7427L22.7618 15.0761C22.8625 14.9205 22.9909 14.8196 23.1485 14.7711C23.3777 14.7005 23.3777 14.5364 23.1721 14.3571L23.1255 14.3412C22.7073 14.365 22.4125 14.4095 22.2378 14.4764C22.1902 14.4945 22.1842 14.4918 22.1772 14.4558C22.1647 14.3911 22.1828 14.2672 22.2337 14.0898L22.2529 14.0226L21.0308 13.8006L20.8489 14.0172L20.4526 14.1364V14.3253L20.2022 14.2703L20.3242 13.5476L19.3398 13.9978ZM23.4074 15.5322C23.4174 15.5335 23.4199 15.5326 23.4147 15.5293L23.4074 15.5322ZM21.6361 15.5429L21.6357 15.5432L21.6369 15.5425L21.6361 15.5429Z" fill="#4D4D4D"/>
</g>
</svg>
