<svg width="20" height="15" viewBox="0 0 20 15" fill="none" xmlns="http://www.w3.org/2000/svg">
<mask id="mask0" mask-type="alpha" maskUnits="userSpaceOnUse" x="0" y="0" width="20" height="15">
<rect width="20" height="15" fill="white"/>
</mask>
<g mask="url(#mask0)">
<path fill-rule="evenodd" clip-rule="evenodd" d="M0 0V15H20V0H0Z" fill="#FFD221"/>
<mask id="mask1" mask-type="alpha" maskUnits="userSpaceOnUse" x="0" y="0" width="20" height="15">
<path fill-rule="evenodd" clip-rule="evenodd" d="M0 0V15H20V0H0Z" fill="white"/>
</mask>
<g mask="url(#mask1)">
<path d="M-1.91687 6.63451L-0.661876 3.77258L21.1048 13.3176L19.8498 16.1795L-1.91687 6.63451Z" fill="#313131"/>
<path d="M-1.88577 3.48093L-0.631305 0.618774L22.2178 10.6334L20.9633 13.4956L-1.88577 3.48093Z" fill="#FAF9F9"/>
<path fill-rule="evenodd" clip-rule="evenodd" d="M4.58176 7.74832C3.69516 6.66033 3.84338 5.92444 3.84338 5.92444C3.84338 5.92444 4.75073 5.9576 4.74061 6.5427C4.74061 6.78992 5.06607 7.02394 5.34645 7.22556C5.55863 7.37812 5.74499 7.51213 5.74499 7.61926C5.74499 7.86796 5.93225 10.3754 5.93225 10.3754C5.93225 10.3754 5.80146 10.6037 5.17499 10.6037C4.54851 10.6037 4.58176 10.2428 4.58176 10.2428C4.96157 9.7771 4.58176 7.74832 4.58176 7.74832ZM15.4185 7.74832C16.3051 6.66033 16.1569 5.92444 16.1569 5.92444C16.1569 5.92444 15.2496 5.9576 15.2597 6.5427C15.2597 6.78992 14.9342 7.02394 14.6538 7.22556C14.4417 7.37812 14.2553 7.51213 14.2553 7.61926C14.2553 7.86796 14.0681 10.3754 14.0681 10.3754C14.0681 10.3754 14.1988 10.6037 14.8253 10.6037C15.4518 10.6037 15.4185 10.2428 15.4185 10.2428C15.0387 9.7771 15.4185 7.74832 15.4185 7.74832Z" fill="#CF1225"/>
<path fill-rule="evenodd" clip-rule="evenodd" d="M10.0374 1.79675L10.7416 2.29947L10.2801 2.42278L10.7416 2.82166L10.167 2.6761V3.07908H10.7416L10.9337 4.0237L10.7114 3.86599L10.489 4.0237L10.2667 3.86599L10.0444 4.0237L9.81532 3.86599L9.58629 4.0237L9.35724 3.86599L9.12822 4.0237L9.41671 3.07908H9.94835V1.79675H10.0374ZM13.1782 4.96966C13.1782 4.96966 12.9635 5.15942 12.5032 4.96966C12.3494 4.90626 12.1808 4.79543 12.0049 4.6798C11.6543 4.4493 11.2747 4.19974 10.9254 4.26895C10.401 4.37288 10.168 4.62317 10.168 4.62317V4.0467H10.1044H10.0059H9.94234V4.62317C9.94234 4.62317 9.70928 4.37288 9.18485 4.26895C8.8356 4.19974 8.456 4.4493 8.10539 4.6798C7.92951 4.79543 7.76093 4.90626 7.60714 4.96966C7.14676 5.15942 6.93213 4.96966 6.93213 4.96966C6.93213 4.96966 6.93213 5.13029 7.27437 5.37769C7.42285 5.48502 7.59263 5.47729 7.73728 5.43414C7.63016 5.51496 7.57823 5.60992 7.74898 5.68601C8.10287 5.84372 8.68459 5.42856 8.74819 5.38191C8.67732 5.43459 7.97414 5.96338 8.29637 5.96338C8.6355 5.96338 9.18485 5.51901 9.18485 5.51901C9.18485 5.51901 8.51826 6.15859 8.87688 6.25823C9.10515 6.32165 9.37771 5.989 9.5058 5.79194C9.50992 5.83382 9.5484 5.85946 9.59033 5.88738C9.64406 5.92317 9.70344 5.96272 9.70344 6.04505C9.70344 6.1506 9.72963 6.16871 9.75259 6.18459C9.77051 6.19699 9.78647 6.20803 9.78647 6.25823V6.40404L9.70344 6.52649C9.70344 6.52649 9.70344 6.71697 9.78647 6.86837C9.84935 6.98304 9.81698 7.07947 9.76149 7.24473C9.74372 7.29765 9.72358 7.35764 9.70344 7.42754C9.62042 7.71571 9.78647 8.20789 9.78647 8.20789H9.70344C9.70344 8.20789 9.78647 8.26851 9.78647 8.51123C9.78647 8.70887 9.73143 8.82109 9.62747 9.03304C9.60375 9.0814 9.57749 9.13495 9.54875 9.19589C9.39406 9.52393 9.70344 9.94099 9.70344 9.94099C9.70344 9.94099 9.18485 9.71338 9.2888 9.94099C9.36863 10.1158 9.80682 10.2858 10.0059 10.3553V10.3881C10.0059 10.3881 10.0241 10.3825 10.0551 10.3722C10.0862 10.3825 10.1044 10.3881 10.1044 10.3881V10.3553C10.3035 10.2858 10.7417 10.1158 10.8215 9.94099C10.9254 9.71338 10.4068 9.94099 10.4068 9.94099C10.4068 9.94099 10.7162 9.52393 10.5615 9.19589C10.5328 9.13495 10.5065 9.0814 10.4828 9.03304C10.3789 8.82109 10.3238 8.70887 10.3238 8.51123C10.3238 8.26851 10.4068 8.20789 10.4068 8.20789H10.3238C10.3238 8.20789 10.4899 7.71571 10.4068 7.42754C10.3867 7.35764 10.3666 7.29765 10.3488 7.24473C10.2933 7.07947 10.2609 6.98304 10.3238 6.86837C10.4068 6.71697 10.4068 6.52649 10.4068 6.52649L10.3238 6.40404V6.25823C10.3238 6.20803 10.3398 6.19699 10.3577 6.18459C10.3807 6.16871 10.4068 6.1506 10.4068 6.04505C10.4068 5.96272 10.4662 5.92317 10.52 5.88738C10.5619 5.85946 10.6004 5.83382 10.6045 5.79194C10.7326 5.989 11.0051 6.32165 11.2334 6.25823C11.592 6.15859 10.9254 5.51901 10.9254 5.51901C10.9254 5.51901 11.4748 5.96338 11.8139 5.96338C12.1362 5.96338 11.433 5.43459 11.3621 5.38191C11.4257 5.42856 12.0074 5.84372 12.3613 5.68601C12.5321 5.60992 12.4801 5.51496 12.373 5.43414C12.5177 5.47729 12.6874 5.48502 12.8359 5.37769C13.1782 5.13029 13.1782 4.96966 13.1782 4.96966ZM12.0383 5.26118C12.0383 5.26118 12.1842 5.37782 12.373 5.43414C12.245 5.33758 12.0383 5.26118 12.0383 5.26118ZM10.5615 5.68601C10.5053 5.6111 10.5313 5.67942 10.6045 5.79194C10.6071 5.765 10.5956 5.73134 10.5615 5.68601ZM9.54875 5.68601C9.60498 5.6111 9.57895 5.67942 9.5058 5.79194C9.50315 5.765 9.51473 5.73134 9.54875 5.68601ZM8.07202 5.26118C8.07202 5.26118 7.92605 5.37782 7.73728 5.43414C7.86526 5.33758 8.07202 5.26118 8.07202 5.26118Z" fill="#CF1225"/>
<path fill-rule="evenodd" clip-rule="evenodd" d="M7.01827 5.98633C7.01827 5.98633 6.27225 7.00109 6.35527 8.08533C6.43829 9.16957 7.32292 11.6922 9.94731 11.6922C9.96987 11.6922 9.9923 11.6916 10.0146 11.6916C12.7955 11.6916 13.5848 8.91017 13.5848 7.90996C13.5848 6.90109 12.9557 5.98633 12.9557 5.98633C12.9557 5.98633 13.0292 7.34008 12.9557 7.90996C12.7339 9.62903 11.6509 10.423 9.99598 10.423C8.33079 10.423 7.30038 9.59901 7.01827 7.90996C6.92706 7.36386 7.01827 5.98633 7.01827 5.98633Z" fill="#CF1225"/>
<path fill-rule="evenodd" clip-rule="evenodd" d="M5.66595 12.3445C5.66595 12.3445 5.80137 11.9567 5.96783 11.9567C6.13429 11.9567 5.64934 11.6202 5.96783 11.525C6.28632 11.4298 6.77642 11.9043 6.77642 11.4298C6.77642 10.9552 6.36195 10.6962 6.66649 10.6962C6.97102 10.6962 7.28875 10.6053 7.28875 10.6053C7.28875 10.6053 8.58447 11.9567 9.88168 11.9567C11.1789 11.9567 12.7388 10.6962 12.7388 10.6962C12.7388 10.6962 13.3138 10.55 13.3138 10.778C13.3138 11.0061 13.1876 11.3503 13.1876 11.3503C13.1876 11.3503 13.5905 11.2709 13.7955 11.3503C14.0004 11.4298 13.7955 11.8097 13.7955 11.8097V11.9567C13.7955 11.9567 14.3287 11.8393 14.3287 12.0494C14.3287 12.2596 14.0713 12.1395 13.5496 12.1995C13.028 12.2596 12.83 12.6674 12.5023 12.6674C12.1746 12.6674 12.104 12.3445 12.104 12.3445C12.104 12.3445 11.0884 12.895 9.88168 12.895C8.67495 12.895 7.94601 12.3445 7.94601 12.3445C7.94601 12.3445 8.05984 12.9096 7.67429 12.7885C7.28875 12.6674 6.89433 11.8993 6.43108 12.0494C5.96783 12.1995 5.66595 12.3445 5.66595 12.3445Z" fill="#CF1225"/>
<path fill-rule="evenodd" clip-rule="evenodd" d="M7.53863 10.103C7.56145 10.0817 7.58436 10.0581 7.61441 10.0255C7.69952 9.93309 7.72257 9.90862 7.73998 9.89742C7.74349 9.91321 7.74588 9.93902 7.74588 9.97449C7.74588 10.2098 7.75423 10.3875 7.77714 10.511C7.79347 10.5991 7.81615 10.6561 7.85619 10.6832C7.91471 10.7228 7.97369 10.6883 8.02841 10.6061C8.15359 10.4179 8.38919 10.3947 8.38919 10.4665C8.38919 10.4851 8.38186 10.5052 8.3361 10.6173C8.32819 10.6367 8.32196 10.6523 8.31618 10.6676C8.28404 10.7521 8.26972 10.8133 8.27669 10.8666C8.28708 10.946 8.34563 10.9907 8.44042 10.9907C8.54584 10.9907 8.61514 10.9225 8.69172 10.7881C8.69918 10.775 8.71928 10.7384 8.72779 10.7229L8.72783 10.7228L8.72784 10.7228L8.73162 10.716C8.74564 10.6908 8.7559 10.6739 8.76535 10.6607C8.79328 10.6218 8.79936 10.6248 8.86123 10.771C8.87752 10.8095 8.91094 10.8906 8.9399 10.9609L8.93994 10.961C8.96282 11.0165 8.9829 11.0653 8.98952 11.0808C9.03015 11.1763 9.05863 11.2326 9.08862 11.272C9.15751 11.3625 9.23973 11.3618 9.33792 11.2778C9.35736 11.2612 9.37909 11.2448 9.40419 11.2275C9.41725 11.2185 9.44836 11.1985 9.47811 11.1794L9.47817 11.1793L9.4782 11.1793L9.47821 11.1793C9.50644 11.1611 9.53341 11.1438 9.54254 11.1374C9.59951 11.0976 9.62779 11.0663 9.62723 11.0201C9.62653 10.9616 9.57774 10.9249 9.48047 10.8887C9.4612 10.8816 9.44626 10.8748 9.43543 10.8698L9.43543 10.8698L9.43541 10.8698C9.42743 10.8662 9.42169 10.8636 9.41807 10.8626C9.42049 10.8621 9.42405 10.8603 9.42962 10.8575L9.43448 10.8551C9.49549 10.8248 9.61867 10.8026 9.72863 10.8026L9.72925 10.8026C9.73438 10.8026 9.73746 10.8026 9.73928 10.8041C9.74199 10.8064 9.74187 10.8121 9.74155 10.8262V10.8262L9.74151 10.8278C9.74077 10.861 9.73359 10.893 9.70646 10.9949L9.6971 11.0305C9.66634 11.1501 9.65779 11.2224 9.67895 11.2848C9.70996 11.3761 9.79808 11.4079 9.93495 11.3808C10.1201 11.3442 10.2103 11.2706 10.2339 11.1579C10.2398 11.1296 10.2409 11.1081 10.241 11.064C10.2411 10.9914 10.2415 10.9907 10.3035 10.9907C10.3918 10.9907 10.4267 11.0221 10.4639 11.1089L10.4771 11.1407C10.5203 11.2447 10.5603 11.29 10.6506 11.29C10.711 11.29 10.7529 11.2646 10.7455 11.2062C10.7436 11.1913 10.7386 11.1781 10.7295 11.1598L10.7222 11.1456L10.7093 11.1202C10.6533 11.0056 10.6755 10.9181 10.8683 10.7946C10.9233 10.7594 11.0084 10.6998 11.0821 10.6481C11.1352 10.6109 11.1824 10.5779 11.2082 10.561C11.2102 10.5767 11.2117 10.5982 11.2131 10.6295L11.2162 10.7118L11.2177 10.7522C11.2259 10.9614 11.2694 11.1529 11.3329 11.2307C11.4404 11.3624 11.5443 11.2407 11.6149 10.9509C11.6825 10.6737 11.7789 10.4122 11.8729 10.2536C11.9189 10.1758 11.9621 10.127 11.995 10.1122C12.0168 10.1024 12.0321 10.1094 12.0547 10.1504C12.1396 10.3046 12.2702 10.4476 12.3807 10.4902C12.5446 10.5534 12.6419 10.4203 12.6419 10.1245C12.6419 9.87654 12.6822 9.67879 12.7488 9.52621C12.7717 9.47374 12.7961 9.43076 12.8201 9.39666C12.8339 9.3771 12.8441 9.36528 12.8488 9.36061L12.778 9.28458C12.7455 9.31643 12.6999 9.38115 12.6553 9.48322C12.5827 9.64947 12.5394 9.86188 12.5394 10.1245C12.5394 10.3584 12.4935 10.4213 12.4167 10.3918C12.3334 10.3597 12.2181 10.2334 12.1439 10.0987C12.0973 10.0141 12.0281 9.98243 11.9538 10.0159C11.8969 10.0416 11.8414 10.1043 11.7853 10.1989C11.6853 10.3679 11.5854 10.6387 11.5155 10.9254C11.4851 11.0501 11.4535 11.1293 11.4114 11.1632C11.3667 11.1084 11.3274 10.9355 11.3201 10.7479L11.3186 10.7088L11.3155 10.6248C11.3137 10.5855 11.3118 10.5595 11.3085 10.5385C11.2981 10.4711 11.264 10.4314 11.2028 10.4475C11.1787 10.4537 11.0631 10.5341 10.9591 10.6064L10.9591 10.6064C10.9012 10.6467 10.8469 10.6844 10.814 10.7054C10.5757 10.8581 10.5384 11.005 10.6177 11.1674L10.6241 11.18C10.605 11.1712 10.5918 11.1487 10.5714 11.0995L10.5577 11.0667C10.5059 10.9454 10.4391 10.8856 10.3035 10.8856C10.1731 10.8856 10.1387 10.9403 10.1385 11.0638C10.1385 11.1007 10.1376 11.1171 10.1337 11.1358C10.1197 11.2025 10.0637 11.2482 9.91555 11.2776C9.82295 11.2959 9.78679 11.2829 9.77571 11.2502C9.76379 11.2151 9.77075 11.1561 9.79616 11.0573L9.80529 11.0226C9.83533 10.9098 9.84292 10.8759 9.84394 10.8302C9.84571 10.751 9.80691 10.6975 9.72863 10.6975C9.60449 10.6975 9.4667 10.7223 9.38981 10.7605C9.26366 10.8232 9.28866 10.9292 9.44554 10.9876C9.47636 10.999 9.49674 11.0088 9.50911 11.0148C9.5179 11.019 9.52263 11.0213 9.52418 11.0208C9.52303 11.0211 9.52019 11.0234 9.51534 11.0273C9.50893 11.0326 9.49901 11.0406 9.48489 11.0505C9.47744 11.0557 9.45374 11.0709 9.42758 11.0878C9.3966 11.1077 9.36217 11.1298 9.34711 11.1402C9.31925 11.1594 9.29474 11.1779 9.27232 11.197C9.21502 11.2461 9.19897 11.2462 9.16936 11.2073C9.14631 11.177 9.12071 11.1264 9.08342 11.0388C9.07703 11.0237 9.0574 10.9761 9.03485 10.9214C9.00577 10.8508 8.97184 10.7684 8.95521 10.7291C8.86713 10.5209 8.77196 10.4741 8.68284 10.5984C8.67053 10.6155 8.6585 10.6354 8.64268 10.6638L8.63798 10.6723C8.62905 10.6885 8.61012 10.723 8.60326 10.735C8.54387 10.8393 8.49683 10.8856 8.44042 10.8856C8.39386 10.8856 8.3813 10.876 8.37824 10.8526C8.3743 10.8225 8.38554 10.7744 8.41164 10.7058C8.41706 10.6915 8.42299 10.6766 8.43059 10.658C8.48763 10.5183 8.49165 10.5072 8.49165 10.4665C8.49165 10.2533 8.11427 10.2906 7.94379 10.5468C7.9293 10.5686 7.9169 10.5828 7.90781 10.5899C7.89907 10.5764 7.88719 10.542 7.8778 10.4914C7.85647 10.3764 7.84833 10.2033 7.84833 9.97449C7.84833 9.82951 7.80478 9.75281 7.71113 9.79462C7.66878 9.81353 7.66718 9.81514 7.53995 9.95325C7.51155 9.98408 7.49025 10.006 7.46977 10.0251C7.44325 10.0498 7.42029 10.0674 7.40055 10.0778C7.37146 10.0931 7.36029 10.0836 7.34458 10.0159C7.32829 9.94567 7.32296 9.84652 7.32301 9.68141L7.32321 9.6122L7.32341 9.54092C7.32341 9.42372 7.29204 9.35806 7.21555 9.35806C7.18935 9.35806 7.16305 9.36696 7.12977 9.3839C7.1181 9.38984 7.1059 9.39659 7.08954 9.40603L7.04842 9.42984C6.97788 9.4701 6.93104 9.48835 6.88699 9.48835C6.87877 9.48835 6.87397 9.48965 6.8718 9.49024C6.87093 9.49048 6.87049 9.4906 6.87041 9.49048C6.87033 9.49035 6.87066 9.48995 6.87136 9.48911C6.87325 9.48685 6.87779 9.48141 6.88376 9.46967C6.91285 9.4125 6.9911 9.32023 7.11697 9.19654L7.0461 9.12061C6.91258 9.25182 6.8287 9.35073 6.79294 9.421C6.74348 9.5182 6.78179 9.59349 6.88699 9.59349C6.95347 9.59349 7.01337 9.57015 7.09822 9.52172C7.1964 9.46568 7.20126 9.4632 7.21555 9.4632C7.21558 9.4632 7.22095 9.47445 7.22095 9.54092L7.22075 9.61176L7.22056 9.68137C7.22049 9.85491 7.2261 9.95919 7.24491 10.0403C7.27386 10.165 7.34476 10.2254 7.4474 10.1713C7.47638 10.156 7.50604 10.1333 7.53863 10.103ZM7.75076 9.89105C7.75151 9.89114 7.75205 9.89114 7.75228 9.89104L7.75076 9.89105ZM9.41499 10.8576C9.41315 10.8564 9.41224 10.8556 9.41221 10.8555C9.41324 10.8599 9.41419 10.8625 9.4158 10.8636L9.41499 10.8576ZM11.2283 10.5493L11.2271 10.5496L11.2279 10.5495L11.2283 10.5493Z" fill="#F6E017"/>
<path fill-rule="evenodd" clip-rule="evenodd" d="M8.64538 12.3439C8.59994 12.4665 8.52824 12.5071 8.44722 12.4458C8.42262 12.4272 8.3987 12.4007 8.36536 12.3578L8.35789 12.348L8.35789 12.348C8.34011 12.3247 8.29595 12.2666 8.2797 12.2464C8.20991 12.1595 8.1498 12.1052 8.0845 12.0773L8.07852 12.0748L8.07852 12.0748C7.99891 12.0409 7.9818 12.0336 7.96502 12.0256L7.94672 12.0167C7.85093 11.97 7.79628 11.9216 7.74367 11.831C7.70252 11.7601 7.66267 11.6641 7.59515 11.4785L7.69114 11.4418C7.75652 11.6215 7.79472 11.7135 7.83169 11.7771C7.8734 11.849 7.91248 11.8836 7.99073 11.9218L8.00709 11.9297C8.02308 11.9373 8.03939 11.9443 8.11821 11.9779L8.11822 11.9779L8.11823 11.9779L8.1238 11.9802C8.20803 12.0161 8.27922 12.0805 8.35874 12.1795C8.37651 12.2016 8.42394 12.264 8.44004 12.2852L8.44004 12.2852L8.44543 12.2922C8.47346 12.3283 8.49272 12.3496 8.50804 12.3612C8.51635 12.3675 8.51683 12.3679 8.51575 12.3686C8.52288 12.3643 8.53552 12.3446 8.54962 12.3065C8.58103 12.2218 8.55346 12.1561 8.47707 12.0877C8.47424 12.0852 8.46643 12.0789 8.45619 12.0707L8.45619 12.0707C8.42691 12.0472 8.37781 12.0079 8.36875 11.9944C8.33962 11.9511 8.36457 11.9071 8.40954 11.8952C8.42979 11.8898 8.45972 11.8878 8.5075 11.8878C8.67294 11.8878 8.71844 11.985 8.74912 12.2335L8.74963 12.2376C8.7738 12.4335 8.79826 12.4873 8.88187 12.4873C8.97619 12.4873 9.03364 12.4497 9.13392 12.3426L9.15589 12.3192C9.28368 12.1831 9.37317 12.1374 9.5235 12.179C9.64359 12.2123 9.69491 12.2713 9.70699 12.3629C9.70833 12.3731 9.70899 12.3804 9.71031 12.3978C9.71617 12.475 9.72979 12.4873 9.87921 12.4873C9.99253 12.4873 10.098 12.4933 10.2356 12.5055L10.2522 12.507L10.2522 12.507C10.2844 12.5099 10.353 12.5161 10.3736 12.5178C10.4184 12.5215 10.4502 12.5233 10.4753 12.5233C10.4932 12.5233 10.507 12.5223 10.5164 12.5207C10.5203 12.4906 10.538 12.4694 10.6098 12.3881C10.6181 12.3787 10.6245 12.3714 10.6305 12.3643C10.664 12.3247 10.6788 12.2982 10.6779 12.294C10.6777 12.2932 10.6477 12.2823 10.5666 12.2823C10.4922 12.2823 10.4549 12.2731 10.4482 12.2206C10.4426 12.1766 10.4679 12.1554 10.5242 12.1254C10.5887 12.0912 10.7062 12.0466 10.8471 12.0017C10.9828 11.9585 11.126 11.9196 11.235 11.8968C11.2939 11.8844 11.3419 11.8769 11.3768 11.8749C11.4434 11.8712 11.483 11.8804 11.483 11.9404C11.483 11.9654 11.5534 12.0513 11.6235 12.0903C11.7072 12.1369 11.7667 12.1192 11.8078 12.0099C11.8677 11.8503 11.9925 11.6779 12.1142 11.5792C12.1795 11.5263 12.2396 11.4978 12.2916 11.5025C12.3618 11.5088 12.3984 11.569 12.3984 11.66H12.296C12.296 11.6174 12.2902 11.6079 12.2826 11.6072C12.2633 11.6055 12.2243 11.6239 12.1777 11.6617C12.0703 11.7488 11.9566 11.9058 11.9034 12.0477C11.8388 12.2197 11.71 12.258 11.5747 12.1828C11.4917 12.1366 11.4124 12.049 11.3881 11.9797C11.3535 11.9816 11.31 11.9884 11.2555 11.9998C11.1502 12.0219 11.0101 12.0599 10.8775 12.1021C10.7897 12.1301 10.7114 12.1579 10.6514 12.1824C10.7246 12.1929 10.7669 12.2201 10.7779 12.2712C10.789 12.3223 10.7641 12.3669 10.7078 12.4333C10.7013 12.441 10.6945 12.4488 10.6857 12.4587C10.6361 12.5149 10.6179 12.5389 10.6179 12.5398C10.6179 12.6093 10.5651 12.6284 10.4753 12.6284C10.4468 12.6284 10.4127 12.6265 10.3654 12.6226C10.3442 12.6209 10.2744 12.6146 10.2425 12.6117L10.2268 12.6102C10.0919 12.5983 9.98906 12.5924 9.87921 12.5924C9.67745 12.5924 9.61827 12.5392 9.60816 12.406C9.60699 12.3906 9.60645 12.3845 9.60545 12.377C9.59895 12.3277 9.57737 12.3028 9.49682 12.2805C9.39173 12.2514 9.33422 12.2808 9.22965 12.3921L9.2078 12.4155C9.08976 12.5415 9.01193 12.5924 8.88187 12.5924C8.73477 12.5924 8.68658 12.5137 8.65603 12.3102C8.65316 12.3212 8.64962 12.3325 8.64538 12.3439ZM8.65395 12.2508L8.65333 12.2467C8.64362 12.1822 8.63365 12.1328 8.62085 12.0954C8.67149 12.1595 8.68916 12.23 8.66377 12.3102C8.66034 12.2915 8.65709 12.2717 8.65395 12.2508ZM10.5282 12.1745L10.5314 12.1755L10.5295 12.1747L10.5282 12.1745ZM10.5263 12.5184L10.5237 12.5193L10.5254 12.5189L10.5263 12.5184Z" fill="#F6E017"/>
</g>
</g>
</svg>
