<svg width="20" height="15" viewBox="0 0 20 15" fill="none" xmlns="http://www.w3.org/2000/svg">
<mask id="mask0" mask-type="alpha" maskUnits="userSpaceOnUse" x="0" y="0" width="20" height="15">
<rect width="20" height="15" fill="white"/>
</mask>
<g mask="url(#mask0)">
<path fill-rule="evenodd" clip-rule="evenodd" d="M0 0H20V15H0V0Z" fill="#2B409A"/>
<path d="M15.1987 11.5947C15.1603 11.5947 15.021 11.5196 15.021 11.5196C15.021 11.5196 14.92 11.6794 14.8671 11.6886C14.8142 11.698 14.5403 11.5902 14.5403 11.5902C14.5403 11.5902 14.3481 11.7403 14.3049 11.7309C14.2616 11.7216 13.8195 11.6277 13.8195 11.6277L13.5792 11.4773C13.5792 11.4773 13.4446 11.6933 13.4398 11.6886C13.435 11.6839 13.0362 11.6088 13.0362 11.6088C13.0362 11.6088 13.1563 11.4445 13.1563 11.4398C13.1563 11.4351 13.0986 11.4162 13.0986 11.4162L13.0121 11.4868L12.6565 11.5196L12.743 11.2753L12.8824 11.0688L14.5884 9.44849L15.4294 10.9654L15.3045 11.4209C15.3045 11.4209 15.2371 11.5947 15.1987 11.5947Z" fill="#6A4C2D"/>
<path d="M13.569 11.2881C13.6284 11.3599 14.4112 12.1601 14.5381 12.5387C14.665 12.9173 13.5087 12.4337 13.5087 12.4337C13.5087 12.4337 14.9647 11.488 15.692 11.488C16.4194 11.488 17.8489 12.4337 17.8489 12.4337C17.8489 12.4337 16.8896 13.1092 16.8995 12.6833C16.9093 12.2573 17.3497 11.4182 17.8753 11.2881" stroke="#FFBB00" stroke-width="0.5" stroke-linecap="round" stroke-linejoin="round"/>
<path d="M18.4636 11.35L18.2245 11.261L18.0127 10.9806L17.1359 10.9161L16.3366 10.698L15.9995 10.9228L16.181 11.1598L16.6245 11.323L18.4636 11.35Z" fill="#F7FCFF"/>
<g filter="url(#filter0_d)">
<path d="M14.9618 6.16632C14.9699 6.1868 15.1487 6.15049 15.1867 6.25759C15.3791 5.97342 15.605 6.24442 15.605 6.24442L15.795 6.01941L16.0096 6.22261L16.2065 6.20728L16.4122 6.69013L14.7887 6.65967C14.7887 6.65967 14.9536 6.14584 14.9618 6.16632Z" fill="#656263"/>
</g>
<path d="M16.6446 8.22126C16.6316 8.06837 16.496 8.05049 16.4204 8.0556C16.3446 8.06071 16.2768 8.12438 16.2768 8.12438L16.0265 7.96893C16.0265 7.96893 16.1517 7.19661 16.2847 7.14827C16.411 7.05925 16.4333 7.02073 16.4333 7.00049C16.4333 6.98005 16.3864 6.89731 16.3864 6.89731L15.57 6.80298L14.7979 6.8922C14.7979 6.8922 14.738 7.01306 14.7459 7.04883C14.7537 7.0844 14.7563 7.12272 14.8945 7.22727C15.0475 7.34223 15.1527 8.00214 15.1527 8.00214C15.1527 8.00214 14.9363 8.1065 14.9232 8.09372C14.9102 8.08114 14.845 8.06837 14.811 8.07348C14.7772 8.07859 14.665 8.1346 14.665 8.27982C14.665 8.42525 14.7772 8.50936 14.7772 8.50936C14.7772 8.50936 15.5153 9.05025 15.6249 9.24893C15.7318 9.00937 16.4333 8.46848 16.5167 8.42761C16.5507 8.40737 16.6577 8.37415 16.6446 8.22126Z" fill="#656263"/>
<path d="M17.3813 7.50094C17.4426 7.46105 17.851 7.441 17.9492 7.50094C18.0471 7.56088 18.0839 7.85625 18.0839 7.85625C18.0839 7.85625 18.1452 7.96001 18.1493 8.03587C18.1533 8.11172 18.1615 8.1636 18.1615 8.1636C18.1615 8.1636 18.4883 8.57885 18.4923 8.954C18.5291 9.20948 18.5209 9.89199 18.4189 10.1514C18.4147 10.4749 18.276 10.6863 18.276 10.6863C18.276 10.6863 18.3085 10.7421 18.3045 10.8021C18.3003 10.862 18.2677 10.9178 18.2677 10.9178L17.9614 11.0495L17.6224 10.9937L17.2383 9.87194L17.3282 7.97593L17.3527 7.88022L17.3119 7.62475C17.3119 7.62475 17.3201 7.54084 17.3813 7.50094Z" fill="black"/>
<path d="M15.1637 8.49633C15.1637 8.49633 15.577 8.49633 15.6216 8.62741C15.6999 8.4527 16.0572 8.46371 16.0572 8.46371C16.2732 8.45644 16.4892 8.44917 16.705 8.44189C16.7088 8.95127 16.7124 9.46065 16.7162 9.97003C16.5897 10.5629 16.1503 10.9815 15.6663 11.1598C15.0891 10.9778 14.7243 10.5012 14.6053 9.95902C14.5828 9.47519 14.5604 8.99117 14.5381 8.50734C14.7467 8.5036 14.9552 8.50006 15.1637 8.49633Z" fill="#F7FCFF"/>
<path d="M14.7609 8.50164L15.6721 10.8744L16.4952 8.44995C16.2398 8.46607 15.692 8.41065 15.6241 8.63822C15.5187 8.43462 14.9423 8.51677 14.7609 8.50164V8.50164Z" fill="#006B00"/>
<path fill-rule="evenodd" clip-rule="evenodd" d="M15.8171 8.6737C15.8171 8.6737 15.9 8.88991 15.8171 8.99693C15.7342 9.10395 15.824 9.19164 15.8739 9.19164C15.9239 9.19164 16.0955 9.36157 15.9563 9.36157C15.8171 9.36157 15.7385 9.30868 15.7385 9.45805C15.7385 9.60741 16.0454 10.5387 16.0008 10.3358C15.9563 10.1328 15.9128 10.1807 15.9128 10.0054C15.9128 9.83 15.9563 9.63481 15.9563 9.63481C15.9563 9.63481 16.0295 9.68965 15.9774 9.88985C15.9254 10.0901 15.6865 10.3805 15.6267 10.3919C15.5669 10.4033 15.4751 10.4965 15.4629 10.3246C15.4507 10.1527 15.4016 10.0723 15.4411 10.0388C15.4807 10.0054 15.5334 9.8858 15.5502 9.97982C15.5671 10.0738 15.4928 10.1637 15.5049 10.1976C15.5171 10.2314 15.5238 10.3082 15.5753 10.2439C15.6267 10.1796 15.657 10.0736 15.6955 10.1719C15.734 10.2701 15.7347 10.1926 15.655 10.0054C15.5753 9.81815 15.5075 9.71402 15.5171 9.54965C15.5267 9.38529 15.5137 9.32373 15.5267 9.2709C15.5396 9.21807 15.3838 8.96078 15.4234 8.88669C15.4629 8.8126 15.4781 8.57342 15.5267 8.61647C15.5753 8.65953 15.6003 8.71734 15.5753 8.78173C15.5502 8.84611 15.5252 8.91009 15.5502 8.95351C15.5753 8.99693 15.6611 9.12232 15.6783 9.09078C15.6955 9.05924 15.7533 9.08975 15.7533 8.91117C15.7533 8.73259 15.6888 8.66981 15.7294 8.62742C15.77 8.58503 15.8171 8.6737 15.8171 8.6737Z" fill="#FFD100"/>
<path d="M16.5004 8.45034L16.6233 8.44739L16.4039 8.71898L16.6672 9.01926L16.1493 9.65677L16.638 10.2314C16.5843 10.3601 16.522 10.4772 16.4389 10.5832L16.1582 10.2799L16.6672 9.65971L16.2489 9.19652L16.5004 8.45034Z" fill="#1E5AA6"/>
<path d="M14.6133 8.50746L14.8591 8.76746L14.5988 9.08484L15.14 9.65966L14.6923 10.2457C14.746 10.3744 14.8231 10.5173 14.9059 10.623L15.1722 10.2942L14.6252 9.69955L15.026 9.20216L14.745 8.50452L14.6133 8.50746Z" fill="#1E5AA6"/>
<path d="M15.3535 10.0484L15.1605 10.3L15.8509 11.0805C15.9727 11.0204 16.0685 10.9518 16.1728 10.8691L15.8129 10.4631L15.9593 10.0427L16.1698 10.2799L15.5116 11.1006C15.4014 11.0548 15.2795 10.9833 15.1693 10.8946L15.5174 10.4631L15.3535 10.0484Z" fill="#1E5AA6"/>
<path d="M17.7408 8.03196C17.7408 8.07185 17.7843 10.427 17.832 10.4045C17.9505 10.3485 17.9777 10.4708 17.9777 10.4708C17.9777 10.4708 18.0186 10.8581 17.9164 10.91C17.7326 11.0057 17.6522 11.0268 17.6522 11.0268L17.4754 10.898C17.4754 10.898 17.2956 10.6464 17.2548 10.5346C17.214 10.423 17.1649 9.92404 17.1812 9.81616C17.1975 9.70846 17.2097 9.07764 17.2017 9.0458C17.1934 9.01377 17.1609 8.4869 17.1812 8.40711C17.2017 8.32733 17.3282 7.97595 17.3242 7.97595C17.3242 7.97595 17.7408 7.99207 17.7408 8.03196Z" fill="url(#paint0_linear)"/>
<path d="M17.3324 7.62872C17.4181 7.62872 17.4834 7.70065 17.504 7.76452C17.508 7.79242 17.4957 7.81247 17.4997 7.86435C17.504 7.91623 16.8789 7.87614 16.8749 7.87221C16.8749 7.87221 17.1649 7.59689 17.3324 7.62872Z" fill="#FF7000"/>
<path d="M17.7306 7.80647C17.7306 7.83408 17.7082 7.85647 17.6806 7.85647C17.6529 7.85647 17.6306 7.83408 17.6306 7.80647C17.6306 7.77886 17.6529 7.75647 17.6806 7.75647C17.7082 7.75647 17.7306 7.77886 17.7306 7.80647Z" fill="black"/>
<path d="M16.1379 7.44299C16.1379 7.44299 16.4633 7.7871 16.6738 7.78336C16.712 7.88437 16.5781 7.97831 16.5246 8.02312C16.4174 7.98951 16.3205 8.02921 16.0717 7.73011C16.0872 7.53929 16.1417 7.45046 16.1379 7.44299Z" fill="#F7FCFF"/>
<path d="M17.4315 5.7113C17.4621 5.93199 17.9806 6.2028 18.1298 6.01945C18.1145 6.10179 18.1424 6.35854 17.3539 6.35481C17.6526 6.6317 17.0565 6.9307 16.888 6.8633C17.1981 6.63141 16.8001 6.49306 16.5781 6.64261C16.6201 6.51546 16.9302 5.87599 17.4315 5.7113Z" fill="#F7FCFF"/>
<path fill-rule="evenodd" clip-rule="evenodd" d="M16.9064 7.26044C16.8472 7.01739 16.8186 6.73816 16.9493 6.63139C16.777 6.51545 16.5895 6.63513 16.5895 6.63513C16.5883 6.63803 16.5847 6.64292 16.5797 6.64983C16.5397 6.7052 16.4058 6.89029 16.5895 7.22275C16.0997 7.0956 16.3046 7.54029 16.3408 7.5739C16.3599 7.50276 16.6201 7.43555 16.6853 7.79832C16.7072 7.87183 16.5752 7.97785 16.5329 8.01187C16.5235 8.01942 16.5185 8.02342 16.5206 8.02275C16.5206 8.02275 16.9351 8.1069 16.9888 7.55919C17.0597 7.51696 17.4036 7.28767 17.3931 6.81474C17.0772 6.82123 16.9375 7.16935 16.9064 7.26044Z" fill="#0000FF"/>
<path d="M15.0547 7.54028C15.0547 7.54028 14.7372 7.80951 14.5572 7.72344C14.4233 7.80205 14.2664 7.6637 14.2664 7.6637C14.2664 7.6637 14.45 8.32557 15.1084 7.84685C15.097 7.70104 15.0624 7.55148 15.0547 7.54028Z" fill="#F7FCFF"/>
<path d="M14.5534 7.71219C14.5801 7.57384 14.6911 7.50643 14.7792 7.63732C14.8979 7.65992 15.0165 7.18493 14.5954 7.26334C14.7141 6.64254 14.3582 6.41064 14.3582 6.41064C14.3582 6.41064 14.2319 7.09885 14.2893 7.226C14.3467 7.35315 14.2051 6.99038 13.7497 6.88936C13.742 7.40935 14.2587 7.65245 14.2587 7.65245C14.2587 7.65245 14.4042 7.78333 14.5534 7.71219Z" fill="#0000FF"/>
<path d="M14.1228 6.9618C13.9889 7.00288 13.6631 6.80649 13.8698 6.552C13.1924 6.53706 12.8236 5.96474 13.0493 6.07387C13.2751 6.18301 13.4365 5.95046 13.6049 6.07387C13.3982 5.88699 13.677 5.73743 13.677 5.73743C13.677 5.73743 14.2549 5.90584 14.3582 6.40697C14.3238 6.50424 14.3085 6.6762 14.3008 6.66873C14.3008 6.665 13.943 6.66251 14.1228 6.9618Z" fill="#F7FCFF"/>
<path d="M15.4221 4.67153C15.3582 4.85836 15.1275 4.78748 15.1275 4.78748C15.1275 4.78748 15.1352 4.88098 15.1122 4.92585C15.1311 4.93977 15.2675 5.04467 15.4107 5.07172C15.6166 5.11064 16.0383 5.00418 16.1799 5.16147C16.3215 5.31877 16.314 5.44572 16.314 5.44572C16.314 5.44572 16.1298 5.46676 16.181 5.53163C16.2142 5.57376 16.3059 5.60506 16.314 5.6486C16.3399 5.78718 16.2276 6.03653 16.268 6.1302C16.2042 6.13589 16.1992 6.20114 16.1992 6.20114C16.1956 6.27523 16.0116 6.23121 16.0116 6.23121C16.0116 6.23121 16.1264 5.94311 16.134 5.8759C16.1417 5.80849 16.0536 5.68881 15.9848 5.68881C15.9158 5.68881 15.8662 5.90204 15.8662 5.90204C15.8662 5.90204 15.8318 6.06279 15.8432 6.07772C15.8547 6.09266 15.7972 6.02545 15.7972 6.02545C15.7972 6.02545 15.7791 6.09075 15.7495 6.1302C15.7162 6.17457 15.6709 6.19367 15.6709 6.19367C15.6709 6.19367 15.6365 6.09639 15.648 6.05906C15.6594 6.02172 15.8356 5.8759 15.8203 5.77115C15.8135 5.72493 15.8074 5.64424 15.7495 5.61747C15.6762 5.58358 15.5418 5.6083 15.4605 5.59158C15.4159 5.66759 15.3954 6.08519 15.426 6.11153C15.4567 6.13766 15.3495 6.19367 15.3495 6.19367L15.2232 6.1974C15.2212 6.14081 15.2977 5.98615 15.2977 5.85527C15.2977 5.72438 15.3073 5.58411 15.3073 5.58411C15.3073 5.58411 15.2224 5.60548 15.1772 5.68881C15.1393 5.75869 15.1393 5.89077 15.1428 5.9095C15.1504 5.95058 15.1887 6.06652 15.1772 6.10032C15.1657 6.13393 14.9668 6.17874 14.9668 6.17874L14.959 6.07026C14.959 6.07026 15.0433 6.01798 15.0433 5.8871C15.0433 5.75622 15.0509 5.56913 15.0471 5.55793C15.0448 5.5512 14.9782 5.26479 14.8905 5.07172C14.832 4.94297 14.7418 4.88397 14.7372 4.8735C14.7257 4.84732 14.7257 4.81739 14.7257 4.81739C14.7257 4.81739 14.5992 4.90716 14.45 4.71642C14.5868 4.60238 14.7334 4.68649 14.7334 4.68649C14.7334 4.68649 14.7716 4.58176 14.9475 4.58925C15.1237 4.59674 15.1581 4.69398 15.1504 4.68275C15.1504 4.68275 15.2806 4.57054 15.4221 4.67153Z" fill="#923F00"/>
<path d="M14.7674 7.10224L15.5726 7.61712L16.2978 7.14056C16.2978 7.14056 16.449 7.059 16.4359 7.00044C16.423 6.94168 16.3708 6.96468 16.3446 6.97489C16.3187 6.98511 15.5857 7.49233 15.5857 7.49233L14.8058 7.01046C14.8058 7.01046 14.7485 6.99278 14.738 7.02835C14.7276 7.06411 14.7595 7.08436 14.7674 7.10224Z" fill="#B4B6B9"/>
<path d="M17.4667 10.8921C17.4667 10.8921 17.167 10.872 17.2129 10.9588C17.2383 11.0069 17.6351 11.0014 17.6351 11.0014L17.4667 10.8921Z" fill="#FF7000"/>
<path d="M17.6093 11.0084L17.2968 11.0173C17.2968 11.0173 17.2182 11.087 17.2132 11.1037C17.2083 11.1206 17.2648 11.1254 17.2648 11.1254C17.2648 11.1254 17.5872 11.2073 17.8311 11.1543C17.9542 11.1122 17.9757 11.0617 17.8895 11.031C17.8034 11.0004 17.6117 11.0096 17.6093 11.0084Z" fill="#FF7000"/>
<path d="M13.9942 8.11864C13.9942 8.11864 13.9534 8.24363 13.9942 8.30612C14.0348 8.36861 14.2906 8.87426 14.2906 8.87426C14.2906 8.87426 14.4651 8.66398 14.5291 8.65828C14.593 8.65278 14.5639 9.20382 14.5639 9.20382C14.5639 9.20382 14.4593 9.30031 14.3953 9.29461C14.3313 9.28891 14.5522 9.51059 14.5464 9.69807C14.5405 9.88554 14.2558 10.8172 14.1511 10.8341C14.0465 10.8512 13.9561 10.6587 13.9561 10.4923C13.9561 10.3259 14.0639 10.0616 14.0581 9.98773C14.0523 9.91384 13.5381 10.7796 13.507 10.9148C13.5011 10.9404 13.5349 11.033 13.5349 11.033C13.5349 11.033 13.3334 11.0495 13.3779 11.3058C12.7849 11.1012 12.4943 10.749 12.5001 10.3912C12.5023 10.254 12.3715 9.93127 12.5001 9.57497C12.7071 9.00131 13.2115 8.34656 13.2151 8.28352C13.221 8.18113 13.2616 8.13574 13.2675 8.07895C13.2733 8.02215 13.25 7.73229 13.3082 7.68119C13.3663 7.6301 13.6686 7.50511 13.7442 7.51081C13.8197 7.51651 13.8837 7.5676 13.8837 7.5676C13.8837 7.5676 14.1686 7.5676 14.186 7.67549C14.2034 7.78358 14.1279 7.82327 14.1279 7.82327C14.1279 7.82327 14.1686 7.97676 13.9942 8.11864Z" fill="#8A9396"/>
<path d="M14.1637 11.341C14.2598 11.4074 14.4816 11.4467 14.4816 11.4467C14.4816 11.4467 13.9367 11.5935 13.383 11.3086C13.3323 11.0867 13.5017 11.0372 13.5437 11.0354C13.6415 11.0098 14.0676 11.2744 14.1637 11.341Z" fill="#2B2B2B"/>
<path d="M14.8308 11.3175C15.4271 11.6327 15.4909 11.4205 15.9017 11.1209C15.9302 11.1001 16.0658 11.602 16.6415 11.3175C17.4562 10.9148 15.9431 10.2437 15.7292 10.2582C15.5154 10.2731 14.2345 11.0023 14.8308 11.3175Z" fill="#00713D"/>
<path d="M14.8147 4.64014C14.8147 4.64014 14.5381 4.27637 14.5381 4.19335" stroke="#CDAD56" stroke-width="0.25" stroke-linecap="round"/>
<path d="M15.0381 4.64014C15.0381 4.64014 15.3147 4.27637 15.3147 4.19335" stroke="#CDAD56" stroke-width="0.25" stroke-linecap="round"/>
<rect width="11.25" height="8.75" fill="#2B409A"/>
<mask id="mask1" mask-type="alpha" maskUnits="userSpaceOnUse" x="0" y="0" width="12" height="9">
<rect width="11.25" height="8.75" fill="white"/>
</mask>
<g mask="url(#mask1)">
<path d="M-1.25266 8.12482L1.22294 9.21057L11.3062 1.1804L12.612 -0.43306L9.96471 -0.795949L5.852 2.66448L2.54169 4.996L-1.25266 8.12482Z" fill="#F7FCFF"/>
<path d="M-0.913757 8.88555L0.347444 9.51562L12.1431 -0.582947H10.3722L-0.913757 8.88555Z" fill="#F50100"/>
<path d="M12.5027 8.12482L10.0271 9.21057L-0.0561867 1.1804L-1.36201 -0.43306L1.28529 -0.795949L5.398 2.66448L8.70831 4.996L12.5027 8.12482Z" fill="#F7FCFF"/>
<path d="M12.4182 8.67082L11.157 9.3009L6.13428 4.97718L4.64515 4.4941L-1.48766 -0.427482H0.283216L6.41258 4.37728L8.04068 4.95655L12.4182 8.67082Z" fill="#F50100"/>
<mask id="path-40-outside-1" maskUnits="userSpaceOnUse" x="-1" y="-1" width="14" height="11" fill="black">
<rect fill="white" x="-1" y="-1" width="14" height="11"/>
<path fill-rule="evenodd" clip-rule="evenodd" d="M6.24032 0H4.99032V3.75H0V5H4.99032V8.75H6.24032V5H11.25V3.75H6.24032V0Z"/>
</mask>
<path fill-rule="evenodd" clip-rule="evenodd" d="M6.24032 0H4.99032V3.75H0V5H4.99032V8.75H6.24032V5H11.25V3.75H6.24032V0Z" fill="#F50100"/>
<path d="M4.99032 0V-0.9375H4.05282V0H4.99032ZM6.24032 0H7.17782V-0.9375H6.24032V0ZM4.99032 3.75V4.6875H5.92782V3.75H4.99032ZM0 3.75V2.8125H-0.9375V3.75H0ZM0 5H-0.9375V5.9375H0V5ZM4.99032 5H5.92782V4.0625H4.99032V5ZM4.99032 8.75H4.05282V9.6875H4.99032V8.75ZM6.24032 8.75V9.6875H7.17782V8.75H6.24032ZM6.24032 5V4.0625H5.30282V5H6.24032ZM11.25 5V5.9375H12.1875V5H11.25ZM11.25 3.75H12.1875V2.8125H11.25V3.75ZM6.24032 3.75H5.30282V4.6875H6.24032V3.75ZM4.99032 0.9375H6.24032V-0.9375H4.99032V0.9375ZM5.92782 3.75V0H4.05282V3.75H5.92782ZM0 4.6875H4.99032V2.8125H0V4.6875ZM0.9375 5V3.75H-0.9375V5H0.9375ZM4.99032 4.0625H0V5.9375H4.99032V4.0625ZM5.92782 8.75V5H4.05282V8.75H5.92782ZM6.24032 7.8125H4.99032V9.6875H6.24032V7.8125ZM5.30282 5V8.75H7.17782V5H5.30282ZM11.25 4.0625H6.24032V5.9375H11.25V4.0625ZM10.3125 3.75V5H12.1875V3.75H10.3125ZM6.24032 4.6875H11.25V2.8125H6.24032V4.6875ZM5.30282 0V3.75H7.17782V0H5.30282Z" fill="#F7FCFF" mask="url(#path-40-outside-1)"/>
</g>
</g>
<defs>
<filter id="filter0_d" x="14.7887" y="6.01941" width="1.62349" height="0.920719" filterUnits="userSpaceOnUse" color-interpolation-filters="sRGB">
<feFlood flood-opacity="0" result="BackgroundImageFix"/>
<feColorMatrix in="SourceAlpha" type="matrix" values="0 0 0 0 0 0 0 0 0 0 0 0 0 0 0 0 0 0 127 0"/>
<feOffset dy="0.25"/>
<feColorMatrix type="matrix" values="0 0 0 0 1 0 0 0 0 1 0 0 0 0 1 0 0 0 1 0"/>
<feBlend mode="normal" in2="BackgroundImageFix" result="effect1_dropShadow"/>
<feBlend mode="normal" in="SourceGraphic" in2="effect1_dropShadow" result="shape"/>
</filter>
<linearGradient id="paint0_linear" x1="17.672" y1="9.75444" x2="18.1361" y2="9.74937" gradientUnits="userSpaceOnUse">
<stop stop-color="#D5DFFF"/>
<stop offset="1" stop-color="white"/>
</linearGradient>
</defs>
</svg>
