<svg xmlns="http://www.w3.org/2000/svg" viewBox="0 0 496 496"><path fill="#ccd1d9" d="M200 211.2c0 17.519 16 17.519 16 35.12 0 17.602-16 17.602-16 35.2 0 17.601 16 17.601 16 35.28 0 1.122-.078 2.16-.16 3.2l-15.04 5.04c-6.32 2.16-12 5.519-16.8 9.839V312H40v136c0 4.398 3.602 8 8 8h168c0 17.68-14.32 32-32 32H40c-17.68 0-32-14.32-32-32V232c0-17.68 14.32-32 32-32h144c6.16 0 12 1.762 16.879 4.8-.559 1.84-.879 3.919-.879 6.4zm0 0"/><path fill="#fcd770" d="M40 312v136c0 4.398 3.602 8 8 8h120v-85.441c0-3.598.398-7.2 1.2-10.559a46.976 46.976 0 0114.8-25.121V312zm0 0"/><path fill="#69d6f4" d="M40 232h144v48H40zm0 0"/><path fill="#fcd770" d="M112 200H54.879C40.719 185.602 32 165.84 32 144c0-44.16 35.84-80 80-80s80 35.84 80 80c0 21.84-8.719 41.602-22.879 56zm0 0"/><path fill="#e6e9ed" d="M424 456h-72l-8-80 13.84-23.121L376 368l16-64 48.238 16.078 14.961 4.961C474.801 331.602 488 349.922 488 370.56V456zm0 0M232 456h-64v-85.441c0-3.598.398-7.2 1.2-10.559a46.976 46.976 0 0114.8-25.121c4.8-4.32 10.48-7.68 16.8-9.84L215.84 320 264 304l16 64 18.16-15.121L312 376l-8 80zm0 0"/><path fill="#aab2bd" d="M392 304l-16 64-18.16-15.121L328 328l40-32zm0 0M328 328l-29.84 24.879L280 368l-16-64 24-8zm0 0"/><path fill="#ff826e" d="M357.84 352.879L328 328l-29.84 24.879L312 376l-8 80h48l-8-80zm0 0"/><path fill="#b27946" d="M395.922 152c-21.762 0-43.043-4.32-62.8-12.48A163.882 163.882 0 01280 104c-18.48 4.64-31.52 21.04-31.922 40H248c-17.68 0-32 14.32-32 32v-56C216 58.16 266.16 8 328 8c30.879 0 58.879 12.559 79.2 32.8C427.44 61.122 440 89.122 440 120v56c0-8.8-3.602-16.8-9.36-22.64C424.8 147.601 416.8 144 408 144v8zm0 0M440 176c0 17.602 16 17.602 16 35.2 0 17.519-16 17.519-16 35.12 0 17.602 16 17.602 16 35.2 0 17.601-16 17.601-16 35.28 0 1.122.078 2.24.238 3.278L392 304l-24-8v-26.719c21.762-12.562 36.96-35.043 39.602-61.281H408c17.68 0 32-14.32 32-32zm0 0M288 269.281V296l-24 8-48.16 16c.082-1.04.16-2.078.16-3.2 0-17.679-16-17.679-16-35.28 0-17.598 16-17.598 16-35.2 0-17.601-16-17.601-16-35.12 0-2.481.32-4.56.879-6.4C204.16 193.282 216 191.122 216 176c0 8.8 3.602 16.8 9.36 22.64C231.2 204.399 239.2 208 248 208h.398c1.84 18.879 10.32 35.84 23.043 48.559A79.942 79.942 0 00288 269.28zm0 0"/><g fill="#f0d0b4"><path d="M368 269.281V296l-40 32-40-32v-26.719C299.762 276.078 313.441 280 328 280s28.238-3.922 40-10.719zm0 0M430.64 153.36C436.399 159.2 440 167.2 440 176c0 17.68-14.32 32-32 32h-.398c.238-2.64.398-5.281.398-8v-56c8.8 0 16.8 3.602 22.64 9.36zm0 0"/><path d="M333.121 139.52c19.758 8.16 41.04 12.48 62.8 12.48H408v48c0 2.719-.16 5.36-.398 8-2.641 26.238-17.84 48.719-39.602 61.281C356.238 276.078 342.559 280 328 280s-28.238-3.922-40-10.719a79.942 79.942 0 01-16.559-12.722c-12.722-12.72-21.203-29.68-23.043-48.559-.238-2.64-.398-5.281-.398-8v-55.04c0-.32 0-.64.078-.96.402-18.96 13.442-35.36 31.922-40a163.882 163.882 0 0053.121 35.52zm0 0"/><path d="M248 144.96V200c0 2.719.16 5.36.398 8H248c-8.8 0-16.8-3.602-22.64-9.36C219.601 192.8 216 184.8 216 176c0-17.68 14.32-32 32-32h.078c-.078.32-.078.64-.078.96zm0 0"/></g><path d="M296 168a8 8 0 11-16 0 8 8 0 0116 0zm0 0M376 168a8 8 0 11-16 0 8 8 0 0116 0zm0 0M328 232c-8.824 0-16-7.176-16-16h-16c0 17.648 14.352 32 32 32s32-14.352 32-32h-16c0 8.824-7.176 16-16 16zm0 0"/><path d="M457.71 317.48l-9.444-3.152c.59-4.008 2.558-6.39 5.656-9.793 4.246-4.68 10.078-11.086 10.078-22.984 0-11.887-5.832-18.305-10.078-22.985-3.7-4.07-5.922-6.511-5.922-12.222 0-5.696 2.223-8.153 5.91-12.2 4.258-4.68 10.09-11.081 10.09-22.976s-5.832-18.29-10.09-22.969c-3.687-4.047-5.91-6.504-5.91-12.199v-56C448 53.832 394.168 0 328 0S208 53.832 208 120v56c0 5.695-2.223 8.152-5.91 12.2-1.578 1.73-3.363 3.702-4.992 6.09a39.865 39.865 0 00-11.403-2.177C195 177.93 200 161.328 200 144c0-48.52-39.48-88-88-88s-88 39.48-88 88c0 17.344 5.008 33.969 14.328 48.168C17.063 193.063 0 210.52 0 232v224c0 22.055 17.945 40 40 40h144c19.32 0 35.48-13.77 39.191-32H496v-93.406a55.913 55.913 0 00-38.29-53.114zM442.09 198.97c3.687 4.054 5.91 6.511 5.91 12.199s-2.223 8.152-5.91 12.2c-4.258 4.687-10.09 11.089-10.09 22.976s5.832 18.304 10.078 22.984c3.7 4.063 5.922 6.504 5.922 12.215 0 5.715-2.223 8.168-5.922 12.227-3.238 3.574-7.383 8.175-9.176 15.43L376 290.23v-16.574c19.96-13.047 34.266-33.969 38.574-58.328 11.121-1.855 20.715-8.215 26.73-17.238.255.293.528.597.786.879zM328 272c-39.703 0-72-32.297-72-72v-55.016a34.201 34.201 0 0121.84-31.922C309.87 143.368 351.602 160 395.879 160H400v40c0 39.703-32.297 72-72 72zm0 16c11.297 0 22.063-2.215 32-6.113v10.265l-32 25.61-32-25.61v-10.265c9.938 3.898 20.703 6.113 32 6.113zm-41.602 16.969l28.954 23.16-30.68 25.566-11.121-44.449zM319.238 384h17.524l6.398 64h-30.32zm20.235-16h-22.938l-8.015-13.352L328 338.414l19.48 16.234zm1.175-39.871l28.954-23.16 12.84 4.277-11.122 44.45zM416 153.473c9.29 3.312 16 12.113 16 22.527s-6.71 19.215-16 22.527zM328 16c57.344 0 104 46.656 104 104v24.207c-4.672-3.535-10.055-6.184-16-7.39V112h-16v32h-4.121c-41.64 0-80.781-16.207-110.223-45.656l-3.199-3.2-4.395 1.102c-19.695 4.922-34.14 21-37.367 40.496-6.207 1.153-11.847 3.793-16.695 7.465V120c0-57.344 46.656-104 104-104zM224 176c0-10.414 6.71-19.215 16-22.527v45.047c-9.29-3.305-16-12.106-16-22.52zm-10.09 22.969c.258-.281.54-.594.8-.89 5.985 8.96 15.536 15.304 26.704 17.234 4.297 24.367 18.61 45.296 38.578 58.351v16.574l-56.902 18.969c-1.793-7.254-5.938-11.855-9.18-15.43-3.687-4.066-5.91-6.52-5.91-12.234 0-5.711 2.223-8.16 5.922-12.215 4.246-4.68 10.078-11.098 10.078-22.984s-5.832-18.29-10.09-22.969c-3.687-4.055-5.91-6.512-5.91-12.207 0-5.695 2.223-8.145 5.91-12.2zM112 72c39.703 0 72 32.297 72 72 0 17.887-6.574 34.777-18.441 48H120v-9.473c9.29-3.312 16-12.113 16-22.527 0-13.23-10.77-24-24-24-4.414 0-8-3.586-8-8s3.586-8 8-8 8 3.586 8 8h16c0-10.414-6.71-19.215-16-22.527V88h-16v17.473c-9.29 3.312-16 12.113-16 22.527 0 13.23 10.77 24 24 24 4.414 0 8 3.586 8 8s-3.586 8-8 8-8-3.586-8-8H88c0 10.414 6.71 19.215 16 22.527V192H58.441C46.574 178.777 40 161.887 40 144c0-39.703 32.297-72 72-72zm96 376v8c0 13.23-10.77 24-24 24H40c-13.23 0-24-10.77-24-24V232c0-13.23 10.77-24 24-24h144c2.793 0 5.52.535 8.105 1.465-.027.574-.105 1.101-.105 1.703 0 11.887 5.832 18.289 10.09 22.969 3.687 4.054 5.91 6.511 5.91 12.207 0 5.71-2.223 8.16-5.922 12.215-4.246 4.68-10.078 11.097-10.078 22.984 0 11.898 5.832 18.305 10.078 22.984 3.098 3.41 5.067 5.793 5.656 9.793l-9.445 3.153c-2.191.726-4.242 1.695-6.289 2.664V304H32v144c0 8.824 7.176 16 16 16h144v-16h-16v-77.406a39.945 39.945 0 0127.352-37.946l54.984-18.328 16.992 67.985 20.75-17.29 7.7 12.833L296.761 448H240v-3.313l-7.031-7.03C227.266 431.952 224 424.062 224 416s3.266-15.953 8.969-21.656l7.031-7.031V368h-16v12.688l-2.344 2.343C212.976 391.711 208 403.727 208 416c0 11.84 4.664 23.398 12.785 32zm-48 0h-16v-32h16zm-64-96v-32h32v32zm32 16v32H96v-32zm-48-16H48v-32h32zm-32 16h32v32H48zm0 48h32v32H48zm48 0h32v32H96zm64-45.406V400h-16v-32h16.207c-.039.871-.207 1.71-.207 2.594zM163.258 352H144v-32h32v11.398c-5.703 5.817-10.023 12.868-12.742 20.602zM480 448h-44.785c8.12-8.602 12.785-20.16 12.785-32 0-12.273-4.977-24.29-13.656-32.969L432 380.687V368h-16v19.313l7.031 7.03C428.734 400.048 432 407.938 432 416s-3.266 15.953-8.969 21.656L416 444.687V448h-56.762l-7.015-70.16 7.699-12.832 20.75 17.289 16.992-67.985 54.984 18.329A39.97 39.97 0 01480 370.594zm0 0"/><path d="M32 224v64h160v-64zm144 48H48v-32h128zm0 0"/></svg>
