<svg xmlns="http://www.w3.org/2000/svg" viewBox="0 0 512 512"><path fill="#70432c" d="M358.396 170.667l17.067-59.733V102.4c0-14.14-11.46-25.6-25.6-25.6 4.727-14.123-2.884-29.406-17.007-34.133a26.979 26.979 0 00-17.126 0l-1.792-5.376a29.708 29.708 0 00-28.075-20.224c-12.715 0-25.6 4.949-29.867 17.067 0 0 0-25.6-29.867-25.6-16.495 0-29.867 13.372-29.867 29.867v4.267c-14.123-4.727-29.406 2.884-34.133 17.007a26.979 26.979 0 000 17.126c-14.14 0-25.6 11.46-25.6 25.6v8.533l17.067 68.267h8.533l17.067-93.867a351.707 351.707 0 0076.8 8.533 351.768 351.768 0 0076.8-8.533l17.067 85.333h8.533z"/><path fill="#5c3724" d="M162.129 76.8c-14.14 0-25.6 11.46-25.6 25.6v8.533l17.067 68.267h8.533l17.067-93.867a309.935 309.935 0 0030.635 5.461 166.744 166.744 0 01-13.568-48.128c-14.199-4.659-29.474 3.081-34.133 17.271a27.112 27.112 0 00-.001 16.863z"/><path fill="#fedac6" d="M255.996 401.067c31.044.017 59.11-18.483 71.339-47.019l4.096-9.472-9.387-1.28c-8.55-1.118-14.925-8.439-14.848-17.067V281.6h-102.4v44.8c.077 8.627-6.298 15.949-14.848 17.067l-9.387 1.28 4.096 9.472c12.28 28.467 40.337 46.89 71.339 46.848z"/><path fill="#de4c3c" d="M375.974 350.464l-44.544-5.888-4.096 9.472c-16.939 39.398-62.609 57.609-102.007 40.67a77.69 77.69 0 01-40.67-40.67l-4.096-9.472-44.544 5.888c-33.903 4.531-59.221 33.459-59.221 67.669V512h358.4v-93.867c0-34.21-25.319-63.138-59.222-67.669z"/><path fill="#f5c4b0" d="M307.196 328.875V281.6h-102.4v47.275c38.4 16.64 64 16.64 102.4 0z"/><path fill="#c94536" d="M76.796 418.133V512h34.133V359.083a68.266 68.266 0 00-34.133 59.05z"/><path fill="#fedac6" d="M110.929 469.333h34.133V512h-34.133z"/><path fill="#f5c4b0" d="M76.796 469.333h34.133V512H76.796z"/><g fill="#fedac6"><path d="M366.929 469.333h68.267V512h-68.267zM349.862 145.067h-8.533v51.2h8.533c14.14 0 25.6-11.46 25.6-25.6s-11.46-25.6-25.6-25.6z"/></g><path fill="#f5c4b0" d="M136.529 179.2c0 14.14 11.46 25.6 25.6 25.6h8.533v-51.2h-8.533c-14.14 0-25.6 11.46-25.6 25.6z"/><path fill="#fedac6" d="M349.862 153.6l-7.424 79.957a42.686 42.686 0 01-10.24 24.405L289.276 307.2a25.586 25.586 0 01-19.285 8.533h-27.989a25.583 25.583 0 01-19.285-8.533l-42.667-49.067a42.689 42.689 0 01-10.24-24.405l-7.68-80.128 17.067-68.267a700.294 700.294 0 00153.6 0l17.065 68.267z"/><path fill="#f5c4b0" d="M199.249 87.296c-6.741-.597-13.397-1.195-20.053-1.963L162.129 153.6l7.424 79.957a42.686 42.686 0 0010.24 24.405l22.443 25.6a847.804 847.804 0 01-2.987-196.266z"/><path d="M349.862 204.8h-8.533v-17.067h8.533c9.412 0 17.067-7.654 17.067-17.067 0-9.412-7.654-17.067-17.067-17.067h-8.533v-17.067h8.533c18.825 0 34.133 15.309 34.133 34.133S368.687 204.8 349.862 204.8zM170.662 213.333h-8.533c-18.825 0-34.133-15.309-34.133-34.133s15.309-34.133 34.133-34.133h8.533v17.067h-8.533c-9.412 0-17.067 7.654-17.067 17.067s7.654 17.067 17.067 17.067h8.533v17.065zM264.529 221.867h-25.6a8.53 8.53 0 01-8.389-10.078l11.349-61.867 16.785 3.081-9.506 51.797h15.36v17.067zM230.396 238.933h51.2V256h-51.2z"/><path d="M241.737 324.267c-9.643 0-18.901-4.13-25.378-11.375l-42.743-49.161c-7.159-8.286-11.409-18.415-12.305-29.303l-7.671-80.017a8.637 8.637 0 01.213-2.884L170.92 83.26a8.528 8.528 0 019.216-6.409c50.338 5.555 101.376 5.547 151.731 0 4.139-.486 8.166 2.261 9.207 6.409l17.067 68.267c.23.93.307 1.903.222 2.859l-7.424 79.957c-.887 10.803-5.146 20.932-12.279 29.193l-42.94 49.263c-6.562 7.339-15.821 11.469-25.532 11.469h-28.186l-.265-.001zm-70.972-170.018l7.543 78.669c.606 7.373 3.439 14.123 8.201 19.635l42.65 49.05c3.191 3.567 7.697 5.504 12.783 5.598h28.203c4.915 0 9.549-2.065 12.791-5.692l42.846-49.152c4.745-5.487 7.578-12.237 8.166-19.499l7.296-78.601-14.916-59.665a710.518 710.518 0 01-140.638 0l-14.925 59.657z"/><circle cx="204.796" cy="162.133" r="17.067"/><circle cx="298.662" cy="162.133" r="17.067"/><path d="M241.002 238.664l-34.13 8.54-4.143-16.557 34.131-8.54zM309.254 230.646l-4.138 16.555-34.13-8.531 4.14-16.556zM136.649 163.541l-8.533-51.2a7.874 7.874 0 01-.119-1.408V102.4c0-15.386 10.231-28.425 24.243-32.674a35.66 35.66 0 011.792-12.766c3.012-8.986 9.344-16.265 17.835-20.497a35.715 35.715 0 0116.273-3.738C190.903 14.225 206.886 0 226.129 0c17.741 0 27.682 7.817 32.973 16.341 6.869-5.035 16.077-7.808 26.761-7.808a38.212 38.212 0 0135.541 24.329c4.762-.367 9.609.188 14.157 1.715 8.994 3.012 16.273 9.344 20.506 17.826 2.714 5.461 3.968 11.392 3.712 17.331 14.003 4.258 24.218 17.289 24.218 32.666v8.533c0 .563-.06 1.118-.171 1.673l-8.533 42.667-16.734-3.354 8.371-41.83V102.4c0-9.412-7.654-17.067-17.067-17.067a8.552 8.552 0 01-6.929-3.55 8.516 8.516 0 01-1.161-7.697c1.57-4.668 1.22-9.66-.973-14.071a18.32 18.32 0 00-10.65-9.259 18.562 18.562 0 00-11.708 0 8.602 8.602 0 01-6.519-.452 8.564 8.564 0 01-4.284-4.941l-1.792-5.376A21.15 21.15 0 00285.845 25.6c-4.164 0-18.082.819-21.803 11.366a8.512 8.512 0 01-9.489 5.581 8.536 8.536 0 01-7.091-8.414c-.085-3.934-1.886-17.067-21.333-17.067-11.759 0-21.333 9.574-21.333 21.333v4.267a8.54 8.54 0 01-3.55 6.929 8.554 8.554 0 01-7.689 1.169c-9.668-3.243-20.105 1.988-23.33 11.622a18.562 18.562 0 000 11.708 8.537 8.537 0 01-8.098 11.239c-9.412 0-17.067 7.654-17.067 17.067v7.825l8.414 50.5-16.827 2.816zM247.462 290.133h17.067V307.2h-17.067zM238.495 284.315l-8.537 25.596-16.189-5.4 8.537-25.595zM298.208 304.515l-16.183 5.394-8.532-25.599 16.183-5.394zM85.329 512H68.262v-93.867c0-38.315 28.638-71.04 66.628-76.126l53.931-7.168c4.284-.563 7.475-4.233 7.441-8.533v-36.173h17.067v36.096c.111 12.834-9.463 23.842-22.272 25.523l-53.914 7.168c-29.542 3.951-51.814 29.406-51.814 59.213V512zM443.729 512h-17.067v-93.867c-.077-29.705-22.349-55.1-51.823-59.042l-53.914-7.168c-12.791-1.664-22.366-12.672-22.255-25.6v-36.19h17.067V326.4c-.043 4.386 3.149 8.047 7.424 8.61l53.939 7.168c37.897 5.069 66.543 37.709 66.637 75.938V512h-.008z"/><path d="M256.038 409.6h-.094a85.978 85.978 0 01-79.13-52.19l-5.461-12.706 15.684-6.733 5.461 12.715a68.958 68.958 0 0063.454 41.847h.077a68.993 68.993 0 0063.471-41.847l5.461-12.715 15.684 6.733-5.461 12.715a86.023 86.023 0 01-79.146 52.181zM136.529 443.733h17.067V512h-17.067z"/><path d="M76.796 460.8h68.267v17.067H76.796zM358.396 443.733h17.067V512h-17.067z"/><path d="M366.929 460.8h68.267v17.067h-68.267z"/></svg>
