<svg xmlns="http://www.w3.org/2000/svg" xmlns:xlink="http://www.w3.org/1999/xlink" viewBox="0 0 2167 2052"><defs><path id="a" d="M0 77.147C0 34.547 34.541 0 77.128 0h856.76c42.6 0 77.133 34.547 77.133 77.147v521.266H0V77.147"/><path id="c" d="M242.697 0L91.728 6.267C38.984 46.053 19.225 132.627 0 241.093l52.861-56.506-24.31-11.227 36.27-85.907C67.955 80 71.74 72.853 76.172 66.2c5.924-8.867 12.995-16.933 21.212-23.813 13.033-10.894 28.397-19 44.717-23.16 8.156-2.107 16.572-3.214 25.063-3.214h.43l79.149.507L242.697 0"/></defs><g fill="none" fill-rule="evenodd"><path fill="#9192FF" fill-rule="nonzero" d="M1152.96 754.573l-1.453-3 17.986-8.746 1.454 3-17.987 8.746m-35.973 17.48l-1.454-2.986 17.987-8.747 1.453 3-17.986 8.733m-35.972 17.494l-1.458-3 17.99-8.747 1.453 3-17.985 8.747m-35.974 17.493l-1.458-3 17.988-8.747 1.458 3-17.988 8.747m-35.986 17.48l-1.443-3 17.984-8.733 1.459 3-18 8.733m-36.83 15.907l-1.204-3.107a554.21 554.21 0 0018.448-7.547l1.323 3.054a562.57 562.57 0 01-18.567 7.6m-37.853 13.24l-1-3.187c6.43-2.013 12.8-4.133 18.933-6.267l1.1 3.147a688.015 688.015 0 01-19.033 6.307m-38.559 10.96l-.826-3.227c6.517-1.667 13-3.427 19.269-5.2l.908 3.213a795.932 795.932 0 01-19.35 5.214m-37.605 12.24l-1.48-2.987a123.893 123.893 0 0118.819-7.467l.973 3.174a122.016 122.016 0 00-18.312 7.28M826.66 900.12l-2.441-2.28a117.63 117.63 0 012.981-3.08c3.727-3.68 7.83-7.173 12.2-10.373l1.97 2.693a103.933 103.933 0 00-11.822 10.053 90.948 90.948 0 00-2.888 2.987m-20.375 33.32l-3.138-1.12a99.714 99.714 0 018.8-18.307l2.842 1.747a96.172 96.172 0 00-8.504 17.68m28.491 3.373c-6.317-1.2-12.91-1.893-19.599-2.053l.082-3.333c6.869.16 13.644.88 20.138 2.106l-.621 3.28m-58.68 2.76l-.876-3.213a144.688 144.688 0 0119.836-3.92l.413 3.307a141.947 141.947 0 00-19.373 3.826m94.587 12.174c-4.852-3.694-10.582-6.88-17.034-9.48l1.247-3.094c6.727 2.707 12.719 6.054 17.805 9.92l-2.018 2.654m-130.748 3.44l-1.754-2.84a138.777 138.777 0 0117.947-9.334l1.319 3.067a134.68 134.68 0 00-17.512 9.107m58.337 17.253a81.231 81.231 0 01-.573-9.653c-.002-3.52.226-7.134.678-10.707l3.308.413a81.957 81.957 0 00-.653 10.294c0 3.106.185 6.226.55 9.253l-3.31.4m-88.059 8.467l-2.554-2.147a126.96 126.96 0 0114.202-14.427l2.18 2.52a123.443 123.443 0 00-13.828 14.054m181.208 3.493l-3.333-.08.01-.88c0-5-1.02-9.893-2.945-14.16a40.483 40.483 0 00-1.654-3.253l2.9-1.64a44.503 44.503 0 011.79 3.52c2.122 4.693 3.242 10.066 3.242 15.533l-.01.96m-77.022 25.067c-4.486-4.827-8.178-10.64-10.972-17.294l3.073-1.293c2.643 6.293 6.121 11.773 10.34 16.307l-2.441 2.28m-125.98 4.64l-2.834-1.76a1076.232 1076.232 0 0010.366-17.067l2.864 1.707a1125.14 1125.14 0 01-10.396 17.12m182.964 4.813l-1.668-2.893c5.49-3.16 10.086-7.8 13.293-13.414l2.895 1.64c-3.5 6.134-8.522 11.2-14.52 14.667m-22.132 5.693c-6.152 0-12.36-1.186-17.962-3.426l1.238-3.094c5.209 2.08 10.992 3.187 16.724 3.187.498-.053.918-.04 1.329-.04.272 0 .541 0 .828-.013l.163 3.333c-.775.04-1.696-.013-2.32.053m-182.624 23.107l-2.76-1.867a965.754 965.754 0 0011.029-16.64l2.797 1.814a956.644 956.644 0 01-11.066 16.693m-23.199 32.68l-2.672-2a884.449 884.449 0 0011.733-16.133l2.718 1.92a874.125 874.125 0 01-11.779 16.213m-24.67 31.573l-2.574-2.106a823.048 823.048 0 0012.472-15.587l2.627 2.053a783.439 783.439 0 01-12.524 15.64m-26.204 30.334l-2.464-2.24c4.42-4.854 8.873-9.88 13.236-14.934l2.524 2.174a767.201 767.201 0 01-13.296 15m-27.772 28.906l-2.342-2.373c4.7-4.627 9.419-9.4 14.022-14.2l2.401 2.307a737.313 737.313 0 01-14.081 14.266m-28.898 27.694l-2.3-2.414 14.468-13.8 2.303 2.4-14.47 13.814"/><path fill="#EBEBFF" fill-rule="nonzero" d="M1091.507 134.72c0 .693 0 1.347.08 2.04h438.36c-1.147-36.133-32.6-65.107-71.174-65.107-12.373 0-23.973 2.96-34.106 8.174.533-28.12-12.987-55.054-37.88-69.507-37.36-21.653-86.24-6.96-109.107 32.84-6.88 12-10.667 24.907-11.52 37.72-18.227-8.333-40.813-13.307-65.307-13.307-60.4 0-109.346 30.08-109.346 67.147"/><path fill="#9192FF" fill-rule="nonzero" d="M3.341 1156.56H359.92v-.413c0-29.64-39.618-53.76-88.315-53.76-19.243 0-37.564 3.733-52.98 10.8l-1.647.746-.122-1.8c-.71-10.653-3.828-20.866-9.27-30.373-9.278-16.147-23.981-27.613-41.396-32.28-15.94-4.28-32.372-2.2-46.258 5.84-19.198 11.147-30.851 32.533-30.411 55.84l.039 2.08-1.859-.947c-8.356-4.293-17.819-6.573-27.364-6.573-30.61 0-55.388 22.227-56.995 50.84m358.872 2.507H.747l.04-1.294c.964-30.586 27.121-54.546 59.549-54.546 9.252 0 18.43 2.04 26.676 5.933.241-23.413 12.244-44.733 31.665-56 14.466-8.387 31.576-10.547 48.162-6.093 18.061 4.84 33.301 16.72 42.913 33.453 5.33 9.307 8.507 19.267 9.457 29.653 15.395-6.733 33.467-10.28 52.395-10.28 50.076 0 90.815 25.24 90.815 56.254 0 .613-.004 1.2-.075 1.813l-.13 1.107"/><g transform="matrix(1 0 0 -1 1069.045 1200.187)"><mask id="b" fill="#fff"><use xlink:href="#a"/></mask><g fill-rule="nonzero" mask="url(#b)"><path fill="#FFF" d="M0 77.147C0 34.547 34.541 0 77.128 0h856.76c42.6 0 77.133 34.547 77.133 77.147v521.266H0V77.147"/><path fill="#D1D1FF" d="M-52.91 465.493c11.82 37.894 49.209 66.974 90.065 70.054 40.853 3.08 82.533-20.04 100.413-55.694 21.747.2 43.16-11.853 53.72-30.226 10.56-18.374 9.813-42.307-1.867-59.987 25.88-4.493 49.12-21.52 60.574-44.413 11.453-22.88 10.84-51.027-1.627-73.387 28.493 14.48 64.933 13.173 92.267-3.333 27.333-16.507 44.56-47.587 43.6-78.694 17.746 27.84 51.773 45.187 85.6 43.64 33.826-1.533 66.066-21.906 81.12-51.24 15.88 47.52 58.213 85.88 108.32 98.134 50.106 12.253 106.306-1.987 143.8-36.44 56.4-8.827 97.493-70.054 82.8-123.347 30.466-25.213 46.04-66.2 39.666-104.413-6.373-38.214-34.453-72.347-71.546-86.947l-970.25.627L-198.968 300l146.057 165.493"/><path fill="#F6F6FF" d="M838.848 0H454.461c19.987 19.4 39.654 40.44 58.88 62.733a78.354 78.354 0 001.547-2.973c.893 2.773 1.88 5.52 2.947 8.227 18.333 21.506 36.266 44.173 53.773 67.733 14.52 10.213 30.8 17.88 48.013 22.253 11.56 2.947 23.467 4.374 35.36 4.374 37.96 0 76-14.494 103.547-40.694C812.448 112.96 851.861 52.92 838.848 0M0 227.307v181.906a93.15 93.15 0 0018.768 3.467c2.373.187 4.76.28 7.147.28 37.093 0 73.626-22.4 89.826-55.893h.56c20.814 0 41.227-11.987 51.32-30.187 10.187-18.373 9.44-42.293-1.853-59.987a77.736 77.736 0 0010-2.493C118.408 247.08 60.488 235.453 0 227.307"/><path fill="#FFF6E9" d="M550.955 182.213c-15.054 29.334-47.294 49.707-81.12 51.24a87.72 87.72 0 01-4.187.094c-32.413 0-64.4-17.04-81.413-43.734.96 31.107-16.267 62.187-43.6 78.694-14.694 8.866-32.014 13.346-49.32 13.346-14.894 0-29.774-3.32-42.947-10.013 3.667 6.56 6.293 13.627 7.907 20.907 130.213 52.653 262.48 140.213 420.68 288.986l23.68-21.173c-45.054-47.84-107.56-95.613-179.854-157.733l110.814 45.16c-13.587-22.507-33.374-54.027-44.467-67.534 25.533 11.787 66.627 37.72 80.24 51.48 0-19.2-23.12-51.293-33.2-68.826 52.173 44.653 100.187 98.013 122.68 147.226l23.213-20.746C747.555 421.52 710.275 350.8 669.208 282.413a147.455 147.455 0 01-9.933-2.066c-50.107-12.254-92.44-50.614-108.32-98.134"/><path fill="#F1E8E9" d="M513.341 62.733c-15.093 27.72-45.226 46.747-76.786 48.2-1.32.067-2.64.094-3.96.094-31.347 0-62.307-17.08-78.774-43.8.947 31.106-15.666 62.173-42.066 78.653-14.16 8.853-30.867 13.32-47.56 13.32-14.414 0-28.814-3.333-41.574-10.053 12.054 22.36 12.68 50.52 1.64 73.386-9.56 19.774-27.613 35.174-48.493 41.867a937.462 937.462 0 0180.507 28.347c-1.614-7.28-4.24-14.347-7.907-20.907 13.173 6.693 28.053 10.013 42.947 10.013 17.306 0 34.626-4.48 49.32-13.346 27.333-16.507 44.56-47.587 43.6-78.694 17.013 26.694 49 43.734 81.413 43.734 1.4 0 2.787-.027 4.187-.094 33.826-1.533 66.066-21.906 81.12-51.24 15.88 47.52 58.213 85.88 108.32 98.134 3.28.8 6.6 1.493 9.933 2.066-30.587-50.893-63.253-100.506-97.6-146.693-23.907-16.827-43.053-40.547-53.773-67.733a847.396 847.396 0 00-4.494-5.254"/><path fill="#FCF3E9" d="M454.461 0H77.128C34.541 0 0 34.547 0 77.147v150.16c60.488 8.146 118.408 19.773 175.768 37.093 20.88-6.693 38.933-22.093 48.493-41.867 11.04-22.866 10.414-51.026-1.64-73.386 12.76 6.72 27.16 10.053 41.574 10.053 16.693 0 33.4-4.467 47.56-13.32 26.4-16.48 43.013-47.547 42.066-78.653 16.467 26.72 47.427 43.8 78.774 43.8 1.32 0 2.64-.027 3.96-.094 31.56-1.453 61.693-20.48 76.786-48.2C494.115 40.44 474.448 19.4 454.461 0m63.374 67.987c10.72 27.186 29.866 50.906 53.773 67.733-17.507-23.56-35.44-46.227-53.773-67.733"/><path fill="#FFA121" d="M716.501 578.293c-45.653-54.013-114.506-105.68-195.72-175.466l110.814 45.16c-13.587-22.507-33.374-54.027-44.467-67.534 25.533 11.787 66.627 37.72 80.24 51.48 0-19.2-23.12-51.293-33.2-68.826 59.107 50.586 112.88 112.346 130.24 166.586l-47.907 48.6"/><path fill="#FFF" d="M755.061 539.187l-30.133 30.56a286.202 286.202 0 014.52 5.813l27.253-31.293a139.817 139.817 0 00-1.64-5.08"/><path fill="#FFC77A" d="M679.528 433.96c6.027 11.573 19.747 32.813 19.947 45.36-8.027-9.133-32.107-26.52-47.027-34.493 6.573 8.946 18.36 29.76 26.467 44.626l-64.667-30.68c45.173 43.96 83.787 77.214 110.68 110.974l30.133-30.56c-11.986-34.427-42.413-73.12-75.533-105.227"/><path fill="#D1D1FF" d="M310.128 392.107c.36-8.36 0-22.454-8.347-27.28-13.92-8.054-24.866 11.52-29.986 21.346-6.094 11.76-4.534 26.334 9.253 31.56 18.213 6.92 28.413-10.053 29.08-25.626M970.288 138.627c.36-8.347 0-22.44-8.347-27.28-13.92-8.054-24.866 11.52-29.986 21.36-6.094 11.746-4.534 26.32 9.253 31.56 18.213 6.906 28.413-10.067 29.08-25.64M247.808 486.547c0-6.454-5.227-11.667-11.667-11.667-6.44 0-11.666 5.213-11.666 11.667 0 6.44 5.226 11.666 11.666 11.666s11.667-5.226 11.667-11.666M847.235 275.987c0-9.814-7.947-17.76-17.76-17.76-9.814 0-17.76 7.946-17.76 17.76 0 9.813 7.946 17.76 17.76 17.76 9.813 0 17.76-7.947 17.76-17.76"/></g></g><path fill="#9192FF" fill-rule="nonzero" d="M1070.712 603.44v519.613c0 41.614 33.848 75.467 75.461 75.467h856.76c41.614 0 75.467-33.853 75.467-75.467V603.44H1070.712zm932.221 598.413h-856.76c-43.44 0-78.794-35.36-78.794-78.8V600.107h1014.354v522.946c0 43.44-35.346 78.8-78.8 78.8"/><path fill="#FFF" fill-rule="nonzero" d="M2002.933 399.813h-856.76c-42.586 0-77.128 34.52-77.128 77.134v124.826h1011.022V476.947c0-42.614-34.534-77.134-77.134-77.134"/><path fill="#9192FF" fill-rule="nonzero" d="M1070.712 600.107H2078.4v-123.16c0-41.614-33.853-75.467-75.467-75.467h-856.76c-41.613 0-75.461 33.853-75.461 75.467v123.16zm1011.021 3.333H1067.38V476.947c0-43.454 35.354-78.8 78.794-78.8h856.76c43.454 0 78.8 35.346 78.8 78.8V603.44"/><path fill="#D1D1FF" fill-rule="nonzero" d="M1213.187 500.787c0 23.36-18.934 42.293-42.294 42.293-23.36 0-42.293-18.933-42.293-42.293 0-23.347 18.933-42.28 42.293-42.28s42.294 18.933 42.294 42.28"/><path fill="#FFF" fill-rule="nonzero" d="M1337.747 500.787c0 23.36-18.934 42.293-42.294 42.293-23.36 0-42.293-18.933-42.293-42.293 0-23.347 18.933-42.28 42.293-42.28s42.294 18.933 42.294 42.28"/><path fill="#9192FF" fill-rule="nonzero" d="M1295.453 460.173c-22.4 0-40.626 18.227-40.626 40.614 0 22.4 18.226 40.626 40.626 40.626s40.614-18.226 40.614-40.626c0-22.387-18.214-40.614-40.614-40.614zm0 84.574c-24.24 0-43.96-19.72-43.96-43.96 0-24.227 19.72-43.947 43.96-43.947 24.24 0 43.947 19.72 43.947 43.947 0 24.24-19.707 43.96-43.947 43.96"/><path fill="#FFF" fill-rule="nonzero" d="M1617.373 541.16h-168.386c-22.294 0-40.36-18.08-40.36-40.373 0-22.28 18.066-40.36 40.36-40.36h168.386c22.294 0 40.36 18.08 40.36 40.36 0 22.293-18.066 40.373-40.36 40.373"/><path fill="#9192FF" fill-rule="nonzero" d="M1448.987 462.093c-21.334 0-38.694 17.36-38.694 38.694 0 21.346 17.36 38.706 38.694 38.706h168.386c21.334 0 38.694-17.36 38.694-38.706 0-21.334-17.36-38.694-38.694-38.694h-168.386zm168.386 80.734h-168.386c-23.174 0-42.027-18.854-42.027-42.04 0-23.174 18.853-42.027 42.027-42.027h168.386c23.174 0 42.027 18.853 42.027 42.027 0 23.186-18.853 42.04-42.027 42.04"/><path fill="#3335CF" fill-rule="nonzero" d="M1961 307.813c-67.52 59.107-183.973 18.374-220.16 65.56l103.4 81.88L1961 307.813"/><path fill="#D1D1FF" fill-rule="nonzero" d="M1740.84 373.373a39.985 39.985 0 007.307 40.347l73.266 83.92 22.827-42.387-103.4-81.88"/><path fill="#3335CF" fill-rule="nonzero" d="M2114.04 429c-42.053 79.267 24.28 183.28-13.36 229.32l-103.4-81.88L2114.04 429"/><path fill="#D1D1FF" fill-rule="nonzero" d="M2100.68 658.32a39.973 39.973 0 01-40.947 2.133l-98.48-52.08 36.027-31.933 103.4 81.88"/><path fill="#1B1B43" fill-rule="nonzero" d="M2166.56 206.227l-92.053 33.786 80.266 63.56z"/><path fill="#C5C5FF" fill-rule="nonzero" d="M2154.773 303.573c-12.866 145.68-120.493 281.6-251.226 357.107l-119.12-94.24c49.986-157.28 143.08-269.813 290.08-326.427l80.266 63.56"/><path fill="#3335CF" fill-rule="nonzero" d="M1784.427 566.44l-51.68 35.773 147.8 117.04 23-58.573-119.12-94.24"/><path fill="#FFF" fill-rule="nonzero" d="M2083.293 400.44c-18.96 23.947-53.733 27.987-77.666 9.027-23.947-18.96-27.987-53.734-9.027-77.667s53.733-27.973 77.667-9.027c23.946 18.96 27.986 53.734 9.026 77.667"/><path fill="#9192FF" fill-rule="nonzero" d="M2028.12 332.04l-1.08-3.147a38.986 38.986 0 0110.187-2.08l.24 3.32a36.632 36.632 0 00-9.347 1.907zm27.88 1.773a36.022 36.022 0 00-9.013-3.08l.64-3.266a39.12 39.12 0 019.853 3.36l-1.48 2.986zm-43.48 8.867l-2.533-2.16c2.266-2.653 4.88-5 7.746-6.96l1.88 2.76a36.113 36.113 0 00-7.093 6.36zm57.613 3.667a36.052 36.052 0 00-6.24-7.2l2.214-2.494a39.488 39.488 0 016.813 7.867l-2.787 1.827zm-65.706 13.413l-3.28-.587a39.158 39.158 0 013.173-9.92l3.013 1.427a36.09 36.09 0 00-2.906 9.08zm71.546 4.56c-.16-3.2-.746-6.347-1.72-9.373l3.16-1.04a39.79 39.79 0 011.894 10.24l-3.334.173zm-73.013 15.413a39.505 39.505 0 01-2.267-10.16l3.32-.293c.28 3.187.974 6.307 2.067 9.293l-3.12 1.16zm71.947 4.587l-2.947-1.547a36.2 36.2 0 003.24-8.96l3.253.72a39.462 39.462 0 01-3.546 9.787zm-60 12.227a38.7 38.7 0 01-7.094-7.6l2.707-1.934a35.76 35.76 0 006.507 6.96l-2.12 2.574zm48.453 1.28l-1.973-2.68a36.573 36.573 0 006.84-6.627l2.613 2.067a39.248 39.248 0 01-7.48 7.24zm-29.64 7.213a38.614 38.614 0 01-9.973-2.987l1.373-3.04a34.956 34.956 0 009.12 2.734l-.52 3.293zm10.4.267l-.347-3.32a36.464 36.464 0 009.267-2.24l1.2 3.106a39.95 39.95 0 01-10.12 2.454"/><path fill="#1B1B43" fill-rule="nonzero" d="M1767.507 712.88l-2.64-2.093c-3.867-3.054-4.52-8.72-1.467-12.587l103.693-130.947c3.054-3.866 8.734-4.52 12.6-1.453l2.627 2.08c3.867 3.067 4.533 8.733 1.467 12.6l-103.68 130.933c-3.067 3.867-8.734 4.534-12.6 1.467"/><path fill="#9192FF" fill-rule="nonzero" d="M1580.56 1493.733h-20v-3.333h20v3.333zm40 0h-20v-3.333h20v3.333zm40 0h-20v-3.333h20v3.333zm40 0h-20v-3.333h20v3.333zm40 0h-20v-3.333h20v3.333zm40 0h-20v-3.333h20v3.333zm40 0h-20v-3.333h20v3.333zm40 0h-20v-3.333h20v3.333zm40 0h-20v-3.333h20v3.333zm40 0h-20v-3.333h20v3.333zm38.16 6.614c-5.8-2.96-12-4.96-18.44-5.934l.493-3.293a63.726 63.726 0 0119.467 6.253l-1.52 2.974zm-456.067.8l-1.6-2.92a63.38 63.38 0 0119.28-6.814l.6 3.28a59.928 59.928 0 00-18.28 6.454zm482.907 26.466a60.545 60.545 0 00-11.227-15.8l2.387-2.333a63.933 63.933 0 0111.84 16.667l-3 1.466zm-508.96 1.547l-3.04-1.387a63.897 63.897 0 0111.373-17l2.44 2.28a59.983 59.983 0 00-10.773 16.107zm518.493 36.733h-3.333v-11.56c0-2.733-.187-5.493-.547-8.2l3.294-.44a64.27 64.27 0 01.586 8.64v11.56zm-523.96 1.76h-3.333v-13.32c0-2.266.12-4.573.36-6.84l3.32.36a62.057 62.057 0 00-.347 6.48v13.32zm523.96 38.24h-3.333v-20h3.333v20zm-523.96 1.76h-3.333v-20h3.333v20zm523.96 38.24h-3.333v-20h3.333v20zm-523.96 1.76h-3.333v-20h3.333v20zm523.96 38.24h-3.333v-20h3.333v20zm-523.96 1.76h-3.333v-20h3.333v20zm523.96 38.24h-3.333v-20h3.333v20zm-523.96 1.76h-3.333v-20h3.333v20zm523.96 38.24h-3.333v-20h3.333v20zm-523.96 1.76h-3.333v-20h3.333v20zm522 38.48l-3.226-.813a61.007 61.007 0 001.853-14.933v-4.494h3.333v4.494c0 5.333-.653 10.626-1.96 15.746zm-522.906 1.76a63.933 63.933 0 01-2.427-17.506v-2.734h3.333v2.734c0 5.64.774 11.226 2.294 16.586l-3.2.92zm501.12 32.214l-2.094-2.587a60.661 60.661 0 0012.934-14.44l2.813 1.813a63.975 63.975 0 01-13.653 15.214zm-478.374 1.12a64.03 64.03 0 01-14.066-14.827l2.746-1.88a61.002 61.002 0 0013.334 14.067l-2.014 2.64zm440.587 13.053l-.12-3.333a60.216 60.216 0 0019-3.8l1.173 3.12a64.108 64.108 0 01-20.053 4.013zm-402.413.04a63.987 63.987 0 01-20.147-3.44l1.08-3.147a60.81 60.81 0 0019.093 3.254l-.026 3.333zm40.013 0h-20v-3.333h20v3.333zm40 0h-20v-3.333h20v3.333zm40 0h-20v-3.333h20v3.333zm40 0h-20v-3.333h20v3.333zm40 0h-20v-3.333h20v3.333zm40 0h-20v-3.333h20v3.333zm40 0h-20v-3.333h20v3.333zm40 0h-20v-3.333h20v3.333zm40 0h-20v-3.333h20v3.333zm40 0h-20v-3.333h20v3.333"/><path fill="#9192FF" fill-rule="nonzero" d="M1914.68 1796.547h-425.533c-27.174 0-49.214-22.04-49.214-49.227v-272.08c0-27.187 22.04-49.213 49.214-49.213h425.533c27.187 0 49.213 22.026 49.213 49.213v272.08c0 27.187-22.026 49.227-49.213 49.227"/><path fill="#FFF" fill-rule="nonzero" d="M1587.773 1757.667h-56.733v-115.214h56.733v115.214M1682.773 1757.667h-56.72v-111.52h56.72v111.52M1777.787 1757.667h-56.734v-169.774h56.734v169.774M1872.8 1757.667h-56.733v-219.574h56.733v219.574M1854.12 1491.52h-304.413v-13.307h304.413v13.307"/><path fill="#FFA121" fill-rule="nonzero" d="M622.837 1064.32a157.963 157.963 0 00-58.085-83.4l-11.253-8.293 9.55 197.64 73.867-57.134-14.079-48.813"/><path fill="#FFBC96" fill-rule="nonzero" d="M860.213 1303.227l-16.409-32.134a32.597 32.597 0 00-20.345-16.6l-48.286-13.373-124.214-79.307-14.043-48.68-73.867 57.134.672 13.88c1.344 27.853 18.426 52.506 44.024 63.546l120.61 52.027 57.329 1.28c18.473 6.36 24.844 22.293 36.31 16.56 4.273-2.133-12.422-29.627-12.422-29.627l27.71 30.574 22.931-15.28"/><path fill="#D28572" fill-rule="nonzero" d="M636.172 1182.16l-2.913-2.48 16.244-19.107 2.913 2.48-16.244 19.107"/><path fill="#26289C" fill-rule="nonzero" d="M644.177 1383.28l90.37-7.973c58.825-5.2 109.997 42.306 112.864 104.773l20.421 445.08-124.66 3.88-98.995-545.76"/><path fill="#1B1B43" fill-rule="nonzero" d="M753.197 1924.613l3.823 122.947h184.73l-91.091-75.8-5.734-59.24-91.728 12.093"/><path fill="#FFF" fill-rule="nonzero" d="M814.135 2004.72l-4.664-6.053 38.854-29.934 4.666 6.054-38.856 29.933"/><path fill="#D1D1FF" fill-rule="nonzero" d="M711.155 1924.613l3.822 122.947h184.73l-91.091-75.8-5.732-59.24-91.73 12.093"/><path fill="#FFF" fill-rule="nonzero" d="M772.092 2004.72l-4.665-6.053 38.857-29.934 4.665 6.054-38.857 29.933"/><path fill="#3335CF" fill-rule="nonzero" d="M848.748 1936.72H695.867L586.9 1601.453l-15.249-46.933-217.853-.96c-13.455-.187-26.335-6.413-37.266-15.627-23.161-19.533-33.824-50.213-29.62-80.226l19.111-136.32 323.645 42.066c61.383 8 110.954 53.934 123.567 114.52l95.512 458.747"/><path fill="#1B1B43" fill-rule="nonzero" d="M616.56 1554.52l-29.659 46.933-15.249-46.933z"/><path fill="#FFA121" fill-rule="nonzero" d="M576.544 1296.693a1248.978 1248.978 0 01-4.892 18.96l-11.465 46.814-150.97-6.267-108.697-4.507c-28.819-1.186-49.687-27.946-43.801-56.186l50.681-243.88c6.496-41.467 40.168-73.387 81.943-77.707l124.024-12.76 40.13 11.467c39.176 21.013 39.215 59.12 41.087 84.08 8.217 109.226-1.91 175.386-18.04 239.986"/><g transform="matrix(1 0 0 -1 317.49 1362.467)"><mask id="d" fill="#fff"><use xlink:href="#c"/></mask><g fill="#BA792B" fill-rule="nonzero" mask="url(#d)"><path d="M0 0h246.743v241.093H0z"/></g></g><path fill="#1B1B43" fill-rule="nonzero" d="M444.188 1031.707c6.613 7.08 14.143 13.266 22.56 17.88 8.383 4.613 17.507 7.986 26.957 9.106 9.351 1.214 19.222.427 27.431-4.04 8.392-4.173 13.732-12.986 14.736-22.52l1.49.094c-.051 5-1.313 10.053-3.798 14.546-2.51 4.494-6.339 8.227-10.787 10.8-8.982 5.187-19.645 6.134-29.554 4.867-9.974-1.373-19.578-4.867-28.091-10.053-8.573-5.12-16.064-11.907-22.09-19.72l1.146-.96M597.923 1180.707l-2.858-.2c2.746-38.454-.036-85.72-8.268-140.467l2.836-.427c8.263 54.96 11.052 102.427 8.29 141.094M854.48 1344.307H712.43v-28.027h142.05v28.027"/><path fill="#9192FF" fill-rule="nonzero" d="M1100.36 1344.307H814.987l131.221-250.974h285.379l-131.227 250.974"/><path fill="#1B1B43" fill-rule="nonzero" d="M475.624 760.507c-33.441-32.974-96.505-19.12-95.55 36.306-68.795 18.147-72.618 93.64-44.907 132.334l23.886 1.906 5.255-28.186 13.856 28.666 66.884 4.307 30.576-175.333"/><path fill="#FFBC96" fill-rule="nonzero" d="M531.521 883.76v105.293c0 .96-.038 1.88-.114 2.787-1.644 21.68-22.627 37-44.067 31.467-31.61-8.187-53.585-36.774-53.317-69.414l.534-70.133h96.964"/><path fill="#1B1B43" fill-rule="nonzero" d="M531.521 929.28v59.773c0 .96-.038 1.88-.114 2.787-28.168-4.613-60.732-37.227-68.682-72.72l68.796 10.16"/><path fill="#FFBC96" fill-rule="nonzero" d="M588.507 891.56c-1.451 8.373-3.402 16.933-6 25.067-8.408 26.72-23.506 48.88-50.527 45.026-63.521-9.093-98.876-74.533-98.876-74.533l43.457-49.68 29.162-39.213 87.409 37.76s.459 26.72-4.625 55.573"/><path fill="#1B1B43" fill-rule="nonzero" d="M451.896 870.387c27.879-.894 49.44-15.094 58.604-55.427 0 0 64.973 56.067 96.824 26.12 26.672-25.067-18.575-82.747-93.47-89.627-27.282-2.493-54.478 6.014-75.858 23.147-36.299 29.093-39.767 96.733-5.847 120.147l19.747-24.36"/><path fill="#FFA121" fill-rule="nonzero" d="M419.25 799.68c-1.82-6.587-.463-13.893 2.477-20.173 2.984-6.32 7.588-11.827 13.084-16.094 5.496-4.28 11.945-7.346 18.724-8.76 6.753-1.386 13.934-1.173 20.178 1.547-6.446 2.08-12.032 4.28-17.28 6.987a93.95 93.95 0 00-14.6 9.28c-4.518 3.506-8.716 7.4-12.494 11.813-3.802 4.44-7.136 9.307-10.088 15.4"/><path fill="#FFBC96" fill-rule="nonzero" d="M463.719 866.773c5.39 13.467.725 28-10.422 32.454-11.145 4.466-24.55-2.84-29.941-16.307-5.39-13.467-.724-28 10.421-32.453 11.146-4.467 24.551 2.84 29.942 16.306"/><path fill="#1B1B43" fill-rule="nonzero" d="M443.537 889.28c.478-4.653.51-9.067-.846-13.12-1.316-4.067-3.898-7.6-6.871-11.253l.939-1.16c4.321 2.253 7.989 6.28 9.553 11.253 1.572 4.973.89 10.387-1.344 14.707l-1.43-.427M547.936 875.187c0 3.946-2.89 7.146-6.456 7.146-3.564 0-6.455-3.2-6.455-7.146 0-3.947 2.891-7.147 6.455-7.147 3.567 0 6.456 3.2 6.456 7.147M581.83 880.813c-.429 3.48-3.33 6-6.48 5.6-3.151-.386-5.358-3.52-4.929-7.013.43-3.48 3.331-5.987 6.482-5.6 3.15.387 5.356 3.52 4.928 7.013M547.608 857.253c.257 3.334-5.081 3.654-12.95 3.894-7.867.226-13.303 2.666-13.366.546-.063-2.106 5.757-7.533 13.519-8.84 8.005-1.36 12.489.427 12.797 4.4M572.744 860.467c-.579 3.293 3.348 4.133 9.164 5.16 5.815 1.013 9.57 3.973 9.861 1.88.291-2.094-3.401-8.054-9.013-10.134-5.787-2.146-9.323-.826-10.012 3.094M563.39 886.747c1.49 1.826 3.151 3.4 4.849 5.026l2.577 2.4c.892.8 1.856 1.694 2.716 3.04.421.68.764 1.56.82 2.547.076 1-.236 1.96-.637 2.707-.886 1.48-1.938 2.346-3.082 3.12-2.285 1.493-4.756 2.12-7.146 2.586l-.559-1.386c2.055-1.334 4.103-2.52 5.697-3.894.762-.68 1.511-1.506 1.78-2.146.296-.627.21-.84-.144-1.587-.848-1.4-3.014-3.253-4.429-5.187-1.547-1.92-2.94-4.106-3.753-6.506l1.31-.72M531.036 910.267c3.905 4.466 7.972 8.586 12.863 11.2 4.86 2.693 10.394 3.453 16.248 2.813l.397 1.44c-2.828 1.267-6.017 1.933-9.237 1.747-3.222-.134-6.411-1.107-9.218-2.654-5.641-3.133-9.798-8.2-12.312-13.733l1.259-.813"/><path fill="#FFA988" fill-rule="nonzero" d="M508.117 906.213c-8.71 0-15.772-7.066-15.772-15.773s7.062-15.773 15.772-15.773c8.711 0 15.771 7.066 15.771 15.773s-7.06 15.773-15.77 15.773M582.507 916.627a15.714 15.714 0 01-3.936-10.427c0-6.653 4.128-12.307 9.936-14.64-1.451 8.373-3.402 16.933-6 25.067"/><path fill="#FFA121" fill-rule="nonzero" d="M408.58 1078.04l-91.09 43.32 28.569 67.72 95.508-44.04-32.987-67"/><path fill="#C5C5FF" fill-rule="nonzero" d="M746 1312.92c-2.527-1.267-4.107-2.12-4.107-2.12l.912-1.8s1.683.813 4.124 2.12l-.929 1.8"/><path fill="#FFBC96" fill-rule="nonzero" d="M783.773 1322.333c-2.942 5.814-25.493-4.466-36.004-9.626 8.142 4.506 22.168 13.373 15.939 18.226-5.007 3.867-16.09-4.36-52.4-19.413 5.504 2.6 37.952 18.04 29.773 23.88-8.905 6.347-47.125-7.64-47.125-7.64l-33.136 17.813H622.6l-137.516.881c-8.637.04-17.199-1.067-25.493-3.214-16.32-4.16-31.684-12.267-44.718-23.16-8.217-6.88-15.288-14.947-21.212-23.813-4.433-6.654-8.217-13.8-11.35-21.254l-36.271-85.906 95.51-44.08 49.84 101.173 164.346 35.693 45.864-11.466c9.861-2.48 23.812 1.693 32.488 7 21.173 12.96 52.436 39.36 49.685 44.906"/><path fill="#FFA988" fill-rule="nonzero" d="M459.59 1343.24c-16.32-4.16-31.683-12.267-44.717-23.16-8.217-6.88-15.288-14.947-21.212-23.813a41.914 41.914 0 0126.374-9.28c23.236 0 42.041 18.8 42.041 42.04 0 5-.88 9.786-2.485 14.213"/><path fill="#D28572" fill-rule="nonzero" d="M655.5 1281.173c11.396-3.786 22.944-7.053 34.728-9.52 5.892-1.213 11.856-2.2 17.939-2.546 3.041-.174 6.117-.12 9.222.24 1.535.306 3.063.706 4.595 1.066 1.459.507 2.881 1.107 4.324 1.654 11.181 5.066 20.923 12.32 30.344 19.773 9.419 7.507 18.31 15.573 26.95 23.973l.398.387.084.493c.307 1.814.097 3.48-.907 5.174-.616.706-1.248 1.493-2.077 1.826-.8.52-1.595.707-2.388.84-3.167.52-5.937-.133-8.584-.84-5.313-1.466-10.055-3.893-14.836-6.24-4.677-2.493-9.288-5.093-13.759-7.906-4.545-2.694-8.864-5.707-13.292-8.56l2.02-3.24c7.819 4.64 15.422 9.506 22.694 15.026 3.608 2.814 7.181 5.667 10.254 9.427.736 1 1.479 2 1.992 3.36.284.64.436 1.453.456 2.333-.069.92-.353 1.894-.981 2.614-1.204 1.386-2.653 1.853-3.877 2.16-1.275.333-2.467.4-3.679.52l-.375.04-.408-.174-41.488-17.373 1.242-2.92c6.537 3.013 12.898 6.253 18.965 10.24 2.957 2.107 6.07 4.027 8.248 7.68.497.92.856 2.333.34 3.653-.523 1.28-1.536 2.094-2.464 2.534-1.917.973-3.85 1.173-5.708 1.28-7.439.173-14.42-1.574-21.352-3.28-6.91-1.827-13.7-3.987-20.416-6.414l.504-1.4a241.06 241.06 0 0020.399 5.854c6.848 1.546 13.905 3.053 20.717 2.72 3.25-.134 7.127-1.56 5.545-3.707-1.49-2.507-4.569-4.64-7.394-6.52-5.871-3.733-12.254-6.893-18.655-9.733l1.241-2.92 41.639 17.013-.781-.133c1.025-.107 2.086-.174 2.992-.427.938-.2 1.696-.627 1.952-.933.582-.24-.2-2.294-1.504-3.827-2.642-3.213-6.139-6.053-9.64-8.733-7.084-5.334-14.686-10.147-22.36-14.654l2.02-3.226c4.396 2.813 8.66 5.853 13.134 8.52 4.408 2.786 8.926 5.36 13.488 7.826 4.614 2.294 9.276 4.68 14.106 6.014 2.368.68 4.886 1.146 6.908.8l.738-.12c.228-.067.366-.214.56-.294.443-.133.576-.48.875-.693.373-.573.54-1.64.408-2.413l.481.88a398.27 398.27 0 00-26.534-23.907c-9.2-7.48-18.794-14.747-29.394-19.707l-4.034-1.613c-1.379-.333-2.743-.72-4.131-1.013a50.893 50.893 0 00-8.693-.334c-5.875.24-11.779 1.054-17.627 2.134-11.701 2.173-23.299 5.173-34.692 8.693l-.472-1.427"/><path fill="#1B1B43" fill-rule="nonzero" d="M346.639 1190.4l-1.2-2.6 94.248-43.48-39.255-91.867 2.636-1.133 40.35 94.427-96.78 44.653M360.121 2023.36h-5v-430.613h5v430.613"/><path fill="#D1D1FF" fill-rule="nonzero" d="M478.013 1611.853H237.227c-16.359 0-29.62-13.266-29.62-29.626s13.261-29.614 29.62-29.614h240.786c16.359 0 29.62 13.254 29.62 29.614s-13.261 29.626-29.62 29.626M458.903 2051.387H256.337v-4.894c0-24.6 19.94-44.546 44.54-44.546h113.487c24.599 0 44.539 19.946 44.539 44.546v4.894"/><path fill="#1B1B43" fill-rule="nonzero" d="M1071.495 2049.773L644.704 1373.28l4.228-2.667 426.79 676.494-4.227 2.666"/><path fill="#1B1B43" fill-rule="nonzero" d="M648.932 2049.773l-4.228-2.666 426.79-676.494 4.229 2.667-426.791 676.493"/><path fill="#D1D1FF" fill-rule="nonzero" d="M1234.133 1400.707H486.295v-56.4h747.838v56.4"/><path fill="#9192FF" fill-rule="nonzero" d="M548.983 135.907c-84.338 0-152.951 68.613-152.951 152.946 0 84.347 68.613 152.96 152.95 152.96 84.338 0 152.951-68.613 152.951-152.96 0-84.333-68.613-152.946-152.95-152.946zm0 309.24c-86.175 0-156.284-70.107-156.284-156.294 0-86.173 70.109-156.28 156.284-156.28 86.176 0 156.284 70.107 156.284 156.28 0 86.187-70.108 156.294-156.284 156.294"/><path fill="#EBEBFF" fill-rule="nonzero" d="M824.712 227.627c0 93.906-76.132 170.04-170.045 170.04-93.914 0-170.046-76.134-170.046-170.04 0-93.92 76.132-170.054 170.046-170.054 93.913 0 170.045 76.134 170.045 170.054"/><path fill="#1B1B43" fill-rule="nonzero" d="M654.727 230.84l-94.27-73.893 3.087-3.934 91.063 71.387 50.777-43 3.233 3.813-53.89 45.627"/><path fill="#FFF" fill-rule="nonzero" d="M213.396 594.333h-86.348c-13.895 0-25.159 11.267-25.159 25.16v86.347c0 13.893 11.264 25.16 25.159 25.16h61.623l26.552 36.667v-36.76c13.038-.934 23.333-11.787 23.333-25.067v-86.347c0-13.893-11.265-25.16-25.16-25.16"/><path fill="#9192FF" fill-rule="nonzero" d="M127.048 596c-12.955 0-23.493 10.533-23.493 23.493v86.347c0 12.96 10.538 23.493 23.493 23.493h62.475l24.032 33.187v-33.16l1.546-.12c12.216-.88 21.787-11.16 21.787-23.4v-86.347c0-12.96-10.539-23.493-23.492-23.493h-86.348zm89.84 176.813l-29.07-40.146h-60.77c-14.792 0-26.827-12.04-26.827-26.827v-86.347c0-14.786 12.035-26.826 26.827-26.826h86.348c14.792 0 26.825 12.04 26.825 26.826v86.347c0 13.467-10.13 24.84-23.333 26.573v40.4"/><path fill="#9192FF" fill-rule="nonzero" d="M168.452 707.107l-34.563-49.934 8.222-5.693 25.437 36.747 38.31-68.56 8.729 4.88-46.135 82.56"/><path fill="#1B1B43" fill-rule="nonzero" d="M2116.587 2051.387H68v-5h2048.587v5"/></g></svg>
