<svg xmlns="http://www.w3.org/2000/svg" viewBox="0 0 512 512"><g data-name="Filled outline"><path fill="#95573a" d="M312.011 352a7.992 7.992 0 01-7.164-4.422L256 249.887l-48.844 97.691a8 8 0 11-14.312-7.156l56-112c2.719-5.422 11.594-5.422 14.312 0l56 112A8 8 0 01312.011 352zM136.011 352a7.992 7.992 0 01-7.164-4.422L80 249.887l-48.841 97.691a8 8 0 11-14.312-7.156l56-112c2.719-5.422 11.594-5.422 14.312 0l56 112A8 8 0 01136.011 352z"/><path fill="#ffb531" d="M216 456a32 32 0 00-32-32h-32a32 32 0 00-32 32 32 32 0 00-32 32h160a32 32 0 00-32-32z"/><path fill="#ffa912" d="M216 456a32 32 0 00-32-32h-32a31.727 31.727 0 00-8 1.131A31.926 31.926 0 01168 456a32 32 0 0132 32h48a32 32 0 00-32-32z"/><path fill="#ffb531" d="M16 344h128a32 32 0 01-32 32H48a32 32 0 01-32-32z"/><path fill="#ffa912" d="M112 344c0 17.673-22.327 32-40 32h40a32 32 0 0032-32z"/><path fill="#f7a116" d="M168 239.969a51.807 51.807 0 01-21.406-4.578l-18.047-8.219a36.176 36.176 0 00-31.758 1.1 51.94 51.94 0 01-39.766 4l-3.351-1.016 4.656-15.313 3.344 1.016a35.8 35.8 0 0027.445-2.723 51.819 51.819 0 0146.063-1.625l18.047 8.219a36.086 36.086 0 0029.554 0l18.032-8.219a51.8 51.8 0 0146.07 1.625 35.818 35.818 0 0027.453 2.723l3.336-1.016 4.656 15.313-3.344 1.016a51.94 51.94 0 01-39.773-4 36.191 36.191 0 00-31.766-1.1l-18.031 8.219A51.843 51.843 0 01168 239.969z"/><path fill="#ffb531" d="M192 208a24 24 0 10-40 17.771V424h32V225.771A23.849 23.849 0 00192 208z"/><rect width="112" height="16" x="112.003" y="448" fill="#f7a116" rx="8"/><path fill="#fec9a3" d="M296 264v-56h80v56l24 24-64 168-64-168z"/><path fill="#bfbfbd" d="M400 288l-64 168-64-168 24-24 40 40 40-40z"/><path fill="#bfbfbd" d="M272 288l64 168 64-168-24-24-40 40-40-40z"/><path fill="#95573a" d="M352 288v168h-32V288l16 16z"/><path fill="#8f4d2e" d="M352 383.25V456h-32v-44.37c10.91-8.9 21.58-18.3 32-28.38z"/><path fill="#e0e0de" d="M336 304l-40.09 46.77L272 288l24-24zM400 288l-23.91 62.77L336 304l40-40z"/><path fill="#feb784" d="M376 243.859V224h-80v19.859a71.963 71.963 0 0080 0zM408 109.586h8a24 24 0 0124 24 24 24 0 01-24 24h-8v-48zM264 109.586h-8a24.071 24.071 0 00-24 24 24.071 24.071 0 0024 24h8.48"/><path fill="#fec9a3" d="M408 104v64a72 72 0 11-144 0v-64a72.006 72.006 0 0172-72c.2 0 .4 0 .6.01A71.993 71.993 0 01408 104z"/><path fill="#fec093" d="M408 104v64a72.039 72.039 0 01-95.71 68A88.026 88.026 0 00374 152v-48a88.031 88.031 0 00-37.4-71.99A71.993 71.993 0 01408 104z"/><circle cx="300" cy="124" r="12" fill="#7a432a"/><circle cx="372" cy="124" r="12" fill="#7a432a"/><path fill="#7a432a" d="M408 77.59v32a194.348 194.348 0 01-29.08-48h-.01a120.136 120.136 0 01-13.62 4.19A122.4 122.4 0 01336 69.33a122.749 122.749 0 01-42.91-7.74 194.682 194.682 0 01-29.09 48v-32A54.761 54.761 0 01270.7 51 43.1 43.1 0 01288 33.61a124.343 124.343 0 0135.95-9.02q6.015-.6 12.05-.59a124.6 124.6 0 0148 9.61c14.12 7.41 24 24.3 24 43.98z"/><path fill="#f7a468" d="M326.891 184H312v-16h14.891c10.951 0 21.549-2.519 29.078-6.91l8.062 13.82c-10.049 5.862-23.238 9.09-37.14 9.09z"/><path fill="#3d4d63" d="M488 343.23V496H184V343.23a39.994 39.994 0 0130.3-38.8L248 296l24-8 64 168 64-168 24 8 33.7 8.43a39.994 39.994 0 0130.3 38.8z"/><path fill="#374559" d="M488 345.82V496H271.89c73.3-21.25 162.1-64.11 216.11-150.18z"/><g fill="#22303d"><path d="M328 456h16v40h-16zM296 464h16v16h-16zM232 424h16v72h-16zM424 424h16v72h-16z"/></g><path fill="#4c5d72" d="M248 296l-8 80h32l-8 32 72 48-64-168zM424 296l8 80h-32l8 32-72 48 64-168z"/><path fill="#743b20" d="M408 77.59v32a194.348 194.348 0 01-29.08-48h-.01a120.136 120.136 0 01-13.62 4.19 88.422 88.422 0 00-41.34-41.19q6.015-.6 12.05-.59a124.6 124.6 0 0148 9.61c14.12 7.41 24 24.3 24 43.98z"/><path d="M459.642 296.664l-55.32-15.656L384 260.686v-28.694A79.9 79.9 0 00416 168v-2.414a32 32 0 000-64v-24c0-22-11.1-42.048-28.283-51.063q-.312-.163-.638-.3a133.54 133.54 0 00-102.158 0q-.325.135-.638.3C267.1 35.54 256 55.584 256 77.588v24a32 32 0 100 64V168a79.868 79.868 0 0017.011 49.32 35.751 35.751 0 01-26.136-3.091 51.935 51.935 0 00-46.051-1.62l-1.265.577A31.359 31.359 0 00200 208a32 32 0 00-64 0 31.359 31.359 0 00.441 5.186l-1.266-.577a51.772 51.772 0 00-46.055 1.623 36.11 36.11 0 01-27.462 2.718l-3.349-1.01-4.618 15.32 3.328 1a51.822 51.822 0 0012.81 2.19L16.845 340.422h.006A7.952 7.952 0 0016 344a40.045 40.045 0 0040 40h48a40.045 40.045 0 0040-40 7.952 7.952 0 00-.851-3.575h.006L88.818 231.748a50.221 50.221 0 007.978-3.477 36.178 36.178 0 0131.749-1.1L144 234.209V416.8a40.015 40.015 0 00-31.325 31.876A39.993 39.993 0 0080 488a8 8 0 008 8h104V343.231a31.954 31.954 0 0124.239-31.044l22.669-5.668-6.868 68.681A8 8 0 00240 384h21.754l-5.515 22.06a8 8 0 003.323 8.6L328 460.281V496h16v-35.719l68.438-45.625a8 8 0 003.323-8.6L410.246 384H432a8 8 0 007.96-8.8l-6.869-68.685 22.67 5.668A31.954 31.954 0 01480 343.231V496h16V343.231a47.931 47.931 0 00-36.358-46.567zM104 368H56a24.042 24.042 0 01-22.629-16h93.258A24.042 24.042 0 01104 368zm-67.056-32L80 249.889 123.056 336zm198.562-45.123L256 249.889l14.266 28.531-2.588 2.588zM328 325.626l8-9.333 8 9.333v86.9l-8 21-8-21zm-16 44.9l-6.919-18.164 6.919-8.07zm48 0v-26.234l6.919 8.072zm-61.4-35.184l-17.277-45.35L296 275.314l29.1 29.1zm74.806 0L346.9 304.418l29.1-29.1 14.68 14.68zM368 260.686l-32 32-32-32v-19.355a80.108 80.108 0 0064 0zm-80-28.694v28.694l-5.809 5.809-16.02-32.041a51.807 51.807 0 0012.788-2.184l6.872-1.961q1.069.86 2.169 1.683zm144-98.406a16.019 16.019 0 01-16 16v-32a16.019 16.019 0 0116 16zm-160-56c0-15.994 7.611-30.369 19.419-36.736a117.457 117.457 0 0189.162 0C392.389 47.219 400 61.594 400 77.588v7.267a195.151 195.151 0 01-13.73-26.415 8 8 0 00-10.15-4.347 114.855 114.855 0 01-80.239 0 8 8 0 00-10.15 4.348A195.059 195.059 0 01272 84.856zm-32 56a16.019 16.019 0 0116-16v32a16.019 16.019 0 01-16-16zm32-21.179a200.571 200.571 0 0025.407-40.9 130.866 130.866 0 0077.188 0 200.548 200.548 0 0025.4 40.9V168a64 64 0 11-128 0zM168 192a16.019 16.019 0 0116 16 15.78 15.78 0 01-5.354 11.828 8 8 0 00-2.646 5.943V416h-16V225.771a8 8 0 00-2.646-5.943A15.78 15.78 0 01152 208a16.019 16.019 0 0116-16zm-32.973 247.027A23.847 23.847 0 01152 432h24v16h-46.643a23.908 23.908 0 015.67-8.973zM97.357 480A24.037 24.037 0 01120 464h56v16zM192 307.443v-73.234l15.455-7.038A35.9 35.9 0 01222.23 224a35.477 35.477 0 0116.971 4.269 50.3 50.3 0 007.979 3.483l-32.118 64.236-2.7.676A47.929 47.929 0 00192 307.443zm81.129 97.028l6.632-26.531A8 8 0 00272 368h-23.16l6.6-66.049 11.81-3.936 52.361 137.447zM400 368a8 8 0 00-7.761 9.94l6.632 26.531-46.486 30.991 52.361-137.447 11.81 3.936L423.16 368z"/><path d="M300 136a12 12 0 10-12-12 12.013 12.013 0 0012 12zM372 136a12 12 0 10-12-12 12.013 12.013 0 0012 12zM312 184h14.891c13.9 0 27.091-3.228 37.14-9.09l-8.062-13.82c-7.529 4.391-18.127 6.91-29.078 6.91H312zM296 464h16v16h-16zM232 424h16v72h-16zM424 424h16v72h-16z"/></g></svg>
